M48
; DRILL file {KiCad (5.1.6)-1} date 02/12/21 18:31:46
; FORMAT={-:-/ absolute / inch / decimal}
; #@! TF.CreationDate,2021-02-12T18:31:46+01:00
; #@! TF.GenerationSoftware,Kicad,Pcbnew,(5.1.6)-1
; #@! TF.FileFunction,Plated,1,2,PTH
FMAT,2
INCH
T1C0.0197
T2C0.0236
T3C0.0276
T4C0.0295
T5C0.0315
T6C0.0394
T7C0.0984
%
G90
G05
T1
X3.5774Y-2.25
X3.599Y-2.1978
X3.599Y-2.3022
X3.6512Y-2.1762
X3.6512Y-2.3238
X3.7034Y-2.1978
X3.7034Y-2.3022
X3.725Y-2.25
X5.949Y-2.25
X5.9706Y-2.1978
X5.9706Y-2.3022
X6.0228Y-2.1762
X6.0228Y-2.3238
X6.075Y-2.1978
X6.075Y-2.3022
X6.0966Y-2.25
X3.5762Y-4.375
X3.5978Y-4.3228
X3.5978Y-4.4272
X3.65Y-4.3012
X3.65Y-4.4488
X3.7022Y-4.3228
X3.7022Y-4.4272
X3.7238Y-4.375
X5.9512Y-4.375
X5.9728Y-4.3228
X5.9728Y-4.4272
X6.025Y-4.3012
X6.025Y-4.4488
X6.0772Y-4.3228
X6.0772Y-4.4272
X6.0988Y-4.375
T2
X3.61Y-3.575
X3.61Y-3.875
X3.6612Y-2.4242
X3.76Y-2.775
X3.811Y-3.324
X3.813Y-3.171
X3.96Y-4.075
X4.01Y-2.372
X4.01Y-3.323
X4.013Y-2.923
X4.06Y-2.623
X4.0836Y-3.5699
X4.26Y-2.825
X4.26Y-3.82
X4.26Y-4.225
X4.31Y-2.975
X4.36Y-2.925
X4.36Y-3.625
X4.36Y-4.125
X4.41Y-3.27
X4.5278Y-3.5692
X4.5293Y-2.6248
X4.5297Y-3.6652
X4.5297Y-3.7264
X4.5403Y-2.7249
X4.56Y-3.02
X4.6417Y-3.7554
X4.6417Y-3.8082
X4.66Y-2.42
X4.7045Y-4.1839
X4.71Y-2.375
X4.71Y-3.775
X4.76Y-3.12
X4.76Y-3.22
X4.76Y-3.37
X4.81Y-2.625
X4.8152Y-4.2608
X4.86Y-2.825
X4.91Y-2.725
X4.91Y-3.225
X4.916Y-4.2237
X4.96Y-2.825
X4.96Y-3.275
X5.01Y-2.575
X5.01Y-2.725
X5.0131Y-4.0848
X5.06Y-2.675
X5.06Y-3.025
X5.06Y-3.525
X5.11Y-2.775
X5.11Y-3.07
X5.11Y-3.175
X5.16Y-2.975
X5.16Y-3.775
X5.2401Y-3.7394
X5.31Y-2.42
X5.3458Y-3.6201
X5.36Y-3.47
X5.56Y-3.775
X5.71Y-3.575
X5.86Y-3.27
T3
X4.8632Y-4.1734
X4.9632Y-4.1734
X5.0636Y-3.8737
X5.0636Y-3.9737
X4.7589Y-4.325
X4.7589Y-4.425
X5.3639Y-3.8737
X5.3639Y-3.9737
X5.1613Y-3.8719
X5.1613Y-3.9719
X5.0765Y-4.1054
X5.1765Y-4.1054
X4.9595Y-4.3246
X4.9595Y-4.4246
X5.2629Y-4.1059
X5.3629Y-4.1059
X4.6602Y-3.8737
X4.6602Y-3.9737
X4.8641Y-4.3254
X4.8641Y-4.4254
X4.8647Y-3.8756
X4.8647Y-3.9756
X4.7634Y-3.8719
X4.7634Y-3.9719
X5.2626Y-3.8719
X5.2626Y-3.9719
X4.9623Y-3.8737
X4.9623Y-3.9737
X4.6687Y-4.325
X4.6687Y-4.425
T4
X5.8115Y-3.9771
X5.8115Y-4.3771
X3.7614Y-4.1244
X3.8114Y-4.1744
X3.8614Y-4.1244
X5.6125Y-3.9752
X5.6125Y-4.3752
X5.7102Y-3.9734
X5.7102Y-4.3734
X5.517Y-3.9751
X5.517Y-4.3751
X3.7633Y-3.9223
X3.8133Y-3.9723
X3.8633Y-3.9223
T5
X3.6615Y-2.5746
X3.6615Y-2.6746
X3.6615Y-2.7746
X3.6615Y-2.8746
X3.6615Y-2.9746
X3.6615Y-3.0746
X3.6615Y-3.1746
X3.9615Y-2.5746
X3.9615Y-2.6746
X3.9615Y-2.7746
X3.9615Y-2.8746
X3.9615Y-2.9746
X3.9615Y-3.0746
X3.9615Y-3.1746
X5.1413Y-4.3867
X5.3334Y-4.3867
X4.6631Y-2.5706
X4.6631Y-2.6706
X4.6631Y-2.7706
X4.6631Y-2.8706
X4.6631Y-2.9706
X4.6631Y-3.0706
X4.6631Y-3.1706
X4.6631Y-3.2706
X4.6631Y-3.3706
X4.6631Y-3.4706
X4.6631Y-3.5706
X4.6631Y-3.6706
X5.2631Y-2.5706
X5.2631Y-2.6706
X5.2631Y-2.7706
X5.2631Y-2.8706
X5.2631Y-2.9706
X5.2631Y-3.0706
X5.2631Y-3.1706
X5.2631Y-3.2706
X5.2631Y-3.3706
X5.2631Y-3.4706
X5.2631Y-3.5706
X5.2631Y-3.6706
X3.765Y-3.7694
X3.8634Y-3.7694
X3.7672Y-3.4167
X3.8656Y-3.4167
X5.4629Y-2.5691
X5.4629Y-2.6691
X5.4629Y-2.7691
X5.4629Y-2.8691
X5.4629Y-2.9691
X5.4629Y-3.0691
X5.4629Y-3.1691
X5.4629Y-3.2691
X5.4629Y-3.3691
X5.4629Y-3.4691
X5.4629Y-3.5691
X5.4629Y-3.6691
X6.0629Y-2.5691
X6.0629Y-2.6691
X6.0629Y-2.7691
X6.0629Y-2.8691
X6.0629Y-2.9691
X6.0629Y-3.0691
X6.0629Y-3.1691
X6.0629Y-3.2691
X6.0629Y-3.3691
X6.0629Y-3.4691
X6.0629Y-3.5691
X6.0629Y-3.6691
X5.7121Y-3.8263
X5.909Y-3.8263
X5.1302Y-4.2154
X5.2286Y-4.2154
X4.1623Y-3.4186
X4.1623Y-3.5186
X4.1623Y-3.6186
X4.1623Y-3.7186
X4.1623Y-3.8186
X4.1623Y-3.9186
X4.1623Y-4.0186
X4.1623Y-4.1186
X4.1623Y-4.2186
X4.4623Y-3.4186
X4.4623Y-3.5186
X4.4623Y-3.6186
X4.4623Y-3.7186
X4.4623Y-3.8186
X4.4623Y-3.9186
X4.4623Y-4.0186
X4.4623Y-4.1186
X4.4623Y-4.2186
X4.1605Y-2.5746
X4.1605Y-2.6746
X4.1605Y-2.7746
X4.1605Y-2.8746
X4.1605Y-2.9746
X4.1605Y-3.0746
X4.1605Y-3.1746
X4.4605Y-2.5746
X4.4605Y-2.6746
X4.4605Y-2.7746
X4.4605Y-2.8746
X4.4605Y-2.9746
X4.4605Y-3.0746
X4.4605Y-3.1746
X4.2613Y-4.3745
X4.4582Y-4.3745
X3.764Y-3.6267
X3.8624Y-3.6267
X5.3199Y-4.2159
X5.4183Y-4.2159
T6
X3.91Y-2.27
X4.165Y-2.27
X4.4649Y-2.2151
X4.4649Y-2.3151
X4.5649Y-2.2151
X4.5649Y-2.3151
X4.6649Y-2.2151
X4.6649Y-2.3151
X4.7649Y-2.2151
X4.7649Y-2.3151
X4.8649Y-2.2151
X4.8649Y-2.3151
X4.9649Y-2.2151
X4.9649Y-2.3151
X5.0649Y-2.2151
X5.0649Y-2.3151
X5.1649Y-2.2151
X5.1649Y-2.3151
X5.2649Y-2.2151
X5.2649Y-2.3151
X5.3649Y-2.2151
X5.3649Y-2.3151
X5.4649Y-2.2151
X5.4649Y-2.3151
X5.5649Y-2.2151
X5.5649Y-2.3151
X5.6649Y-2.2151
X5.6649Y-2.3151
T7
X3.6512Y-2.25
X6.0228Y-2.25
X3.65Y-4.375
X6.025Y-4.375
T0
M30
