G04 #@! TF.GenerationSoftware,KiCad,Pcbnew,(5.1.6)-1*
G04 #@! TF.CreationDate,2021-02-12T18:31:39+01:00*
G04 #@! TF.ProjectId,keyface,6b657966-6163-4652-9e6b-696361645f70,rev?*
G04 #@! TF.SameCoordinates,Original*
G04 #@! TF.FileFunction,Soldermask,Bot*
G04 #@! TF.FilePolarity,Negative*
%FSLAX46Y46*%
G04 Gerber Fmt 4.6, Leading zero omitted, Abs format (unit mm)*
G04 Created by KiCad (PCBNEW (5.1.6)-1) date 2021-02-12 18:31:39*
%MOMM*%
%LPD*%
G01*
G04 APERTURE LIST*
%ADD10O,1.700000X1.700000*%
%ADD11R,1.700000X1.700000*%
%ADD12C,1.700000*%
%ADD13O,1.600000X1.600000*%
%ADD14R,1.600000X1.600000*%
%ADD15C,1.600000*%
%ADD16O,1.800000X1.800000*%
%ADD17R,1.800000X1.800000*%
%ADD18C,0.900000*%
%ADD19C,5.100000*%
%ADD20C,2.100000*%
%ADD21R,1.400000X1.400000*%
%ADD22C,1.400000*%
%ADD23O,1.500000X1.500000*%
%ADD24C,1.500000*%
G04 APERTURE END LIST*
D10*
X153997660Y-65255140D03*
X138757660Y-93195140D03*
X153997660Y-67795140D03*
X138757660Y-90655140D03*
X153997660Y-70335140D03*
X138757660Y-88115140D03*
X153997660Y-72875140D03*
X138757660Y-85575140D03*
X153997660Y-75415140D03*
X138757660Y-83035140D03*
X153997660Y-77955140D03*
X138757660Y-80495140D03*
X153997660Y-80495140D03*
X138757660Y-77955140D03*
X153997660Y-83035140D03*
X138757660Y-75415140D03*
X153997660Y-85575140D03*
X138757660Y-72875140D03*
X153997660Y-88115140D03*
X138757660Y-70335140D03*
X153997660Y-90655140D03*
X138757660Y-67795140D03*
X153997660Y-93195140D03*
D11*
X138757660Y-65255140D03*
D12*
X132806440Y-107071160D03*
X130306440Y-107071160D03*
X137625460Y-107083860D03*
X135125460Y-107083860D03*
D13*
X140131800Y-111127540D03*
D14*
X140131800Y-100967540D03*
D12*
X95686240Y-86784180D03*
D11*
X98186240Y-86784180D03*
D15*
X135469020Y-111422180D03*
X130589020Y-111422180D03*
D16*
X143888460Y-56263540D03*
X143888460Y-58803540D03*
X141348460Y-56263540D03*
X141348460Y-58803540D03*
X138808460Y-56263540D03*
X138808460Y-58803540D03*
X136268460Y-56263540D03*
X136268460Y-58803540D03*
X133728460Y-56263540D03*
X133728460Y-58803540D03*
X131188460Y-56263540D03*
X131188460Y-58803540D03*
X128648460Y-56263540D03*
X128648460Y-58803540D03*
X126108460Y-56263540D03*
X126108460Y-58803540D03*
X123568460Y-56263540D03*
X123568460Y-58803540D03*
X121028460Y-56263540D03*
X121028460Y-58803540D03*
X118488460Y-56263540D03*
X118488460Y-58803540D03*
X115948460Y-56263540D03*
X115948460Y-58803540D03*
X113408460Y-56263540D03*
D17*
X113408460Y-58803540D03*
D18*
X94035825Y-109799175D03*
X92710000Y-109250000D03*
X91384175Y-109799175D03*
X90835000Y-111125000D03*
X91384175Y-112450825D03*
X92710000Y-113000000D03*
X94035825Y-112450825D03*
X94585000Y-111125000D03*
D19*
X92710000Y-111125000D03*
D18*
X154360825Y-109799175D03*
X153035000Y-109250000D03*
X151709175Y-109799175D03*
X151160000Y-111125000D03*
X151709175Y-112450825D03*
X153035000Y-113000000D03*
X154360825Y-112450825D03*
X154910000Y-111125000D03*
D19*
X153035000Y-111125000D03*
D18*
X154305000Y-55824175D03*
X152979175Y-55275000D03*
X151653350Y-55824175D03*
X151104175Y-57150000D03*
X151653350Y-58475825D03*
X152979175Y-59025000D03*
X154305000Y-58475825D03*
X154854175Y-57150000D03*
D19*
X152979175Y-57150000D03*
D18*
X94065825Y-55824175D03*
X92740000Y-55275000D03*
X91414175Y-55824175D03*
X90865000Y-57150000D03*
X91414175Y-58475825D03*
X92740000Y-59025000D03*
X94065825Y-58475825D03*
X94615000Y-57150000D03*
D19*
X92740000Y-57150000D03*
D20*
X105791000Y-57658000D03*
X99314000Y-57658000D03*
D12*
X145088600Y-97188020D03*
X150088600Y-97188020D03*
X108238280Y-111112300D03*
X113238280Y-111112300D03*
X95604960Y-92118180D03*
X98104960Y-92118180D03*
X95630360Y-95742760D03*
X98130360Y-95742760D03*
D21*
X98127820Y-99626420D03*
D22*
X95587820Y-99626420D03*
X96857820Y-100896420D03*
D21*
X98079560Y-104759760D03*
D22*
X95539560Y-104759760D03*
X96809560Y-106029760D03*
D13*
X145039080Y-111084360D03*
D14*
X145039080Y-100924360D03*
D13*
X142557500Y-111130080D03*
D14*
X142557500Y-100970080D03*
D13*
X147612100Y-111178340D03*
D14*
X147612100Y-101018340D03*
D23*
X125971300Y-112384840D03*
D24*
X125971300Y-109844840D03*
D23*
X123548140Y-112405160D03*
D24*
X123548140Y-109865160D03*
D23*
X120876060Y-112395000D03*
D24*
X120876060Y-109855000D03*
D23*
X118584980Y-112395000D03*
D24*
X118584980Y-109855000D03*
D23*
X133677660Y-104289860D03*
D24*
X136217660Y-104289860D03*
D23*
X128943100Y-104277160D03*
D24*
X131483100Y-104277160D03*
D23*
X123525280Y-106004360D03*
D24*
X126065280Y-106004360D03*
D23*
X136243060Y-98391980D03*
D24*
X136243060Y-100931980D03*
D23*
X133670040Y-98346260D03*
D24*
X133670040Y-100886260D03*
D23*
X131097020Y-98346260D03*
D24*
X131097020Y-100886260D03*
D23*
X128615440Y-98391980D03*
D24*
X128615440Y-100931980D03*
D23*
X126042420Y-98391980D03*
D24*
X126042420Y-100931980D03*
D23*
X123563380Y-98440240D03*
D24*
X123563380Y-100980240D03*
D23*
X120990360Y-98346260D03*
D24*
X120990360Y-100886260D03*
D23*
X118369080Y-98391980D03*
D24*
X118369080Y-100931980D03*
D10*
X113342420Y-86832440D03*
X105722420Y-107152440D03*
X113342420Y-89372440D03*
X105722420Y-104612440D03*
X113342420Y-91912440D03*
X105722420Y-102072440D03*
X113342420Y-94452440D03*
X105722420Y-99532440D03*
X113342420Y-96992440D03*
X105722420Y-96992440D03*
X113342420Y-99532440D03*
X105722420Y-94452440D03*
X113342420Y-102072440D03*
X105722420Y-91912440D03*
X113342420Y-104612440D03*
X105722420Y-89372440D03*
X113342420Y-107152440D03*
D11*
X105722420Y-86832440D03*
D10*
X133682740Y-65293240D03*
X118442740Y-93233240D03*
X133682740Y-67833240D03*
X118442740Y-90693240D03*
X133682740Y-70373240D03*
X118442740Y-88153240D03*
X133682740Y-72913240D03*
X118442740Y-85613240D03*
X133682740Y-75453240D03*
X118442740Y-83073240D03*
X133682740Y-77993240D03*
X118442740Y-80533240D03*
X133682740Y-80533240D03*
X118442740Y-77993240D03*
X133682740Y-83073240D03*
X118442740Y-75453240D03*
X133682740Y-85613240D03*
X118442740Y-72913240D03*
X133682740Y-88153240D03*
X118442740Y-70373240D03*
X133682740Y-90693240D03*
X118442740Y-67833240D03*
X133682740Y-93233240D03*
D11*
X118442740Y-65293240D03*
D10*
X100622100Y-65394840D03*
X93002100Y-80634840D03*
X100622100Y-67934840D03*
X93002100Y-78094840D03*
X100622100Y-70474840D03*
X93002100Y-75554840D03*
X100622100Y-73014840D03*
X93002100Y-73014840D03*
X100622100Y-75554840D03*
X93002100Y-70474840D03*
X100622100Y-78094840D03*
X93002100Y-67934840D03*
X100622100Y-80634840D03*
D11*
X93002100Y-65394840D03*
D10*
X113296700Y-65394840D03*
X105676700Y-80634840D03*
X113296700Y-67934840D03*
X105676700Y-78094840D03*
X113296700Y-70474840D03*
X105676700Y-75554840D03*
X113296700Y-73014840D03*
X105676700Y-73014840D03*
X113296700Y-75554840D03*
X105676700Y-70474840D03*
X113296700Y-78094840D03*
X105676700Y-67934840D03*
X113296700Y-80634840D03*
D11*
X105676700Y-65394840D03*
M02*
