G04 #@! TF.GenerationSoftware,KiCad,Pcbnew,(5.1.6)-1*
G04 #@! TF.CreationDate,2021-02-12T18:31:39+01:00*
G04 #@! TF.ProjectId,keyface,6b657966-6163-4652-9e6b-696361645f70,rev?*
G04 #@! TF.SameCoordinates,Original*
G04 #@! TF.FileFunction,Copper,L2,Bot*
G04 #@! TF.FilePolarity,Positive*
%FSLAX46Y46*%
G04 Gerber Fmt 4.6, Leading zero omitted, Abs format (unit mm)*
G04 Created by KiCad (PCBNEW (5.1.6)-1) date 2021-02-12 18:31:39*
%MOMM*%
%LPD*%
G01*
G04 APERTURE LIST*
G04 #@! TA.AperFunction,ComponentPad*
%ADD10O,1.600000X1.600000*%
G04 #@! TD*
G04 #@! TA.AperFunction,ComponentPad*
%ADD11R,1.600000X1.600000*%
G04 #@! TD*
G04 #@! TA.AperFunction,ComponentPad*
%ADD12C,1.600000*%
G04 #@! TD*
G04 #@! TA.AperFunction,ComponentPad*
%ADD13O,1.500000X1.500000*%
G04 #@! TD*
G04 #@! TA.AperFunction,ComponentPad*
%ADD14R,1.500000X1.500000*%
G04 #@! TD*
G04 #@! TA.AperFunction,ComponentPad*
%ADD15C,1.500000*%
G04 #@! TD*
G04 #@! TA.AperFunction,ComponentPad*
%ADD16O,1.700000X1.700000*%
G04 #@! TD*
G04 #@! TA.AperFunction,ComponentPad*
%ADD17R,1.700000X1.700000*%
G04 #@! TD*
G04 #@! TA.AperFunction,ComponentPad*
%ADD18C,0.800000*%
G04 #@! TD*
G04 #@! TA.AperFunction,ComponentPad*
%ADD19C,5.000000*%
G04 #@! TD*
G04 #@! TA.AperFunction,ComponentPad*
%ADD20C,2.000000*%
G04 #@! TD*
G04 #@! TA.AperFunction,ComponentPad*
%ADD21R,1.300000X1.300000*%
G04 #@! TD*
G04 #@! TA.AperFunction,ComponentPad*
%ADD22C,1.300000*%
G04 #@! TD*
G04 #@! TA.AperFunction,ComponentPad*
%ADD23O,1.400000X1.400000*%
G04 #@! TD*
G04 #@! TA.AperFunction,ComponentPad*
%ADD24C,1.400000*%
G04 #@! TD*
G04 #@! TA.AperFunction,ViaPad*
%ADD25C,1.000000*%
G04 #@! TD*
G04 #@! TA.AperFunction,Conductor*
%ADD26C,0.500000*%
G04 #@! TD*
G04 #@! TA.AperFunction,Conductor*
%ADD27C,0.300000*%
G04 #@! TD*
G04 #@! TA.AperFunction,Conductor*
%ADD28C,0.250000*%
G04 #@! TD*
G04 APERTURE END LIST*
D10*
X153997660Y-65255140D03*
X138757660Y-93195140D03*
X153997660Y-67795140D03*
X138757660Y-90655140D03*
X153997660Y-70335140D03*
X138757660Y-88115140D03*
X153997660Y-72875140D03*
X138757660Y-85575140D03*
X153997660Y-75415140D03*
X138757660Y-83035140D03*
X153997660Y-77955140D03*
X138757660Y-80495140D03*
X153997660Y-80495140D03*
X138757660Y-77955140D03*
X153997660Y-83035140D03*
X138757660Y-75415140D03*
X153997660Y-85575140D03*
X138757660Y-72875140D03*
X153997660Y-88115140D03*
X138757660Y-70335140D03*
X153997660Y-90655140D03*
X138757660Y-67795140D03*
X153997660Y-93195140D03*
D11*
X138757660Y-65255140D03*
D12*
X132806440Y-107071160D03*
X130306440Y-107071160D03*
X137625460Y-107083860D03*
X135125460Y-107083860D03*
D13*
X140131800Y-111127540D03*
D14*
X140131800Y-100967540D03*
D12*
X95686240Y-86784180D03*
D11*
X98186240Y-86784180D03*
D15*
X135469020Y-111422180D03*
X130589020Y-111422180D03*
D16*
X143888460Y-56263540D03*
X143888460Y-58803540D03*
X141348460Y-56263540D03*
X141348460Y-58803540D03*
X138808460Y-56263540D03*
X138808460Y-58803540D03*
X136268460Y-56263540D03*
X136268460Y-58803540D03*
X133728460Y-56263540D03*
X133728460Y-58803540D03*
X131188460Y-56263540D03*
X131188460Y-58803540D03*
X128648460Y-56263540D03*
X128648460Y-58803540D03*
X126108460Y-56263540D03*
X126108460Y-58803540D03*
X123568460Y-56263540D03*
X123568460Y-58803540D03*
X121028460Y-56263540D03*
X121028460Y-58803540D03*
X118488460Y-56263540D03*
X118488460Y-58803540D03*
X115948460Y-56263540D03*
X115948460Y-58803540D03*
X113408460Y-56263540D03*
D17*
X113408460Y-58803540D03*
D18*
X94035825Y-109799175D03*
X92710000Y-109250000D03*
X91384175Y-109799175D03*
X90835000Y-111125000D03*
X91384175Y-112450825D03*
X92710000Y-113000000D03*
X94035825Y-112450825D03*
X94585000Y-111125000D03*
D19*
X92710000Y-111125000D03*
D18*
X154360825Y-109799175D03*
X153035000Y-109250000D03*
X151709175Y-109799175D03*
X151160000Y-111125000D03*
X151709175Y-112450825D03*
X153035000Y-113000000D03*
X154360825Y-112450825D03*
X154910000Y-111125000D03*
D19*
X153035000Y-111125000D03*
D18*
X154305000Y-55824175D03*
X152979175Y-55275000D03*
X151653350Y-55824175D03*
X151104175Y-57150000D03*
X151653350Y-58475825D03*
X152979175Y-59025000D03*
X154305000Y-58475825D03*
X154854175Y-57150000D03*
D19*
X152979175Y-57150000D03*
D18*
X94065825Y-55824175D03*
X92740000Y-55275000D03*
X91414175Y-55824175D03*
X90865000Y-57150000D03*
X91414175Y-58475825D03*
X92740000Y-59025000D03*
X94065825Y-58475825D03*
X94615000Y-57150000D03*
D19*
X92740000Y-57150000D03*
D20*
X105791000Y-57658000D03*
X99314000Y-57658000D03*
D12*
X145088600Y-97188020D03*
X150088600Y-97188020D03*
X108238280Y-111112300D03*
X113238280Y-111112300D03*
X95604960Y-92118180D03*
X98104960Y-92118180D03*
X95630360Y-95742760D03*
X98130360Y-95742760D03*
D21*
X98127820Y-99626420D03*
D22*
X95587820Y-99626420D03*
X96857820Y-100896420D03*
D21*
X98079560Y-104759760D03*
D22*
X95539560Y-104759760D03*
X96809560Y-106029760D03*
D13*
X145039080Y-111084360D03*
D14*
X145039080Y-100924360D03*
D13*
X142557500Y-111130080D03*
D14*
X142557500Y-100970080D03*
D13*
X147612100Y-111178340D03*
D14*
X147612100Y-101018340D03*
D23*
X125971300Y-112384840D03*
D24*
X125971300Y-109844840D03*
D23*
X123548140Y-112405160D03*
D24*
X123548140Y-109865160D03*
D23*
X120876060Y-112395000D03*
D24*
X120876060Y-109855000D03*
D23*
X118584980Y-112395000D03*
D24*
X118584980Y-109855000D03*
D23*
X133677660Y-104289860D03*
D24*
X136217660Y-104289860D03*
D23*
X128943100Y-104277160D03*
D24*
X131483100Y-104277160D03*
D23*
X123525280Y-106004360D03*
D24*
X126065280Y-106004360D03*
D23*
X136243060Y-98391980D03*
D24*
X136243060Y-100931980D03*
D23*
X133670040Y-98346260D03*
D24*
X133670040Y-100886260D03*
D23*
X131097020Y-98346260D03*
D24*
X131097020Y-100886260D03*
D23*
X128615440Y-98391980D03*
D24*
X128615440Y-100931980D03*
D23*
X126042420Y-98391980D03*
D24*
X126042420Y-100931980D03*
D23*
X123563380Y-98440240D03*
D24*
X123563380Y-100980240D03*
D23*
X120990360Y-98346260D03*
D24*
X120990360Y-100886260D03*
D23*
X118369080Y-98391980D03*
D24*
X118369080Y-100931980D03*
D10*
X113342420Y-86832440D03*
X105722420Y-107152440D03*
X113342420Y-89372440D03*
X105722420Y-104612440D03*
X113342420Y-91912440D03*
X105722420Y-102072440D03*
X113342420Y-94452440D03*
X105722420Y-99532440D03*
X113342420Y-96992440D03*
X105722420Y-96992440D03*
X113342420Y-99532440D03*
X105722420Y-94452440D03*
X113342420Y-102072440D03*
X105722420Y-91912440D03*
X113342420Y-104612440D03*
X105722420Y-89372440D03*
X113342420Y-107152440D03*
D11*
X105722420Y-86832440D03*
D10*
X133682740Y-65293240D03*
X118442740Y-93233240D03*
X133682740Y-67833240D03*
X118442740Y-90693240D03*
X133682740Y-70373240D03*
X118442740Y-88153240D03*
X133682740Y-72913240D03*
X118442740Y-85613240D03*
X133682740Y-75453240D03*
X118442740Y-83073240D03*
X133682740Y-77993240D03*
X118442740Y-80533240D03*
X133682740Y-80533240D03*
X118442740Y-77993240D03*
X133682740Y-83073240D03*
X118442740Y-75453240D03*
X133682740Y-85613240D03*
X118442740Y-72913240D03*
X133682740Y-88153240D03*
X118442740Y-70373240D03*
X133682740Y-90693240D03*
X118442740Y-67833240D03*
X133682740Y-93233240D03*
D11*
X118442740Y-65293240D03*
D10*
X100622100Y-65394840D03*
X93002100Y-80634840D03*
X100622100Y-67934840D03*
X93002100Y-78094840D03*
X100622100Y-70474840D03*
X93002100Y-75554840D03*
X100622100Y-73014840D03*
X93002100Y-73014840D03*
X100622100Y-75554840D03*
X93002100Y-70474840D03*
X100622100Y-78094840D03*
X93002100Y-67934840D03*
X100622100Y-80634840D03*
D11*
X93002100Y-65394840D03*
D10*
X113296700Y-65394840D03*
X105676700Y-80634840D03*
X113296700Y-67934840D03*
X105676700Y-78094840D03*
X113296700Y-70474840D03*
X105676700Y-75554840D03*
X113296700Y-73014840D03*
X105676700Y-73014840D03*
X113296700Y-75554840D03*
X105676700Y-70474840D03*
X113296700Y-78094840D03*
X105676700Y-67934840D03*
X113296700Y-80634840D03*
D11*
X105676700Y-65394840D03*
D25*
X91694000Y-90805000D03*
X100584000Y-103505000D03*
X119634000Y-95885000D03*
X131064000Y-95885000D03*
X95504000Y-70485000D03*
X96799400Y-84429600D03*
X141224000Y-95885000D03*
X122306080Y-108224320D03*
X148844000Y-83058000D03*
X145034000Y-90805000D03*
X103723440Y-90675460D03*
X115824000Y-76708000D03*
X129794000Y-77978000D03*
X108204000Y-107315000D03*
X110744000Y-74295000D03*
X115006120Y-90657680D03*
X135783320Y-91950540D03*
X101854000Y-84404200D03*
X125984000Y-83185000D03*
X127332740Y-103753920D03*
X110744000Y-92075000D03*
X110744000Y-104775000D03*
X112014000Y-83058000D03*
X101930200Y-74244200D03*
X103124000Y-66624200D03*
X128524000Y-67945000D03*
X129794000Y-70485000D03*
X128524000Y-89535000D03*
X136144000Y-88138000D03*
X119634000Y-60325000D03*
X129794000Y-80645000D03*
X118364000Y-61468000D03*
X134874000Y-61468000D03*
X133098540Y-94980760D03*
X131064000Y-75565000D03*
X125984000Y-71755000D03*
X127254000Y-69215000D03*
X127254000Y-65405000D03*
X120904000Y-85598000D03*
X120904000Y-81788000D03*
X124714000Y-81915000D03*
X128524000Y-76835000D03*
X96850200Y-80543400D03*
X101854000Y-60248800D03*
X122174000Y-66675000D03*
X120904000Y-79248000D03*
X123444000Y-71755000D03*
X109474000Y-75565000D03*
X115323620Y-69212460D03*
X115044220Y-66669920D03*
X108204000Y-97028000D03*
X108204000Y-71755000D03*
X124714000Y-69215000D03*
X92994480Y-61574680D03*
X91694000Y-98425000D03*
X115054380Y-93096080D03*
X117899180Y-95387160D03*
X124866400Y-107281980D03*
X115054380Y-94650560D03*
X117899180Y-96728280D03*
X119494300Y-106271060D03*
D26*
X139829540Y-54922420D02*
X141361160Y-56454040D01*
X99314000Y-57658000D02*
X102049580Y-54922420D01*
X102049580Y-54922420D02*
X139829540Y-54922420D01*
X93002100Y-80634840D02*
X93002100Y-81948020D01*
X93002100Y-81948020D02*
X93825060Y-82770980D01*
X103540560Y-82770980D02*
X105676700Y-80634840D01*
X93825060Y-82770980D02*
X103540560Y-82770980D01*
X118442740Y-93233240D02*
X133682740Y-93233240D01*
X138719560Y-93233240D02*
X138757660Y-93195140D01*
X133682740Y-93233240D02*
X138719560Y-93233240D01*
D27*
X108204000Y-111125000D02*
X109519720Y-109809280D01*
X109519720Y-109809280D02*
X114556540Y-109809280D01*
X117002560Y-112255300D02*
X118463060Y-112255300D01*
X114556540Y-109809280D02*
X117002560Y-112255300D01*
D26*
X147218400Y-93195140D02*
X153997660Y-93195140D01*
X145088600Y-97188020D02*
X145088600Y-93427540D01*
X145088600Y-93427540D02*
X144856200Y-93195140D01*
X138757660Y-93195140D02*
X144856200Y-93195140D01*
X144856200Y-93195140D02*
X147218400Y-93195140D01*
X153997660Y-93195140D02*
X153997660Y-99580700D01*
X146494500Y-107083860D02*
X137625460Y-107083860D01*
X153997660Y-99580700D02*
X146494500Y-107083860D01*
X132806440Y-107071160D02*
X134330440Y-105547160D01*
X136088760Y-105547160D02*
X137625460Y-107083860D01*
X134330440Y-105547160D02*
X136088760Y-105547160D01*
X100622100Y-65394840D02*
X103121460Y-62895480D01*
X110797340Y-62895480D02*
X113296700Y-65394840D01*
X103121460Y-62895480D02*
X110797340Y-62895480D01*
X113296700Y-65394840D02*
X115732560Y-62958980D01*
X131348480Y-62958980D02*
X133682740Y-65293240D01*
X115732560Y-62958980D02*
X131348480Y-62958980D01*
X133682740Y-65293240D02*
X136110980Y-62865000D01*
X151607520Y-62865000D02*
X153997660Y-65255140D01*
X136110980Y-62865000D02*
X151607520Y-62865000D01*
X98171640Y-86855300D02*
X98171640Y-89065740D01*
X103558340Y-94452440D02*
X105722420Y-94452440D01*
X98171640Y-89065740D02*
X103558340Y-94452440D01*
X105722420Y-94452440D02*
X108033820Y-94452440D01*
X110573820Y-96992440D02*
X113342420Y-96992440D01*
X108033820Y-94452440D02*
X110573820Y-96992440D01*
X113342420Y-96992440D02*
X113802160Y-96992440D01*
X117741700Y-100931980D02*
X118369080Y-100931980D01*
X113802160Y-96992440D02*
X117741700Y-100931980D01*
X120944640Y-100931980D02*
X120990360Y-100886260D01*
X118369080Y-100931980D02*
X120944640Y-100931980D01*
X123469400Y-100886260D02*
X123563380Y-100980240D01*
X120990360Y-100886260D02*
X123469400Y-100886260D01*
X125994160Y-100980240D02*
X126042420Y-100931980D01*
X123563380Y-100980240D02*
X125994160Y-100980240D01*
X126042420Y-100931980D02*
X128615440Y-100931980D01*
X131051300Y-100931980D02*
X131097020Y-100886260D01*
X128615440Y-100931980D02*
X131051300Y-100931980D01*
X131097020Y-100886260D02*
X133670040Y-100886260D01*
X136197340Y-100886260D02*
X136243060Y-100931980D01*
X133670040Y-100886260D02*
X136197340Y-100886260D01*
X148553180Y-98635820D02*
X150034000Y-97155000D01*
X138473180Y-98635820D02*
X148553180Y-98635820D01*
X136243060Y-100931980D02*
X136243060Y-100865940D01*
X136243060Y-100865940D02*
X138473180Y-98635820D01*
D27*
X91694000Y-90805000D02*
X92486480Y-90012520D01*
X96101540Y-90012520D02*
X98087820Y-91998800D01*
X92486480Y-90012520D02*
X96101540Y-90012520D01*
X119634000Y-95885000D02*
X131064000Y-95885000D01*
X114447320Y-103357680D02*
X115811300Y-104721660D01*
X100584000Y-103505000D02*
X100736400Y-103352600D01*
X100736400Y-103352600D02*
X112181640Y-103352600D01*
X112186720Y-103357680D02*
X114447320Y-103357680D01*
X112181640Y-103352600D02*
X112186720Y-103357680D01*
X115811300Y-104721660D02*
X117388640Y-104721660D01*
X117388640Y-104721660D02*
X117642640Y-104467660D01*
X117642640Y-104467660D02*
X126649480Y-104467660D01*
X126649480Y-104467660D02*
X127675640Y-105493820D01*
X130266440Y-105493820D02*
X131483100Y-104277160D01*
X127675640Y-105493820D02*
X130266440Y-105493820D01*
X95493840Y-70474840D02*
X95504000Y-70485000D01*
X93002100Y-70474840D02*
X95493840Y-70474840D01*
X96799400Y-84429600D02*
X98475800Y-84429600D01*
X98475800Y-84429600D02*
X100197920Y-86151720D01*
X100197920Y-86151720D02*
X100197920Y-89024460D01*
X100197920Y-89024460D02*
X104399080Y-93225620D01*
X104399080Y-93225620D02*
X109618780Y-93225620D01*
X109618780Y-93225620D02*
X112168940Y-95775780D01*
X112168940Y-95775780D02*
X114381280Y-95775780D01*
X116997480Y-98391980D02*
X118369080Y-98391980D01*
X114381280Y-95775780D02*
X116997480Y-98391980D01*
X118369080Y-98391980D02*
X119730520Y-97030540D01*
X119730520Y-97030540D02*
X137436860Y-97030540D01*
X138582400Y-95885000D02*
X141224000Y-95885000D01*
X137436860Y-97030540D02*
X138582400Y-95885000D01*
X142557500Y-111130080D02*
X144033240Y-112605820D01*
X146184620Y-112605820D02*
X147612100Y-111178340D01*
X144033240Y-112605820D02*
X146184620Y-112605820D01*
X104350820Y-105887520D02*
X103522780Y-106715560D01*
X114498120Y-105887520D02*
X104350820Y-105887520D01*
X103522780Y-106715560D02*
X97365820Y-106715560D01*
X116779040Y-108168440D02*
X114498120Y-105887520D01*
X122306080Y-108224320D02*
X122250200Y-108168440D01*
X122250200Y-108168440D02*
X116779040Y-108168440D01*
X97365820Y-106715560D02*
X96809560Y-106159300D01*
X96809560Y-106159300D02*
X96809560Y-106029760D01*
D28*
X123548140Y-112405160D02*
X126108460Y-112405160D01*
D27*
X126042420Y-112303560D02*
X127490220Y-113751360D01*
X139936220Y-113751360D02*
X142557500Y-111130080D01*
X127490220Y-113751360D02*
X139936220Y-113751360D01*
X153974800Y-83058000D02*
X153997660Y-83035140D01*
X148844000Y-83058000D02*
X153974800Y-83058000D01*
X147518120Y-100924360D02*
X147612100Y-101018340D01*
X145039080Y-100924360D02*
X147518120Y-100924360D01*
X144487900Y-99433380D02*
X145039080Y-99984560D01*
X145039080Y-99984560D02*
X145039080Y-100924360D01*
X138275060Y-100246180D02*
X139087860Y-99433380D01*
X114442240Y-99532440D02*
X117213380Y-102303580D01*
X117213380Y-102303580D02*
X136972040Y-102303580D01*
X113342420Y-99532440D02*
X114442240Y-99532440D01*
X139087860Y-99433380D02*
X144487900Y-99433380D01*
X136972040Y-102303580D02*
X138275060Y-101000560D01*
X138275060Y-101000560D02*
X138275060Y-100246180D01*
X140032740Y-111178340D02*
X141678660Y-109532420D01*
X143487140Y-109532420D02*
X145039080Y-111084360D01*
X141678660Y-109532420D02*
X143487140Y-109532420D01*
X138150600Y-113060480D02*
X140032740Y-111178340D01*
X129390140Y-113060480D02*
X138150600Y-113060480D01*
X105669080Y-109992160D02*
X106832400Y-108828840D01*
X93070680Y-106141520D02*
X96921320Y-109992160D01*
X120942100Y-112303560D02*
X122166380Y-111079280D01*
X96921320Y-109992160D02*
X105669080Y-109992160D01*
X96857820Y-100896420D02*
X93070680Y-104683560D01*
X106832400Y-108828840D02*
X115082320Y-108828840D01*
X115082320Y-108828840D02*
X117236240Y-110982760D01*
X117236240Y-110982760D02*
X119621300Y-110982760D01*
X93070680Y-104683560D02*
X93070680Y-106141520D01*
X119621300Y-110982760D02*
X120942100Y-112303560D01*
X127408940Y-111079280D02*
X129390140Y-113060480D01*
X122166380Y-111079280D02*
X127408940Y-111079280D01*
X145183860Y-90655140D02*
X145034000Y-90805000D01*
X153997660Y-90655140D02*
X145183860Y-90655140D01*
X133682740Y-90693240D02*
X135031480Y-90693240D01*
X135031480Y-90693240D02*
X136334500Y-89390220D01*
X143619220Y-89390220D02*
X145034000Y-90805000D01*
X136334500Y-89390220D02*
X143619220Y-89390220D01*
X123271280Y-90693240D02*
X133682740Y-90693240D01*
X117251480Y-89425780D02*
X122003820Y-89425780D01*
X115978940Y-88153240D02*
X117251480Y-89425780D01*
X110723680Y-88153240D02*
X115978940Y-88153240D01*
X108198920Y-90678000D02*
X110723680Y-88153240D01*
X122003820Y-89425780D02*
X123271280Y-90693240D01*
X103723440Y-90675460D02*
X108198920Y-90678000D01*
X145155920Y-88115140D02*
X153997660Y-88115140D01*
X136060180Y-86842600D02*
X143883380Y-86842600D01*
X133682740Y-88153240D02*
X134749540Y-88153240D01*
X143883380Y-86842600D02*
X145155920Y-88115140D01*
X134749540Y-88153240D02*
X136060180Y-86842600D01*
X116598700Y-102900480D02*
X138150600Y-102900480D01*
X138150600Y-102900480D02*
X140032740Y-101018340D01*
X105722420Y-102072440D02*
X106908600Y-100886260D01*
X114584480Y-100886260D02*
X116598700Y-102900480D01*
X106908600Y-100886260D02*
X114584480Y-100886260D01*
X115824000Y-76708000D02*
X123385580Y-76708000D01*
X124655580Y-77978000D02*
X129794000Y-77978000D01*
X123385580Y-76708000D02*
X124655580Y-77978000D01*
X110744000Y-74295000D02*
X114526060Y-74295000D01*
X115907820Y-72913240D02*
X118442740Y-72913240D01*
X114526060Y-74295000D02*
X115907820Y-72913240D01*
X118442740Y-72913240D02*
X123385580Y-72913240D01*
X123385580Y-72913240D02*
X124675900Y-74203560D01*
X124675900Y-74203560D02*
X134815580Y-74203560D01*
X136144000Y-72875140D02*
X138757660Y-72875140D01*
X134815580Y-74203560D02*
X136144000Y-72875140D01*
X108041440Y-107152440D02*
X108204000Y-107315000D01*
X105722420Y-107152440D02*
X108041440Y-107152440D01*
X115006120Y-90657680D02*
X116316760Y-91968320D01*
X116316760Y-91968320D02*
X135765540Y-91968320D01*
X135765540Y-91968320D02*
X135783320Y-91950540D01*
X124846080Y-85613240D02*
X133682740Y-85613240D01*
X123568460Y-84335620D02*
X124846080Y-85613240D01*
X101854000Y-84404200D02*
X101922580Y-84335620D01*
X101922580Y-84335620D02*
X123568460Y-84335620D01*
X145191480Y-85575140D02*
X153997660Y-85575140D01*
X143921480Y-84305140D02*
X145191480Y-85575140D01*
X136288780Y-84305140D02*
X143921480Y-84305140D01*
X133682740Y-85613240D02*
X134980680Y-85613240D01*
X134980680Y-85613240D02*
X136288780Y-84305140D01*
X133570980Y-83185000D02*
X133682740Y-83073240D01*
X125984000Y-83185000D02*
X133570980Y-83185000D01*
X120893840Y-109715300D02*
X120942100Y-109763560D01*
X118463060Y-109715300D02*
X120893840Y-109715300D01*
X123517660Y-109763560D02*
X123563380Y-109809280D01*
X120942100Y-109763560D02*
X123517660Y-109763560D01*
X125996700Y-109809280D02*
X126042420Y-109763560D01*
X123563380Y-109809280D02*
X125996700Y-109809280D01*
X114584480Y-102072440D02*
X113342420Y-102072440D01*
X116243100Y-103731060D02*
X114584480Y-102072440D01*
X127332740Y-103753920D02*
X127309880Y-103731060D01*
X127309880Y-103731060D02*
X116243100Y-103731060D01*
X110581440Y-91912440D02*
X110744000Y-92075000D01*
X105722420Y-91912440D02*
X110581440Y-91912440D01*
X118427500Y-83058000D02*
X118442740Y-83073240D01*
X112014000Y-83058000D02*
X118427500Y-83058000D01*
X118442740Y-83073240D02*
X124101860Y-83073240D01*
X124101860Y-83073240D02*
X125361700Y-84333080D01*
X125361700Y-84333080D02*
X135018780Y-84333080D01*
X136316720Y-83035140D02*
X138757660Y-83035140D01*
X135018780Y-84333080D02*
X136316720Y-83035140D01*
X113179860Y-104775000D02*
X113342420Y-104612440D01*
X110744000Y-104775000D02*
X113179860Y-104775000D01*
X101894640Y-74279760D02*
X101930200Y-74244200D01*
X99095560Y-74279760D02*
X101894640Y-74279760D01*
X93002100Y-73014840D02*
X97830640Y-73014840D01*
X97830640Y-73014840D02*
X99095560Y-74279760D01*
X137317480Y-77955140D02*
X138757660Y-77955140D01*
X136009380Y-79263240D02*
X137317480Y-77955140D01*
X124645420Y-79263240D02*
X136009380Y-79263240D01*
X118442740Y-77993240D02*
X123375420Y-77993240D01*
X123375420Y-77993240D02*
X124645420Y-79263240D01*
X93002100Y-65394840D02*
X98061780Y-65394840D01*
X99291140Y-66624200D02*
X103124000Y-66624200D01*
X98061780Y-65394840D02*
X99291140Y-66624200D01*
X133570980Y-67945000D02*
X133682740Y-67833240D01*
X128524000Y-67945000D02*
X133570980Y-67945000D01*
X145021300Y-67795140D02*
X153997660Y-67795140D01*
X133682740Y-67833240D02*
X134909560Y-67833240D01*
X143764000Y-66537840D02*
X145021300Y-67795140D01*
X136204960Y-66537840D02*
X143764000Y-66537840D01*
X134909560Y-67833240D02*
X136204960Y-66537840D01*
X133570980Y-70485000D02*
X133682740Y-70373240D01*
X129794000Y-70485000D02*
X133570980Y-70485000D01*
X145051780Y-70335140D02*
X153997660Y-70335140D01*
X143797020Y-69080380D02*
X145051780Y-70335140D01*
X136166860Y-69080380D02*
X143797020Y-69080380D01*
X133682740Y-70373240D02*
X134874000Y-70373240D01*
X134874000Y-70373240D02*
X136166860Y-69080380D01*
X145127980Y-72875140D02*
X153997660Y-72875140D01*
X143822420Y-71569580D02*
X145127980Y-72875140D01*
X136326880Y-71569580D02*
X143822420Y-71569580D01*
X133682740Y-72913240D02*
X134983220Y-72913240D01*
X134983220Y-72913240D02*
X136326880Y-71569580D01*
X134861300Y-89420700D02*
X136144000Y-88138000D01*
X128524000Y-89535000D02*
X128638300Y-89420700D01*
X128638300Y-89420700D02*
X134861300Y-89420700D01*
X128427480Y-89438480D02*
X128524000Y-89535000D01*
X123400820Y-89438480D02*
X128427480Y-89438480D01*
X118442740Y-85613240D02*
X119575580Y-85613240D01*
X119575580Y-85613240D02*
X123400820Y-89438480D01*
X143893540Y-74150220D02*
X145158460Y-75415140D01*
X136217660Y-74150220D02*
X143893540Y-74150220D01*
X145158460Y-75415140D02*
X153997660Y-75415140D01*
X133682740Y-75453240D02*
X134914640Y-75453240D01*
X134914640Y-75453240D02*
X136217660Y-74150220D01*
X145105120Y-77955140D02*
X153997660Y-77955140D01*
X143832580Y-76682600D02*
X145105120Y-77955140D01*
X136530080Y-76682600D02*
X143832580Y-76682600D01*
X133682740Y-77993240D02*
X135219440Y-77993240D01*
X135219440Y-77993240D02*
X136530080Y-76682600D01*
X119634000Y-60325000D02*
X119634000Y-60383420D01*
X119634000Y-60383420D02*
X119794020Y-60543440D01*
X134731760Y-60543440D02*
X136281160Y-58994040D01*
X119794020Y-60543440D02*
X134731760Y-60543440D01*
X129682240Y-80533240D02*
X129794000Y-80645000D01*
X118442740Y-80533240D02*
X129682240Y-80533240D01*
X118364000Y-61468000D02*
X134874000Y-61468000D01*
X118442740Y-75453240D02*
X130952240Y-75453240D01*
X134284720Y-94810580D02*
X141960600Y-94810580D01*
X142367000Y-95216980D02*
X142367000Y-96758760D01*
X141625320Y-97500440D02*
X138221720Y-97500440D01*
X141960600Y-94810580D02*
X142367000Y-95216980D01*
X133098540Y-94980760D02*
X134114540Y-94980760D01*
X134114540Y-94980760D02*
X134284720Y-94810580D01*
X138221720Y-97500440D02*
X137330180Y-98391980D01*
X142367000Y-96758760D02*
X141625320Y-97500440D01*
X137330180Y-98391980D02*
X136243060Y-98391980D01*
X130952240Y-75453240D02*
X131064000Y-75565000D01*
X124602240Y-70373240D02*
X125984000Y-71755000D01*
X118442740Y-70373240D02*
X124602240Y-70373240D01*
X125984000Y-71755000D02*
X131932680Y-71755000D01*
X131932680Y-71755000D02*
X132052060Y-71635620D01*
X132052060Y-71635620D02*
X134975600Y-71635620D01*
X136276080Y-70335140D02*
X138757660Y-70335140D01*
X134975600Y-71635620D02*
X136276080Y-70335140D01*
X125872240Y-67833240D02*
X127254000Y-69215000D01*
X118442740Y-67833240D02*
X125872240Y-67833240D01*
X127254000Y-69215000D02*
X132516880Y-69215000D01*
X132516880Y-69215000D02*
X132623560Y-69108320D01*
X132623560Y-69108320D02*
X134881620Y-69108320D01*
X136194800Y-67795140D02*
X138757660Y-67795140D01*
X134881620Y-69108320D02*
X136194800Y-67795140D01*
X127142240Y-65293240D02*
X127254000Y-65405000D01*
X118442740Y-65293240D02*
X127142240Y-65293240D01*
X127254000Y-65405000D02*
X130342640Y-65405000D01*
X130342640Y-65405000D02*
X131513580Y-66575940D01*
X131513580Y-66575940D02*
X134797800Y-66575940D01*
X136118600Y-65255140D02*
X138757660Y-65255140D01*
X134797800Y-66575940D02*
X136118600Y-65255140D01*
X100622100Y-78094840D02*
X101894640Y-79367380D01*
X101894640Y-79367380D02*
X106997500Y-79367380D01*
X106997500Y-79367380D02*
X109641640Y-82011520D01*
X109641640Y-82011520D02*
X117012720Y-82011520D01*
X117236240Y-81788000D02*
X120904000Y-81788000D01*
X117012720Y-82011520D02*
X117236240Y-81788000D01*
X136197340Y-85575140D02*
X138757660Y-85575140D01*
X120904000Y-85598000D02*
X122191780Y-86885780D01*
X134886700Y-86885780D02*
X136197340Y-85575140D01*
X122191780Y-86885780D02*
X134886700Y-86885780D01*
X134983220Y-81793080D02*
X136281160Y-80495140D01*
X136281160Y-80495140D02*
X138757660Y-80495140D01*
X124714000Y-81915000D02*
X124835920Y-81793080D01*
X124835920Y-81793080D02*
X134983220Y-81793080D01*
X136260840Y-75415140D02*
X138757660Y-75415140D01*
X134927340Y-76748640D02*
X136260840Y-75415140D01*
X128524000Y-76835000D02*
X128610360Y-76748640D01*
X128610360Y-76748640D02*
X134927340Y-76748640D01*
X100622100Y-75554840D02*
X103078280Y-78011020D01*
X105592880Y-78011020D02*
X105676700Y-78094840D01*
X103078280Y-78011020D02*
X105592880Y-78011020D01*
X112166400Y-60248800D02*
X113421160Y-58994040D01*
X101854000Y-60248800D02*
X112166400Y-60248800D01*
X100530660Y-80543400D02*
X100622100Y-80634840D01*
X96850200Y-80543400D02*
X100530660Y-80543400D01*
X116552980Y-66578480D02*
X122077480Y-66578480D01*
X113296700Y-67934840D02*
X115196620Y-67934840D01*
X122077480Y-66578480D02*
X122174000Y-66675000D01*
X115196620Y-67934840D02*
X116552980Y-66578480D01*
X105676700Y-75554840D02*
X109468920Y-79347060D01*
X109468920Y-79347060D02*
X116860320Y-79347060D01*
X116959380Y-79248000D02*
X120904000Y-79248000D01*
X116860320Y-79347060D02*
X116959380Y-79248000D01*
X113296700Y-73014840D02*
X114612420Y-73014840D01*
X114612420Y-73014840D02*
X116009420Y-71617840D01*
X123306840Y-71617840D02*
X123444000Y-71755000D01*
X116009420Y-71617840D02*
X123306840Y-71617840D01*
X105676700Y-73014840D02*
X106796840Y-73014840D01*
X106796840Y-73014840D02*
X108092240Y-74310240D01*
X108092240Y-74310240D02*
X108092240Y-76055220D01*
X110131860Y-78094840D02*
X113296700Y-78094840D01*
X108092240Y-76055220D02*
X110131860Y-78094840D01*
D28*
X105676700Y-70474840D02*
X105676700Y-73014840D01*
D27*
X113286540Y-75565000D02*
X113296700Y-75554840D01*
X109474000Y-75565000D02*
X113286540Y-75565000D01*
X110670340Y-67934840D02*
X105676700Y-67934840D01*
X111950500Y-69215000D02*
X110670340Y-67934840D01*
X115323620Y-69212460D02*
X111950500Y-69215000D01*
X110550960Y-65394840D02*
X105676700Y-65394840D01*
X115044220Y-66669920D02*
X114439700Y-66662300D01*
X111818420Y-66662300D02*
X110550960Y-65394840D01*
X114439700Y-66662300D02*
X111818420Y-66662300D01*
X117416580Y-69110860D02*
X124609860Y-69110860D01*
X124609860Y-69110860D02*
X124714000Y-69215000D01*
X108204000Y-71755000D02*
X114772440Y-71755000D01*
X114772440Y-71755000D02*
X117416580Y-69110860D01*
X98079560Y-104759760D02*
X98079560Y-104002840D01*
X98079560Y-104002840D02*
X103835200Y-98247200D01*
X106984800Y-98247200D02*
X108204000Y-97028000D01*
X103835200Y-98247200D02*
X106984800Y-98247200D01*
X115920520Y-61574680D02*
X118501160Y-58994040D01*
X92994480Y-61574680D02*
X115920520Y-61574680D01*
X91694000Y-98425000D02*
X92344240Y-97774760D01*
X96276160Y-97774760D02*
X98127820Y-99626420D01*
X92344240Y-97774760D02*
X96276160Y-97774760D01*
X115054380Y-93096080D02*
X115829080Y-93096080D01*
X117899180Y-95166180D02*
X117899180Y-95387160D01*
X115829080Y-93096080D02*
X117899180Y-95166180D01*
X128625600Y-107495340D02*
X132552440Y-111422180D01*
X132552440Y-111422180D02*
X135469020Y-111422180D01*
X124866400Y-107281980D02*
X125079760Y-107495340D01*
X125079760Y-107495340D02*
X128625600Y-107495340D01*
X115054380Y-94650560D02*
X115054380Y-95420180D01*
X116362480Y-96728280D02*
X117899180Y-96728280D01*
X115054380Y-95420180D02*
X116362480Y-96728280D01*
X119560340Y-106337100D02*
X119494300Y-106271060D01*
X130482340Y-111422180D02*
X127363220Y-108303060D01*
X130589020Y-111422180D02*
X130482340Y-111422180D01*
X127363220Y-108303060D02*
X123840240Y-108303060D01*
X123840240Y-108303060D02*
X121874280Y-106337100D01*
X121874280Y-106337100D02*
X119560340Y-106337100D01*
M02*
