G04 #@! TF.GenerationSoftware,KiCad,Pcbnew,(5.1.6)-1*
G04 #@! TF.CreationDate,2021-02-12T18:18:09+01:00*
G04 #@! TF.ProjectId,keyface-external,6b657966-6163-4652-9d65-787465726e61,rev?*
G04 #@! TF.SameCoordinates,Original*
G04 #@! TF.FileFunction,Copper,L2,Bot*
G04 #@! TF.FilePolarity,Positive*
%FSLAX46Y46*%
G04 Gerber Fmt 4.6, Leading zero omitted, Abs format (unit mm)*
G04 Created by KiCad (PCBNEW (5.1.6)-1) date 2021-02-12 18:18:09*
%MOMM*%
%LPD*%
G01*
G04 APERTURE LIST*
G04 #@! TA.AperFunction,ComponentPad*
%ADD10C,4.000000*%
G04 #@! TD*
G04 #@! TA.AperFunction,ComponentPad*
%ADD11C,1.500000*%
G04 #@! TD*
G04 #@! TA.AperFunction,ComponentPad*
%ADD12O,1.600000X1.600000*%
G04 #@! TD*
G04 #@! TA.AperFunction,ComponentPad*
%ADD13R,1.600000X1.600000*%
G04 #@! TD*
G04 #@! TA.AperFunction,ComponentPad*
%ADD14C,0.700000*%
G04 #@! TD*
G04 #@! TA.AperFunction,ComponentPad*
%ADD15C,4.400000*%
G04 #@! TD*
G04 #@! TA.AperFunction,ComponentPad*
%ADD16C,1.600000*%
G04 #@! TD*
G04 #@! TA.AperFunction,ComponentPad*
%ADD17C,1.400000*%
G04 #@! TD*
G04 #@! TA.AperFunction,ComponentPad*
%ADD18O,1.400000X1.400000*%
G04 #@! TD*
G04 #@! TA.AperFunction,ComponentPad*
%ADD19R,1.300000X1.300000*%
G04 #@! TD*
G04 #@! TA.AperFunction,ComponentPad*
%ADD20C,1.300000*%
G04 #@! TD*
G04 #@! TA.AperFunction,SMDPad,CuDef*
%ADD21R,2.000000X8.000000*%
G04 #@! TD*
G04 #@! TA.AperFunction,ComponentPad*
%ADD22C,2.150000*%
G04 #@! TD*
G04 #@! TA.AperFunction,ViaPad*
%ADD23C,0.800000*%
G04 #@! TD*
G04 #@! TA.AperFunction,Conductor*
%ADD24C,0.500000*%
G04 #@! TD*
G04 #@! TA.AperFunction,Conductor*
%ADD25C,0.400000*%
G04 #@! TD*
G04 #@! TA.AperFunction,Conductor*
%ADD26C,0.250000*%
G04 #@! TD*
G04 APERTURE END LIST*
D10*
X105204000Y-92892000D03*
X103896000Y-99692000D03*
X105204000Y-106492000D03*
D11*
X107696000Y-98298000D03*
X110185200Y-96392000D03*
X107696000Y-96392000D03*
X110185200Y-102997000D03*
X107696000Y-102997000D03*
X107696000Y-101092000D03*
D12*
X101727000Y-68072000D03*
D13*
X101727000Y-75692000D03*
D14*
X104036726Y-58523274D03*
X102870000Y-58040000D03*
X101703274Y-58523274D03*
X101220000Y-59690000D03*
X101703274Y-60856726D03*
X102870000Y-61340000D03*
X104036726Y-60856726D03*
X104520000Y-59690000D03*
D15*
X102870000Y-59690000D03*
D14*
X178966726Y-58523274D03*
X177800000Y-58040000D03*
X176633274Y-58523274D03*
X176150000Y-59690000D03*
X176633274Y-60856726D03*
X177800000Y-61340000D03*
X178966726Y-60856726D03*
X179450000Y-59690000D03*
D15*
X177800000Y-59690000D03*
D14*
X178966726Y-120626274D03*
X177800000Y-120143000D03*
X176633274Y-120626274D03*
X176150000Y-121793000D03*
X176633274Y-122959726D03*
X177800000Y-123443000D03*
X178966726Y-122959726D03*
X179450000Y-121793000D03*
D15*
X177800000Y-121793000D03*
D14*
X104036726Y-120753274D03*
X102870000Y-120270000D03*
X101703274Y-120753274D03*
X101220000Y-121920000D03*
X101703274Y-123086726D03*
X102870000Y-123570000D03*
X104036726Y-123086726D03*
X104520000Y-121920000D03*
D15*
X102870000Y-121920000D03*
D13*
X165354000Y-61849000D03*
D16*
X162854000Y-61849000D03*
X121753000Y-97536000D03*
X119253000Y-97536000D03*
X119253000Y-101473000D03*
X121753000Y-101473000D03*
X167720000Y-96012000D03*
X172720000Y-96012000D03*
X109728000Y-63246000D03*
X114728000Y-63246000D03*
X120523000Y-70612000D03*
X120523000Y-68112000D03*
X120396000Y-88392000D03*
X120396000Y-85892000D03*
D13*
X108458000Y-68072000D03*
D12*
X116078000Y-88392000D03*
X108458000Y-70612000D03*
X116078000Y-85852000D03*
X108458000Y-73152000D03*
X116078000Y-83312000D03*
X108458000Y-75692000D03*
X116078000Y-80772000D03*
X108458000Y-78232000D03*
X116078000Y-78232000D03*
X108458000Y-80772000D03*
X116078000Y-75692000D03*
X108458000Y-83312000D03*
X116078000Y-73152000D03*
X108458000Y-85852000D03*
X116078000Y-70612000D03*
X108458000Y-88392000D03*
X116078000Y-68072000D03*
X160909000Y-68072000D03*
X145669000Y-96012000D03*
X160909000Y-70612000D03*
X145669000Y-93472000D03*
X160909000Y-73152000D03*
X145669000Y-90932000D03*
X160909000Y-75692000D03*
X145669000Y-88392000D03*
X160909000Y-78232000D03*
X145669000Y-85852000D03*
X160909000Y-80772000D03*
X145669000Y-83312000D03*
X160909000Y-83312000D03*
X145669000Y-80772000D03*
X160909000Y-85852000D03*
X145669000Y-78232000D03*
X160909000Y-88392000D03*
X145669000Y-75692000D03*
X160909000Y-90932000D03*
X145669000Y-73152000D03*
X160909000Y-93472000D03*
X145669000Y-70612000D03*
X160909000Y-96012000D03*
D13*
X145669000Y-68072000D03*
X124841000Y-68072000D03*
D12*
X140081000Y-96012000D03*
X124841000Y-70612000D03*
X140081000Y-93472000D03*
X124841000Y-73152000D03*
X140081000Y-90932000D03*
X124841000Y-75692000D03*
X140081000Y-88392000D03*
X124841000Y-78232000D03*
X140081000Y-85852000D03*
X124841000Y-80772000D03*
X140081000Y-83312000D03*
X124841000Y-83312000D03*
X140081000Y-80772000D03*
X124841000Y-85852000D03*
X140081000Y-78232000D03*
X124841000Y-88392000D03*
X140081000Y-75692000D03*
X124841000Y-90932000D03*
X140081000Y-73152000D03*
X124841000Y-93472000D03*
X140081000Y-70612000D03*
X124841000Y-96012000D03*
X140081000Y-68072000D03*
D13*
X166388000Y-68107600D03*
D12*
X174008000Y-90967600D03*
X166388000Y-70647600D03*
X174008000Y-88427600D03*
X166388000Y-73187600D03*
X174008000Y-85887600D03*
X166388000Y-75727600D03*
X174008000Y-83347600D03*
X166388000Y-78267600D03*
X174008000Y-80807600D03*
X166388000Y-80807600D03*
X174008000Y-78267600D03*
X166388000Y-83347600D03*
X174008000Y-75727600D03*
X166388000Y-85887600D03*
X174008000Y-73187600D03*
X166388000Y-88427600D03*
X174008000Y-70647600D03*
X166388000Y-90967600D03*
X174008000Y-68107600D03*
D13*
X132334000Y-101473000D03*
D12*
X139954000Y-116713000D03*
X132334000Y-104013000D03*
X139954000Y-114173000D03*
X132334000Y-106553000D03*
X139954000Y-111633000D03*
X132334000Y-109093000D03*
X139954000Y-109093000D03*
X132334000Y-111633000D03*
X139954000Y-106553000D03*
X132334000Y-114173000D03*
X139954000Y-104013000D03*
X132334000Y-116713000D03*
X139954000Y-101473000D03*
X153289000Y-101473000D03*
X145669000Y-116713000D03*
X153289000Y-104013000D03*
X145669000Y-114173000D03*
X153289000Y-106553000D03*
X145669000Y-111633000D03*
X153289000Y-109093000D03*
X145669000Y-109093000D03*
X153289000Y-111633000D03*
X145669000Y-106553000D03*
X153289000Y-114173000D03*
X145669000Y-104013000D03*
X153289000Y-116713000D03*
D13*
X145669000Y-101473000D03*
X166370000Y-101473000D03*
D12*
X173990000Y-116713000D03*
X166370000Y-104013000D03*
X173990000Y-114173000D03*
X166370000Y-106553000D03*
X173990000Y-111633000D03*
X166370000Y-109093000D03*
X173990000Y-109093000D03*
X166370000Y-111633000D03*
X173990000Y-106553000D03*
X166370000Y-114173000D03*
X173990000Y-104013000D03*
X166370000Y-116713000D03*
X173990000Y-101473000D03*
D11*
X120523000Y-80645000D03*
X120523000Y-75765000D03*
D17*
X113284000Y-101473000D03*
D18*
X115824000Y-101473000D03*
X115824000Y-97536000D03*
D17*
X113284000Y-97536000D03*
X179832000Y-95885000D03*
D18*
X177292000Y-95885000D03*
D17*
X125222000Y-63373000D03*
D18*
X125222000Y-60833000D03*
X129413000Y-60833000D03*
D17*
X129413000Y-63373000D03*
D18*
X133477000Y-60833000D03*
D17*
X133477000Y-63373000D03*
X137541000Y-63373000D03*
D18*
X137541000Y-60833000D03*
X177292000Y-68072000D03*
D17*
X179832000Y-68072000D03*
X179832000Y-72644000D03*
D18*
X177292000Y-72644000D03*
X177292000Y-77343000D03*
D17*
X179832000Y-77343000D03*
X179832000Y-81915000D03*
D18*
X177292000Y-81915000D03*
X177292000Y-86487000D03*
D17*
X179832000Y-86487000D03*
X179832000Y-91059000D03*
D18*
X177292000Y-91059000D03*
D17*
X115824000Y-93599000D03*
D18*
X113284000Y-93599000D03*
X113182400Y-105664000D03*
D17*
X115722400Y-105664000D03*
D19*
X144272000Y-63373000D03*
D20*
X144272000Y-60833000D03*
X143002000Y-62103000D03*
X150368000Y-62103000D03*
X151638000Y-60833000D03*
D19*
X151638000Y-63373000D03*
D21*
X174613000Y-52578000D03*
X172093000Y-52578000D03*
X169573000Y-52578000D03*
X167053000Y-52578000D03*
X162013000Y-52578000D03*
X159493000Y-52578000D03*
X156973000Y-52578000D03*
X154453000Y-52578000D03*
X151933000Y-52578000D03*
X149413000Y-52578000D03*
X146893000Y-52578000D03*
X144373000Y-52598000D03*
X141853000Y-52578000D03*
X139333000Y-52578000D03*
X136813000Y-52578000D03*
X134293000Y-52578000D03*
X131773000Y-52578000D03*
X129253000Y-52578000D03*
X126733000Y-52578000D03*
X124213000Y-52578000D03*
X121693000Y-52578000D03*
X119173000Y-52578000D03*
X116653000Y-52578000D03*
X114133000Y-52578000D03*
X111613000Y-52578000D03*
X109093000Y-52578000D03*
X106573000Y-52578000D03*
X174606000Y-129654000D03*
X172086000Y-129654000D03*
X169566000Y-129654000D03*
X167046000Y-129654000D03*
X162006000Y-129654000D03*
X159486000Y-129654000D03*
X156966000Y-129654000D03*
X154446000Y-129654000D03*
X151926000Y-129654000D03*
X149406000Y-129654000D03*
X146886000Y-129654000D03*
X144366000Y-129674000D03*
X141846000Y-129654000D03*
X139326000Y-129654000D03*
X136806000Y-129654000D03*
X134286000Y-129654000D03*
X131766000Y-129654000D03*
X129246000Y-129654000D03*
X126726000Y-129654000D03*
X124206000Y-129654000D03*
X121686000Y-129654000D03*
X119166000Y-129654000D03*
X116646000Y-129654000D03*
X114126000Y-129654000D03*
X111606000Y-129654000D03*
X109086000Y-129654000D03*
X106566000Y-129654000D03*
D16*
X117887000Y-113411000D03*
X115887000Y-113411000D03*
X113887000Y-113411000D03*
D13*
X111887000Y-113411000D03*
D22*
X111157000Y-116131000D03*
X118157000Y-116131000D03*
X118157000Y-110691000D03*
X111157000Y-110691000D03*
D12*
X104902000Y-68072000D03*
D13*
X104902000Y-75692000D03*
X104902000Y-80772000D03*
D12*
X104902000Y-88392000D03*
D13*
X101727000Y-80772000D03*
D12*
X101727000Y-88392000D03*
D16*
X151892000Y-120142000D03*
X146892000Y-120142000D03*
X118157000Y-119507000D03*
X113157000Y-119507000D03*
D23*
X162052000Y-121920000D03*
X159511996Y-121920000D03*
X154686000Y-99404010D03*
X132329400Y-62633900D03*
X105954990Y-69232000D03*
X141124500Y-97342500D03*
X162306000Y-97662998D03*
X152806398Y-67056002D03*
X117729000Y-79502000D03*
X151753410Y-67090262D03*
X143028510Y-88010996D03*
X157231700Y-68414500D03*
X117660400Y-64852900D03*
X111760000Y-74509600D03*
X146726100Y-84582000D03*
X152951400Y-82042000D03*
X132969000Y-73152000D03*
X132206999Y-70612000D03*
X124825700Y-97588400D03*
X163830000Y-97663000D03*
X143207100Y-90790500D03*
X143872400Y-96873500D03*
X172466000Y-92456000D03*
X149301200Y-94691200D03*
X150520400Y-89662000D03*
X107569000Y-117094000D03*
X111080200Y-121677700D03*
X132297011Y-69377000D03*
X170967400Y-114630200D03*
X171704000Y-118872000D03*
X169994600Y-61242800D03*
X169418000Y-99949000D03*
X168452800Y-121920000D03*
X154178000Y-124460004D03*
X154432000Y-57912000D03*
X157937202Y-101498400D03*
X135354389Y-110476900D03*
X149606000Y-57912000D03*
X150622000Y-124433802D03*
X150911854Y-107929400D03*
X132587992Y-124459992D03*
X163703000Y-118237000D03*
X129413000Y-99822000D03*
X140335000Y-58801004D03*
X138193300Y-116378200D03*
X146930815Y-64397189D03*
X168148000Y-57912000D03*
X167132006Y-124460000D03*
X156464000Y-57912000D03*
X156972000Y-124460001D03*
X152781000Y-57911994D03*
X152653998Y-124460000D03*
X147828006Y-57912000D03*
X147929598Y-124409200D03*
X144399900Y-57960900D03*
X144399000Y-124460000D03*
X138430000Y-57912000D03*
X138430000Y-124460004D03*
X136779000Y-57912014D03*
X136804400Y-124485400D03*
X133634900Y-57912004D03*
X133985000Y-124460000D03*
X131440340Y-124455340D03*
X131699000Y-57907800D03*
X130175000Y-124460000D03*
X130175000Y-57911996D03*
X125202790Y-58351600D03*
X123952000Y-124460000D03*
X123698002Y-58292998D03*
X122682000Y-124460006D03*
X114036000Y-111599100D03*
X117856000Y-58293000D03*
X112880700Y-123212296D03*
X115062000Y-60960000D03*
X115316000Y-58293000D03*
X112141000Y-109021400D03*
X109329500Y-120621400D03*
X109474000Y-58293002D03*
D24*
X152663900Y-101473000D02*
X153289000Y-101473000D01*
D25*
X152663900Y-101473000D02*
X152038700Y-101473000D01*
X139954000Y-101473000D02*
X141204300Y-101473000D01*
X152038700Y-101473000D02*
X150788300Y-102723400D01*
X150788300Y-102723400D02*
X142454700Y-102723400D01*
X142454700Y-102723400D02*
X141204300Y-101473000D01*
D24*
X175258300Y-68107600D02*
X174008000Y-68107600D01*
X176817900Y-66548000D02*
X175258300Y-68107600D01*
X179832000Y-68072000D02*
X178308000Y-66548000D01*
X178308000Y-66548000D02*
X176817900Y-66548000D01*
X171739600Y-68107600D02*
X174008000Y-68107600D01*
X170180000Y-66548000D02*
X171739600Y-68107600D01*
X160909000Y-68072000D02*
X162941000Y-68072000D01*
X162941000Y-68072000D02*
X164465000Y-66548000D01*
X165354000Y-61849000D02*
X165354000Y-66548000D01*
X164465000Y-66548000D02*
X165354000Y-66548000D01*
X165354000Y-66548000D02*
X170180000Y-66548000D01*
X165354000Y-61849000D02*
X166878000Y-61849000D01*
X169573000Y-59154000D02*
X169573000Y-52578000D01*
X166878000Y-61849000D02*
X169573000Y-59154000D01*
X113865350Y-78232000D02*
X116078000Y-78232000D01*
X108458000Y-75692000D02*
X111325350Y-75692000D01*
X111325350Y-75692000D02*
X113865350Y-78232000D01*
X176690900Y-89535000D02*
X178308000Y-89535000D01*
X174008000Y-90967600D02*
X175258300Y-90967600D01*
X178308000Y-89535000D02*
X179832000Y-91059000D01*
X175258300Y-90967600D02*
X176690900Y-89535000D01*
X172720000Y-95885000D02*
X172720000Y-97917000D01*
X173990000Y-99187000D02*
X173990000Y-101473000D01*
X172720000Y-97917000D02*
X173990000Y-99187000D01*
D25*
X172928100Y-101473000D02*
X173990000Y-101473000D01*
X153289000Y-101473000D02*
X154539300Y-101473000D01*
X154539300Y-101473000D02*
X155789700Y-102723400D01*
X155789700Y-102723400D02*
X169945600Y-102723400D01*
X169945600Y-102723400D02*
X171196000Y-101473000D01*
X171196000Y-101473000D02*
X172928100Y-101473000D01*
D24*
X169566000Y-124608000D02*
X169566000Y-129654000D01*
X151892000Y-120142000D02*
X165100000Y-120142000D01*
X165100000Y-120142000D02*
X169566000Y-124608000D01*
X114427000Y-94996000D02*
X115824000Y-93599000D01*
X107696000Y-96392000D02*
X109092000Y-94996000D01*
X109092000Y-94996000D02*
X114427000Y-94996000D01*
X111887000Y-114300000D02*
X111887000Y-113411000D01*
X113157000Y-119507000D02*
X113157000Y-115570000D01*
X113157000Y-115570000D02*
X111887000Y-114300000D01*
D25*
X142748000Y-68072000D02*
X140081000Y-68072000D01*
X143998400Y-69322400D02*
X142748000Y-68072000D01*
X158033000Y-69322400D02*
X143998400Y-69322400D01*
X160909000Y-68072000D02*
X159283400Y-68072000D01*
X159283400Y-68072000D02*
X158033000Y-69322400D01*
D24*
X137464800Y-101473000D02*
X139954000Y-101473000D01*
X136067800Y-100076000D02*
X137464800Y-101473000D01*
X130843400Y-100076000D02*
X136067800Y-100076000D01*
X115951000Y-105664000D02*
X125255400Y-105664000D01*
X125255400Y-105664000D02*
X130843400Y-100076000D01*
X159658700Y-96012000D02*
X146919300Y-96012000D01*
X145669000Y-96012000D02*
X146919300Y-96012000D01*
X117887000Y-110961000D02*
X117617000Y-110691000D01*
X117617000Y-110691000D02*
X111157000Y-110691000D01*
X140081000Y-96012000D02*
X145669000Y-96012000D01*
X160909000Y-96012000D02*
X159658700Y-96012000D01*
X117887000Y-110961000D02*
X118157000Y-110691000D01*
X117887000Y-113411000D02*
X117887000Y-110961000D01*
X138830700Y-96012000D02*
X126091300Y-96012000D01*
X124841000Y-96012000D02*
X126091300Y-96012000D01*
X140081000Y-96012000D02*
X138830700Y-96012000D01*
X159493000Y-61703000D02*
X159639000Y-61849000D01*
X156591000Y-61849000D02*
X159639000Y-61849000D01*
X159639000Y-61849000D02*
X162854000Y-61849000D01*
X159493000Y-58058000D02*
X161398000Y-58058000D01*
X159493000Y-58058000D02*
X159493000Y-61703000D01*
X159493000Y-52578000D02*
X159493000Y-58058000D01*
X162013000Y-57443000D02*
X162013000Y-52578000D01*
X161398000Y-58058000D02*
X162013000Y-57443000D01*
X136390700Y-60833000D02*
X137541000Y-60833000D01*
X119861800Y-59436000D02*
X134993700Y-59436000D01*
X114728000Y-63246000D02*
X116051800Y-63246000D01*
X134993700Y-59436000D02*
X136390700Y-60833000D01*
X116051800Y-63246000D02*
X119861800Y-59436000D01*
X137541000Y-60833000D02*
X140335000Y-60833000D01*
X141853000Y-52578000D02*
X141853000Y-60827000D01*
X141853000Y-60827000D02*
X141859000Y-60833000D01*
X140335000Y-60833000D02*
X141859000Y-60833000D01*
X141859000Y-60833000D02*
X144272000Y-60833000D01*
X144272000Y-60833000D02*
X151638000Y-60833000D01*
X151638000Y-60833000D02*
X154051000Y-60833000D01*
X155067000Y-61849000D02*
X156591000Y-61849000D01*
X154051000Y-60833000D02*
X155067000Y-61849000D01*
D25*
X120523000Y-68112000D02*
X119293000Y-69342000D01*
X106934000Y-77597000D02*
X107569000Y-78232000D01*
X106934000Y-75057000D02*
X106934000Y-77597000D01*
X114808000Y-69342000D02*
X109728000Y-74422000D01*
X119293000Y-69342000D02*
X114808000Y-69342000D01*
X109728000Y-74422000D02*
X107569000Y-74422000D01*
D24*
X107569000Y-78232000D02*
X108458000Y-78232000D01*
D25*
X107569000Y-74422000D02*
X106934000Y-75057000D01*
D24*
X120396000Y-89789000D02*
X120396000Y-88392000D01*
X124841000Y-90932000D02*
X121539000Y-90932000D01*
X121539000Y-90932000D02*
X120396000Y-89789000D01*
X140107100Y-83312000D02*
X140081000Y-83312000D01*
X144018000Y-87222900D02*
X140107100Y-83312000D01*
X145669000Y-90932000D02*
X144018000Y-89281000D01*
X144018000Y-89281000D02*
X144018000Y-87222900D01*
X160909000Y-96012000D02*
X167720000Y-96012000D01*
X162052000Y-129608000D02*
X162006000Y-129654000D01*
X162052000Y-121920000D02*
X162052000Y-129608000D01*
X146892000Y-120142000D02*
X148670000Y-121920000D01*
X162052000Y-121920000D02*
X159511996Y-121920000D01*
X148670000Y-121920000D02*
X159511996Y-121920000D01*
X159486000Y-121945996D02*
X159511996Y-121920000D01*
X159486000Y-129654000D02*
X159486000Y-121945996D01*
X141846000Y-121679000D02*
X141846000Y-129654000D01*
X146892000Y-120142000D02*
X143383000Y-120142000D01*
X143383000Y-120142000D02*
X141846000Y-121679000D01*
X145043900Y-116713000D02*
X145669000Y-116713000D01*
D25*
X134112000Y-116713000D02*
X135382000Y-115443000D01*
X132334000Y-116713000D02*
X134112000Y-116713000D01*
X143583350Y-116713000D02*
X145043900Y-116713000D01*
X135382000Y-115443000D02*
X142313350Y-115443000D01*
X142313350Y-115443000D02*
X143583350Y-116713000D01*
D24*
X118157000Y-119507000D02*
X127127000Y-119507000D01*
X129921000Y-116713000D02*
X132334000Y-116713000D01*
X127127000Y-119507000D02*
X129921000Y-116713000D01*
X122174000Y-96012000D02*
X124841000Y-96012000D01*
X121753000Y-97536000D02*
X121753000Y-96433000D01*
X121753000Y-96433000D02*
X122174000Y-96012000D01*
X117887000Y-115861000D02*
X118157000Y-116131000D01*
X117887000Y-113411000D02*
X117887000Y-115861000D01*
D25*
X172430400Y-75727600D02*
X174008000Y-75727600D01*
X170180000Y-77978000D02*
X172430400Y-75727600D01*
X162941000Y-83312000D02*
X164191300Y-82061700D01*
X170180000Y-79248000D02*
X170180000Y-77978000D01*
X160909000Y-83312000D02*
X162941000Y-83312000D01*
X164191300Y-82061700D02*
X167366300Y-82061700D01*
X167366300Y-82061700D02*
X170180000Y-79248000D01*
D26*
X154595990Y-99314000D02*
X154686000Y-99404010D01*
X143767256Y-99314000D02*
X154595990Y-99314000D01*
X143444245Y-98990989D02*
X143767256Y-99314000D01*
X119253000Y-97536000D02*
X119253000Y-98653600D01*
X119982411Y-99383011D02*
X126549989Y-99383011D01*
X119253000Y-98653600D02*
X119982411Y-99383011D01*
X126549989Y-99383011D02*
X126942011Y-98990989D01*
X126942011Y-98990989D02*
X143444245Y-98990989D01*
X119253000Y-96443800D02*
X119253000Y-97536000D01*
X118770400Y-95961200D02*
X119253000Y-96443800D01*
X113284000Y-97536000D02*
X113284000Y-96494600D01*
X113817400Y-95961200D02*
X118770400Y-95961200D01*
X113284000Y-96494600D02*
X113817400Y-95961200D01*
X112344200Y-97536000D02*
X113284000Y-97536000D01*
X107696000Y-101092000D02*
X108788200Y-101092000D01*
X108788200Y-101092000D02*
X112344200Y-97536000D01*
X110185200Y-102997000D02*
X110185200Y-101904800D01*
X110617000Y-101473000D02*
X113284000Y-101473000D01*
X110185200Y-101904800D02*
X110617000Y-101473000D01*
X148971000Y-111633000D02*
X153289000Y-111633000D01*
X147701000Y-110363000D02*
X148971000Y-111633000D01*
X144066200Y-110363000D02*
X147701000Y-110363000D01*
X141526200Y-112903000D02*
X144066200Y-110363000D01*
X115887000Y-117157000D02*
X116459000Y-117729000D01*
X129921000Y-112903000D02*
X141526200Y-112903000D01*
X116459000Y-117729000D02*
X125095000Y-117729000D01*
X115887000Y-113411000D02*
X115887000Y-117157000D01*
X125095000Y-117729000D02*
X129921000Y-112903000D01*
X113182400Y-105664000D02*
X113182400Y-104063800D01*
X113182400Y-104063800D02*
X113690400Y-103555800D01*
X113690400Y-103555800D02*
X118668800Y-103555800D01*
X119253000Y-102971600D02*
X119253000Y-101473000D01*
X118668800Y-103555800D02*
X119253000Y-102971600D01*
X110693200Y-105664000D02*
X113182400Y-105664000D01*
X110185200Y-102997000D02*
X110185200Y-105156000D01*
X110185200Y-105156000D02*
X110693200Y-105664000D01*
X120523000Y-72136000D02*
X120523000Y-70612000D01*
X116078000Y-73152000D02*
X119507000Y-73152000D01*
X119507000Y-73152000D02*
X120523000Y-72136000D01*
X117602000Y-75692000D02*
X116078000Y-75692000D01*
X120523000Y-80645000D02*
X120523000Y-78613000D01*
X120523000Y-78613000D02*
X117602000Y-75692000D01*
X129413000Y-60833000D02*
X125222000Y-60833000D01*
X104902000Y-68072000D02*
X101727000Y-68072000D01*
X143002000Y-61849000D02*
X142956100Y-61894900D01*
X105918000Y-64770000D02*
X104902000Y-65786000D01*
X115534600Y-64770000D02*
X105918000Y-64770000D01*
X125222000Y-60833000D02*
X119471600Y-60833000D01*
X104902000Y-65786000D02*
X104902000Y-68072000D01*
X119471600Y-60833000D02*
X115534600Y-64770000D01*
X140761900Y-61894900D02*
X140970000Y-62103000D01*
X131871900Y-61894900D02*
X140761900Y-61894900D01*
X129413000Y-60833000D02*
X130810000Y-60833000D01*
X140970000Y-62103000D02*
X143002000Y-62103000D01*
X130810000Y-60833000D02*
X131871900Y-61894900D01*
X114952700Y-80772000D02*
X116078000Y-80772000D01*
X107297300Y-82042000D02*
X113682700Y-82042000D01*
X104902000Y-80772000D02*
X106027300Y-80772000D01*
X113682700Y-82042000D02*
X114952700Y-80772000D01*
X106027300Y-80772000D02*
X107297300Y-82042000D01*
X117602000Y-80772000D02*
X116078000Y-80772000D01*
X119990300Y-83160300D02*
X117602000Y-80772000D01*
X138430000Y-85852000D02*
X137160000Y-84582000D01*
X137160000Y-84582000D02*
X123063000Y-84582000D01*
X121641300Y-83160300D02*
X119990300Y-83160300D01*
X140081000Y-85852000D02*
X138430000Y-85852000D01*
X123063000Y-84582000D02*
X121641300Y-83160300D01*
X147701000Y-62103000D02*
X150368000Y-62103000D01*
X132329400Y-62345300D02*
X140450300Y-62345300D01*
X145288000Y-64516000D02*
X147701000Y-62103000D01*
X132329400Y-62633900D02*
X132329400Y-62345300D01*
X142621000Y-64516000D02*
X145288000Y-64516000D01*
X140450300Y-62345300D02*
X142621000Y-64516000D01*
X106354989Y-68832001D02*
X105954990Y-69232000D01*
X131340900Y-62633900D02*
X130810000Y-62103000D01*
X115992400Y-65314300D02*
X108167700Y-65314300D01*
X132329400Y-62633900D02*
X131340900Y-62633900D01*
X119203700Y-62103000D02*
X115992400Y-65314300D01*
X106354989Y-67127011D02*
X106354989Y-68832001D01*
X108167700Y-65314300D02*
X106354989Y-67127011D01*
X130810000Y-62103000D02*
X119203700Y-62103000D01*
X107823000Y-80772000D02*
X108458000Y-80772000D01*
X100457000Y-79375000D02*
X100965000Y-78867000D01*
X105918000Y-78867000D02*
X107823000Y-80772000D01*
X101727000Y-75692000D02*
X101727000Y-78867000D01*
X100965000Y-78867000D02*
X101727000Y-78867000D01*
X101727000Y-78867000D02*
X105918000Y-78867000D01*
X100457000Y-81994500D02*
X100457000Y-81915000D01*
X100457000Y-81915000D02*
X100457000Y-79375000D01*
X141124500Y-97342500D02*
X141422956Y-97640956D01*
X141422956Y-97640956D02*
X144003445Y-97640956D01*
X162236987Y-97732011D02*
X162306000Y-97662998D01*
X144094500Y-97732011D02*
X162236987Y-97732011D01*
X144003445Y-97640956D02*
X144094500Y-97732011D01*
X136779000Y-94742000D02*
X138049000Y-93472000D01*
X108137100Y-89976100D02*
X114868100Y-89976100D01*
X114868100Y-89976100D02*
X119634000Y-94742000D01*
X107061000Y-88900000D02*
X108137100Y-89976100D01*
X100457000Y-83439000D02*
X100965000Y-83947000D01*
X138049000Y-93472000D02*
X140081000Y-93472000D01*
X119634000Y-94742000D02*
X136779000Y-94742000D01*
X100965000Y-83947000D02*
X103378000Y-83947000D01*
X100457000Y-81915000D02*
X100457000Y-83439000D01*
X103378000Y-83947000D02*
X107061000Y-87630000D01*
X107061000Y-87630000D02*
X107061000Y-88900000D01*
X101727000Y-80772000D02*
X101727000Y-82423000D01*
X101727000Y-82423000D02*
X102616000Y-83312000D01*
X102616000Y-83312000D02*
X106807000Y-83312000D01*
X106807000Y-83312000D02*
X108458000Y-83312000D01*
X106807000Y-86233000D02*
X107696000Y-87122000D01*
X106807000Y-83312000D02*
X106807000Y-86233000D01*
X112776000Y-87122000D02*
X117856000Y-92202000D01*
X107696000Y-87122000D02*
X112776000Y-87122000D01*
X117856000Y-92202000D02*
X136779000Y-92202000D01*
X138049000Y-90932000D02*
X140081000Y-90932000D01*
X136779000Y-92202000D02*
X138049000Y-90932000D01*
X151257000Y-90932000D02*
X160909000Y-90932000D01*
X151003000Y-90932000D02*
X151257000Y-90932000D01*
X149479000Y-90932000D02*
X151257000Y-90932000D01*
X147955000Y-92456000D02*
X149479000Y-90932000D01*
X147955000Y-94107000D02*
X147955000Y-92456000D01*
X141859000Y-90932000D02*
X142875000Y-91948000D01*
X147320000Y-94742000D02*
X147955000Y-94107000D01*
X142875000Y-91948000D02*
X142875000Y-94107000D01*
X143510000Y-94742000D02*
X147320000Y-94742000D01*
X140081000Y-90932000D02*
X141859000Y-90932000D01*
X142875000Y-94107000D02*
X143510000Y-94742000D01*
X151594385Y-65843989D02*
X152806398Y-67056002D01*
X110686011Y-65843989D02*
X151594385Y-65843989D01*
X108458000Y-68072000D02*
X110686011Y-65843989D01*
X142105100Y-79502000D02*
X143375100Y-80772000D01*
X128016000Y-79502000D02*
X142105100Y-79502000D01*
X143375100Y-80772000D02*
X145669000Y-80772000D01*
X124841000Y-80772000D02*
X126746000Y-80772000D01*
X126746000Y-80772000D02*
X128016000Y-79502000D01*
X120396000Y-82169000D02*
X117729000Y-79502000D01*
X123444000Y-82169000D02*
X120396000Y-82169000D01*
X124841000Y-80772000D02*
X123444000Y-82169000D01*
X150957148Y-66294000D02*
X151753410Y-67090262D01*
X108458000Y-70612000D02*
X112776000Y-66294000D01*
X112776000Y-66294000D02*
X150957148Y-66294000D01*
X124278400Y-85852000D02*
X124841000Y-85852000D01*
X117602000Y-85852000D02*
X118999000Y-84455000D01*
X116078000Y-85852000D02*
X117602000Y-85852000D01*
X121666000Y-84455000D02*
X123063000Y-85852000D01*
X118999000Y-84455000D02*
X121666000Y-84455000D01*
X123063000Y-85852000D02*
X124278400Y-85852000D01*
X124841000Y-85852000D02*
X137052600Y-85852000D01*
X142139514Y-87122000D02*
X143028510Y-88010996D01*
X138322600Y-87122000D02*
X142139514Y-87122000D01*
X137052600Y-85852000D02*
X138322600Y-87122000D01*
X101346000Y-73152000D02*
X108458000Y-73152000D01*
X100006989Y-74491011D02*
X101346000Y-73152000D01*
X143768667Y-98679000D02*
X143630645Y-98540978D01*
X161771599Y-98965012D02*
X161485587Y-98679000D01*
X169926000Y-96775410D02*
X167736398Y-98965012D01*
X143630645Y-98540978D02*
X126630022Y-98540978D01*
X177292000Y-94818200D02*
X176580800Y-94107000D01*
X177292000Y-95885000D02*
X177292000Y-94818200D01*
X100006989Y-83942589D02*
X100006989Y-74491011D01*
X161485587Y-98679000D02*
X143768667Y-98679000D01*
X114696600Y-90566600D02*
X107965600Y-90566600D01*
X103124000Y-84582000D02*
X100646400Y-84582000D01*
X176580800Y-94107000D02*
X170535600Y-94107000D01*
X167736398Y-98965012D02*
X161771599Y-98965012D01*
X170535600Y-94107000D02*
X169926000Y-94716600D01*
X100646400Y-84582000D02*
X100006989Y-83942589D01*
X169926000Y-94716600D02*
X169926000Y-96775410D01*
X126630022Y-98540978D02*
X126238000Y-98933000D01*
X126238000Y-98933000D02*
X121412000Y-98933000D01*
X121412000Y-98933000D02*
X120523000Y-98044000D01*
X120523000Y-98044000D02*
X120523000Y-96393000D01*
X120523000Y-96393000D02*
X114696600Y-90566600D01*
X107965600Y-90566600D02*
X106426000Y-89027000D01*
X106426000Y-89027000D02*
X106426000Y-87884000D01*
X106426000Y-87884000D02*
X103124000Y-84582000D01*
X133477000Y-63373000D02*
X137541000Y-63373000D01*
X125222000Y-63373000D02*
X119140300Y-63373000D01*
X119140300Y-63373000D02*
X117660400Y-64852900D01*
X129413000Y-63373000D02*
X125222000Y-63373000D01*
X133477000Y-63373000D02*
X129413000Y-63373000D01*
X154095200Y-65278000D02*
X156831701Y-68014501D01*
X156831701Y-68014501D02*
X157231700Y-68414500D01*
X137541000Y-63373000D02*
X139446000Y-65278000D01*
X139446000Y-65278000D02*
X154095200Y-65278000D01*
X137033000Y-87122000D02*
X138303000Y-88392000D01*
X138303000Y-88392000D02*
X140081000Y-88392000D01*
X115032300Y-87122000D02*
X137033000Y-87122000D01*
X108458000Y-85852000D02*
X113762300Y-85852000D01*
X113762300Y-85852000D02*
X115032300Y-87122000D01*
X150114000Y-88392000D02*
X160909000Y-88392000D01*
X148971000Y-88392000D02*
X150114000Y-88392000D01*
X147955000Y-89408000D02*
X148971000Y-88392000D01*
X147066000Y-92202000D02*
X147955000Y-91313000D01*
X147955000Y-91313000D02*
X147955000Y-89408000D01*
X141834400Y-88392000D02*
X143932400Y-90490000D01*
X140081000Y-88392000D02*
X141834400Y-88392000D01*
X143932400Y-90490000D02*
X143932400Y-91390000D01*
X144744400Y-92202000D02*
X147066000Y-92202000D01*
X143932400Y-91390000D02*
X144744400Y-92202000D01*
X143637000Y-75692000D02*
X145669000Y-75692000D01*
X128016000Y-74422000D02*
X142367000Y-74422000D01*
X142367000Y-74422000D02*
X143637000Y-75692000D01*
X124841000Y-75692000D02*
X126746000Y-75692000D01*
X126746000Y-75692000D02*
X128016000Y-74422000D01*
X124841000Y-75692000D02*
X123063000Y-75692000D01*
X121793000Y-74422000D02*
X111766300Y-74422000D01*
X123063000Y-75692000D02*
X121793000Y-74422000D01*
X159232600Y-70612000D02*
X160909000Y-70612000D01*
X157937200Y-71907400D02*
X159232600Y-70612000D01*
X140081000Y-70612000D02*
X142621000Y-70612000D01*
X143916400Y-71907400D02*
X157937200Y-71907400D01*
X142621000Y-70612000D02*
X143916400Y-71907400D01*
X157988000Y-74447400D02*
X159283400Y-73152000D01*
X143789400Y-74447400D02*
X157988000Y-74447400D01*
X159283400Y-73152000D02*
X160909000Y-73152000D01*
X140081000Y-73152000D02*
X142494000Y-73152000D01*
X142494000Y-73152000D02*
X143789400Y-74447400D01*
X143510000Y-76962000D02*
X157607000Y-76962000D01*
X158877000Y-75692000D02*
X160909000Y-75692000D01*
X140081000Y-75692000D02*
X142240000Y-75692000D01*
X157607000Y-76962000D02*
X158877000Y-75692000D01*
X142240000Y-75692000D02*
X143510000Y-76962000D01*
X166388000Y-83347600D02*
X166950700Y-83347600D01*
X163195000Y-84582000D02*
X146809700Y-84582000D01*
X146809700Y-84582000D02*
X146726100Y-84665600D01*
X166950700Y-83347600D02*
X164429400Y-83347600D01*
X164429400Y-83347600D02*
X163195000Y-84582000D01*
X168239400Y-83347600D02*
X166950700Y-83347600D01*
X172085000Y-79502000D02*
X168239400Y-83347600D01*
X176530000Y-79502000D02*
X172085000Y-79502000D01*
X177292000Y-77343000D02*
X177292000Y-78740000D01*
X177292000Y-78740000D02*
X176530000Y-79502000D01*
X158949350Y-78232000D02*
X160909000Y-78232000D01*
X157679350Y-79502000D02*
X158949350Y-78232000D01*
X143510000Y-79502000D02*
X157679350Y-79502000D01*
X140081000Y-78232000D02*
X142240000Y-78232000D01*
X142240000Y-78232000D02*
X143510000Y-79502000D01*
X158953200Y-80772000D02*
X160909000Y-80772000D01*
X157683200Y-82042000D02*
X158953200Y-80772000D01*
X153096100Y-82042000D02*
X157683200Y-82042000D01*
X142113000Y-80772000D02*
X143383000Y-82042000D01*
X140081000Y-80772000D02*
X142113000Y-80772000D01*
X152806700Y-82042000D02*
X152951400Y-81897300D01*
X143383000Y-82042000D02*
X152806700Y-82042000D01*
X152951400Y-81897300D02*
X153096100Y-82042000D01*
X168130350Y-75727600D02*
X166388000Y-75727600D01*
X176911000Y-74422000D02*
X169435950Y-74422000D01*
X169435950Y-74422000D02*
X168130350Y-75727600D01*
X177292000Y-72644000D02*
X177292000Y-74041000D01*
X177292000Y-74041000D02*
X176911000Y-74422000D01*
X158927800Y-82042000D02*
X157657800Y-83312000D01*
X164937400Y-75727600D02*
X163703000Y-76962000D01*
X163703000Y-76962000D02*
X163703000Y-81026000D01*
X163703000Y-81026000D02*
X162687000Y-82042000D01*
X157657800Y-83312000D02*
X145669000Y-83312000D01*
X166388000Y-75727600D02*
X164937400Y-75727600D01*
X162687000Y-82042000D02*
X158927800Y-82042000D01*
X164556400Y-73187600D02*
X166388000Y-73187600D01*
X163703000Y-74041000D02*
X164556400Y-73187600D01*
X157607000Y-78232000D02*
X158877000Y-76962000D01*
X145669000Y-78232000D02*
X157607000Y-78232000D01*
X158877000Y-76962000D02*
X162687000Y-76962000D01*
X162687000Y-76962000D02*
X163703000Y-75946000D01*
X163703000Y-75946000D02*
X163703000Y-74041000D01*
X171922400Y-69377600D02*
X168112400Y-73187600D01*
X176875400Y-69377600D02*
X171922400Y-69377600D01*
X177292000Y-68072000D02*
X177292000Y-68961000D01*
X168112400Y-73187600D02*
X166388000Y-73187600D01*
X177292000Y-68961000D02*
X176875400Y-69377600D01*
X124841000Y-73152000D02*
X132969000Y-73152000D01*
X142621000Y-71882000D02*
X134239000Y-71882000D01*
X145669000Y-73152000D02*
X143891000Y-73152000D01*
X143891000Y-73152000D02*
X142621000Y-71882000D01*
X134239000Y-71882000D02*
X132969000Y-73152000D01*
X124841000Y-70612000D02*
X132206999Y-70612000D01*
X145669000Y-70612000D02*
X143891000Y-70612000D01*
X133476999Y-69342000D02*
X132206999Y-70612000D01*
X142621000Y-69342000D02*
X133476999Y-69342000D01*
X143891000Y-70612000D02*
X142621000Y-69342000D01*
X127943650Y-66802000D02*
X126673650Y-68072000D01*
X145669000Y-68072000D02*
X144018000Y-68072000D01*
X126673650Y-68072000D02*
X124841000Y-68072000D01*
X142748000Y-66802000D02*
X127943650Y-66802000D01*
X144018000Y-68072000D02*
X142748000Y-66802000D01*
X162977999Y-98515001D02*
X163830000Y-97663000D01*
X161957999Y-98515001D02*
X162977999Y-98515001D01*
X124825700Y-97588400D02*
X125328267Y-98090967D01*
X143817045Y-98090967D02*
X143908100Y-98182022D01*
X125328267Y-98090967D02*
X143817045Y-98090967D01*
X143908100Y-98182022D02*
X161625020Y-98182022D01*
X161625020Y-98182022D02*
X161957999Y-98515001D01*
X168925200Y-85887600D02*
X166388000Y-85887600D01*
X176403000Y-84582000D02*
X170230800Y-84582000D01*
X177292000Y-81915000D02*
X177292000Y-83693000D01*
X170230800Y-84582000D02*
X168925200Y-85887600D01*
X177292000Y-83693000D02*
X176403000Y-84582000D01*
X126746000Y-83312000D02*
X124841000Y-83312000D01*
X128016000Y-82042000D02*
X126746000Y-83312000D01*
X142113000Y-82042000D02*
X128016000Y-82042000D01*
X143383000Y-83312000D02*
X142113000Y-82042000D01*
X174008000Y-85887600D02*
X170271400Y-85887600D01*
X170271400Y-85887600D02*
X169037000Y-87122000D01*
X145161000Y-87122000D02*
X143383000Y-85344000D01*
X169037000Y-87122000D02*
X145161000Y-87122000D01*
X143383000Y-85344000D02*
X143383000Y-83312000D01*
X177292000Y-86487000D02*
X176017050Y-86487000D01*
X175417650Y-85887600D02*
X174008000Y-85887600D01*
X176017050Y-86487000D02*
X175417650Y-85887600D01*
X176784000Y-92456000D02*
X172466000Y-92456000D01*
X177292000Y-91059000D02*
X177292000Y-91948000D01*
X177292000Y-91948000D02*
X176784000Y-92456000D01*
X169475989Y-94430011D02*
X171450000Y-92456000D01*
X169475989Y-96589011D02*
X169475989Y-94430011D01*
X171450000Y-92456000D02*
X172466000Y-92456000D01*
X168402000Y-97663000D02*
X169475989Y-96589011D01*
X144280900Y-97282000D02*
X161544000Y-97282000D01*
X161544000Y-97282000D02*
X162172900Y-96653100D01*
X143872400Y-96873500D02*
X144280900Y-97282000D01*
X162172900Y-96653100D02*
X164220000Y-96653100D01*
X165229900Y-97663000D02*
X168402000Y-97663000D01*
X164220000Y-96653100D02*
X165229900Y-97663000D01*
X128016000Y-89662000D02*
X126746000Y-88392000D01*
X143207100Y-90790500D02*
X142078600Y-89662000D01*
X126746000Y-88392000D02*
X124841000Y-88392000D01*
X142078600Y-89662000D02*
X128016000Y-89662000D01*
X165658800Y-94742000D02*
X149361200Y-94742000D01*
X174008000Y-88427600D02*
X171973200Y-88427600D01*
X171973200Y-88427600D02*
X165658800Y-94742000D01*
X165153600Y-89662000D02*
X150520400Y-89662000D01*
X166388000Y-88427600D02*
X165153600Y-89662000D01*
X107569000Y-110490000D02*
X107569000Y-117094000D01*
X110236000Y-107823000D02*
X107569000Y-110490000D01*
X125907800Y-107823000D02*
X110236000Y-107823000D01*
X132334000Y-104013000D02*
X129717800Y-104013000D01*
X129717800Y-104013000D02*
X125907800Y-107823000D01*
X135128000Y-114173000D02*
X139954000Y-114173000D01*
X133858000Y-115443000D02*
X135128000Y-114173000D01*
X113208800Y-121677700D02*
X116649500Y-118237000D01*
X127056700Y-118237000D02*
X129850700Y-115443000D01*
X111080200Y-121677700D02*
X113208800Y-121677700D01*
X129850700Y-115443000D02*
X133858000Y-115443000D01*
X116649500Y-118237000D02*
X127056700Y-118237000D01*
X122682000Y-68707000D02*
X123352000Y-69377000D01*
X100076000Y-67184410D02*
X100076000Y-70637400D01*
X107442000Y-58554300D02*
X107442000Y-59818410D01*
X101320600Y-71882000D02*
X110014400Y-71882000D01*
X122682000Y-67437000D02*
X122682000Y-68707000D01*
X109093000Y-52578000D02*
X109093000Y-56903300D01*
X122047000Y-66802000D02*
X122682000Y-67437000D01*
X107442000Y-59818410D02*
X100076000Y-67184410D01*
X109093000Y-56903300D02*
X107442000Y-58554300D01*
X100076000Y-70637400D02*
X101320600Y-71882000D01*
X110014400Y-71882000D02*
X115094400Y-66802000D01*
X123352000Y-69377000D02*
X132297011Y-69377000D01*
X115094400Y-66802000D02*
X122047000Y-66802000D01*
X109086000Y-123691000D02*
X109086000Y-129654000D01*
X126619000Y-109093000D02*
X125819001Y-108293001D01*
X132334000Y-109093000D02*
X126619000Y-109093000D01*
X108458000Y-123063000D02*
X109086000Y-123691000D01*
X125819001Y-108293001D02*
X110527999Y-108293001D01*
X108458000Y-110363000D02*
X108458000Y-123063000D01*
X110527999Y-108293001D02*
X108458000Y-110363000D01*
X139954000Y-104013000D02*
X139954000Y-106553000D01*
X106566000Y-110712900D02*
X106566000Y-125328700D01*
X106566000Y-125328700D02*
X106566000Y-129654000D01*
X104362900Y-110712900D02*
X106566000Y-110712900D01*
X99556978Y-105906978D02*
X104362900Y-110712900D01*
X99556978Y-67067022D02*
X99556978Y-105906978D01*
X106573000Y-52578000D02*
X106573000Y-60051000D01*
X106573000Y-60051000D02*
X99556978Y-67067022D01*
X109963900Y-107315000D02*
X106566000Y-110712900D01*
X137464800Y-104013000D02*
X136194800Y-102743000D01*
X139954000Y-104013000D02*
X137464800Y-104013000D01*
X136194800Y-102743000D02*
X130276600Y-102743000D01*
X130276600Y-102743000D02*
X125704600Y-107315000D01*
X125704600Y-107315000D02*
X109963900Y-107315000D01*
X181102000Y-67564000D02*
X174613000Y-61075000D01*
X179197000Y-118491000D02*
X181102000Y-116586000D01*
X174613000Y-61075000D02*
X174613000Y-52578000D01*
X181102000Y-116586000D02*
X181102000Y-67564000D01*
X174606000Y-118510000D02*
X174625000Y-118491000D01*
X174606000Y-129654000D02*
X174606000Y-118510000D01*
X174625000Y-118491000D02*
X179197000Y-118491000D01*
X173355000Y-118491000D02*
X174625000Y-118491000D01*
X167808900Y-112944900D02*
X173355000Y-118491000D01*
X149012900Y-112944900D02*
X167808900Y-112944900D01*
X145669000Y-111633000D02*
X147701000Y-111633000D01*
X147701000Y-111633000D02*
X149012900Y-112944900D01*
X170967400Y-113893600D02*
X170967400Y-114630200D01*
X151307800Y-110363000D02*
X167436800Y-110363000D01*
X167436800Y-110363000D02*
X170967400Y-113893600D01*
X145669000Y-106553000D02*
X147497800Y-106553000D01*
X147497800Y-106553000D02*
X151307800Y-110363000D01*
X168275000Y-115443000D02*
X171704000Y-118872000D01*
X159994600Y-115443000D02*
X168275000Y-115443000D01*
X153289000Y-114173000D02*
X158724600Y-114173000D01*
X158724600Y-114173000D02*
X159994600Y-115443000D01*
X169994600Y-61242800D02*
X172093000Y-59144400D01*
X172093000Y-59144400D02*
X172093000Y-52578000D01*
X172086000Y-129654000D02*
X172086000Y-124899003D01*
X169106997Y-121920000D02*
X168378602Y-121920000D01*
X172086000Y-124899003D02*
X169106997Y-121920000D01*
X145669000Y-101473000D02*
X146927978Y-100214022D01*
X155850425Y-99949000D02*
X169164000Y-99949000D01*
X153786598Y-100214022D02*
X154151598Y-100579023D01*
X155220402Y-100579023D02*
X155850425Y-99949000D01*
X154151598Y-100579023D02*
X155220402Y-100579023D01*
X146927978Y-100214022D02*
X153786598Y-100214022D01*
X154446000Y-124728004D02*
X154178000Y-124460004D01*
X154446000Y-129654000D02*
X154446000Y-124728004D01*
X154453000Y-52578000D02*
X154453000Y-57891000D01*
X154453000Y-57891000D02*
X154432000Y-57912000D01*
X166370000Y-101473000D02*
X157962602Y-101473000D01*
X157962602Y-101473000D02*
X157937202Y-101498400D01*
X137337800Y-107823000D02*
X135354389Y-109806411D01*
X141169200Y-107823000D02*
X137337800Y-107823000D01*
X166370000Y-104013000D02*
X160020000Y-104013000D01*
X160020000Y-104013000D02*
X158750000Y-105283000D01*
X158750000Y-105283000D02*
X143709200Y-105283000D01*
X135354389Y-109806411D02*
X135354389Y-110476900D01*
X143709200Y-105283000D02*
X141169200Y-107823000D01*
X167640000Y-109093000D02*
X166370000Y-109093000D01*
X173990000Y-114173000D02*
X172720000Y-114173000D01*
X172720000Y-114173000D02*
X167640000Y-109093000D01*
X149413000Y-52578000D02*
X149413000Y-57719000D01*
X149413000Y-57719000D02*
X149606000Y-57912000D01*
X149911598Y-124433802D02*
X150757500Y-124433802D01*
X149406000Y-129654000D02*
X149406000Y-124939400D01*
X149406000Y-124939400D02*
X149911598Y-124433802D01*
X150992854Y-107848400D02*
X150911854Y-107929400D01*
X173990000Y-111633000D02*
X171958000Y-111633000D01*
X168173400Y-107848400D02*
X150992854Y-107848400D01*
X171958000Y-111633000D02*
X168173400Y-107848400D01*
X177038000Y-109093000D02*
X173990000Y-109093000D01*
X179832000Y-95885000D02*
X179832000Y-106299000D01*
X179832000Y-106299000D02*
X177038000Y-109093000D01*
X132587992Y-124459992D02*
X138810984Y-118237000D01*
X138810984Y-118237000D02*
X163703000Y-118237000D01*
X143580856Y-99764011D02*
X143310945Y-99494100D01*
X174904400Y-94615000D02*
X170738800Y-94615000D01*
X129740900Y-99494100D02*
X129413000Y-99822000D01*
X175895000Y-95605600D02*
X174904400Y-94615000D01*
X170434000Y-94919800D02*
X170434000Y-96903820D01*
X155722014Y-99441000D02*
X155034002Y-100129012D01*
X173990000Y-104013000D02*
X174904400Y-104013000D01*
X174904400Y-104013000D02*
X175895000Y-103022400D01*
X175895000Y-103022400D02*
X175895000Y-95605600D01*
X170434000Y-96903820D02*
X167896820Y-99441000D01*
X143310945Y-99494100D02*
X129740900Y-99494100D01*
X154337998Y-100129012D02*
X153972997Y-99764011D01*
X155034002Y-100129012D02*
X154337998Y-100129012D01*
X153972997Y-99764011D02*
X143580856Y-99764011D01*
X170738800Y-94615000D02*
X170434000Y-94919800D01*
X167896820Y-99441000D02*
X155722014Y-99441000D01*
X126733000Y-56903300D02*
X128630704Y-58801004D01*
X126733000Y-52578000D02*
X126733000Y-56903300D01*
X128630704Y-58801004D02*
X140335000Y-58801004D01*
X132143500Y-122428000D02*
X138193300Y-116378200D01*
X129032000Y-122428000D02*
X132143500Y-122428000D01*
X126726000Y-129654000D02*
X126726000Y-124734000D01*
X126726000Y-124734000D02*
X129032000Y-122428000D01*
X147955004Y-63373000D02*
X146930815Y-64397189D01*
X151638000Y-63373000D02*
X147955004Y-63373000D01*
D24*
X167053000Y-52578000D02*
X167053000Y-57325000D01*
X167640000Y-57912000D02*
X168148000Y-57912000D01*
X167053000Y-57325000D02*
X167640000Y-57912000D01*
X167046000Y-129654000D02*
X167046000Y-124546006D01*
X167046000Y-124546006D02*
X167132006Y-124460000D01*
D26*
X156973000Y-57403000D02*
X156464000Y-57912000D01*
X156973000Y-52578000D02*
X156973000Y-57403000D01*
X156966000Y-124466001D02*
X156972000Y-124460001D01*
X156966000Y-129654000D02*
X156966000Y-124466001D01*
X151933000Y-52578000D02*
X151933000Y-57063994D01*
X151933000Y-57063994D02*
X152781000Y-57911994D01*
X152298400Y-124460000D02*
X152653998Y-124460000D01*
X151926000Y-129654000D02*
X151926000Y-124832400D01*
X151926000Y-124832400D02*
X152298400Y-124460000D01*
X146893000Y-52578000D02*
X146893000Y-56976994D01*
X146893000Y-56976994D02*
X147828006Y-57912000D01*
X147320000Y-124409200D02*
X147929598Y-124409200D01*
X146886000Y-129654000D02*
X146886000Y-124843200D01*
X146886000Y-124843200D02*
X147320000Y-124409200D01*
X144373000Y-52598000D02*
X144373000Y-57934000D01*
X144373000Y-57934000D02*
X144399900Y-57960900D01*
X144366000Y-124493000D02*
X144399000Y-124460000D01*
X144366000Y-129674000D02*
X144366000Y-124493000D01*
X139333000Y-52578000D02*
X139333000Y-57009000D01*
X139333000Y-57009000D02*
X138430000Y-57912000D01*
X139326000Y-129654000D02*
X139326000Y-125356004D01*
X139326000Y-125356004D02*
X138430000Y-124460004D01*
X136813000Y-52578000D02*
X136813000Y-57878014D01*
X136813000Y-57878014D02*
X136779000Y-57912014D01*
X136806000Y-124487000D02*
X136804400Y-124485400D01*
X136806000Y-129654000D02*
X136806000Y-124487000D01*
X134293000Y-52578000D02*
X134293000Y-57253904D01*
X134293000Y-57253904D02*
X133634900Y-57912004D01*
X134286000Y-124761000D02*
X133985000Y-124460000D01*
X134286000Y-129654000D02*
X134286000Y-124761000D01*
X131766000Y-129654000D02*
X131766000Y-124781000D01*
X131766000Y-124781000D02*
X131440340Y-124455340D01*
X131773000Y-52578000D02*
X131773000Y-57833800D01*
X131773000Y-57833800D02*
X131699000Y-57907800D01*
X129246000Y-125389000D02*
X130175000Y-124460000D01*
X129246000Y-129654000D02*
X129246000Y-125389000D01*
X129253000Y-52578000D02*
X129253000Y-56989996D01*
X129253000Y-56989996D02*
X130175000Y-57911996D01*
X124213000Y-52578000D02*
X124213000Y-57361810D01*
X124213000Y-57361810D02*
X125202790Y-58351600D01*
X124206000Y-124714000D02*
X123952000Y-124460000D01*
X124206000Y-129654000D02*
X124206000Y-124714000D01*
X121693000Y-52578000D02*
X121693000Y-57304000D01*
X122681998Y-58292998D02*
X123698002Y-58292998D01*
X121693000Y-57304000D02*
X122681998Y-58292998D01*
X121686000Y-129654000D02*
X121686000Y-125456006D01*
X121686000Y-125456006D02*
X122682000Y-124460006D01*
X119173000Y-56976000D02*
X117856000Y-58293000D01*
X119173000Y-52578000D02*
X119173000Y-56976000D01*
X113468700Y-112166400D02*
X114036000Y-111599100D01*
X119166000Y-129654000D02*
X119166000Y-125328700D01*
X110799400Y-122428000D02*
X110337100Y-121965700D01*
X116265300Y-122428000D02*
X110799400Y-122428000D01*
X110557800Y-121067900D02*
X110557800Y-118304800D01*
X110337100Y-121288600D02*
X110557800Y-121067900D01*
X109601000Y-112776000D02*
X110210600Y-112166400D01*
X119166000Y-125328700D02*
X116265300Y-122428000D01*
X110210600Y-112166400D02*
X113468700Y-112166400D01*
X110557800Y-118304800D02*
X109601000Y-117348000D01*
X110337100Y-121965700D02*
X110337100Y-121288600D01*
X109601000Y-117348000D02*
X109601000Y-112776000D01*
X114529596Y-123212296D02*
X112880700Y-123212296D01*
X116646000Y-125328700D02*
X114529596Y-123212296D01*
X116646000Y-129654000D02*
X116646000Y-125328700D01*
X116653000Y-59369000D02*
X115062000Y-60960000D01*
X116653000Y-52578000D02*
X116653000Y-59369000D01*
X114133000Y-52578000D02*
X114133000Y-57110000D01*
X114133000Y-57110000D02*
X115316000Y-58293000D01*
X110057100Y-118566100D02*
X109093000Y-117602000D01*
X109093000Y-110490000D02*
X110561600Y-109021400D01*
X109854100Y-121134700D02*
X110057100Y-120931700D01*
X109093000Y-117602000D02*
X109093000Y-110490000D01*
X114126000Y-126654000D02*
X109854100Y-122382100D01*
X109854100Y-122382100D02*
X109854100Y-121134700D01*
X110057100Y-120931700D02*
X110057100Y-118566100D01*
X114126000Y-129654000D02*
X114126000Y-126654000D01*
X110561600Y-109021400D02*
X112268000Y-109021400D01*
X111606000Y-125328700D02*
X109329500Y-123052200D01*
X109329500Y-123052200D02*
X109329500Y-120621400D01*
X111606000Y-129654000D02*
X111606000Y-125328700D01*
X110997998Y-58293002D02*
X109474000Y-58293002D01*
X111613000Y-52578000D02*
X111613000Y-57678000D01*
X111613000Y-57678000D02*
X110997998Y-58293002D01*
M02*
