M48
; DRILL file {KiCad (5.1.6)-1} date 02/12/21 18:18:23
; FORMAT={-:-/ absolute / inch / decimal}
; #@! TF.CreationDate,2021-02-12T18:18:23+01:00
; #@! TF.GenerationSoftware,Kicad,Pcbnew,(5.1.6)-1
; #@! TF.FileFunction,Plated,1,2,PTH
FMAT,2
INCH
T1C0.0157
T2C0.0276
T3C0.0295
T4C0.0315
T5C0.0354
T6C0.0362
T7C0.0591
T8C0.0866
T9C0.0984
%
G90
G05
T1
X4.1715Y-2.7257
X4.235Y-4.61
X4.3043Y-4.7489
X4.31Y-2.295
X4.3732Y-4.7905
X4.4Y-2.9334
X4.415Y-4.2922
X4.4441Y-4.8509
X4.4896Y-4.3937
X4.53Y-2.4
X4.54Y-2.295
X4.6323Y-2.5533
X4.635Y-3.13
X4.64Y-2.295
X4.83Y-4.9
X4.87Y-2.295
X4.88Y-4.9
X4.9144Y-3.8421
X4.9292Y-2.2973
X5.095Y-3.93
X5.125Y-2.28
X5.125Y-4.9
X5.1748Y-4.8998
X5.185Y-2.2798
X5.205Y-2.78
X5.2085Y-2.7314
X5.2098Y-2.4659
X5.22Y-4.9
X5.235Y-2.88
X5.2612Y-2.28
X5.275Y-4.9
X5.3289Y-4.3495
X5.385Y-2.28
X5.386Y-4.901
X5.4407Y-4.5818
X5.45Y-2.28
X5.45Y-4.9
X5.525Y-2.315
X5.5561Y-3.8324
X5.631Y-3.465
X5.6381Y-3.5744
X5.6643Y-3.8139
X5.685Y-4.9
X5.685Y-2.2819
X5.7766Y-3.33
X5.7847Y-2.5353
X5.82Y-2.28
X5.824Y-4.898
X5.878Y-3.728
X5.89Y-2.28
X5.926Y-3.53
X5.93Y-4.899
X5.9414Y-4.2492
X5.9745Y-2.6413
X6.01Y-4.9
X6.015Y-2.28
X6.016Y-2.64
X6.0217Y-3.23
X6.07Y-4.9
X6.08Y-2.28
X6.09Y-3.9135
X6.16Y-2.28
X6.18Y-4.9
X6.1902Y-2.6935
X6.218Y-3.996
X6.28Y-4.8
X6.38Y-4.8
X6.39Y-3.845
X6.445Y-4.655
X6.45Y-3.845
X6.58Y-4.9
X6.62Y-2.28
X6.632Y-4.8
X6.67Y-3.935
X6.6927Y-2.4111
X6.731Y-4.513
X6.76Y-4.68
X6.79Y-3.64
X3.985Y-4.8
X4.0041Y-4.7541
X4.0041Y-4.8459
X4.05Y-4.735
X4.05Y-4.865
X4.0959Y-4.7541
X4.0959Y-4.8459
X4.115Y-4.8
X6.935Y-2.35
X6.9541Y-2.3041
X6.9541Y-2.3959
X7.0Y-2.285
X7.0Y-2.415
X7.0459Y-2.3041
X7.0459Y-2.3959
X7.065Y-2.35
X6.935Y-4.795
X6.9541Y-4.7491
X6.9541Y-4.8409
X7.0Y-4.73
X7.0Y-4.86
X7.0459Y-4.7491
X7.0459Y-4.8409
X7.065Y-4.795
X3.985Y-2.35
X4.0041Y-2.3041
X4.0041Y-2.3959
X4.05Y-2.285
X4.05Y-2.415
X4.0959Y-2.3041
X4.0959Y-2.3959
X4.115Y-2.35
T2
X6.98Y-2.86
X7.08Y-2.86
X6.98Y-3.775
X7.08Y-3.775
X4.46Y-3.685
X4.56Y-3.685
X4.456Y-4.16
X4.556Y-4.16
X6.98Y-3.045
X7.08Y-3.045
X6.98Y-3.585
X7.08Y-3.585
X4.93Y-2.395
X4.93Y-2.495
X6.98Y-2.68
X7.08Y-2.68
X5.095Y-2.395
X5.095Y-2.495
X6.98Y-3.405
X7.08Y-3.405
X5.415Y-2.395
X5.415Y-2.495
X4.46Y-3.84
X4.56Y-3.84
X6.98Y-3.225
X7.08Y-3.225
X5.255Y-2.395
X5.255Y-2.495
X4.46Y-3.995
X4.56Y-3.995
T3
X5.92Y-2.445
X5.97Y-2.395
X5.97Y-2.495
X5.63Y-2.445
X5.68Y-2.395
X5.68Y-2.495
T4
X6.4116Y-2.435
X6.51Y-2.435
X4.915Y-2.68
X4.915Y-2.78
X4.915Y-2.88
X4.915Y-2.98
X4.915Y-3.08
X4.915Y-3.18
X4.915Y-3.28
X4.915Y-3.38
X4.915Y-3.48
X4.915Y-3.58
X4.915Y-3.68
X4.915Y-3.78
X5.515Y-2.68
X5.515Y-2.78
X5.515Y-2.88
X5.515Y-2.98
X5.515Y-3.08
X5.515Y-3.18
X5.515Y-3.28
X5.515Y-3.38
X5.515Y-3.48
X5.515Y-3.58
X5.515Y-3.68
X5.515Y-3.78
X4.13Y-3.18
X4.13Y-3.48
X4.32Y-2.49
X4.5169Y-2.49
X4.74Y-3.3816
X4.74Y-3.48
X4.13Y-2.68
X4.13Y-2.98
X6.55Y-3.995
X6.55Y-4.095
X6.55Y-4.195
X6.55Y-4.295
X6.55Y-4.395
X6.55Y-4.495
X6.55Y-4.595
X6.85Y-3.995
X6.85Y-4.095
X6.85Y-4.195
X6.85Y-4.295
X6.85Y-4.395
X6.85Y-4.495
X6.85Y-4.595
X4.695Y-3.84
X4.7934Y-3.84
X5.735Y-3.995
X5.735Y-4.095
X5.735Y-4.195
X5.735Y-4.295
X5.735Y-4.395
X5.735Y-4.495
X5.735Y-4.595
X6.035Y-3.995
X6.035Y-4.095
X6.035Y-4.195
X6.035Y-4.295
X6.035Y-4.395
X6.035Y-4.495
X6.035Y-4.595
X5.735Y-2.68
X5.735Y-2.78
X5.735Y-2.88
X5.735Y-2.98
X5.735Y-3.08
X5.735Y-3.18
X5.735Y-3.28
X5.735Y-3.38
X5.735Y-3.48
X5.735Y-3.58
X5.735Y-3.68
X5.735Y-3.78
X6.335Y-2.68
X6.335Y-2.78
X6.335Y-2.88
X6.335Y-2.98
X6.335Y-3.08
X6.335Y-3.18
X6.335Y-3.28
X6.335Y-3.38
X6.335Y-3.48
X6.335Y-3.58
X6.335Y-3.68
X6.335Y-3.78
X4.745Y-2.6816
X4.745Y-2.78
X6.5507Y-2.6814
X6.5507Y-2.7814
X6.5507Y-2.8814
X6.5507Y-2.9814
X6.5507Y-3.0814
X6.5507Y-3.1814
X6.5507Y-3.2814
X6.5507Y-3.3814
X6.5507Y-3.4814
X6.5507Y-3.5814
X6.8507Y-2.6814
X6.8507Y-2.7814
X6.8507Y-2.8814
X6.8507Y-2.9814
X6.8507Y-3.0814
X6.8507Y-3.1814
X6.8507Y-3.2814
X6.8507Y-3.3814
X6.8507Y-3.4814
X6.8507Y-3.5814
X4.27Y-2.68
X4.27Y-2.78
X4.27Y-2.88
X4.27Y-2.98
X4.27Y-3.08
X4.27Y-3.18
X4.27Y-3.28
X4.27Y-3.38
X4.27Y-3.48
X4.57Y-2.68
X4.57Y-2.78
X4.57Y-2.88
X4.57Y-2.98
X4.57Y-3.08
X4.57Y-3.18
X4.57Y-3.28
X4.57Y-3.38
X4.57Y-3.48
X5.7831Y-4.73
X5.98Y-4.73
X4.695Y-3.995
X4.7934Y-3.995
X4.455Y-4.705
X4.6519Y-4.705
X5.21Y-3.995
X5.21Y-4.095
X5.21Y-4.195
X5.21Y-4.295
X5.21Y-4.395
X5.21Y-4.495
X5.21Y-4.595
X5.51Y-3.995
X5.51Y-4.095
X5.51Y-4.195
X5.51Y-4.295
X5.51Y-4.395
X5.51Y-4.495
X5.51Y-4.595
X4.005Y-3.18
X4.005Y-3.48
X6.6031Y-3.78
X6.8Y-3.78
X4.005Y-2.68
X4.005Y-2.98
X4.745Y-2.9829
X4.745Y-3.175
T5
X4.24Y-3.795
X4.24Y-3.87
X4.24Y-3.98
X4.24Y-4.055
X4.338Y-3.795
X4.338Y-4.055
T6
X4.405Y-4.465
X4.4837Y-4.465
X4.5625Y-4.465
X4.6412Y-4.465
T7
X4.3763Y-4.3579
X4.3763Y-4.5721
X4.6519Y-4.3579
X4.6519Y-4.5721
T8
X4.05Y-4.8
X7.0Y-2.35
X7.0Y-4.795
X4.05Y-2.35
T9
X4.0904Y-3.9249
X4.1419Y-3.6572
X4.1419Y-4.1926
T0
M30
