G04 #@! TF.GenerationSoftware,KiCad,Pcbnew,(5.1.6)-1*
G04 #@! TF.CreationDate,2021-02-12T18:18:09+01:00*
G04 #@! TF.ProjectId,keyface-external,6b657966-6163-4652-9d65-787465726e61,rev?*
G04 #@! TF.SameCoordinates,Original*
G04 #@! TF.FileFunction,Legend,Top*
G04 #@! TF.FilePolarity,Positive*
%FSLAX46Y46*%
G04 Gerber Fmt 4.6, Leading zero omitted, Abs format (unit mm)*
G04 Created by KiCad (PCBNEW (5.1.6)-1) date 2021-02-12 18:18:09*
%MOMM*%
%LPD*%
G01*
G04 APERTURE LIST*
%ADD10C,0.150000*%
%ADD11C,0.152400*%
%ADD12C,0.120000*%
%ADD13C,0.203200*%
G04 APERTURE END LIST*
D10*
X156099904Y-124277333D02*
X156052285Y-124229714D01*
X155957047Y-124086857D01*
X155909428Y-123991619D01*
X155861809Y-123848761D01*
X155814190Y-123610666D01*
X155814190Y-123420190D01*
X155861809Y-123182095D01*
X155909428Y-123039238D01*
X155957047Y-122944000D01*
X156052285Y-122801142D01*
X156099904Y-122753523D01*
X156909428Y-123848761D02*
X156814190Y-123896380D01*
X156623714Y-123896380D01*
X156528476Y-123848761D01*
X156480857Y-123801142D01*
X156433238Y-123705904D01*
X156433238Y-123420190D01*
X156480857Y-123324952D01*
X156528476Y-123277333D01*
X156623714Y-123229714D01*
X156814190Y-123229714D01*
X156909428Y-123277333D01*
X157242761Y-124277333D02*
X157290380Y-124229714D01*
X157385619Y-124086857D01*
X157433238Y-123991619D01*
X157480857Y-123848761D01*
X157528476Y-123610666D01*
X157528476Y-123420190D01*
X157480857Y-123182095D01*
X157433238Y-123039238D01*
X157385619Y-122944000D01*
X157290380Y-122801142D01*
X157242761Y-122753523D01*
X158766571Y-123896380D02*
X158766571Y-122896380D01*
X159099904Y-123610666D01*
X159433238Y-122896380D01*
X159433238Y-123896380D01*
X159909428Y-123896380D02*
X159909428Y-122896380D01*
X160147523Y-122896380D01*
X160290380Y-122944000D01*
X160385619Y-123039238D01*
X160433238Y-123134476D01*
X160480857Y-123324952D01*
X160480857Y-123467809D01*
X160433238Y-123658285D01*
X160385619Y-123753523D01*
X160290380Y-123848761D01*
X160147523Y-123896380D01*
X159909428Y-123896380D01*
X160766571Y-122896380D02*
X161099904Y-123896380D01*
X161433238Y-122896380D01*
X162576095Y-122896380D02*
X162480857Y-123086857D01*
X163052285Y-123896380D02*
X163242761Y-123896380D01*
X163338000Y-123848761D01*
X163385619Y-123801142D01*
X163480857Y-123658285D01*
X163528476Y-123467809D01*
X163528476Y-123086857D01*
X163480857Y-122991619D01*
X163433238Y-122944000D01*
X163338000Y-122896380D01*
X163147523Y-122896380D01*
X163052285Y-122944000D01*
X163004666Y-122991619D01*
X162957047Y-123086857D01*
X162957047Y-123324952D01*
X163004666Y-123420190D01*
X163052285Y-123467809D01*
X163147523Y-123515428D01*
X163338000Y-123515428D01*
X163433238Y-123467809D01*
X163480857Y-123420190D01*
X163528476Y-123324952D01*
X163861809Y-122896380D02*
X164528476Y-122896380D01*
X164099904Y-123896380D01*
X164957047Y-123848761D02*
X164957047Y-123896380D01*
X164909428Y-123991619D01*
X164861809Y-124039238D01*
X166052285Y-123229714D02*
X166576095Y-123229714D01*
X166052285Y-123896380D01*
X166576095Y-123896380D01*
X167147523Y-122896380D02*
X167242761Y-122896380D01*
X167338000Y-122944000D01*
X167385619Y-122991619D01*
X167433238Y-123086857D01*
X167480857Y-123277333D01*
X167480857Y-123515428D01*
X167433238Y-123705904D01*
X167385619Y-123801142D01*
X167338000Y-123848761D01*
X167242761Y-123896380D01*
X167147523Y-123896380D01*
X167052285Y-123848761D01*
X167004666Y-123801142D01*
X166957047Y-123705904D01*
X166909428Y-123515428D01*
X166909428Y-123277333D01*
X166957047Y-123086857D01*
X167004666Y-122991619D01*
X167052285Y-122944000D01*
X167147523Y-122896380D01*
X168099904Y-122896380D02*
X168195142Y-122896380D01*
X168290380Y-122944000D01*
X168337999Y-122991619D01*
X168385619Y-123086857D01*
X168433238Y-123277333D01*
X168433238Y-123515428D01*
X168385619Y-123705904D01*
X168337999Y-123801142D01*
X168290380Y-123848761D01*
X168195142Y-123896380D01*
X168099904Y-123896380D01*
X168004666Y-123848761D01*
X167957047Y-123801142D01*
X167909428Y-123705904D01*
X167861809Y-123515428D01*
X167861809Y-123277333D01*
X167909428Y-123086857D01*
X167957047Y-122991619D01*
X168004666Y-122944000D01*
X168099904Y-122896380D01*
X168861809Y-123896380D02*
X168861809Y-123229714D01*
X168861809Y-123324952D02*
X168909428Y-123277333D01*
X169004666Y-123229714D01*
X169147523Y-123229714D01*
X169242761Y-123277333D01*
X169290380Y-123372571D01*
X169290380Y-123896380D01*
X169290380Y-123372571D02*
X169337999Y-123277333D01*
X169433238Y-123229714D01*
X169576095Y-123229714D01*
X169671333Y-123277333D01*
X169718952Y-123372571D01*
X169718952Y-123896380D01*
X171004666Y-122896380D02*
X170909428Y-123086857D01*
X171385619Y-122991619D02*
X171433238Y-122944000D01*
X171528476Y-122896380D01*
X171766571Y-122896380D01*
X171861809Y-122944000D01*
X171909428Y-122991619D01*
X171957047Y-123086857D01*
X171957047Y-123182095D01*
X171909428Y-123324952D01*
X171337999Y-123896380D01*
X171957047Y-123896380D01*
X172909428Y-123896380D02*
X172337999Y-123896380D01*
X172623714Y-123896380D02*
X172623714Y-122896380D01*
X172528476Y-123039238D01*
X172433238Y-123134476D01*
X172337999Y-123182095D01*
X180173142Y-117140571D02*
X177173142Y-117140571D01*
X180173142Y-115426285D02*
X178458857Y-116712000D01*
X177173142Y-115426285D02*
X178887428Y-117140571D01*
X180030285Y-112997714D02*
X180173142Y-113283428D01*
X180173142Y-113854857D01*
X180030285Y-114140571D01*
X179744571Y-114283428D01*
X178601714Y-114283428D01*
X178316000Y-114140571D01*
X178173142Y-113854857D01*
X178173142Y-113283428D01*
X178316000Y-112997714D01*
X178601714Y-112854857D01*
X178887428Y-112854857D01*
X179173142Y-114283428D01*
X178173142Y-111854857D02*
X180173142Y-111140571D01*
X178173142Y-110426285D02*
X180173142Y-111140571D01*
X180887428Y-111426285D01*
X181030285Y-111569142D01*
X181173142Y-111854857D01*
X178601714Y-108283428D02*
X178601714Y-109283428D01*
X180173142Y-109283428D02*
X177173142Y-109283428D01*
X177173142Y-107854857D01*
X180173142Y-105426285D02*
X178601714Y-105426285D01*
X178316000Y-105569142D01*
X178173142Y-105854857D01*
X178173142Y-106426285D01*
X178316000Y-106712000D01*
X180030285Y-105426285D02*
X180173142Y-105712000D01*
X180173142Y-106426285D01*
X180030285Y-106712000D01*
X179744571Y-106854857D01*
X179458857Y-106854857D01*
X179173142Y-106712000D01*
X179030285Y-106426285D01*
X179030285Y-105712000D01*
X178887428Y-105426285D01*
X180030285Y-102712000D02*
X180173142Y-102997714D01*
X180173142Y-103569142D01*
X180030285Y-103854857D01*
X179887428Y-103997714D01*
X179601714Y-104140571D01*
X178744571Y-104140571D01*
X178458857Y-103997714D01*
X178316000Y-103854857D01*
X178173142Y-103569142D01*
X178173142Y-102997714D01*
X178316000Y-102712000D01*
X180030285Y-100283428D02*
X180173142Y-100569142D01*
X180173142Y-101140571D01*
X180030285Y-101426285D01*
X179744571Y-101569142D01*
X178601714Y-101569142D01*
X178316000Y-101426285D01*
X178173142Y-101140571D01*
X178173142Y-100569142D01*
X178316000Y-100283428D01*
X178601714Y-100140571D01*
X178887428Y-100140571D01*
X179173142Y-101569142D01*
D11*
X99060000Y-106680000D02*
X99060000Y-92710000D01*
X111887000Y-92710000D02*
X111887000Y-106680000D01*
X99060000Y-92710000D02*
X102489000Y-92710000D01*
X107823000Y-92710000D02*
X111887000Y-92710000D01*
X102489000Y-106680000D02*
X99060000Y-106680000D01*
X111887000Y-106680000D02*
X107823000Y-106680000D01*
D12*
X100607000Y-73402000D02*
X102847000Y-73402000D01*
X100607000Y-73162000D02*
X102847000Y-73162000D01*
X100607000Y-73282000D02*
X102847000Y-73282000D01*
X101727000Y-69112000D02*
X101727000Y-69762000D01*
X101727000Y-74652000D02*
X101727000Y-74002000D01*
X100607000Y-69762000D02*
X100607000Y-74002000D01*
X102847000Y-69762000D02*
X100607000Y-69762000D01*
X102847000Y-74002000D02*
X102847000Y-69762000D01*
X100607000Y-74002000D02*
X102847000Y-74002000D01*
X167374000Y-61849000D02*
G75*
G03*
X167374000Y-61849000I-3270000J0D01*
G01*
X164104000Y-65079000D02*
X164104000Y-58619000D01*
X164064000Y-65079000D02*
X164064000Y-58619000D01*
X164024000Y-65079000D02*
X164024000Y-58619000D01*
X163984000Y-65077000D02*
X163984000Y-58621000D01*
X163944000Y-65076000D02*
X163944000Y-58622000D01*
X163904000Y-65073000D02*
X163904000Y-58625000D01*
X163864000Y-65071000D02*
X163864000Y-62889000D01*
X163864000Y-60809000D02*
X163864000Y-58627000D01*
X163824000Y-65067000D02*
X163824000Y-62889000D01*
X163824000Y-60809000D02*
X163824000Y-58631000D01*
X163784000Y-65064000D02*
X163784000Y-62889000D01*
X163784000Y-60809000D02*
X163784000Y-58634000D01*
X163744000Y-65060000D02*
X163744000Y-62889000D01*
X163744000Y-60809000D02*
X163744000Y-58638000D01*
X163704000Y-65055000D02*
X163704000Y-62889000D01*
X163704000Y-60809000D02*
X163704000Y-58643000D01*
X163664000Y-65050000D02*
X163664000Y-62889000D01*
X163664000Y-60809000D02*
X163664000Y-58648000D01*
X163624000Y-65044000D02*
X163624000Y-62889000D01*
X163624000Y-60809000D02*
X163624000Y-58654000D01*
X163584000Y-65038000D02*
X163584000Y-62889000D01*
X163584000Y-60809000D02*
X163584000Y-58660000D01*
X163544000Y-65031000D02*
X163544000Y-62889000D01*
X163544000Y-60809000D02*
X163544000Y-58667000D01*
X163504000Y-65024000D02*
X163504000Y-62889000D01*
X163504000Y-60809000D02*
X163504000Y-58674000D01*
X163464000Y-65016000D02*
X163464000Y-62889000D01*
X163464000Y-60809000D02*
X163464000Y-58682000D01*
X163424000Y-65008000D02*
X163424000Y-62889000D01*
X163424000Y-60809000D02*
X163424000Y-58690000D01*
X163383000Y-64999000D02*
X163383000Y-62889000D01*
X163383000Y-60809000D02*
X163383000Y-58699000D01*
X163343000Y-64990000D02*
X163343000Y-62889000D01*
X163343000Y-60809000D02*
X163343000Y-58708000D01*
X163303000Y-64980000D02*
X163303000Y-62889000D01*
X163303000Y-60809000D02*
X163303000Y-58718000D01*
X163263000Y-64970000D02*
X163263000Y-62889000D01*
X163263000Y-60809000D02*
X163263000Y-58728000D01*
X163223000Y-64959000D02*
X163223000Y-62889000D01*
X163223000Y-60809000D02*
X163223000Y-58739000D01*
X163183000Y-64947000D02*
X163183000Y-62889000D01*
X163183000Y-60809000D02*
X163183000Y-58751000D01*
X163143000Y-64935000D02*
X163143000Y-62889000D01*
X163143000Y-60809000D02*
X163143000Y-58763000D01*
X163103000Y-64923000D02*
X163103000Y-62889000D01*
X163103000Y-60809000D02*
X163103000Y-58775000D01*
X163063000Y-64910000D02*
X163063000Y-62889000D01*
X163063000Y-60809000D02*
X163063000Y-58788000D01*
X163023000Y-64896000D02*
X163023000Y-62889000D01*
X163023000Y-60809000D02*
X163023000Y-58802000D01*
X162983000Y-64882000D02*
X162983000Y-62889000D01*
X162983000Y-60809000D02*
X162983000Y-58816000D01*
X162943000Y-64867000D02*
X162943000Y-62889000D01*
X162943000Y-60809000D02*
X162943000Y-58831000D01*
X162903000Y-64851000D02*
X162903000Y-62889000D01*
X162903000Y-60809000D02*
X162903000Y-58847000D01*
X162863000Y-64835000D02*
X162863000Y-62889000D01*
X162863000Y-60809000D02*
X162863000Y-58863000D01*
X162823000Y-64819000D02*
X162823000Y-62889000D01*
X162823000Y-60809000D02*
X162823000Y-58879000D01*
X162783000Y-64801000D02*
X162783000Y-62889000D01*
X162783000Y-60809000D02*
X162783000Y-58897000D01*
X162743000Y-64783000D02*
X162743000Y-62889000D01*
X162743000Y-60809000D02*
X162743000Y-58915000D01*
X162703000Y-64765000D02*
X162703000Y-62889000D01*
X162703000Y-60809000D02*
X162703000Y-58933000D01*
X162663000Y-64745000D02*
X162663000Y-62889000D01*
X162663000Y-60809000D02*
X162663000Y-58953000D01*
X162623000Y-64725000D02*
X162623000Y-62889000D01*
X162623000Y-60809000D02*
X162623000Y-58973000D01*
X162583000Y-64705000D02*
X162583000Y-62889000D01*
X162583000Y-60809000D02*
X162583000Y-58993000D01*
X162543000Y-64683000D02*
X162543000Y-62889000D01*
X162543000Y-60809000D02*
X162543000Y-59015000D01*
X162503000Y-64661000D02*
X162503000Y-62889000D01*
X162503000Y-60809000D02*
X162503000Y-59037000D01*
X162463000Y-64639000D02*
X162463000Y-62889000D01*
X162463000Y-60809000D02*
X162463000Y-59059000D01*
X162423000Y-64615000D02*
X162423000Y-62889000D01*
X162423000Y-60809000D02*
X162423000Y-59083000D01*
X162383000Y-64591000D02*
X162383000Y-62889000D01*
X162383000Y-60809000D02*
X162383000Y-59107000D01*
X162343000Y-64565000D02*
X162343000Y-62889000D01*
X162343000Y-60809000D02*
X162343000Y-59133000D01*
X162303000Y-64539000D02*
X162303000Y-62889000D01*
X162303000Y-60809000D02*
X162303000Y-59159000D01*
X162263000Y-64513000D02*
X162263000Y-62889000D01*
X162263000Y-60809000D02*
X162263000Y-59185000D01*
X162223000Y-64485000D02*
X162223000Y-62889000D01*
X162223000Y-60809000D02*
X162223000Y-59213000D01*
X162183000Y-64456000D02*
X162183000Y-62889000D01*
X162183000Y-60809000D02*
X162183000Y-59242000D01*
X162143000Y-64427000D02*
X162143000Y-62889000D01*
X162143000Y-60809000D02*
X162143000Y-59271000D01*
X162103000Y-64397000D02*
X162103000Y-62889000D01*
X162103000Y-60809000D02*
X162103000Y-59301000D01*
X162063000Y-64365000D02*
X162063000Y-62889000D01*
X162063000Y-60809000D02*
X162063000Y-59333000D01*
X162023000Y-64333000D02*
X162023000Y-62889000D01*
X162023000Y-60809000D02*
X162023000Y-59365000D01*
X161983000Y-64299000D02*
X161983000Y-62889000D01*
X161983000Y-60809000D02*
X161983000Y-59399000D01*
X161943000Y-64265000D02*
X161943000Y-62889000D01*
X161943000Y-60809000D02*
X161943000Y-59433000D01*
X161903000Y-64229000D02*
X161903000Y-62889000D01*
X161903000Y-60809000D02*
X161903000Y-59469000D01*
X161863000Y-64192000D02*
X161863000Y-62889000D01*
X161863000Y-60809000D02*
X161863000Y-59506000D01*
X161823000Y-64154000D02*
X161823000Y-62889000D01*
X161823000Y-60809000D02*
X161823000Y-59544000D01*
X161783000Y-64114000D02*
X161783000Y-59584000D01*
X161743000Y-64073000D02*
X161743000Y-59625000D01*
X161703000Y-64031000D02*
X161703000Y-59667000D01*
X161663000Y-63986000D02*
X161663000Y-59712000D01*
X161623000Y-63941000D02*
X161623000Y-59757000D01*
X161583000Y-63893000D02*
X161583000Y-59805000D01*
X161543000Y-63844000D02*
X161543000Y-59854000D01*
X161503000Y-63793000D02*
X161503000Y-59905000D01*
X161463000Y-63739000D02*
X161463000Y-59959000D01*
X161423000Y-63683000D02*
X161423000Y-60015000D01*
X161383000Y-63625000D02*
X161383000Y-60073000D01*
X161343000Y-63563000D02*
X161343000Y-60135000D01*
X161303000Y-63499000D02*
X161303000Y-60199000D01*
X161263000Y-63430000D02*
X161263000Y-60268000D01*
X161223000Y-63358000D02*
X161223000Y-60340000D01*
X161183000Y-63281000D02*
X161183000Y-60417000D01*
X161143000Y-63199000D02*
X161143000Y-60499000D01*
X161103000Y-63111000D02*
X161103000Y-60587000D01*
X161063000Y-63014000D02*
X161063000Y-60684000D01*
X161023000Y-62908000D02*
X161023000Y-60790000D01*
X160983000Y-62789000D02*
X160983000Y-60909000D01*
X160943000Y-62651000D02*
X160943000Y-61047000D01*
X160903000Y-62482000D02*
X160903000Y-61216000D01*
X160863000Y-62251000D02*
X160863000Y-61447000D01*
X167604241Y-63688000D02*
X166974241Y-63688000D01*
X167289241Y-64003000D02*
X167289241Y-63373000D01*
X122123000Y-98591000D02*
X122123000Y-98656000D01*
X122123000Y-96416000D02*
X122123000Y-96481000D01*
X118883000Y-98591000D02*
X118883000Y-98656000D01*
X118883000Y-96416000D02*
X118883000Y-96481000D01*
X118883000Y-98656000D02*
X122123000Y-98656000D01*
X118883000Y-96416000D02*
X122123000Y-96416000D01*
X118883000Y-100353000D02*
X122123000Y-100353000D01*
X118883000Y-102593000D02*
X122123000Y-102593000D01*
X118883000Y-100353000D02*
X118883000Y-100418000D01*
X118883000Y-102528000D02*
X118883000Y-102593000D01*
X122123000Y-100353000D02*
X122123000Y-100418000D01*
X122123000Y-102528000D02*
X122123000Y-102593000D01*
X167950000Y-94957000D02*
X167950000Y-94942000D01*
X167950000Y-97082000D02*
X167950000Y-97067000D01*
X172490000Y-94957000D02*
X172490000Y-94942000D01*
X172490000Y-97082000D02*
X172490000Y-97067000D01*
X172490000Y-94942000D02*
X167950000Y-94942000D01*
X172490000Y-97082000D02*
X167950000Y-97082000D01*
X109958000Y-62176000D02*
X114498000Y-62176000D01*
X109958000Y-64316000D02*
X114498000Y-64316000D01*
X109958000Y-62176000D02*
X109958000Y-62191000D01*
X109958000Y-64301000D02*
X109958000Y-64316000D01*
X114498000Y-62176000D02*
X114498000Y-62191000D01*
X114498000Y-64301000D02*
X114498000Y-64316000D01*
X119403000Y-70982000D02*
X119403000Y-67742000D01*
X121643000Y-70982000D02*
X121643000Y-67742000D01*
X119403000Y-70982000D02*
X119468000Y-70982000D01*
X121578000Y-70982000D02*
X121643000Y-70982000D01*
X119403000Y-67742000D02*
X119468000Y-67742000D01*
X121578000Y-67742000D02*
X121643000Y-67742000D01*
X119341000Y-88762000D02*
X119276000Y-88762000D01*
X121516000Y-88762000D02*
X121451000Y-88762000D01*
X119341000Y-85522000D02*
X119276000Y-85522000D01*
X121516000Y-85522000D02*
X121451000Y-85522000D01*
X119276000Y-85522000D02*
X119276000Y-88762000D01*
X121516000Y-85522000D02*
X121516000Y-88762000D01*
X111268000Y-66742000D02*
X109618000Y-66742000D01*
X109618000Y-66742000D02*
X109618000Y-89722000D01*
X109618000Y-89722000D02*
X114918000Y-89722000D01*
X114918000Y-89722000D02*
X114918000Y-66742000D01*
X114918000Y-66742000D02*
X113268000Y-66742000D01*
X113268000Y-66742000D02*
G75*
G02*
X111268000Y-66742000I-1000000J0D01*
G01*
X159749000Y-66742000D02*
X154289000Y-66742000D01*
X159749000Y-97342000D02*
X159749000Y-66742000D01*
X146829000Y-97342000D02*
X159749000Y-97342000D01*
X146829000Y-66742000D02*
X146829000Y-97342000D01*
X152289000Y-66742000D02*
X146829000Y-66742000D01*
X154289000Y-66742000D02*
G75*
G02*
X152289000Y-66742000I-1000000J0D01*
G01*
X131461000Y-66742000D02*
X126001000Y-66742000D01*
X126001000Y-66742000D02*
X126001000Y-97342000D01*
X126001000Y-97342000D02*
X138921000Y-97342000D01*
X138921000Y-97342000D02*
X138921000Y-66742000D01*
X138921000Y-66742000D02*
X133461000Y-66742000D01*
X133461000Y-66742000D02*
G75*
G02*
X131461000Y-66742000I-1000000J0D01*
G01*
X169198000Y-66777600D02*
X167548000Y-66777600D01*
X167548000Y-66777600D02*
X167548000Y-92297600D01*
X167548000Y-92297600D02*
X172848000Y-92297600D01*
X172848000Y-92297600D02*
X172848000Y-66777600D01*
X172848000Y-66777600D02*
X171198000Y-66777600D01*
X171198000Y-66777600D02*
G75*
G02*
X169198000Y-66777600I-1000000J0D01*
G01*
X135144000Y-100143000D02*
X133494000Y-100143000D01*
X133494000Y-100143000D02*
X133494000Y-118043000D01*
X133494000Y-118043000D02*
X138794000Y-118043000D01*
X138794000Y-118043000D02*
X138794000Y-100143000D01*
X138794000Y-100143000D02*
X137144000Y-100143000D01*
X137144000Y-100143000D02*
G75*
G02*
X135144000Y-100143000I-1000000J0D01*
G01*
X152129000Y-100143000D02*
X150479000Y-100143000D01*
X152129000Y-118043000D02*
X152129000Y-100143000D01*
X146829000Y-118043000D02*
X152129000Y-118043000D01*
X146829000Y-100143000D02*
X146829000Y-118043000D01*
X148479000Y-100143000D02*
X146829000Y-100143000D01*
X150479000Y-100143000D02*
G75*
G02*
X148479000Y-100143000I-1000000J0D01*
G01*
X169180000Y-100143000D02*
X167530000Y-100143000D01*
X167530000Y-100143000D02*
X167530000Y-118043000D01*
X167530000Y-118043000D02*
X172830000Y-118043000D01*
X172830000Y-118043000D02*
X172830000Y-100143000D01*
X172830000Y-100143000D02*
X171180000Y-100143000D01*
X171180000Y-100143000D02*
G75*
G02*
X169180000Y-100143000I-1000000J0D01*
G01*
X117998000Y-81330000D02*
X117998000Y-75080000D01*
X123048000Y-81330000D02*
X123048000Y-75080000D01*
X123048000Y-81330000D02*
G75*
G02*
X117998000Y-81330000I-2525000J0D01*
G01*
X123048000Y-75080000D02*
G75*
G03*
X117998000Y-75080000I-2525000J0D01*
G01*
X114204000Y-101473000D02*
G75*
G03*
X114204000Y-101473000I-920000J0D01*
G01*
X114204000Y-101473000D02*
X114824000Y-101473000D01*
X114204000Y-97536000D02*
X114824000Y-97536000D01*
X114204000Y-97536000D02*
G75*
G03*
X114204000Y-97536000I-920000J0D01*
G01*
X180752000Y-95885000D02*
G75*
G03*
X180752000Y-95885000I-920000J0D01*
G01*
X178912000Y-95885000D02*
X178292000Y-95885000D01*
X126142000Y-63373000D02*
G75*
G03*
X126142000Y-63373000I-920000J0D01*
G01*
X125222000Y-62453000D02*
X125222000Y-61833000D01*
X129413000Y-62453000D02*
X129413000Y-61833000D01*
X130333000Y-63373000D02*
G75*
G03*
X130333000Y-63373000I-920000J0D01*
G01*
X133477000Y-62453000D02*
X133477000Y-61833000D01*
X134397000Y-63373000D02*
G75*
G03*
X134397000Y-63373000I-920000J0D01*
G01*
X138461000Y-63373000D02*
G75*
G03*
X138461000Y-63373000I-920000J0D01*
G01*
X137541000Y-62453000D02*
X137541000Y-61833000D01*
X178912000Y-68072000D02*
X178292000Y-68072000D01*
X180752000Y-68072000D02*
G75*
G03*
X180752000Y-68072000I-920000J0D01*
G01*
X180752000Y-72644000D02*
G75*
G03*
X180752000Y-72644000I-920000J0D01*
G01*
X178912000Y-72644000D02*
X178292000Y-72644000D01*
X178912000Y-77343000D02*
X178292000Y-77343000D01*
X180752000Y-77343000D02*
G75*
G03*
X180752000Y-77343000I-920000J0D01*
G01*
X180752000Y-81915000D02*
G75*
G03*
X180752000Y-81915000I-920000J0D01*
G01*
X178912000Y-81915000D02*
X178292000Y-81915000D01*
X178912000Y-86487000D02*
X178292000Y-86487000D01*
X180752000Y-86487000D02*
G75*
G03*
X180752000Y-86487000I-920000J0D01*
G01*
X180752000Y-91059000D02*
G75*
G03*
X180752000Y-91059000I-920000J0D01*
G01*
X178912000Y-91059000D02*
X178292000Y-91059000D01*
X116744000Y-93599000D02*
G75*
G03*
X116744000Y-93599000I-920000J0D01*
G01*
X114904000Y-93599000D02*
X114284000Y-93599000D01*
X114802400Y-105664000D02*
X114182400Y-105664000D01*
X116642400Y-105664000D02*
G75*
G03*
X116642400Y-105664000I-920000J0D01*
G01*
X146122000Y-63903000D02*
X146122000Y-60303000D01*
X146110478Y-60264522D02*
G75*
G03*
X141672000Y-62103000I-1838478J-1838478D01*
G01*
X146110478Y-63941478D02*
G75*
G02*
X141672000Y-62103000I-1838478J1838478D01*
G01*
X153488000Y-63903000D02*
X153488000Y-60303000D01*
X153476478Y-63941478D02*
G75*
G02*
X149038000Y-62103000I-1838478J1838478D01*
G01*
X153476478Y-60264522D02*
G75*
G03*
X149038000Y-62103000I-1838478J-1838478D01*
G01*
X99457000Y-109761000D02*
X109907000Y-109761000D01*
X99457000Y-109761000D02*
X99457000Y-117061000D01*
X99457000Y-117061000D02*
X109907000Y-117061000D01*
X112407000Y-109761000D02*
X116907000Y-109761000D01*
X112407000Y-117061000D02*
X116907000Y-117061000D01*
X118957000Y-111911000D02*
X118957000Y-114911000D01*
X111387000Y-117441000D02*
X112387000Y-117441000D01*
X103782000Y-73402000D02*
X106022000Y-73402000D01*
X103782000Y-73162000D02*
X106022000Y-73162000D01*
X103782000Y-73282000D02*
X106022000Y-73282000D01*
X104902000Y-69112000D02*
X104902000Y-69762000D01*
X104902000Y-74652000D02*
X104902000Y-74002000D01*
X103782000Y-69762000D02*
X103782000Y-74002000D01*
X106022000Y-69762000D02*
X103782000Y-69762000D01*
X106022000Y-74002000D02*
X106022000Y-69762000D01*
X103782000Y-74002000D02*
X106022000Y-74002000D01*
X106022000Y-82462000D02*
X103782000Y-82462000D01*
X103782000Y-82462000D02*
X103782000Y-86702000D01*
X103782000Y-86702000D02*
X106022000Y-86702000D01*
X106022000Y-86702000D02*
X106022000Y-82462000D01*
X104902000Y-81812000D02*
X104902000Y-82462000D01*
X104902000Y-87352000D02*
X104902000Y-86702000D01*
X106022000Y-83182000D02*
X103782000Y-83182000D01*
X106022000Y-83302000D02*
X103782000Y-83302000D01*
X106022000Y-83062000D02*
X103782000Y-83062000D01*
X102847000Y-82462000D02*
X100607000Y-82462000D01*
X100607000Y-82462000D02*
X100607000Y-86702000D01*
X100607000Y-86702000D02*
X102847000Y-86702000D01*
X102847000Y-86702000D02*
X102847000Y-82462000D01*
X101727000Y-81812000D02*
X101727000Y-82462000D01*
X101727000Y-87352000D02*
X101727000Y-86702000D01*
X102847000Y-83182000D02*
X100607000Y-83182000D01*
X102847000Y-83302000D02*
X100607000Y-83302000D01*
X102847000Y-83062000D02*
X100607000Y-83062000D01*
X147122000Y-119087000D02*
X147122000Y-119072000D01*
X147122000Y-121212000D02*
X147122000Y-121197000D01*
X151662000Y-119087000D02*
X151662000Y-119072000D01*
X151662000Y-121212000D02*
X151662000Y-121197000D01*
X151662000Y-119072000D02*
X147122000Y-119072000D01*
X151662000Y-121212000D02*
X147122000Y-121212000D01*
X113387000Y-118437000D02*
X117927000Y-118437000D01*
X113387000Y-120577000D02*
X117927000Y-120577000D01*
X113387000Y-118437000D02*
X113387000Y-118452000D01*
X113387000Y-120562000D02*
X113387000Y-120577000D01*
X117927000Y-118437000D02*
X117927000Y-118452000D01*
X117927000Y-120562000D02*
X117927000Y-120577000D01*
D13*
X100116640Y-104934028D02*
X100116640Y-105886165D01*
X100049874Y-106076592D01*
X99916342Y-106203544D01*
X99716045Y-106267020D01*
X99582514Y-106267020D01*
X101518720Y-106267020D02*
X100717531Y-106267020D01*
X101118125Y-106267020D02*
X101118125Y-104934028D01*
X100984594Y-105124455D01*
X100851062Y-105251407D01*
X100717531Y-105314883D01*
D10*
X102179380Y-72366095D02*
X101179380Y-72366095D01*
X101179380Y-72128000D01*
X101227000Y-71985142D01*
X101322238Y-71889904D01*
X101417476Y-71842285D01*
X101607952Y-71794666D01*
X101750809Y-71794666D01*
X101941285Y-71842285D01*
X102036523Y-71889904D01*
X102131761Y-71985142D01*
X102179380Y-72128000D01*
X102179380Y-72366095D01*
X101179380Y-71461333D02*
X101179380Y-70842285D01*
X101560333Y-71175619D01*
X101560333Y-71032761D01*
X101607952Y-70937523D01*
X101655571Y-70889904D01*
X101750809Y-70842285D01*
X101988904Y-70842285D01*
X102084142Y-70889904D01*
X102131761Y-70937523D01*
X102179380Y-71032761D01*
X102179380Y-71318476D01*
X102131761Y-71413714D01*
X102084142Y-71461333D01*
X168489333Y-62206142D02*
X168441714Y-62253761D01*
X168298857Y-62301380D01*
X168203619Y-62301380D01*
X168060761Y-62253761D01*
X167965523Y-62158523D01*
X167917904Y-62063285D01*
X167870285Y-61872809D01*
X167870285Y-61729952D01*
X167917904Y-61539476D01*
X167965523Y-61444238D01*
X168060761Y-61349000D01*
X168203619Y-61301380D01*
X168298857Y-61301380D01*
X168441714Y-61349000D01*
X168489333Y-61396619D01*
X169441714Y-62301380D02*
X168870285Y-62301380D01*
X169156000Y-62301380D02*
X169156000Y-61301380D01*
X169060761Y-61444238D01*
X168965523Y-61539476D01*
X168870285Y-61587095D01*
X120356333Y-95988142D02*
X120308714Y-96035761D01*
X120165857Y-96083380D01*
X120070619Y-96083380D01*
X119927761Y-96035761D01*
X119832523Y-95940523D01*
X119784904Y-95845285D01*
X119737285Y-95654809D01*
X119737285Y-95511952D01*
X119784904Y-95321476D01*
X119832523Y-95226238D01*
X119927761Y-95131000D01*
X120070619Y-95083380D01*
X120165857Y-95083380D01*
X120308714Y-95131000D01*
X120356333Y-95178619D01*
X120737285Y-95178619D02*
X120784904Y-95131000D01*
X120880142Y-95083380D01*
X121118238Y-95083380D01*
X121213476Y-95131000D01*
X121261095Y-95178619D01*
X121308714Y-95273857D01*
X121308714Y-95369095D01*
X121261095Y-95511952D01*
X120689666Y-96083380D01*
X121308714Y-96083380D01*
X120356333Y-99925142D02*
X120308714Y-99972761D01*
X120165857Y-100020380D01*
X120070619Y-100020380D01*
X119927761Y-99972761D01*
X119832523Y-99877523D01*
X119784904Y-99782285D01*
X119737285Y-99591809D01*
X119737285Y-99448952D01*
X119784904Y-99258476D01*
X119832523Y-99163238D01*
X119927761Y-99068000D01*
X120070619Y-99020380D01*
X120165857Y-99020380D01*
X120308714Y-99068000D01*
X120356333Y-99115619D01*
X120689666Y-99020380D02*
X121308714Y-99020380D01*
X120975380Y-99401333D01*
X121118238Y-99401333D01*
X121213476Y-99448952D01*
X121261095Y-99496571D01*
X121308714Y-99591809D01*
X121308714Y-99829904D01*
X121261095Y-99925142D01*
X121213476Y-99972761D01*
X121118238Y-100020380D01*
X120832523Y-100020380D01*
X120737285Y-99972761D01*
X120689666Y-99925142D01*
X170013333Y-94337142D02*
X169965714Y-94384761D01*
X169822857Y-94432380D01*
X169727619Y-94432380D01*
X169584761Y-94384761D01*
X169489523Y-94289523D01*
X169441904Y-94194285D01*
X169394285Y-94003809D01*
X169394285Y-93860952D01*
X169441904Y-93670476D01*
X169489523Y-93575238D01*
X169584761Y-93480000D01*
X169727619Y-93432380D01*
X169822857Y-93432380D01*
X169965714Y-93480000D01*
X170013333Y-93527619D01*
X170870476Y-93765714D02*
X170870476Y-94432380D01*
X170632380Y-93384761D02*
X170394285Y-94099047D01*
X171013333Y-94099047D01*
X112061333Y-61403142D02*
X112013714Y-61450761D01*
X111870857Y-61498380D01*
X111775619Y-61498380D01*
X111632761Y-61450761D01*
X111537523Y-61355523D01*
X111489904Y-61260285D01*
X111442285Y-61069809D01*
X111442285Y-60926952D01*
X111489904Y-60736476D01*
X111537523Y-60641238D01*
X111632761Y-60546000D01*
X111775619Y-60498380D01*
X111870857Y-60498380D01*
X112013714Y-60546000D01*
X112061333Y-60593619D01*
X112966095Y-60498380D02*
X112489904Y-60498380D01*
X112442285Y-60974571D01*
X112489904Y-60926952D01*
X112585142Y-60879333D01*
X112823238Y-60879333D01*
X112918476Y-60926952D01*
X112966095Y-60974571D01*
X113013714Y-61069809D01*
X113013714Y-61307904D01*
X112966095Y-61403142D01*
X112918476Y-61450761D01*
X112823238Y-61498380D01*
X112585142Y-61498380D01*
X112489904Y-61450761D01*
X112442285Y-61403142D01*
X118630142Y-69528666D02*
X118677761Y-69576285D01*
X118725380Y-69719142D01*
X118725380Y-69814380D01*
X118677761Y-69957238D01*
X118582523Y-70052476D01*
X118487285Y-70100095D01*
X118296809Y-70147714D01*
X118153952Y-70147714D01*
X117963476Y-70100095D01*
X117868238Y-70052476D01*
X117773000Y-69957238D01*
X117725380Y-69814380D01*
X117725380Y-69719142D01*
X117773000Y-69576285D01*
X117820619Y-69528666D01*
X117725380Y-68671523D02*
X117725380Y-68862000D01*
X117773000Y-68957238D01*
X117820619Y-69004857D01*
X117963476Y-69100095D01*
X118153952Y-69147714D01*
X118534904Y-69147714D01*
X118630142Y-69100095D01*
X118677761Y-69052476D01*
X118725380Y-68957238D01*
X118725380Y-68766761D01*
X118677761Y-68671523D01*
X118630142Y-68623904D01*
X118534904Y-68576285D01*
X118296809Y-68576285D01*
X118201571Y-68623904D01*
X118153952Y-68671523D01*
X118106333Y-68766761D01*
X118106333Y-68957238D01*
X118153952Y-69052476D01*
X118201571Y-69100095D01*
X118296809Y-69147714D01*
X118619542Y-87212466D02*
X118667161Y-87260085D01*
X118714780Y-87402942D01*
X118714780Y-87498180D01*
X118667161Y-87641038D01*
X118571923Y-87736276D01*
X118476685Y-87783895D01*
X118286209Y-87831514D01*
X118143352Y-87831514D01*
X117952876Y-87783895D01*
X117857638Y-87736276D01*
X117762400Y-87641038D01*
X117714780Y-87498180D01*
X117714780Y-87402942D01*
X117762400Y-87260085D01*
X117810019Y-87212466D01*
X117714780Y-86879133D02*
X117714780Y-86212466D01*
X118714780Y-86641038D01*
X111291809Y-66194380D02*
X111291809Y-65194380D01*
X112339428Y-66099142D02*
X112291809Y-66146761D01*
X112148952Y-66194380D01*
X112053714Y-66194380D01*
X111910857Y-66146761D01*
X111815619Y-66051523D01*
X111768000Y-65956285D01*
X111720380Y-65765809D01*
X111720380Y-65622952D01*
X111768000Y-65432476D01*
X111815619Y-65337238D01*
X111910857Y-65242000D01*
X112053714Y-65194380D01*
X112148952Y-65194380D01*
X112291809Y-65242000D01*
X112339428Y-65289619D01*
X113291809Y-66194380D02*
X112720380Y-66194380D01*
X113006095Y-66194380D02*
X113006095Y-65194380D01*
X112910857Y-65337238D01*
X112815619Y-65432476D01*
X112720380Y-65480095D01*
X152312809Y-66194380D02*
X152312809Y-65194380D01*
X153360428Y-66099142D02*
X153312809Y-66146761D01*
X153169952Y-66194380D01*
X153074714Y-66194380D01*
X152931857Y-66146761D01*
X152836619Y-66051523D01*
X152789000Y-65956285D01*
X152741380Y-65765809D01*
X152741380Y-65622952D01*
X152789000Y-65432476D01*
X152836619Y-65337238D01*
X152931857Y-65242000D01*
X153074714Y-65194380D01*
X153169952Y-65194380D01*
X153312809Y-65242000D01*
X153360428Y-65289619D01*
X153741380Y-65289619D02*
X153789000Y-65242000D01*
X153884238Y-65194380D01*
X154122333Y-65194380D01*
X154217571Y-65242000D01*
X154265190Y-65289619D01*
X154312809Y-65384857D01*
X154312809Y-65480095D01*
X154265190Y-65622952D01*
X153693761Y-66194380D01*
X154312809Y-66194380D01*
X131484809Y-66194380D02*
X131484809Y-65194380D01*
X132532428Y-66099142D02*
X132484809Y-66146761D01*
X132341952Y-66194380D01*
X132246714Y-66194380D01*
X132103857Y-66146761D01*
X132008619Y-66051523D01*
X131961000Y-65956285D01*
X131913380Y-65765809D01*
X131913380Y-65622952D01*
X131961000Y-65432476D01*
X132008619Y-65337238D01*
X132103857Y-65242000D01*
X132246714Y-65194380D01*
X132341952Y-65194380D01*
X132484809Y-65242000D01*
X132532428Y-65289619D01*
X132865761Y-65194380D02*
X133484809Y-65194380D01*
X133151476Y-65575333D01*
X133294333Y-65575333D01*
X133389571Y-65622952D01*
X133437190Y-65670571D01*
X133484809Y-65765809D01*
X133484809Y-66003904D01*
X133437190Y-66099142D01*
X133389571Y-66146761D01*
X133294333Y-66194380D01*
X133008619Y-66194380D01*
X132913380Y-66146761D01*
X132865761Y-66099142D01*
X169221809Y-66229980D02*
X169221809Y-65229980D01*
X170269428Y-66134742D02*
X170221809Y-66182361D01*
X170078952Y-66229980D01*
X169983714Y-66229980D01*
X169840857Y-66182361D01*
X169745619Y-66087123D01*
X169698000Y-65991885D01*
X169650380Y-65801409D01*
X169650380Y-65658552D01*
X169698000Y-65468076D01*
X169745619Y-65372838D01*
X169840857Y-65277600D01*
X169983714Y-65229980D01*
X170078952Y-65229980D01*
X170221809Y-65277600D01*
X170269428Y-65325219D01*
X171126571Y-65563314D02*
X171126571Y-66229980D01*
X170888476Y-65182361D02*
X170650380Y-65896647D01*
X171269428Y-65896647D01*
X135167809Y-99595380D02*
X135167809Y-98595380D01*
X136215428Y-99500142D02*
X136167809Y-99547761D01*
X136024952Y-99595380D01*
X135929714Y-99595380D01*
X135786857Y-99547761D01*
X135691619Y-99452523D01*
X135644000Y-99357285D01*
X135596380Y-99166809D01*
X135596380Y-99023952D01*
X135644000Y-98833476D01*
X135691619Y-98738238D01*
X135786857Y-98643000D01*
X135929714Y-98595380D01*
X136024952Y-98595380D01*
X136167809Y-98643000D01*
X136215428Y-98690619D01*
X137120190Y-98595380D02*
X136644000Y-98595380D01*
X136596380Y-99071571D01*
X136644000Y-99023952D01*
X136739238Y-98976333D01*
X136977333Y-98976333D01*
X137072571Y-99023952D01*
X137120190Y-99071571D01*
X137167809Y-99166809D01*
X137167809Y-99404904D01*
X137120190Y-99500142D01*
X137072571Y-99547761D01*
X136977333Y-99595380D01*
X136739238Y-99595380D01*
X136644000Y-99547761D01*
X136596380Y-99500142D01*
X148502809Y-99595380D02*
X148502809Y-98595380D01*
X149550428Y-99500142D02*
X149502809Y-99547761D01*
X149359952Y-99595380D01*
X149264714Y-99595380D01*
X149121857Y-99547761D01*
X149026619Y-99452523D01*
X148979000Y-99357285D01*
X148931380Y-99166809D01*
X148931380Y-99023952D01*
X148979000Y-98833476D01*
X149026619Y-98738238D01*
X149121857Y-98643000D01*
X149264714Y-98595380D01*
X149359952Y-98595380D01*
X149502809Y-98643000D01*
X149550428Y-98690619D01*
X150407571Y-98595380D02*
X150217095Y-98595380D01*
X150121857Y-98643000D01*
X150074238Y-98690619D01*
X149979000Y-98833476D01*
X149931380Y-99023952D01*
X149931380Y-99404904D01*
X149979000Y-99500142D01*
X150026619Y-99547761D01*
X150121857Y-99595380D01*
X150312333Y-99595380D01*
X150407571Y-99547761D01*
X150455190Y-99500142D01*
X150502809Y-99404904D01*
X150502809Y-99166809D01*
X150455190Y-99071571D01*
X150407571Y-99023952D01*
X150312333Y-98976333D01*
X150121857Y-98976333D01*
X150026619Y-99023952D01*
X149979000Y-99071571D01*
X149931380Y-99166809D01*
X169203809Y-99595380D02*
X169203809Y-98595380D01*
X170251428Y-99500142D02*
X170203809Y-99547761D01*
X170060952Y-99595380D01*
X169965714Y-99595380D01*
X169822857Y-99547761D01*
X169727619Y-99452523D01*
X169680000Y-99357285D01*
X169632380Y-99166809D01*
X169632380Y-99023952D01*
X169680000Y-98833476D01*
X169727619Y-98738238D01*
X169822857Y-98643000D01*
X169965714Y-98595380D01*
X170060952Y-98595380D01*
X170203809Y-98643000D01*
X170251428Y-98690619D01*
X170584761Y-98595380D02*
X171251428Y-98595380D01*
X170822857Y-99595380D01*
X121070619Y-78327238D02*
X121023000Y-78422476D01*
X120927761Y-78517714D01*
X120784904Y-78660571D01*
X120737285Y-78755809D01*
X120737285Y-78851047D01*
X120975380Y-78803428D02*
X120927761Y-78898666D01*
X120832523Y-78993904D01*
X120642047Y-79041523D01*
X120308714Y-79041523D01*
X120118238Y-78993904D01*
X120023000Y-78898666D01*
X119975380Y-78803428D01*
X119975380Y-78612952D01*
X120023000Y-78517714D01*
X120118238Y-78422476D01*
X120308714Y-78374857D01*
X120642047Y-78374857D01*
X120832523Y-78422476D01*
X120927761Y-78517714D01*
X120975380Y-78612952D01*
X120975380Y-78803428D01*
X120975380Y-77422476D02*
X120975380Y-77993904D01*
X120975380Y-77708190D02*
X119975380Y-77708190D01*
X120118238Y-77803428D01*
X120213476Y-77898666D01*
X120261095Y-77993904D01*
X113911142Y-100005380D02*
X113577809Y-99529190D01*
X113339714Y-100005380D02*
X113339714Y-99005380D01*
X113720666Y-99005380D01*
X113815904Y-99053000D01*
X113863523Y-99100619D01*
X113911142Y-99195857D01*
X113911142Y-99338714D01*
X113863523Y-99433952D01*
X113815904Y-99481571D01*
X113720666Y-99529190D01*
X113339714Y-99529190D01*
X114863523Y-100005380D02*
X114292095Y-100005380D01*
X114577809Y-100005380D02*
X114577809Y-99005380D01*
X114482571Y-99148238D01*
X114387333Y-99243476D01*
X114292095Y-99291095D01*
X115815904Y-100005380D02*
X115244476Y-100005380D01*
X115530190Y-100005380D02*
X115530190Y-99005380D01*
X115434952Y-99148238D01*
X115339714Y-99243476D01*
X115244476Y-99291095D01*
X113911142Y-96068380D02*
X113577809Y-95592190D01*
X113339714Y-96068380D02*
X113339714Y-95068380D01*
X113720666Y-95068380D01*
X113815904Y-95116000D01*
X113863523Y-95163619D01*
X113911142Y-95258857D01*
X113911142Y-95401714D01*
X113863523Y-95496952D01*
X113815904Y-95544571D01*
X113720666Y-95592190D01*
X113339714Y-95592190D01*
X114863523Y-96068380D02*
X114292095Y-96068380D01*
X114577809Y-96068380D02*
X114577809Y-95068380D01*
X114482571Y-95211238D01*
X114387333Y-95306476D01*
X114292095Y-95354095D01*
X115244476Y-95163619D02*
X115292095Y-95116000D01*
X115387333Y-95068380D01*
X115625428Y-95068380D01*
X115720666Y-95116000D01*
X115768285Y-95163619D01*
X115815904Y-95258857D01*
X115815904Y-95354095D01*
X115768285Y-95496952D01*
X115196857Y-96068380D01*
X115815904Y-96068380D01*
X178071542Y-94559380D02*
X177738209Y-94083190D01*
X177500114Y-94559380D02*
X177500114Y-93559380D01*
X177881066Y-93559380D01*
X177976304Y-93607000D01*
X178023923Y-93654619D01*
X178071542Y-93749857D01*
X178071542Y-93892714D01*
X178023923Y-93987952D01*
X177976304Y-94035571D01*
X177881066Y-94083190D01*
X177500114Y-94083190D01*
X179023923Y-94559380D02*
X178452495Y-94559380D01*
X178738209Y-94559380D02*
X178738209Y-93559380D01*
X178642971Y-93702238D01*
X178547733Y-93797476D01*
X178452495Y-93845095D01*
X179357257Y-93559380D02*
X179976304Y-93559380D01*
X179642971Y-93940333D01*
X179785828Y-93940333D01*
X179881066Y-93987952D01*
X179928685Y-94035571D01*
X179976304Y-94130809D01*
X179976304Y-94368904D01*
X179928685Y-94464142D01*
X179881066Y-94511761D01*
X179785828Y-94559380D01*
X179500114Y-94559380D01*
X179404876Y-94511761D01*
X179357257Y-94464142D01*
X123754380Y-62745857D02*
X123278190Y-63079190D01*
X123754380Y-63317285D02*
X122754380Y-63317285D01*
X122754380Y-62936333D01*
X122802000Y-62841095D01*
X122849619Y-62793476D01*
X122944857Y-62745857D01*
X123087714Y-62745857D01*
X123182952Y-62793476D01*
X123230571Y-62841095D01*
X123278190Y-62936333D01*
X123278190Y-63317285D01*
X122849619Y-62364904D02*
X122802000Y-62317285D01*
X122754380Y-62222047D01*
X122754380Y-61983952D01*
X122802000Y-61888714D01*
X122849619Y-61841095D01*
X122944857Y-61793476D01*
X123040095Y-61793476D01*
X123182952Y-61841095D01*
X123754380Y-62412523D01*
X123754380Y-61793476D01*
X123754380Y-60841095D02*
X123754380Y-61412523D01*
X123754380Y-61126809D02*
X122754380Y-61126809D01*
X122897238Y-61222047D01*
X122992476Y-61317285D01*
X123040095Y-61412523D01*
X127945380Y-62745857D02*
X127469190Y-63079190D01*
X127945380Y-63317285D02*
X126945380Y-63317285D01*
X126945380Y-62936333D01*
X126993000Y-62841095D01*
X127040619Y-62793476D01*
X127135857Y-62745857D01*
X127278714Y-62745857D01*
X127373952Y-62793476D01*
X127421571Y-62841095D01*
X127469190Y-62936333D01*
X127469190Y-63317285D01*
X127040619Y-62364904D02*
X126993000Y-62317285D01*
X126945380Y-62222047D01*
X126945380Y-61983952D01*
X126993000Y-61888714D01*
X127040619Y-61841095D01*
X127135857Y-61793476D01*
X127231095Y-61793476D01*
X127373952Y-61841095D01*
X127945380Y-62412523D01*
X127945380Y-61793476D01*
X127040619Y-61412523D02*
X126993000Y-61364904D01*
X126945380Y-61269666D01*
X126945380Y-61031571D01*
X126993000Y-60936333D01*
X127040619Y-60888714D01*
X127135857Y-60841095D01*
X127231095Y-60841095D01*
X127373952Y-60888714D01*
X127945380Y-61460142D01*
X127945380Y-60841095D01*
X132009380Y-62745857D02*
X131533190Y-63079190D01*
X132009380Y-63317285D02*
X131009380Y-63317285D01*
X131009380Y-62936333D01*
X131057000Y-62841095D01*
X131104619Y-62793476D01*
X131199857Y-62745857D01*
X131342714Y-62745857D01*
X131437952Y-62793476D01*
X131485571Y-62841095D01*
X131533190Y-62936333D01*
X131533190Y-63317285D01*
X131104619Y-62364904D02*
X131057000Y-62317285D01*
X131009380Y-62222047D01*
X131009380Y-61983952D01*
X131057000Y-61888714D01*
X131104619Y-61841095D01*
X131199857Y-61793476D01*
X131295095Y-61793476D01*
X131437952Y-61841095D01*
X132009380Y-62412523D01*
X132009380Y-61793476D01*
X131009380Y-61460142D02*
X131009380Y-60841095D01*
X131390333Y-61174428D01*
X131390333Y-61031571D01*
X131437952Y-60936333D01*
X131485571Y-60888714D01*
X131580809Y-60841095D01*
X131818904Y-60841095D01*
X131914142Y-60888714D01*
X131961761Y-60936333D01*
X132009380Y-61031571D01*
X132009380Y-61317285D01*
X131961761Y-61412523D01*
X131914142Y-61460142D01*
X136073380Y-62745857D02*
X135597190Y-63079190D01*
X136073380Y-63317285D02*
X135073380Y-63317285D01*
X135073380Y-62936333D01*
X135121000Y-62841095D01*
X135168619Y-62793476D01*
X135263857Y-62745857D01*
X135406714Y-62745857D01*
X135501952Y-62793476D01*
X135549571Y-62841095D01*
X135597190Y-62936333D01*
X135597190Y-63317285D01*
X135168619Y-62364904D02*
X135121000Y-62317285D01*
X135073380Y-62222047D01*
X135073380Y-61983952D01*
X135121000Y-61888714D01*
X135168619Y-61841095D01*
X135263857Y-61793476D01*
X135359095Y-61793476D01*
X135501952Y-61841095D01*
X136073380Y-62412523D01*
X136073380Y-61793476D01*
X135406714Y-60936333D02*
X136073380Y-60936333D01*
X135025761Y-61174428D02*
X135740047Y-61412523D01*
X135740047Y-60793476D01*
X178071542Y-66644780D02*
X177738209Y-66168590D01*
X177500114Y-66644780D02*
X177500114Y-65644780D01*
X177881066Y-65644780D01*
X177976304Y-65692400D01*
X178023923Y-65740019D01*
X178071542Y-65835257D01*
X178071542Y-65978114D01*
X178023923Y-66073352D01*
X177976304Y-66120971D01*
X177881066Y-66168590D01*
X177500114Y-66168590D01*
X178404876Y-65644780D02*
X179023923Y-65644780D01*
X178690590Y-66025733D01*
X178833447Y-66025733D01*
X178928685Y-66073352D01*
X178976304Y-66120971D01*
X179023923Y-66216209D01*
X179023923Y-66454304D01*
X178976304Y-66549542D01*
X178928685Y-66597161D01*
X178833447Y-66644780D01*
X178547733Y-66644780D01*
X178452495Y-66597161D01*
X178404876Y-66549542D01*
X179976304Y-66644780D02*
X179404876Y-66644780D01*
X179690590Y-66644780D02*
X179690590Y-65644780D01*
X179595352Y-65787638D01*
X179500114Y-65882876D01*
X179404876Y-65930495D01*
X177944542Y-71216780D02*
X177611209Y-70740590D01*
X177373114Y-71216780D02*
X177373114Y-70216780D01*
X177754066Y-70216780D01*
X177849304Y-70264400D01*
X177896923Y-70312019D01*
X177944542Y-70407257D01*
X177944542Y-70550114D01*
X177896923Y-70645352D01*
X177849304Y-70692971D01*
X177754066Y-70740590D01*
X177373114Y-70740590D01*
X178277876Y-70216780D02*
X178896923Y-70216780D01*
X178563590Y-70597733D01*
X178706447Y-70597733D01*
X178801685Y-70645352D01*
X178849304Y-70692971D01*
X178896923Y-70788209D01*
X178896923Y-71026304D01*
X178849304Y-71121542D01*
X178801685Y-71169161D01*
X178706447Y-71216780D01*
X178420733Y-71216780D01*
X178325495Y-71169161D01*
X178277876Y-71121542D01*
X179277876Y-70312019D02*
X179325495Y-70264400D01*
X179420733Y-70216780D01*
X179658828Y-70216780D01*
X179754066Y-70264400D01*
X179801685Y-70312019D01*
X179849304Y-70407257D01*
X179849304Y-70502495D01*
X179801685Y-70645352D01*
X179230257Y-71216780D01*
X179849304Y-71216780D01*
X178096942Y-75864980D02*
X177763609Y-75388790D01*
X177525514Y-75864980D02*
X177525514Y-74864980D01*
X177906466Y-74864980D01*
X178001704Y-74912600D01*
X178049323Y-74960219D01*
X178096942Y-75055457D01*
X178096942Y-75198314D01*
X178049323Y-75293552D01*
X178001704Y-75341171D01*
X177906466Y-75388790D01*
X177525514Y-75388790D01*
X178430276Y-74864980D02*
X179049323Y-74864980D01*
X178715990Y-75245933D01*
X178858847Y-75245933D01*
X178954085Y-75293552D01*
X179001704Y-75341171D01*
X179049323Y-75436409D01*
X179049323Y-75674504D01*
X179001704Y-75769742D01*
X178954085Y-75817361D01*
X178858847Y-75864980D01*
X178573133Y-75864980D01*
X178477895Y-75817361D01*
X178430276Y-75769742D01*
X179382657Y-74864980D02*
X180001704Y-74864980D01*
X179668371Y-75245933D01*
X179811228Y-75245933D01*
X179906466Y-75293552D01*
X179954085Y-75341171D01*
X180001704Y-75436409D01*
X180001704Y-75674504D01*
X179954085Y-75769742D01*
X179906466Y-75817361D01*
X179811228Y-75864980D01*
X179525514Y-75864980D01*
X179430276Y-75817361D01*
X179382657Y-75769742D01*
X178071542Y-80513180D02*
X177738209Y-80036990D01*
X177500114Y-80513180D02*
X177500114Y-79513180D01*
X177881066Y-79513180D01*
X177976304Y-79560800D01*
X178023923Y-79608419D01*
X178071542Y-79703657D01*
X178071542Y-79846514D01*
X178023923Y-79941752D01*
X177976304Y-79989371D01*
X177881066Y-80036990D01*
X177500114Y-80036990D01*
X178404876Y-79513180D02*
X179023923Y-79513180D01*
X178690590Y-79894133D01*
X178833447Y-79894133D01*
X178928685Y-79941752D01*
X178976304Y-79989371D01*
X179023923Y-80084609D01*
X179023923Y-80322704D01*
X178976304Y-80417942D01*
X178928685Y-80465561D01*
X178833447Y-80513180D01*
X178547733Y-80513180D01*
X178452495Y-80465561D01*
X178404876Y-80417942D01*
X179881066Y-79846514D02*
X179881066Y-80513180D01*
X179642971Y-79465561D02*
X179404876Y-80179847D01*
X180023923Y-80179847D01*
X177944542Y-85034380D02*
X177611209Y-84558190D01*
X177373114Y-85034380D02*
X177373114Y-84034380D01*
X177754066Y-84034380D01*
X177849304Y-84082000D01*
X177896923Y-84129619D01*
X177944542Y-84224857D01*
X177944542Y-84367714D01*
X177896923Y-84462952D01*
X177849304Y-84510571D01*
X177754066Y-84558190D01*
X177373114Y-84558190D01*
X178277876Y-84034380D02*
X178896923Y-84034380D01*
X178563590Y-84415333D01*
X178706447Y-84415333D01*
X178801685Y-84462952D01*
X178849304Y-84510571D01*
X178896923Y-84605809D01*
X178896923Y-84843904D01*
X178849304Y-84939142D01*
X178801685Y-84986761D01*
X178706447Y-85034380D01*
X178420733Y-85034380D01*
X178325495Y-84986761D01*
X178277876Y-84939142D01*
X179801685Y-84034380D02*
X179325495Y-84034380D01*
X179277876Y-84510571D01*
X179325495Y-84462952D01*
X179420733Y-84415333D01*
X179658828Y-84415333D01*
X179754066Y-84462952D01*
X179801685Y-84510571D01*
X179849304Y-84605809D01*
X179849304Y-84843904D01*
X179801685Y-84939142D01*
X179754066Y-84986761D01*
X179658828Y-85034380D01*
X179420733Y-85034380D01*
X179325495Y-84986761D01*
X179277876Y-84939142D01*
X177944542Y-89631780D02*
X177611209Y-89155590D01*
X177373114Y-89631780D02*
X177373114Y-88631780D01*
X177754066Y-88631780D01*
X177849304Y-88679400D01*
X177896923Y-88727019D01*
X177944542Y-88822257D01*
X177944542Y-88965114D01*
X177896923Y-89060352D01*
X177849304Y-89107971D01*
X177754066Y-89155590D01*
X177373114Y-89155590D01*
X178277876Y-88631780D02*
X178896923Y-88631780D01*
X178563590Y-89012733D01*
X178706447Y-89012733D01*
X178801685Y-89060352D01*
X178849304Y-89107971D01*
X178896923Y-89203209D01*
X178896923Y-89441304D01*
X178849304Y-89536542D01*
X178801685Y-89584161D01*
X178706447Y-89631780D01*
X178420733Y-89631780D01*
X178325495Y-89584161D01*
X178277876Y-89536542D01*
X179754066Y-88631780D02*
X179563590Y-88631780D01*
X179468352Y-88679400D01*
X179420733Y-88727019D01*
X179325495Y-88869876D01*
X179277876Y-89060352D01*
X179277876Y-89441304D01*
X179325495Y-89536542D01*
X179373114Y-89584161D01*
X179468352Y-89631780D01*
X179658828Y-89631780D01*
X179754066Y-89584161D01*
X179801685Y-89536542D01*
X179849304Y-89441304D01*
X179849304Y-89203209D01*
X179801685Y-89107971D01*
X179754066Y-89060352D01*
X179658828Y-89012733D01*
X179468352Y-89012733D01*
X179373114Y-89060352D01*
X179325495Y-89107971D01*
X179277876Y-89203209D01*
X114038142Y-92146380D02*
X113704809Y-91670190D01*
X113466714Y-92146380D02*
X113466714Y-91146380D01*
X113847666Y-91146380D01*
X113942904Y-91194000D01*
X113990523Y-91241619D01*
X114038142Y-91336857D01*
X114038142Y-91479714D01*
X113990523Y-91574952D01*
X113942904Y-91622571D01*
X113847666Y-91670190D01*
X113466714Y-91670190D01*
X114371476Y-91146380D02*
X114990523Y-91146380D01*
X114657190Y-91527333D01*
X114800047Y-91527333D01*
X114895285Y-91574952D01*
X114942904Y-91622571D01*
X114990523Y-91717809D01*
X114990523Y-91955904D01*
X114942904Y-92051142D01*
X114895285Y-92098761D01*
X114800047Y-92146380D01*
X114514333Y-92146380D01*
X114419095Y-92098761D01*
X114371476Y-92051142D01*
X115323857Y-91146380D02*
X115990523Y-91146380D01*
X115561952Y-92146380D01*
X113809542Y-104211380D02*
X113476209Y-103735190D01*
X113238114Y-104211380D02*
X113238114Y-103211380D01*
X113619066Y-103211380D01*
X113714304Y-103259000D01*
X113761923Y-103306619D01*
X113809542Y-103401857D01*
X113809542Y-103544714D01*
X113761923Y-103639952D01*
X113714304Y-103687571D01*
X113619066Y-103735190D01*
X113238114Y-103735190D01*
X114142876Y-103211380D02*
X114761923Y-103211380D01*
X114428590Y-103592333D01*
X114571447Y-103592333D01*
X114666685Y-103639952D01*
X114714304Y-103687571D01*
X114761923Y-103782809D01*
X114761923Y-104020904D01*
X114714304Y-104116142D01*
X114666685Y-104163761D01*
X114571447Y-104211380D01*
X114285733Y-104211380D01*
X114190495Y-104163761D01*
X114142876Y-104116142D01*
X115333352Y-103639952D02*
X115238114Y-103592333D01*
X115190495Y-103544714D01*
X115142876Y-103449476D01*
X115142876Y-103401857D01*
X115190495Y-103306619D01*
X115238114Y-103259000D01*
X115333352Y-103211380D01*
X115523828Y-103211380D01*
X115619066Y-103259000D01*
X115666685Y-103306619D01*
X115714304Y-103401857D01*
X115714304Y-103449476D01*
X115666685Y-103544714D01*
X115619066Y-103592333D01*
X115523828Y-103639952D01*
X115333352Y-103639952D01*
X115238114Y-103687571D01*
X115190495Y-103735190D01*
X115142876Y-103830428D01*
X115142876Y-104020904D01*
X115190495Y-104116142D01*
X115238114Y-104163761D01*
X115333352Y-104211380D01*
X115523828Y-104211380D01*
X115619066Y-104163761D01*
X115666685Y-104116142D01*
X115714304Y-104020904D01*
X115714304Y-103830428D01*
X115666685Y-103735190D01*
X115619066Y-103687571D01*
X115523828Y-103639952D01*
X140164380Y-62864904D02*
X140164380Y-62293476D01*
X141164380Y-62579190D02*
X140164380Y-62579190D01*
X141164380Y-61436333D02*
X141164380Y-62007761D01*
X141164380Y-61722047D02*
X140164380Y-61722047D01*
X140307238Y-61817285D01*
X140402476Y-61912523D01*
X140450095Y-62007761D01*
X147530380Y-62864904D02*
X147530380Y-62293476D01*
X148530380Y-62579190D02*
X147530380Y-62579190D01*
X147625619Y-62007761D02*
X147578000Y-61960142D01*
X147530380Y-61864904D01*
X147530380Y-61626809D01*
X147578000Y-61531571D01*
X147625619Y-61483952D01*
X147720857Y-61436333D01*
X147816095Y-61436333D01*
X147958952Y-61483952D01*
X148530380Y-62055380D01*
X148530380Y-61436333D01*
X141049476Y-57110380D02*
X141716142Y-58110380D01*
X141716142Y-57110380D02*
X141049476Y-58110380D01*
X142620904Y-58110380D02*
X142049476Y-58110380D01*
X142335190Y-58110380D02*
X142335190Y-57110380D01*
X142239952Y-57253238D01*
X142144714Y-57348476D01*
X142049476Y-57396095D01*
X139398476Y-124039380D02*
X140065142Y-125039380D01*
X140065142Y-124039380D02*
X139398476Y-125039380D01*
X140398476Y-124134619D02*
X140446095Y-124087000D01*
X140541333Y-124039380D01*
X140779428Y-124039380D01*
X140874666Y-124087000D01*
X140922285Y-124134619D01*
X140969904Y-124229857D01*
X140969904Y-124325095D01*
X140922285Y-124467952D01*
X140350857Y-125039380D01*
X140969904Y-125039380D01*
X100123666Y-115682780D02*
X100123666Y-116397066D01*
X100076047Y-116539923D01*
X99980809Y-116635161D01*
X99837952Y-116682780D01*
X99742714Y-116682780D01*
X100552238Y-115778019D02*
X100599857Y-115730400D01*
X100695095Y-115682780D01*
X100933190Y-115682780D01*
X101028428Y-115730400D01*
X101076047Y-115778019D01*
X101123666Y-115873257D01*
X101123666Y-115968495D01*
X101076047Y-116111352D01*
X100504619Y-116682780D01*
X101123666Y-116682780D01*
X105354380Y-72239095D02*
X104354380Y-72239095D01*
X104354380Y-72001000D01*
X104402000Y-71858142D01*
X104497238Y-71762904D01*
X104592476Y-71715285D01*
X104782952Y-71667666D01*
X104925809Y-71667666D01*
X105116285Y-71715285D01*
X105211523Y-71762904D01*
X105306761Y-71858142D01*
X105354380Y-72001000D01*
X105354380Y-72239095D01*
X105354380Y-70715285D02*
X105354380Y-71286714D01*
X105354380Y-71001000D02*
X104354380Y-71001000D01*
X104497238Y-71096238D01*
X104592476Y-71191476D01*
X104640095Y-71286714D01*
X105227380Y-85574095D02*
X104227380Y-85574095D01*
X104227380Y-85336000D01*
X104275000Y-85193142D01*
X104370238Y-85097904D01*
X104465476Y-85050285D01*
X104655952Y-85002666D01*
X104798809Y-85002666D01*
X104989285Y-85050285D01*
X105084523Y-85097904D01*
X105179761Y-85193142D01*
X105227380Y-85336000D01*
X105227380Y-85574095D01*
X104322619Y-84621714D02*
X104275000Y-84574095D01*
X104227380Y-84478857D01*
X104227380Y-84240761D01*
X104275000Y-84145523D01*
X104322619Y-84097904D01*
X104417857Y-84050285D01*
X104513095Y-84050285D01*
X104655952Y-84097904D01*
X105227380Y-84669333D01*
X105227380Y-84050285D01*
X102179380Y-85574095D02*
X101179380Y-85574095D01*
X101179380Y-85336000D01*
X101227000Y-85193142D01*
X101322238Y-85097904D01*
X101417476Y-85050285D01*
X101607952Y-85002666D01*
X101750809Y-85002666D01*
X101941285Y-85050285D01*
X102036523Y-85097904D01*
X102131761Y-85193142D01*
X102179380Y-85336000D01*
X102179380Y-85574095D01*
X101512714Y-84145523D02*
X102179380Y-84145523D01*
X101131761Y-84383619D02*
X101846047Y-84621714D01*
X101846047Y-84002666D01*
X149225333Y-122699142D02*
X149177714Y-122746761D01*
X149034857Y-122794380D01*
X148939619Y-122794380D01*
X148796761Y-122746761D01*
X148701523Y-122651523D01*
X148653904Y-122556285D01*
X148606285Y-122365809D01*
X148606285Y-122222952D01*
X148653904Y-122032476D01*
X148701523Y-121937238D01*
X148796761Y-121842000D01*
X148939619Y-121794380D01*
X149034857Y-121794380D01*
X149177714Y-121842000D01*
X149225333Y-121889619D01*
X149796761Y-122222952D02*
X149701523Y-122175333D01*
X149653904Y-122127714D01*
X149606285Y-122032476D01*
X149606285Y-121984857D01*
X149653904Y-121889619D01*
X149701523Y-121842000D01*
X149796761Y-121794380D01*
X149987238Y-121794380D01*
X150082476Y-121842000D01*
X150130095Y-121889619D01*
X150177714Y-121984857D01*
X150177714Y-122032476D01*
X150130095Y-122127714D01*
X150082476Y-122175333D01*
X149987238Y-122222952D01*
X149796761Y-122222952D01*
X149701523Y-122270571D01*
X149653904Y-122318190D01*
X149606285Y-122413428D01*
X149606285Y-122603904D01*
X149653904Y-122699142D01*
X149701523Y-122746761D01*
X149796761Y-122794380D01*
X149987238Y-122794380D01*
X150082476Y-122746761D01*
X150130095Y-122699142D01*
X150177714Y-122603904D01*
X150177714Y-122413428D01*
X150130095Y-122318190D01*
X150082476Y-122270571D01*
X149987238Y-122222952D01*
X115657333Y-122023142D02*
X115609714Y-122070761D01*
X115466857Y-122118380D01*
X115371619Y-122118380D01*
X115228761Y-122070761D01*
X115133523Y-121975523D01*
X115085904Y-121880285D01*
X115038285Y-121689809D01*
X115038285Y-121546952D01*
X115085904Y-121356476D01*
X115133523Y-121261238D01*
X115228761Y-121166000D01*
X115371619Y-121118380D01*
X115466857Y-121118380D01*
X115609714Y-121166000D01*
X115657333Y-121213619D01*
X116133523Y-122118380D02*
X116324000Y-122118380D01*
X116419238Y-122070761D01*
X116466857Y-122023142D01*
X116562095Y-121880285D01*
X116609714Y-121689809D01*
X116609714Y-121308857D01*
X116562095Y-121213619D01*
X116514476Y-121166000D01*
X116419238Y-121118380D01*
X116228761Y-121118380D01*
X116133523Y-121166000D01*
X116085904Y-121213619D01*
X116038285Y-121308857D01*
X116038285Y-121546952D01*
X116085904Y-121642190D01*
X116133523Y-121689809D01*
X116228761Y-121737428D01*
X116419238Y-121737428D01*
X116514476Y-121689809D01*
X116562095Y-121642190D01*
X116609714Y-121546952D01*
M02*
