; Drill file
; Format: 2.4 (00.0000)
M48
INCH
T01C0.0157
T02C0.0161
T03C0.0165
T04C0.0193
T05C0.0197
T06C0.0236
T07C0.0276
T08C0.0283
T09C0.0315
T10C0.0354
T11C0.0394
T12C0.0433
T13C0.0472
T14C0.0551
T15C0.0591
T16C0.1181
T17C0.122
%
G05
G90
T01
X015590Y003560
X018960Y005310
X021090Y004370
X022530Y012380
X028590Y010380
X031150Y009810
X032090Y009380
X031650Y008630
X030840Y005620
X036150Y007130
X039150Y007620
X042150Y007130
X045150Y005620
X045650Y004810
X046650Y005880
X046150Y006620
X051900Y003380
X054400Y006620
X057150Y010380
X058900Y009120
X059900Y010440
X062650Y007620
X063460Y008120
X063900Y008690
X065960Y006880
X065960Y006130
X065960Y005370
X066900Y006880
X067650Y006880
X068840Y007620
X069400Y008120
X070340Y007380
X071530Y008000
X072650Y007620
X073150Y008120
X073900Y008120
X075780Y008690
X075150Y010690
X073960Y010690
X073400Y011190
X072650Y010940
X068840Y009190
X067400Y009120
X066900Y009880
X066900Y011440
X066460Y012120
X063210Y013370
X062650Y015690
X062150Y016880
X063900Y018690
X065400Y019690
X066400Y019690
X067650Y019940
X068900Y018690
X070150Y018690
X070650Y019190
X071150Y019690
X070460Y019940
X069400Y021190
X069400Y021940
X069900Y024690
X071900Y023690
X071900Y025940
X071150Y027190
X073400Y025940
X073710Y026690
X075150Y027190
X076650Y025940
X078460Y025690
X079400Y025380
X078150Y023370
X078900Y022880
X078210Y022440
X078650Y021690
X080150Y021440
X076710Y020440
X075150Y020440
X074280Y019440
X073650Y019690
X072650Y019690
X072150Y020190
X072150Y020870
X072900Y020940
X071900Y018940
X068650Y017190
X074210Y015940
X075150Y015940
X075150Y014440
X077900Y014440
X079400Y013120
X079090Y012190
X078150Y010190
X080900Y009630
X081400Y008870
X081900Y007870
X081150Y007380
X080400Y008380
X081150Y004870
X081900Y004870
X084400Y006130
X083650Y010120
X082650Y012120
X082400Y013120
X083650Y013120
X084150Y013940
X084590Y012620
X084650Y015940
X083650Y017440
X081900Y016370
X082650Y015380
X081900Y014940
X079900Y015380
X079900Y016370
X079150Y017440
X085900Y020940
X086900Y021190
X087400Y023190
X085900Y023440
X088650Y025690
X087400Y028250
X090650Y029940
X089650Y032560
X087150Y032880
X088650Y035440
X089650Y035310
X091340Y035310
X092150Y035440
X092840Y036250
X093650Y037000
X093150Y037500
X092150Y037190
X091150Y036750
X087840Y036250
X087150Y036250
X086150Y036000
X084150Y034250
X083150Y032690
X083150Y030440
X077210Y031940
X076710Y032690
X075900Y032690
X075710Y035190
X076150Y035750
X074900Y036250
X073710Y037000
X072900Y036440
X071650Y035940
X070650Y035440
X070400Y036940
X069650Y037250
X071650Y038750
X072650Y038750
X072150Y039750
X072150Y042000
X071650Y043250
X072400Y044250
X070900Y044500
X071650Y045810
X072150Y048000
X073400Y048750
X074650Y049250
X075150Y049750
X075650Y050750
X074650Y051750
X073650Y052060
X076650Y052500
X078650Y052750
X080150Y053750
X081150Y054500
X081150Y055620
X080150Y055620
X079150Y055620
X078150Y055620
X077150Y055620
X076150Y055620
X075150Y055620
X074150Y055620
X073150Y055620
X072150Y055620
X071150Y055620
X070150Y055620
X069150Y055620
X068150Y055620
X067150Y055620
X066150Y055620
X065150Y055620
X064150Y055620
X063150Y055620
X062150Y055620
X061150Y055620
X060150Y055620
X057150Y055620
X056150Y055620
X055150Y055620
X054150Y055620
X055150Y053310
X055650Y052500
X055150Y050750
X056150Y050310
X057400Y051500
X058150Y051250
X059150Y052310
X060150Y049250
X061150Y047500
X062150Y046500
X063150Y047500
X064150Y049250
X066150Y048250
X066650Y050310
X066150Y051750
X065150Y052310
X067650Y052250
X069150Y053750
X070150Y052750
X076150Y054500
X077150Y050310
X078650Y050750
X079650Y050250
X079650Y049310
X080150Y051750
X083900Y052250
X085150Y050250
X087150Y050500
X088900Y049000
X087650Y045000
X087400Y043250
X088150Y043250
X088400Y042500
X088650Y040250
X090150Y040250
X092400Y040130
X093150Y041000
X091900Y042500
X091650Y043250
X092650Y043250
X091590Y044750
X091150Y045250
X095650Y043250
X097400Y042500
X097650Y043250
X099650Y043500
X102150Y043000
X101650Y040500
X099900Y040000
X097900Y040000
X095650Y040000
X095900Y037750
X095150Y037500
X094400Y037750
X098590Y037750
X099650Y037000
X099150Y034250
X098400Y032750
X097150Y032750
X097150Y031190
X095340Y029440
X095340Y025690
X091650Y022690
X090650Y022690
X089650Y021190
X089150Y019940
X090150Y019690
X091150Y017940
X091900Y017690
X092900Y018190
X093650Y018440
X093400Y017440
X094150Y019440
X092150Y019440
X091650Y015940
X090650Y013940
X089590Y013940
X088650Y014190
X087650Y017120
X091150Y010380
X089650Y007130
X096650Y004870
X096400Y003120
X098900Y003880
X099150Y007380
X100650Y009630
X101650Y009880
X102650Y010120
X103650Y010380
X103650Y008690
X101150Y011190
X100150Y013440
X098650Y013440
X098650Y010690
X098650Y016940
X095900Y016940
X096150Y020940
X098900Y021690
X099650Y021690
X099150Y020690
X102460Y019190
X103650Y016690
X106650Y016370
X107340Y019190
X108590Y022940
X109400Y023440
X109900Y024190
X111900Y024130
X114150Y022940
X116150Y022190
X115150Y019940
X119400Y018690
X122840Y017000
X119150Y022940
X120650Y026690
X121150Y031250
X120400Y032690
X121150Y033250
X119900Y034250
X119340Y033500
X114150Y036250
X113150Y037000
X112650Y040500
X111650Y041500
X112150Y043000
X108650Y042500
X107150Y043000
X106400Y042250
X107650Y041000
X103650Y040000
X103150Y036940
X105900Y035750
X106150Y030440
X104650Y029940
X103650Y026440
X100650Y024940
X108710Y027750
X110150Y027250
X111340Y027690
X111840Y028440
X110340Y029000
X110650Y030190
X108900Y030940
X112650Y032750
X114150Y029750
X117650Y039750
X116650Y040250
X120650Y042000
X126710Y037260
X126210Y036250
X125710Y035260
X126210Y034260
X126710Y033250
X127710Y038250
X128710Y039250
X129710Y040260
X130710Y041260
X128960Y041750
X132710Y043250
X133710Y044260
X134710Y045250
X136710Y047250
X131710Y044750
X128210Y052810
X127210Y053310
X127210Y055620
X126210Y055620
X125210Y055620
X124210Y055620
X123210Y055620
X122210Y055620
X122710Y053060
X123460Y053310
X123210Y052060
X122210Y052060
X122210Y051060
X123960Y051060
X118460Y049560
X115150Y049560
X116150Y052060
X115650Y052810
X111090Y048560
X112150Y046750
X106460Y050060
X105650Y057500
X108090Y057560
X097840Y052060
X095650Y052060
X095710Y049440
X094400Y049250
X099150Y046750
X086150Y043250
X084650Y043000
X085400Y044750
X083900Y046250
X082400Y046750
X081900Y045750
X079900Y045250
X078900Y045250
X078190Y045470
X076650Y045750
X076460Y047000
X075650Y047000
X073900Y047000
X073900Y043750
X074150Y042750
X075710Y040250
X076710Y039500
X078400Y039750
X080460Y040000
X081400Y042250
X080650Y043000
X079710Y043500
X078400Y042750
X081460Y037750
X077650Y035750
X069150Y033250
X067650Y033250
X068150Y034940
X067150Y036440
X066150Y037250
X065150Y036750
X064150Y037250
X063150Y035940
X063150Y034940
X061650Y036190
X061650Y037250
X060150Y036750
X059900Y035690
X059150Y035440
X058400Y035440
X057150Y035250
X056650Y035690
X055650Y036000
X053650Y037000
X051650Y035440
X054210Y032440
X053650Y031690
X052900Y031190
X053650Y029440
X051900Y029440
X054150Y026440
X055460Y026690
X056650Y026690
X055650Y028940
X057650Y029190
X057400Y031190
X056150Y032440
X055400Y031940
X059460Y032750
X060150Y029190
X061150Y028940
X062650Y029690
X063650Y029440
X065400Y028250
X066900Y026940
X067900Y027190
X068150Y026190
X066840Y025690
X065400Y025690
X063400Y024190
X062650Y023690
X061650Y023190
X060150Y024940
X059400Y025440
X058900Y024690
X060650Y020940
X061150Y020440
X061650Y019940
X055650Y019940
X051650Y019940
X050650Y022440
X046150Y016690
X045150Y016370
X045650Y014690
X046900Y015690
X047650Y015190
X051150Y013370
X051400Y012620
X054150Y012120
X055150Y012620
X054150Y015690
X059400Y005370
X060400Y005060
X059900Y003620
X062150Y004380
X073900Y004870
X074900Y004690
X075650Y004380
X067900Y030190
X066900Y029940
X065900Y030190
X069900Y031190
X069650Y040250
X068650Y041750
X067150Y043250
X067150Y044000
X066150Y042250
X065150Y042250
X064150Y042250
X062960Y041750
X062150Y041750
X061650Y042250
X060150Y041750
X059150Y041750
X058150Y040250
X056650Y039750
X055650Y040250
X054150Y042750
X053150Y042750
X053150Y041750
X052650Y040250
X051150Y043250
X050900Y045500
X055650Y046500
X056650Y047000
X058650Y047000
X057650Y043250
X060150Y043250
X059150Y037250
X057650Y037000
X065650Y040250
X066150Y045810
X069150Y046250
X082400Y048000
X084900Y047500
X082150Y055620
X087150Y058500
X087840Y058000
X088650Y057500
X054150Y049750
X052650Y052500
X051650Y053310
X023530Y052810
X017780Y021380
X016530Y015440
X013530Y013630
X011650Y013560
X011650Y015620
X027400Y020380
X036400Y022190
X037650Y022690
X037650Y023440
X038650Y018940
X037900Y018370
X036900Y016370
X035900Y014130
X105650Y013440
X107650Y011190
X109090Y007940
X122650Y008440
X145340Y003620
X149780Y003620
X150340Y004120
X150840Y004560
X151340Y005120
X151840Y005620
X152340Y006130
X152840Y006620
X155840Y008120
X156340Y007620
X156840Y007130
X158840Y009630
X158340Y010060
X157840Y010560
X157340Y011060
X155340Y012120
X154840Y011690
X154340Y011190
X153840Y010690
X153340Y012880
X159340Y009120
X159840Y008630
X160840Y005250
X160350Y003500
X146840Y021940
X147340Y022690
X146840Y055620
X145840Y055620
X144840Y055620
X149780Y055620
X150840Y055620
X151840Y055620
X152840Y055620
X153840Y055620
X154840Y055620
X155840Y055620
X156840Y055620
X157840Y055620
X158840Y055620
X159840Y055620
X160840Y055620
X138210Y055620
X137210Y055620
X134210Y055620
X133210Y055620
X132210Y055620
X131210Y055620
X130210Y055620
X129210Y055620
X128210Y055620
T02
X068090Y009630
X070650Y011630
X071650Y012690
X079650Y009630
X080650Y011630
X080400Y012690
X083400Y045250
X083400Y048250
X082960Y048750
X090400Y045250
X092150Y056310
X089400Y057000
X105650Y053310
X105650Y039750
X104650Y039750
T03
X013960Y004060
X016530Y018870
X035400Y019690
X033900Y007870
X051150Y007620
X050900Y002810
X052650Y002810
X061150Y003880
X061650Y005370
X070900Y005620
X071960Y004120
X078400Y013120
X083150Y013690
X083150Y016370
X094590Y015940
X097900Y017620
X102150Y015940
X103150Y019190
X106150Y019190
X105650Y016370
X105650Y010690
X097900Y009120
X097900Y008190
X097900Y004380
X097650Y003120
X098400Y002870
X102150Y003380
X115150Y010690
X115650Y014880
X114650Y015690
X113650Y016190
X113340Y019190
X117150Y022190
X117900Y021690
X120900Y022190
X117150Y030000
X118650Y035250
X113150Y035250
X106400Y041500
X100150Y048250
X097650Y035500
X100150Y031250
X098900Y030190
X098900Y025690
X092710Y025560
X090650Y025560
X084400Y030190
X086400Y044750
X086150Y049500
X084400Y051250
X074150Y051250
X065150Y051250
X050900Y041940
X050900Y035000
X048900Y034750
X052150Y032750
X051150Y026440
X047900Y027690
X050900Y018940
X061150Y019190
X061650Y018440
X061650Y032440
X112650Y025690
X125400Y013370
X123650Y008940
X119150Y008190
X118150Y007690
X145840Y021250
X146340Y020620
T04
X018030Y002810
X050150Y003060
X071400Y015120
X074090Y015120
X074590Y015120
X052840Y054810
X052150Y054810
X051460Y054810
T05
X017030Y007060
X017030Y007560
X017530Y020130
X018280Y024940
X019280Y031000
X019780Y031500
X043400Y041250
X045150Y041250
X050150Y034250
X050150Y029250
X050150Y028750
X064150Y027440
X064650Y027440
X064900Y030440
X064150Y030440
X061900Y041000
X061150Y041000
X084650Y023690
X089650Y026440
X098900Y039000
X100650Y041000
X100650Y041750
X109650Y039000
X119650Y039000
X121460Y039000
X120150Y047810
X119400Y047810
X098900Y055500
X111900Y026440
X120210Y024940
X044150Y008630
X044150Y007620
T06
X024610Y028740
X024610Y030740
X030860Y037420
X030860Y039420
T07
X004810Y006530
X005880Y006530
X006940Y006530
X008380Y005590
X009380Y005590
X010380Y005590
X011440Y005590
X012440Y005590
X013500Y005590
X014500Y005590
X015560Y005590
X015560Y009590
X014500Y009590
X013500Y009590
X012440Y009590
X011440Y009590
X010380Y009590
X009380Y009590
X008380Y009590
X006940Y010530
X005880Y010530
X004810Y010530
X005880Y011590
X006940Y011590
X007900Y011630
X007900Y012620
X007900Y013630
X007900Y014620
X008900Y014690
X008900Y015690
X010470Y015120
X010470Y014120
X010470Y012610
X010470Y011610
X008920Y011610
X008920Y013610
X006940Y015590
X005880Y015590
X007400Y021190
X007380Y022220
X008440Y022220
X009440Y022220
X009400Y021190
X011440Y021970
X012500Y021970
X013500Y021970
X014500Y021970
X016810Y021970
X020030Y020340
X020030Y018440
X022050Y016610
X021030Y015620
X021030Y014630
X020030Y014630
X020030Y015620
X019030Y015620
X019030Y014630
X018990Y013610
X020050Y013610
X021050Y013610
X022050Y013610
X022050Y014610
X023130Y015660
X024060Y015660
X025060Y015660
X026060Y015660
X027060Y015660
X028130Y015660
X029130Y015660
X030130Y015660
X031130Y015660
X032120Y015650
X032120Y014650
X032110Y013670
X033170Y013670
X034150Y014180
X034900Y014930
X034150Y015680
X035050Y012710
X035050Y011710
X036620Y011710
X036620Y012710
X038120Y012710
X038120Y011710
X039640Y011710
X039640Y012710
X039690Y014160
X040690Y014160
X041630Y014160
X042630Y014160
X043690Y014160
X042680Y012710
X042680Y011710
X041180Y011710
X041180Y012710
X040690Y009590
X039690Y009590
X038630Y009590
X037630Y009590
X036630Y009590
X035630Y009590
X034630Y009590
X033130Y009590
X033170Y011670
X032110Y011670
X031130Y011660
X030130Y011660
X029130Y011660
X028130Y011660
X027060Y011660
X026060Y011660
X025060Y011660
X024060Y011660
X023130Y011660
X022050Y011610
X021050Y011610
X020050Y011610
X018990Y011610
X016990Y011610
X016990Y013610
X024070Y009860
X026070Y009860
X033130Y005590
X034630Y005590
X035630Y005590
X036630Y005590
X037630Y005590
X038630Y005590
X039690Y005590
X040690Y005590
X041690Y005590
X042690Y005590
X042690Y009590
X041690Y009590
X037900Y015620
X038650Y016370
X037900Y017120
X039690Y018160
X040690Y018160
X041630Y018160
X042630Y018160
X043690Y018160
X042900Y020690
X042150Y021440
X040900Y021440
X040150Y020690
X039400Y021440
X040150Y022690
X039400Y023440
X040900Y023440
X042460Y023190
X043460Y023190
X043650Y021440
X046680Y022710
X047680Y022710
X048680Y022710
X048680Y026710
X047680Y026710
X046680Y026710
X049420Y037990
X049420Y039990
X042150Y051000
X041150Y051000
X075130Y045240
X075130Y044240
X076150Y044250
X077190Y044220
X078190Y044220
X079150Y044250
X080150Y044250
X081190Y044220
X081170Y041240
X081170Y039240
X081180Y033690
X081180Y031690
X088900Y029190
X089900Y029190
X096180Y031690
X096180Y033690
X096170Y039240
X096170Y041240
X107710Y046750
X108590Y046750
X109650Y046750
X109650Y050750
X108590Y050750
X107710Y050750
X108620Y026760
X108620Y024760
X108620Y020130
X108620Y018130
X112670Y015620
X112670Y014620
X116670Y014620
X116670Y015620
X117940Y015610
X117940Y014610
X123630Y014220
X124670Y014200
X124670Y018200
X123630Y018220
X122960Y019440
X124870Y019440
X117650Y024130
X117650Y027440
X113650Y027440
X113650Y024130
X102150Y022630
X101150Y022630
X094650Y022690
X094650Y021440
X092650Y021440
X091670Y021430
X092650Y022690
X087670Y021430
X083150Y021440
X082150Y021440
X085680Y014440
X085680Y012440
X085690Y010170
X085690Y009170
X085680Y008070
X085680Y006070
X056170Y011430
X052170Y011430
X016810Y025970
X014500Y025970
X013500Y025970
X012500Y025970
X011440Y025970
X009440Y026220
X008440Y026220
X007380Y026220
X076150Y048250
X077190Y048220
X078190Y048220
X079150Y048250
X080150Y048250
X081190Y048220
T08
X012460Y011630
X013460Y011630
X014460Y011630
X015460Y011630
X015460Y014620
X014460Y014620
X013460Y014620
X012460Y014620
X012460Y017120
X011460Y017120
X010460Y017120
X009460Y017120
X008460Y017120
X007460Y017120
X006460Y017120
X006460Y020130
X007460Y020130
X008460Y020130
X009460Y020130
X010460Y020130
X011460Y020130
X012460Y020130
X013460Y020130
X013460Y017120
X020090Y008630
X021090Y008630
X022090Y008630
X023090Y008630
X024090Y008630
X025090Y008630
X026090Y008630
X027090Y008630
X028090Y008630
X029090Y008630
X029090Y005620
X028090Y005620
X027090Y005620
X026090Y005620
X025090Y005620
X024090Y005620
X023090Y005620
X022090Y005620
X021090Y005620
X020090Y005620
X051150Y005620
X052150Y005620
X053150Y005620
X054150Y005620
X055150Y005620
X056150Y005620
X057150Y005620
X057150Y008630
X056150Y008630
X055150Y008630
X054150Y008630
X053150Y008630
X052150Y008630
X051150Y008630
X051150Y014690
X052150Y014690
X053150Y014690
X054150Y014690
X055150Y014690
X056150Y014690
X057150Y014690
X057150Y017690
X056150Y017690
X055150Y017690
X054150Y017690
X053150Y017690
X052150Y017690
X051150Y017690
X051150Y028250
X052150Y028250
X053150Y028250
X054150Y028250
X055150Y028250
X056150Y028250
X057150Y028250
X058150Y028250
X059150Y028250
X060150Y028250
X061150Y028250
X062150Y028250
X063150Y028250
X064150Y028250
X064150Y034250
X063150Y034250
X062150Y034250
X061150Y034250
X060150Y034250
X059150Y034250
X058150Y034250
X057150Y034250
X056150Y034250
X055150Y034250
X054150Y034250
X053150Y034250
X052150Y034250
X051150Y034250
X051150Y038750
X052150Y038750
X053150Y038750
X054150Y038750
X055150Y038750
X056150Y038750
X057150Y038750
X058150Y038750
X059150Y038750
X060150Y038750
X061150Y038750
X062150Y038750
X063150Y038750
X064150Y038750
X065150Y038750
X066150Y038750
X067150Y038750
X068150Y038750
X069150Y038750
X070150Y038750
X073710Y038750
X074710Y038750
X075710Y038750
X076710Y038750
X077710Y038750
X078710Y038750
X079710Y038750
X079710Y041750
X078710Y041750
X077710Y041750
X076710Y041750
X075710Y041750
X074710Y041750
X073710Y041750
X070150Y044750
X069150Y044750
X068150Y044750
X067150Y044750
X066150Y044750
X065150Y044750
X064150Y044750
X063150Y044750
X062150Y044750
X061150Y044750
X060150Y044750
X059150Y044750
X058150Y044750
X057150Y044750
X056150Y044750
X055150Y044750
X054150Y044750
X053150Y044750
X052150Y044750
X051150Y044750
X070710Y034250
X071710Y034250
X072710Y034250
X073710Y034250
X074710Y034250
X075710Y034250
X076710Y034250
X077710Y034250
X078710Y034250
X079710Y034250
X079710Y031250
X078710Y031250
X077710Y031250
X076710Y031250
X075710Y031250
X074710Y031250
X073710Y031250
X072710Y031250
X071710Y031250
X070710Y031250
X085650Y031250
X086650Y031250
X087650Y031250
X088650Y031250
X089650Y031250
X090650Y031250
X091650Y031250
X092650Y031250
X093650Y031250
X094650Y031250
X094650Y034250
X093650Y034250
X092650Y034250
X091650Y034250
X090650Y034250
X089650Y034250
X088650Y034250
X087650Y034250
X086650Y034250
X085650Y034250
X085650Y038750
X086650Y038750
X087650Y038750
X088650Y038750
X089650Y038750
X090650Y038750
X091650Y038750
X092650Y038750
X093650Y038750
X094650Y038750
X094650Y041750
X093650Y041750
X092650Y041750
X091650Y041750
X090650Y041750
X089650Y041750
X088650Y041750
X087650Y041750
X086650Y041750
X085650Y041750
X087650Y027190
X088650Y027190
X089650Y027190
X090650Y027190
X091650Y027190
X092650Y027190
X093650Y027190
X094650Y027190
X094650Y024190
X093650Y024190
X092650Y024190
X091650Y024190
X090650Y024190
X089650Y024190
X088650Y024190
X087650Y024190
X088150Y014940
X089150Y014940
X090150Y014940
X091150Y014940
X092150Y014940
X093150Y014940
X094150Y014940
X095150Y014940
X095150Y011940
X094150Y011940
X093150Y011940
X092150Y011940
X091150Y011940
X090150Y011940
X089150Y011940
X088150Y011940
X087150Y011940
X087150Y014940
X087150Y008630
X088150Y008630
X089150Y008630
X090150Y008630
X091150Y008630
X092150Y008630
X093150Y008630
X094150Y008630
X095150Y008630
X095150Y005620
X094150Y005620
X093150Y005620
X092150Y005620
X091150Y005620
X090150Y005620
X089150Y005620
X088150Y005620
X087150Y005620
X100650Y006130
X101650Y006130
X102650Y006130
X103650Y006130
X104650Y006130
X105650Y006130
X106650Y006130
X107650Y006130
X108650Y006130
X109650Y006130
X110650Y006130
X111650Y006130
X112650Y006130
X113650Y006130
X114650Y006130
X115650Y006130
X116650Y006130
X117650Y006130
X118650Y006130
X119650Y006130
X119650Y012120
X118650Y012120
X117650Y012120
X116650Y012120
X115650Y012120
X114650Y012120
X113650Y012120
X112650Y012120
X111650Y012120
X110650Y012120
X109650Y012120
X108650Y012120
X107650Y012120
X106650Y012120
X105650Y012120
X104650Y012120
X103650Y012120
X102650Y012120
X101650Y012120
X100650Y012120
X101150Y017620
X102150Y017620
X103150Y017620
X104150Y017620
X105150Y017620
X106150Y017620
X107150Y017620
X107150Y020620
X106150Y020620
X105150Y020620
X104150Y020620
X103150Y020620
X102150Y020620
X101150Y020620
X101150Y024190
X102150Y024190
X103150Y024190
X104150Y024190
X105150Y024190
X106150Y024190
X107150Y024190
X107150Y027190
X106150Y027190
X105150Y027190
X104150Y027190
X103150Y027190
X102150Y027190
X101150Y027190
X101150Y031250
X102150Y031250
X103150Y031250
X104150Y031250
X105150Y031250
X106150Y031250
X107150Y031250
X107150Y034250
X106150Y034250
X105150Y034250
X104150Y034250
X103150Y034250
X102150Y034250
X101150Y034250
X100650Y038250
X101650Y038250
X102650Y038250
X103650Y038250
X104650Y038250
X105650Y038250
X106650Y038250
X107650Y038250
X108650Y038250
X109650Y038250
X110650Y038250
X111650Y038250
X112650Y038250
X113650Y038250
X114650Y038250
X115650Y038250
X116650Y038250
X117650Y038250
X118650Y038250
X119650Y038250
X118650Y034190
X117650Y034190
X116650Y034190
X115650Y034190
X114650Y034190
X113650Y034190
X112650Y034190
X112650Y031190
X113650Y031190
X114650Y031190
X115650Y031190
X116650Y031190
X117650Y031190
X118650Y031190
X118650Y020620
X117650Y020620
X116650Y020620
X115650Y020620
X114650Y020620
X113650Y020620
X112650Y020620
X112650Y017620
X113650Y017620
X114650Y017620
X115650Y017620
X116650Y017620
X117650Y017620
X118650Y017620
X118650Y044250
X119650Y044250
X117650Y044250
X116650Y044250
X115650Y044250
X114650Y044250
X113650Y044250
X112650Y044250
X111650Y044250
X110650Y044250
X109650Y044250
X108650Y044250
X107650Y044250
X106650Y044250
X105650Y044250
X104650Y044250
X103650Y044250
X102650Y044250
X101650Y044250
X100650Y044250
T09
X003870Y022400
X003870Y024400
X005870Y024400
X005870Y022400
X009960Y034250
X023590Y021690
X023650Y017120
X045650Y023940
X051150Y023190
X052150Y023190
X053150Y023190
X054150Y023190
X055150Y023190
X056150Y023190
X057150Y023190
X058150Y023190
X058150Y025440
X057150Y025440
X056150Y025440
X055150Y025440
X054150Y025440
X053150Y025440
X052150Y025440
X051150Y025440
X049150Y029940
X049150Y030940
X049150Y031940
X048360Y037990
X048360Y038990
X042150Y035250
X030850Y045320
X030850Y046320
X064650Y016130
X064650Y015120
X096390Y018720
X096390Y019720
X096390Y025200
X096390Y026200
X100650Y014940
X101650Y014940
X102650Y014940
X103650Y014940
X104650Y014940
X105650Y014940
X106650Y014940
X107650Y014940
X121620Y016940
X121620Y017940
X121590Y022940
X126210Y022940
X120650Y028940
X119650Y028940
X118650Y028940
X117650Y028940
X116650Y028940
X115650Y028940
X114650Y028940
X113650Y028940
X116650Y025950
X117650Y025950
X108890Y032220
X108890Y033220
X106650Y046720
X105650Y046720
X104650Y046720
X103650Y046720
X102650Y046720
X101650Y046720
X101650Y047810
X102650Y047810
X103650Y047810
X104650Y047810
X105650Y047810
X100190Y050280
X099190Y050280
X098190Y050280
X097190Y050280
X096190Y050280
X095190Y050280
X096210Y051310
X097210Y051310
X098210Y051310
X099210Y051310
X100210Y051310
X097650Y045310
X096650Y045310
X095650Y045310
X094650Y045310
X093650Y045310
X093650Y044280
X094650Y044280
X095650Y044280
X096650Y044280
X097650Y044280
X098650Y044280
X092150Y044250
X088150Y044250
X088650Y050280
X089650Y050280
X090650Y050280
X091650Y050280
X092650Y050280
X093650Y050280
X092650Y051310
X091650Y051310
X090650Y051310
X089650Y051310
X088650Y051310
X086430Y052140
X086430Y056140
X120130Y055130
X120130Y054120
X163530Y056420
X164530Y056420
T10
X041380Y029720
X042380Y029720
X043380Y029720
X044380Y029720
X044380Y031720
X043380Y031720
X042380Y031720
X041380Y031720
T11
X003850Y028230
X003850Y030230
X008910Y030230
X008910Y028230
X022120Y028770
X022120Y030770
X034650Y030250
X035650Y030250
X036650Y030250
X043400Y028440
X043150Y033190
X046150Y033190
X036570Y050710
X035570Y050710
X034570Y050710
X086150Y047750
X086150Y046750
X087150Y046750
X087150Y047750
X088150Y047750
X088150Y046750
X089150Y046750
X089150Y047750
X090150Y047750
X090150Y046750
X091150Y046750
X091150Y047750
X092150Y047750
X092150Y046750
X093150Y046750
X093150Y047750
X094150Y047750
X094150Y046750
X095150Y046750
X095150Y047750
X096150Y047750
X096150Y046750
X097150Y046750
X097150Y047750
X098150Y047750
X098150Y046750
X097820Y054460
X096740Y054460
X095670Y054460
X094560Y054460
X093470Y054460
X093940Y055530
X095030Y055520
X096120Y055530
X097220Y055530
X106530Y054460
X107620Y054460
X108730Y054460
X109800Y054460
X110890Y054460
X110280Y055530
X109180Y055530
X108090Y055520
X107010Y055530
X122450Y048260
X123450Y048260
X123450Y047260
X123450Y046260
X123450Y045260
X123450Y044260
X123450Y043260
X122450Y043260
X122450Y044260
X122450Y045260
X122450Y046260
X122450Y047260
X122450Y042260
X123450Y042260
X123450Y041260
X122450Y041260
X122450Y040260
X123450Y040260
X123450Y039260
X122450Y039260
X122450Y038260
X123450Y038260
X123450Y037260
X122450Y037260
X122450Y036260
X122450Y035260
X123450Y035260
X123450Y036260
X123450Y034260
X122450Y034260
X122450Y033260
X122450Y032260
X123450Y032260
X123450Y033260
T12
X029650Y031000
X031650Y031000
T13
X020840Y022440
X020840Y027000
X017780Y027690
X013710Y027690
X015780Y031690
X015280Y054630
X016780Y054630
X018280Y054630
X019780Y054630
X021280Y054630
X022780Y054630
X024280Y054630
X025780Y054630
X027280Y054560
X028780Y054560
X030280Y054560
X029530Y056560
X028030Y056560
X026530Y056620
X025030Y056620
X023530Y056620
X022030Y056620
X020530Y056620
X019030Y056620
X017530Y056620
X016030Y056620
X034090Y054630
X035090Y053620
X037090Y054630
X039090Y053620
X040090Y054630
X039090Y058310
X035090Y058310
X043400Y027060
X037900Y020380
X034900Y017380
X162460Y054120
X164280Y054120
T14
X002530Y012120
X002530Y014130
X002530Y018690
X002530Y020690
X001710Y037810
X001710Y039810
X001710Y044380
X001710Y046380
X000710Y050810
X010650Y052060
X011400Y048060
X013400Y048060
X021340Y048060
X023280Y048060
X021340Y037000
X023280Y035750
X015460Y037000
X011460Y035750
T15
X044150Y052870
X045900Y054560
X047650Y052870
T16
X090740Y055010
X103800Y055010
T17
X100580Y055010
X113640Y055010
M30
