%FSLAX34Y34*%
%MOMM*%
%LNOUTLINE*%
G71*
G01*
%ADD10C,0.200*%
%LPD*%
G54D10*
G75*
G01X12Y1379985D02*
G03X12Y1436239I18196J28127D01*
G01*
G54D10*
G75*
G01X62327Y1509686D02*
G03X129523Y1509686I33598J-14262D01*
G01*
G54D10*
G75*
G01X3262987Y187325D02*
G03X3262987Y187325I-15875J0D01*
G01*
G36*
G75*
G01X3262987Y187325D02*
G03X3262987Y187325I-15875J0D01*
G01*
G37*
X3262987Y187325D01*
G54D10*
G75*
G01X3264575Y887412D02*
G03X3264575Y887412I-15875J0D01*
G01*
G36*
G75*
G01X3264575Y887412D02*
G03X3264575Y887412I-15875J0D01*
G01*
G37*
X3264575Y887412D01*
G54D10*
G75*
G01X4202312Y887412D02*
G03X4202312Y887412I-15875J0D01*
G01*
G36*
G75*
G01X4202312Y887412D02*
G03X4202312Y887412I-15875J0D01*
G01*
G37*
X4202312Y887412D01*
G54D10*
G75*
G01X4201725Y187325D02*
G03X4201725Y187325I-15875J0D01*
G01*
G36*
G75*
G01X4201725Y187325D02*
G03X4201725Y187325I-15875J0D01*
G01*
G37*
X4201725Y187325D01*
G54D10*
G75*
G01X3123287Y117475D02*
G03X3123287Y117475I-15875J0D01*
G01*
G36*
G75*
G01X3123287Y117475D02*
G03X3123287Y117475I-15875J0D01*
G01*
G37*
X3123287Y117475D01*
G54D10*
G75*
G01X135613Y117475D02*
G03X135613Y117475I-15875J0D01*
G01*
G36*
G75*
G01X135613Y117475D02*
G03X135613Y117475I-15875J0D01*
G01*
G37*
X135613Y117475D01*
G54D10*
G75*
G01X921424Y952501D02*
G03X921424Y952501I-15875J0D01*
G01*
G36*
G75*
G01X921424Y952501D02*
G03X921424Y952501I-15875J0D01*
G01*
G37*
X921424Y952501D01*
G54D10*
G75*
G01X921424Y1103313D02*
G03X921424Y1103313I-15875J0D01*
G01*
G36*
G75*
G01X921424Y1103313D02*
G03X921424Y1103313I-15875J0D01*
G01*
G37*
X921424Y1103313D01*
G54D10*
G75*
G01X1103987Y1373188D02*
G03X1103987Y1373188I-15875J0D01*
G01*
G36*
G75*
G01X1103987Y1373188D02*
G03X1103987Y1373188I-15875J0D01*
G01*
G37*
X1103987Y1373188D01*
G54D10*
G75*
G01X1256387Y1373188D02*
G03X1256387Y1373188I-15875J0D01*
G01*
G36*
G75*
G01X1256387Y1373188D02*
G03X1256387Y1373188I-15875J0D01*
G01*
G37*
X1256387Y1373188D01*
G54D10*
G75*
G01X3201074Y742274D02*
G03X3201074Y742274I-39686J0D01*
G01*
G36*
G75*
G01X3201074Y742274D02*
G03X3201074Y742274I-39686J0D01*
G01*
G37*
X3201074Y742274D01*
G54D10*
G75*
G01X2150148Y658812D02*
G03X2150148Y658812I-39686J0D01*
G01*
G36*
G75*
G01X2150148Y658812D02*
G03X2150148Y658812I-39686J0D01*
G01*
G37*
X2150148Y658812D01*
G54D10*
G75*
G01X1083586Y660400D02*
G03X1083586Y660400I-39686J0D01*
G01*
G36*
G75*
G01X1083586Y660400D02*
G03X1083586Y660400I-39686J0D01*
G01*
G37*
X1083586Y660400D01*
G54D10*
G75*
G01X203874Y1406525D02*
G03X203874Y1406525I-36512J0D01*
G01*
G36*
G75*
G01X203874Y1406525D02*
G03X203874Y1406525I-36512J0D01*
G01*
G37*
X203874Y1406525D01*
G54D10*
G75*
G01X194350Y1079500D02*
G03X194350Y1079500I-22225J0D01*
G01*
G36*
G75*
G01X194350Y1079500D02*
G03X194350Y1079500I-22225J0D01*
G01*
G37*
X194350Y1079500D01*
G54D10*
G75*
G01X132437Y874713D02*
G03X132437Y874713I-22225J0D01*
G01*
G36*
G75*
G01X132437Y874713D02*
G03X132437Y874713I-22225J0D01*
G01*
G37*
X132437Y874713D01*
G54D10*
G75*
G01X805538Y619125D02*
G03X805538Y619125I-22225J0D01*
G01*
G36*
G75*
G01X805538Y619125D02*
G03X805538Y619125I-22225J0D01*
G01*
G37*
X805538Y619125D01*
G54D10*
G75*
G01X794425Y874713D02*
G03X794425Y874713I-22225J0D01*
G01*
G36*
G75*
G01X794425Y874713D02*
G03X794425Y874713I-22225J0D01*
G01*
G37*
X794425Y874713D01*
G54D10*
G75*
G01X794425Y1079500D02*
G03X794425Y1079500I-22225J0D01*
G01*
G36*
G75*
G01X794425Y1079500D02*
G03X794425Y1079500I-22225J0D01*
G01*
G37*
X794425Y1079500D01*
G54D10*
G75*
G01X794425Y1252538D02*
G03X794425Y1252538I-22225J0D01*
G01*
G36*
G75*
G01X794425Y1252538D02*
G03X794425Y1252538I-22225J0D01*
G01*
G37*
X794425Y1252538D01*
G54D10*
X0Y0D02*
X0Y1379131D01*
X-16Y1380114D01*
G54D10*
X0Y1468438D02*
X16550Y1468438D01*
X16550Y1509712D01*
X62300Y1509712D01*
G54D10*
X0Y1468438D02*
X0Y1436294D01*
X-16Y1436311D01*
G54D10*
X129524Y1509686D02*
X1483373Y1509686D01*
X1483400Y1509712D01*
X1483400Y1417638D01*
X1496100Y1417638D01*
X1496100Y1509712D01*
X3440788Y1509712D01*
X3440788Y1419225D01*
X3453488Y1419225D01*
X3453488Y1509712D01*
X3761462Y1509712D01*
X3761462Y1419225D01*
X3774162Y1419225D01*
X3774162Y1509712D01*
X4212312Y1509712D01*
X4212312Y1468438D01*
X4226362Y1468438D01*
X4226362Y0D01*
X0Y0D01*
M02*
