%FSLAX34Y34*%
%MOMM*%
%LNSOLDERMASK_BOTTOM*%
G71*
G01*
%ADD10C,1.800*%
%ADD11C,1.400*%
%ADD12C,1.500*%
%ADD13C,2.100*%
%ADD14C,2.000*%
%ADD15C,2.000*%
%ADD16C,1.400*%
%ADD17C,1.900*%
%ADD18C,2.400*%
%ADD19C,2.800*%
%ADD20C,1.700*%
%ADD21C,1.800*%
%ADD22C,2.200*%
%ADD23C,4.400*%
%ADD24C,4.400*%
%ADD25C,1.900*%
%ADD26C,1.400*%
%ADD27C,1.700*%
%ADD28C,2.400*%
%ADD29C,3.200*%
%ADD30C,2.100*%
%ADD31C,2.600*%
%ADD32C,2.200*%
%ADD33C,3.400*%
%ADD34C,1.400*%
%ADD35C,2.600*%
%ADD36C,2.600*%
%ADD37C,2.600*%
%ADD38C,3.400*%
%ADD39C,3.400*%
%ADD40C,3.410*%
%ADD41C,2.400*%
%ADD42R,2.400X8.900*%
%LPD*%
G36*
X1290250Y993250D02*
X1308250Y993250D01*
X1308250Y975250D01*
X1290250Y975250D01*
X1290250Y993250D01*
G37*
X1324650Y984250D02*
G54D10*
D03*
X1350050Y984250D02*
G54D10*
D03*
X1375450Y984250D02*
G54D10*
D03*
X1400850Y984250D02*
G54D10*
D03*
X1426250Y984250D02*
G54D10*
D03*
X1451650Y984250D02*
G54D10*
D03*
X1477050Y984250D02*
G54D10*
D03*
X1502450Y984250D02*
G54D10*
D03*
X1527850Y984250D02*
G54D10*
D03*
X1553250Y984250D02*
G54D10*
D03*
X1578650Y984250D02*
G54D10*
D03*
X1604050Y984250D02*
G54D10*
D03*
X1629450Y984250D02*
G54D10*
D03*
X1654850Y984250D02*
G54D10*
D03*
X1680250Y984250D02*
G54D10*
D03*
X1705650Y984250D02*
G54D10*
D03*
X1731050Y984250D02*
G54D10*
D03*
X1756450Y984250D02*
G54D10*
D03*
X1781850Y984250D02*
G54D10*
D03*
X1781850Y1136650D02*
G54D10*
D03*
X1756450Y1136650D02*
G54D10*
D03*
X1731050Y1136650D02*
G54D10*
D03*
X1705650Y1136650D02*
G54D10*
D03*
X1680250Y1136650D02*
G54D10*
D03*
X1654850Y1136650D02*
G54D10*
D03*
X1629450Y1136650D02*
G54D10*
D03*
X1604050Y1136650D02*
G54D10*
D03*
X1578650Y1136650D02*
G54D10*
D03*
X1553250Y1136650D02*
G54D10*
D03*
X1527850Y1136650D02*
G54D10*
D03*
X1502450Y1136650D02*
G54D10*
D03*
X1477050Y1136650D02*
G54D10*
D03*
X1451650Y1136650D02*
G54D10*
D03*
X1426250Y1136650D02*
G54D10*
D03*
X1400850Y1136650D02*
G54D10*
D03*
X1375450Y1136650D02*
G54D10*
D03*
X1350050Y1136650D02*
G54D10*
D03*
X1324650Y1136650D02*
G54D10*
D03*
X1299250Y1136650D02*
G54D10*
D03*
X597575Y1341438D02*
G54D11*
D03*
X535662Y111124D02*
G54D12*
D03*
X4072876Y88900D02*
G54D11*
D03*
G36*
X1863338Y993250D02*
X1881338Y993250D01*
X1881338Y975250D01*
X1863338Y975250D01*
X1863338Y993250D01*
G37*
X1897738Y984250D02*
G54D10*
D03*
X1923138Y984250D02*
G54D10*
D03*
X1948538Y984250D02*
G54D10*
D03*
X1973938Y984250D02*
G54D10*
D03*
X1999338Y984250D02*
G54D10*
D03*
X2024738Y984250D02*
G54D10*
D03*
X2024738Y1060450D02*
G54D10*
D03*
X1999338Y1060450D02*
G54D10*
D03*
X1973938Y1060450D02*
G54D10*
D03*
X1948538Y1060450D02*
G54D10*
D03*
X1923138Y1060450D02*
G54D10*
D03*
X1897738Y1060450D02*
G54D10*
D03*
X1872338Y1060450D02*
G54D10*
D03*
G36*
X1290250Y382062D02*
X1308250Y382062D01*
X1308250Y364062D01*
X1290250Y364062D01*
X1290250Y382062D01*
G37*
X1324650Y373062D02*
G54D10*
D03*
X1350050Y373062D02*
G54D10*
D03*
X1375450Y373062D02*
G54D10*
D03*
X1400850Y373062D02*
G54D10*
D03*
X1426250Y373062D02*
G54D10*
D03*
X1451650Y373062D02*
G54D10*
D03*
X1451650Y449262D02*
G54D10*
D03*
X1426250Y449262D02*
G54D10*
D03*
X1400850Y449262D02*
G54D10*
D03*
X1375450Y449262D02*
G54D10*
D03*
X1350050Y449262D02*
G54D10*
D03*
X1324650Y449262D02*
G54D10*
D03*
X1299250Y449262D02*
G54D10*
D03*
G36*
X1290250Y151875D02*
X1308250Y151875D01*
X1308250Y133875D01*
X1290250Y133875D01*
X1290250Y151875D01*
G37*
X1324650Y142875D02*
G54D10*
D03*
X1350050Y142875D02*
G54D10*
D03*
X1375450Y142875D02*
G54D10*
D03*
X1400850Y142875D02*
G54D10*
D03*
X1426250Y142875D02*
G54D10*
D03*
X1451650Y142875D02*
G54D10*
D03*
X1451650Y219075D02*
G54D10*
D03*
X1426250Y219075D02*
G54D10*
D03*
X1400850Y219075D02*
G54D10*
D03*
X1375450Y219075D02*
G54D10*
D03*
X1350050Y219075D02*
G54D10*
D03*
X1324650Y219075D02*
G54D10*
D03*
X1299250Y219075D02*
G54D10*
D03*
G36*
X1290250Y726550D02*
X1308250Y726550D01*
X1308250Y708550D01*
X1290250Y708550D01*
X1290250Y726550D01*
G37*
X1324650Y717550D02*
G54D10*
D03*
X1350050Y717550D02*
G54D10*
D03*
X1375450Y717550D02*
G54D10*
D03*
X1400850Y717550D02*
G54D10*
D03*
X1426250Y717550D02*
G54D10*
D03*
X1451650Y717550D02*
G54D10*
D03*
X1477050Y717550D02*
G54D10*
D03*
X1502450Y717550D02*
G54D10*
D03*
X1527850Y717550D02*
G54D10*
D03*
X1553250Y717550D02*
G54D10*
D03*
X1578650Y717550D02*
G54D10*
D03*
X1604050Y717550D02*
G54D10*
D03*
X1629450Y717550D02*
G54D10*
D03*
X1629450Y869950D02*
G54D10*
D03*
X1604050Y869950D02*
G54D10*
D03*
X1578650Y869950D02*
G54D10*
D03*
X1553250Y869950D02*
G54D10*
D03*
X1527850Y869950D02*
G54D10*
D03*
X1502450Y869950D02*
G54D10*
D03*
X1477050Y869950D02*
G54D10*
D03*
X1451650Y869950D02*
G54D10*
D03*
X1426250Y869950D02*
G54D10*
D03*
X1400850Y869950D02*
G54D10*
D03*
X1375450Y869950D02*
G54D10*
D03*
X1350050Y869950D02*
G54D10*
D03*
X1324650Y869950D02*
G54D10*
D03*
X1299250Y869950D02*
G54D10*
D03*
G36*
X1787138Y802750D02*
X1805138Y802750D01*
X1805138Y784750D01*
X1787138Y784750D01*
X1787138Y802750D01*
G37*
X1821538Y793750D02*
G54D10*
D03*
X1846938Y793750D02*
G54D10*
D03*
X1872338Y793750D02*
G54D10*
D03*
X1897738Y793750D02*
G54D10*
D03*
X1923138Y793750D02*
G54D10*
D03*
X1948538Y793750D02*
G54D10*
D03*
X1973938Y793750D02*
G54D10*
D03*
X1999338Y793750D02*
G54D10*
D03*
X2024738Y793750D02*
G54D10*
D03*
X2024738Y869950D02*
G54D10*
D03*
X1999338Y869950D02*
G54D10*
D03*
X1973938Y869950D02*
G54D10*
D03*
X1948538Y869950D02*
G54D10*
D03*
X1923138Y869950D02*
G54D10*
D03*
X1897738Y869950D02*
G54D10*
D03*
X1872338Y869950D02*
G54D10*
D03*
X1846938Y869950D02*
G54D10*
D03*
X1821538Y869950D02*
G54D10*
D03*
X1796138Y869950D02*
G54D10*
D03*
G36*
X2166550Y993250D02*
X2184550Y993250D01*
X2184550Y975250D01*
X2166550Y975250D01*
X2166550Y993250D01*
G37*
X2200950Y984250D02*
G54D10*
D03*
X2226350Y984250D02*
G54D10*
D03*
X2251750Y984250D02*
G54D10*
D03*
X2277150Y984250D02*
G54D10*
D03*
X2302550Y984250D02*
G54D10*
D03*
X2327950Y984250D02*
G54D10*
D03*
X2353350Y984250D02*
G54D10*
D03*
X2378750Y984250D02*
G54D10*
D03*
X2404150Y984250D02*
G54D10*
D03*
X2404150Y1060450D02*
G54D10*
D03*
X2378750Y1060450D02*
G54D10*
D03*
X2353350Y1060450D02*
G54D10*
D03*
X2327950Y1060450D02*
G54D10*
D03*
X2302550Y1060450D02*
G54D10*
D03*
X2277150Y1060450D02*
G54D10*
D03*
X2251750Y1060450D02*
G54D10*
D03*
X2226350Y1060450D02*
G54D10*
D03*
X2200950Y1060450D02*
G54D10*
D03*
X2175550Y1060450D02*
G54D10*
D03*
G36*
X2166550Y802750D02*
X2184550Y802750D01*
X2184550Y784750D01*
X2166550Y784750D01*
X2166550Y802750D01*
G37*
X2200950Y793750D02*
G54D10*
D03*
X2226350Y793750D02*
G54D10*
D03*
X2251750Y793750D02*
G54D10*
D03*
X2277150Y793750D02*
G54D10*
D03*
X2302550Y793750D02*
G54D10*
D03*
X2327950Y793750D02*
G54D10*
D03*
X2353350Y793750D02*
G54D10*
D03*
X2378750Y793750D02*
G54D10*
D03*
X2404150Y793750D02*
G54D10*
D03*
X2404150Y869950D02*
G54D10*
D03*
X2378750Y869950D02*
G54D10*
D03*
X2353350Y869950D02*
G54D10*
D03*
X2327950Y869950D02*
G54D10*
D03*
X2302550Y869950D02*
G54D10*
D03*
X2277150Y869950D02*
G54D10*
D03*
X2251750Y869950D02*
G54D10*
D03*
X2226350Y869950D02*
G54D10*
D03*
X2200950Y869950D02*
G54D10*
D03*
X2175550Y869950D02*
G54D10*
D03*
G36*
X2217350Y623362D02*
X2235350Y623362D01*
X2235350Y605362D01*
X2217350Y605362D01*
X2217350Y623362D01*
G37*
X2251750Y614362D02*
G54D10*
D03*
X2277150Y614362D02*
G54D10*
D03*
X2302550Y614362D02*
G54D10*
D03*
X2327950Y614362D02*
G54D10*
D03*
X2353350Y614362D02*
G54D10*
D03*
X2378750Y614362D02*
G54D10*
D03*
X2404150Y614362D02*
G54D10*
D03*
X2404150Y690562D02*
G54D10*
D03*
X2378750Y690562D02*
G54D10*
D03*
X2353350Y690562D02*
G54D10*
D03*
X2327950Y690562D02*
G54D10*
D03*
X2302550Y690562D02*
G54D10*
D03*
X2277150Y690562D02*
G54D10*
D03*
X2251750Y690562D02*
G54D10*
D03*
X2226350Y690562D02*
G54D10*
D03*
G36*
X2204650Y312212D02*
X2222650Y312212D01*
X2222650Y294212D01*
X2204650Y294212D01*
X2204650Y312212D01*
G37*
X2239050Y303212D02*
G54D10*
D03*
X2264450Y303212D02*
G54D10*
D03*
X2289850Y303212D02*
G54D10*
D03*
X2315250Y303212D02*
G54D10*
D03*
X2340650Y303212D02*
G54D10*
D03*
X2366050Y303212D02*
G54D10*
D03*
X2391450Y303212D02*
G54D10*
D03*
X2416850Y303212D02*
G54D10*
D03*
X2416850Y379412D02*
G54D10*
D03*
X2391450Y379412D02*
G54D10*
D03*
X2366050Y379412D02*
G54D10*
D03*
X2340650Y379412D02*
G54D10*
D03*
X2315250Y379412D02*
G54D10*
D03*
X2289850Y379412D02*
G54D10*
D03*
X2264450Y379412D02*
G54D10*
D03*
X2239050Y379412D02*
G54D10*
D03*
X2213650Y379412D02*
G54D10*
D03*
G36*
X2204650Y151875D02*
X2222650Y151875D01*
X2222650Y133875D01*
X2204650Y133875D01*
X2204650Y151875D01*
G37*
X2239050Y142875D02*
G54D10*
D03*
X2264450Y142875D02*
G54D10*
D03*
X2289850Y142875D02*
G54D10*
D03*
X2315250Y142875D02*
G54D10*
D03*
X2340650Y142875D02*
G54D10*
D03*
X2366050Y142875D02*
G54D10*
D03*
X2391450Y142875D02*
G54D10*
D03*
X2416850Y142875D02*
G54D10*
D03*
X2416850Y219075D02*
G54D10*
D03*
X2391450Y219075D02*
G54D10*
D03*
X2366050Y219075D02*
G54D10*
D03*
X2340650Y219075D02*
G54D10*
D03*
X2315250Y219075D02*
G54D10*
D03*
X2289850Y219075D02*
G54D10*
D03*
X2264450Y219075D02*
G54D10*
D03*
X2239050Y219075D02*
G54D10*
D03*
X2213650Y219075D02*
G54D10*
D03*
G36*
X2547550Y164575D02*
X2565550Y164575D01*
X2565550Y146575D01*
X2547550Y146575D01*
X2547550Y164575D01*
G37*
X2581950Y155575D02*
G54D10*
D03*
X2607350Y155575D02*
G54D10*
D03*
X2632750Y155575D02*
G54D10*
D03*
X2658150Y155575D02*
G54D10*
D03*
X2683550Y155575D02*
G54D10*
D03*
X2708950Y155575D02*
G54D10*
D03*
X2734350Y155575D02*
G54D10*
D03*
X2759750Y155575D02*
G54D10*
D03*
X2785150Y155575D02*
G54D10*
D03*
X2810550Y155575D02*
G54D10*
D03*
X2835950Y155575D02*
G54D10*
D03*
X2861350Y155575D02*
G54D10*
D03*
X2886750Y155575D02*
G54D10*
D03*
X2912150Y155575D02*
G54D10*
D03*
X2937550Y155575D02*
G54D10*
D03*
X2962950Y155575D02*
G54D10*
D03*
X2988350Y155575D02*
G54D10*
D03*
X3013750Y155575D02*
G54D10*
D03*
X3039150Y155575D02*
G54D10*
D03*
X3039150Y307975D02*
G54D10*
D03*
X3013750Y307975D02*
G54D10*
D03*
X2988350Y307975D02*
G54D10*
D03*
X2962950Y307975D02*
G54D10*
D03*
X2937550Y307975D02*
G54D10*
D03*
X2912150Y307975D02*
G54D10*
D03*
X2886750Y307975D02*
G54D10*
D03*
X2861350Y307975D02*
G54D10*
D03*
X2835950Y307975D02*
G54D10*
D03*
X2810550Y307975D02*
G54D10*
D03*
X2785150Y307975D02*
G54D10*
D03*
X2759750Y307975D02*
G54D10*
D03*
X2734350Y307975D02*
G54D10*
D03*
X2708950Y307975D02*
G54D10*
D03*
X2683550Y307975D02*
G54D10*
D03*
X2658150Y307975D02*
G54D10*
D03*
X2632750Y307975D02*
G54D10*
D03*
X2607350Y307975D02*
G54D10*
D03*
X2581950Y307975D02*
G54D10*
D03*
X2556550Y307975D02*
G54D10*
D03*
G36*
X2560250Y456675D02*
X2578250Y456675D01*
X2578250Y438675D01*
X2560250Y438675D01*
X2560250Y456675D01*
G37*
X2594650Y447675D02*
G54D10*
D03*
X2620050Y447675D02*
G54D10*
D03*
X2645450Y447675D02*
G54D10*
D03*
X2670850Y447675D02*
G54D10*
D03*
X2696250Y447675D02*
G54D10*
D03*
X2721650Y447675D02*
G54D10*
D03*
X2721650Y523875D02*
G54D10*
D03*
X2696250Y523875D02*
G54D10*
D03*
X2670850Y523875D02*
G54D10*
D03*
X2645450Y523875D02*
G54D10*
D03*
X2620050Y523875D02*
G54D10*
D03*
X2594650Y523875D02*
G54D10*
D03*
X2569250Y523875D02*
G54D10*
D03*
G36*
X2560250Y623362D02*
X2578250Y623362D01*
X2578250Y605362D01*
X2560250Y605362D01*
X2560250Y623362D01*
G37*
X2594650Y614362D02*
G54D10*
D03*
X2620050Y614362D02*
G54D10*
D03*
X2645450Y614362D02*
G54D10*
D03*
X2670850Y614362D02*
G54D10*
D03*
X2696250Y614362D02*
G54D10*
D03*
X2721650Y614362D02*
G54D10*
D03*
X2721650Y690562D02*
G54D10*
D03*
X2696250Y690562D02*
G54D10*
D03*
X2670850Y690562D02*
G54D10*
D03*
X2645450Y690562D02*
G54D10*
D03*
X2620050Y690562D02*
G54D10*
D03*
X2594650Y690562D02*
G54D10*
D03*
X2569250Y690562D02*
G54D10*
D03*
G36*
X2560250Y802750D02*
X2578250Y802750D01*
X2578250Y784750D01*
X2560250Y784750D01*
X2560250Y802750D01*
G37*
X2594650Y793750D02*
G54D10*
D03*
X2620050Y793750D02*
G54D10*
D03*
X2645450Y793750D02*
G54D10*
D03*
X2670850Y793750D02*
G54D10*
D03*
X2696250Y793750D02*
G54D10*
D03*
X2721650Y793750D02*
G54D10*
D03*
X2721650Y869950D02*
G54D10*
D03*
X2696250Y869950D02*
G54D10*
D03*
X2670850Y869950D02*
G54D10*
D03*
X2645450Y869950D02*
G54D10*
D03*
X2620050Y869950D02*
G54D10*
D03*
X2594650Y869950D02*
G54D10*
D03*
X2569250Y869950D02*
G54D10*
D03*
G36*
X2547550Y980550D02*
X2565550Y980550D01*
X2565550Y962550D01*
X2547550Y962550D01*
X2547550Y980550D01*
G37*
X2581950Y971550D02*
G54D10*
D03*
X2607350Y971550D02*
G54D10*
D03*
X2632750Y971550D02*
G54D10*
D03*
X2658150Y971550D02*
G54D10*
D03*
X2683550Y971550D02*
G54D10*
D03*
X2708950Y971550D02*
G54D10*
D03*
X2734350Y971550D02*
G54D10*
D03*
X2759750Y971550D02*
G54D10*
D03*
X2785150Y971550D02*
G54D10*
D03*
X2810550Y971550D02*
G54D10*
D03*
X2835950Y971550D02*
G54D10*
D03*
X2861350Y971550D02*
G54D10*
D03*
X2886750Y971550D02*
G54D10*
D03*
X2912150Y971550D02*
G54D10*
D03*
X2937550Y971550D02*
G54D10*
D03*
X2962950Y971550D02*
G54D10*
D03*
X2988350Y971550D02*
G54D10*
D03*
X3013750Y971550D02*
G54D10*
D03*
X3039150Y971550D02*
G54D10*
D03*
X3039150Y1123950D02*
G54D10*
D03*
X3013750Y1123950D02*
G54D10*
D03*
X2988350Y1123950D02*
G54D10*
D03*
X2962950Y1123950D02*
G54D10*
D03*
X2937550Y1123950D02*
G54D10*
D03*
X2912150Y1123950D02*
G54D10*
D03*
X2886750Y1123950D02*
G54D10*
D03*
X2861350Y1123950D02*
G54D10*
D03*
X2835950Y1123950D02*
G54D10*
D03*
X2810550Y1123950D02*
G54D10*
D03*
X2785150Y1123950D02*
G54D10*
D03*
X2759750Y1123950D02*
G54D10*
D03*
X2734350Y1123950D02*
G54D10*
D03*
X2708950Y1123950D02*
G54D10*
D03*
X2683550Y1123950D02*
G54D10*
D03*
X2658150Y1123950D02*
G54D10*
D03*
X2632750Y1123950D02*
G54D10*
D03*
X2607350Y1123950D02*
G54D10*
D03*
X2581950Y1123950D02*
G54D10*
D03*
X2556550Y1123950D02*
G54D10*
D03*
G36*
X2852350Y801162D02*
X2870350Y801162D01*
X2870350Y783162D01*
X2852350Y783162D01*
X2852350Y801162D01*
G37*
X2886750Y792162D02*
G54D10*
D03*
X2912150Y792162D02*
G54D10*
D03*
X2937550Y792162D02*
G54D10*
D03*
X2962950Y792162D02*
G54D10*
D03*
X2988350Y792162D02*
G54D10*
D03*
X3013750Y792162D02*
G54D10*
D03*
X3013750Y868362D02*
G54D10*
D03*
X2988350Y868362D02*
G54D10*
D03*
X2962950Y868362D02*
G54D10*
D03*
X2937550Y868362D02*
G54D10*
D03*
X2912150Y868362D02*
G54D10*
D03*
X2886750Y868362D02*
G54D10*
D03*
X2861350Y868362D02*
G54D10*
D03*
G36*
X2852350Y456675D02*
X2870350Y456675D01*
X2870350Y438675D01*
X2852350Y438675D01*
X2852350Y456675D01*
G37*
X2886750Y447675D02*
G54D10*
D03*
X2912150Y447675D02*
G54D10*
D03*
X2937550Y447675D02*
G54D10*
D03*
X2962950Y447675D02*
G54D10*
D03*
X2988350Y447675D02*
G54D10*
D03*
X3013750Y447675D02*
G54D10*
D03*
X3013750Y523875D02*
G54D10*
D03*
X2988350Y523875D02*
G54D10*
D03*
X2962950Y523875D02*
G54D10*
D03*
X2937550Y523875D02*
G54D10*
D03*
X2912150Y523875D02*
G54D10*
D03*
X2886750Y523875D02*
G54D10*
D03*
X2861350Y523875D02*
G54D10*
D03*
G36*
X501262Y151875D02*
X519262Y151875D01*
X519262Y133875D01*
X501262Y133875D01*
X501262Y151875D01*
G37*
X535662Y142875D02*
G54D10*
D03*
X561062Y142875D02*
G54D10*
D03*
X586462Y142875D02*
G54D10*
D03*
X611862Y142875D02*
G54D10*
D03*
X637262Y142875D02*
G54D10*
D03*
X662662Y142875D02*
G54D10*
D03*
X688062Y142875D02*
G54D10*
D03*
X713462Y142875D02*
G54D10*
D03*
X738862Y142875D02*
G54D10*
D03*
X738862Y219075D02*
G54D10*
D03*
X713462Y219075D02*
G54D10*
D03*
X688062Y219075D02*
G54D10*
D03*
X662662Y219075D02*
G54D10*
D03*
X637262Y219075D02*
G54D10*
D03*
X611862Y219075D02*
G54D10*
D03*
X586462Y219075D02*
G54D10*
D03*
X561062Y219075D02*
G54D10*
D03*
X535662Y219075D02*
G54D10*
D03*
X510262Y219075D02*
G54D10*
D03*
G36*
X307588Y304275D02*
X325588Y304275D01*
X325588Y286275D01*
X307588Y286275D01*
X307588Y304275D01*
G37*
X341988Y295275D02*
G54D10*
D03*
X367388Y295275D02*
G54D10*
D03*
X392788Y295275D02*
G54D10*
D03*
X392788Y371475D02*
G54D10*
D03*
X367388Y371475D02*
G54D10*
D03*
X341988Y371475D02*
G54D10*
D03*
X316588Y371475D02*
G54D10*
D03*
G36*
X155188Y443975D02*
X173188Y443975D01*
X173188Y425975D01*
X155188Y425975D01*
X155188Y443975D01*
G37*
X189588Y434975D02*
G54D10*
D03*
X214988Y434975D02*
G54D10*
D03*
X240388Y434975D02*
G54D10*
D03*
X265788Y434975D02*
G54D10*
D03*
X291188Y434975D02*
G54D10*
D03*
X316588Y434975D02*
G54D10*
D03*
X341988Y434975D02*
G54D10*
D03*
X341988Y511175D02*
G54D10*
D03*
X316588Y511175D02*
G54D10*
D03*
X291188Y511175D02*
G54D10*
D03*
X265788Y511175D02*
G54D10*
D03*
X240388Y511175D02*
G54D10*
D03*
X214988Y511175D02*
G54D10*
D03*
X189588Y511175D02*
G54D10*
D03*
X164188Y511175D02*
G54D10*
D03*
G36*
X2177750Y1197950D02*
X2198750Y1197950D01*
X2198750Y1176950D01*
X2177750Y1176950D01*
X2177750Y1197950D01*
G37*
X2188250Y1212850D02*
G54D13*
D03*
X2213650Y1187450D02*
G54D13*
D03*
X2213650Y1212850D02*
G54D13*
D03*
X2239050Y1187450D02*
G54D13*
D03*
X2239050Y1212850D02*
G54D13*
D03*
X2264450Y1187450D02*
G54D13*
D03*
X2264450Y1212850D02*
G54D13*
D03*
X2289850Y1187450D02*
G54D13*
D03*
X2289850Y1212850D02*
G54D13*
D03*
X2315250Y1187450D02*
G54D13*
D03*
X2315250Y1212850D02*
G54D13*
D03*
X2340650Y1187450D02*
G54D13*
D03*
X2340650Y1212850D02*
G54D13*
D03*
X2366050Y1187450D02*
G54D13*
D03*
X2366050Y1212850D02*
G54D13*
D03*
X2391450Y1187450D02*
G54D13*
D03*
X2391450Y1212850D02*
G54D13*
D03*
X2416850Y1187450D02*
G54D13*
D03*
X2416850Y1212850D02*
G54D13*
D03*
X2442250Y1187450D02*
G54D13*
D03*
X2442250Y1212850D02*
G54D13*
D03*
X2467650Y1187450D02*
G54D13*
D03*
X2467650Y1212850D02*
G54D13*
D03*
X2493050Y1187450D02*
G54D13*
D03*
X2493050Y1212850D02*
G54D13*
D03*
G36*
X3120668Y1236246D02*
X3120668Y1215246D01*
X3099668Y1215246D01*
X3099668Y1236246D01*
X3120668Y1236246D01*
G37*
X3135568Y1225746D02*
G54D13*
D03*
X3110168Y1200346D02*
G54D13*
D03*
X3135569Y1200346D02*
G54D13*
D03*
X3110169Y1174946D02*
G54D13*
D03*
X3135569Y1174946D02*
G54D13*
D03*
X3110169Y1149546D02*
G54D13*
D03*
X3135569Y1149546D02*
G54D13*
D03*
X3110169Y1124146D02*
G54D13*
D03*
X3135569Y1124146D02*
G54D13*
D03*
X3110169Y1098746D02*
G54D13*
D03*
X3135569Y1098746D02*
G54D13*
D03*
X3110169Y1073346D02*
G54D13*
D03*
X3135569Y1073346D02*
G54D13*
D03*
X3110169Y1047946D02*
G54D13*
D03*
X3135569Y1047946D02*
G54D13*
D03*
X3110169Y1022546D02*
G54D13*
D03*
X3135569Y1022546D02*
G54D13*
D03*
X3110169Y997146D02*
G54D13*
D03*
X3135569Y997146D02*
G54D13*
D03*
X3110169Y971746D02*
G54D13*
D03*
X3135568Y971746D02*
G54D13*
D03*
X3110168Y946346D02*
G54D13*
D03*
X3135568Y946346D02*
G54D13*
D03*
X3110168Y920946D02*
G54D13*
D03*
X3135568Y920946D02*
G54D13*
D03*
X3110168Y895546D02*
G54D13*
D03*
X3135568Y895546D02*
G54D13*
D03*
X3110168Y870146D02*
G54D13*
D03*
X3135568Y870146D02*
G54D13*
D03*
X3110168Y844746D02*
G54D13*
D03*
X3135568Y844746D02*
G54D13*
D03*
X3110168Y819346D02*
G54D13*
D03*
X3135568Y819346D02*
G54D13*
D03*
X1375450Y1412875D02*
G54D11*
D03*
X1400850Y1412875D02*
G54D11*
D03*
X1426250Y1412875D02*
G54D11*
D03*
X1451650Y1412875D02*
G54D11*
D03*
X1527850Y1412875D02*
G54D11*
D03*
X1553250Y1412875D02*
G54D11*
D03*
X1578650Y1412875D02*
G54D11*
D03*
X1604050Y1412875D02*
G54D11*
D03*
X1629450Y1412875D02*
G54D11*
D03*
X1654850Y1412875D02*
G54D11*
D03*
X1680250Y1412875D02*
G54D11*
D03*
X1705650Y1412875D02*
G54D11*
D03*
X1731050Y1412875D02*
G54D11*
D03*
X1756450Y1412875D02*
G54D11*
D03*
X1781850Y1412875D02*
G54D11*
D03*
X1807250Y1412875D02*
G54D11*
D03*
X1832650Y1412875D02*
G54D11*
D03*
X1858050Y1412875D02*
G54D11*
D03*
X1883450Y1412875D02*
G54D11*
D03*
X1908850Y1412875D02*
G54D11*
D03*
X1934250Y1412875D02*
G54D11*
D03*
X1959650Y1412875D02*
G54D11*
D03*
X1985050Y1412875D02*
G54D11*
D03*
X2010450Y1412875D02*
G54D11*
D03*
X2035850Y1412875D02*
G54D11*
D03*
X2061250Y1412875D02*
G54D11*
D03*
X2086650Y1412875D02*
G54D11*
D03*
X3104238Y1412875D02*
G54D11*
D03*
X3129638Y1412875D02*
G54D11*
D03*
X3155038Y1412875D02*
G54D11*
D03*
X3180438Y1412875D02*
G54D11*
D03*
X3205838Y1412875D02*
G54D11*
D03*
X3231238Y1412875D02*
G54D11*
D03*
X3256638Y1412875D02*
G54D11*
D03*
X3282038Y1412875D02*
G54D11*
D03*
X3307438Y1412875D02*
G54D11*
D03*
X3332838Y1412875D02*
G54D11*
D03*
X3358238Y1412875D02*
G54D11*
D03*
X3383638Y1412875D02*
G54D11*
D03*
X3409038Y1412875D02*
G54D11*
D03*
X3485238Y1412875D02*
G54D11*
D03*
X3510638Y1412875D02*
G54D11*
D03*
X3678912Y1412875D02*
G54D11*
D03*
X3704312Y1412875D02*
G54D11*
D03*
X3729712Y1412875D02*
G54D11*
D03*
X3804325Y1412875D02*
G54D11*
D03*
X3831312Y1412875D02*
G54D11*
D03*
X3856712Y1412875D02*
G54D11*
D03*
X3882112Y1412875D02*
G54D11*
D03*
X3907512Y1412875D02*
G54D11*
D03*
X3932912Y1412875D02*
G54D11*
D03*
X3958312Y1412875D02*
G54D11*
D03*
X3983712Y1412875D02*
G54D11*
D03*
X4009112Y1412875D02*
G54D11*
D03*
X4034512Y1412875D02*
G54D11*
D03*
X4059912Y1412875D02*
G54D11*
D03*
X4085312Y1412875D02*
G54D11*
D03*
X1438950Y1009650D02*
G54D11*
D03*
X1832650Y1009650D02*
G54D11*
D03*
X1991400Y1009650D02*
G54D11*
D03*
X1826300Y658812D02*
G54D11*
D03*
X1697712Y652462D02*
G54D11*
D03*
X2067600Y1073150D02*
G54D11*
D03*
X2245400Y1079500D02*
G54D11*
D03*
X1948538Y1003300D02*
G54D11*
D03*
X2251750Y1022350D02*
G54D11*
D03*
X2264450Y506412D02*
G54D11*
D03*
X1908850Y519112D02*
G54D11*
D03*
X1311950Y1354138D02*
G54D11*
D03*
X1400850Y1354138D02*
G54D11*
D03*
X1337350Y1333500D02*
G54D11*
D03*
X1413550Y1333500D02*
G54D11*
D03*
X1343700Y792162D02*
G54D11*
D03*
X1872338Y677862D02*
G54D11*
D03*
X1731050Y665162D02*
G54D11*
D03*
X1362750Y804862D02*
G54D11*
D03*
X1377038Y823912D02*
G54D11*
D03*
X1407200Y811212D02*
G54D11*
D03*
X1381800Y168275D02*
G54D11*
D03*
X1299250Y1098550D02*
G54D11*
D03*
X1464350Y1098550D02*
G54D11*
D03*
X1819950Y1098550D02*
G54D11*
D03*
X1991400Y1085850D02*
G54D11*
D03*
X2048550Y1092200D02*
G54D11*
D03*
X1789788Y506412D02*
G54D11*
D03*
X1718350Y506412D02*
G54D11*
D03*
X1337350Y1022350D02*
G54D11*
D03*
X1413550Y1022350D02*
G54D11*
D03*
X1769150Y1022350D02*
G54D11*
D03*
X1923138Y1022350D02*
G54D11*
D03*
X2043788Y1016000D02*
G54D11*
D03*
X2069188Y958850D02*
G54D11*
D03*
X2397800Y958850D02*
G54D11*
D03*
X1769150Y946150D02*
G54D11*
D03*
X1680250Y946150D02*
G54D11*
D03*
X1661200Y500062D02*
G54D11*
D03*
X1686600Y500062D02*
G54D11*
D03*
X1350050Y1085850D02*
G54D11*
D03*
X1375450Y1085850D02*
G54D11*
D03*
X1883450Y1085850D02*
G54D11*
D03*
X1872338Y939800D02*
G54D11*
D03*
X1896150Y1250950D02*
G54D11*
D03*
X2023150Y1276350D02*
G54D11*
D03*
X2366050Y952500D02*
G54D11*
D03*
X2416850Y952500D02*
G54D11*
D03*
X1705650Y925512D02*
G54D11*
D03*
X1375450Y1263652D02*
G54D11*
D03*
X1908850Y1263650D02*
G54D11*
D03*
X1851700Y925512D02*
G54D11*
D03*
X1864400Y658812D02*
G54D11*
D03*
X1908850Y690562D02*
G54D11*
D03*
X1375450Y671512D02*
G54D11*
D03*
X1948538Y519112D02*
G54D11*
D03*
X2505750Y430212D02*
G54D11*
D03*
X2505750Y271462D02*
G54D11*
D03*
X2734350Y284162D02*
G54D11*
D03*
X1413550Y914400D02*
G54D11*
D03*
X1946950Y658812D02*
G54D11*
D03*
X1902500Y920750D02*
G54D11*
D03*
X2315250Y933450D02*
G54D11*
D03*
X2340650Y944562D02*
G54D11*
D03*
X1921550Y1289050D02*
G54D11*
D03*
X1400850Y1289050D02*
G54D11*
D03*
X1426250Y1277938D02*
G54D11*
D03*
X1692950Y1277938D02*
G54D11*
D03*
X1959650Y1277938D02*
G54D11*
D03*
X1699300Y760412D02*
G54D11*
D03*
X1699300Y684212D02*
G54D11*
D03*
X1408788Y677862D02*
G54D11*
D03*
X2302550Y760412D02*
G54D11*
D03*
X2289850Y500062D02*
G54D11*
D03*
X1832650Y512762D02*
G54D11*
D03*
X1292900Y1155700D02*
G54D11*
D03*
X1311950Y900112D02*
G54D11*
D03*
X1438950Y906462D02*
G54D11*
D03*
X1426250Y823912D02*
G54D11*
D03*
X1961238Y811212D02*
G54D11*
D03*
X2277150Y827088D02*
G54D11*
D03*
X2302550Y354012D02*
G54D11*
D03*
X2505750Y341312D02*
G54D11*
D03*
X2518450Y187325D02*
G54D11*
D03*
X2770862Y201612D02*
G54D11*
D03*
X1477050Y1022350D02*
G54D11*
D03*
X1477050Y1301750D02*
G54D11*
D03*
X1680250Y1314450D02*
G54D11*
D03*
X1667550Y1022350D02*
G54D11*
D03*
X1673900Y766762D02*
G54D11*
D03*
X1724700Y766762D02*
G54D11*
D03*
X1724700Y690562D02*
G54D11*
D03*
X1807250Y690562D02*
G54D11*
D03*
X1438950Y677862D02*
G54D11*
D03*
X1502450Y1060450D02*
G54D11*
D03*
X1527850Y1060450D02*
G54D11*
D03*
X1578650Y1060450D02*
G54D11*
D03*
X1599288Y1060450D02*
G54D11*
D03*
X1350050Y1060450D02*
G54D11*
D03*
X1743750Y1060450D02*
G54D11*
D03*
X1502450Y1328738D02*
G54D11*
D03*
X1654850Y1328738D02*
G54D11*
D03*
X1718350Y1327150D02*
G54D11*
D03*
X1362750Y939800D02*
G54D11*
D03*
X1464350Y939800D02*
G54D11*
D03*
X1496100Y627062D02*
G54D11*
D03*
X1775500Y627062D02*
G54D11*
D03*
X2220000Y588962D02*
G54D11*
D03*
X2220000Y717550D02*
G54D11*
D03*
X2213650Y835025D02*
G54D11*
D03*
X2467650Y831850D02*
G54D11*
D03*
X2486700Y1016000D02*
G54D11*
D03*
X2632750Y1016000D02*
G54D11*
D03*
X1527850Y1250950D02*
G54D11*
D03*
X1629450Y1250950D02*
G54D11*
D03*
X1527850Y1098550D02*
G54D11*
D03*
X1705650Y1117600D02*
G54D11*
D03*
X1705650Y1098550D02*
G54D11*
D03*
X1718350Y844550D02*
G54D11*
D03*
X1510388Y831850D02*
G54D11*
D03*
X1540550Y531812D02*
G54D11*
D03*
X1762800Y538162D02*
G54D11*
D03*
X1762800Y557212D02*
G54D11*
D03*
X2207300Y538162D02*
G54D11*
D03*
X1553250Y1206500D02*
G54D11*
D03*
X1604050Y1206500D02*
G54D11*
D03*
X2156500Y1206500D02*
G54D11*
D03*
X1553250Y519112D02*
G54D11*
D03*
X1851700Y531812D02*
G54D11*
D03*
X2181900Y531812D02*
G54D11*
D03*
X1413550Y1181100D02*
G54D11*
D03*
X1578650Y1181100D02*
G54D11*
D03*
X2080300Y1162050D02*
G54D11*
D03*
X1629450Y946150D02*
G54D11*
D03*
X1527850Y933450D02*
G54D11*
D03*
X1565950Y588962D02*
G54D11*
D03*
X1565950Y506412D02*
G54D11*
D03*
X1286550Y569912D02*
G54D11*
D03*
G36*
X1289250Y656112D02*
X1309250Y656112D01*
X1309250Y636112D01*
X1289250Y636112D01*
X1289250Y656112D01*
G37*
X1324650Y646112D02*
G54D14*
D03*
X1350050Y646112D02*
G54D14*
D03*
X1375450Y646112D02*
G54D14*
D03*
X1400850Y646112D02*
G54D14*
D03*
X1426250Y646112D02*
G54D14*
D03*
X1451650Y646112D02*
G54D14*
D03*
X1477050Y646112D02*
G54D14*
D03*
G36*
X1289250Y598962D02*
X1309250Y598962D01*
X1309250Y578962D01*
X1289250Y578962D01*
X1289250Y598962D01*
G37*
X1324650Y588962D02*
G54D14*
D03*
X1350050Y588962D02*
G54D14*
D03*
X1375450Y588962D02*
G54D14*
D03*
X1400850Y588962D02*
G54D14*
D03*
X1426250Y588962D02*
G54D14*
D03*
X1451650Y588962D02*
G54D14*
D03*
X1477050Y588962D02*
G54D14*
D03*
X2758162Y582612D02*
G54D11*
D03*
X1688188Y307975D02*
G54D11*
D03*
X1400850Y320675D02*
G54D11*
D03*
X1413550Y506412D02*
G54D11*
D03*
X1311950Y506412D02*
G54D11*
D03*
X1675488Y174625D02*
G54D11*
D03*
X1675488Y155575D02*
G54D11*
D03*
X1675488Y136525D02*
G54D11*
D03*
X1654850Y933450D02*
G54D11*
D03*
X1565950Y919162D02*
G54D11*
D03*
X1591350Y601662D02*
G54D11*
D03*
X2778800Y595312D02*
G54D11*
D03*
X1375450Y307975D02*
G54D11*
D03*
X1699300Y290512D02*
G54D11*
D03*
X1629450Y1073150D02*
G54D11*
D03*
X1565950Y1073150D02*
G54D11*
D03*
X1610400Y614362D02*
G54D11*
D03*
X2791500Y614362D02*
G54D11*
D03*
X1483400Y900112D02*
G54D11*
D03*
X1604050Y887412D02*
G54D11*
D03*
X1661200Y717550D02*
G54D11*
D03*
X1661200Y652462D02*
G54D11*
D03*
X2797850Y692150D02*
G54D11*
D03*
X1496100Y231775D02*
G54D11*
D03*
X1712000Y231775D02*
G54D11*
D03*
X1718350Y174625D02*
G54D11*
D03*
X1451650Y895350D02*
G54D11*
D03*
X1616750Y747712D02*
G54D11*
D03*
X1318300Y747712D02*
G54D11*
D03*
X2802612Y736600D02*
G54D11*
D03*
X1997750Y550862D02*
G54D11*
D03*
X2016800Y333375D02*
G54D11*
D03*
X2099350Y307975D02*
G54D11*
D03*
X2061250Y187325D02*
G54D11*
D03*
X1816775Y203200D02*
G54D11*
D03*
X1502450Y946150D02*
G54D11*
D03*
X1565950Y946150D02*
G54D11*
D03*
X1591350Y754062D02*
G54D11*
D03*
X1362750Y747712D02*
G54D11*
D03*
X2810550Y766762D02*
G54D11*
D03*
X1185548Y678311D02*
G54D15*
D03*
X1185548Y576711D02*
G54D15*
D03*
X1210948Y678311D02*
G54D15*
D03*
X1210948Y576711D02*
G54D15*
D03*
X1236348Y678311D02*
G54D15*
D03*
X1236348Y576711D02*
G54D15*
D03*
X1986638Y569912D02*
G54D11*
D03*
X2010450Y442912D02*
G54D11*
D03*
X2124750Y442912D02*
G54D11*
D03*
X2124750Y333375D02*
G54D11*
D03*
X2093000Y333375D02*
G54D11*
D03*
X2080300Y200025D02*
G54D11*
D03*
X1845350Y193675D02*
G54D11*
D03*
X2275562Y354012D02*
G54D11*
D03*
X1699300Y174625D02*
G54D11*
D03*
X1699300Y250825D02*
G54D11*
D03*
X1451650Y263525D02*
G54D11*
D03*
X1553250Y735012D02*
G54D11*
D03*
X1413550Y735012D02*
G54D11*
D03*
X2828012Y703262D02*
G54D11*
D03*
X2004100Y581025D02*
G54D11*
D03*
X2029500Y390525D02*
G54D11*
D03*
X2099350Y390525D02*
G54D11*
D03*
X2042200Y212725D02*
G54D11*
D03*
X1858050Y206375D02*
G54D11*
D03*
X1604050Y912812D02*
G54D11*
D03*
X1521500Y906462D02*
G54D11*
D03*
X1489750Y1193800D02*
G54D11*
D03*
X1438950Y1193800D02*
G54D11*
D03*
X1527850Y741362D02*
G54D11*
D03*
X1464350Y741362D02*
G54D11*
D03*
X2840712Y722312D02*
G54D11*
D03*
X1985050Y593725D02*
G54D11*
D03*
X2029500Y415925D02*
G54D11*
D03*
X2080300Y415925D02*
G54D11*
D03*
X2080300Y379412D02*
G54D11*
D03*
X2067600Y225425D02*
G54D11*
D03*
X1877100Y206375D02*
G54D11*
D03*
X1788200Y938212D02*
G54D11*
D03*
X1775500Y792162D02*
G54D11*
D03*
X1458000Y792162D02*
G54D11*
D03*
X2543850Y341312D02*
G54D11*
D03*
X2683550Y341312D02*
G54D11*
D03*
X2148562Y320675D02*
G54D11*
D03*
X2124750Y257175D02*
G54D11*
D03*
X1908850Y271462D02*
G54D11*
D03*
X1800900Y1130300D02*
G54D11*
D03*
X1794550Y900112D02*
G54D11*
D03*
X2358112Y920750D02*
G54D11*
D03*
X2569250Y284162D02*
G54D11*
D03*
X1985050Y258762D02*
G54D11*
D03*
X1819950Y984250D02*
G54D11*
D03*
X1819950Y912812D02*
G54D11*
D03*
X2378750Y939800D02*
G54D11*
D03*
X2531150Y939800D02*
G54D11*
D03*
X2512100Y98425D02*
G54D11*
D03*
X1921550Y111125D02*
G54D11*
D03*
X1756450Y844550D02*
G54D11*
D03*
X2035850Y544512D02*
G54D11*
D03*
X2086650Y544512D02*
G54D15*
D03*
X2112050Y544512D02*
G54D15*
D03*
X1927900Y830262D02*
G54D11*
D03*
X1680250Y1073150D02*
G54D11*
D03*
X1654850Y1073150D02*
G54D11*
D03*
X1877100Y1111250D02*
G54D11*
D03*
X1877100Y1193800D02*
G54D11*
D03*
X1921550Y1193800D02*
G54D11*
D03*
X1942188Y1193800D02*
G54D11*
D03*
X1946950Y1333500D02*
G54D11*
D03*
X1960620Y1224732D02*
G54D15*
D03*
X1960620Y1123132D02*
G54D15*
D03*
X2594650Y1092200D02*
G54D11*
D03*
X2340650Y900112D02*
G54D11*
D03*
X2569250Y574675D02*
G54D15*
D03*
X2594650Y574675D02*
G54D15*
D03*
X1826300Y601662D02*
G54D11*
D03*
X2632750Y423862D02*
G54D11*
D03*
X1743750Y436562D02*
G54D11*
D03*
X1731050Y887412D02*
G54D11*
D03*
X2632750Y671512D02*
G54D11*
D03*
X2556550Y633412D02*
G54D11*
D03*
X2658150Y760412D02*
G54D11*
D03*
X2112050Y773112D02*
G54D11*
D03*
X2112050Y830262D02*
G54D11*
D03*
X1948538Y830262D02*
G54D11*
D03*
X1565950Y823912D02*
G54D16*
D03*
X1324650Y831850D02*
G54D16*
D03*
X1986020Y1224732D02*
G54D17*
D03*
X1986020Y1123132D02*
G54D17*
D03*
X2702600Y1054100D02*
G54D16*
D03*
X2683550Y415925D02*
G54D16*
D03*
X2112050Y415925D02*
G54D16*
D03*
X2112050Y347662D02*
G54D16*
D03*
X1991400Y333375D02*
G54D16*
D03*
X2143800Y1301750D02*
G54D16*
D03*
X1883450Y1301750D02*
G54D16*
D03*
X1654850Y1301750D02*
G54D16*
D03*
X1292900Y1065212D02*
G54D16*
D03*
X1292900Y889000D02*
G54D16*
D03*
X1242100Y882650D02*
G54D16*
D03*
X1216700Y703262D02*
G54D16*
D03*
X1299250Y671512D02*
G54D16*
D03*
X1292900Y481012D02*
G54D16*
D03*
X2143800Y766762D02*
G54D16*
D03*
X2512100Y766762D02*
G54D16*
D03*
X2512100Y652462D02*
G54D16*
D03*
X2861350Y652462D02*
G54D16*
D03*
X2486700Y447675D02*
G54D16*
D03*
X2924850Y271462D02*
G54D16*
D03*
X2683550Y271462D02*
G54D16*
D03*
X2874050Y895350D02*
G54D16*
D03*
X3013750Y895350D02*
G54D16*
D03*
X3123288Y493712D02*
G54D18*
D03*
X3171688Y493712D02*
G54D18*
D03*
X2878812Y487362D02*
G54D16*
D03*
X2937550Y377825D02*
G54D16*
D03*
X2994700Y550862D02*
G54D16*
D03*
X2620050Y487362D02*
G54D16*
D03*
X2696250Y487362D02*
G54D16*
D03*
X2594650Y404812D02*
G54D16*
D03*
X2402562Y404812D02*
G54D16*
D03*
X2354938Y649288D02*
G54D16*
D03*
X2302550Y649288D02*
G54D16*
D03*
X2594650Y85725D02*
G54D16*
D03*
X1292900Y71438D02*
G54D16*
D03*
X1299250Y193675D02*
G54D16*
D03*
X861100Y200025D02*
G54D16*
D03*
X841432Y243656D02*
G54D15*
D03*
X841432Y142057D02*
G54D15*
D03*
X2758953Y511361D02*
G54D15*
D03*
X2758953Y460561D02*
G54D15*
D03*
X2062041Y855849D02*
G54D17*
D03*
X2062041Y805048D02*
G54D17*
D03*
X2443041Y855849D02*
G54D15*
D03*
X2443041Y805048D02*
G54D15*
D03*
X2963363Y396795D02*
G54D15*
D03*
X2861763Y396795D02*
G54D15*
D03*
X2963363Y371395D02*
G54D15*
D03*
X2861763Y371395D02*
G54D15*
D03*
X2995639Y396555D02*
G54D15*
D03*
X2995639Y371155D02*
G54D15*
D03*
X2886750Y411162D02*
G54D16*
D03*
X2912150Y398462D02*
G54D16*
D03*
X3001050Y195262D02*
G54D16*
D03*
X1800900Y142875D02*
G54D16*
D03*
X3026450Y207962D02*
G54D16*
D03*
X2486700Y207962D02*
G54D16*
D03*
X2486700Y231775D02*
G54D16*
D03*
X2486700Y111125D02*
G54D16*
D03*
X1565950Y136525D02*
G54D16*
D03*
X1565950Y468312D02*
G54D16*
D03*
X3717012Y523875D02*
G54D16*
D03*
X3704312Y539750D02*
G54D16*
D03*
X2543850Y793750D02*
G54D16*
D03*
X2543850Y1225550D02*
G54D16*
D03*
X2188250Y1257300D02*
G54D16*
D03*
X2194600Y1136650D02*
G54D16*
D03*
X2062220Y1224732D02*
G54D15*
D03*
X2062220Y1123132D02*
G54D15*
D03*
X2975650Y762000D02*
G54D16*
D03*
X2975650Y563562D02*
G54D16*
D03*
X3070900Y563562D02*
G54D16*
D03*
X3140132Y462732D02*
G54D15*
D03*
X3140132Y361132D02*
G54D15*
D03*
X3166585Y462351D02*
G54D15*
D03*
X3166585Y360751D02*
G54D15*
D03*
X3185200Y339725D02*
G54D16*
D03*
X3140750Y227012D02*
G54D16*
D03*
X2499400Y73025D02*
G54D16*
D03*
X1337350Y71438D02*
G54D16*
D03*
X2735938Y1289050D02*
G54D17*
D03*
X2735938Y1187450D02*
G54D17*
D03*
X2480350Y901700D02*
G54D16*
D03*
X2480350Y79375D02*
G54D16*
D03*
X1827888Y104775D02*
G54D16*
D03*
X1553250Y98425D02*
G54D16*
D03*
X1553250Y487362D02*
G54D16*
D03*
X354688Y103188D02*
G54D16*
D03*
X342958Y243656D02*
G54D17*
D03*
X342958Y142057D02*
G54D17*
D03*
X419775Y479425D02*
G54D16*
D03*
X899200Y500062D02*
G54D16*
D03*
X407075Y1438275D02*
G54D19*
D03*
X445175Y1438275D02*
G54D19*
D03*
X483275Y1438275D02*
G54D19*
D03*
X521375Y1438275D02*
G54D19*
D03*
X559475Y1438275D02*
G54D19*
D03*
X597575Y1438275D02*
G54D19*
D03*
X635675Y1438275D02*
G54D19*
D03*
X673775Y1438275D02*
G54D19*
D03*
X711875Y1436688D02*
G54D19*
D03*
X749975Y1436688D02*
G54D19*
D03*
X388025Y1387475D02*
G54D19*
D03*
X426125Y1387475D02*
G54D19*
D03*
X464225Y1387475D02*
G54D19*
D03*
X502325Y1387475D02*
G54D19*
D03*
X540425Y1387475D02*
G54D19*
D03*
X578525Y1387475D02*
G54D19*
D03*
X616625Y1387475D02*
G54D19*
D03*
X654725Y1387475D02*
G54D19*
D03*
X692825Y1385888D02*
G54D19*
D03*
X730925Y1385888D02*
G54D19*
D03*
X769025Y1385888D02*
G54D19*
D03*
X1458000Y1308100D02*
G54D11*
D03*
X2696250Y773112D02*
G54D11*
D03*
X2467650Y792162D02*
G54D11*
D03*
X2448600Y79375D02*
G54D11*
D03*
X1318300Y85725D02*
G54D11*
D03*
X1305600Y320675D02*
G54D11*
D03*
X1109720Y461144D02*
G54D15*
D03*
X1109720Y359544D02*
G54D15*
D03*
X886500Y441325D02*
G54D19*
D03*
X696000Y517525D02*
G54D11*
D03*
X3053437Y633413D02*
G54D20*
D03*
X2758953Y679636D02*
G54D15*
D03*
X2758953Y628836D02*
G54D15*
D03*
X2150150Y601662D02*
G54D20*
D03*
X2277150Y671513D02*
G54D20*
D03*
X2842300Y671513D02*
G54D20*
D03*
X2602588Y487362D02*
G54D11*
D03*
X1832650Y530225D02*
G54D11*
D03*
X1832650Y1066800D02*
G54D11*
D03*
X1832650Y1219200D02*
G54D11*
D03*
X1680250Y1225550D02*
G54D11*
D03*
X1934250Y1225550D02*
G54D17*
D03*
X1934250Y1123950D02*
G54D17*
D03*
X2169200Y1136650D02*
G54D11*
D03*
X1877100Y123825D02*
G54D11*
D03*
X2061250Y123825D02*
G54D11*
D03*
X1756450Y1365250D02*
G54D11*
D03*
X2035850Y1365250D02*
G54D11*
D03*
X1839000Y1123950D02*
G54D11*
D03*
X1896150Y1314450D02*
G54D11*
D03*
X2035850Y1314450D02*
G54D11*
D03*
X2035850Y1225550D02*
G54D15*
D03*
X2035850Y1123950D02*
G54D15*
D03*
X1680250Y1163638D02*
G54D11*
D03*
X1819950Y1163638D02*
G54D11*
D03*
X1986020Y1154832D02*
G54D11*
D03*
X1997750Y1289050D02*
G54D11*
D03*
X2162850Y1276350D02*
G54D11*
D03*
X2010450Y1225550D02*
G54D15*
D03*
X2010450Y1123950D02*
G54D15*
D03*
X2061250Y1384300D02*
G54D11*
D03*
X1934250Y1384300D02*
G54D11*
D03*
X1908202Y1149030D02*
G54D17*
D03*
X1908202Y1123630D02*
G54D17*
D03*
X1946950Y1162050D02*
G54D11*
D03*
X1923138Y893762D02*
G54D11*
D03*
X2320012Y896938D02*
G54D11*
D03*
X2327950Y576262D02*
G54D11*
D03*
X2302550Y576262D02*
G54D11*
D03*
X2277150Y180975D02*
G54D11*
D03*
X2143800Y155575D02*
G54D11*
D03*
X2080300Y123825D02*
G54D11*
D03*
X1902500Y119062D02*
G54D11*
D03*
X1756450Y1174750D02*
G54D11*
D03*
X1781850Y1339850D02*
G54D11*
D03*
X1997750Y1339850D02*
G54D11*
D03*
X1750100Y474662D02*
G54D11*
D03*
X1623100Y474662D02*
G54D11*
D03*
X1623100Y220662D02*
G54D11*
D03*
X1924725Y220662D02*
G54D11*
D03*
X1553250Y1041400D02*
G54D20*
D03*
X1572300Y1041400D02*
G54D20*
D03*
X2061804Y1047431D02*
G54D15*
D03*
X2061804Y996632D02*
G54D15*
D03*
X1255354Y1015681D02*
G54D15*
D03*
X1255354Y964882D02*
G54D15*
D03*
X2556550Y1060450D02*
G54D20*
D03*
X2556550Y1041400D02*
G54D20*
D03*
X2442804Y1047431D02*
G54D15*
D03*
X2442804Y996632D02*
G54D15*
D03*
X2785150Y990600D02*
G54D20*
D03*
X3039150Y990600D02*
G54D20*
D03*
X3085188Y990600D02*
G54D20*
D03*
X2512100Y990600D02*
G54D20*
D03*
X1248450Y811212D02*
G54D21*
D03*
X1248450Y785812D02*
G54D21*
D03*
X1248450Y760412D02*
G54D21*
D03*
X1273850Y869950D02*
G54D20*
D03*
X1273850Y742950D02*
G54D20*
D03*
X1273850Y730250D02*
G54D20*
D03*
X1629450Y696912D02*
G54D20*
D03*
X1642150Y696912D02*
G54D20*
D03*
X1629450Y773112D02*
G54D20*
D03*
X1648500Y773112D02*
G54D20*
D03*
X1502450Y900112D02*
G54D11*
D03*
X1845350Y984250D02*
G54D11*
D03*
X1864400Y1238250D02*
G54D11*
D03*
X2258100Y1244600D02*
G54D11*
D03*
X1934250Y908050D02*
G54D11*
D03*
X2188250Y914400D02*
G54D11*
D03*
X2188250Y1098550D02*
G54D11*
D03*
X2220000Y1098550D02*
G54D11*
D03*
X1972350Y908050D02*
G54D11*
D03*
X2213650Y920750D02*
G54D11*
D03*
X2024738Y1104900D02*
G54D11*
D03*
X2226350Y1143000D02*
G54D11*
D03*
X2004100Y1149350D02*
G54D11*
D03*
X2029500Y1149350D02*
G54D11*
D03*
X2023150Y1252538D02*
G54D11*
D03*
X2213650Y1282700D02*
G54D11*
D03*
X2213650Y1485900D02*
G54D11*
D03*
X2745462Y1462088D02*
G54D11*
D03*
X2374146Y1383181D02*
G54D22*
D03*
X2401847Y1383181D02*
G54D22*
D03*
X2429943Y1383181D02*
G54D22*
D03*
X2457246Y1383181D02*
G54D22*
D03*
X2386155Y1410378D02*
G54D22*
D03*
X2413755Y1410175D02*
G54D22*
D03*
X2441356Y1410378D02*
G54D22*
D03*
X2469352Y1410378D02*
G54D22*
D03*
X2484740Y1383175D02*
G54D22*
D03*
X2554760Y1397278D02*
G54D23*
D03*
X2304753Y1397278D02*
G54D24*
D03*
X2705934Y1383181D02*
G54D22*
D03*
X2733635Y1383181D02*
G54D22*
D03*
X2761731Y1383181D02*
G54D22*
D03*
X2789034Y1383181D02*
G54D22*
D03*
X2717943Y1410378D02*
G54D22*
D03*
X2745543Y1410175D02*
G54D22*
D03*
X2773144Y1410378D02*
G54D22*
D03*
X2801140Y1410378D02*
G54D22*
D03*
X2816528Y1383175D02*
G54D22*
D03*
X2886547Y1397278D02*
G54D23*
D03*
X2636541Y1397278D02*
G54D24*
D03*
X1870750Y1322388D02*
G54D11*
D03*
X2131100Y1327150D02*
G54D11*
D03*
X2137450Y354012D02*
G54D11*
D03*
X1908850Y366712D02*
G54D11*
D03*
X2137450Y869950D02*
G54D11*
D03*
X2231112Y920750D02*
G54D11*
D03*
X2251750Y900112D02*
G54D11*
D03*
X2277150Y896938D02*
G54D11*
D03*
X2150150Y404812D02*
G54D11*
D03*
X1908850Y404812D02*
G54D11*
D03*
X2327950Y404812D02*
G54D11*
D03*
X2315250Y263525D02*
G54D11*
D03*
X2176473Y258404D02*
G54D15*
D03*
X2176473Y233004D02*
G54D15*
D03*
X2251750Y360362D02*
G54D11*
D03*
X1978700Y366712D02*
G54D11*
D03*
X2442250Y531812D02*
G54D11*
D03*
X2277150Y538162D02*
G54D11*
D03*
X2315250Y1149350D02*
G54D11*
D03*
G36*
X2515590Y1114830D02*
X2495590Y1114830D01*
X2495590Y1134830D01*
X2515590Y1134830D01*
X2515590Y1114830D01*
G37*
X2480190Y1124830D02*
G54D14*
D03*
X2454790Y1124829D02*
G54D14*
D03*
X2429390Y1124830D02*
G54D14*
D03*
X2403990Y1124829D02*
G54D14*
D03*
X2378590Y1124829D02*
G54D14*
D03*
X2378750Y1150938D02*
G54D14*
D03*
X2404150Y1150938D02*
G54D25*
D03*
X2429550Y1150938D02*
G54D14*
D03*
X2454950Y1150938D02*
G54D14*
D03*
X2480350Y1150938D02*
G54D14*
D03*
X2327950Y1098550D02*
G54D11*
D03*
X2480350Y1098550D02*
G54D11*
D03*
X2353350Y1098550D02*
G54D11*
D03*
X2429550Y1098550D02*
G54D11*
D03*
X2347000Y1019175D02*
G54D11*
D03*
X2429550Y1016000D02*
G54D11*
D03*
G36*
X2388590Y1267230D02*
X2368590Y1267230D01*
X2368590Y1287230D01*
X2388590Y1287230D01*
X2388590Y1267230D01*
G37*
X2353190Y1277230D02*
G54D14*
D03*
X2327790Y1277229D02*
G54D14*
D03*
X2302390Y1277230D02*
G54D14*
D03*
X2276990Y1277229D02*
G54D14*
D03*
X2251590Y1277229D02*
G54D14*
D03*
X2251750Y1303338D02*
G54D14*
D03*
X2277150Y1303338D02*
G54D14*
D03*
X2302550Y1303338D02*
G54D14*
D03*
X2327950Y1303338D02*
G54D14*
D03*
X2353350Y1303338D02*
G54D14*
D03*
X2443838Y1303338D02*
G54D14*
D03*
X2469238Y1303338D02*
G54D14*
D03*
X2494638Y1303338D02*
G54D14*
D03*
X2520038Y1303338D02*
G54D14*
D03*
X2545438Y1303338D02*
G54D14*
D03*
G36*
X2407758Y1287008D02*
X2427758Y1287008D01*
X2427758Y1267008D01*
X2407758Y1267008D01*
X2407758Y1287008D01*
G37*
X2443158Y1277008D02*
G54D14*
D03*
X2468558Y1277008D02*
G54D14*
D03*
X2493958Y1277008D02*
G54D14*
D03*
X2519358Y1277008D02*
G54D14*
D03*
X2544758Y1277008D02*
G54D14*
D03*
X2239050Y1123950D02*
G54D14*
D03*
X2340650Y1123950D02*
G54D14*
D03*
X2326362Y1136650D02*
G54D11*
D03*
X2334300Y1079500D02*
G54D11*
D03*
X2821662Y1233488D02*
G54D11*
D03*
X2474000Y1079500D02*
G54D11*
D03*
X2454950Y123825D02*
G54D11*
D03*
X2195240Y1324419D02*
G54D14*
D03*
X2195240Y1426019D02*
G54D14*
D03*
X2231112Y1473200D02*
G54D11*
D03*
X2131100Y1174750D02*
G54D11*
D03*
X2054900Y244475D02*
G54D11*
D03*
X1748512Y233362D02*
G54D11*
D03*
X2239050Y1098550D02*
G54D11*
D03*
X2150150Y1092200D02*
G54D11*
D03*
X2181900Y595312D02*
G54D11*
D03*
X2258100Y741362D02*
G54D15*
D03*
X2283500Y741362D02*
G54D15*
D03*
X2251750Y652462D02*
G54D11*
D03*
X2421612Y652462D02*
G54D11*
D03*
X2421612Y747712D02*
G54D11*
D03*
X2899450Y755650D02*
G54D11*
D03*
X2886750Y696912D02*
G54D15*
D03*
X2988350Y696912D02*
G54D15*
D03*
X2886750Y612775D02*
G54D15*
D03*
X2988350Y612775D02*
G54D15*
D03*
X2842300Y612775D02*
G54D11*
D03*
X2353350Y576262D02*
G54D15*
D03*
X2404150Y576262D02*
G54D15*
D03*
X2353350Y544512D02*
G54D15*
D03*
X2404150Y544512D02*
G54D15*
D03*
X2328363Y544432D02*
G54D15*
D03*
X2226763Y544432D02*
G54D15*
D03*
X2226350Y434975D02*
G54D11*
D03*
X2435900Y430212D02*
G54D11*
D03*
G36*
X2718790Y1176742D02*
X2698790Y1176742D01*
X2698790Y1196742D01*
X2718790Y1196742D01*
X2718790Y1176742D01*
G37*
X2683390Y1186742D02*
G54D14*
D03*
X2657990Y1186742D02*
G54D14*
D03*
X2632590Y1186742D02*
G54D14*
D03*
X2607190Y1186742D02*
G54D14*
D03*
X2581790Y1186742D02*
G54D14*
D03*
X2289850Y1022350D02*
G54D11*
D03*
X2581950Y1028700D02*
G54D11*
D03*
X2435900Y958850D02*
G54D11*
D03*
X2504162Y958850D02*
G54D11*
D03*
X2518450Y1187450D02*
G54D11*
D03*
X3421738Y1149350D02*
G54D11*
D03*
X2518450Y869950D02*
G54D11*
D03*
X2537500Y1016000D02*
G54D11*
D03*
X2962950Y1022350D02*
G54D11*
D03*
X2251750Y1460500D02*
G54D11*
D03*
X2683550Y1460500D02*
G54D11*
D03*
X2683550Y1354138D02*
G54D26*
D03*
X2118400Y1225550D02*
G54D26*
D03*
X2023150Y244475D02*
G54D26*
D03*
X1729462Y244475D02*
G54D26*
D03*
X2296200Y1149350D02*
G54D26*
D03*
X2270800Y1447800D02*
G54D26*
D03*
X2118400Y1149350D02*
G54D26*
D03*
X2048550Y295275D02*
G54D26*
D03*
X1794550Y295275D02*
G54D26*
D03*
X1819950Y322262D02*
G54D26*
D03*
X2042200Y322262D02*
G54D26*
D03*
X2107288Y1238250D02*
G54D26*
D03*
X2340650Y1430338D02*
G54D26*
D03*
X2658150Y1009650D02*
G54D26*
D03*
X2683550Y1009650D02*
G54D26*
D03*
X2581950Y1214438D02*
G54D14*
D03*
X2607350Y1214438D02*
G54D14*
D03*
X2632750Y1214438D02*
G54D14*
D03*
X2658150Y1214438D02*
G54D14*
D03*
X2683550Y1214438D02*
G54D14*
D03*
X3032800Y1214438D02*
G54D20*
D03*
X3051850Y1214438D02*
G54D20*
D03*
X2758162Y1289050D02*
G54D15*
D03*
X2758162Y1187450D02*
G54D15*
D03*
X2785150Y1289050D02*
G54D17*
D03*
X2785150Y1187450D02*
G54D17*
D03*
X2988350Y1009650D02*
G54D11*
D03*
X3064550Y1066800D02*
G54D11*
D03*
X2702600Y1073150D02*
G54D11*
D03*
X3045500Y869950D02*
G54D11*
D03*
X3205641Y870146D02*
G54D11*
D03*
X3231238Y1354138D02*
G54D11*
D03*
X3135988Y1354138D02*
G54D11*
D03*
X2937550Y1341438D02*
G54D11*
D03*
X3116938Y1347788D02*
G54D11*
D03*
X3256638Y1341438D02*
G54D11*
D03*
X3218538Y844550D02*
G54D11*
D03*
X2899450Y920750D02*
G54D11*
D03*
X3218341Y946346D02*
G54D11*
D03*
X2874050Y939800D02*
G54D11*
D03*
X3243938Y971550D02*
G54D11*
D03*
X2861350Y1028700D02*
G54D11*
D03*
X3294541Y1022546D02*
G54D11*
D03*
X2835950Y1054100D02*
G54D11*
D03*
X3275688Y1060450D02*
G54D11*
D03*
X3269338Y996950D02*
G54D11*
D03*
X3396141Y1124146D02*
G54D11*
D03*
X2759750Y1079500D02*
G54D11*
D03*
X3370938Y1098550D02*
G54D11*
D03*
X2734350Y1041400D02*
G54D11*
D03*
X3319941Y1047946D02*
G54D11*
D03*
X2704188Y1271588D02*
G54D11*
D03*
X3345538Y1136650D02*
G54D11*
D03*
X2848650Y1092200D02*
G54D11*
D03*
X2848650Y1187450D02*
G54D11*
D03*
X3472538Y1200150D02*
G54D11*
D03*
X2689900Y908050D02*
G54D11*
D03*
X3192941Y895546D02*
G54D11*
D03*
X2620050Y938212D02*
G54D11*
D03*
X3205838Y920750D02*
G54D11*
D03*
X3104238Y1322388D02*
G54D11*
D03*
X3129638Y1322388D02*
G54D11*
D03*
X3104238Y1296988D02*
G54D11*
D03*
X3148688Y1296988D02*
G54D11*
D03*
X4126588Y1374775D02*
G54D19*
D03*
X4172625Y1374775D02*
G54D19*
D03*
X2761338Y704850D02*
G54D11*
D03*
X2366050Y1041400D02*
G54D11*
D03*
X2093000Y1187450D02*
G54D11*
D03*
X2093000Y1219200D02*
G54D11*
D03*
X2016800Y644525D02*
G54D11*
D03*
X1527850Y633412D02*
G54D11*
D03*
X1534200Y128588D02*
G54D11*
D03*
X1992988Y652462D02*
G54D11*
D03*
X1508800Y646112D02*
G54D11*
D03*
X1508800Y136525D02*
G54D11*
D03*
X1826300Y481012D02*
G54D11*
D03*
X2315250Y455612D02*
G54D11*
D03*
X1794550Y487362D02*
G54D11*
D03*
X2334300Y449262D02*
G54D11*
D03*
X1807250Y500062D02*
G54D11*
D03*
X2359700Y461962D02*
G54D11*
D03*
X1845350Y500062D02*
G54D11*
D03*
X2378750Y468312D02*
G54D11*
D03*
X1864400Y284162D02*
G54D11*
D03*
X1781850Y474662D02*
G54D11*
D03*
X2372400Y442912D02*
G54D11*
D03*
X1870750Y500062D02*
G54D11*
D03*
X1886625Y493712D02*
G54D11*
D03*
X2340650Y493712D02*
G54D11*
D03*
X2391450Y493712D02*
G54D11*
D03*
X3088362Y582612D02*
G54D21*
D03*
X3205838Y582612D02*
G54D21*
D03*
X2008862Y309562D02*
G54D11*
D03*
X2176341Y366898D02*
G54D15*
D03*
X2176341Y316098D02*
G54D15*
D03*
X2176341Y204973D02*
G54D15*
D03*
X2176341Y154173D02*
G54D15*
D03*
X2512100Y1409700D02*
G54D20*
D03*
X1813600Y384175D02*
G54D27*
D03*
X1881862Y384175D02*
G54D27*
D03*
X1894562Y384175D02*
G54D27*
D03*
X1342112Y1392238D02*
G54D27*
D03*
X1324650Y1392238D02*
G54D27*
D03*
X1307188Y1392238D02*
G54D27*
D03*
X1273850Y77788D02*
G54D27*
D03*
X2924850Y1258888D02*
G54D11*
D03*
X2924850Y506412D02*
G54D11*
D03*
X2726412Y487362D02*
G54D11*
D03*
X2708950Y415925D02*
G54D11*
D03*
G36*
X2546550Y389412D02*
X2566550Y389412D01*
X2566550Y369412D01*
X2546550Y369412D01*
X2546550Y389412D01*
G37*
X2581950Y379412D02*
G54D14*
D03*
X2607350Y379412D02*
G54D14*
D03*
X2632750Y379412D02*
G54D14*
D03*
X2658150Y379412D02*
G54D14*
D03*
X2683550Y379412D02*
G54D14*
D03*
X2708950Y379412D02*
G54D14*
D03*
X2734350Y379412D02*
G54D14*
D03*
X2556550Y244475D02*
G54D11*
D03*
X4034512Y244475D02*
G54D11*
D03*
X4047212Y231775D02*
G54D11*
D03*
X4059912Y219075D02*
G54D11*
D03*
X4085312Y133350D02*
G54D11*
D03*
X4021812Y255588D02*
G54D11*
D03*
X4009112Y268288D02*
G54D11*
D03*
X3996412Y280988D02*
G54D11*
D03*
X2581950Y250825D02*
G54D11*
D03*
X2607350Y257175D02*
G54D11*
D03*
X2632750Y263525D02*
G54D11*
D03*
G36*
X2876750Y745012D02*
X2896750Y745012D01*
X2896750Y725012D01*
X2876750Y725012D01*
X2876750Y745012D01*
G37*
X2912150Y735012D02*
G54D14*
D03*
X2937550Y735012D02*
G54D14*
D03*
X2962950Y735012D02*
G54D14*
D03*
X2988350Y735012D02*
G54D14*
D03*
X3013750Y735012D02*
G54D14*
D03*
X3039150Y735012D02*
G54D14*
D03*
X3064550Y735012D02*
G54D14*
D03*
X3058200Y830262D02*
G54D11*
D03*
X3064550Y677862D02*
G54D11*
D03*
X3729712Y557212D02*
G54D11*
D03*
X3742412Y576262D02*
G54D11*
D03*
X3077250Y793750D02*
G54D11*
D03*
X3077250Y844550D02*
G54D11*
D03*
X3691612Y92075D02*
G54D11*
D03*
X2531150Y550862D02*
G54D11*
D03*
X2899450Y582612D02*
G54D11*
D03*
X2861350Y831850D02*
G54D11*
D03*
X2499400Y831850D02*
G54D11*
D03*
X2485112Y1322388D02*
G54D11*
D03*
X2429550Y1322388D02*
G54D11*
D03*
X2431138Y1255712D02*
G54D11*
D03*
X2531150Y1104900D02*
G54D11*
D03*
X2721650Y1092200D02*
G54D11*
D03*
X2766100Y785812D02*
G54D11*
D03*
X2950250Y563562D02*
G54D11*
D03*
X2518450Y525462D02*
G54D11*
D03*
X2512100Y550862D02*
G54D11*
D03*
X3026450Y582612D02*
G54D11*
D03*
X3032800Y474662D02*
G54D11*
D03*
X3120112Y431800D02*
G54D11*
D03*
X3115350Y214312D02*
G54D11*
D03*
X2632750Y220662D02*
G54D11*
D03*
X2950250Y1322388D02*
G54D11*
D03*
X3031212Y850900D02*
G54D11*
D03*
X3008988Y1258888D02*
G54D11*
D03*
X2397800Y1250950D02*
G54D11*
D03*
X3818612Y104775D02*
G54D11*
D03*
X3804325Y92075D02*
G54D11*
D03*
X3831312Y115888D02*
G54D11*
D03*
X3844012Y130175D02*
G54D11*
D03*
X3856712Y142875D02*
G54D11*
D03*
X3869412Y155575D02*
G54D11*
D03*
X3882112Y168275D02*
G54D11*
D03*
X3983712Y180975D02*
G54D11*
D03*
X3971012Y193675D02*
G54D11*
D03*
X3958312Y206375D02*
G54D11*
D03*
X3945612Y307975D02*
G54D11*
D03*
X3932912Y296862D02*
G54D11*
D03*
X3920212Y284162D02*
G54D11*
D03*
X3907512Y271462D02*
G54D11*
D03*
X3894812Y327025D02*
G54D11*
D03*
X1885038Y404812D02*
G54D11*
D03*
X1578650Y428625D02*
G54D11*
D03*
X1578650Y111125D02*
G54D11*
D03*
X1426663Y290432D02*
G54D15*
D03*
X1325063Y290432D02*
G54D15*
D03*
X1845350Y277812D02*
G54D11*
D03*
X1878688Y271462D02*
G54D11*
D03*
X1521500Y265112D02*
G54D11*
D03*
X1521500Y92075D02*
G54D11*
D03*
X395962Y90488D02*
G54D11*
D03*
X395345Y243656D02*
G54D17*
D03*
X395345Y142057D02*
G54D17*
D03*
X1299250Y339725D02*
G54D11*
D03*
X1605638Y339725D02*
G54D11*
D03*
X1611988Y206375D02*
G54D11*
D03*
X1762800Y206375D02*
G54D11*
D03*
X1210350Y385762D02*
G54D11*
D03*
X1184950Y149225D02*
G54D11*
D03*
X1786612Y187325D02*
G54D11*
D03*
X1375450Y398462D02*
G54D11*
D03*
X1591350Y398462D02*
G54D11*
D03*
X1591350Y193675D02*
G54D11*
D03*
X1748512Y193675D02*
G54D11*
D03*
X1191300Y398462D02*
G54D11*
D03*
X1172250Y168275D02*
G54D11*
D03*
X1159550Y373062D02*
G54D11*
D03*
X1146850Y142875D02*
G54D11*
D03*
X1172250Y423862D02*
G54D11*
D03*
X1159550Y122238D02*
G54D11*
D03*
X212782Y243656D02*
G54D17*
D03*
X212782Y142057D02*
G54D17*
D03*
X930332Y243656D02*
G54D15*
D03*
X930332Y142057D02*
G54D15*
D03*
X1008120Y243656D02*
G54D15*
D03*
X1008120Y142057D02*
G54D15*
D03*
X1084320Y243656D02*
G54D15*
D03*
X1084320Y142057D02*
G54D15*
D03*
X879532Y243656D02*
G54D15*
D03*
X879532Y142057D02*
G54D15*
D03*
X955732Y243656D02*
G54D15*
D03*
X955732Y142057D02*
G54D15*
D03*
X1033520Y243656D02*
G54D15*
D03*
X1033520Y142057D02*
G54D15*
D03*
X904932Y243656D02*
G54D15*
D03*
X904932Y142057D02*
G54D15*
D03*
X981132Y243656D02*
G54D15*
D03*
X981132Y142057D02*
G54D15*
D03*
X1058920Y243656D02*
G54D17*
D03*
X1058920Y142057D02*
G54D17*
D03*
X890344Y322881D02*
G54D15*
D03*
X890344Y297481D02*
G54D15*
D03*
X968132Y322881D02*
G54D15*
D03*
X968132Y297481D02*
G54D15*
D03*
X1045919Y322881D02*
G54D15*
D03*
X1045919Y297481D02*
G54D15*
D03*
X765232Y397644D02*
G54D15*
D03*
X765232Y296044D02*
G54D15*
D03*
X790632Y397644D02*
G54D15*
D03*
X790632Y296044D02*
G54D15*
D03*
X815617Y347344D02*
G54D17*
D03*
X815617Y296544D02*
G54D17*
D03*
X842604Y347344D02*
G54D15*
D03*
X842604Y296544D02*
G54D15*
D03*
X815732Y397493D02*
G54D15*
D03*
X815732Y372093D02*
G54D15*
D03*
X918250Y180975D02*
G54D11*
D03*
X994450Y193675D02*
G54D11*
D03*
X1070650Y180975D02*
G54D11*
D03*
X1082732Y461144D02*
G54D15*
D03*
X1082732Y359544D02*
G54D15*
D03*
X1057332Y461144D02*
G54D15*
D03*
X1057332Y359544D02*
G54D15*
D03*
X1033520Y461144D02*
G54D15*
D03*
X1033520Y359544D02*
G54D15*
D03*
X1000800Y595312D02*
G54D17*
D03*
X1038900Y595312D02*
G54D17*
D03*
X1019850Y576262D02*
G54D17*
D03*
X1000800Y544512D02*
G54D17*
D03*
X1038900Y544512D02*
G54D17*
D03*
X1019850Y525462D02*
G54D17*
D03*
X1070650Y544512D02*
G54D17*
D03*
X1108750Y544512D02*
G54D17*
D03*
X1089700Y525462D02*
G54D17*
D03*
X962545Y396714D02*
G54D17*
D03*
X962545Y434814D02*
G54D17*
D03*
X981595Y415763D02*
G54D17*
D03*
X867295Y360201D02*
G54D17*
D03*
X867295Y398301D02*
G54D17*
D03*
X886345Y379251D02*
G54D17*
D03*
X1008120Y461144D02*
G54D15*
D03*
X1008120Y359544D02*
G54D15*
D03*
X1159550Y608012D02*
G54D14*
D03*
X956350Y595312D02*
G54D11*
D03*
X956350Y576262D02*
G54D11*
D03*
X924600Y563562D02*
G54D11*
D03*
X911900Y358775D02*
G54D11*
D03*
X791250Y249238D02*
G54D11*
D03*
X783312Y142875D02*
G54D11*
D03*
X803950Y219075D02*
G54D11*
D03*
X815062Y238125D02*
G54D11*
D03*
X611245Y397644D02*
G54D15*
D03*
X611245Y296044D02*
G54D15*
D03*
X457875Y71438D02*
G54D27*
D03*
X432475Y192088D02*
G54D20*
D03*
X432475Y179388D02*
G54D20*
D03*
X662274Y250422D02*
G54D15*
D03*
X611474Y250422D02*
G54D15*
D03*
X1121450Y219075D02*
G54D20*
D03*
X1121450Y193675D02*
G54D20*
D03*
X1096050Y842962D02*
G54D28*
D03*
X1172250Y842962D02*
G54D28*
D03*
X962700Y517525D02*
G54D19*
D03*
X451525Y542925D02*
G54D11*
D03*
X445175Y511175D02*
G54D20*
D03*
X1102400Y1047750D02*
G54D20*
D03*
X1146850Y1047750D02*
G54D20*
D03*
X1070650Y895350D02*
G54D29*
D03*
X1084019Y297481D02*
G54D15*
D03*
X1084019Y322881D02*
G54D15*
D03*
X1006826Y297481D02*
G54D15*
D03*
X1006826Y322881D02*
G54D15*
D03*
X930032Y297481D02*
G54D15*
D03*
X930032Y322881D02*
G54D15*
D03*
X265913Y384083D02*
G54D15*
D03*
X265913Y358683D02*
G54D15*
D03*
X1070650Y1295400D02*
G54D15*
D03*
X1045250Y1295400D02*
G54D15*
D03*
X1228350Y965046D02*
G54D30*
D03*
X1228350Y990446D02*
G54D30*
D03*
X1642060Y384175D02*
G54D30*
D03*
X1642060Y409575D02*
G54D30*
D03*
X1103988Y588962D02*
G54D15*
D03*
X1078588Y588962D02*
G54D15*
D03*
X2448218Y475506D02*
G54D14*
D03*
X2448218Y500906D02*
G54D14*
D03*
X2448218Y640069D02*
G54D30*
D03*
X2448218Y665468D02*
G54D30*
D03*
X2765718Y818406D02*
G54D14*
D03*
X2765718Y843806D02*
G54D14*
D03*
X3051347Y1400175D02*
G54D30*
D03*
X3051346Y1374775D02*
G54D30*
D03*
X3089180Y455612D02*
G54D30*
D03*
X3089179Y430213D02*
G54D30*
D03*
X2963010Y659020D02*
G54D30*
D03*
X2988410Y659020D02*
G54D30*
D03*
X4178975Y1433012D02*
G54D30*
D03*
X4153575Y1433012D02*
G54D30*
D03*
X431442Y345757D02*
G54D17*
D03*
X431442Y294956D02*
G54D17*
D03*
X200700Y346076D02*
G54D15*
D03*
X200700Y371475D02*
G54D15*
D03*
X265836Y320381D02*
G54D15*
D03*
X265836Y294981D02*
G54D15*
D03*
X200700Y295276D02*
G54D15*
D03*
X200700Y320675D02*
G54D15*
D03*
X226654Y345757D02*
G54D17*
D03*
X226654Y294956D02*
G54D17*
D03*
X226100Y398462D02*
G54D15*
D03*
X226100Y373064D02*
G54D15*
D03*
X238182Y243656D02*
G54D17*
D03*
X238182Y142057D02*
G54D17*
D03*
X295950Y396875D02*
G54D11*
D03*
X981750Y481012D02*
G54D11*
D03*
X482242Y345757D02*
G54D17*
D03*
X482242Y294956D02*
G54D17*
D03*
X368358Y243656D02*
G54D17*
D03*
X368358Y142057D02*
G54D17*
D03*
X263582Y243656D02*
G54D17*
D03*
X263582Y142057D02*
G54D17*
D03*
X290570Y243656D02*
G54D17*
D03*
X290570Y142057D02*
G54D17*
D03*
X176270Y267469D02*
G54D17*
D03*
X176270Y165869D02*
G54D17*
D03*
X315970Y243656D02*
G54D17*
D03*
X315970Y142057D02*
G54D17*
D03*
X295950Y344488D02*
G54D11*
D03*
X419775Y392112D02*
G54D11*
D03*
X962700Y466725D02*
G54D11*
D03*
X343575Y346075D02*
G54D11*
D03*
X509229Y345757D02*
G54D17*
D03*
X509229Y294956D02*
G54D17*
D03*
X534629Y345757D02*
G54D17*
D03*
X534629Y294956D02*
G54D17*
D03*
X560029Y345757D02*
G54D17*
D03*
X560029Y294956D02*
G54D17*
D03*
X560029Y421957D02*
G54D17*
D03*
X560029Y371156D02*
G54D17*
D03*
X483275Y396875D02*
G54D15*
D03*
X483275Y371476D02*
G54D15*
D03*
X508675Y396875D02*
G54D15*
D03*
X508675Y371476D02*
G54D15*
D03*
X534075Y396875D02*
G54D15*
D03*
X534075Y371476D02*
G54D15*
D03*
X587432Y397644D02*
G54D15*
D03*
X587432Y296044D02*
G54D15*
D03*
X687445Y397644D02*
G54D15*
D03*
X687445Y296044D02*
G54D15*
D03*
X714432Y397644D02*
G54D15*
D03*
X714432Y296044D02*
G54D15*
D03*
X739832Y397644D02*
G54D15*
D03*
X739832Y296044D02*
G54D15*
D03*
X636645Y397644D02*
G54D15*
D03*
X636645Y296044D02*
G54D15*
D03*
X662045Y397644D02*
G54D15*
D03*
X662045Y296044D02*
G54D15*
D03*
X572175Y314325D02*
G54D11*
D03*
X726162Y263525D02*
G54D11*
D03*
X481688Y134938D02*
G54D11*
D03*
X937300Y415925D02*
G54D11*
D03*
X1146850Y415925D02*
G54D11*
D03*
X508675Y516712D02*
G54D18*
D03*
X508675Y468312D02*
G54D18*
D03*
X600750Y434975D02*
G54D21*
D03*
X599162Y550863D02*
G54D21*
D03*
X368358Y659582D02*
G54D15*
D03*
X368358Y557982D02*
G54D15*
D03*
X342958Y659582D02*
G54D15*
D03*
X342958Y557982D02*
G54D15*
D03*
X149282Y267469D02*
G54D15*
D03*
X149282Y165869D02*
G54D15*
D03*
X122295Y267469D02*
G54D15*
D03*
X122295Y165869D02*
G54D15*
D03*
X149282Y396056D02*
G54D15*
D03*
X149282Y294457D02*
G54D15*
D03*
X176270Y396056D02*
G54D17*
D03*
X176270Y294457D02*
G54D17*
D03*
X427095Y659582D02*
G54D15*
D03*
X427095Y557982D02*
G54D15*
D03*
X317558Y659582D02*
G54D15*
D03*
X317558Y557982D02*
G54D15*
D03*
X290570Y659582D02*
G54D15*
D03*
X290570Y557982D02*
G54D15*
D03*
X187382Y665932D02*
G54D15*
D03*
X187382Y564332D02*
G54D15*
D03*
X214370Y665932D02*
G54D15*
D03*
X214370Y564332D02*
G54D15*
D03*
X239770Y665932D02*
G54D15*
D03*
X239770Y564331D02*
G54D15*
D03*
X98406Y568930D02*
G54D31*
D03*
X98406Y619730D02*
G54D31*
D03*
X149206Y568930D02*
G54D31*
D03*
X149206Y619731D02*
G54D31*
D03*
X188000Y538162D02*
G54D15*
D03*
X238800Y538162D02*
G54D15*
D03*
X625116Y780731D02*
G54D32*
D03*
X625116Y729931D02*
G54D32*
D03*
X561972Y730824D02*
G54D33*
D03*
X561972Y781624D02*
G54D33*
D03*
X783866Y1001394D02*
G54D32*
D03*
X783866Y950594D02*
G54D32*
D03*
X502325Y800100D02*
G54D20*
D03*
X489625Y787400D02*
G54D20*
D03*
X464225Y633412D02*
G54D20*
D03*
X97804Y767830D02*
G54D33*
D03*
X97804Y717030D02*
G54D33*
D03*
X226392Y767830D02*
G54D33*
D03*
X226392Y717030D02*
G54D33*
D03*
X529312Y685800D02*
G54D19*
D03*
X529312Y569912D02*
G54D19*
D03*
X783516Y1151121D02*
G54D30*
D03*
X783516Y1176521D02*
G54D30*
D03*
X880150Y768350D02*
G54D28*
D03*
X905550Y768350D02*
G54D28*
D03*
X930950Y768350D02*
G54D28*
D03*
X928902Y1288120D02*
G54D28*
D03*
X903502Y1288120D02*
G54D28*
D03*
X878102Y1288120D02*
G54D28*
D03*
G54D34*
G75*
G01X926188Y1103313D02*
G03X926188Y1103313I-20638J0D01*
G01*
X1050982Y805631D02*
G54D35*
D03*
X1050982Y754831D02*
G54D35*
D03*
X1076382Y805631D02*
G54D35*
D03*
X1076382Y754831D02*
G54D35*
D03*
X1101782Y805631D02*
G54D35*
D03*
X1101782Y754831D02*
G54D35*
D03*
X1127182Y805631D02*
G54D35*
D03*
X1127182Y754831D02*
G54D35*
D03*
X1102400Y722312D02*
G54D36*
D03*
X1102400Y687388D02*
G54D19*
D03*
X400725Y804862D02*
G54D19*
D03*
X348338Y703262D02*
G54D19*
D03*
X451525Y703262D02*
G54D19*
D03*
X753150Y787400D02*
G54D37*
D03*
X803950Y787400D02*
G54D37*
D03*
X1165900Y1385888D02*
G54D38*
D03*
X1121450Y1343025D02*
G54D38*
D03*
X1210350Y1343025D02*
G54D38*
D03*
X891262Y1481138D02*
G54D19*
D03*
X992862Y1481138D02*
G54D19*
D03*
X865862Y1387475D02*
G54D19*
D03*
X942062Y1387475D02*
G54D19*
D03*
X1018262Y1387475D02*
G54D19*
D03*
X891262Y1362075D02*
G54D19*
D03*
X992862Y1362075D02*
G54D19*
D03*
X289600Y1220788D02*
G54D39*
D03*
X340400Y1220788D02*
G54D39*
D03*
X542012Y1220788D02*
G54D39*
D03*
X591225Y1220788D02*
G54D39*
D03*
X291188Y908050D02*
G54D39*
D03*
X591225Y908050D02*
G54D39*
D03*
X392788Y939800D02*
G54D39*
D03*
X542012Y939800D02*
G54D39*
D03*
X270550Y1322388D02*
G54D39*
D03*
X18138Y1290638D02*
G54D39*
D03*
X43538Y1177925D02*
G54D39*
D03*
X43538Y1127125D02*
G54D40*
D03*
X43538Y1011238D02*
G54D40*
D03*
X43538Y960438D02*
G54D40*
D03*
X64175Y525462D02*
G54D39*
D03*
X64175Y474662D02*
G54D40*
D03*
X64175Y358775D02*
G54D40*
D03*
X64175Y307975D02*
G54D40*
D03*
X253088Y869950D02*
G54D41*
D03*
X3116938Y1466850D02*
G54D42*
D03*
X3142338Y1466850D02*
G54D42*
D03*
X3167738Y1466850D02*
G54D42*
D03*
X3193138Y1466850D02*
G54D42*
D03*
X3218538Y1466850D02*
G54D42*
D03*
X3243938Y1466850D02*
G54D42*
D03*
X3269338Y1466850D02*
G54D42*
D03*
X3294738Y1466850D02*
G54D42*
D03*
X3320138Y1466850D02*
G54D42*
D03*
X3345538Y1466850D02*
G54D42*
D03*
X3370938Y1466850D02*
G54D42*
D03*
X3396338Y1466850D02*
G54D42*
D03*
X3421738Y1466850D02*
G54D42*
D03*
X3472538Y1466850D02*
G54D42*
D03*
X3497938Y1466850D02*
G54D42*
D03*
X3691612Y1466850D02*
G54D42*
D03*
X3717012Y1466850D02*
G54D42*
D03*
X3742412Y1466850D02*
G54D42*
D03*
X3793212Y1466850D02*
G54D42*
D03*
X3818612Y1466850D02*
G54D42*
D03*
X3844012Y1466850D02*
G54D42*
D03*
X3869412Y1466850D02*
G54D42*
D03*
X3894812Y1466850D02*
G54D42*
D03*
X3920212Y1466850D02*
G54D42*
D03*
X3945612Y1466850D02*
G54D42*
D03*
X3971012Y1466850D02*
G54D42*
D03*
X3996412Y1466850D02*
G54D42*
D03*
X4021812Y1466850D02*
G54D42*
D03*
X4047212Y1466850D02*
G54D42*
D03*
X4072612Y1466850D02*
G54D42*
D03*
X1388150Y1466850D02*
G54D42*
D03*
X1413550Y1466850D02*
G54D42*
D03*
X1438950Y1466850D02*
G54D42*
D03*
X1464350Y1466850D02*
G54D42*
D03*
X1515150Y1466850D02*
G54D42*
D03*
X1540550Y1466850D02*
G54D42*
D03*
X1565950Y1466850D02*
G54D42*
D03*
X1591350Y1466850D02*
G54D42*
D03*
X1616750Y1466850D02*
G54D42*
D03*
X1642150Y1466850D02*
G54D42*
D03*
X1667550Y1466850D02*
G54D42*
D03*
X1692950Y1466850D02*
G54D42*
D03*
X1718350Y1466850D02*
G54D42*
D03*
X1743750Y1466850D02*
G54D42*
D03*
X1769150Y1466850D02*
G54D42*
D03*
X1794550Y1466850D02*
G54D42*
D03*
X1819950Y1466850D02*
G54D42*
D03*
X1845350Y1466850D02*
G54D42*
D03*
X1870750Y1466850D02*
G54D42*
D03*
X1896150Y1466850D02*
G54D42*
D03*
X1921550Y1466850D02*
G54D42*
D03*
X1946950Y1466850D02*
G54D42*
D03*
X1972350Y1466850D02*
G54D42*
D03*
X1997750Y1466850D02*
G54D42*
D03*
X2023150Y1466850D02*
G54D42*
D03*
X2048550Y1466850D02*
G54D42*
D03*
X2073950Y1466850D02*
G54D42*
D03*
M02*
