%FSLAX34Y34*%
%MOMM*%
%LNOUTLINE*%
G71*
G01*
%ADD10C,0.200*%
%LPD*%
G54D10*
G75*
G01X83Y1381714D02*
G03X83Y1434511I20625J26398D01*
G01*
G54D10*
G75*
G01X64827Y1509686D02*
G03X132023Y1509686I33598J-14262D01*
G01*
G54D10*
G75*
G01X3265488Y187325D02*
G03X3265488Y187325I-15876J0D01*
G01*
G54D10*
G75*
G01X3267075Y887412D02*
G03X3267075Y887412I-15875J0D01*
G01*
G54D10*
G75*
G01X4214812Y887412D02*
G03X4214812Y887412I-15874J0D01*
G01*
G54D10*
G75*
G01X4213225Y187325D02*
G03X4213225Y187325I-15875J0D01*
G01*
G54D10*
G75*
G01X3125788Y117475D02*
G03X3125788Y117475I-15876J0D01*
G01*
G54D10*
G75*
G01X138112Y117475D02*
G03X138112Y117475I-15874J0D01*
G01*
G54D10*
G75*
G01X923924Y952500D02*
G03X923924Y952500I-15874J0D01*
G01*
G54D10*
G75*
G01X923924Y1103313D02*
G03X923924Y1103313I-15874J0D01*
G01*
G54D10*
G75*
G01X1106487Y1373188D02*
G03X1106487Y1373188I-15875J0D01*
G01*
G54D10*
G75*
G01X1258887Y1373188D02*
G03X1258887Y1373188I-15875J0D01*
G01*
G54D10*
G75*
G01X3203574Y739774D02*
G03X3203574Y739774I-39686J0D01*
G01*
G54D10*
G75*
G01X2152648Y658812D02*
G03X2152648Y658812I-39686J0D01*
G01*
G54D10*
G75*
G01X1081086Y660400D02*
G03X1081086Y660400I-39686J0D01*
G01*
G54D10*
G75*
G01X206374Y1406525D02*
G03X206374Y1406525I-36512J0D01*
G01*
G54D10*
G75*
G01X196850Y1079500D02*
G03X196850Y1079500I-22225J0D01*
G01*
G54D10*
G75*
G01X134937Y874713D02*
G03X134937Y874713I-22225J0D01*
G01*
G54D10*
G75*
G01X808038Y619125D02*
G03X808038Y619125I-22226J0D01*
G01*
G54D10*
G75*
G01X796925Y874712D02*
G03X796925Y874712I-22225J0D01*
G01*
G54D10*
G75*
G01X796925Y1079500D02*
G03X796925Y1079500I-22225J0D01*
G01*
G54D10*
G75*
G01X796925Y1252538D02*
G03X796925Y1252538I-22225J0D01*
G01*
G54D10*
X0Y0D02*
X0Y1381631D01*
X84Y1381714D01*
G54D10*
X0Y1468438D02*
X19050Y1468438D01*
X19050Y1509712D01*
X64800Y1509712D01*
G54D10*
X0Y1468438D02*
X0Y1434594D01*
X84Y1434511D01*
G54D10*
X132024Y1509686D02*
X1485873Y1509686D01*
X1485900Y1509712D01*
X1485900Y1417638D01*
X1498600Y1417638D01*
X1498600Y1509712D01*
X3443288Y1509712D01*
X3443288Y1419225D01*
X3455988Y1419225D01*
X3455988Y1509712D01*
X3763962Y1509712D01*
X3763962Y1419225D01*
X3776662Y1419225D01*
X3776662Y1509712D01*
X4214812Y1509712D01*
X4214812Y1468438D01*
X4233862Y1468438D01*
X4233862Y0D01*
X0Y0D01*
M02*
