; Drill file
; Format: 2.4 (00.0000)
M48
INCH
T01C0.0157
T02C0.0161
T03C0.0165
T04C0.0193
T05C0.0197
T06C0.0236
T07C0.0276
T08C0.0283
T09C0.0315
T10C0.0354
T11C0.0394
T12C0.0433
T13C0.0472
T14C0.0551
T15C0.0591
T16C0.1181
T17C0.122
%
G05
G90
T01
X015690Y003560
X019060Y005310
X021190Y004370
X022630Y012380
X028690Y010380
X031250Y009810
X032190Y009380
X031750Y008630
X030940Y005620
X036250Y007130
X039250Y007620
X042250Y007130
X045250Y005620
X045750Y004810
X046750Y005880
X046250Y006620
X052000Y003380
X054500Y006620
X057250Y010380
X059000Y009120
X060000Y010440
X062750Y007620
X063560Y008120
X064000Y008690
X066060Y006880
X066060Y006130
X066060Y005370
X067000Y006880
X067750Y006880
X068940Y007620
X069500Y008120
X070440Y007380
X071620Y008000
X072750Y007620
X073250Y008120
X074000Y008120
X075880Y008690
X075250Y010690
X074060Y010690
X073500Y011190
X072750Y010940
X068940Y009190
X067500Y009120
X067000Y009880
X067000Y011440
X066560Y012120
X063310Y013370
X062750Y015690
X062250Y016880
X064000Y018690
X065500Y019690
X066500Y019690
X067750Y019940
X069000Y018690
X070250Y018690
X070750Y019190
X071250Y019690
X070560Y019940
X069500Y021190
X069500Y021940
X070000Y024690
X072000Y023690
X072000Y025940
X071250Y027190
X073500Y025940
X073810Y026690
X075250Y027190
X076750Y025940
X078560Y025690
X079500Y025380
X078250Y023370
X079000Y022880
X078310Y022440
X078750Y021690
X080250Y021440
X076810Y020440
X075250Y020440
X074380Y019440
X073750Y019690
X072750Y019690
X072250Y020190
X072250Y020870
X073000Y020940
X072000Y018940
X068750Y017190
X074310Y015940
X075250Y015940
X075250Y014440
X078000Y014440
X079500Y013120
X079190Y012190
X078250Y010190
X081000Y009630
X081500Y008870
X082000Y007870
X081250Y007380
X080500Y008380
X081250Y004870
X082000Y004870
X084500Y006130
X083750Y010120
X082750Y012120
X082500Y013120
X083750Y013120
X084250Y013940
X084690Y012620
X084750Y015940
X083750Y017440
X082000Y016370
X082750Y015380
X082000Y014940
X080000Y015380
X080000Y016370
X079250Y017440
X086000Y020940
X087000Y021190
X087500Y023190
X086000Y023440
X088750Y025690
X087500Y028250
X090750Y029940
X089750Y032560
X087250Y032880
X088750Y035440
X089750Y035310
X091440Y035310
X092250Y035440
X092940Y036250
X093750Y037000
X093250Y037500
X092250Y037190
X091250Y036750
X087940Y036250
X087250Y036250
X086250Y036000
X084250Y034250
X083250Y032690
X083250Y030440
X077310Y031940
X076810Y032690
X076000Y032690
X075810Y035190
X076250Y035750
X075000Y036250
X073810Y037000
X073000Y036440
X071750Y035940
X070750Y035440
X070500Y036940
X069750Y037250
X071750Y038750
X072750Y038750
X072250Y039750
X072250Y042000
X071750Y043250
X072500Y044250
X071000Y044500
X071750Y045810
X072250Y048000
X073500Y048750
X074750Y049250
X075250Y049750
X075750Y050750
X074750Y051750
X073750Y052060
X076750Y052500
X078750Y052750
X080250Y053750
X081250Y054500
X081250Y055620
X080250Y055620
X079250Y055620
X078250Y055620
X077250Y055620
X076250Y055620
X075250Y055620
X074250Y055620
X073250Y055620
X072250Y055620
X071250Y055620
X070250Y055620
X069250Y055620
X068250Y055620
X067250Y055620
X066250Y055620
X065250Y055620
X064250Y055620
X063250Y055620
X062250Y055620
X061250Y055620
X060250Y055620
X057250Y055620
X056250Y055620
X055250Y055620
X054250Y055620
X055250Y053310
X055750Y052500
X055250Y050750
X056250Y050310
X057500Y051500
X058250Y051250
X059250Y052310
X060250Y049250
X061250Y047500
X062250Y046500
X063250Y047500
X064250Y049250
X066250Y048250
X066750Y050310
X066250Y051750
X065250Y052310
X067750Y052250
X069250Y053750
X070250Y052750
X076250Y054500
X077250Y050310
X078750Y050750
X079750Y050250
X079750Y049310
X080250Y051750
X084000Y052250
X085250Y050250
X087250Y050500
X089000Y049000
X087750Y045000
X087500Y043250
X088250Y043250
X088500Y042500
X088750Y040250
X090250Y040250
X092500Y040130
X093250Y041000
X092000Y042500
X091750Y043250
X092750Y043250
X091690Y044750
X091250Y045250
X095750Y043250
X097500Y042500
X097750Y043250
X099750Y043500
X102250Y043000
X101750Y040500
X100000Y040000
X098000Y040000
X095750Y040000
X096000Y037750
X095250Y037500
X094500Y037750
X098690Y037750
X099750Y037000
X099250Y034250
X098500Y032750
X097250Y032750
X097250Y031190
X095440Y029440
X095440Y025690
X091750Y022690
X090750Y022690
X089750Y021190
X089250Y019940
X090250Y019690
X091250Y017940
X092000Y017690
X093000Y018190
X093750Y018440
X093500Y017440
X094250Y019440
X092250Y019440
X091750Y015940
X090750Y013940
X089690Y013940
X088750Y014190
X087750Y017120
X091250Y010380
X089750Y007130
X096750Y004870
X096500Y003120
X099000Y003880
X099250Y007380
X100750Y009630
X101750Y009880
X102750Y010120
X103750Y010380
X103750Y008690
X101250Y011190
X100250Y013440
X098750Y013440
X098750Y010690
X098750Y016940
X096000Y016940
X096250Y020940
X099000Y021690
X099750Y021690
X099250Y020690
X102560Y019190
X103750Y016690
X106750Y016370
X107440Y019190
X108690Y022940
X109500Y023440
X110000Y024190
X112000Y024130
X114250Y022940
X116250Y022190
X115250Y019940
X119500Y018690
X122940Y017000
X119250Y022940
X120750Y026690
X121250Y031250
X120500Y032690
X121250Y033250
X120000Y034250
X119440Y033500
X114250Y036250
X113250Y037000
X112750Y040500
X111750Y041500
X112250Y043000
X108750Y042500
X107250Y043000
X106500Y042250
X107750Y041000
X103750Y040000
X103250Y036940
X106000Y035750
X106250Y030440
X104750Y029940
X103750Y026440
X100750Y024940
X108810Y027750
X110250Y027250
X111440Y027690
X111940Y028440
X110440Y029000
X110750Y030190
X109000Y030940
X112750Y032750
X114250Y029750
X117750Y039750
X116750Y040250
X120750Y042000
X126800Y037260
X126310Y036250
X125800Y035260
X126300Y034260
X126810Y033250
X127810Y038250
X128810Y039250
X129800Y040260
X130800Y041260
X129060Y041750
X132810Y043250
X133800Y044260
X134810Y045250
X136810Y047250
X131810Y044750
X128310Y052810
X127310Y053310
X127310Y055620
X126310Y055620
X125310Y055620
X124310Y055620
X123310Y055620
X122310Y055620
X122810Y053060
X123560Y053310
X123310Y052060
X122310Y052060
X122310Y051060
X124060Y051060
X118560Y049560
X115250Y049560
X116250Y052060
X115750Y052810
X111190Y048560
X112250Y046750
X106560Y050060
X105750Y057500
X108190Y057560
X097940Y052060
X095750Y052060
X095810Y049440
X094500Y049250
X099250Y046750
X086250Y043250
X084750Y043000
X085500Y044750
X084000Y046250
X082500Y046750
X082000Y045750
X080000Y045250
X079000Y045250
X078290Y045470
X076750Y045750
X076560Y047000
X075750Y047000
X074000Y047000
X074000Y043750
X074250Y042750
X075810Y040250
X076810Y039500
X078500Y039750
X080560Y040000
X081500Y042250
X080750Y043000
X079810Y043500
X078500Y042750
X081560Y037750
X077750Y035750
X069250Y033250
X067750Y033250
X068250Y034940
X067250Y036440
X066250Y037250
X065250Y036750
X064250Y037250
X063250Y035940
X063250Y034940
X061750Y036190
X061750Y037250
X060250Y036750
X060000Y035690
X059250Y035440
X058500Y035440
X057250Y035250
X056750Y035690
X055750Y036000
X053750Y037000
X051750Y035440
X054310Y032440
X053750Y031690
X053000Y031190
X053750Y029440
X052000Y029440
X054250Y026440
X055560Y026690
X056750Y026690
X055750Y028940
X057750Y029190
X057500Y031190
X056250Y032440
X055500Y031940
X059560Y032750
X060250Y029190
X061250Y028940
X062750Y029690
X063750Y029440
X065500Y028250
X067000Y026940
X068000Y027190
X068250Y026190
X066940Y025690
X065500Y025690
X063500Y024190
X062750Y023690
X061750Y023190
X060250Y024940
X059500Y025440
X059000Y024690
X060750Y020940
X061250Y020440
X061750Y019940
X055750Y019940
X051750Y019940
X050750Y022440
X046250Y016690
X045250Y016370
X045750Y014690
X047000Y015690
X047750Y015190
X051250Y013370
X051500Y012620
X054250Y012120
X055250Y012620
X054250Y015690
X059500Y005370
X060500Y005060
X060000Y003620
X062250Y004380
X074000Y004870
X075000Y004690
X075750Y004380
X068000Y030190
X067000Y029940
X066000Y030190
X070000Y031190
X069750Y040250
X068750Y041750
X067250Y043250
X067250Y044000
X066250Y042250
X065250Y042250
X064250Y042250
X063060Y041750
X062250Y041750
X061750Y042250
X060250Y041750
X059250Y041750
X058250Y040250
X056750Y039750
X055750Y040250
X054250Y042750
X053250Y042750
X053250Y041750
X052750Y040250
X051250Y043250
X051000Y045500
X055750Y046500
X056750Y047000
X058750Y047000
X057750Y043250
X060250Y043250
X059250Y037250
X057750Y037000
X065750Y040250
X066250Y045810
X069250Y046250
X082500Y048000
X085000Y047500
X082250Y055620
X087250Y058500
X087940Y058000
X088750Y057500
X054250Y049750
X052750Y052500
X051750Y053310
X023620Y052810
X017880Y021380
X016630Y015440
X013630Y013630
X011750Y013560
X011750Y015620
X027500Y020380
X036500Y022190
X037750Y022690
X037750Y023440
X038750Y018940
X038000Y018370
X037000Y016370
X036000Y014130
X105750Y013440
X107750Y011190
X109190Y007940
X122750Y008440
X145440Y003620
X149880Y003620
X150440Y004120
X150940Y004560
X151440Y005120
X151940Y005620
X152440Y006130
X152940Y006620
X155940Y008120
X156440Y007620
X156940Y007130
X158940Y009630
X158440Y010060
X157940Y010560
X157440Y011060
X155440Y012120
X154940Y011690
X154440Y011190
X153940Y010690
X153440Y012880
X159440Y009120
X159940Y008630
X160940Y005250
X160450Y003500
X146940Y021940
X147440Y022690
X146940Y055620
X145940Y055620
X144940Y055620
X149880Y055620
X150940Y055620
X151940Y055620
X152940Y055620
X153940Y055620
X154940Y055620
X155940Y055620
X156940Y055620
X157940Y055620
X158940Y055620
X159940Y055620
X160940Y055620
X138310Y055620
X137310Y055620
X134310Y055620
X133310Y055620
X132310Y055620
X131310Y055620
X130310Y055620
X129310Y055620
X128310Y055620
T02
X068190Y009630
X070750Y011630
X071750Y012690
X079750Y009630
X080750Y011630
X080500Y012690
X083500Y045250
X083500Y048250
X083060Y048750
X090500Y045250
X092250Y056310
X089500Y057000
X105750Y053310
X105750Y039750
X104750Y039750
T03
X014060Y004060
X016630Y018870
X035500Y019690
X034000Y007870
X051250Y007620
X051000Y002810
X052750Y002810
X061250Y003880
X061750Y005370
X071000Y005620
X072060Y004120
X078500Y013120
X083250Y013690
X083250Y016370
X094690Y015940
X098000Y017620
X102250Y015940
X103250Y019190
X106250Y019190
X105750Y016370
X105750Y010690
X098000Y009120
X098000Y008190
X098000Y004380
X097750Y003120
X098500Y002870
X102250Y003380
X115250Y010690
X115750Y014880
X114750Y015690
X113750Y016190
X113440Y019190
X117250Y022190
X118000Y021690
X121000Y022190
X117250Y030000
X118750Y035250
X113250Y035250
X106500Y041500
X100250Y048250
X097750Y035500
X100250Y031250
X099000Y030190
X099000Y025690
X092810Y025560
X090750Y025560
X084500Y030190
X086500Y044750
X086250Y049500
X084500Y051250
X074250Y051250
X065250Y051250
X051000Y041940
X051000Y035000
X049000Y034750
X052250Y032750
X051250Y026440
X048000Y027690
X051000Y018940
X061250Y019190
X061750Y018440
X061750Y032440
X112750Y025690
X125500Y013370
X123750Y008940
X119250Y008190
X118250Y007690
X145940Y021250
X146440Y020620
T04
X018120Y002810
X050250Y003060
X071500Y015120
X074190Y015120
X074690Y015120
X052940Y054810
X052250Y054810
X051560Y054810
T05
X017120Y007060
X017120Y007560
X017620Y020130
X018370Y024940
X019380Y031000
X019880Y031500
X043500Y041250
X045250Y041250
X050250Y034250
X050250Y029250
X050250Y028750
X064250Y027440
X064750Y027440
X065000Y030440
X064250Y030440
X062000Y041000
X061250Y041000
X084750Y023690
X089750Y026440
X099000Y039000
X100750Y041000
X100750Y041750
X109750Y039000
X119750Y039000
X121560Y039000
X120250Y047810
X119500Y047810
X099000Y055500
X112000Y026440
X120310Y024940
X044250Y008630
X044250Y007620
T06
X024710Y028740
X024710Y030740
X030960Y037420
X030960Y039420
T07
X004910Y006530
X005980Y006530
X007040Y006530
X008480Y005590
X009480Y005590
X010480Y005590
X011540Y005590
X012540Y005590
X013600Y005590
X014600Y005590
X015660Y005590
X015660Y009590
X014600Y009590
X013600Y009590
X012540Y009590
X011540Y009590
X010480Y009590
X009480Y009590
X008480Y009590
X007040Y010530
X005980Y010530
X004910Y010530
X005980Y011590
X007040Y011590
X008000Y011630
X008000Y012620
X008000Y013630
X008000Y014620
X009000Y014690
X009000Y015690
X010570Y015120
X010570Y014120
X010560Y012610
X010560Y011610
X009020Y011610
X009020Y013610
X007040Y015590
X005980Y015590
X007500Y021190
X007480Y022220
X008540Y022220
X009540Y022220
X009500Y021190
X011540Y021970
X012600Y021970
X013600Y021970
X014600Y021970
X016910Y021970
X020130Y020340
X020130Y018440
X022150Y016610
X021120Y015620
X021120Y014630
X020130Y014630
X020130Y015620
X019130Y015620
X019130Y014630
X019080Y013610
X020150Y013610
X021150Y013610
X022150Y013610
X022150Y014610
X023230Y015660
X024160Y015660
X025160Y015660
X026160Y015660
X027160Y015660
X028230Y015660
X029230Y015660
X030230Y015660
X031230Y015660
X032210Y015650
X032210Y014650
X032210Y013670
X033270Y013670
X034240Y014180
X034990Y014930
X034240Y015680
X035150Y012710
X035150Y011710
X036710Y011710
X036710Y012710
X038210Y012710
X038210Y011710
X039740Y011710
X039740Y012710
X039790Y014160
X040790Y014160
X041730Y014160
X042730Y014160
X043790Y014160
X042780Y012710
X042780Y011710
X041280Y011710
X041280Y012710
X040790Y009590
X039790Y009590
X038730Y009590
X037730Y009590
X036730Y009590
X035730Y009590
X034730Y009590
X033230Y009590
X033270Y011670
X032210Y011670
X031230Y011660
X030230Y011660
X029230Y011660
X028230Y011660
X027160Y011660
X026160Y011660
X025160Y011660
X024160Y011660
X023230Y011660
X022150Y011610
X021150Y011610
X020150Y011610
X019080Y011610
X017080Y011610
X017080Y013610
X024170Y009860
X026170Y009860
X033230Y005590
X034730Y005590
X035730Y005590
X036730Y005590
X037730Y005590
X038730Y005590
X039790Y005590
X040790Y005590
X041790Y005590
X042790Y005590
X042790Y009590
X041790Y009590
X037990Y015620
X038740Y016370
X037990Y017120
X039790Y018160
X040790Y018160
X041730Y018160
X042730Y018160
X043790Y018160
X043000Y020690
X042250Y021440
X041000Y021440
X040250Y020690
X039500Y021440
X040250Y022690
X039500Y023440
X041000Y023440
X042560Y023190
X043560Y023190
X043750Y021440
X046770Y022710
X047770Y022710
X048770Y022710
X048770Y026710
X047770Y026710
X046770Y026710
X049520Y037990
X049520Y039990
X042250Y051000
X041250Y051000
X075220Y045240
X075220Y044240
X076250Y044250
X077290Y044220
X078290Y044220
X079250Y044250
X080250Y044250
X081290Y044220
X081270Y041240
X081270Y039240
X081280Y033690
X081280Y031690
X089000Y029190
X090000Y029190
X096280Y031690
X096280Y033690
X096270Y039240
X096270Y041240
X107810Y046750
X108690Y046750
X109750Y046750
X109750Y050750
X108690Y050750
X107810Y050750
X108720Y026760
X108720Y024760
X108720Y020130
X108720Y018130
X112770Y015620
X112770Y014620
X116770Y014620
X116770Y015620
X118040Y015610
X118040Y014610
X123730Y014220
X124770Y014200
X124770Y018200
X123730Y018220
X123060Y019440
X124970Y019440
X117750Y024130
X117750Y027440
X113750Y027440
X113750Y024130
X102250Y022630
X101250Y022630
X094750Y022690
X094750Y021440
X092750Y021440
X091770Y021430
X092750Y022690
X087770Y021430
X083250Y021440
X082250Y021440
X085780Y014440
X085780Y012440
X085790Y010170
X085790Y009170
X085780Y008070
X085780Y006070
X056270Y011430
X052270Y011430
X016910Y025970
X014600Y025970
X013600Y025970
X012600Y025970
X011540Y025970
X009540Y026220
X008540Y026220
X007480Y026220
X076250Y048250
X077290Y048220
X078290Y048220
X079250Y048250
X080250Y048250
X081290Y048220
T08
X012560Y011630
X013560Y011630
X014560Y011630
X015560Y011630
X015560Y014620
X014560Y014620
X013560Y014620
X012560Y014620
X012560Y017120
X011560Y017120
X010560Y017120
X009560Y017120
X008560Y017120
X007560Y017120
X006560Y017120
X006560Y020130
X007560Y020130
X008560Y020130
X009560Y020130
X010560Y020130
X011560Y020130
X012560Y020130
X013560Y020130
X013560Y017120
X020190Y008630
X021190Y008630
X022190Y008630
X023190Y008630
X024190Y008630
X025190Y008630
X026190Y008630
X027190Y008630
X028190Y008630
X029190Y008630
X029190Y005620
X028190Y005620
X027190Y005620
X026190Y005620
X025190Y005620
X024190Y005620
X023190Y005620
X022190Y005620
X021190Y005620
X020190Y005620
X051250Y005620
X052250Y005620
X053250Y005620
X054250Y005620
X055250Y005620
X056250Y005620
X057250Y005620
X057250Y008630
X056250Y008630
X055250Y008630
X054250Y008630
X053250Y008630
X052250Y008630
X051250Y008630
X051250Y014690
X052250Y014690
X053250Y014690
X054250Y014690
X055250Y014690
X056250Y014690
X057250Y014690
X057250Y017690
X056250Y017690
X055250Y017690
X054250Y017690
X053250Y017690
X052250Y017690
X051250Y017690
X051250Y028250
X052250Y028250
X053250Y028250
X054250Y028250
X055250Y028250
X056250Y028250
X057250Y028250
X058250Y028250
X059250Y028250
X060250Y028250
X061250Y028250
X062250Y028250
X063250Y028250
X064250Y028250
X064250Y034250
X063250Y034250
X062250Y034250
X061250Y034250
X060250Y034250
X059250Y034250
X058250Y034250
X057250Y034250
X056250Y034250
X055250Y034250
X054250Y034250
X053250Y034250
X052250Y034250
X051250Y034250
X051250Y038750
X052250Y038750
X053250Y038750
X054250Y038750
X055250Y038750
X056250Y038750
X057250Y038750
X058250Y038750
X059250Y038750
X060250Y038750
X061250Y038750
X062250Y038750
X063250Y038750
X064250Y038750
X065250Y038750
X066250Y038750
X067250Y038750
X068250Y038750
X069250Y038750
X070250Y038750
X073810Y038750
X074810Y038750
X075810Y038750
X076810Y038750
X077810Y038750
X078810Y038750
X079810Y038750
X079810Y041750
X078810Y041750
X077810Y041750
X076810Y041750
X075810Y041750
X074810Y041750
X073810Y041750
X070250Y044750
X069250Y044750
X068250Y044750
X067250Y044750
X066250Y044750
X065250Y044750
X064250Y044750
X063250Y044750
X062250Y044750
X061250Y044750
X060250Y044750
X059250Y044750
X058250Y044750
X057250Y044750
X056250Y044750
X055250Y044750
X054250Y044750
X053250Y044750
X052250Y044750
X051250Y044750
X070810Y034250
X071810Y034250
X072810Y034250
X073810Y034250
X074810Y034250
X075810Y034250
X076810Y034250
X077810Y034250
X078810Y034250
X079810Y034250
X079810Y031250
X078810Y031250
X077810Y031250
X076810Y031250
X075810Y031250
X074810Y031250
X073810Y031250
X072810Y031250
X071810Y031250
X070810Y031250
X085750Y031250
X086750Y031250
X087750Y031250
X088750Y031250
X089750Y031250
X090750Y031250
X091750Y031250
X092750Y031250
X093750Y031250
X094750Y031250
X094750Y034250
X093750Y034250
X092750Y034250
X091750Y034250
X090750Y034250
X089750Y034250
X088750Y034250
X087750Y034250
X086750Y034250
X085750Y034250
X085750Y038750
X086750Y038750
X087750Y038750
X088750Y038750
X089750Y038750
X090750Y038750
X091750Y038750
X092750Y038750
X093750Y038750
X094750Y038750
X094750Y041750
X093750Y041750
X092750Y041750
X091750Y041750
X090750Y041750
X089750Y041750
X088750Y041750
X087750Y041750
X086750Y041750
X085750Y041750
X087750Y027190
X088750Y027190
X089750Y027190
X090750Y027190
X091750Y027190
X092750Y027190
X093750Y027190
X094750Y027190
X094750Y024190
X093750Y024190
X092750Y024190
X091750Y024190
X090750Y024190
X089750Y024190
X088750Y024190
X087750Y024190
X088250Y014940
X089250Y014940
X090250Y014940
X091250Y014940
X092250Y014940
X093250Y014940
X094250Y014940
X095250Y014940
X095250Y011940
X094250Y011940
X093250Y011940
X092250Y011940
X091250Y011940
X090250Y011940
X089250Y011940
X088250Y011940
X087250Y011940
X087250Y014940
X087250Y008630
X088250Y008630
X089250Y008630
X090250Y008630
X091250Y008630
X092250Y008630
X093250Y008630
X094250Y008630
X095250Y008630
X095250Y005620
X094250Y005620
X093250Y005620
X092250Y005620
X091250Y005620
X090250Y005620
X089250Y005620
X088250Y005620
X087250Y005620
X100750Y006130
X101750Y006130
X102750Y006130
X103750Y006130
X104750Y006130
X105750Y006130
X106750Y006130
X107750Y006130
X108750Y006130
X109750Y006130
X110750Y006130
X111750Y006130
X112750Y006130
X113750Y006130
X114750Y006130
X115750Y006130
X116750Y006130
X117750Y006130
X118750Y006130
X119750Y006130
X119750Y012120
X118750Y012120
X117750Y012120
X116750Y012120
X115750Y012120
X114750Y012120
X113750Y012120
X112750Y012120
X111750Y012120
X110750Y012120
X109750Y012120
X108750Y012120
X107750Y012120
X106750Y012120
X105750Y012120
X104750Y012120
X103750Y012120
X102750Y012120
X101750Y012120
X100750Y012120
X101250Y017620
X102250Y017620
X103250Y017620
X104250Y017620
X105250Y017620
X106250Y017620
X107250Y017620
X107250Y020620
X106250Y020620
X105250Y020620
X104250Y020620
X103250Y020620
X102250Y020620
X101250Y020620
X101250Y024190
X102250Y024190
X103250Y024190
X104250Y024190
X105250Y024190
X106250Y024190
X107250Y024190
X107250Y027190
X106250Y027190
X105250Y027190
X104250Y027190
X103250Y027190
X102250Y027190
X101250Y027190
X101250Y031250
X102250Y031250
X103250Y031250
X104250Y031250
X105250Y031250
X106250Y031250
X107250Y031250
X107250Y034250
X106250Y034250
X105250Y034250
X104250Y034250
X103250Y034250
X102250Y034250
X101250Y034250
X100750Y038250
X101750Y038250
X102750Y038250
X103750Y038250
X104750Y038250
X105750Y038250
X106750Y038250
X107750Y038250
X108750Y038250
X109750Y038250
X110750Y038250
X111750Y038250
X112750Y038250
X113750Y038250
X114750Y038250
X115750Y038250
X116750Y038250
X117750Y038250
X118750Y038250
X119750Y038250
X118750Y034190
X117750Y034190
X116750Y034190
X115750Y034190
X114750Y034190
X113750Y034190
X112750Y034190
X112750Y031190
X113750Y031190
X114750Y031190
X115750Y031190
X116750Y031190
X117750Y031190
X118750Y031190
X118750Y020620
X117750Y020620
X116750Y020620
X115750Y020620
X114750Y020620
X113750Y020620
X112750Y020620
X112750Y017620
X113750Y017620
X114750Y017620
X115750Y017620
X116750Y017620
X117750Y017620
X118750Y017620
X118750Y044250
X119750Y044250
X117750Y044250
X116750Y044250
X115750Y044250
X114750Y044250
X113750Y044250
X112750Y044250
X111750Y044250
X110750Y044250
X109750Y044250
X108750Y044250
X107750Y044250
X106750Y044250
X105750Y044250
X104750Y044250
X103750Y044250
X102750Y044250
X101750Y044250
X100750Y044250
T09
X003970Y022400
X003970Y024400
X005970Y024400
X005970Y022400
X010060Y034250
X023690Y021690
X023750Y017120
X045750Y023940
X051250Y023190
X052250Y023190
X053250Y023190
X054250Y023190
X055250Y023190
X056250Y023190
X057250Y023190
X058250Y023190
X058250Y025440
X057250Y025440
X056250Y025440
X055250Y025440
X054250Y025440
X053250Y025440
X052250Y025440
X051250Y025440
X049250Y029940
X049250Y030940
X049250Y031940
X048460Y037990
X048460Y038990
X042250Y035250
X030950Y045320
X030950Y046320
X064750Y016130
X064750Y015120
X096480Y018720
X096480Y019720
X096480Y025200
X096480Y026200
X100750Y014940
X101750Y014940
X102750Y014940
X103750Y014940
X104750Y014940
X105750Y014940
X106750Y014940
X107750Y014940
X121720Y016940
X121720Y017940
X121690Y022940
X126310Y022940
X120750Y028940
X119750Y028940
X118750Y028940
X117750Y028940
X116750Y028940
X115750Y028940
X114750Y028940
X113750Y028940
X116750Y025950
X117750Y025950
X108980Y032220
X108980Y033220
X106740Y046720
X105740Y046720
X104740Y046720
X103740Y046720
X102740Y046720
X101740Y046720
X101750Y047810
X102750Y047810
X103750Y047810
X104750Y047810
X105750Y047810
X100290Y050280
X099290Y050280
X098290Y050280
X097290Y050280
X096290Y050280
X095290Y050280
X096310Y051310
X097310Y051310
X098310Y051310
X099310Y051310
X100310Y051310
X097750Y045310
X096750Y045310
X095750Y045310
X094750Y045310
X093750Y045310
X093740Y044280
X094740Y044280
X095740Y044280
X096740Y044280
X097740Y044280
X098740Y044280
X092250Y044250
X088250Y044250
X088740Y050280
X089740Y050280
X090740Y050280
X091740Y050280
X092740Y050280
X093740Y050280
X092750Y051310
X091750Y051310
X090750Y051310
X089750Y051310
X088750Y051310
X086530Y052140
X086530Y056140
X120230Y055130
X120230Y054120
X163630Y056420
X164620Y056420
T10
X041480Y029720
X042480Y029720
X043480Y029720
X044480Y029720
X044480Y031720
X043480Y031720
X042480Y031720
X041480Y031720
T11
X003950Y028230
X003950Y030230
X009010Y030230
X009010Y028230
X022220Y028770
X022220Y030770
X034750Y030250
X035750Y030250
X036750Y030250
X043500Y028440
X043250Y033190
X046250Y033190
X036670Y050710
X035670Y050710
X034670Y050710
X086250Y047750
X086250Y046750
X087250Y046750
X087250Y047750
X088250Y047750
X088250Y046750
X089250Y046750
X089250Y047750
X090250Y047750
X090250Y046750
X091250Y046750
X091250Y047750
X092250Y047750
X092250Y046750
X093250Y046750
X093250Y047750
X094250Y047750
X094250Y046750
X095250Y046750
X095250Y047750
X096250Y047750
X096250Y046750
X097250Y046750
X097250Y047750
X098250Y047750
X098250Y046750
X097920Y054460
X096840Y054460
X095770Y054460
X094660Y054460
X093570Y054460
X094040Y055530
X095130Y055520
X096210Y055530
X097320Y055530
X106630Y054460
X107720Y054460
X108830Y054460
X109900Y054460
X110990Y054460
X110380Y055530
X109280Y055530
X108190Y055520
X107100Y055530
X122550Y048260
X123550Y048260
X123550Y047260
X123550Y046260
X123550Y045260
X123550Y044260
X123550Y043260
X122550Y043260
X122550Y044260
X122550Y045260
X122550Y046260
X122550Y047260
X122550Y042260
X123550Y042260
X123550Y041260
X122550Y041260
X122550Y040260
X123550Y040260
X123550Y039260
X122550Y039260
X122550Y038260
X123550Y038260
X123550Y037260
X122550Y037260
X122550Y036260
X122550Y035260
X123550Y035260
X123550Y036260
X123550Y034260
X122550Y034260
X122550Y033260
X122550Y032260
X123550Y032260
X123550Y033260
T12
X029750Y031000
X031750Y031000
T13
X020940Y022440
X020940Y027000
X017880Y027690
X013810Y027690
X015870Y031690
X015380Y054630
X016880Y054630
X018370Y054630
X019880Y054630
X021380Y054630
X022880Y054630
X024380Y054630
X025870Y054630
X027370Y054560
X028880Y054560
X030380Y054560
X029620Y056560
X028120Y056560
X026630Y056620
X025130Y056620
X023620Y056620
X022120Y056620
X020620Y056620
X019130Y056620
X017620Y056620
X016130Y056620
X034190Y054630
X035190Y053620
X037190Y054630
X039190Y053620
X040190Y054630
X039190Y058310
X035190Y058310
X043500Y027060
X038000Y020380
X035000Y017380
X162560Y054120
X164380Y054120
T14
X002630Y012120
X002630Y014130
X002630Y018690
X002630Y020690
X001810Y037810
X001810Y039810
X001810Y044380
X001810Y046380
X000810Y050810
X010750Y052060
X011500Y048060
X013500Y048060
X021440Y048060
X023370Y048060
X021440Y037000
X023370Y035750
X015560Y037000
X011560Y035750
T15
X044250Y052870
X046000Y054560
X047750Y052870
T16
X090840Y055010
X103900Y055010
T17
X100680Y055010
X113740Y055010
M30
