%FSLAX34Y34*%
%MOMM*%
%LNCOPPER_TOP*%
G71*
G01*
%ADD10C,1.400*%
%ADD11C,1.000*%
%ADD12C,1.100*%
%ADD13C,1.700*%
%ADD14C,0.400*%
%ADD15C,1.600*%
%ADD16C,1.600*%
%ADD17C,1.000*%
%ADD18C,1.500*%
%ADD19C,2.000*%
%ADD20C,2.400*%
%ADD21C,2.600*%
%ADD22C,1.400*%
%ADD23C,1.300*%
%ADD24C,1.300*%
%ADD25C,1.200*%
%ADD26C,1.400*%
%ADD27C,1.800*%
%ADD28C,4.000*%
%ADD29C,4.000*%
%ADD30C,1.500*%
%ADD31C,1.000*%
%ADD32C,0.420*%
%ADD33C,1.000*%
%ADD34C,1.300*%
%ADD35C,0.800*%
%ADD36C,0.410*%
%ADD37C,2.500*%
%ADD38C,0.286*%
%ADD39C,2.000*%
%ADD40C,2.800*%
%ADD41C,1.700*%
%ADD42C,2.200*%
%ADD43C,1.800*%
%ADD44C,3.000*%
%ADD45C,2.000*%
%ADD46C,2.200*%
%ADD47C,2.200*%
%ADD48C,2.200*%
%ADD49C,3.000*%
%ADD50C,3.000*%
%ADD51C,3.010*%
%ADD52C,2.000*%
%ADD53R,0.600X3.200*%
%ADD54R,3.200X0.600*%
%ADD55R,2.000X8.500*%
%ADD56R,1.300X14.600*%
%ADD57R,1.600X1.600*%
%ADD58R,67.000X2.500*%
%ADD59C,0.600*%
%LPD*%
G36*
X1292250Y991250D02*
X1306250Y991250D01*
X1306250Y977250D01*
X1292250Y977250D01*
X1292250Y991250D01*
G37*
X1324650Y984250D02*
G54D10*
D03*
X1350050Y984250D02*
G54D10*
D03*
X1375450Y984250D02*
G54D10*
D03*
X1400850Y984250D02*
G54D10*
D03*
X1426250Y984250D02*
G54D10*
D03*
X1451650Y984250D02*
G54D10*
D03*
X1477050Y984250D02*
G54D10*
D03*
X1502450Y984250D02*
G54D10*
D03*
X1527850Y984250D02*
G54D10*
D03*
X1553250Y984250D02*
G54D10*
D03*
X1578650Y984250D02*
G54D10*
D03*
X1604050Y984250D02*
G54D10*
D03*
X1629450Y984250D02*
G54D10*
D03*
X1654850Y984250D02*
G54D10*
D03*
X1680250Y984250D02*
G54D10*
D03*
X1705650Y984250D02*
G54D10*
D03*
X1731050Y984250D02*
G54D10*
D03*
X1756450Y984250D02*
G54D10*
D03*
X1781850Y984250D02*
G54D10*
D03*
X1781850Y1136650D02*
G54D10*
D03*
X1756450Y1136650D02*
G54D10*
D03*
X1731050Y1136650D02*
G54D10*
D03*
X1705650Y1136650D02*
G54D10*
D03*
X1680250Y1136650D02*
G54D10*
D03*
X1654850Y1136650D02*
G54D10*
D03*
X1629450Y1136650D02*
G54D10*
D03*
X1604050Y1136650D02*
G54D10*
D03*
X1578650Y1136650D02*
G54D10*
D03*
X1553250Y1136650D02*
G54D10*
D03*
X1527850Y1136650D02*
G54D10*
D03*
X1502450Y1136650D02*
G54D10*
D03*
X1477050Y1136650D02*
G54D10*
D03*
X1451650Y1136650D02*
G54D10*
D03*
X1426250Y1136650D02*
G54D10*
D03*
X1400850Y1136650D02*
G54D10*
D03*
X1375450Y1136650D02*
G54D10*
D03*
X1350050Y1136650D02*
G54D10*
D03*
X1324650Y1136650D02*
G54D10*
D03*
X1299250Y1136650D02*
G54D10*
D03*
X597575Y1341438D02*
G54D11*
D03*
X535662Y111124D02*
G54D12*
D03*
X4072876Y88900D02*
G54D11*
D03*
G36*
X1865338Y991250D02*
X1879338Y991250D01*
X1879338Y977250D01*
X1865338Y977250D01*
X1865338Y991250D01*
G37*
X1897738Y984250D02*
G54D10*
D03*
X1923138Y984250D02*
G54D10*
D03*
X1948538Y984250D02*
G54D10*
D03*
X1973938Y984250D02*
G54D10*
D03*
X1999338Y984250D02*
G54D10*
D03*
X2024738Y984250D02*
G54D10*
D03*
X2024738Y1060450D02*
G54D10*
D03*
X1999338Y1060450D02*
G54D10*
D03*
X1973938Y1060450D02*
G54D10*
D03*
X1948538Y1060450D02*
G54D10*
D03*
X1923138Y1060450D02*
G54D10*
D03*
X1897738Y1060450D02*
G54D10*
D03*
X1872338Y1060450D02*
G54D10*
D03*
G36*
X1292250Y380062D02*
X1306250Y380062D01*
X1306250Y366062D01*
X1292250Y366062D01*
X1292250Y380062D01*
G37*
X1324650Y373062D02*
G54D10*
D03*
X1350050Y373062D02*
G54D10*
D03*
X1375450Y373062D02*
G54D10*
D03*
X1400850Y373062D02*
G54D10*
D03*
X1426250Y373062D02*
G54D10*
D03*
X1451650Y373062D02*
G54D10*
D03*
X1451650Y449262D02*
G54D10*
D03*
X1426250Y449262D02*
G54D10*
D03*
X1400850Y449262D02*
G54D10*
D03*
X1375450Y449262D02*
G54D10*
D03*
X1350050Y449262D02*
G54D10*
D03*
X1324650Y449262D02*
G54D10*
D03*
X1299250Y449262D02*
G54D10*
D03*
G36*
X1292250Y149875D02*
X1306250Y149875D01*
X1306250Y135875D01*
X1292250Y135875D01*
X1292250Y149875D01*
G37*
X1324650Y142875D02*
G54D10*
D03*
X1350050Y142875D02*
G54D10*
D03*
X1375450Y142875D02*
G54D10*
D03*
X1400850Y142875D02*
G54D10*
D03*
X1426250Y142875D02*
G54D10*
D03*
X1451650Y142875D02*
G54D10*
D03*
X1451650Y219075D02*
G54D10*
D03*
X1426250Y219075D02*
G54D10*
D03*
X1400850Y219075D02*
G54D10*
D03*
X1375450Y219075D02*
G54D10*
D03*
X1350050Y219075D02*
G54D10*
D03*
X1324650Y219075D02*
G54D10*
D03*
X1299250Y219075D02*
G54D10*
D03*
G36*
X1292250Y724550D02*
X1306250Y724550D01*
X1306250Y710550D01*
X1292250Y710550D01*
X1292250Y724550D01*
G37*
X1324650Y717550D02*
G54D10*
D03*
X1350050Y717550D02*
G54D10*
D03*
X1375450Y717550D02*
G54D10*
D03*
X1400850Y717550D02*
G54D10*
D03*
X1426250Y717550D02*
G54D10*
D03*
X1451650Y717550D02*
G54D10*
D03*
X1477050Y717550D02*
G54D10*
D03*
X1502450Y717550D02*
G54D10*
D03*
X1527850Y717550D02*
G54D10*
D03*
X1553250Y717550D02*
G54D10*
D03*
X1578650Y717550D02*
G54D10*
D03*
X1604050Y717550D02*
G54D10*
D03*
X1629450Y717550D02*
G54D10*
D03*
X1629450Y869950D02*
G54D10*
D03*
X1604050Y869950D02*
G54D10*
D03*
X1578650Y869950D02*
G54D10*
D03*
X1553250Y869950D02*
G54D10*
D03*
X1527850Y869950D02*
G54D10*
D03*
X1502450Y869950D02*
G54D10*
D03*
X1477050Y869950D02*
G54D10*
D03*
X1451650Y869950D02*
G54D10*
D03*
X1426250Y869950D02*
G54D10*
D03*
X1400850Y869950D02*
G54D10*
D03*
X1375450Y869950D02*
G54D10*
D03*
X1350050Y869950D02*
G54D10*
D03*
X1324650Y869950D02*
G54D10*
D03*
X1299250Y869950D02*
G54D10*
D03*
G36*
X1789138Y800750D02*
X1803138Y800750D01*
X1803138Y786750D01*
X1789138Y786750D01*
X1789138Y800750D01*
G37*
X1821538Y793750D02*
G54D10*
D03*
X1846938Y793750D02*
G54D10*
D03*
X1872338Y793750D02*
G54D10*
D03*
X1897738Y793750D02*
G54D10*
D03*
X1923138Y793750D02*
G54D10*
D03*
X1948538Y793750D02*
G54D10*
D03*
X1973938Y793750D02*
G54D10*
D03*
X1999338Y793750D02*
G54D10*
D03*
X2024738Y793750D02*
G54D10*
D03*
X2024738Y869950D02*
G54D10*
D03*
X1999338Y869950D02*
G54D10*
D03*
X1973938Y869950D02*
G54D10*
D03*
X1948538Y869950D02*
G54D10*
D03*
X1923138Y869950D02*
G54D10*
D03*
X1897738Y869950D02*
G54D10*
D03*
X1872338Y869950D02*
G54D10*
D03*
X1846938Y869950D02*
G54D10*
D03*
X1821538Y869950D02*
G54D10*
D03*
X1796138Y869950D02*
G54D10*
D03*
G36*
X2168550Y991250D02*
X2182550Y991250D01*
X2182550Y977250D01*
X2168550Y977250D01*
X2168550Y991250D01*
G37*
X2200950Y984250D02*
G54D10*
D03*
X2226350Y984250D02*
G54D10*
D03*
X2251750Y984250D02*
G54D10*
D03*
X2277150Y984250D02*
G54D10*
D03*
X2302550Y984250D02*
G54D10*
D03*
X2327950Y984250D02*
G54D10*
D03*
X2353350Y984250D02*
G54D10*
D03*
X2378750Y984250D02*
G54D10*
D03*
X2404150Y984250D02*
G54D10*
D03*
X2404150Y1060450D02*
G54D10*
D03*
X2378750Y1060450D02*
G54D10*
D03*
X2353350Y1060450D02*
G54D10*
D03*
X2327950Y1060450D02*
G54D10*
D03*
X2302550Y1060450D02*
G54D10*
D03*
X2277150Y1060450D02*
G54D10*
D03*
X2251750Y1060450D02*
G54D10*
D03*
X2226350Y1060450D02*
G54D10*
D03*
X2200950Y1060450D02*
G54D10*
D03*
X2175550Y1060450D02*
G54D10*
D03*
G36*
X2168550Y800750D02*
X2182550Y800750D01*
X2182550Y786750D01*
X2168550Y786750D01*
X2168550Y800750D01*
G37*
X2200950Y793750D02*
G54D10*
D03*
X2226350Y793750D02*
G54D10*
D03*
X2251750Y793750D02*
G54D10*
D03*
X2277150Y793750D02*
G54D10*
D03*
X2302550Y793750D02*
G54D10*
D03*
X2327950Y793750D02*
G54D10*
D03*
X2353350Y793750D02*
G54D10*
D03*
X2378750Y793750D02*
G54D10*
D03*
X2404150Y793750D02*
G54D10*
D03*
X2404150Y869950D02*
G54D10*
D03*
X2378750Y869950D02*
G54D10*
D03*
X2353350Y869950D02*
G54D10*
D03*
X2327950Y869950D02*
G54D10*
D03*
X2302550Y869950D02*
G54D10*
D03*
X2277150Y869950D02*
G54D10*
D03*
X2251750Y869950D02*
G54D10*
D03*
X2226350Y869950D02*
G54D10*
D03*
X2200950Y869950D02*
G54D10*
D03*
X2175550Y869950D02*
G54D10*
D03*
G36*
X2219350Y621362D02*
X2233350Y621362D01*
X2233350Y607362D01*
X2219350Y607362D01*
X2219350Y621362D01*
G37*
X2251750Y614362D02*
G54D10*
D03*
X2277150Y614362D02*
G54D10*
D03*
X2302550Y614362D02*
G54D10*
D03*
X2327950Y614362D02*
G54D10*
D03*
X2353350Y614362D02*
G54D10*
D03*
X2378750Y614362D02*
G54D10*
D03*
X2404150Y614362D02*
G54D10*
D03*
X2404150Y690562D02*
G54D10*
D03*
X2378750Y690562D02*
G54D10*
D03*
X2353350Y690562D02*
G54D10*
D03*
X2327950Y690562D02*
G54D10*
D03*
X2302550Y690562D02*
G54D10*
D03*
X2277150Y690562D02*
G54D10*
D03*
X2251750Y690562D02*
G54D10*
D03*
X2226350Y690562D02*
G54D10*
D03*
G36*
X2206650Y310212D02*
X2220650Y310212D01*
X2220650Y296212D01*
X2206650Y296212D01*
X2206650Y310212D01*
G37*
X2239050Y303212D02*
G54D10*
D03*
X2264450Y303212D02*
G54D10*
D03*
X2289850Y303212D02*
G54D10*
D03*
X2315250Y303212D02*
G54D10*
D03*
X2340650Y303212D02*
G54D10*
D03*
X2366050Y303212D02*
G54D10*
D03*
X2391450Y303212D02*
G54D10*
D03*
X2416850Y303212D02*
G54D10*
D03*
X2416850Y379412D02*
G54D10*
D03*
X2391450Y379412D02*
G54D10*
D03*
X2366050Y379412D02*
G54D10*
D03*
X2340650Y379412D02*
G54D10*
D03*
X2315250Y379412D02*
G54D10*
D03*
X2289850Y379412D02*
G54D10*
D03*
X2264450Y379412D02*
G54D10*
D03*
X2239050Y379412D02*
G54D10*
D03*
X2213650Y379412D02*
G54D10*
D03*
G36*
X2206650Y149875D02*
X2220650Y149875D01*
X2220650Y135875D01*
X2206650Y135875D01*
X2206650Y149875D01*
G37*
X2239050Y142875D02*
G54D10*
D03*
X2264450Y142875D02*
G54D10*
D03*
X2289850Y142875D02*
G54D10*
D03*
X2315250Y142875D02*
G54D10*
D03*
X2340650Y142875D02*
G54D10*
D03*
X2366050Y142875D02*
G54D10*
D03*
X2391450Y142875D02*
G54D10*
D03*
X2416850Y142875D02*
G54D10*
D03*
X2416850Y219075D02*
G54D10*
D03*
X2391450Y219075D02*
G54D10*
D03*
X2366050Y219075D02*
G54D10*
D03*
X2340650Y219075D02*
G54D10*
D03*
X2315250Y219075D02*
G54D10*
D03*
X2289850Y219075D02*
G54D10*
D03*
X2264450Y219075D02*
G54D10*
D03*
X2239050Y219075D02*
G54D10*
D03*
X2213650Y219075D02*
G54D10*
D03*
G36*
X2549550Y162575D02*
X2563550Y162575D01*
X2563550Y148575D01*
X2549550Y148575D01*
X2549550Y162575D01*
G37*
X2581950Y155575D02*
G54D10*
D03*
X2607350Y155575D02*
G54D10*
D03*
X2632750Y155575D02*
G54D10*
D03*
X2658150Y155575D02*
G54D10*
D03*
X2683550Y155575D02*
G54D10*
D03*
X2708950Y155575D02*
G54D10*
D03*
X2734350Y155575D02*
G54D10*
D03*
X2759750Y155575D02*
G54D10*
D03*
X2785150Y155575D02*
G54D10*
D03*
X2810550Y155575D02*
G54D10*
D03*
X2835950Y155575D02*
G54D10*
D03*
X2861350Y155575D02*
G54D10*
D03*
X2886750Y155575D02*
G54D10*
D03*
X2912150Y155575D02*
G54D10*
D03*
X2937550Y155575D02*
G54D10*
D03*
X2962950Y155575D02*
G54D10*
D03*
X2988350Y155575D02*
G54D10*
D03*
X3013750Y155575D02*
G54D10*
D03*
X3039150Y155575D02*
G54D10*
D03*
X3039150Y307975D02*
G54D10*
D03*
X3013750Y307975D02*
G54D10*
D03*
X2988350Y307975D02*
G54D10*
D03*
X2962950Y307975D02*
G54D10*
D03*
X2937550Y307975D02*
G54D10*
D03*
X2912150Y307975D02*
G54D10*
D03*
X2886750Y307975D02*
G54D10*
D03*
X2861350Y307975D02*
G54D10*
D03*
X2835950Y307975D02*
G54D10*
D03*
X2810550Y307975D02*
G54D10*
D03*
X2785150Y307975D02*
G54D10*
D03*
X2759750Y307975D02*
G54D10*
D03*
X2734350Y307975D02*
G54D10*
D03*
X2708950Y307975D02*
G54D10*
D03*
X2683550Y307975D02*
G54D10*
D03*
X2658150Y307975D02*
G54D10*
D03*
X2632750Y307975D02*
G54D10*
D03*
X2607350Y307975D02*
G54D10*
D03*
X2581950Y307975D02*
G54D10*
D03*
X2556550Y307975D02*
G54D10*
D03*
G36*
X2562250Y454675D02*
X2576250Y454675D01*
X2576250Y440675D01*
X2562250Y440675D01*
X2562250Y454675D01*
G37*
X2594650Y447675D02*
G54D10*
D03*
X2620050Y447675D02*
G54D10*
D03*
X2645450Y447675D02*
G54D10*
D03*
X2670850Y447675D02*
G54D10*
D03*
X2696250Y447675D02*
G54D10*
D03*
X2721650Y447675D02*
G54D10*
D03*
X2721650Y523875D02*
G54D10*
D03*
X2696250Y523875D02*
G54D10*
D03*
X2670850Y523875D02*
G54D10*
D03*
X2645450Y523875D02*
G54D10*
D03*
X2620050Y523875D02*
G54D10*
D03*
X2594650Y523875D02*
G54D10*
D03*
X2569250Y523875D02*
G54D10*
D03*
G36*
X2562250Y621362D02*
X2576250Y621362D01*
X2576250Y607362D01*
X2562250Y607362D01*
X2562250Y621362D01*
G37*
X2594650Y614362D02*
G54D10*
D03*
X2620050Y614362D02*
G54D10*
D03*
X2645450Y614362D02*
G54D10*
D03*
X2670850Y614362D02*
G54D10*
D03*
X2696250Y614362D02*
G54D10*
D03*
X2721650Y614362D02*
G54D10*
D03*
X2721650Y690562D02*
G54D10*
D03*
X2696250Y690562D02*
G54D10*
D03*
X2670850Y690562D02*
G54D10*
D03*
X2645450Y690562D02*
G54D10*
D03*
X2620050Y690562D02*
G54D10*
D03*
X2594650Y690562D02*
G54D10*
D03*
X2569250Y690562D02*
G54D10*
D03*
G36*
X2562250Y800750D02*
X2576250Y800750D01*
X2576250Y786750D01*
X2562250Y786750D01*
X2562250Y800750D01*
G37*
X2594650Y793750D02*
G54D10*
D03*
X2620050Y793750D02*
G54D10*
D03*
X2645450Y793750D02*
G54D10*
D03*
X2670850Y793750D02*
G54D10*
D03*
X2696250Y793750D02*
G54D10*
D03*
X2721650Y793750D02*
G54D10*
D03*
X2721650Y869950D02*
G54D10*
D03*
X2696250Y869950D02*
G54D10*
D03*
X2670850Y869950D02*
G54D10*
D03*
X2645450Y869950D02*
G54D10*
D03*
X2620050Y869950D02*
G54D10*
D03*
X2594650Y869950D02*
G54D10*
D03*
X2569250Y869950D02*
G54D10*
D03*
G36*
X2549550Y978550D02*
X2563550Y978550D01*
X2563550Y964550D01*
X2549550Y964550D01*
X2549550Y978550D01*
G37*
X2581950Y971550D02*
G54D10*
D03*
X2607350Y971550D02*
G54D10*
D03*
X2632750Y971550D02*
G54D10*
D03*
X2658150Y971550D02*
G54D10*
D03*
X2683550Y971550D02*
G54D10*
D03*
X2708950Y971550D02*
G54D10*
D03*
X2734350Y971550D02*
G54D10*
D03*
X2759750Y971550D02*
G54D10*
D03*
X2785150Y971550D02*
G54D10*
D03*
X2810550Y971550D02*
G54D10*
D03*
X2835950Y971550D02*
G54D10*
D03*
X2861350Y971550D02*
G54D10*
D03*
X2886750Y971550D02*
G54D10*
D03*
X2912150Y971550D02*
G54D10*
D03*
X2937550Y971550D02*
G54D10*
D03*
X2962950Y971550D02*
G54D10*
D03*
X2988350Y971550D02*
G54D10*
D03*
X3013750Y971550D02*
G54D10*
D03*
X3039150Y971550D02*
G54D10*
D03*
X3039150Y1123950D02*
G54D10*
D03*
X3013750Y1123950D02*
G54D10*
D03*
X2988350Y1123950D02*
G54D10*
D03*
X2962950Y1123950D02*
G54D10*
D03*
X2937550Y1123950D02*
G54D10*
D03*
X2912150Y1123950D02*
G54D10*
D03*
X2886750Y1123950D02*
G54D10*
D03*
X2861350Y1123950D02*
G54D10*
D03*
X2835950Y1123950D02*
G54D10*
D03*
X2810550Y1123950D02*
G54D10*
D03*
X2785150Y1123950D02*
G54D10*
D03*
X2759750Y1123950D02*
G54D10*
D03*
X2734350Y1123950D02*
G54D10*
D03*
X2708950Y1123950D02*
G54D10*
D03*
X2683550Y1123950D02*
G54D10*
D03*
X2658150Y1123950D02*
G54D10*
D03*
X2632750Y1123950D02*
G54D10*
D03*
X2607350Y1123950D02*
G54D10*
D03*
X2581950Y1123950D02*
G54D10*
D03*
X2556550Y1123950D02*
G54D10*
D03*
G36*
X2854350Y799162D02*
X2868350Y799162D01*
X2868350Y785162D01*
X2854350Y785162D01*
X2854350Y799162D01*
G37*
X2886750Y792162D02*
G54D10*
D03*
X2912150Y792162D02*
G54D10*
D03*
X2937550Y792162D02*
G54D10*
D03*
X2962950Y792162D02*
G54D10*
D03*
X2988350Y792162D02*
G54D10*
D03*
X3013750Y792162D02*
G54D10*
D03*
X3013750Y868362D02*
G54D10*
D03*
X2988350Y868362D02*
G54D10*
D03*
X2962950Y868362D02*
G54D10*
D03*
X2937550Y868362D02*
G54D10*
D03*
X2912150Y868362D02*
G54D10*
D03*
X2886750Y868362D02*
G54D10*
D03*
X2861350Y868362D02*
G54D10*
D03*
G36*
X2854350Y454675D02*
X2868350Y454675D01*
X2868350Y440675D01*
X2854350Y440675D01*
X2854350Y454675D01*
G37*
X2886750Y447675D02*
G54D10*
D03*
X2912150Y447675D02*
G54D10*
D03*
X2937550Y447675D02*
G54D10*
D03*
X2962950Y447675D02*
G54D10*
D03*
X2988350Y447675D02*
G54D10*
D03*
X3013750Y447675D02*
G54D10*
D03*
X3013750Y523875D02*
G54D10*
D03*
X2988350Y523875D02*
G54D10*
D03*
X2962950Y523875D02*
G54D10*
D03*
X2937550Y523875D02*
G54D10*
D03*
X2912150Y523875D02*
G54D10*
D03*
X2886750Y523875D02*
G54D10*
D03*
X2861350Y523875D02*
G54D10*
D03*
G36*
X503262Y149875D02*
X517262Y149875D01*
X517262Y135875D01*
X503262Y135875D01*
X503262Y149875D01*
G37*
X535662Y142875D02*
G54D10*
D03*
X561062Y142875D02*
G54D10*
D03*
X586462Y142875D02*
G54D10*
D03*
X611862Y142875D02*
G54D10*
D03*
X637262Y142875D02*
G54D10*
D03*
X662662Y142875D02*
G54D10*
D03*
X688062Y142875D02*
G54D10*
D03*
X713462Y142875D02*
G54D10*
D03*
X738862Y142875D02*
G54D10*
D03*
X738862Y219075D02*
G54D10*
D03*
X713462Y219075D02*
G54D10*
D03*
X688062Y219075D02*
G54D10*
D03*
X662662Y219075D02*
G54D10*
D03*
X637262Y219075D02*
G54D10*
D03*
X611862Y219075D02*
G54D10*
D03*
X586462Y219075D02*
G54D10*
D03*
X561062Y219075D02*
G54D10*
D03*
X535662Y219075D02*
G54D10*
D03*
X510262Y219075D02*
G54D10*
D03*
G36*
X309588Y302275D02*
X323588Y302275D01*
X323588Y288275D01*
X309588Y288275D01*
X309588Y302275D01*
G37*
X341988Y295275D02*
G54D10*
D03*
X367388Y295275D02*
G54D10*
D03*
X392788Y295275D02*
G54D10*
D03*
X392788Y371475D02*
G54D10*
D03*
X367388Y371475D02*
G54D10*
D03*
X341988Y371475D02*
G54D10*
D03*
X316588Y371475D02*
G54D10*
D03*
G36*
X157188Y441975D02*
X171188Y441975D01*
X171188Y427975D01*
X157188Y427975D01*
X157188Y441975D01*
G37*
X189588Y434975D02*
G54D10*
D03*
X214988Y434975D02*
G54D10*
D03*
X240388Y434975D02*
G54D10*
D03*
X265788Y434975D02*
G54D10*
D03*
X291188Y434975D02*
G54D10*
D03*
X316588Y434975D02*
G54D10*
D03*
X341988Y434975D02*
G54D10*
D03*
X341988Y511175D02*
G54D10*
D03*
X316588Y511175D02*
G54D10*
D03*
X291188Y511175D02*
G54D10*
D03*
X265788Y511175D02*
G54D10*
D03*
X240388Y511175D02*
G54D10*
D03*
X214988Y511175D02*
G54D10*
D03*
X189588Y511175D02*
G54D10*
D03*
X164188Y511175D02*
G54D10*
D03*
G36*
X2179750Y1195950D02*
X2196750Y1195950D01*
X2196750Y1178950D01*
X2179750Y1178950D01*
X2179750Y1195950D01*
G37*
X2188250Y1212850D02*
G54D13*
D03*
X2213650Y1187450D02*
G54D13*
D03*
X2213650Y1212850D02*
G54D13*
D03*
X2239050Y1187450D02*
G54D13*
D03*
X2239050Y1212850D02*
G54D13*
D03*
X2264450Y1187450D02*
G54D13*
D03*
X2264450Y1212850D02*
G54D13*
D03*
X2289850Y1187450D02*
G54D13*
D03*
X2289850Y1212850D02*
G54D13*
D03*
X2315250Y1187450D02*
G54D13*
D03*
X2315250Y1212850D02*
G54D13*
D03*
X2340650Y1187450D02*
G54D13*
D03*
X2340650Y1212850D02*
G54D13*
D03*
X2366050Y1187450D02*
G54D13*
D03*
X2366050Y1212850D02*
G54D13*
D03*
X2391450Y1187450D02*
G54D13*
D03*
X2391450Y1212850D02*
G54D13*
D03*
X2416850Y1187450D02*
G54D13*
D03*
X2416850Y1212850D02*
G54D13*
D03*
X2442250Y1187450D02*
G54D13*
D03*
X2442250Y1212850D02*
G54D13*
D03*
X2467650Y1187450D02*
G54D13*
D03*
X2467650Y1212850D02*
G54D13*
D03*
X2493050Y1187450D02*
G54D13*
D03*
X2493050Y1212850D02*
G54D13*
D03*
G36*
X3118668Y1234246D02*
X3118668Y1217246D01*
X3101668Y1217246D01*
X3101668Y1234246D01*
X3118668Y1234246D01*
G37*
X3135568Y1225746D02*
G54D13*
D03*
X3110168Y1200346D02*
G54D13*
D03*
X3135569Y1200346D02*
G54D13*
D03*
X3110169Y1174946D02*
G54D13*
D03*
X3135569Y1174946D02*
G54D13*
D03*
X3110169Y1149546D02*
G54D13*
D03*
X3135569Y1149546D02*
G54D13*
D03*
X3110169Y1124146D02*
G54D13*
D03*
X3135569Y1124146D02*
G54D13*
D03*
X3110169Y1098746D02*
G54D13*
D03*
X3135569Y1098746D02*
G54D13*
D03*
X3110169Y1073346D02*
G54D13*
D03*
X3135569Y1073346D02*
G54D13*
D03*
X3110169Y1047946D02*
G54D13*
D03*
X3135569Y1047946D02*
G54D13*
D03*
X3110169Y1022546D02*
G54D13*
D03*
X3135569Y1022546D02*
G54D13*
D03*
X3110169Y997146D02*
G54D13*
D03*
X3135569Y997146D02*
G54D13*
D03*
X3110169Y971746D02*
G54D13*
D03*
X3135568Y971746D02*
G54D13*
D03*
X3110168Y946346D02*
G54D13*
D03*
X3135568Y946346D02*
G54D13*
D03*
X3110168Y920946D02*
G54D13*
D03*
X3135568Y920946D02*
G54D13*
D03*
X3110168Y895546D02*
G54D13*
D03*
X3135568Y895546D02*
G54D13*
D03*
X3110168Y870146D02*
G54D13*
D03*
X3135568Y870146D02*
G54D13*
D03*
X3110168Y844746D02*
G54D13*
D03*
X3135568Y844746D02*
G54D13*
D03*
X3110168Y819346D02*
G54D13*
D03*
X3135568Y819346D02*
G54D13*
D03*
X1375450Y1412875D02*
G54D11*
D03*
X1400850Y1412875D02*
G54D11*
D03*
X1426250Y1412875D02*
G54D11*
D03*
X1451650Y1412875D02*
G54D11*
D03*
X1527850Y1412875D02*
G54D11*
D03*
X1553250Y1412875D02*
G54D11*
D03*
X1578650Y1412875D02*
G54D11*
D03*
X1604050Y1412875D02*
G54D11*
D03*
X1629450Y1412875D02*
G54D11*
D03*
X1654850Y1412875D02*
G54D11*
D03*
X1680250Y1412875D02*
G54D11*
D03*
X1705650Y1412875D02*
G54D11*
D03*
X1731050Y1412875D02*
G54D11*
D03*
X1756450Y1412875D02*
G54D11*
D03*
X1781850Y1412875D02*
G54D11*
D03*
X1807250Y1412875D02*
G54D11*
D03*
X1832650Y1412875D02*
G54D11*
D03*
X1858050Y1412875D02*
G54D11*
D03*
X1883450Y1412875D02*
G54D11*
D03*
X1908850Y1412875D02*
G54D11*
D03*
X1934250Y1412875D02*
G54D11*
D03*
X1959650Y1412875D02*
G54D11*
D03*
X1985050Y1412875D02*
G54D11*
D03*
X2010450Y1412875D02*
G54D11*
D03*
X2035850Y1412875D02*
G54D11*
D03*
X2061250Y1412875D02*
G54D11*
D03*
X2086650Y1412875D02*
G54D11*
D03*
X3104238Y1412875D02*
G54D11*
D03*
X3129638Y1412875D02*
G54D11*
D03*
X3155038Y1412875D02*
G54D11*
D03*
X3180438Y1412875D02*
G54D11*
D03*
X3205838Y1412875D02*
G54D11*
D03*
X3231238Y1412875D02*
G54D11*
D03*
X3256638Y1412875D02*
G54D11*
D03*
X3282038Y1412875D02*
G54D11*
D03*
X3307438Y1412875D02*
G54D11*
D03*
X3332838Y1412875D02*
G54D11*
D03*
X3358238Y1412875D02*
G54D11*
D03*
X3383638Y1412875D02*
G54D11*
D03*
X3409038Y1412875D02*
G54D11*
D03*
X3485238Y1412875D02*
G54D11*
D03*
X3510638Y1412875D02*
G54D11*
D03*
X3678912Y1412875D02*
G54D11*
D03*
X3704312Y1412875D02*
G54D11*
D03*
X3729712Y1412875D02*
G54D11*
D03*
X3804325Y1412875D02*
G54D11*
D03*
X3831312Y1412875D02*
G54D11*
D03*
X3856712Y1412875D02*
G54D11*
D03*
X3882112Y1412875D02*
G54D11*
D03*
X3907512Y1412875D02*
G54D11*
D03*
X3932912Y1412875D02*
G54D11*
D03*
X3958312Y1412875D02*
G54D11*
D03*
X3983712Y1412875D02*
G54D11*
D03*
X4009112Y1412875D02*
G54D11*
D03*
X4034512Y1412875D02*
G54D11*
D03*
X4059912Y1412875D02*
G54D11*
D03*
X4085312Y1412875D02*
G54D11*
D03*
X1438950Y1009650D02*
G54D11*
D03*
X1832650Y1009650D02*
G54D11*
D03*
X1991400Y1009650D02*
G54D11*
D03*
X1826300Y658812D02*
G54D11*
D03*
X1697712Y652462D02*
G54D11*
D03*
G54D14*
X1438950Y1009650D02*
X1438950Y931862D01*
X1426250Y919162D01*
X1426250Y869950D01*
G54D14*
X1832650Y1009650D02*
X1832650Y836612D01*
X1821538Y825500D01*
X1821538Y793750D01*
X1821538Y735012D01*
X1826300Y730250D01*
X1826300Y658812D01*
G54D14*
X1697712Y652462D02*
X1698110Y381794D01*
X1729462Y381794D01*
G54D14*
X1999338Y1060450D02*
X1999338Y1017588D01*
X1991400Y1009650D01*
X2067600Y1073150D02*
G54D11*
D03*
X2245400Y1079500D02*
G54D11*
D03*
G54D14*
X2226350Y984250D02*
X2226350Y1022350D01*
X2239050Y1035050D01*
X2239050Y1073150D01*
X2245400Y1079500D01*
G54D14*
X2067600Y1073150D02*
X2081888Y1087438D01*
X2081888Y1143000D01*
X2067600Y1155700D01*
X2067600Y1200150D01*
X2081888Y1214438D01*
X2081888Y1408112D01*
X2086650Y1412875D01*
X1948538Y1003300D02*
G54D11*
D03*
X2251750Y1022350D02*
G54D11*
D03*
X2264450Y506412D02*
G54D11*
D03*
X1908850Y519112D02*
G54D11*
D03*
X1311950Y1354138D02*
G54D11*
D03*
G54D14*
X1324650Y717550D02*
X1331000Y723900D01*
X1331000Y811212D01*
X1337350Y817562D01*
X1337350Y920750D01*
X1324650Y933450D01*
X1324650Y984250D01*
X1324650Y1035050D01*
X1311950Y1047750D01*
X1311950Y1354138D01*
X1400850Y1354138D02*
G54D11*
D03*
G54D14*
X1400850Y1412875D02*
X1400850Y1354138D01*
G54D14*
X2251750Y1022350D02*
X2251750Y984250D01*
X2251750Y946150D01*
X2264450Y933450D01*
X2264450Y758825D01*
X2270800Y752475D01*
X2270800Y728662D01*
X2264450Y722312D01*
X2264450Y506412D01*
G54D14*
X1846938Y793750D02*
X1846938Y581025D01*
X1908850Y519112D01*
G54D14*
X1948538Y1003300D02*
X1948538Y1060450D01*
X1337350Y1333500D02*
G54D11*
D03*
X1413550Y1333500D02*
G54D11*
D03*
X1343700Y792162D02*
G54D11*
D03*
X1872338Y677862D02*
G54D11*
D03*
X1731050Y665162D02*
G54D11*
D03*
G54D14*
X1350050Y984250D02*
X1350050Y1035050D01*
X1337350Y1047750D01*
X1337350Y1333500D01*
G54D14*
X1413550Y1333500D02*
X1413550Y1435100D01*
G54D14*
X1350050Y984250D02*
X1350050Y869950D01*
X1350050Y798512D01*
X1343700Y792162D01*
G54D14*
X1872338Y793750D02*
X1872338Y825500D01*
X1883450Y836612D01*
X1883450Y1027112D01*
X1897738Y1041400D01*
X1897738Y1060450D01*
G54D14*
X1872338Y793750D02*
X1872338Y677862D01*
G54D14*
X1731050Y665162D02*
X1731050Y485775D01*
X1724700Y479425D01*
X1724700Y411162D01*
X1729462Y411162D01*
X1362750Y804862D02*
G54D11*
D03*
G54D14*
X1375450Y984250D02*
X1375450Y1035050D01*
X1362750Y1047750D01*
X1362750Y1400175D01*
X1375450Y1412875D01*
G54D14*
X1375450Y984250D02*
X1375450Y933450D01*
X1362750Y920750D01*
X1362750Y804862D01*
G54D14*
X1362750Y804862D02*
X1362750Y785812D01*
X1337350Y760412D01*
X1337350Y354012D01*
X1362750Y328612D01*
X1362750Y168275D01*
X1350050Y155575D01*
X1350050Y142875D01*
G54D14*
X1897738Y793750D02*
X1897738Y549275D01*
X1921550Y525462D01*
X1921550Y455612D01*
X1916788Y450850D01*
X1377038Y823912D02*
G54D11*
D03*
X1407200Y811212D02*
G54D11*
D03*
X1381800Y168275D02*
G54D11*
D03*
G54D14*
X1400850Y984250D02*
X1400850Y1035050D01*
X1388150Y1047750D01*
X1388150Y1435100D01*
G54D14*
X1400850Y984250D02*
X1400850Y931862D01*
X1388150Y919162D01*
X1388150Y835025D01*
X1377038Y823912D01*
G54D14*
X1407200Y811212D02*
X1407200Y766762D01*
X1388150Y747712D01*
X1388150Y174625D01*
X1381800Y168275D01*
G54D14*
X1923138Y793750D02*
X1923138Y765175D01*
X1934250Y754062D01*
X1934250Y557212D01*
X1972350Y519112D01*
X1972350Y391716D01*
X1954888Y391716D01*
X1299250Y1098550D02*
G54D11*
D03*
X1464350Y1098550D02*
G54D11*
D03*
X1819950Y1098550D02*
G54D11*
D03*
X1991400Y1085850D02*
G54D11*
D03*
X2048550Y1092200D02*
G54D11*
D03*
G54D14*
X1299250Y1136650D02*
X1299250Y1098550D01*
G54D14*
X1464350Y1098550D02*
X1464350Y958850D01*
X1477050Y946150D01*
X1477050Y911225D01*
X1472288Y906462D01*
X1472288Y892175D01*
X1477050Y887412D01*
X1477050Y869950D01*
G54D14*
X1819950Y1098550D02*
X1819950Y1027112D01*
X1808838Y1016000D01*
X1808838Y838200D01*
X1796138Y825500D01*
X1796138Y793750D01*
G54D14*
X1796138Y793750D02*
X1796138Y512762D01*
X1789788Y506412D01*
X1789788Y506412D02*
G54D11*
D03*
X1718350Y506412D02*
G54D11*
D03*
G54D14*
X1718350Y506412D02*
X1718350Y503238D01*
X1713588Y498475D01*
X1713588Y401241D01*
X1729462Y401241D01*
G54D14*
X1991400Y1085850D02*
X1991400Y1082675D01*
X1985050Y1076325D01*
X1985050Y1044575D01*
X1973938Y1033462D01*
X1973938Y984250D01*
G54D14*
X2048550Y1092200D02*
X2048550Y1435100D01*
X1337350Y1022350D02*
G54D11*
D03*
X1413550Y1022350D02*
G54D11*
D03*
X1769150Y1022350D02*
G54D11*
D03*
X1923138Y1022350D02*
G54D11*
D03*
X2043788Y1016000D02*
G54D11*
D03*
G54D14*
X2061250Y1412875D02*
X2075538Y1398588D01*
X2075538Y1219200D01*
X2061250Y1204912D01*
X2061250Y1150938D01*
X2075538Y1138238D01*
X2075538Y1106488D01*
X2062838Y1093788D01*
X2062838Y1087438D01*
X2043788Y1068388D01*
X2043788Y1016000D01*
X2069188Y958850D02*
G54D11*
D03*
G54D14*
X2043788Y1016000D02*
X2043788Y985838D01*
X2069188Y958850D01*
X2397800Y958850D02*
G54D11*
D03*
G54D14*
X2397800Y958850D02*
X2404150Y952500D01*
X2404150Y869950D01*
G54D14*
X1923138Y1022350D02*
X1923138Y984250D01*
X1769150Y946150D02*
G54D11*
D03*
G54D14*
X1769150Y1022350D02*
X1769150Y946150D01*
X1680250Y946150D02*
G54D11*
D03*
G54D14*
X1680250Y946150D02*
X1680250Y798512D01*
X1686600Y792162D01*
X1686600Y703262D01*
X1673900Y690562D01*
X1673900Y544512D01*
X1661200Y531812D01*
X1661200Y500062D01*
X1661200Y500062D02*
G54D11*
D03*
X1686600Y500062D02*
G54D11*
D03*
G54D14*
X1686600Y500062D02*
X1686600Y371872D01*
X1729462Y371872D01*
G54D14*
X1413550Y1022350D02*
X1413550Y931862D01*
X1400850Y919162D01*
X1400850Y869950D01*
G54D14*
X1337350Y1022350D02*
X1337350Y1035050D01*
X1324650Y1047750D01*
X1324650Y1136650D01*
X1350050Y1085850D02*
G54D11*
D03*
X1375450Y1085850D02*
G54D11*
D03*
X1883450Y1085850D02*
G54D11*
D03*
X1872338Y939800D02*
G54D11*
D03*
X1896150Y1250950D02*
G54D11*
D03*
X2023150Y1276350D02*
G54D11*
D03*
G54D14*
X2023150Y1435100D02*
X2023150Y1276350D01*
G54D14*
X1896150Y1250950D02*
X1889800Y1244600D01*
X1889800Y1092200D01*
X1883450Y1085850D01*
G54D14*
X1883450Y1085850D02*
X1883450Y1039812D01*
X1872338Y1028700D01*
X1872338Y984250D01*
X1872338Y939800D01*
X2366050Y952500D02*
G54D11*
D03*
X2416850Y952500D02*
G54D11*
D03*
X1705650Y925512D02*
G54D11*
D03*
G54D14*
X1729462Y391716D02*
X1705650Y391716D01*
X1705650Y542925D01*
X1712000Y549275D01*
X1712000Y817562D01*
X1705650Y823912D01*
X1705650Y925512D01*
G54D14*
X2416850Y952500D02*
X2416850Y1047750D01*
X2404150Y1060450D01*
G54D14*
X2366050Y952500D02*
X2366050Y931862D01*
X2372400Y925512D01*
X2372400Y912812D01*
X2366050Y906462D01*
X2366050Y806450D01*
X2378750Y793750D01*
G54D14*
X1375450Y1085850D02*
X1375450Y1047750D01*
X1388150Y1035050D01*
X1388150Y933450D01*
X1375450Y920750D01*
X1375450Y869950D01*
G54D14*
X1350050Y1085850D02*
X1350050Y1136650D01*
G54D14*
X1906866Y450056D02*
X1906866Y453628D01*
X1909247Y456009D01*
X1909247Y518716D01*
X1908850Y519112D01*
X1375450Y1263652D02*
G54D11*
D03*
X1908850Y1263650D02*
G54D11*
D03*
X1851700Y925512D02*
G54D11*
D03*
X1864400Y658812D02*
G54D11*
D03*
X1908850Y690562D02*
G54D11*
D03*
X1375450Y671512D02*
G54D11*
D03*
X1948538Y519112D02*
G54D11*
D03*
X2505750Y430212D02*
G54D11*
D03*
X2505750Y271462D02*
G54D11*
D03*
X2734350Y284162D02*
G54D11*
D03*
G54D14*
X2734350Y155575D02*
X2734350Y284162D01*
G54D14*
X2505750Y271462D02*
X2505750Y290512D01*
X2494638Y301625D01*
X2494638Y360362D01*
X2505750Y371475D01*
X2505750Y430212D01*
G54D14*
X1954888Y401241D02*
X1965603Y401241D01*
X1966000Y401638D01*
X1966000Y461962D01*
X1948538Y479425D01*
X1948538Y519112D01*
G54D14*
X1375450Y1136650D02*
X1375450Y1263652D01*
G54D14*
X1908850Y1263650D02*
X1908850Y1412875D01*
G54D14*
X1908850Y1263650D02*
X1889800Y1263650D01*
X1877100Y1250950D01*
X1877100Y1225550D01*
X1858050Y1206500D01*
X1858050Y931862D01*
X1851700Y925512D01*
X1413550Y914400D02*
G54D11*
D03*
G54D14*
X1413550Y914400D02*
X1413550Y855662D01*
X1400850Y842962D01*
X1400850Y830262D01*
X1381800Y811212D01*
X1381800Y785812D01*
X1350050Y754062D01*
X1350050Y717550D01*
G54D14*
X1851700Y925512D02*
X1858050Y919162D01*
X1858050Y665162D01*
X1864400Y658812D01*
X1946950Y658812D02*
G54D11*
D03*
G54D14*
X1946950Y658812D02*
X1946950Y557212D01*
X1978700Y525462D01*
X1978700Y381794D01*
X1954888Y381794D01*
G54D14*
X1948538Y519112D02*
X1921550Y546100D01*
X1921550Y677862D01*
X1908850Y690562D01*
G54D14*
X1375450Y671512D02*
X1375450Y717550D01*
G54D14*
X1908850Y690562D02*
X1908850Y914400D01*
X1902500Y920750D01*
X1902500Y920750D02*
G54D11*
D03*
X2315250Y933450D02*
G54D11*
D03*
G54D14*
X2315250Y933450D02*
X2302550Y920750D01*
X2302550Y895350D01*
X2315250Y882650D01*
X2315250Y842962D01*
X2327950Y830262D01*
X2327950Y793750D01*
G54D14*
X2353350Y793750D02*
X2353350Y842962D01*
X2340650Y855662D01*
X2340650Y881062D01*
X2353350Y893762D01*
X2353350Y906462D01*
X2340650Y919162D01*
X2340650Y944562D01*
X2340650Y944562D02*
G54D11*
D03*
G54D14*
X1902500Y920750D02*
X1908850Y927100D01*
X1908850Y1096962D01*
X1896150Y1109662D01*
X1896150Y1231900D01*
X1921550Y1257300D01*
X1921550Y1289050D01*
X1921550Y1289050D02*
G54D11*
D03*
G54D14*
X1921550Y1289050D02*
X1921550Y1400175D01*
X1934250Y1412875D01*
X1400850Y1289050D02*
G54D11*
D03*
G54D14*
X1400850Y1289050D02*
X1400850Y1136650D01*
X1426250Y1277938D02*
G54D11*
D03*
X1692950Y1277938D02*
G54D11*
D03*
X1959650Y1277938D02*
G54D11*
D03*
X1699300Y760412D02*
G54D11*
D03*
X1699300Y684212D02*
G54D11*
D03*
X1408788Y677862D02*
G54D11*
D03*
X2302550Y760412D02*
G54D11*
D03*
G54D14*
X1426250Y1136650D02*
X1426250Y1277938D01*
G54D14*
X1692950Y1277938D02*
X1692950Y817562D01*
X1699300Y811212D01*
X1699300Y760412D01*
G54D14*
X2302550Y760412D02*
X2302550Y793750D01*
X2289850Y500062D02*
G54D11*
D03*
X1832650Y512762D02*
G54D11*
D03*
G54D14*
X1837809Y450056D02*
X1837809Y490141D01*
X1832650Y495300D01*
X1832650Y512762D01*
G54D14*
X1699300Y760412D02*
X1699300Y684212D01*
X1686600Y671512D01*
X1686600Y522288D01*
X1673900Y509588D01*
X1673900Y485775D01*
X1680250Y479425D01*
X1680250Y362347D01*
X1729462Y362347D01*
G54D14*
X1400850Y717550D02*
X1400850Y685800D01*
X1408788Y677862D01*
G54D14*
X1959650Y1277938D02*
X1959650Y1412875D01*
X1292900Y1155700D02*
G54D11*
D03*
X1311950Y900112D02*
G54D11*
D03*
X1438950Y906462D02*
G54D11*
D03*
X1426250Y823912D02*
G54D11*
D03*
X1961238Y811212D02*
G54D11*
D03*
X2277150Y827088D02*
G54D11*
D03*
X2302550Y354012D02*
G54D11*
D03*
X2505750Y341312D02*
G54D11*
D03*
X2518450Y187325D02*
G54D11*
D03*
X2770862Y201612D02*
G54D11*
D03*
G54D14*
X2759750Y155575D02*
X2759750Y190500D01*
X2770862Y201612D01*
G54D14*
X2518450Y187325D02*
X2518450Y293688D01*
X2512100Y300038D01*
X2512100Y334962D01*
X2505750Y341312D01*
G54D14*
X2302550Y354012D02*
X2302550Y473075D01*
X2315250Y485775D01*
X2315250Y747712D01*
X2302550Y760412D01*
G54D14*
X2289850Y500062D02*
X2289850Y703262D01*
X2302550Y715962D01*
X2302550Y742950D01*
X2277150Y768350D01*
X2277150Y793750D01*
X2277150Y827088D01*
G54D14*
X1426250Y717550D02*
X1426250Y823912D01*
X1438950Y836612D01*
X1438950Y906462D01*
G54D14*
X1311950Y900112D02*
X1311950Y1033462D01*
X1305600Y1039812D01*
X1305600Y1073150D01*
X1286550Y1092200D01*
X1286550Y1149350D01*
X1292900Y1155700D01*
G54D14*
X1985050Y1412875D02*
X1985050Y1270000D01*
X1973938Y1258888D01*
X1973938Y1106488D01*
X1961238Y1093788D01*
X1961238Y938212D01*
X1948538Y925512D01*
X1948538Y900112D01*
X1961238Y887412D01*
X1961238Y811212D01*
X1477050Y1022350D02*
G54D11*
D03*
X1477050Y1301750D02*
G54D11*
D03*
X1680250Y1314450D02*
G54D11*
D03*
G54D14*
X1680250Y1412875D02*
X1680250Y1314450D01*
G54D14*
X1477050Y1301750D02*
X1477050Y1136650D01*
G54D14*
X1477050Y1136650D02*
X1477050Y1022350D01*
X1667550Y1022350D02*
G54D11*
D03*
X1673900Y766762D02*
G54D11*
D03*
G54D14*
X1667550Y1022350D02*
X1667550Y773112D01*
X1673900Y766762D01*
X1724700Y766762D02*
G54D11*
D03*
X1724700Y690562D02*
G54D11*
D03*
G54D14*
X1724700Y766762D02*
X1724700Y690562D01*
X1807250Y690562D02*
G54D11*
D03*
G54D14*
X1817569Y450056D02*
X1817569Y462756D01*
X1815188Y465138D01*
X1815188Y487362D01*
X1821538Y493712D01*
X1821538Y527050D01*
X1807250Y541338D01*
X1807250Y690562D01*
X1438950Y677862D02*
G54D11*
D03*
G54D14*
X1451650Y717550D02*
X1451650Y690562D01*
X1438950Y677862D01*
X1502450Y1060450D02*
G54D11*
D03*
X1527850Y1060450D02*
G54D11*
D03*
X1578650Y1060450D02*
G54D11*
D03*
X1599288Y1060450D02*
G54D11*
D03*
X1350050Y1060450D02*
G54D11*
D03*
X1743750Y1060450D02*
G54D11*
D03*
X1502450Y1328738D02*
G54D11*
D03*
X1654850Y1328738D02*
G54D11*
D03*
X1718350Y1327150D02*
G54D11*
D03*
X1362750Y939800D02*
G54D11*
D03*
X1464350Y939800D02*
G54D11*
D03*
X1496100Y627062D02*
G54D11*
D03*
X1775500Y627062D02*
G54D11*
D03*
X2220000Y588962D02*
G54D11*
D03*
X2220000Y717550D02*
G54D11*
D03*
X2213650Y835025D02*
G54D11*
D03*
X2467650Y831850D02*
G54D11*
D03*
X2486700Y1016000D02*
G54D11*
D03*
X2632750Y1016000D02*
G54D11*
D03*
G54D14*
X2632750Y1016000D02*
X2632750Y971550D01*
G54D14*
X2486700Y1016000D02*
X2486700Y925512D01*
X2467650Y906462D01*
X2467650Y831850D01*
G54D14*
X2213650Y835025D02*
X2213650Y830262D01*
X2226350Y817562D01*
X2226350Y793750D01*
G54D14*
X2226350Y793750D02*
X2226350Y754062D01*
X2232700Y747712D01*
X2232700Y708025D01*
X2227938Y703262D01*
X2220000Y703262D01*
X2213650Y696912D01*
X2213650Y595312D01*
X2220000Y588962D01*
G54D14*
X1496100Y627062D02*
X1496100Y666750D01*
X1477050Y685800D01*
X1477050Y717550D01*
X1477050Y812800D01*
X1464350Y825500D01*
X1464350Y939800D01*
G54D14*
X1362750Y939800D02*
X1362750Y1035050D01*
X1350050Y1047750D01*
X1350050Y1060450D01*
G54D14*
X1502450Y1060450D02*
X1502450Y1136650D01*
G54D14*
X1777881Y450056D02*
X1777881Y456406D01*
X1770738Y463550D01*
X1770738Y501650D01*
X1775500Y506412D01*
X1775500Y627062D01*
G54D14*
X1654850Y1412875D02*
X1654850Y1328738D01*
G54D14*
X1502450Y1136650D02*
X1502450Y1328738D01*
X1527850Y1250950D02*
G54D11*
D03*
X1629450Y1250950D02*
G54D11*
D03*
G54D14*
X1629450Y1412875D02*
X1629450Y1250950D01*
G54D14*
X1527850Y1250950D02*
X1527850Y1136650D01*
X1527850Y1098550D02*
G54D11*
D03*
X1705650Y1117600D02*
G54D11*
D03*
X1705650Y1098550D02*
G54D11*
D03*
X1718350Y844550D02*
G54D11*
D03*
X1510388Y831850D02*
G54D11*
D03*
X1540550Y531812D02*
G54D11*
D03*
X1762800Y538162D02*
G54D11*
D03*
X1762800Y557212D02*
G54D11*
D03*
X2207300Y538162D02*
G54D11*
D03*
G54D14*
X2207300Y538162D02*
X2207300Y787400D01*
X2200950Y793750D01*
G54D14*
X1767959Y450056D02*
X1767959Y452041D01*
X1762800Y457200D01*
X1762800Y538162D01*
G54D14*
X1540550Y531812D02*
X1540550Y652462D01*
X1502450Y690562D01*
X1502450Y717550D01*
X1502450Y823912D01*
X1510388Y831850D01*
G54D14*
X1718350Y844550D02*
X1718350Y1104900D01*
X1705650Y1117600D01*
G54D14*
X1527850Y1136650D02*
X1527850Y1098550D01*
X1553250Y1206500D02*
G54D11*
D03*
X1604050Y1206500D02*
G54D11*
D03*
G54D14*
X1604050Y1412875D02*
X1604050Y1206500D01*
G54D14*
X1553250Y1136650D02*
X1553250Y1206500D01*
X2156500Y1206500D02*
G54D11*
D03*
G54D14*
X2156500Y1206500D02*
X2156500Y1128712D01*
X2162850Y1122362D01*
X2162850Y1084262D01*
X2156500Y1077912D01*
X2156500Y1046162D01*
X2162850Y1039812D01*
X2162850Y806450D01*
X2175550Y793750D01*
X1553250Y519112D02*
G54D11*
D03*
X1851700Y531812D02*
G54D11*
D03*
X2181900Y531812D02*
G54D11*
D03*
G54D14*
X2175550Y793750D02*
X2175550Y754062D01*
X2194600Y735012D01*
X2194600Y561975D01*
X2181900Y549275D01*
X2181900Y531812D01*
G54D14*
X1527850Y717550D02*
X1527850Y695325D01*
X1553250Y669925D01*
X1553250Y519112D01*
G54D14*
X1857653Y450056D02*
X1857653Y525860D01*
X1851700Y531812D01*
X1413550Y1181100D02*
G54D11*
D03*
X1578650Y1181100D02*
G54D11*
D03*
G54D14*
X1578650Y1412875D02*
X1578650Y1181100D01*
G54D14*
X1426250Y984250D02*
X1426250Y1035050D01*
X1413550Y1047750D01*
X1413550Y1181100D01*
X2080300Y1162050D02*
G54D11*
D03*
G54D14*
X1954888Y322659D02*
X2003703Y322659D01*
X2004100Y322262D01*
X2004100Y377825D01*
X1991400Y390525D01*
X1991400Y536575D01*
X1972350Y555625D01*
X1972350Y720725D01*
X2043788Y792162D01*
X2043788Y882650D01*
X2088238Y927100D01*
X2088238Y1154112D01*
X2080300Y1162050D01*
X1629450Y946150D02*
G54D11*
D03*
X1527850Y933450D02*
G54D11*
D03*
G54D14*
X1515150Y1435100D02*
X1515150Y946150D01*
X1527850Y933450D01*
X1540550Y920750D01*
X1540550Y730250D01*
X1553250Y717550D01*
G54D14*
X1629450Y984250D02*
X1629450Y946150D01*
X1565950Y588962D02*
G54D11*
D03*
X1565950Y506412D02*
G54D11*
D03*
G54D14*
X1565950Y506412D02*
X1565950Y588962D01*
X1565950Y704850D01*
X1553250Y717550D01*
X1286550Y569912D02*
G54D11*
D03*
G36*
X1291250Y654112D02*
X1307250Y654112D01*
X1307250Y638112D01*
X1291250Y638112D01*
X1291250Y654112D01*
G37*
X1324650Y646112D02*
G54D15*
D03*
X1350050Y646112D02*
G54D15*
D03*
X1375450Y646112D02*
G54D15*
D03*
X1400850Y646112D02*
G54D15*
D03*
X1426250Y646112D02*
G54D15*
D03*
X1451650Y646112D02*
G54D15*
D03*
X1477050Y646112D02*
G54D15*
D03*
G36*
X1291250Y596962D02*
X1307250Y596962D01*
X1307250Y580962D01*
X1291250Y580962D01*
X1291250Y596962D01*
G37*
X1324650Y588962D02*
G54D15*
D03*
X1350050Y588962D02*
G54D15*
D03*
X1375450Y588962D02*
G54D15*
D03*
X1400850Y588962D02*
G54D15*
D03*
X1426250Y588962D02*
G54D15*
D03*
X1451650Y588962D02*
G54D15*
D03*
X1477050Y588962D02*
G54D15*
D03*
G54D14*
X1299250Y646112D02*
X1286550Y633412D01*
X1286550Y569912D01*
X2758162Y582612D02*
G54D11*
D03*
G54D14*
X2758162Y582612D02*
X2772450Y568325D01*
X2772450Y371475D01*
X2708950Y307975D01*
G54D14*
X2758162Y582612D02*
X2758162Y596900D01*
X2772450Y611188D01*
X2772450Y728662D01*
X2740700Y760412D01*
X2740700Y901700D01*
X2708950Y933450D01*
X2708950Y971550D01*
X1688188Y307975D02*
G54D11*
D03*
X1400850Y320675D02*
G54D11*
D03*
X1413550Y506412D02*
G54D11*
D03*
X1311950Y506412D02*
G54D11*
D03*
G54D14*
X1324650Y646112D02*
X1324650Y620712D01*
X1311950Y609600D01*
X1311950Y506412D01*
G54D14*
X1413550Y506412D02*
X1413550Y352425D01*
X1400850Y339725D01*
X1400850Y320675D01*
G54D14*
X1729462Y312341D02*
X1692553Y312341D01*
X1688188Y307975D01*
G54D14*
X1688188Y307975D02*
X1675488Y295275D01*
X1675488Y174625D01*
X1675488Y174625D02*
G54D11*
D03*
X1675488Y155575D02*
G54D11*
D03*
X1675488Y136525D02*
G54D11*
D03*
X1654850Y933450D02*
G54D11*
D03*
X1565950Y919162D02*
G54D11*
D03*
G54D14*
X1540550Y1435100D02*
X1540550Y952500D01*
X1565950Y927100D01*
X1565950Y919162D01*
G54D14*
X1565950Y919162D02*
X1565950Y844550D01*
X1578650Y831850D01*
X1578650Y717550D01*
X1591350Y601662D02*
G54D11*
D03*
G54D14*
X1578650Y717550D02*
X1578650Y614362D01*
X1591350Y601662D01*
X2778800Y595312D02*
G54D11*
D03*
G54D14*
X2778800Y595312D02*
X2778800Y893762D01*
X2734350Y938212D01*
X2734350Y971550D01*
G54D14*
X2778800Y595312D02*
X2778800Y352425D01*
X2734350Y307975D01*
X1375450Y307975D02*
G54D11*
D03*
X1699300Y290512D02*
G54D11*
D03*
G54D14*
X1675488Y155575D02*
X1681838Y155575D01*
X1688188Y161925D01*
X1688188Y279400D01*
X1699300Y290512D01*
G54D14*
X1729462Y302419D02*
X1711206Y302419D01*
X1699300Y290512D01*
G54D14*
X1375450Y307975D02*
X1375450Y339725D01*
X1362750Y352425D01*
X1362750Y608012D01*
X1375450Y620712D01*
X1375450Y646112D01*
G54D14*
X1654850Y984250D02*
X1654850Y933450D01*
X1629450Y1073150D02*
G54D11*
D03*
X1565950Y1073150D02*
G54D11*
D03*
G54D14*
X1565950Y1435100D02*
X1565950Y1073150D01*
G54D14*
X1629450Y1073150D02*
X1629450Y1060450D01*
X1578650Y1009650D01*
X1578650Y984250D01*
G54D14*
X1578650Y984250D02*
X1578650Y952500D01*
X1591350Y939800D01*
X1591350Y842962D01*
X1604050Y830262D01*
X1604050Y717550D01*
X1604050Y620712D01*
X1610400Y614362D01*
X1610400Y614362D02*
G54D11*
D03*
X2791500Y614362D02*
G54D11*
D03*
G54D14*
X2791500Y614362D02*
X2791500Y339725D01*
X2759750Y307975D01*
G54D14*
X2791500Y614362D02*
X2791500Y615950D01*
X2785150Y622300D01*
X2785150Y904875D01*
X2759750Y930275D01*
X2759750Y971550D01*
X1483400Y900112D02*
G54D11*
D03*
X1604050Y887412D02*
G54D11*
D03*
G54D14*
X1642150Y1435100D02*
X1642150Y1060450D01*
X1616750Y1035050D01*
X1616750Y900112D01*
X1604050Y887412D01*
G54D14*
X1483400Y900112D02*
X1483400Y977900D01*
X1477050Y984250D01*
X1661200Y717550D02*
G54D11*
D03*
G54D14*
X1629450Y869950D02*
X1642150Y857250D01*
X1642150Y811212D01*
X1661200Y792162D01*
X1661200Y717550D01*
X1661200Y652462D01*
X1661200Y652462D02*
G54D11*
D03*
X2797850Y692150D02*
G54D11*
D03*
G54D14*
X2797850Y692150D02*
X2791500Y698500D01*
X2791500Y927100D01*
X2785150Y933450D01*
X2785150Y971550D01*
G54D14*
X2797850Y692150D02*
X2804200Y685800D01*
X2804200Y587375D01*
X2797850Y581025D01*
X2797850Y320675D01*
X2785150Y307975D01*
X1496100Y231775D02*
G54D11*
D03*
G54D14*
X1477050Y646112D02*
X1477050Y620712D01*
X1496100Y601662D01*
X1496100Y231775D01*
X1712000Y231775D02*
G54D11*
D03*
G54D14*
X1729463Y272256D02*
X1727081Y272256D01*
X1712000Y257175D01*
X1712000Y231775D01*
X1712000Y180975D01*
X1718350Y174625D01*
X1718350Y174625D02*
G54D11*
D03*
X1451650Y895350D02*
G54D11*
D03*
G54D14*
X1451650Y984250D02*
X1451650Y895350D01*
G54D14*
X1604050Y869950D02*
X1605638Y869950D01*
X1642150Y906462D01*
X1642150Y1035050D01*
X1667550Y1060450D01*
X1667550Y1435100D01*
X1616750Y747712D02*
G54D11*
D03*
G54D14*
X1604050Y869950D02*
X1604050Y844550D01*
X1616750Y831850D01*
X1616750Y747712D01*
X1318300Y747712D02*
G54D11*
D03*
G54D14*
X1318300Y747712D02*
X1318300Y746125D01*
X1311950Y739775D01*
X1311950Y628650D01*
X1299250Y615950D01*
X1299250Y588962D01*
X2802612Y736600D02*
G54D11*
D03*
G54D14*
X2802612Y736600D02*
X2802612Y739775D01*
X2797850Y744538D01*
X2797850Y785812D01*
X2804200Y792162D01*
X2804200Y927100D01*
X2810550Y933450D01*
X2810550Y971550D01*
G54D14*
X2802612Y736600D02*
X2810550Y728662D01*
X2810550Y307975D01*
X1997750Y550862D02*
G54D11*
D03*
G54D14*
X1997750Y550862D02*
X1997750Y423862D01*
X2004100Y417512D01*
X2004100Y390525D01*
X2016800Y377825D01*
X2016800Y333375D01*
X2016800Y333375D02*
G54D11*
D03*
X2099350Y307975D02*
G54D11*
D03*
G54D14*
X2099350Y307975D02*
X2093000Y301625D01*
X2093000Y193675D01*
X2086650Y187325D01*
X2061250Y187325D01*
X2061250Y187325D02*
G54D11*
D03*
X1816775Y203200D02*
G54D11*
D03*
G54D14*
X1817568Y224631D02*
X1817568Y203993D01*
X1816775Y203200D01*
X1502450Y946150D02*
G54D11*
D03*
X1565950Y946150D02*
G54D11*
D03*
G54D14*
X1502450Y984250D02*
X1502450Y946150D01*
G54D14*
X1565950Y946150D02*
X1565950Y1008062D01*
X1616750Y1058862D01*
X1616750Y1435100D01*
G54D14*
X1565950Y946150D02*
X1578650Y933450D01*
X1578650Y869950D01*
X1578650Y842962D01*
X1591350Y830262D01*
X1591350Y754062D01*
X1591350Y754062D02*
G54D11*
D03*
X1362750Y747712D02*
G54D11*
D03*
G54D14*
X1362750Y747712D02*
X1362750Y625475D01*
X1350050Y612775D01*
X1350050Y588962D01*
X2810550Y766762D02*
G54D11*
D03*
G54D14*
X2810550Y766762D02*
X2810550Y893762D01*
X2835950Y919162D01*
X2835950Y971550D01*
G54D14*
X2810550Y766762D02*
X2816900Y760412D01*
X2816900Y334962D01*
X2835950Y315912D01*
X2835950Y307975D01*
X1185548Y678311D02*
G54D16*
D03*
X1185548Y576711D02*
G54D16*
D03*
X1210948Y678311D02*
G54D16*
D03*
X1210948Y576711D02*
G54D16*
D03*
X1236348Y678311D02*
G54D16*
D03*
X1236348Y576711D02*
G54D16*
D03*
X1986638Y569912D02*
G54D11*
D03*
G54D14*
X1986638Y569912D02*
X1997750Y569912D01*
X2010450Y557212D01*
X2010450Y442912D01*
X2010450Y442912D02*
G54D11*
D03*
X2124750Y442912D02*
G54D11*
D03*
G54D14*
X2124750Y442912D02*
X2124750Y333375D01*
X2124750Y333375D02*
G54D11*
D03*
X2093000Y333375D02*
G54D11*
D03*
G54D14*
X2093000Y333375D02*
X2086650Y327025D01*
X2086650Y206375D01*
X2080300Y200025D01*
X2080300Y200025D02*
G54D11*
D03*
X1845350Y193675D02*
G54D11*
D03*
G54D14*
X1837809Y224631D02*
X1837809Y201216D01*
X1845350Y193675D01*
X2275562Y354012D02*
G54D11*
D03*
G54D14*
X2275562Y354012D02*
X2275562Y331788D01*
X2264450Y320675D01*
X2264450Y303212D01*
X1699300Y174625D02*
G54D11*
D03*
X1699300Y250825D02*
G54D11*
D03*
G54D14*
X1729462Y282575D02*
X1719938Y282575D01*
X1699300Y261938D01*
X1699300Y250825D01*
G54D14*
X1699300Y250825D02*
X1699300Y174625D01*
X1451650Y263525D02*
G54D11*
D03*
G54D14*
X1451650Y263525D02*
X1451650Y320675D01*
X1438950Y333375D01*
X1438950Y633412D01*
X1426250Y646112D01*
G54D14*
X1527850Y984250D02*
X1527850Y1060450D01*
G54D14*
X1578650Y1060450D02*
X1591350Y1073150D01*
X1591350Y1435100D01*
G54D14*
X1527850Y984250D02*
X1527850Y950912D01*
X1553250Y925512D01*
X1553250Y869950D01*
X1553250Y735012D02*
G54D11*
D03*
X1413550Y735012D02*
G54D11*
D03*
G54D14*
X1553250Y869950D02*
X1551662Y869950D01*
X1546900Y865188D01*
X1546900Y741362D01*
X1553250Y735012D01*
G54D14*
X1413550Y735012D02*
X1413550Y693738D01*
X1424662Y682625D01*
X1424662Y674688D01*
X1413550Y663575D01*
X1413550Y625475D01*
X1400850Y612775D01*
X1400850Y588962D01*
X2828012Y703262D02*
G54D11*
D03*
G54D14*
X2828012Y703262D02*
X2828012Y709612D01*
X2829600Y711200D01*
X2829600Y760412D01*
X2823250Y766762D01*
X2823250Y881062D01*
X2861350Y919162D01*
X2861350Y971550D01*
G54D14*
X2828012Y703262D02*
X2828012Y701675D01*
X2823250Y696912D01*
X2823250Y339725D01*
X2829600Y333375D01*
X2853412Y333375D01*
X2861350Y325438D01*
X2861350Y307975D01*
X2004100Y581025D02*
G54D11*
D03*
G54D14*
X2004100Y581025D02*
X2016800Y568325D01*
X2016800Y517525D01*
X2023150Y511175D01*
X2023150Y428625D01*
X2016800Y422275D01*
X2016800Y403225D01*
X2029500Y390525D01*
X2029500Y390525D02*
G54D11*
D03*
X2099350Y390525D02*
G54D11*
D03*
G54D14*
X2099350Y390525D02*
X2099350Y373062D01*
X2080300Y354012D01*
X2080300Y219075D01*
X2073950Y212725D01*
X2042200Y212725D01*
X2042200Y212725D02*
G54D11*
D03*
X1858050Y206375D02*
G54D11*
D03*
G54D14*
X1847334Y224631D02*
X1847334Y217091D01*
X1858050Y206375D01*
X1604050Y912812D02*
G54D11*
D03*
G54D14*
X1604050Y984250D02*
X1604050Y912812D01*
X1521500Y906462D02*
G54D11*
D03*
G54D14*
X1521500Y906462D02*
X1519912Y906462D01*
X1489750Y936625D01*
X1489750Y1193800D01*
X1489750Y1193800D02*
G54D11*
D03*
X1438950Y1193800D02*
G54D11*
D03*
G54D14*
X1438950Y1193800D02*
X1438950Y1435100D01*
G54D14*
X1521500Y906462D02*
X1527850Y900112D01*
X1527850Y869950D01*
X1527850Y741362D01*
X1527850Y741362D02*
G54D11*
D03*
X1464350Y741362D02*
G54D11*
D03*
G54D14*
X1464350Y741362D02*
X1464350Y601662D01*
X1451650Y588962D01*
X2840712Y722312D02*
G54D11*
D03*
G54D14*
X2840712Y722312D02*
X2840712Y762000D01*
X2829600Y773112D01*
X2829600Y874712D01*
X2886750Y931862D01*
X2886750Y971550D01*
G54D14*
X2840712Y722312D02*
X2840712Y695325D01*
X2829600Y684212D01*
X2829600Y346075D01*
X2835950Y339725D01*
X2878812Y339725D01*
X2886750Y331788D01*
X2886750Y307975D01*
X1985050Y593725D02*
G54D11*
D03*
G54D14*
X1985050Y593725D02*
X2016800Y593725D01*
X2023150Y587375D01*
X2023150Y531812D01*
X2029500Y525462D01*
X2029500Y415925D01*
X2029500Y415925D02*
G54D11*
D03*
X2080300Y415925D02*
G54D11*
D03*
X2080300Y379412D02*
G54D11*
D03*
G54D14*
X2080300Y415925D02*
X2080300Y379412D01*
G54D14*
X2080300Y379412D02*
X2073950Y373062D01*
X2073950Y231775D01*
X2067600Y225425D01*
X2067600Y225425D02*
G54D11*
D03*
X1877100Y206375D02*
G54D11*
D03*
G54D14*
X1877100Y224631D02*
X1877100Y206375D01*
G54D14*
X1781850Y1136650D02*
X1781850Y1231900D01*
X1819950Y1270000D01*
X1819950Y1435100D01*
G54D14*
X1781850Y1136650D02*
X1781850Y1117600D01*
X1794550Y1104900D01*
X1794550Y944562D01*
X1788200Y938212D01*
X1788200Y938212D02*
G54D11*
D03*
G54D14*
X1788200Y938212D02*
X1781850Y931862D01*
X1781850Y798512D01*
X1775500Y792162D01*
X1775500Y792162D02*
G54D11*
D03*
X1458000Y792162D02*
G54D11*
D03*
G54D14*
X1451650Y869950D02*
X1451650Y798512D01*
X1458000Y792162D01*
G54D14*
X2556550Y971550D02*
X2556550Y720725D01*
X2543850Y708025D01*
X2543850Y341312D01*
X2543850Y341312D02*
G54D11*
D03*
X2683550Y341312D02*
G54D11*
D03*
G54D14*
X2683550Y341312D02*
X2670850Y328612D01*
X2670850Y295275D01*
X2658150Y282575D01*
X2658150Y155575D01*
X2148562Y320675D02*
G54D11*
D03*
G54D14*
X2148562Y320675D02*
X2124750Y296862D01*
X2124750Y257175D01*
X2124750Y257175D02*
G54D11*
D03*
X1908850Y271462D02*
G54D11*
D03*
G54D14*
X1926312Y302419D02*
X1915994Y302419D01*
X1908850Y295275D01*
X1908850Y271462D01*
X1800900Y1130300D02*
G54D11*
D03*
G54D14*
X1800900Y1130300D02*
X1800900Y1233488D01*
X1845350Y1277938D01*
X1845350Y1435100D01*
G54D14*
X1800900Y1130300D02*
X1800900Y906462D01*
X1794550Y900112D01*
X1794550Y900112D02*
G54D11*
D03*
X2358112Y920750D02*
G54D11*
D03*
G54D14*
X2353350Y869950D02*
X2353350Y874712D01*
X2359700Y881062D01*
X2359700Y919162D01*
X2358112Y920750D01*
G54D14*
X2581950Y971550D02*
X2581950Y925512D01*
X2607350Y900112D01*
X2607350Y741362D01*
X2581950Y715962D01*
X2581950Y414338D01*
X2569250Y401638D01*
X2569250Y284162D01*
X2569250Y284162D02*
G54D11*
D03*
X1985050Y258762D02*
G54D11*
D03*
G54D14*
X1954888Y262731D02*
X1981081Y262731D01*
X1985050Y258762D01*
G54D14*
X1781850Y984250D02*
X1781850Y1104900D01*
X1769150Y1117600D01*
X1769150Y1244600D01*
X1794550Y1270000D01*
X1794550Y1435100D01*
X1819950Y984250D02*
G54D11*
D03*
X1819950Y912812D02*
G54D11*
D03*
G54D14*
X1819950Y984250D02*
X1819950Y912812D01*
X2378750Y939800D02*
G54D11*
D03*
G54D14*
X2378750Y939800D02*
X2378750Y869950D01*
X2531150Y939800D02*
G54D11*
D03*
G54D14*
X2531150Y939800D02*
X2531150Y614362D01*
X2499400Y582612D01*
X2499400Y441325D01*
X2493050Y434975D01*
X2493050Y377825D01*
X2488288Y373062D01*
X2488288Y261938D01*
X2505750Y244475D01*
X2505750Y104775D01*
X2512100Y98425D01*
X2512100Y98425D02*
G54D11*
D03*
X1921550Y111125D02*
G54D11*
D03*
G54D14*
X1906866Y224631D02*
X1906866Y214709D01*
X1921550Y200025D01*
X1921550Y111125D01*
G54D14*
X1756450Y984250D02*
X1756450Y1104900D01*
X1743750Y1117600D01*
X1743750Y1244600D01*
X1769150Y1270000D01*
X1769150Y1435100D01*
G54D14*
X1756450Y984250D02*
X1756450Y844550D01*
X1756450Y844550D02*
G54D11*
D03*
G54D14*
X1756450Y844550D02*
X1762800Y838200D01*
X1762800Y557212D01*
X2035850Y544512D02*
G54D11*
D03*
X2086650Y544512D02*
G54D16*
D03*
X2112050Y544512D02*
G54D16*
D03*
G54D14*
X1954888Y292497D02*
X2026722Y292497D01*
X2031088Y296862D01*
X2031088Y354012D01*
X2042200Y365125D01*
X2042200Y538162D01*
X2035850Y544512D01*
X1927900Y830262D02*
G54D11*
D03*
G54D14*
X1927900Y830262D02*
X1927900Y820738D01*
X1946950Y801688D01*
X1946950Y795338D01*
X1948538Y793750D01*
G54D14*
X1731050Y984250D02*
X1731050Y1104900D01*
X1718350Y1117600D01*
X1718350Y1246188D01*
X1743750Y1271588D01*
X1743750Y1435100D01*
X1680250Y1073150D02*
G54D11*
D03*
X1654850Y1073150D02*
G54D11*
D03*
G54D14*
X1705650Y984250D02*
X1705650Y1098550D01*
X1877100Y1111250D02*
G54D11*
D03*
X1877100Y1193800D02*
G54D11*
D03*
X1921550Y1193800D02*
G54D11*
D03*
X1942188Y1193800D02*
G54D11*
D03*
G54D14*
X1877100Y1193800D02*
X1877100Y1111250D01*
G54D14*
X1921550Y1193800D02*
X1921550Y1231900D01*
X1946950Y1257300D01*
X1946950Y1333500D01*
X1946950Y1333500D02*
G54D11*
D03*
G54D14*
X1718350Y1435100D02*
X1718350Y1327150D01*
X1960620Y1224732D02*
G54D16*
D03*
X1960620Y1123132D02*
G54D16*
D03*
X2594650Y1092200D02*
G54D11*
D03*
G54D14*
X2594650Y1092200D02*
X2594650Y933450D01*
X2645450Y882650D01*
X2645450Y869950D01*
G54D14*
X2620050Y869950D02*
X2620050Y849312D01*
X2639100Y830262D01*
X2664500Y830262D01*
X2683550Y811212D01*
X2683550Y677862D01*
X2696250Y665162D01*
X2696250Y614362D01*
X2340650Y900112D02*
G54D11*
D03*
G54D14*
X2340650Y900112D02*
X2327950Y912812D01*
X2327950Y938212D01*
X2315250Y950912D01*
X2315250Y1028700D01*
X2327950Y1041400D01*
X2327950Y1060450D01*
X2569250Y574675D02*
G54D16*
D03*
X2594650Y574675D02*
G54D16*
D03*
G54D14*
X2594650Y614362D02*
X2594650Y574675D01*
X1826300Y601662D02*
G54D11*
D03*
G54D14*
X1826300Y601662D02*
X1829475Y601662D01*
X1839000Y611188D01*
X1839000Y755650D01*
X1834238Y760412D01*
X1834238Y825500D01*
X1846938Y838200D01*
X1846938Y869950D01*
G54D14*
X2620050Y614362D02*
X2620050Y596900D01*
X2632750Y584200D01*
X2632750Y423862D01*
X2632750Y423862D02*
G54D11*
D03*
X1743750Y436562D02*
G54D11*
D03*
G54D14*
X1743750Y436562D02*
X1737400Y442912D01*
X1737400Y531812D01*
X1743750Y538162D01*
X1743750Y804862D01*
X1731050Y817562D01*
X1731050Y887412D01*
X1731050Y887412D02*
G54D11*
D03*
G54D14*
X2569250Y690562D02*
X2569250Y614362D01*
X2632750Y671512D02*
G54D11*
D03*
G54D14*
X2645450Y614362D02*
X2645450Y636588D01*
X2632750Y649288D01*
X2632750Y671512D01*
X2556550Y633412D02*
G54D11*
D03*
G54D14*
X2556550Y633412D02*
X2556550Y587375D01*
X2569250Y574675D01*
G54D14*
X2670850Y614362D02*
X2670850Y652462D01*
X2658150Y665162D01*
X2658150Y760412D01*
X2658150Y760412D02*
G54D11*
D03*
X2112050Y773112D02*
G54D11*
D03*
X2112050Y830262D02*
G54D11*
D03*
G54D14*
X2112050Y830262D02*
X2112050Y773112D01*
X1948538Y830262D02*
G54D11*
D03*
G54D14*
X1948538Y869950D02*
X1948538Y830262D01*
X1565950Y823912D02*
G54D17*
D03*
G54D14*
X1324650Y869950D02*
X1324650Y831850D01*
X1324650Y831850D02*
G54D17*
D03*
X1986020Y1224732D02*
G54D18*
D03*
X1986020Y1123132D02*
G54D18*
D03*
G54D14*
X2696250Y690562D02*
X2696250Y725488D01*
X2734350Y763588D01*
X2734350Y889000D01*
X2696250Y927100D01*
X2696250Y996950D01*
X2702600Y1003300D01*
X2702600Y1054100D01*
X2702600Y1054100D02*
G54D17*
D03*
G54D14*
X2696250Y523875D02*
X2696250Y549275D01*
X2658150Y587375D01*
X2658150Y644525D01*
X2645450Y657225D01*
X2645450Y690562D01*
G54D14*
X2696250Y523875D02*
X2696250Y517525D01*
X2683550Y504825D01*
X2683550Y415925D01*
X2683550Y415925D02*
G54D17*
D03*
X2112050Y415925D02*
G54D17*
D03*
G54D14*
X2112050Y415925D02*
X2112050Y347662D01*
X2112050Y347662D02*
G54D17*
D03*
X1991400Y333375D02*
G54D17*
D03*
G54D14*
X1954888Y342503D02*
X1982272Y342503D01*
X1991400Y333375D01*
X2143800Y1301750D02*
G54D17*
D03*
X1883450Y1301750D02*
G54D17*
D03*
G54D14*
X1883450Y1412875D02*
X1883450Y1301750D01*
X1654850Y1301750D02*
G54D17*
D03*
G54D14*
X1654850Y1301750D02*
X1654850Y1136650D01*
X1654850Y1073150D01*
X1292900Y1065212D02*
G54D17*
D03*
G54D14*
X1292900Y1065212D02*
X1292900Y1063625D01*
X1286550Y1057275D01*
X1286550Y895350D01*
X1292900Y889000D01*
X1292900Y889000D02*
G54D17*
D03*
X1242100Y882650D02*
G54D17*
D03*
G54D14*
X1242100Y882650D02*
X1223050Y863600D01*
X1223050Y709612D01*
X1216700Y703262D01*
X1216700Y703262D02*
G54D17*
D03*
X1299250Y671512D02*
G54D17*
D03*
G54D14*
X1299250Y671512D02*
X1288138Y671512D01*
X1280200Y663575D01*
X1280200Y588962D01*
X1267500Y576262D01*
X1267500Y549275D01*
X1292900Y523875D01*
X1292900Y481012D01*
X1292900Y481012D02*
G54D17*
D03*
G54D14*
X2143800Y1301750D02*
X2143800Y1200150D01*
X2150150Y1193800D01*
X2150150Y1125538D01*
X2139038Y1114425D01*
X2139038Y898525D01*
X2150150Y887412D01*
X2150150Y860425D01*
X2143800Y854075D01*
X2143800Y766762D01*
X2143800Y766762D02*
G54D17*
D03*
X2512100Y766762D02*
G54D17*
D03*
G54D14*
X2512100Y766762D02*
X2512100Y652462D01*
X2512100Y652462D02*
G54D17*
D03*
X2861350Y652462D02*
G54D17*
D03*
G54D14*
X2861350Y652462D02*
X2861350Y549275D01*
X2886750Y523875D01*
G54D14*
X2512100Y652462D02*
X2512100Y619125D01*
X2486700Y593725D01*
X2486700Y447675D01*
X2486700Y447675D02*
G54D17*
D03*
G54D14*
X2912150Y523875D02*
X2912150Y473075D01*
X2924850Y460375D01*
X2924850Y271462D01*
X2924850Y271462D02*
G54D17*
D03*
X2683550Y271462D02*
G54D17*
D03*
G54D14*
X2683550Y307975D02*
X2683550Y271462D01*
G54D14*
X2912150Y523875D02*
X2912150Y530225D01*
X2874050Y568325D01*
X2874050Y895350D01*
X2874050Y895350D02*
G54D17*
D03*
X3013750Y895350D02*
G54D17*
D03*
G54D14*
X3013750Y895350D02*
X3013750Y971550D01*
X3123288Y493712D02*
G54D19*
D03*
X3171688Y493712D02*
G54D19*
D03*
X2878812Y487362D02*
G54D17*
D03*
G54D14*
X2861350Y447675D02*
X2861350Y469900D01*
X2878812Y487362D01*
G54D14*
X2937550Y523875D02*
X2937550Y447675D01*
X2937550Y377825D02*
G54D17*
D03*
G54D14*
X2937550Y447675D02*
X2937550Y377825D01*
G54D14*
X2962950Y523875D02*
X2962950Y536575D01*
X2970888Y544512D01*
X2988350Y544512D01*
X2994700Y550862D01*
X2994700Y577850D01*
X3001050Y584200D01*
X3001050Y1052512D01*
X2988350Y1065212D01*
X2988350Y1123950D01*
X2994700Y550862D02*
G54D17*
D03*
X2620050Y487362D02*
G54D17*
D03*
X2696250Y487362D02*
G54D17*
D03*
G54D14*
X2620050Y523875D02*
X2620050Y487362D01*
G54D14*
X2696250Y487362D02*
X2721650Y511175D01*
X2721650Y523875D01*
X2594650Y404812D02*
G54D17*
D03*
G54D14*
X2620050Y447675D02*
X2620050Y436562D01*
X2594650Y411162D01*
X2594650Y404812D01*
X2402562Y404812D02*
G54D17*
D03*
G54D14*
X2402562Y404812D02*
X2402562Y422275D01*
X2393038Y431800D01*
X2393038Y473075D01*
X2372400Y493712D01*
X2372400Y584200D01*
X2366050Y590550D01*
X2366050Y631825D01*
X2354938Y642938D01*
X2354938Y649288D01*
X2354938Y649288D02*
G54D17*
D03*
X2302550Y649288D02*
G54D17*
D03*
G54D14*
X2302550Y690562D02*
X2302550Y649288D01*
G54D14*
X2645450Y447675D02*
X2645450Y490538D01*
X2670850Y515938D01*
X2670850Y523875D01*
G54D14*
X2670850Y447675D02*
X2670850Y365125D01*
X2639100Y333375D01*
X2626400Y333375D01*
X2620050Y327025D01*
X2620050Y111125D01*
X2594650Y85725D01*
X2594650Y85725D02*
G54D17*
D03*
X1292900Y71438D02*
G54D17*
D03*
G54D14*
X1292900Y71438D02*
X1292900Y112712D01*
X1286550Y119062D01*
X1286550Y180975D01*
X1299250Y193675D01*
X1299250Y193675D02*
G54D17*
D03*
X861100Y200025D02*
G54D17*
D03*
G54D14*
X861100Y200025D02*
X842050Y180975D01*
X842050Y142875D01*
X841432Y243656D02*
G54D16*
D03*
X841432Y142057D02*
G54D16*
D03*
X2758953Y511361D02*
G54D16*
D03*
X2758953Y460561D02*
G54D16*
D03*
X2062041Y855849D02*
G54D18*
D03*
X2062041Y805048D02*
G54D18*
D03*
X2443041Y855849D02*
G54D16*
D03*
X2443041Y805048D02*
G54D16*
D03*
X2963363Y396795D02*
G54D16*
D03*
X2861763Y396795D02*
G54D16*
D03*
X2963363Y371395D02*
G54D16*
D03*
X2861763Y371395D02*
G54D16*
D03*
X2995639Y396555D02*
G54D16*
D03*
X2995639Y371155D02*
G54D16*
D03*
G54D14*
X2861350Y447675D02*
X2861350Y397208D01*
X2861763Y396795D01*
X2886750Y411162D02*
G54D17*
D03*
X2912150Y398462D02*
G54D17*
D03*
G54D14*
X2886750Y447675D02*
X2886750Y411162D01*
G54D14*
X2912150Y447675D02*
X2912150Y398462D01*
G54D14*
X2962950Y447675D02*
X2962950Y430212D01*
X2977238Y415925D01*
X3012162Y415925D01*
X3020100Y407988D01*
X3020100Y350838D01*
X3001050Y331788D01*
X3001050Y195262D01*
X3001050Y195262D02*
G54D17*
D03*
X1800900Y142875D02*
G54D17*
D03*
G54D14*
X1807647Y224631D02*
X1807647Y149622D01*
X1800900Y142875D01*
G54D14*
X2988350Y447675D02*
X2988350Y433388D01*
X2994700Y427038D01*
X3026450Y427038D01*
X3032800Y420688D01*
X3032800Y396875D01*
X3039150Y390525D01*
X3039150Y346075D01*
X3026450Y333375D01*
X3026450Y207962D01*
X3026450Y207962D02*
G54D17*
D03*
X2486700Y207962D02*
G54D17*
D03*
X2486700Y231775D02*
G54D17*
D03*
X2486700Y111125D02*
G54D17*
D03*
G54D14*
X2486700Y207962D02*
X2486700Y111125D01*
X1565950Y136525D02*
G54D17*
D03*
G54D14*
X1565950Y136525D02*
X1565950Y468312D01*
X1565950Y468312D02*
G54D17*
D03*
X3717012Y523875D02*
G54D17*
D03*
G54D14*
X3717012Y1435100D02*
X3717012Y525462D01*
X3715425Y523875D01*
X3704312Y539750D02*
G54D17*
D03*
G54D14*
X3704312Y539750D02*
X3704312Y1412875D01*
X2543850Y793750D02*
G54D17*
D03*
G54D14*
X2543850Y793750D02*
X2543850Y996950D01*
X2550200Y1003300D01*
X2550200Y1028700D01*
X2543850Y1035050D01*
X2543850Y1225550D01*
X2543850Y1225550D02*
G54D17*
D03*
X2188250Y1257300D02*
G54D17*
D03*
G54D14*
X2188250Y1257300D02*
X2175550Y1244600D01*
X2175550Y1176338D01*
X2188250Y1163638D01*
X2188250Y1143000D01*
X2194600Y1136650D01*
X2194600Y1136650D02*
G54D17*
D03*
X2062220Y1224732D02*
G54D16*
D03*
X2062220Y1123132D02*
G54D16*
D03*
X2975650Y762000D02*
G54D17*
D03*
X2975650Y563562D02*
G54D17*
D03*
X3070900Y563562D02*
G54D17*
D03*
G54D14*
X3070900Y563562D02*
X3070900Y504825D01*
X3109000Y466725D01*
X3109000Y441325D01*
X3097857Y430216D01*
X3089179Y430213D01*
X3140132Y462732D02*
G54D16*
D03*
X3140132Y361132D02*
G54D16*
D03*
X3166585Y462351D02*
G54D16*
D03*
X3166585Y360751D02*
G54D16*
D03*
X3185200Y339725D02*
G54D17*
D03*
G54D14*
X3166585Y462351D02*
X3167349Y462351D01*
X3185200Y444500D01*
X3185200Y339725D01*
X3140750Y227012D02*
G54D17*
D03*
G54D14*
X3140750Y227012D02*
X3140750Y360514D01*
X3140132Y361132D01*
G54D14*
X2486700Y231775D02*
X2499400Y219075D01*
X2499400Y73025D01*
X2499400Y73025D02*
G54D17*
D03*
X1337350Y71438D02*
G54D17*
D03*
G54D14*
X1337350Y71438D02*
X1337350Y327025D01*
X1311950Y352425D01*
X1311950Y404812D01*
X1324650Y417512D01*
X1324650Y449262D01*
G54D14*
X2670850Y869950D02*
X2670850Y896938D01*
X2645450Y922338D01*
X2645450Y1047750D01*
X2620050Y1073150D01*
X2620050Y1281112D01*
X2627988Y1289050D01*
X2735938Y1289050D01*
X2735938Y1289050D02*
G54D18*
D03*
X2735938Y1187450D02*
G54D18*
D03*
X2480350Y901700D02*
G54D17*
D03*
G54D14*
X2480350Y901700D02*
X2480350Y785812D01*
X2493050Y773112D01*
X2493050Y627062D01*
X2474000Y608012D01*
X2474000Y434975D01*
X2480350Y428625D01*
X2480350Y263525D01*
X2474000Y257175D01*
X2474000Y85725D01*
X2480350Y79375D01*
X2480350Y79375D02*
G54D17*
D03*
X1827888Y104775D02*
G54D17*
D03*
G54D14*
X1827490Y224631D02*
X1827490Y105172D01*
X1827888Y104775D01*
X1553250Y98425D02*
G54D17*
D03*
G54D14*
X1553250Y98425D02*
X1553250Y487362D01*
X1553250Y487362D02*
G54D17*
D03*
X354688Y103188D02*
G54D17*
D03*
X342958Y243656D02*
G54D18*
D03*
X342958Y142057D02*
G54D18*
D03*
G54D14*
X354688Y103188D02*
X354688Y173038D01*
X343575Y184150D01*
X343575Y243039D01*
X342958Y243656D01*
G54D14*
X342958Y142057D02*
X339631Y142057D01*
X302300Y179388D01*
X303888Y320675D01*
X265913Y358683D01*
G54D14*
X265913Y384083D02*
X305444Y384095D01*
X321350Y400050D01*
X399138Y400050D01*
X419775Y420688D01*
X419775Y479425D01*
X419775Y479425D02*
G54D17*
D03*
X899200Y500062D02*
G54D17*
D03*
G54D14*
X899200Y500062D02*
X899200Y531812D01*
X910312Y542925D01*
X910312Y568325D01*
X924600Y582612D01*
X924600Y722312D01*
X981750Y779462D01*
X981750Y1277938D01*
X956350Y1303338D01*
X508675Y1303338D01*
X424538Y1387475D01*
G54D14*
X597575Y1341438D02*
X597575Y1438275D01*
X407075Y1438275D02*
G54D20*
D03*
X445175Y1438275D02*
G54D20*
D03*
X483275Y1438275D02*
G54D20*
D03*
X521375Y1438275D02*
G54D20*
D03*
X559475Y1438275D02*
G54D20*
D03*
X597575Y1438275D02*
G54D20*
D03*
X635675Y1438275D02*
G54D20*
D03*
X673775Y1438275D02*
G54D20*
D03*
X711875Y1436688D02*
G54D20*
D03*
X749975Y1436688D02*
G54D20*
D03*
X388025Y1387475D02*
G54D20*
D03*
X426125Y1387475D02*
G54D20*
D03*
X464225Y1387475D02*
G54D20*
D03*
X502325Y1387475D02*
G54D20*
D03*
X540425Y1387475D02*
G54D20*
D03*
X578525Y1387475D02*
G54D20*
D03*
X616625Y1387475D02*
G54D20*
D03*
X654725Y1387475D02*
G54D20*
D03*
X692825Y1385888D02*
G54D20*
D03*
X730925Y1385888D02*
G54D20*
D03*
X769025Y1385888D02*
G54D20*
D03*
X1458000Y1308100D02*
G54D11*
D03*
G54D14*
X1464350Y1435100D02*
X1464350Y1314450D01*
X1458000Y1308100D01*
G54D14*
X2721650Y869950D02*
X2721650Y842962D01*
X2708950Y830262D01*
X2708950Y785812D01*
X2696250Y773112D01*
X2696250Y773112D02*
G54D11*
D03*
X2467650Y792162D02*
G54D11*
D03*
G54D14*
X2467650Y792162D02*
X2467650Y777875D01*
X2486700Y758825D01*
X2486700Y639762D01*
X2467650Y620712D01*
X2467650Y98425D01*
X2448600Y79375D01*
X2448600Y79375D02*
G54D11*
D03*
X1318300Y85725D02*
G54D11*
D03*
G54D14*
X1318300Y85725D02*
X1311950Y92075D01*
X1311950Y250825D01*
X1305600Y257175D01*
X1305600Y320675D01*
X1305600Y320675D02*
G54D11*
D03*
X1109720Y461144D02*
G54D16*
D03*
X1109720Y359544D02*
G54D16*
D03*
X886500Y441325D02*
G54D20*
D03*
X696000Y517525D02*
G54D11*
D03*
G54D21*
X729338Y517525D02*
X696000Y517525D01*
G54D21*
X840462Y517525D02*
X873800Y517525D01*
G54D22*
X886500Y441325D02*
X873800Y454025D01*
X873800Y517525D01*
X3053437Y633413D02*
G54D23*
D03*
X2758953Y679636D02*
G54D16*
D03*
X2758953Y628836D02*
G54D16*
D03*
X2150150Y601662D02*
G54D23*
D03*
X2277150Y671513D02*
G54D23*
D03*
X2842300Y671513D02*
G54D23*
D03*
G54D14*
X2620050Y690562D02*
X2620050Y679450D01*
X2607350Y666750D01*
X2607350Y492125D01*
X2602588Y487362D01*
X2602588Y487362D02*
G54D11*
D03*
X1832650Y530225D02*
G54D11*
D03*
G54D14*
X1832650Y530225D02*
X1815188Y547688D01*
X1815188Y676275D01*
X1819950Y681038D01*
X1819950Y701675D01*
X1808838Y712788D01*
X1808838Y825500D01*
X1821538Y838200D01*
X1821538Y869950D01*
G54D14*
X1680250Y984250D02*
X1680250Y1073150D01*
X1832650Y1066800D02*
G54D11*
D03*
G54D14*
X1832650Y1066800D02*
X1832650Y1104900D01*
X1826300Y1111250D01*
X1826300Y1149350D01*
X1832650Y1155700D01*
X1832650Y1219200D01*
X1832650Y1219200D02*
G54D11*
D03*
X1680250Y1225550D02*
G54D11*
D03*
G54D14*
X1692950Y1435100D02*
X1692950Y1295400D01*
X1680250Y1282700D01*
X1680250Y1225550D01*
X1934250Y1225550D02*
G54D18*
D03*
X1934250Y1123950D02*
G54D18*
D03*
X2169200Y1136650D02*
G54D11*
D03*
G54D14*
X2169200Y1136650D02*
X2169200Y1077912D01*
X2162850Y1071562D01*
X2162850Y1052512D01*
X2175550Y1039812D01*
X2175550Y984250D01*
G54D14*
X1886625Y224631D02*
X1886625Y215900D01*
X1889800Y212725D01*
X1889800Y180975D01*
X1877100Y168275D01*
X1877100Y123825D01*
X1877100Y123825D02*
G54D11*
D03*
X2061250Y123825D02*
G54D11*
D03*
G54D14*
X2061250Y123825D02*
X2061250Y144462D01*
X2105700Y188912D01*
X2105700Y295275D01*
X2150150Y339725D01*
X2150150Y374650D01*
X2162850Y387350D01*
X2162850Y442912D01*
X2194600Y474662D01*
X2194600Y550862D01*
X2200950Y557212D01*
X2200950Y754062D01*
X2188250Y766762D01*
X2188250Y874712D01*
X2175550Y887412D01*
X2175550Y984250D01*
X1756450Y1365250D02*
G54D11*
D03*
X2035850Y1365250D02*
G54D11*
D03*
G54D14*
X2035850Y1412875D02*
X2035850Y1365250D01*
G54D14*
X1731050Y1136650D02*
X1731050Y1246188D01*
X1756450Y1271588D01*
X1756450Y1365250D01*
X1839000Y1123950D02*
G54D11*
D03*
X1896150Y1314450D02*
G54D11*
D03*
X2035850Y1314450D02*
G54D11*
D03*
X2035850Y1225550D02*
G54D16*
D03*
X2035850Y1123950D02*
G54D16*
D03*
G54D14*
X1839000Y1123950D02*
X1845350Y1130300D01*
X1845350Y1238250D01*
X1896150Y1289050D01*
X1896150Y1314450D01*
X1896150Y1435100D01*
G54D14*
X2035850Y1314450D02*
X2035850Y1225550D01*
G54D14*
X2037438Y1114425D02*
X2037438Y1030288D01*
X2029500Y1022350D01*
X2029500Y1001712D01*
X2037438Y993775D01*
X2037438Y838200D01*
X2012038Y812800D01*
X2012038Y785812D01*
X2002512Y776288D01*
X1991400Y776288D01*
X1973938Y793750D01*
X1959650Y779462D01*
X1959650Y557212D01*
X1985050Y531812D01*
X1985050Y381000D01*
X1991400Y374650D01*
X1991400Y352425D01*
X1954888Y352425D01*
G54D14*
X2037438Y1114425D02*
X2037438Y1122363D01*
X2035850Y1123950D01*
X1680250Y1163638D02*
G54D11*
D03*
X1819950Y1163638D02*
G54D11*
D03*
G54D14*
X1858050Y1412875D02*
X1858050Y1276350D01*
X1819950Y1238250D01*
X1819950Y1163638D01*
G54D14*
X1680250Y1163638D02*
X1680250Y1136650D01*
X1986020Y1154832D02*
G54D11*
D03*
G54D14*
X1986020Y1154832D02*
X1986020Y1123132D01*
X1997750Y1289050D02*
G54D11*
D03*
G54D14*
X1986020Y1224732D02*
X1986020Y1256683D01*
X1997750Y1268412D01*
X1997750Y1289050D01*
X2162850Y1276350D02*
G54D11*
D03*
G54D14*
X2175550Y1060450D02*
X2175550Y1104900D01*
X2181900Y1111250D01*
X2181900Y1160462D01*
X2169200Y1173162D01*
X2169200Y1270000D01*
X2162850Y1276350D01*
X2010450Y1225550D02*
G54D16*
D03*
X2010450Y1123950D02*
G54D16*
D03*
X2061250Y1384300D02*
G54D11*
D03*
X1934250Y1384300D02*
G54D11*
D03*
G54D14*
X2061250Y1384300D02*
X2061250Y1225702D01*
X2062220Y1224732D01*
X1908202Y1149030D02*
G54D18*
D03*
X1908202Y1123630D02*
G54D18*
D03*
G54D14*
X1908202Y1149030D02*
X1908202Y1229664D01*
X1934250Y1255712D01*
X1934250Y1384300D01*
G54D24*
X2112050Y544512D02*
X2112050Y563562D01*
X2150150Y601662D01*
X1946950Y1162050D02*
G54D11*
D03*
G54D14*
X1946950Y1162050D02*
X1954888Y1169988D01*
X1954888Y1204912D01*
X1946950Y1212850D01*
X1946950Y1244600D01*
X1972350Y1270000D01*
X1972350Y1435100D01*
G54D14*
X1946950Y1162050D02*
X1946950Y1111250D01*
X1934250Y1098550D01*
X1934250Y963612D01*
X1923138Y952500D01*
X1923138Y893762D01*
X1923138Y893762D02*
G54D11*
D03*
X2320012Y896938D02*
G54D11*
D03*
G54D14*
X2320012Y896938D02*
X2323188Y896938D01*
X2327950Y892175D01*
X2327950Y869950D01*
X2327950Y849312D01*
X2340650Y836612D01*
X2340650Y588962D01*
X2327950Y576262D01*
X2327950Y576262D02*
G54D11*
D03*
X2302550Y576262D02*
G54D11*
D03*
G54D14*
X2302550Y576262D02*
X2302550Y492125D01*
X2289850Y479425D01*
X2289850Y409575D01*
X2277150Y396875D01*
X2277150Y371475D01*
X2289850Y358775D01*
X2289850Y327025D01*
X2277150Y314325D01*
X2277150Y180975D01*
X2277150Y180975D02*
G54D11*
D03*
X2143800Y155575D02*
G54D11*
D03*
G54D14*
X2143800Y155575D02*
X2124750Y155575D01*
X2093000Y123825D01*
X2080300Y123825D01*
X2080300Y123825D02*
G54D11*
D03*
X1902500Y119062D02*
G54D11*
D03*
G54D14*
X1896547Y224631D02*
X1896547Y205978D01*
X1902500Y200025D01*
X1902500Y119062D01*
X1756450Y1174750D02*
G54D11*
D03*
G54D14*
X1756450Y1174750D02*
X1756450Y1244600D01*
X1781850Y1270000D01*
X1781850Y1339850D01*
X1781850Y1339850D02*
G54D11*
D03*
X1997750Y1339850D02*
G54D11*
D03*
G54D14*
X1997750Y1339850D02*
X1997750Y1435100D01*
G54D14*
X1604050Y1136650D02*
X1604050Y1065212D01*
X1599288Y1060450D01*
G54D14*
X1743750Y1060450D02*
X1743750Y823912D01*
X1750100Y817562D01*
X1750100Y474662D01*
X1750100Y474662D02*
G54D11*
D03*
X1623100Y474662D02*
G54D11*
D03*
X1623100Y220662D02*
G54D11*
D03*
G54D14*
X1623100Y474662D02*
X1623100Y220662D01*
X1924725Y220662D02*
G54D11*
D03*
G54D14*
X1916788Y224631D02*
X1916788Y222250D01*
X1918375Y220662D01*
X1924725Y220662D01*
X1553250Y1041400D02*
G54D23*
D03*
X1572300Y1041400D02*
G54D23*
D03*
G54D25*
X1553250Y984250D02*
X1553250Y1041400D01*
X1572300Y1041400D01*
X2061804Y1047431D02*
G54D16*
D03*
X2061804Y996632D02*
G54D16*
D03*
X1255354Y1015681D02*
G54D16*
D03*
X1255354Y964882D02*
G54D16*
D03*
X2556550Y1060450D02*
G54D23*
D03*
X2556550Y1041400D02*
G54D23*
D03*
X2442804Y1047431D02*
G54D16*
D03*
X2442804Y996632D02*
G54D16*
D03*
X2785150Y990600D02*
G54D23*
D03*
X3039150Y990600D02*
G54D23*
D03*
X3085188Y990600D02*
G54D23*
D03*
X2512100Y990600D02*
G54D23*
D03*
X1248450Y811212D02*
G54D26*
D03*
X1248450Y785812D02*
G54D26*
D03*
X1248450Y760412D02*
G54D26*
D03*
X1273850Y869950D02*
G54D23*
D03*
X1273850Y742950D02*
G54D23*
D03*
X1273850Y730250D02*
G54D23*
D03*
X1629450Y696912D02*
G54D23*
D03*
X1642150Y696912D02*
G54D23*
D03*
X1629450Y773112D02*
G54D23*
D03*
X1648500Y773112D02*
G54D23*
D03*
G54D24*
X1629450Y717550D02*
X1637388Y725488D01*
X1637388Y765175D01*
X1629450Y773112D01*
G54D24*
X1637388Y765175D02*
X1640562Y765175D01*
X1648500Y773112D01*
X1629450Y773112D01*
X1502450Y900112D02*
G54D11*
D03*
G54D14*
X1502450Y869950D02*
X1502450Y900112D01*
X1845350Y984250D02*
G54D11*
D03*
G54D14*
X1845350Y984250D02*
X1851700Y990600D01*
X1851700Y1225550D01*
X1864400Y1238250D01*
X1864400Y1238250D02*
G54D11*
D03*
X2258100Y1244600D02*
G54D11*
D03*
G54D14*
X2258100Y1244600D02*
X2264450Y1238250D01*
X2264450Y1212850D01*
X1934250Y908050D02*
G54D11*
D03*
G54D14*
X1948538Y984250D02*
X1948538Y954088D01*
X1934250Y939800D01*
X1934250Y908050D01*
X2188250Y914400D02*
G54D11*
D03*
G54D14*
X2188250Y914400D02*
X2188250Y1098550D01*
X2188250Y1098550D02*
G54D11*
D03*
X2220000Y1098550D02*
G54D11*
D03*
G54D14*
X2220000Y1098550D02*
X2232700Y1111250D01*
X2245400Y1111250D01*
X2259688Y1125538D01*
X2259688Y1182688D01*
X2264450Y1187450D01*
X1972350Y908050D02*
G54D11*
D03*
G54D14*
X1999338Y984250D02*
X1999338Y935038D01*
X1972350Y908050D01*
X2213650Y920750D02*
G54D11*
D03*
G54D14*
X2213650Y920750D02*
X2213650Y1079500D01*
X2207300Y1085850D01*
X2207300Y1111250D01*
X2213650Y1117600D01*
X2213650Y1154112D01*
X2226350Y1166812D01*
X2226350Y1200150D01*
X2239050Y1212850D01*
X2024738Y1104900D02*
G54D11*
D03*
G54D14*
X2024738Y1060450D02*
X2024738Y1104900D01*
X2226350Y1143000D02*
G54D11*
D03*
G54D14*
X2226350Y1143000D02*
X2239050Y1155700D01*
X2239050Y1187450D01*
X2004100Y1149350D02*
G54D11*
D03*
X2029500Y1149350D02*
G54D11*
D03*
G54D14*
X1973938Y1060450D02*
X1973938Y1090612D01*
X1997750Y1114425D01*
X1997750Y1143000D01*
X2004100Y1149350D01*
X2023150Y1252538D02*
G54D11*
D03*
G54D14*
X2023150Y1252538D02*
X2023150Y1206500D01*
X2029500Y1200150D01*
X2029500Y1149350D01*
X2213650Y1282700D02*
G54D11*
D03*
G54D14*
X2213650Y1212850D02*
X2213650Y1282700D01*
X2213650Y1485900D01*
X2213650Y1485900D02*
G54D11*
D03*
X2745462Y1462088D02*
G54D11*
D03*
X2374146Y1383181D02*
G54D27*
D03*
X2401847Y1383181D02*
G54D27*
D03*
X2429943Y1383181D02*
G54D27*
D03*
X2457246Y1383181D02*
G54D27*
D03*
X2386155Y1410378D02*
G54D27*
D03*
X2413755Y1410175D02*
G54D27*
D03*
X2441356Y1410378D02*
G54D27*
D03*
X2469352Y1410378D02*
G54D27*
D03*
X2484740Y1383175D02*
G54D27*
D03*
X2554760Y1397278D02*
G54D28*
D03*
X2304753Y1397278D02*
G54D29*
D03*
X2705934Y1383181D02*
G54D27*
D03*
X2733635Y1383181D02*
G54D27*
D03*
X2761731Y1383181D02*
G54D27*
D03*
X2789034Y1383181D02*
G54D27*
D03*
X2717943Y1410378D02*
G54D27*
D03*
X2745543Y1410175D02*
G54D27*
D03*
X2773144Y1410378D02*
G54D27*
D03*
X2801140Y1410378D02*
G54D27*
D03*
X2816528Y1383175D02*
G54D27*
D03*
X2886547Y1397278D02*
G54D28*
D03*
X2636541Y1397278D02*
G54D29*
D03*
G54D14*
X2745462Y1462088D02*
X2745462Y1410255D01*
X2745543Y1410175D01*
G54D14*
X1999338Y793750D02*
X1999338Y831850D01*
X2010450Y842962D01*
X2010450Y1012825D01*
X2005688Y1017588D01*
X2005688Y1028700D01*
X2012038Y1035050D01*
X2012038Y1122363D01*
X2010450Y1123950D01*
X2018388Y1131888D01*
X2018388Y1192212D01*
X1997750Y1212850D01*
X1997750Y1257300D01*
X2010450Y1270000D01*
X2010450Y1412875D01*
X1870750Y1322388D02*
G54D11*
D03*
G54D14*
X1870750Y1435100D02*
X1870750Y1322388D01*
X2131100Y1327150D02*
G54D11*
D03*
G54D14*
X2131100Y1327150D02*
X2131100Y1201738D01*
X2143800Y1189038D01*
X2143800Y1130300D01*
X2132688Y1119188D01*
X2132688Y882650D01*
X2124750Y874712D01*
X2124750Y735012D01*
X2162850Y696912D01*
X2162850Y577850D01*
X2137450Y552450D01*
X2137450Y354012D01*
X2137450Y354012D02*
G54D11*
D03*
X1908850Y366712D02*
G54D11*
D03*
G54D14*
X1925916Y371872D02*
X1914010Y371872D01*
X1908850Y366712D01*
X2137450Y869950D02*
G54D11*
D03*
X2231112Y920750D02*
G54D11*
D03*
X2251750Y900112D02*
G54D11*
D03*
X2277150Y896938D02*
G54D11*
D03*
G54D14*
X2277150Y896938D02*
X2277150Y869950D01*
G54D14*
X2137450Y869950D02*
X2131100Y863600D01*
X2131100Y747712D01*
X2175550Y703262D01*
X2175550Y614362D01*
X2169200Y608012D01*
X2169200Y555625D01*
X2150150Y536575D01*
X2150150Y404812D01*
X2150150Y404812D02*
G54D11*
D03*
X1908850Y404812D02*
G54D11*
D03*
G54D14*
X1926710Y410766D02*
X1914803Y410766D01*
X1908850Y404812D01*
X2327950Y404812D02*
G54D11*
D03*
G54D14*
X2327950Y404812D02*
X2327950Y346075D01*
X2315250Y333375D01*
X2315250Y303212D01*
X2315250Y263525D01*
X2315250Y263525D02*
G54D11*
D03*
X2176473Y258404D02*
G54D16*
D03*
X2176473Y233004D02*
G54D16*
D03*
G54D14*
X2315250Y263525D02*
X2315250Y257175D01*
X2327950Y244475D01*
X2327950Y187325D01*
X2315250Y174625D01*
X2315250Y142875D01*
G54D14*
X2200950Y984250D02*
X2200950Y893762D01*
X2213650Y881062D01*
X2213650Y857250D01*
X2239050Y831850D01*
X2239050Y525462D01*
X2251750Y512762D01*
X2251750Y360362D01*
X2251750Y360362D02*
G54D11*
D03*
X1978700Y366712D02*
G54D11*
D03*
G54D14*
X1954888Y362347D02*
X1974334Y362347D01*
X1978700Y366712D01*
G54D14*
X2353350Y1060450D02*
X2353350Y1035050D01*
X2366050Y1022350D01*
X2366050Y969962D01*
X2391450Y944562D01*
X2391450Y766762D01*
X2366050Y741362D01*
X2366050Y669925D01*
X2391450Y644525D01*
X2391450Y603250D01*
X2399388Y595312D01*
X2418438Y595312D01*
X2442250Y571500D01*
X2442250Y531812D01*
X2442250Y531812D02*
G54D11*
D03*
X2277150Y538162D02*
G54D11*
D03*
G54D14*
X2277150Y538162D02*
X2277150Y442912D01*
X2264450Y430212D01*
X2264450Y379412D01*
X2264450Y350838D01*
X2251750Y338138D01*
X2251750Y250825D01*
X2264450Y238125D01*
X2264450Y219075D01*
G54D14*
X2277150Y984250D02*
X2277150Y1028700D01*
X2289850Y1041400D01*
X2289850Y1073150D01*
X2293025Y1076325D01*
X2293025Y1103312D01*
X2315250Y1125538D01*
X2315250Y1149350D01*
X2315250Y1149350D02*
G54D11*
D03*
G36*
X2513590Y1116830D02*
X2497590Y1116830D01*
X2497590Y1132830D01*
X2513590Y1132830D01*
X2513590Y1116830D01*
G37*
X2480190Y1124830D02*
G54D15*
D03*
X2454790Y1124829D02*
G54D15*
D03*
X2429390Y1124830D02*
G54D15*
D03*
X2403990Y1124829D02*
G54D15*
D03*
X2378590Y1124829D02*
G54D15*
D03*
G54D14*
X2403990Y1124830D02*
X2392170Y1136650D01*
X2392170Y1164357D01*
X2404150Y1176338D01*
X2404150Y1200150D01*
X2391450Y1212850D01*
X2378750Y1150938D02*
G54D15*
D03*
X2404150Y1150938D02*
G54D30*
D03*
X2429550Y1150938D02*
G54D15*
D03*
X2454950Y1150938D02*
G54D15*
D03*
X2480350Y1150938D02*
G54D15*
D03*
G54D14*
X2302550Y984250D02*
X2302550Y1028700D01*
X2315250Y1041400D01*
X2315250Y1085850D01*
X2327950Y1098550D01*
X2327950Y1098550D02*
G54D11*
D03*
X2480350Y1098550D02*
G54D11*
D03*
G54D14*
X2480350Y1098550D02*
X2480350Y1124670D01*
X2480190Y1124830D01*
X2479470Y1124830D01*
X2467650Y1136650D01*
X2467650Y1162050D01*
X2442250Y1187450D01*
G54D14*
X2327950Y984250D02*
X2327950Y1025525D01*
X2340650Y1038225D01*
X2340650Y1066800D01*
X2353350Y1079500D01*
X2353350Y1098550D01*
X2353350Y1098550D02*
G54D11*
D03*
X2429550Y1098550D02*
G54D11*
D03*
G54D14*
X2429550Y1098550D02*
X2429550Y1124670D01*
X2429390Y1124830D01*
X2429390Y1128872D01*
X2416850Y1141412D01*
X2416850Y1187450D01*
X2347000Y1019175D02*
G54D11*
D03*
X2429550Y1016000D02*
G54D11*
D03*
G54D14*
X2353350Y984250D02*
X2353350Y1012825D01*
X2347000Y1019175D01*
G54D14*
X2429550Y1016000D02*
X2429550Y1073150D01*
X2454950Y1098550D01*
X2454950Y1124669D01*
X2454790Y1124829D01*
X2454070Y1124829D01*
X2442250Y1136650D01*
X2442250Y1162050D01*
X2429550Y1174750D01*
X2429550Y1200150D01*
X2416850Y1212850D01*
G54D14*
X2378750Y984250D02*
X2378750Y985838D01*
X2391450Y998538D01*
X2391450Y1111969D01*
X2378590Y1124829D01*
X2365890Y1137529D01*
X2365890Y1161890D01*
X2391450Y1187450D01*
G54D31*
X2512100Y990600D02*
X2512100Y1047750D01*
X2505750Y1054100D01*
X2505750Y1124670D01*
X2505590Y1124830D01*
G36*
X2386590Y1269230D02*
X2370590Y1269230D01*
X2370590Y1285230D01*
X2386590Y1285230D01*
X2386590Y1269230D01*
G37*
X2353190Y1277230D02*
G54D15*
D03*
X2327790Y1277229D02*
G54D15*
D03*
X2302390Y1277230D02*
G54D15*
D03*
X2276990Y1277229D02*
G54D15*
D03*
X2251590Y1277229D02*
G54D15*
D03*
X2251750Y1303338D02*
G54D15*
D03*
X2277150Y1303338D02*
G54D15*
D03*
X2302550Y1303338D02*
G54D15*
D03*
X2327950Y1303338D02*
G54D15*
D03*
X2353350Y1303338D02*
G54D15*
D03*
X2443838Y1303338D02*
G54D15*
D03*
X2469238Y1303338D02*
G54D15*
D03*
X2494638Y1303338D02*
G54D15*
D03*
X2520038Y1303338D02*
G54D15*
D03*
X2545438Y1303338D02*
G54D15*
D03*
G36*
X2409758Y1285008D02*
X2425758Y1285008D01*
X2425758Y1269008D01*
X2409758Y1269008D01*
X2409758Y1285008D01*
G37*
X2443158Y1277008D02*
G54D15*
D03*
X2468558Y1277008D02*
G54D15*
D03*
X2493958Y1277008D02*
G54D15*
D03*
X2519358Y1277008D02*
G54D15*
D03*
X2544758Y1277008D02*
G54D15*
D03*
X2239050Y1123950D02*
G54D15*
D03*
X2340650Y1123950D02*
G54D15*
D03*
X2326362Y1136650D02*
G54D11*
D03*
G54D14*
X2302550Y1060450D02*
X2302550Y1093788D01*
X2326362Y1117600D01*
X2326362Y1136650D01*
X2334300Y1079500D02*
G54D11*
D03*
G54D14*
X2334300Y1079500D02*
X2340650Y1085850D01*
X2340650Y1123950D01*
X2340650Y1187450D01*
X2327950Y1200150D01*
X2327950Y1251990D01*
X2353190Y1277230D01*
X2821662Y1233488D02*
G54D11*
D03*
G54D14*
X2821662Y1233488D02*
X2824838Y1233488D01*
X2837538Y1246188D01*
X2837538Y1395412D01*
X2823250Y1409700D01*
X2801818Y1409700D01*
X2801140Y1410378D01*
X2474000Y1079500D02*
G54D11*
D03*
G54D14*
X2474000Y1079500D02*
X2474000Y931862D01*
X2456538Y914400D01*
X2456538Y771525D01*
X2474000Y754062D01*
X2474000Y639762D01*
X2461300Y627062D01*
X2461300Y449262D01*
X2454950Y442912D01*
X2454950Y123825D01*
X2454950Y123825D02*
G54D11*
D03*
G54D14*
X1729462Y332581D02*
X1722319Y332581D01*
X1718350Y328612D01*
X1681838Y328612D01*
X1661200Y307975D01*
X1661200Y150812D01*
X1675488Y136525D01*
X2195240Y1324419D02*
G54D15*
D03*
X2195240Y1426019D02*
G54D15*
D03*
X2231112Y1473200D02*
G54D11*
D03*
G54D14*
X2231112Y1473200D02*
X2231112Y1297707D01*
X2251590Y1277229D01*
G54D14*
X2251590Y1277229D02*
X2251590Y1271748D01*
X2277150Y1246188D01*
X2277150Y1200150D01*
X2289850Y1187450D01*
X2131100Y1174750D02*
G54D11*
D03*
G54D14*
X2131100Y1174750D02*
X2137450Y1168400D01*
X2137450Y1136650D01*
X2126338Y1125538D01*
X2126338Y889000D01*
X2100938Y863600D01*
X2100938Y750888D01*
X2048550Y698500D01*
X2048550Y639762D01*
X2067600Y620712D01*
X2067600Y257175D01*
X2054900Y244475D01*
X2054900Y244475D02*
G54D11*
D03*
X1748512Y233362D02*
G54D11*
D03*
G54D14*
X1767959Y224631D02*
X1757244Y224631D01*
X1748512Y233362D01*
G54D14*
X2200950Y1060450D02*
X2200950Y1125538D01*
X2207300Y1131888D01*
X2207300Y1155700D01*
X2200950Y1162050D01*
X2200950Y1270000D01*
X2194600Y1276350D01*
X2194600Y1323779D01*
X2195240Y1324419D01*
G54D14*
X2226350Y1060450D02*
X2226350Y1085850D01*
X2239050Y1098550D01*
X2239050Y1098550D02*
G54D11*
D03*
X2150150Y1092200D02*
G54D11*
D03*
G54D14*
X2150150Y1092200D02*
X2150150Y919162D01*
X2156500Y912812D01*
X2156500Y741362D01*
X2188250Y709612D01*
X2188250Y601662D01*
X2181900Y595312D01*
X2181900Y595312D02*
G54D11*
D03*
G54D14*
X2277150Y671513D02*
X2277150Y614362D01*
X2258100Y741362D02*
G54D16*
D03*
X2283500Y741362D02*
G54D16*
D03*
X2251750Y652462D02*
G54D11*
D03*
X2421612Y652462D02*
G54D11*
D03*
X2421612Y747712D02*
G54D11*
D03*
G54D14*
X2421612Y652462D02*
X2421612Y747712D01*
X2899450Y755650D02*
G54D11*
D03*
X2886750Y696912D02*
G54D16*
D03*
X2988350Y696912D02*
G54D16*
D03*
G54D14*
X2899450Y755650D02*
X2899450Y709612D01*
X2886750Y696912D01*
X2886750Y612775D02*
G54D16*
D03*
X2988350Y612775D02*
G54D16*
D03*
G54D14*
X2988350Y696912D02*
X2988410Y659020D01*
X2988350Y612775D01*
X2842300Y612775D02*
G54D11*
D03*
G54D14*
X2251750Y652462D02*
X2251750Y690562D01*
X2251750Y735012D01*
X2258100Y741362D01*
G54D14*
X2277150Y690562D02*
X2277150Y735012D01*
X2283500Y741362D01*
G54D14*
X841432Y243656D02*
X841432Y243858D01*
X865862Y268288D01*
X865862Y331788D01*
X886500Y352425D01*
X886345Y379251D01*
X2353350Y576262D02*
G54D16*
D03*
X2404150Y576262D02*
G54D16*
D03*
X2353350Y544512D02*
G54D16*
D03*
X2404150Y544512D02*
G54D16*
D03*
X2328363Y544432D02*
G54D16*
D03*
X2226763Y544432D02*
G54D16*
D03*
G54D14*
X2353350Y614362D02*
X2353350Y576262D01*
G54D14*
X2378750Y614362D02*
X2378750Y590562D01*
X2393050Y576262D01*
X2404150Y576262D01*
X2226350Y434975D02*
G54D11*
D03*
G54D14*
X2226350Y434975D02*
X2226350Y544019D01*
X2226763Y544432D01*
X2435900Y430212D02*
G54D11*
D03*
G54D14*
X2353350Y576262D02*
X2353350Y544512D01*
G54D14*
X2404150Y576262D02*
X2404150Y544512D01*
G54D14*
X2404150Y614362D02*
X2404150Y690562D01*
G36*
X2716790Y1178742D02*
X2700790Y1178742D01*
X2700790Y1194742D01*
X2716790Y1194742D01*
X2716790Y1178742D01*
G37*
X2683390Y1186742D02*
G54D15*
D03*
X2657990Y1186742D02*
G54D15*
D03*
X2632590Y1186742D02*
G54D15*
D03*
X2607190Y1186742D02*
G54D15*
D03*
X2581790Y1186742D02*
G54D15*
D03*
G54D32*
X2327950Y690562D02*
X2327950Y760412D01*
X2315250Y773112D01*
X2315250Y823912D01*
X2289850Y849312D01*
X2289850Y1022350D01*
X2289850Y1022350D02*
G54D11*
D03*
X2581950Y1028700D02*
G54D11*
D03*
G54D32*
X2581950Y1028700D02*
X2581950Y1123950D01*
G54D32*
X2378750Y690562D02*
X2378750Y728662D01*
X2424788Y774700D01*
X2424788Y935038D01*
X2435900Y946150D01*
X2435900Y958850D01*
X2435900Y958850D02*
G54D11*
D03*
X2504162Y958850D02*
G54D11*
D03*
G54D32*
X2504162Y958850D02*
X2507338Y958850D01*
X2524800Y976312D01*
X2524800Y1073150D01*
X2518450Y1079500D01*
X2518450Y1187450D01*
X2518450Y1187450D02*
G54D11*
D03*
X3421738Y1149350D02*
G54D11*
D03*
G54D32*
X3421738Y1149350D02*
X3421738Y1435100D01*
G54D32*
X2251750Y869950D02*
X2251750Y900112D01*
X2518450Y869950D02*
G54D11*
D03*
G54D32*
X2518450Y869950D02*
X2518450Y952500D01*
X2537500Y971550D01*
X2537500Y1016000D01*
X2537500Y1016000D02*
G54D11*
D03*
X2962950Y1022350D02*
G54D11*
D03*
G54D32*
X2962950Y1022350D02*
X2962950Y971550D01*
G54D32*
X2251750Y1060450D02*
X2251750Y1065212D01*
X2258100Y1071562D01*
X2258100Y1108075D01*
X2278738Y1128712D01*
X2278738Y1149350D01*
X2302550Y1173162D01*
X2302550Y1195388D01*
X2293025Y1204912D01*
X2293025Y1209675D01*
X2289850Y1212850D01*
X2289850Y1264369D01*
X2276990Y1277229D01*
X2276990Y1279685D01*
X2264450Y1292225D01*
X2264450Y1316038D01*
X2251750Y1328738D01*
X2251750Y1460500D01*
X2251750Y1460500D02*
G54D11*
D03*
X2683550Y1460500D02*
G54D11*
D03*
X2683550Y1354138D02*
G54D33*
D03*
X2118400Y1225550D02*
G54D33*
D03*
G54D32*
X2118400Y1225550D02*
X2118400Y1168400D01*
X2131100Y1155700D01*
X2131100Y1141412D01*
X2119988Y1130300D01*
X2119988Y895350D01*
X2094588Y869950D01*
X2094588Y763588D01*
X2042200Y711200D01*
X2042200Y628650D01*
X2061250Y609600D01*
X2061250Y282575D01*
X2023150Y244475D01*
X2023150Y244475D02*
G54D33*
D03*
X1729462Y244475D02*
G54D33*
D03*
G54D32*
X1729462Y262731D02*
X1729462Y244475D01*
G54D32*
X2277150Y1060450D02*
X2277150Y1077912D01*
X2283500Y1084262D01*
X2283500Y1120775D01*
X2296200Y1133475D01*
X2296200Y1149350D01*
X2296200Y1149350D02*
G54D33*
D03*
G54D32*
X2296200Y1149350D02*
X2315250Y1168400D01*
X2315250Y1187450D01*
X2315250Y1193800D01*
X2302550Y1206500D01*
X2302550Y1277070D01*
X2302390Y1277230D01*
X2301670Y1277230D01*
X2289850Y1289050D01*
X2289850Y1314450D01*
X2270800Y1333500D01*
X2270800Y1447800D01*
X2270800Y1447800D02*
G54D33*
D03*
X2118400Y1149350D02*
G54D33*
D03*
G54D32*
X2118400Y1149350D02*
X2113638Y1144588D01*
X2113638Y901700D01*
X2086650Y874712D01*
X2086650Y773112D01*
X2035850Y722312D01*
X2035850Y614362D01*
X2054900Y595312D01*
X2054900Y301625D01*
X2048550Y295275D01*
X2048550Y295275D02*
G54D33*
D03*
X1794550Y295275D02*
G54D33*
D03*
G54D32*
X1758038Y292497D02*
X1791772Y292497D01*
X1794550Y295275D01*
X1819950Y322262D02*
G54D33*
D03*
G54D32*
X1758038Y322659D02*
X1819553Y322659D01*
X1819950Y322262D01*
X2042200Y322262D02*
G54D33*
D03*
G54D32*
X2042200Y322262D02*
X2043788Y322262D01*
X2048550Y327025D01*
X2048550Y581025D01*
X2029500Y600075D01*
X2029500Y733425D01*
X2080300Y784225D01*
X2080300Y881062D01*
X2107288Y908050D01*
X2107288Y1238250D01*
X2107288Y1238250D02*
G54D33*
D03*
G54D32*
X2315250Y1212850D02*
X2315250Y1264689D01*
X2327790Y1277229D01*
G54D32*
X2327790Y1277229D02*
X2327790Y1277778D01*
X2340650Y1290638D01*
X2340650Y1430338D01*
X2340650Y1430338D02*
G54D33*
D03*
G54D14*
X2226350Y869950D02*
X2226350Y915988D01*
X2231112Y920750D01*
X2658150Y1009650D02*
G54D33*
D03*
X2683550Y1009650D02*
G54D33*
D03*
X2581950Y1214438D02*
G54D15*
D03*
X2607350Y1214438D02*
G54D15*
D03*
X2632750Y1214438D02*
G54D15*
D03*
X2658150Y1214438D02*
G54D15*
D03*
X2683550Y1214438D02*
G54D15*
D03*
G54D24*
X2556550Y1060450D02*
X2556550Y1123950D01*
X2556550Y1203325D01*
X2567662Y1214438D01*
X2581950Y1214438D01*
X2607350Y1214438D01*
X3032800Y1214438D02*
G54D23*
D03*
X3051850Y1214438D02*
G54D23*
D03*
X2758162Y1289050D02*
G54D16*
D03*
X2758162Y1187450D02*
G54D16*
D03*
X2785150Y1289050D02*
G54D18*
D03*
X2785150Y1187450D02*
G54D18*
D03*
G54D14*
X2658150Y971550D02*
X2658150Y1009650D01*
X2988350Y1009650D02*
G54D11*
D03*
G54D14*
X2988350Y1009650D02*
X2988350Y971550D01*
G54D14*
X2683550Y1009650D02*
X2683550Y1079500D01*
X2670850Y1092200D01*
X2670850Y1155700D01*
X2658150Y1168400D01*
X2658150Y1186582D01*
X2657990Y1186742D01*
X3064550Y1066800D02*
G54D11*
D03*
G54D14*
X3039150Y971550D02*
X3058200Y971550D01*
X3064550Y977900D01*
X3064550Y1066800D01*
X2702600Y1073150D02*
G54D11*
D03*
G54D14*
X2702600Y1073150D02*
X2696250Y1079500D01*
X2696250Y1155700D01*
X2683550Y1168400D01*
X2683550Y1186582D01*
X2683390Y1186742D01*
G54D14*
X3039150Y971550D02*
X3039150Y876300D01*
X3045500Y869950D01*
X3045500Y869950D02*
G54D11*
D03*
X3205641Y870146D02*
G54D11*
D03*
G54D14*
X3205641Y870146D02*
X3205641Y901504D01*
X3231238Y927100D01*
X3231238Y1354138D01*
X3231238Y1354138D02*
G54D11*
D03*
X3135988Y1354138D02*
G54D11*
D03*
G54D14*
X3142338Y1435100D02*
X3142338Y1360488D01*
X3135988Y1354138D01*
G54D14*
X3039150Y1123950D02*
X3039150Y990600D01*
G54D14*
X2937550Y1123950D02*
X2937550Y1341438D01*
X2937550Y1341438D02*
G54D11*
D03*
X3116938Y1347788D02*
G54D11*
D03*
G54D14*
X3116938Y1435100D02*
X3116938Y1347788D01*
X3256638Y1341438D02*
G54D11*
D03*
G54D14*
X3256638Y1341438D02*
X3256638Y939800D01*
X3218538Y901700D01*
X3218538Y844550D01*
X3218538Y844550D02*
G54D11*
D03*
G54D14*
X2912150Y1123950D02*
X2912150Y1047750D01*
X2899450Y1035050D01*
X2899450Y920750D01*
X2899450Y920750D02*
G54D11*
D03*
X3218341Y946346D02*
G54D11*
D03*
G54D14*
X3218341Y946346D02*
X3218341Y1434904D01*
X3218538Y1435100D01*
G54D14*
X2886750Y1123950D02*
X2886750Y1014412D01*
X2874050Y1001712D01*
X2874050Y939800D01*
X2874050Y939800D02*
G54D11*
D03*
X3243938Y971550D02*
G54D11*
D03*
G54D14*
X3243938Y971550D02*
X3243938Y1435100D01*
X2861350Y1028700D02*
G54D11*
D03*
G54D14*
X2861350Y1123950D02*
X2861350Y1028700D01*
X3294541Y1022546D02*
G54D11*
D03*
G54D14*
X3294541Y1022546D02*
X3294541Y1434904D01*
X3294738Y1435100D01*
X2835950Y1054100D02*
G54D11*
D03*
G54D14*
X2835950Y1123950D02*
X2835950Y1054100D01*
X3275688Y1060450D02*
G54D11*
D03*
G54D14*
X3275688Y1060450D02*
X3275688Y1358900D01*
X3269338Y1365250D01*
X3269338Y1435100D01*
X3269338Y996950D02*
G54D11*
D03*
G54D14*
X3275688Y1060450D02*
X3275688Y1003300D01*
X3269338Y996950D01*
X3396141Y1124146D02*
G54D11*
D03*
G54D14*
X3396141Y1124146D02*
X3396141Y1434904D01*
X3396338Y1435100D01*
G54D24*
X2785150Y990600D02*
X2785150Y1123950D01*
X2759750Y1079500D02*
G54D11*
D03*
G54D14*
X2759750Y1079500D02*
X2759750Y1123950D01*
X2759750Y1149350D01*
X2772450Y1162050D01*
X2772450Y1252538D01*
X2758162Y1266825D01*
X2758162Y1289050D01*
X3370938Y1098550D02*
G54D11*
D03*
G54D14*
X3370938Y1098550D02*
X3370938Y1435100D01*
X2734350Y1041400D02*
G54D11*
D03*
G54D14*
X2734350Y1123950D02*
X2734350Y1041400D01*
X3319941Y1047946D02*
G54D11*
D03*
G54D14*
X3319941Y1047946D02*
X3319941Y1434904D01*
X3320138Y1435100D01*
G54D14*
X2708950Y1123950D02*
X2708950Y1161502D01*
X2723078Y1174042D01*
X2723078Y1252698D01*
X2704188Y1271588D01*
X2704188Y1271588D02*
G54D11*
D03*
X3345538Y1136650D02*
G54D11*
D03*
G54D14*
X3345538Y1136650D02*
X3345538Y1435100D01*
X2848650Y1092200D02*
G54D11*
D03*
X2848650Y1187450D02*
G54D11*
D03*
G54D14*
X2848650Y1187450D02*
X2848650Y1092200D01*
X3472538Y1200150D02*
G54D11*
D03*
G54D14*
X3472538Y1200150D02*
X3472538Y1435100D01*
G54D14*
X2632590Y1186742D02*
X2632590Y1124110D01*
X2632750Y1123950D01*
X2632750Y1098550D01*
X2670850Y1060450D01*
X2670850Y927100D01*
X2689900Y908050D01*
X2689900Y908050D02*
G54D11*
D03*
X3192941Y895546D02*
G54D11*
D03*
G54D14*
X3192941Y895546D02*
X3192941Y1340046D01*
X3167738Y1365250D01*
X3167738Y1435100D01*
G54D14*
X2607190Y1186742D02*
X2607190Y1124110D01*
X2607350Y1123950D01*
X2607350Y1047750D01*
X2620050Y1035050D01*
X2620050Y938212D01*
X2620050Y938212D02*
G54D11*
D03*
X3205838Y920750D02*
G54D11*
D03*
G54D14*
X3205838Y920750D02*
X3205838Y1341438D01*
X3193138Y1354138D01*
X3193138Y1435100D01*
X3104238Y1322388D02*
G54D11*
D03*
X3129638Y1322388D02*
G54D11*
D03*
X3104238Y1296988D02*
G54D11*
D03*
X3148688Y1296988D02*
G54D11*
D03*
G54D14*
X3110168Y1225746D02*
X3110168Y1271168D01*
X3115350Y1276350D01*
X3115350Y1333500D01*
X3101062Y1347788D01*
X3072488Y1347788D01*
G54D14*
X3072488Y1322388D02*
X3104238Y1322388D01*
G54D14*
X3072488Y1296988D02*
X3104238Y1296988D01*
G54D14*
X3110168Y1200346D02*
X3110784Y1200346D01*
X3123288Y1212850D01*
X3123288Y1316038D01*
X3129638Y1322388D01*
G54D14*
X3110169Y1174946D02*
X3122672Y1187450D01*
X3142338Y1187450D01*
X3148688Y1193800D01*
X3148688Y1296988D01*
G54D14*
X3072488Y1271588D02*
X3085188Y1271588D01*
X3096300Y1260475D01*
X3096300Y1163415D01*
X3110169Y1149546D01*
G54D14*
X3072488Y1246188D02*
X3082012Y1246188D01*
X3086775Y1241425D01*
X3086775Y1147540D01*
X3110169Y1124146D01*
G54D14*
X3072488Y1220788D02*
X3072488Y1219200D01*
X3066138Y1212850D01*
X3066138Y1142778D01*
X3110169Y1098746D01*
G54D24*
X3110169Y997146D02*
X3110169Y971746D01*
X3110168Y946346D01*
X3110168Y920946D01*
X3110168Y895546D01*
X3110168Y870146D01*
X3110168Y844746D01*
X3110168Y819346D01*
X4126588Y1374775D02*
G54D20*
D03*
X4172625Y1374775D02*
G54D20*
D03*
G54D24*
X4172625Y1374775D02*
X4172625Y1382712D01*
X4178975Y1389062D01*
X4178975Y1433012D01*
X4178475Y1433512D01*
G54D31*
X2353350Y1303338D02*
X2353350Y1404938D01*
X2378750Y1430338D01*
X2432725Y1430338D01*
X2440662Y1422400D01*
X2440662Y1411072D01*
X2441356Y1410378D01*
G54D14*
X2200950Y869950D02*
X2200950Y817562D01*
X2213650Y804862D01*
X2213650Y723900D01*
X2220000Y717550D01*
X2761338Y704850D02*
G54D11*
D03*
G54D14*
X2761338Y704850D02*
X2750225Y704850D01*
X2740700Y695325D01*
X2740700Y423862D01*
X2721650Y404812D01*
X2721650Y347662D01*
X2696250Y322262D01*
X2696250Y231775D01*
X2683550Y219075D01*
X2683550Y155575D01*
X2366050Y1041400D02*
G54D11*
D03*
G54D14*
X2366050Y1041400D02*
X2366050Y1103312D01*
X2353350Y1116012D01*
X2353350Y1200150D01*
X2366050Y1212850D01*
G54D31*
X2366050Y1212850D02*
X2366050Y1264690D01*
X2378590Y1277230D01*
X2093000Y1187450D02*
G54D11*
D03*
X2093000Y1219200D02*
G54D11*
D03*
G54D14*
X2093000Y1187450D02*
X2100938Y1179512D01*
X2100938Y914400D01*
X2073950Y887412D01*
X2073950Y790575D01*
X2016800Y733425D01*
X2016800Y644525D01*
X2016800Y644525D02*
G54D11*
D03*
X1527850Y633412D02*
G54D11*
D03*
G54D14*
X1527850Y633412D02*
X1527850Y314325D01*
X1534200Y307975D01*
X1534200Y128588D01*
X1534200Y128588D02*
G54D11*
D03*
G54D14*
X2093000Y1219200D02*
X2093000Y1214438D01*
X2080300Y1201738D01*
X2080300Y1181100D01*
X2094588Y1166812D01*
X2094588Y920750D01*
X2050138Y876300D01*
X2050138Y785812D01*
X1992988Y728662D01*
X1992988Y652462D01*
X1992988Y652462D02*
G54D11*
D03*
X1508800Y646112D02*
G54D11*
D03*
G54D14*
X1508800Y646112D02*
X1508800Y136525D01*
X1508800Y136525D02*
G54D11*
D03*
X1826300Y481012D02*
G54D11*
D03*
G54D14*
X1827491Y450056D02*
X1827491Y479822D01*
X1826300Y481012D01*
X2315250Y455612D02*
G54D11*
D03*
G54D14*
X2315250Y455612D02*
X2315250Y379412D01*
X2315250Y346075D01*
X2302550Y333375D01*
X2302550Y250825D01*
X2315250Y238125D01*
X2315250Y219075D01*
X1794550Y487362D02*
G54D11*
D03*
G54D14*
X1797725Y450056D02*
X1797725Y484188D01*
X1794550Y487362D01*
X2334300Y449262D02*
G54D11*
D03*
G54D14*
X2334300Y449262D02*
X2334300Y422275D01*
X2340650Y415925D01*
X2340650Y379412D01*
X2340650Y346075D01*
X2327950Y333375D01*
X2327950Y257175D01*
X2340650Y244475D01*
X2340650Y219075D01*
X1807250Y500062D02*
G54D11*
D03*
G54D14*
X1807647Y450056D02*
X1807647Y499666D01*
X1807250Y500062D01*
X2359700Y461962D02*
G54D11*
D03*
G54D14*
X2359700Y461962D02*
X2359700Y422275D01*
X2366050Y415925D01*
X2366050Y379412D01*
X2366050Y346075D01*
X2353350Y333375D01*
X2353350Y258762D01*
X2366050Y246062D01*
X2366050Y219075D01*
X1845350Y500062D02*
G54D11*
D03*
G54D14*
X1847334Y450056D02*
X1847334Y498078D01*
X1845350Y500062D01*
X2378750Y468312D02*
G54D11*
D03*
G54D14*
X2378750Y468312D02*
X2378750Y460375D01*
X2385100Y454025D01*
X2385100Y422275D01*
X2391450Y415925D01*
X2391450Y379412D01*
G54D14*
X2391450Y379412D02*
X2391450Y346075D01*
X2378750Y333375D01*
X2378750Y257175D01*
X2391450Y244475D01*
X2391450Y219075D01*
X1864400Y284162D02*
G54D11*
D03*
G54D14*
X1867178Y421481D02*
X1867178Y410766D01*
X1864400Y407988D01*
X1864400Y284162D01*
G54D14*
X2391450Y303212D02*
X2391450Y257175D01*
X2404150Y244475D01*
X2404150Y187325D01*
X2391450Y174625D01*
X2391450Y142875D01*
X1781850Y474662D02*
G54D11*
D03*
G54D14*
X1787803Y450056D02*
X1787803Y468710D01*
X1781850Y474662D01*
X2372400Y442912D02*
G54D11*
D03*
G54D14*
X2372400Y442912D02*
X2372400Y422275D01*
X2378750Y415925D01*
X2378750Y346075D01*
X2366050Y333375D01*
X2366050Y303212D01*
X2366050Y257175D01*
X2378750Y244475D01*
X2378750Y187325D01*
X2366050Y174625D01*
X2366050Y142875D01*
X1870750Y500062D02*
G54D11*
D03*
X1886625Y493712D02*
G54D11*
D03*
G54D14*
X1877100Y450056D02*
X1877100Y481012D01*
X1870750Y487362D01*
X1870750Y500062D01*
X2340650Y493712D02*
G54D11*
D03*
G54D14*
X2340650Y493712D02*
X2340650Y460375D01*
X2347000Y454025D01*
X2347000Y422275D01*
X2353350Y415925D01*
X2353350Y346075D01*
X2340650Y333375D01*
X2340650Y303212D01*
G54D14*
X2340650Y303212D02*
X2340650Y257175D01*
X2353350Y244475D01*
X2353350Y187325D01*
X2340650Y174625D01*
X2340650Y142875D01*
G54D14*
X1886625Y450056D02*
X1886625Y493712D01*
X2391450Y493712D02*
G54D11*
D03*
G54D14*
X2391450Y493712D02*
X2404150Y481012D01*
X2404150Y447675D01*
X2416850Y434975D01*
X2416850Y379412D01*
X2416850Y346075D01*
X2404150Y333375D01*
X2404150Y257175D01*
X2416850Y244475D01*
X2416850Y219075D01*
G54D24*
X3155038Y1412875D02*
X3155038Y1352550D01*
X3166150Y1341438D01*
X3166150Y798512D01*
X3112175Y798512D01*
X3096300Y782638D01*
X3096300Y676276D01*
X3053437Y633413D01*
G54D24*
X3110168Y819346D02*
X3110168Y800519D01*
X3112175Y798512D01*
G54D24*
X3053437Y633413D02*
X3053437Y406400D01*
X3064550Y395288D01*
X3064550Y47625D01*
G54D24*
X3013750Y447675D02*
X3053438Y447675D01*
X3088362Y582612D02*
G54D26*
D03*
X3205838Y582612D02*
G54D26*
D03*
G54D14*
X2289850Y142875D02*
X2289850Y174625D01*
X2302550Y187325D01*
X2302550Y239712D01*
X2289850Y252412D01*
X2289850Y303212D01*
X2008862Y309562D02*
G54D11*
D03*
G54D14*
X1954888Y312341D02*
X2006084Y312341D01*
X2008862Y309562D01*
X2176341Y366898D02*
G54D16*
D03*
X2176341Y316098D02*
G54D16*
D03*
X2176341Y204973D02*
G54D16*
D03*
X2176341Y154173D02*
G54D16*
D03*
G54D24*
X2213650Y379412D02*
X2213650Y303212D01*
X2213650Y219075D01*
X2213650Y142875D01*
X2213650Y49212D01*
G54D24*
X2176341Y316098D02*
X2176341Y315116D01*
X2145388Y284162D01*
X2145388Y185126D01*
X2176341Y154173D01*
G54D24*
X2176473Y233004D02*
X2176473Y205105D01*
X2176341Y204973D01*
G54D24*
X2416850Y142875D02*
X2420025Y142875D01*
X2435900Y158750D01*
X2435900Y303212D01*
X2416850Y303212D01*
G54D24*
X2435900Y303212D02*
X2435900Y430212D01*
X2435900Y447675D01*
X2423200Y460375D01*
X2423200Y488950D01*
X2435156Y500907D01*
X2448218Y500906D01*
G54D24*
X2708950Y155575D02*
X2708950Y49212D01*
G54D24*
X2912150Y307975D02*
X2912150Y334962D01*
X2896275Y350838D01*
X2848650Y350838D01*
X2842300Y357188D01*
X2842300Y523875D01*
X2861350Y523875D01*
G54D24*
X2842300Y523875D02*
X2842300Y612775D01*
X2842300Y671513D01*
X2861350Y690562D01*
X2861350Y760412D01*
X2842300Y779462D01*
X2842300Y849312D01*
X2861350Y868362D01*
G54D24*
X2443041Y855849D02*
X2443041Y926303D01*
X2461300Y944562D01*
X2461300Y1028935D01*
X2442804Y1047431D01*
G54D24*
X2581950Y1214438D02*
X2581950Y1295400D01*
X2574012Y1303338D01*
X2545438Y1303338D01*
X2512100Y1409700D02*
G54D23*
D03*
X1813600Y384175D02*
G54D34*
D03*
X1881862Y384175D02*
G54D34*
D03*
X1894562Y384175D02*
G54D34*
D03*
G54D35*
X1642060Y409575D02*
X1667550Y409575D01*
X1667550Y342900D01*
X1726684Y342900D01*
G54D35*
X1924328Y332184D02*
X1914803Y332184D01*
X1894562Y352425D01*
X1894562Y384175D01*
G54D14*
X1758038Y352425D02*
X1781850Y352425D01*
X1813600Y384175D01*
G54D24*
X1642150Y696912D02*
X1642060Y409575D01*
G54D24*
X1642060Y384175D02*
X1641856Y49507D01*
X1642150Y49212D01*
X1342112Y1392238D02*
G54D34*
D03*
X1324650Y1392238D02*
G54D34*
D03*
X1307188Y1392238D02*
G54D34*
D03*
G54D24*
X1307188Y1392238D02*
X1305600Y1392238D01*
X1273850Y1360488D01*
X1273850Y869950D01*
X1273850Y742950D01*
X1273850Y730250D01*
G54D24*
X1248450Y760412D02*
X1273850Y760412D01*
G54D24*
X1255354Y1017269D02*
X1273532Y1017269D01*
X1273850Y1017588D01*
G54D24*
X1273850Y869950D02*
X1299250Y869950D01*
G54D24*
X1273850Y730250D02*
X1261150Y717550D01*
X1261150Y601513D01*
X1236348Y576711D01*
G54D24*
X1236348Y576711D02*
X1236348Y548677D01*
X1273850Y511175D01*
X1273850Y449262D01*
X1299250Y449262D01*
X1273850Y449262D01*
X1273850Y219075D01*
X1299250Y219075D01*
X1273850Y219075D01*
X1273850Y77788D01*
X1273850Y77788D02*
G54D34*
D03*
G54D24*
X1307188Y1392238D02*
X1324650Y1392238D01*
X1342112Y1392238D01*
G54D24*
X1451650Y373062D02*
X1477050Y347662D01*
X1477050Y168275D01*
X1451650Y142875D01*
X1451650Y52388D01*
G54D24*
X1462762Y52388D02*
X1462762Y153988D01*
X1464350Y155575D01*
G54D14*
X2886750Y868362D02*
X2886750Y882650D01*
X2924850Y920750D01*
X2924850Y1258888D01*
X2924850Y1258888D02*
G54D11*
D03*
G54D14*
X2544758Y1277008D02*
X2544758Y1277029D01*
X2532738Y1289050D01*
X2532738Y1357312D01*
X2481938Y1408112D01*
X2471618Y1408112D01*
X2469352Y1410378D01*
G54D14*
X2912150Y868362D02*
X2912150Y857250D01*
X2924850Y844550D01*
X2924850Y506412D01*
X2924850Y506412D02*
G54D11*
D03*
X2726412Y487362D02*
G54D11*
D03*
G54D14*
X2726412Y487362D02*
X2708950Y469900D01*
X2708950Y415925D01*
X2708950Y415925D02*
G54D11*
D03*
G36*
X2548550Y387412D02*
X2564550Y387412D01*
X2564550Y371412D01*
X2548550Y371412D01*
X2548550Y387412D01*
G37*
X2581950Y379412D02*
G54D15*
D03*
X2607350Y379412D02*
G54D15*
D03*
X2632750Y379412D02*
G54D15*
D03*
X2658150Y379412D02*
G54D15*
D03*
X2683550Y379412D02*
G54D15*
D03*
X2708950Y379412D02*
G54D15*
D03*
X2734350Y379412D02*
G54D15*
D03*
G54D14*
X2556550Y379412D02*
X2556550Y307975D01*
G54D14*
X2556550Y307975D02*
X2556550Y244475D01*
X2556550Y244475D02*
G54D11*
D03*
X4034512Y244475D02*
G54D11*
D03*
G54D14*
X4034512Y1412875D02*
X4034512Y244475D01*
X4047212Y231775D02*
G54D11*
D03*
G54D14*
X4047212Y231775D02*
X4047212Y1435100D01*
G54D14*
X4072612Y1435100D02*
X4072876Y88900D01*
G54D14*
X4059912Y1412875D02*
X4059912Y219075D01*
X4059912Y219075D02*
G54D11*
D03*
G54D14*
X4085312Y1412875D02*
X4085312Y133350D01*
X4085312Y133350D02*
G54D11*
D03*
G54D14*
X4021812Y1435100D02*
X4021812Y255588D01*
X4021812Y255588D02*
G54D11*
D03*
G54D14*
X4009112Y1412875D02*
X4009112Y268288D01*
X4009112Y268288D02*
G54D11*
D03*
G54D14*
X3996412Y1435100D02*
X3996412Y280988D01*
X3996412Y280988D02*
G54D11*
D03*
G54D14*
X2607350Y379412D02*
X2607350Y365125D01*
X2581950Y339725D01*
X2581950Y307975D01*
X2581950Y250825D01*
X2581950Y250825D02*
G54D11*
D03*
G54D14*
X2658150Y379412D02*
X2658150Y369888D01*
X2640688Y352425D01*
X2618462Y352425D01*
X2607350Y341312D01*
X2607350Y307975D01*
X2607350Y257175D01*
X2607350Y257175D02*
G54D11*
D03*
G54D14*
X2708950Y379412D02*
X2708950Y373062D01*
X2696250Y360362D01*
X2683550Y360362D01*
X2645450Y322262D01*
X2634338Y322262D01*
X2632750Y320675D01*
X2632750Y307975D01*
X2632750Y263525D01*
X2632750Y263525D02*
G54D11*
D03*
G36*
X2878750Y743012D02*
X2894750Y743012D01*
X2894750Y727012D01*
X2878750Y727012D01*
X2878750Y743012D01*
G37*
X2912150Y735012D02*
G54D15*
D03*
X2937550Y735012D02*
G54D15*
D03*
X2962950Y735012D02*
G54D15*
D03*
X2988350Y735012D02*
G54D15*
D03*
X3013750Y735012D02*
G54D15*
D03*
X3039150Y735012D02*
G54D15*
D03*
X3064550Y735012D02*
G54D15*
D03*
X3058200Y830262D02*
G54D11*
D03*
G54D14*
X3058200Y830262D02*
X3058200Y779462D01*
X3078838Y758825D01*
X3078838Y722312D01*
X3064550Y708025D01*
X3064550Y677862D01*
X3064550Y677862D02*
G54D11*
D03*
X3729712Y557212D02*
G54D11*
D03*
G54D14*
X3729712Y557212D02*
X3729712Y1412875D01*
G54D14*
X3742412Y1435100D02*
X3742412Y576262D01*
X3742412Y576262D02*
G54D11*
D03*
X3077250Y793750D02*
G54D11*
D03*
X3077250Y844550D02*
G54D11*
D03*
G54D14*
X3077250Y844550D02*
X3077250Y793750D01*
G54D14*
X3691612Y1435100D02*
X3691612Y92075D01*
X3691612Y92075D02*
G54D11*
D03*
G54D24*
X3793212Y1435100D02*
X3793212Y1425575D01*
X3785275Y1417638D01*
X3785275Y1290638D01*
G54D14*
X2556550Y155575D02*
X2556550Y211138D01*
X2539088Y228600D01*
X2539088Y320675D01*
X2531150Y328612D01*
X2531150Y550862D01*
X2531150Y550862D02*
G54D11*
D03*
X2899450Y582612D02*
G54D11*
D03*
G54D14*
X2899450Y582612D02*
X2899450Y657225D01*
X2912150Y669925D01*
X2912150Y735012D01*
G54D14*
X2886750Y792162D02*
X2886750Y735012D01*
X2861350Y831850D02*
G54D11*
D03*
X2499400Y831850D02*
G54D11*
D03*
G54D14*
X2861350Y831850D02*
X2861350Y792162D01*
G54D14*
X2499400Y831850D02*
X2499400Y941388D01*
X2494638Y946150D01*
X2494638Y974725D01*
X2499400Y979488D01*
X2499400Y1027112D01*
X2493050Y1033462D01*
X2493050Y1136650D01*
X2505750Y1149350D01*
X2505750Y1233488D01*
X2499400Y1239838D01*
X2466062Y1239838D01*
X2443838Y1262062D01*
X2443838Y1276329D01*
X2443158Y1277008D01*
X2485112Y1322388D02*
G54D11*
D03*
X2429550Y1322388D02*
G54D11*
D03*
X2431138Y1255712D02*
G54D11*
D03*
G54D14*
X2468558Y1277008D02*
X2468558Y1256392D01*
X2474000Y1250950D01*
X2508925Y1250950D01*
X2531150Y1228725D01*
X2531150Y1104900D01*
X2531150Y1104900D02*
G54D11*
D03*
X2721650Y1092200D02*
G54D11*
D03*
G54D14*
X2721650Y1092200D02*
X2721650Y938212D01*
X2747050Y912812D01*
X2747050Y793750D01*
X2754988Y785812D01*
X2766100Y785812D01*
X2766100Y785812D02*
G54D11*
D03*
G54D14*
X2443158Y1277008D02*
X2443158Y1284967D01*
X2429550Y1298575D01*
X2429550Y1322388D01*
G54D14*
X2485112Y1322388D02*
X2485112Y1382803D01*
X2484740Y1383175D01*
G54D14*
X2937550Y792162D02*
X2937550Y735012D01*
G54D14*
X2962950Y735012D02*
X2962950Y715962D01*
X2950250Y703262D01*
X2950250Y563562D01*
X2950250Y563562D02*
G54D11*
D03*
X2518450Y525462D02*
G54D11*
D03*
G54D14*
X2518450Y525462D02*
X2524800Y519112D01*
X2524800Y319088D01*
X2531150Y312738D01*
X2531150Y219075D01*
X2543850Y206375D01*
X2543850Y142875D01*
X2550200Y136525D01*
X2577188Y136525D01*
X2581950Y141288D01*
X2581950Y155575D01*
G54D14*
X2607350Y155575D02*
X2607350Y136525D01*
X2594650Y123825D01*
X2542262Y123825D01*
X2531150Y134938D01*
X2531150Y203200D01*
X2524800Y209550D01*
X2524800Y303212D01*
X2518450Y309562D01*
X2518450Y468312D01*
X2505750Y481012D01*
X2505750Y544512D01*
X2512100Y550862D01*
X2512100Y550862D02*
G54D11*
D03*
X3026450Y582612D02*
G54D11*
D03*
G54D14*
X3026450Y582612D02*
X3026450Y709612D01*
X3013750Y722312D01*
X3013750Y735012D01*
G54D14*
X2988350Y792162D02*
X2988350Y735012D01*
G54D14*
X3013750Y868362D02*
X3013750Y827088D01*
X3039150Y801688D01*
X3039150Y735012D01*
G54D14*
X3064550Y735012D02*
X3064550Y733425D01*
X3039150Y708025D01*
X3039150Y569912D01*
X3032800Y563562D01*
X3032800Y474662D01*
X3032800Y474662D02*
G54D11*
D03*
X3120112Y431800D02*
G54D11*
D03*
G54D14*
X3120112Y431800D02*
X3120112Y219075D01*
X3115350Y214312D01*
X3115350Y214312D02*
G54D11*
D03*
X2632750Y220662D02*
G54D11*
D03*
G54D14*
X2632750Y220662D02*
X2632750Y155575D01*
G54D14*
X2962950Y792162D02*
X2962950Y838200D01*
X2950250Y850900D01*
X2950250Y1322388D01*
X2950250Y1322388D02*
G54D11*
D03*
X3031212Y850900D02*
G54D11*
D03*
G54D14*
X3031212Y850900D02*
X3026450Y855662D01*
X3026450Y1182688D01*
X3008988Y1200150D01*
X3008988Y1258888D01*
X3008988Y1258888D02*
G54D11*
D03*
X2397800Y1250950D02*
G54D11*
D03*
G54D14*
X2429943Y1383181D02*
X2429943Y1367231D01*
X2416850Y1354138D01*
X2416850Y1301750D01*
X2431138Y1287462D01*
X2431138Y1255712D01*
G54D14*
X2397800Y1250950D02*
X2397800Y1379134D01*
X2401847Y1383181D01*
G54D14*
X2468558Y1277008D02*
X2468558Y1278617D01*
X2456538Y1290638D01*
X2456538Y1382472D01*
X2457246Y1383181D01*
G54D24*
X2512100Y1409700D02*
X2512100Y1454150D01*
G36*
X2264450Y1482725D02*
X2299375Y1447800D01*
X2647038Y1447800D01*
X2647038Y1482725D01*
X2264450Y1482725D01*
G37*
G54D22*
X2264450Y1482725D02*
X2299375Y1447800D01*
X2647038Y1447800D01*
X2647038Y1482725D01*
X2264450Y1482725D01*
G36*
X2777212Y1487488D02*
X2777212Y1430338D01*
X3035975Y1430338D01*
X3045500Y1420812D01*
X3045500Y1403519D01*
X3051933Y1397086D01*
X3059874Y1397086D01*
X3061375Y1398588D01*
X3061375Y1428750D01*
X3045500Y1444625D01*
X2923904Y1444595D01*
X2923859Y1487726D01*
X2777212Y1487488D01*
G37*
G54D22*
X2777212Y1487488D02*
X2777212Y1430338D01*
X3035975Y1430338D01*
X3045500Y1420812D01*
X3045500Y1403519D01*
X3051933Y1397086D01*
X3059874Y1397086D01*
X3061375Y1398588D01*
X3061375Y1428750D01*
X3045500Y1444625D01*
X2923904Y1444595D01*
X2923859Y1487726D01*
X2777212Y1487488D01*
G54D22*
X3051933Y1397086D02*
X3051933Y1428667D01*
X3051850Y1428750D01*
X3818612Y104775D02*
G54D11*
D03*
G54D14*
X3818612Y1435100D02*
X3818612Y104775D01*
X3804325Y92075D02*
G54D11*
D03*
G54D14*
X3804325Y1412875D02*
X3804325Y92075D01*
X3831312Y115888D02*
G54D11*
D03*
G54D14*
X3831312Y1412875D02*
X3831312Y115888D01*
X3844012Y130175D02*
G54D11*
D03*
G54D36*
X3844012Y1435100D02*
X3844012Y130175D01*
X3856712Y142875D02*
G54D11*
D03*
G54D36*
X3856712Y1412875D02*
X3856712Y142875D01*
X3869412Y155575D02*
G54D11*
D03*
G54D36*
X3869412Y1435100D02*
X3869412Y155575D01*
X3882112Y168275D02*
G54D11*
D03*
G54D36*
X3882112Y1412875D02*
X3882112Y168275D01*
X3983712Y180975D02*
G54D11*
D03*
G54D36*
X3983712Y1412875D02*
X3983712Y180975D01*
X3971012Y193675D02*
G54D11*
D03*
G54D36*
X3971012Y1435100D02*
X3971012Y193675D01*
X3958312Y206375D02*
G54D11*
D03*
G54D36*
X3958312Y1412875D02*
X3958312Y206375D01*
X3945612Y307975D02*
G54D11*
D03*
G54D36*
X3945612Y307975D02*
X3945612Y1435100D01*
X3932912Y296862D02*
G54D11*
D03*
G54D36*
X3932912Y1412875D02*
X3932912Y296862D01*
X3920212Y284162D02*
G54D11*
D03*
G54D36*
X3920212Y1435100D02*
X3920212Y284162D01*
X3907512Y271462D02*
G54D11*
D03*
G54D36*
X3907512Y1412875D02*
X3907512Y271462D01*
X3894812Y327025D02*
G54D11*
D03*
G54D36*
X3894812Y1435100D02*
X3894812Y327025D01*
G54D24*
X3485238Y1412875D02*
X3485238Y1411288D01*
X3505875Y1390650D01*
G54D24*
X3485238Y1411288D02*
X3509050Y1411288D01*
X3510638Y1412875D01*
X3510638Y1395412D01*
X3505875Y1390650D01*
G54D24*
X3497938Y1411288D02*
X3497938Y1408112D01*
X3510638Y1395412D01*
G54D37*
X4172625Y1374775D02*
X4172625Y1312862D01*
X4145638Y1285875D01*
G36*
X4156925Y11112D02*
X4156925Y1301750D01*
X4117062Y1301750D01*
X4117062Y52388D01*
X3778925Y52388D01*
X3778925Y1273175D01*
X3791625Y1287462D01*
X3791625Y1295400D01*
X3788450Y1300162D01*
X3780512Y1300162D01*
X3764638Y1284288D01*
X3764638Y52388D01*
X3664625Y52388D01*
X3664625Y1393825D01*
X3509050Y1393825D01*
X3505875Y1390650D01*
X3505875Y1155700D01*
X3356650Y1006475D01*
X3356650Y639762D01*
X3243938Y639762D01*
X3243938Y806450D01*
X3167738Y806450D01*
X3167738Y800100D01*
X3166150Y798512D01*
X3166150Y793575D01*
X3229650Y793575D01*
X3229650Y224725D01*
X3297912Y224725D01*
X3297912Y53975D01*
X1242100Y53975D01*
X1242100Y474662D01*
X1165900Y550862D01*
X1165900Y690562D01*
X1210350Y735012D01*
X1210350Y890588D01*
X1197650Y890588D01*
X1197650Y735012D01*
X1154788Y692150D01*
X1154788Y546100D01*
X1230988Y469900D01*
X1230988Y53975D01*
X432475Y53975D01*
X432475Y295275D01*
X448350Y311150D01*
X468988Y311150D01*
X484862Y328612D01*
X484839Y350814D01*
X462638Y350838D01*
X462638Y503238D01*
X468988Y509588D01*
X468988Y566738D01*
X513438Y611188D01*
X513438Y687388D01*
X543600Y717550D01*
X543600Y735012D01*
X529312Y735012D01*
X494388Y700088D01*
X494388Y623888D01*
X449938Y579438D01*
X449938Y522288D01*
X442000Y514350D01*
X442000Y382588D01*
X456288Y368300D01*
X456288Y339725D01*
X418188Y301625D01*
X418188Y53975D01*
X230862Y53975D01*
X230862Y11112D01*
X4156925Y11112D01*
G37*
G54D24*
X4156925Y11112D02*
X4156925Y1301750D01*
X4117062Y1301750D01*
X4117062Y52388D01*
X3778925Y52388D01*
X3778925Y1273175D01*
X3791625Y1287462D01*
X3791625Y1295400D01*
X3788450Y1300162D01*
X3780512Y1300162D01*
X3764638Y1284288D01*
X3764638Y52388D01*
X3664625Y52388D01*
X3664625Y1393825D01*
X3509050Y1393825D01*
X3505875Y1390650D01*
X3505875Y1155700D01*
X3356650Y1006475D01*
X3356650Y639762D01*
X3243938Y639762D01*
X3243938Y806450D01*
X3167738Y806450D01*
X3167738Y800100D01*
X3166150Y798512D01*
X3166150Y793575D01*
X3229650Y793575D01*
X3229650Y224725D01*
X3297912Y224725D01*
X3297912Y53975D01*
X1242100Y53975D01*
X1242100Y474662D01*
X1165900Y550862D01*
X1165900Y690562D01*
X1210350Y735012D01*
X1210350Y890588D01*
X1197650Y890588D01*
X1197650Y735012D01*
X1154788Y692150D01*
X1154788Y546100D01*
X1230988Y469900D01*
X1230988Y53975D01*
X432475Y53975D01*
X432475Y295275D01*
X448350Y311150D01*
X468988Y311150D01*
X484862Y328612D01*
X484839Y350814D01*
X462638Y350838D01*
X462638Y503238D01*
X468988Y509588D01*
X468988Y566738D01*
X513438Y611188D01*
X513438Y687388D01*
X543600Y717550D01*
X543600Y735012D01*
X529312Y735012D01*
X494388Y700088D01*
X494388Y623888D01*
X449938Y579438D01*
X449938Y522288D01*
X442000Y514350D01*
X442000Y382588D01*
X456288Y368300D01*
X456288Y339725D01*
X418188Y301625D01*
X418188Y53975D01*
X230862Y53975D01*
X230862Y11112D01*
X4156925Y11112D01*
G54D38*
X57178Y63754D02*
X57178Y79754D01*
G54D38*
X57178Y68754D02*
X66778Y79754D01*
G54D38*
X60778Y71754D02*
X66778Y63754D01*
G54D38*
X81978Y76754D02*
X81978Y66754D01*
X80778Y64754D01*
X78378Y63754D01*
X75978Y63754D01*
X73578Y64754D01*
X72378Y66754D01*
X72378Y76754D01*
X73578Y78754D01*
X75978Y79754D01*
X78378Y79754D01*
X80778Y78754D01*
X81978Y76754D01*
G54D38*
X87578Y63754D02*
X87578Y79754D01*
X93578Y69754D01*
X99578Y79754D01*
X99578Y63754D01*
G54D38*
X105178Y63754D02*
X105178Y79754D01*
X111178Y79754D01*
X113578Y78754D01*
X114778Y76754D01*
X114778Y74754D01*
X113578Y72754D01*
X111178Y71754D01*
X105178Y71754D01*
G54D38*
X120378Y63754D02*
X126378Y79754D01*
X132378Y63754D01*
G54D38*
X122778Y69754D02*
X129978Y69754D01*
G54D38*
X137978Y63754D02*
X137978Y79754D01*
G54D38*
X137978Y68754D02*
X147578Y79754D01*
G54D38*
X141578Y71754D02*
X147578Y63754D01*
G54D38*
X157978Y63754D02*
X157978Y79754D01*
G54D38*
X153178Y79754D02*
X162778Y79754D01*
G54D38*
X57178Y52766D02*
X63178Y36766D01*
X69178Y52766D01*
G54D38*
X83178Y36766D02*
X74778Y36766D01*
X74778Y52766D01*
X83178Y52766D01*
G54D38*
X74778Y44766D02*
X83178Y44766D01*
G54D38*
X93578Y44766D02*
X97178Y42766D01*
X98378Y40766D01*
X98378Y36766D01*
G54D38*
X88778Y36766D02*
X88778Y52766D01*
X94778Y52766D01*
X97178Y51766D01*
X98378Y49766D01*
X98378Y47766D01*
X97178Y45766D01*
X94778Y44766D01*
X88778Y44766D01*
G54D38*
X103978Y43766D02*
X113578Y43766D01*
G54D38*
X128778Y36766D02*
X119178Y36766D01*
X119178Y37766D01*
X120378Y39766D01*
X127578Y45766D01*
X128778Y47766D01*
X128778Y49766D01*
X127578Y51766D01*
X125178Y52766D01*
X122778Y52766D01*
X120378Y51766D01*
X119178Y49766D01*
G54D38*
X134378Y36766D02*
X134378Y36766D01*
G54D38*
X139978Y49766D02*
X141178Y51766D01*
X143578Y52766D01*
X145978Y52766D01*
X148378Y51766D01*
X149578Y49766D01*
X149578Y47766D01*
X148378Y45766D01*
X145978Y44766D01*
X148378Y43766D01*
X149578Y41766D01*
X149578Y39766D01*
X148378Y37766D01*
X145978Y36766D01*
X143578Y36766D01*
X141178Y37766D01*
X139978Y39766D01*
G54D38*
X66778Y14366D02*
X65578Y12366D01*
X63178Y11366D01*
X60778Y11366D01*
X58378Y12366D01*
X57178Y14366D01*
X57178Y24366D01*
X58378Y26366D01*
X60778Y27366D01*
X63178Y27366D01*
X65578Y26366D01*
X66778Y24366D01*
G54D38*
X81978Y24366D02*
X81978Y14366D01*
X80778Y12366D01*
X78378Y11366D01*
X75978Y11366D01*
X73578Y12366D01*
X72378Y14366D01*
X72378Y24366D01*
X73578Y26366D01*
X75978Y27366D01*
X78378Y27366D01*
X80778Y26366D01*
X81978Y24366D01*
G54D38*
X87578Y11366D02*
X87578Y27366D01*
X93578Y17366D01*
X99578Y27366D01*
X99578Y11366D01*
G54D38*
X105178Y11366D02*
X105178Y27366D01*
X111178Y27366D01*
X113578Y26366D01*
X114778Y24366D01*
X114778Y22366D01*
X113578Y20366D01*
X111178Y19366D01*
X105178Y19366D01*
G54D38*
X3878412Y134412D02*
X3885612Y134412D01*
X3878412Y125412D01*
X3885612Y125412D01*
G54D38*
X3900812Y138412D02*
X3900812Y128412D01*
X3899612Y126412D01*
X3897212Y125412D01*
X3894812Y125412D01*
X3892412Y126412D01*
X3891212Y128412D01*
X3891212Y138412D01*
X3892412Y140412D01*
X3894812Y141412D01*
X3897212Y141412D01*
X3899612Y140412D01*
X3900812Y138412D01*
G54D38*
X3916012Y138412D02*
X3916012Y128412D01*
X3914812Y126412D01*
X3912412Y125412D01*
X3910012Y125412D01*
X3907612Y126412D01*
X3906412Y128412D01*
X3906412Y138412D01*
X3907612Y140412D01*
X3910012Y141412D01*
X3912412Y141412D01*
X3914812Y140412D01*
X3916012Y138412D01*
G54D38*
X3921612Y125412D02*
X3921612Y134412D01*
G54D38*
X3921612Y132812D02*
X3924012Y134412D01*
X3926412Y133812D01*
X3927612Y132412D01*
X3927612Y125412D01*
G54D38*
X3927612Y132812D02*
X3930012Y134412D01*
X3932412Y133812D01*
X3933612Y132412D01*
X3933612Y125412D01*
G54D38*
X3939212Y132412D02*
X3948812Y132412D01*
G54D38*
X3964012Y138412D02*
X3964012Y128412D01*
X3962812Y126412D01*
X3960412Y125412D01*
X3958012Y125412D01*
X3955612Y126412D01*
X3954412Y128412D01*
X3954412Y138412D01*
X3955612Y140412D01*
X3958012Y141412D01*
X3960412Y141412D01*
X3962812Y140412D01*
X3964012Y138412D01*
G54D38*
X3969612Y138412D02*
X3970812Y140412D01*
X3973212Y141412D01*
X3975612Y141412D01*
X3978012Y140412D01*
X3979212Y138412D01*
X3979212Y136412D01*
X3978012Y134412D01*
X3975612Y133412D01*
X3978012Y132412D01*
X3979212Y130412D01*
X3979212Y128412D01*
X3978012Y126412D01*
X3975612Y125412D01*
X3973212Y125412D01*
X3970812Y126412D01*
X3969612Y128412D01*
G54D38*
X3984812Y132412D02*
X3994412Y132412D01*
G54D38*
X4009612Y125412D02*
X4000012Y125412D01*
X4000012Y126412D01*
X4001212Y128412D01*
X4008412Y134412D01*
X4009612Y136412D01*
X4009612Y138412D01*
X4008412Y140412D01*
X4006012Y141412D01*
X4003612Y141412D01*
X4001212Y140412D01*
X4000012Y138412D01*
G54D38*
X4024812Y138412D02*
X4024812Y128412D01*
X4023612Y126412D01*
X4021212Y125412D01*
X4018812Y125412D01*
X4016412Y126412D01*
X4015212Y128412D01*
X4015212Y138412D01*
X4016412Y140412D01*
X4018812Y141412D01*
X4021212Y141412D01*
X4023612Y140412D01*
X4024812Y138412D01*
G54D38*
X4040012Y125412D02*
X4030412Y125412D01*
X4030412Y126412D01*
X4031612Y128412D01*
X4038812Y134412D01*
X4040012Y136412D01*
X4040012Y138412D01*
X4038812Y140412D01*
X4036412Y141412D01*
X4034012Y141412D01*
X4031612Y140412D01*
X4030412Y138412D01*
G54D38*
X4055212Y141412D02*
X4045612Y141412D01*
X4045612Y134412D01*
X4046812Y134412D01*
X4049212Y135412D01*
X4051612Y135412D01*
X4054012Y134412D01*
X4055212Y132412D01*
X4055212Y128412D01*
X4054012Y126412D01*
X4051612Y125412D01*
X4049212Y125412D01*
X4046812Y126412D01*
X4045612Y128412D01*
G54D14*
X2683550Y1460500D02*
X2683550Y1354138D01*
G54D14*
X2975650Y762000D02*
X2975650Y563562D01*
G54D14*
X1923331Y1060450D02*
X1923331Y1066800D01*
X1921743Y1068387D01*
X1921743Y1173162D01*
X1942381Y1193800D01*
X1885038Y404812D02*
G54D11*
D03*
G54D14*
X1896547Y421481D02*
X1896547Y416322D01*
X1885038Y404812D01*
X1578650Y428625D02*
G54D11*
D03*
G54D14*
X1578650Y428625D02*
X1578650Y111125D01*
X1578650Y111125D02*
G54D11*
D03*
G54D14*
X535662Y142875D02*
X535662Y111124D01*
X1426663Y290432D02*
G54D16*
D03*
X1325063Y290432D02*
G54D16*
D03*
X1845350Y277812D02*
G54D11*
D03*
G54D14*
X1857653Y253206D02*
X1857653Y265510D01*
X1845350Y277812D01*
X1878688Y271462D02*
G54D11*
D03*
G54D14*
X1867178Y253206D02*
X1867178Y259953D01*
X1878688Y271462D01*
X1521500Y265112D02*
G54D11*
D03*
G54D14*
X1521500Y265112D02*
X1521500Y92075D01*
X1521500Y92075D02*
G54D11*
D03*
X395962Y90488D02*
G54D11*
D03*
X395345Y243656D02*
G54D18*
D03*
X395345Y142057D02*
G54D18*
D03*
G54D14*
X395962Y90488D02*
X395962Y141439D01*
X395345Y142057D01*
G54D14*
X1426250Y142875D02*
X1426250Y219075D01*
G54D14*
X1324650Y219075D02*
X1324650Y290019D01*
X1325063Y290432D01*
G54D14*
X1400850Y142875D02*
X1400850Y171450D01*
X1413550Y184150D01*
X1413550Y309562D01*
X1426250Y322262D01*
X1426250Y373062D01*
X1299250Y339725D02*
G54D11*
D03*
G54D14*
X1299250Y373062D02*
X1299250Y339725D01*
X1605638Y339725D02*
G54D11*
D03*
X1611988Y206375D02*
G54D11*
D03*
G54D14*
X1605638Y339725D02*
X1605638Y212725D01*
X1611988Y206375D01*
X1762800Y206375D02*
G54D11*
D03*
G54D14*
X1777881Y224631D02*
X1777881Y211931D01*
X1772325Y206375D01*
X1762800Y206375D01*
X1210350Y385762D02*
G54D11*
D03*
G54D14*
X1210350Y385762D02*
X1210350Y269875D01*
X1184950Y244475D01*
X1184950Y149225D01*
X1184950Y149225D02*
G54D11*
D03*
X1786612Y187325D02*
G54D11*
D03*
G54D14*
X1797725Y224631D02*
X1797725Y198438D01*
X1786612Y187325D01*
X1375450Y398462D02*
G54D11*
D03*
G54D14*
X1375450Y398462D02*
X1375450Y373062D01*
X1591350Y398462D02*
G54D11*
D03*
G54D14*
X1591350Y398462D02*
X1591350Y193675D01*
X1591350Y193675D02*
G54D11*
D03*
X1748512Y193675D02*
G54D11*
D03*
G54D14*
X1787803Y224631D02*
X1787803Y204390D01*
X1777088Y193675D01*
X1748512Y193675D01*
X1191300Y398462D02*
G54D11*
D03*
G54D14*
X1191300Y398462D02*
X1191300Y288925D01*
X1172250Y269875D01*
X1172250Y168275D01*
X1172250Y168275D02*
G54D11*
D03*
X1159550Y373062D02*
G54D11*
D03*
G54D14*
X1159550Y373062D02*
X1159550Y320675D01*
X1146850Y307975D01*
X1146850Y142875D01*
X1146850Y142875D02*
G54D11*
D03*
X1172250Y423862D02*
G54D11*
D03*
G54D14*
X1172250Y423862D02*
X1172250Y301625D01*
X1159550Y288925D01*
X1159550Y122238D01*
X1159550Y122238D02*
G54D11*
D03*
X212782Y243656D02*
G54D18*
D03*
X212782Y142057D02*
G54D18*
D03*
X930332Y243656D02*
G54D16*
D03*
X930332Y142057D02*
G54D16*
D03*
X1008120Y243656D02*
G54D16*
D03*
X1008120Y142057D02*
G54D16*
D03*
X1084320Y243656D02*
G54D16*
D03*
X1084320Y142057D02*
G54D16*
D03*
X879532Y243656D02*
G54D16*
D03*
X879532Y142057D02*
G54D16*
D03*
X955732Y243656D02*
G54D16*
D03*
X955732Y142057D02*
G54D16*
D03*
X1033520Y243656D02*
G54D16*
D03*
X1033520Y142057D02*
G54D16*
D03*
X904932Y243656D02*
G54D16*
D03*
X904932Y142057D02*
G54D16*
D03*
X981132Y243656D02*
G54D16*
D03*
X981132Y142057D02*
G54D16*
D03*
X1058920Y243656D02*
G54D18*
D03*
X1058920Y142057D02*
G54D18*
D03*
G54D24*
X879532Y142057D02*
X879532Y49830D01*
X880150Y49212D01*
G54D24*
X955732Y142057D02*
X955732Y48242D01*
X956350Y47625D01*
G54D24*
X1033520Y142057D02*
X1033520Y53358D01*
X1032550Y52388D01*
G54D14*
X879532Y243656D02*
X879532Y205405D01*
X905550Y179388D01*
X905550Y142674D01*
X904932Y142057D01*
G54D14*
X955732Y243656D02*
X955732Y208580D01*
X981750Y182562D01*
X981750Y142674D01*
X981132Y142057D01*
G54D14*
X1033520Y243656D02*
X1033520Y206992D01*
X1057950Y182562D01*
X1057950Y143027D01*
X1058920Y142057D01*
X890344Y322881D02*
G54D16*
D03*
X890344Y297481D02*
G54D16*
D03*
X968132Y322881D02*
G54D16*
D03*
X968132Y297481D02*
G54D16*
D03*
X1045919Y322881D02*
G54D16*
D03*
X1045919Y297481D02*
G54D16*
D03*
G54D14*
X930032Y297481D02*
X930118Y243871D01*
X930332Y243656D01*
G54D14*
X1084019Y297481D02*
X1084105Y243871D01*
X1084320Y243656D01*
X765232Y397644D02*
G54D16*
D03*
X765232Y296044D02*
G54D16*
D03*
X790632Y397644D02*
G54D16*
D03*
X790632Y296044D02*
G54D16*
D03*
X815617Y347344D02*
G54D18*
D03*
X815617Y296544D02*
G54D18*
D03*
X842604Y347344D02*
G54D16*
D03*
X842604Y296544D02*
G54D16*
D03*
X815732Y397493D02*
G54D16*
D03*
X815732Y372093D02*
G54D16*
D03*
G54D24*
X765232Y296044D02*
X765232Y53005D01*
X765850Y52388D01*
X918250Y180975D02*
G54D11*
D03*
X994450Y193675D02*
G54D11*
D03*
X1070650Y180975D02*
G54D11*
D03*
G54D14*
X918250Y180975D02*
X918250Y294975D01*
X890344Y322881D01*
G54D14*
X994450Y193675D02*
X994450Y296562D01*
X968132Y322881D01*
G54D14*
X1070650Y180975D02*
X1070650Y298150D01*
X1045919Y322881D01*
X1082732Y461144D02*
G54D16*
D03*
X1082732Y359544D02*
G54D16*
D03*
X1057332Y461144D02*
G54D16*
D03*
X1057332Y359544D02*
G54D16*
D03*
X1033520Y461144D02*
G54D16*
D03*
X1033520Y359544D02*
G54D16*
D03*
X1000800Y595312D02*
G54D18*
D03*
X1038900Y595312D02*
G54D18*
D03*
X1019850Y576262D02*
G54D18*
D03*
X1000800Y544512D02*
G54D18*
D03*
X1038900Y544512D02*
G54D18*
D03*
X1019850Y525462D02*
G54D18*
D03*
X1070650Y544512D02*
G54D18*
D03*
X1108750Y544512D02*
G54D18*
D03*
X1089700Y525462D02*
G54D18*
D03*
X962545Y396714D02*
G54D18*
D03*
X962545Y434814D02*
G54D18*
D03*
X981595Y415763D02*
G54D18*
D03*
X867295Y360201D02*
G54D18*
D03*
X867295Y398301D02*
G54D18*
D03*
X886345Y379251D02*
G54D18*
D03*
X1008120Y461144D02*
G54D16*
D03*
X1008120Y359544D02*
G54D16*
D03*
G54D14*
X1006826Y322881D02*
X1020717Y322881D01*
X1057332Y359544D01*
G54D14*
X1084019Y322881D02*
X1084105Y358171D01*
X1082732Y359544D01*
G54D31*
X1038900Y544512D02*
X1038900Y595312D01*
X1159550Y608012D02*
G54D15*
D03*
G54D14*
X1082732Y461144D02*
X1082732Y518494D01*
X1089700Y525462D01*
G54D14*
X1057332Y461144D02*
X1057332Y487980D01*
X1019850Y525462D01*
G54D14*
X1033520Y461144D02*
X1033368Y461144D01*
X1005562Y488950D01*
X1005562Y530225D01*
X1019850Y544512D01*
X1019850Y576262D01*
G54D24*
X1008120Y461144D02*
X1008120Y397845D01*
X1000800Y390525D01*
X968733Y390525D01*
X962545Y396714D01*
X956350Y595312D02*
G54D11*
D03*
X956350Y576262D02*
G54D11*
D03*
X924600Y563562D02*
G54D11*
D03*
G54D14*
X956350Y595312D02*
X956350Y703262D01*
X1007150Y754062D01*
X1007150Y1303338D01*
X981750Y1328738D01*
X684888Y1328738D01*
X654725Y1358900D01*
X654725Y1387475D01*
G54D14*
X578525Y1387475D02*
X578525Y1336675D01*
X592812Y1322388D01*
X975400Y1322388D01*
X1000800Y1296988D01*
X1000800Y760412D01*
X943650Y703262D01*
X943650Y588962D01*
X956350Y576262D01*
G54D14*
X924600Y563562D02*
X930950Y569912D01*
X930950Y715962D01*
X988100Y773112D01*
X988100Y1284288D01*
X962700Y1309688D01*
X554712Y1309688D01*
X502325Y1362075D01*
X502325Y1387475D01*
X911900Y358775D02*
G54D11*
D03*
G54D14*
X911900Y358775D02*
X918250Y365125D01*
X918250Y417512D01*
X930950Y430212D01*
X930950Y530225D01*
X969050Y568325D01*
X969050Y703262D01*
X1013500Y747712D01*
X1013500Y1309688D01*
X988100Y1335088D01*
X700762Y1335088D01*
X673775Y1362075D01*
X673775Y1438275D01*
X791250Y249238D02*
G54D11*
D03*
G54D14*
X791250Y249238D02*
X791250Y295427D01*
X790632Y296044D01*
G54D14*
X815732Y372093D02*
X815681Y372093D01*
X778550Y334962D01*
X778550Y147638D01*
X783312Y142875D01*
X783312Y142875D02*
G54D11*
D03*
X803950Y219075D02*
G54D11*
D03*
X815062Y238125D02*
G54D11*
D03*
G54D14*
X803950Y219075D02*
X803950Y335677D01*
X815617Y347344D01*
G54D14*
X815062Y238125D02*
X815062Y255588D01*
X829350Y269875D01*
X829350Y334090D01*
X842604Y347344D01*
X611245Y397644D02*
G54D16*
D03*
X611245Y296044D02*
G54D16*
D03*
G54D14*
X611245Y397644D02*
X611245Y397845D01*
X630912Y417512D01*
X900788Y417512D01*
X918250Y434975D01*
X918250Y533400D01*
X937300Y552450D01*
X937300Y709612D01*
X994450Y766762D01*
X994450Y1290638D01*
X969050Y1316038D01*
X565825Y1316038D01*
X521375Y1360488D01*
X521375Y1438275D01*
X457875Y71438D02*
G54D34*
D03*
X432475Y192088D02*
G54D23*
D03*
X432475Y179388D02*
G54D23*
D03*
X662274Y250422D02*
G54D16*
D03*
X611474Y250422D02*
G54D16*
D03*
X1121450Y219075D02*
G54D23*
D03*
X1121450Y193675D02*
G54D23*
D03*
X1096050Y842962D02*
G54D39*
D03*
X1172250Y842962D02*
G54D39*
D03*
G54D31*
X1121450Y193675D02*
X1121450Y219075D01*
X1121450Y327025D01*
X1127800Y333375D01*
X1127800Y709612D01*
X1153200Y735012D01*
X1153200Y820738D01*
X1130975Y842962D01*
X1096050Y842962D01*
X1075412Y842962D01*
X1045250Y873125D01*
X1045250Y1295400D01*
X962700Y517525D02*
G54D20*
D03*
X451525Y542925D02*
G54D11*
D03*
X445175Y511175D02*
G54D23*
D03*
G36*
X1197650Y1279525D02*
X1197650Y890588D01*
X1069062Y890588D01*
X1069062Y1279525D01*
X1197650Y1279525D01*
G37*
G54D37*
X1197650Y1279525D02*
X1197650Y890588D01*
X1069062Y890588D01*
X1069062Y1279525D01*
X1197650Y1279525D01*
G54D24*
X1210350Y890588D02*
X1210350Y966788D01*
X1228196Y966788D01*
X1228350Y966634D01*
X1102400Y1047750D02*
G54D23*
D03*
X1146850Y1047750D02*
G54D23*
D03*
X1070650Y895350D02*
G54D40*
D03*
X1084019Y297481D02*
G54D16*
D03*
X1084019Y322881D02*
G54D16*
D03*
X1006826Y297481D02*
G54D16*
D03*
X1006826Y322881D02*
G54D16*
D03*
G54D14*
X1008120Y243656D02*
X1008120Y296186D01*
X1006826Y297481D01*
X930032Y297481D02*
G54D16*
D03*
X930032Y322881D02*
G54D16*
D03*
X265913Y384083D02*
G54D16*
D03*
X265913Y358683D02*
G54D16*
D03*
X1070650Y1295400D02*
G54D16*
D03*
X1045250Y1295400D02*
G54D16*
D03*
G54D24*
X1070650Y1295400D02*
X1070646Y1280104D01*
X1228350Y965046D02*
G54D41*
D03*
X1228350Y990446D02*
G54D41*
D03*
X1642060Y384175D02*
G54D41*
D03*
X1642060Y409575D02*
G54D41*
D03*
X1103988Y588962D02*
G54D16*
D03*
X1078588Y588962D02*
G54D16*
D03*
X2448218Y475506D02*
G54D15*
D03*
X2448218Y500906D02*
G54D15*
D03*
X2448218Y640069D02*
G54D41*
D03*
X2448218Y665468D02*
G54D41*
D03*
X2765718Y818406D02*
G54D15*
D03*
X2765718Y843806D02*
G54D15*
D03*
X3051347Y1400175D02*
G54D41*
D03*
X3051346Y1374775D02*
G54D41*
D03*
X3089180Y455612D02*
G54D41*
D03*
X3089179Y430213D02*
G54D41*
D03*
X2963010Y659020D02*
G54D41*
D03*
X2988410Y659020D02*
G54D41*
D03*
X4178975Y1433012D02*
G54D41*
D03*
X4153575Y1433012D02*
G54D41*
D03*
G54D14*
X395345Y142057D02*
X390431Y142057D01*
X380088Y152400D01*
X380088Y333375D01*
X341988Y371475D01*
X431442Y345757D02*
G54D18*
D03*
X431442Y294956D02*
G54D18*
D03*
X200700Y346076D02*
G54D16*
D03*
X200700Y371475D02*
G54D16*
D03*
X265836Y320381D02*
G54D16*
D03*
X265836Y294981D02*
G54D16*
D03*
X200700Y295276D02*
G54D16*
D03*
X200700Y320675D02*
G54D16*
D03*
X226654Y345757D02*
G54D18*
D03*
X226654Y294956D02*
G54D18*
D03*
X226100Y398462D02*
G54D16*
D03*
X226100Y373064D02*
G54D16*
D03*
X238182Y243656D02*
G54D18*
D03*
X238182Y142057D02*
G54D18*
D03*
X295950Y396875D02*
G54D11*
D03*
X981750Y481012D02*
G54D11*
D03*
G54D14*
X981750Y481012D02*
X988100Y487362D01*
X988100Y684212D01*
X1032550Y728662D01*
X1032550Y1333500D01*
X1056362Y1357312D01*
X1056362Y1401762D01*
X1045250Y1412875D01*
X891262Y1412875D01*
X865862Y1387475D01*
X891262Y1362075D01*
X482242Y345757D02*
G54D18*
D03*
X482242Y294956D02*
G54D18*
D03*
G54D24*
X457875Y71438D02*
X457875Y270590D01*
X482242Y294956D01*
X368358Y243656D02*
G54D18*
D03*
X368358Y142057D02*
G54D18*
D03*
G54D14*
X341988Y295275D02*
X341988Y268288D01*
X356275Y254000D01*
X356275Y198438D01*
X368975Y185738D01*
X368975Y142674D01*
X368358Y142057D01*
X263582Y243656D02*
G54D18*
D03*
X263582Y142057D02*
G54D18*
D03*
G54D14*
X265836Y294981D02*
X265836Y245910D01*
X263582Y243656D01*
X290570Y243656D02*
G54D18*
D03*
X290570Y142057D02*
G54D18*
D03*
X176270Y267469D02*
G54D18*
D03*
X176270Y165869D02*
G54D18*
D03*
G54D24*
X238182Y142057D02*
X238182Y53005D01*
X238800Y52388D01*
G54D24*
X237212Y103188D02*
X191175Y103188D01*
X175300Y119062D01*
X175300Y164899D01*
X176270Y165869D01*
X315970Y243656D02*
G54D18*
D03*
X315970Y142057D02*
G54D18*
D03*
G54D14*
X238182Y243656D02*
X238182Y267670D01*
X246738Y276225D01*
X246738Y395288D01*
X256262Y404812D01*
X288012Y404812D01*
X295950Y396875D01*
G54D14*
X290570Y142057D02*
X288831Y142057D01*
X224512Y206375D01*
X224512Y292815D01*
X226654Y294956D01*
X295950Y344488D02*
G54D11*
D03*
G54D14*
X295950Y344488D02*
X315000Y344488D01*
X329288Y358775D01*
X329288Y384175D01*
X337225Y392112D01*
X419775Y392112D01*
X419775Y392112D02*
G54D11*
D03*
X962700Y466725D02*
G54D11*
D03*
G54D14*
X962700Y466725D02*
X962700Y485775D01*
X981750Y504825D01*
X981750Y690562D01*
X1026200Y735012D01*
X1026200Y1379538D01*
X1018262Y1387475D01*
X992862Y1362075D01*
G54D14*
X200700Y371475D02*
X213400Y358775D01*
X213400Y308211D01*
X226654Y294956D01*
G54D14*
X212782Y243656D02*
X212782Y283194D01*
X200700Y295276D01*
X343575Y346075D02*
G54D11*
D03*
G54D14*
X343575Y346075D02*
X343575Y325438D01*
X356275Y312738D01*
X356275Y274638D01*
X367388Y263525D01*
X367388Y244626D01*
X368358Y243656D01*
X509229Y345757D02*
G54D18*
D03*
X509229Y294956D02*
G54D18*
D03*
X534629Y345757D02*
G54D18*
D03*
X534629Y294956D02*
G54D18*
D03*
X560029Y345757D02*
G54D18*
D03*
X560029Y294956D02*
G54D18*
D03*
X560029Y421957D02*
G54D18*
D03*
X560029Y371156D02*
G54D18*
D03*
X483275Y396875D02*
G54D16*
D03*
X483275Y371476D02*
G54D16*
D03*
X508675Y396875D02*
G54D16*
D03*
X508675Y371476D02*
G54D16*
D03*
X534075Y396875D02*
G54D16*
D03*
X534075Y371476D02*
G54D16*
D03*
X587432Y397644D02*
G54D16*
D03*
X587432Y296044D02*
G54D16*
D03*
G54D14*
X587432Y296044D02*
X587432Y251442D01*
X611862Y227012D01*
X611862Y219075D01*
G54D24*
X560029Y371156D02*
X560029Y345757D01*
X687445Y397644D02*
G54D16*
D03*
X687445Y296044D02*
G54D16*
D03*
X714432Y397644D02*
G54D16*
D03*
X714432Y296044D02*
G54D16*
D03*
X739832Y397644D02*
G54D16*
D03*
X739832Y296044D02*
G54D16*
D03*
X636645Y397644D02*
G54D16*
D03*
X636645Y296044D02*
G54D16*
D03*
X662045Y397644D02*
G54D16*
D03*
X662045Y296044D02*
G54D16*
D03*
G54D14*
X587432Y397644D02*
X587432Y347045D01*
X548362Y307975D01*
X548362Y257175D01*
X573762Y231775D01*
X573762Y206375D01*
X510262Y142875D01*
X572175Y314325D02*
G54D11*
D03*
X726162Y263525D02*
G54D11*
D03*
G54D14*
X611245Y296044D02*
X611245Y284780D01*
X637262Y258762D01*
X637262Y244475D01*
X662662Y219075D01*
G54D14*
X637262Y142875D02*
X675362Y180975D01*
X675362Y230188D01*
X688062Y242888D01*
X688062Y295427D01*
X687445Y296044D01*
G54D14*
X688062Y142875D02*
X688062Y144462D01*
X700762Y157162D01*
X700762Y384326D01*
X687445Y397644D01*
X481688Y134938D02*
G54D11*
D03*
G54D14*
X726162Y263525D02*
X726162Y155575D01*
X713462Y142875D01*
X937300Y415925D02*
G54D11*
D03*
G54D14*
X937300Y415925D02*
X943650Y422275D01*
X943650Y530225D01*
X975400Y561975D01*
X975400Y696912D01*
X1019850Y741362D01*
X1019850Y1316038D01*
X994450Y1341438D01*
X775375Y1341438D01*
X730925Y1385888D01*
G54D35*
X730925Y1385888D02*
X730925Y1387475D01*
X781725Y1438275D01*
X1096050Y1438275D01*
X1121450Y1412875D01*
X1121450Y1343025D01*
X1146850Y415925D02*
G54D11*
D03*
G54D14*
X1146850Y415925D02*
X1140500Y422275D01*
X1140500Y703262D01*
X1172250Y735012D01*
X1172250Y842962D01*
G54D14*
X586462Y219075D02*
X586462Y230188D01*
X572175Y244475D01*
X572175Y314325D01*
X508675Y516712D02*
G54D19*
D03*
X508675Y468312D02*
G54D19*
D03*
G54D14*
X561062Y219075D02*
X561062Y220662D01*
X534075Y247650D01*
X534075Y294402D01*
X534629Y294956D01*
G54D24*
X483275Y371476D02*
X461050Y371475D01*
G54D24*
X483275Y371476D02*
X483275Y346790D01*
X482242Y345757D01*
G54D24*
X481688Y360362D02*
X464225Y360362D01*
G54D14*
X481688Y134938D02*
X481688Y250825D01*
X495975Y265112D01*
X495975Y384175D01*
X483275Y396875D01*
G54D14*
X535662Y219075D02*
X522962Y231775D01*
X522962Y307975D01*
X548362Y333375D01*
X548362Y382588D01*
X534075Y396875D01*
G54D14*
X508675Y468312D02*
X508675Y433388D01*
X521375Y420688D01*
X521375Y357902D01*
X509229Y345757D01*
G54D14*
X508675Y516712D02*
X496750Y516712D01*
X489625Y509588D01*
X489625Y433388D01*
X508675Y414338D01*
X508675Y396875D01*
G54D24*
X534629Y345757D02*
X534629Y370922D01*
X534075Y371476D01*
X600750Y434975D02*
G54D26*
D03*
X599162Y550863D02*
G54D26*
D03*
X368358Y659582D02*
G54D16*
D03*
X368358Y557982D02*
G54D16*
D03*
X342958Y659582D02*
G54D16*
D03*
X342958Y557982D02*
G54D16*
D03*
X149282Y267469D02*
G54D16*
D03*
X149282Y165869D02*
G54D16*
D03*
X122295Y267469D02*
G54D16*
D03*
X122295Y165869D02*
G54D16*
D03*
X149282Y396056D02*
G54D16*
D03*
X149282Y294457D02*
G54D16*
D03*
X176270Y396056D02*
G54D18*
D03*
X176270Y294457D02*
G54D18*
D03*
X427095Y659582D02*
G54D16*
D03*
X427095Y557982D02*
G54D16*
D03*
X317558Y659582D02*
G54D16*
D03*
X317558Y557982D02*
G54D16*
D03*
X290570Y659582D02*
G54D16*
D03*
X290570Y557982D02*
G54D16*
D03*
X187382Y665932D02*
G54D16*
D03*
X187382Y564332D02*
G54D16*
D03*
X214370Y665932D02*
G54D16*
D03*
X214370Y564332D02*
G54D16*
D03*
X239770Y665932D02*
G54D16*
D03*
X239770Y564331D02*
G54D16*
D03*
X98406Y568930D02*
G54D42*
D03*
X98406Y619730D02*
G54D42*
D03*
X149206Y568930D02*
G54D42*
D03*
X149206Y619731D02*
G54D42*
D03*
X188000Y538162D02*
G54D16*
D03*
X238800Y538162D02*
G54D16*
D03*
X625116Y780731D02*
G54D43*
D03*
X625116Y729931D02*
G54D43*
D03*
X561972Y730824D02*
G54D44*
D03*
X561972Y781624D02*
G54D44*
D03*
X783866Y1001394D02*
G54D43*
D03*
X783866Y950594D02*
G54D43*
D03*
X502325Y800100D02*
G54D23*
D03*
X489625Y787400D02*
G54D23*
D03*
X464225Y633412D02*
G54D23*
D03*
X97804Y767830D02*
G54D44*
D03*
X97804Y717030D02*
G54D44*
D03*
X226392Y767830D02*
G54D44*
D03*
X226392Y717030D02*
G54D44*
D03*
X529312Y685800D02*
G54D20*
D03*
X529312Y569912D02*
G54D20*
D03*
X783516Y1151121D02*
G54D41*
D03*
X783516Y1176521D02*
G54D41*
D03*
G54D14*
X291188Y434975D02*
X291188Y450850D01*
X276900Y465138D01*
X276900Y585788D01*
X291188Y600075D01*
X291188Y658964D01*
X290570Y659582D01*
G54D14*
X290570Y557982D02*
X290570Y546718D01*
X316588Y520700D01*
X316588Y511175D01*
G54D14*
X164188Y434975D02*
X164188Y325438D01*
X176289Y313337D01*
X176270Y294457D01*
G54D14*
X149282Y294457D02*
X149131Y294457D01*
X134025Y309562D01*
X134025Y446088D01*
X189588Y501650D01*
X189588Y511175D01*
G54D14*
X176270Y396056D02*
X176270Y397845D01*
X194350Y415925D01*
X361038Y415925D01*
X394375Y449262D01*
G54D14*
X189588Y434975D02*
X189588Y447675D01*
X200700Y458788D01*
X200700Y590550D01*
X188000Y603250D01*
X188000Y665314D01*
X187382Y665932D01*
G54D24*
X291188Y511175D02*
X291188Y501650D01*
X341988Y449262D01*
X341988Y434975D01*
G54D24*
X368358Y659582D02*
X368358Y631208D01*
X316588Y579438D01*
X316588Y558952D01*
X317558Y557982D01*
G54D24*
X341988Y434975D02*
X341988Y473075D01*
X367388Y498475D01*
X367388Y557012D01*
X368358Y557982D01*
G54D24*
X368358Y659582D02*
X368358Y666132D01*
X489625Y787400D01*
X502325Y800100D01*
X880150Y768350D02*
G54D39*
D03*
X905550Y768350D02*
G54D39*
D03*
X930950Y768350D02*
G54D39*
D03*
G36*
X853162Y984250D02*
X956350Y984250D01*
X956350Y830262D01*
X853162Y830262D01*
X853162Y984250D01*
G37*
G54D37*
X853162Y984250D02*
X956350Y984250D01*
X956350Y830262D01*
X853162Y830262D01*
X853162Y984250D01*
X928902Y1288120D02*
G54D39*
D03*
X903502Y1288120D02*
G54D39*
D03*
X878102Y1288120D02*
G54D39*
D03*
G36*
X852702Y1224620D02*
X955890Y1224620D01*
X955890Y1070632D01*
X852702Y1070632D01*
X852702Y1224620D01*
G37*
G54D37*
X852702Y1224620D02*
X955890Y1224620D01*
X955890Y1070632D01*
X852702Y1070632D01*
X852702Y1224620D01*
G54D24*
X265788Y511175D02*
X265788Y706438D01*
X289600Y706438D01*
X316588Y679450D01*
X316588Y660552D01*
X317558Y659582D01*
G54D37*
X149206Y619731D02*
X149206Y715269D01*
X149900Y715962D01*
X98872Y715962D01*
X97804Y717030D01*
G54D37*
X149900Y715962D02*
X225324Y715962D01*
X226392Y717030D01*
X255743Y717030D01*
X395962Y857250D01*
X507088Y857250D01*
X540425Y823912D01*
X659488Y823912D01*
X696000Y787400D01*
X753150Y787400D01*
G54D37*
X803950Y787400D02*
X875388Y787400D01*
G54D24*
X880150Y768350D02*
X880150Y782638D01*
X875388Y787400D01*
G54D37*
X255743Y717030D02*
X255743Y716482D01*
X265788Y706438D01*
X280075Y706438D01*
G54D37*
X470575Y860425D02*
X470575Y952500D01*
X529312Y1011238D01*
X710288Y1011238D01*
X710288Y1141412D01*
X745212Y1176338D01*
X762675Y1176338D01*
G54D37*
X783866Y950594D02*
X721718Y950594D01*
X710288Y962025D01*
X710288Y1011238D01*
G54D24*
X783516Y1176521D02*
X762858Y1176521D01*
X762675Y1176338D01*
G54D24*
X783516Y1176521D02*
X807308Y1176521D01*
X823000Y1192212D01*
X823000Y1249362D01*
X837288Y1263650D01*
X918720Y1263650D01*
X928902Y1273832D01*
X928902Y1288120D01*
G54D24*
X98406Y568930D02*
X123806Y594331D01*
X123806Y637281D01*
X64175Y696912D01*
X64175Y734201D01*
X97804Y767830D01*
G54D37*
X97804Y767830D02*
X226392Y767830D01*
G54D45*
X625116Y729931D02*
X562864Y729931D01*
X561972Y730824D01*
G54D37*
X561972Y730824D02*
X537824Y730824D01*
X537250Y730250D01*
G54D37*
X529312Y685800D02*
X505500Y685800D01*
X1050982Y805631D02*
G54D46*
D03*
X1050982Y754831D02*
G54D46*
D03*
X1076382Y805631D02*
G54D46*
D03*
X1076382Y754831D02*
G54D46*
D03*
X1101782Y805631D02*
G54D46*
D03*
X1101782Y754831D02*
G54D46*
D03*
X1127182Y805631D02*
G54D46*
D03*
X1127182Y754831D02*
G54D46*
D03*
X1102400Y722312D02*
G54D47*
D03*
X1102400Y687388D02*
G54D20*
D03*
G54D37*
X529312Y569912D02*
X529312Y582612D01*
X676950Y730250D01*
X894438Y730250D01*
X905550Y741362D01*
G54D37*
X905550Y768350D02*
X905550Y741362D01*
X400725Y804862D02*
G54D20*
D03*
X348338Y703262D02*
G54D20*
D03*
X451525Y703262D02*
G54D20*
D03*
G54D24*
X394375Y449262D02*
X394375Y595312D01*
X408662Y609600D01*
X440412Y609600D01*
X464225Y633412D01*
G54D24*
X427095Y659582D02*
X427095Y659782D01*
X451525Y684212D01*
X451525Y703262D01*
G54D37*
X451525Y703262D02*
X529312Y781050D01*
X561397Y781050D01*
X561972Y781624D01*
X624223Y781624D01*
X625116Y780731D01*
X753150Y787400D02*
G54D48*
D03*
X803950Y787400D02*
G54D48*
D03*
X1165900Y1385888D02*
G54D49*
D03*
X1121450Y1343025D02*
G54D49*
D03*
X1210350Y1343025D02*
G54D49*
D03*
X891262Y1481138D02*
G54D20*
D03*
X992862Y1481138D02*
G54D20*
D03*
X865862Y1387475D02*
G54D20*
D03*
X942062Y1387475D02*
G54D20*
D03*
X1018262Y1387475D02*
G54D20*
D03*
X891262Y1362075D02*
G54D20*
D03*
X992862Y1362075D02*
G54D20*
D03*
G54D37*
X1165900Y1385888D02*
X1165900Y1277938D01*
X289600Y1220788D02*
G54D50*
D03*
X340400Y1220788D02*
G54D50*
D03*
X542012Y1220788D02*
G54D50*
D03*
X591225Y1220788D02*
G54D50*
D03*
X291188Y908050D02*
G54D50*
D03*
X591225Y908050D02*
G54D50*
D03*
X392788Y939800D02*
G54D50*
D03*
X542012Y939800D02*
G54D50*
D03*
X270550Y1322388D02*
G54D50*
D03*
X18138Y1290638D02*
G54D50*
D03*
X43538Y1177925D02*
G54D50*
D03*
X43538Y1127125D02*
G54D51*
D03*
X43538Y1011238D02*
G54D51*
D03*
X43538Y960438D02*
G54D51*
D03*
X64175Y525462D02*
G54D50*
D03*
X64175Y474662D02*
G54D51*
D03*
X64175Y358775D02*
G54D51*
D03*
X64175Y307975D02*
G54D51*
D03*
G54D37*
X98406Y619730D02*
X71507Y619730D01*
X34012Y657225D01*
X34012Y769938D01*
X81638Y817562D01*
X200700Y817562D01*
X291188Y908050D01*
X253088Y869950D02*
G54D52*
D03*
G54D24*
X3110169Y997146D02*
X3091734Y997146D01*
X3085188Y990600D01*
X1767960Y434578D02*
G54D53*
D03*
X1777881Y434578D02*
G54D53*
D03*
X1787803Y434578D02*
G54D53*
D03*
X1797725Y434578D02*
G54D53*
D03*
X1807647Y434578D02*
G54D53*
D03*
X1817569Y434578D02*
G54D53*
D03*
X1827490Y434578D02*
G54D53*
D03*
X1837810Y434578D02*
G54D53*
D03*
X1847334Y434578D02*
G54D53*
D03*
X1857653Y434578D02*
G54D53*
D03*
X1867178Y434578D02*
G54D53*
D03*
X1877100Y434578D02*
G54D53*
D03*
X1886625Y434578D02*
G54D53*
D03*
X1896547Y434578D02*
G54D53*
D03*
X1906866Y434578D02*
G54D53*
D03*
X1916788Y434578D02*
G54D53*
D03*
X1767960Y240109D02*
G54D53*
D03*
X1777881Y240109D02*
G54D53*
D03*
X1787803Y240109D02*
G54D53*
D03*
X1797725Y240109D02*
G54D53*
D03*
X1807647Y240109D02*
G54D53*
D03*
X1817569Y240109D02*
G54D53*
D03*
X1827490Y240109D02*
G54D53*
D03*
X1837810Y240109D02*
G54D53*
D03*
X1847334Y240109D02*
G54D53*
D03*
X1857653Y240109D02*
G54D53*
D03*
X1867178Y240109D02*
G54D53*
D03*
X1877100Y240109D02*
G54D53*
D03*
X1886625Y240109D02*
G54D53*
D03*
X1896547Y240109D02*
G54D53*
D03*
X1906866Y240109D02*
G54D53*
D03*
X1916788Y240109D02*
G54D53*
D03*
X1941394Y410766D02*
G54D54*
D03*
X1941394Y401241D02*
G54D54*
D03*
X1941394Y391716D02*
G54D54*
D03*
X1941394Y381794D02*
G54D54*
D03*
X1941394Y371872D02*
G54D54*
D03*
X1941394Y362347D02*
G54D54*
D03*
X1941394Y352425D02*
G54D54*
D03*
X1941394Y342503D02*
G54D54*
D03*
X1941790Y332581D02*
G54D54*
D03*
X1941394Y322659D02*
G54D54*
D03*
X1941394Y312341D02*
G54D54*
D03*
X1941394Y302419D02*
G54D54*
D03*
X1941394Y292497D02*
G54D54*
D03*
X1941394Y282575D02*
G54D54*
D03*
X1941394Y272653D02*
G54D54*
D03*
X1941394Y262731D02*
G54D54*
D03*
X1744940Y411162D02*
G54D54*
D03*
X1744940Y401241D02*
G54D54*
D03*
X1744940Y391716D02*
G54D54*
D03*
X1744940Y381794D02*
G54D54*
D03*
X1744940Y371872D02*
G54D54*
D03*
X1744940Y362347D02*
G54D54*
D03*
X1744940Y352425D02*
G54D54*
D03*
X1744940Y342503D02*
G54D54*
D03*
X1744940Y332581D02*
G54D54*
D03*
X1744940Y322659D02*
G54D54*
D03*
X1744940Y312341D02*
G54D54*
D03*
X1744940Y302419D02*
G54D54*
D03*
X1744941Y292497D02*
G54D54*
D03*
X1744940Y282575D02*
G54D54*
D03*
X1744940Y272256D02*
G54D54*
D03*
X1744940Y262731D02*
G54D54*
D03*
X3116938Y1466850D02*
G54D55*
D03*
X3142338Y1466850D02*
G54D55*
D03*
X3167738Y1466850D02*
G54D55*
D03*
X3193138Y1466850D02*
G54D55*
D03*
X3218538Y1466850D02*
G54D55*
D03*
X3243938Y1466850D02*
G54D55*
D03*
X3269338Y1466850D02*
G54D55*
D03*
X3294738Y1466850D02*
G54D55*
D03*
X3320138Y1466850D02*
G54D55*
D03*
X3345538Y1466850D02*
G54D55*
D03*
X3370938Y1466850D02*
G54D55*
D03*
X3396338Y1466850D02*
G54D55*
D03*
X3421738Y1466850D02*
G54D55*
D03*
X3472538Y1466850D02*
G54D55*
D03*
X3497938Y1466850D02*
G54D55*
D03*
X3691612Y1466850D02*
G54D55*
D03*
X3717012Y1466850D02*
G54D55*
D03*
X3742412Y1466850D02*
G54D55*
D03*
X3793212Y1466850D02*
G54D55*
D03*
X3818612Y1466850D02*
G54D55*
D03*
X3844012Y1466850D02*
G54D55*
D03*
X3869412Y1466850D02*
G54D55*
D03*
X3894812Y1466850D02*
G54D55*
D03*
X3920212Y1466850D02*
G54D55*
D03*
X3945612Y1466850D02*
G54D55*
D03*
X3971012Y1466850D02*
G54D55*
D03*
X3996412Y1466850D02*
G54D55*
D03*
X4021812Y1466850D02*
G54D55*
D03*
X4047212Y1466850D02*
G54D55*
D03*
X4072612Y1466850D02*
G54D55*
D03*
X1388150Y1466850D02*
G54D55*
D03*
X1413550Y1466850D02*
G54D55*
D03*
X1438950Y1466850D02*
G54D55*
D03*
X1464350Y1466850D02*
G54D55*
D03*
X1515150Y1466850D02*
G54D55*
D03*
X1540550Y1466850D02*
G54D55*
D03*
X1565950Y1466850D02*
G54D55*
D03*
X1591350Y1466850D02*
G54D55*
D03*
X1616750Y1466850D02*
G54D55*
D03*
X1642150Y1466850D02*
G54D55*
D03*
X1667550Y1466850D02*
G54D55*
D03*
X1692950Y1466850D02*
G54D55*
D03*
X1718350Y1466850D02*
G54D55*
D03*
X1743750Y1466850D02*
G54D55*
D03*
X1769150Y1466850D02*
G54D55*
D03*
X1794550Y1466850D02*
G54D55*
D03*
X1819950Y1466850D02*
G54D55*
D03*
X1845350Y1466850D02*
G54D55*
D03*
X1870750Y1466850D02*
G54D55*
D03*
X1896150Y1466850D02*
G54D55*
D03*
X1921550Y1466850D02*
G54D55*
D03*
X1946950Y1466850D02*
G54D55*
D03*
X1972350Y1466850D02*
G54D55*
D03*
X1997750Y1466850D02*
G54D55*
D03*
X2023150Y1466850D02*
G54D55*
D03*
X2048550Y1466850D02*
G54D55*
D03*
X2073950Y1466850D02*
G54D55*
D03*
G54D24*
X3051347Y1400175D02*
X3051347Y1414966D01*
X3045500Y1420812D01*
X3051347Y1414966D01*
X3051849Y1293812D02*
G54D56*
D03*
G54D24*
X3051346Y1374775D02*
X3051346Y1359404D01*
X3051850Y1358900D01*
G54D24*
X3051850Y1214438D02*
X3051850Y1233488D01*
X3072488Y1347788D02*
G54D57*
D03*
X3072488Y1322388D02*
G54D57*
D03*
X3072488Y1296988D02*
G54D57*
D03*
X3072488Y1271588D02*
G54D57*
D03*
X3072488Y1246188D02*
G54D57*
D03*
X3072488Y1220788D02*
G54D57*
D03*
X2595840Y1489075D02*
G54D58*
D03*
G54D59*
X2260530Y1498586D02*
X2260531Y1482378D01*
X2260482Y1482328D01*
M02*
