%FSLAX34Y34*%
%MOMM*%
%LNCOPPER_TOP*%
G71*
G01*
%ADD10C,1.400*%
%ADD11C,1.000*%
%ADD12C,1.100*%
%ADD13C,1.700*%
%ADD14C,0.400*%
%ADD15C,1.600*%
%ADD16C,1.600*%
%ADD17C,1.000*%
%ADD18C,1.500*%
%ADD19C,2.000*%
%ADD20C,2.400*%
%ADD21C,2.600*%
%ADD22C,1.400*%
%ADD23C,1.300*%
%ADD24C,1.300*%
%ADD25C,1.200*%
%ADD26C,1.400*%
%ADD27C,1.800*%
%ADD28C,4.000*%
%ADD29C,4.000*%
%ADD30C,1.500*%
%ADD31C,1.000*%
%ADD32C,0.420*%
%ADD33C,1.000*%
%ADD34C,1.300*%
%ADD35C,0.800*%
%ADD36C,0.410*%
%ADD37C,2.500*%
%ADD38C,0.286*%
%ADD39C,2.000*%
%ADD40C,2.800*%
%ADD41C,1.700*%
%ADD42C,2.200*%
%ADD43C,1.800*%
%ADD44C,3.000*%
%ADD45C,2.000*%
%ADD46C,2.200*%
%ADD47C,2.200*%
%ADD48C,2.200*%
%ADD49C,3.000*%
%ADD50C,3.000*%
%ADD51C,3.010*%
%ADD52C,2.000*%
%ADD53R,0.600X3.200*%
%ADD54R,3.200X0.600*%
%ADD55R,2.000X8.500*%
%ADD56R,1.300X14.600*%
%ADD57R,1.600X1.600*%
%ADD58R,67.000X2.500*%
%ADD59C,0.600*%
%LPD*%
G36*
X1294750Y991250D02*
X1308750Y991250D01*
X1308750Y977250D01*
X1294750Y977250D01*
X1294750Y991250D01*
G37*
X1327150Y984250D02*
G54D10*
D03*
X1352550Y984250D02*
G54D10*
D03*
X1377950Y984250D02*
G54D10*
D03*
X1403350Y984250D02*
G54D10*
D03*
X1428750Y984250D02*
G54D10*
D03*
X1454150Y984250D02*
G54D10*
D03*
X1479550Y984250D02*
G54D10*
D03*
X1504950Y984250D02*
G54D10*
D03*
X1530350Y984250D02*
G54D10*
D03*
X1555750Y984250D02*
G54D10*
D03*
X1581150Y984250D02*
G54D10*
D03*
X1606550Y984250D02*
G54D10*
D03*
X1631950Y984250D02*
G54D10*
D03*
X1657350Y984250D02*
G54D10*
D03*
X1682750Y984250D02*
G54D10*
D03*
X1708150Y984250D02*
G54D10*
D03*
X1733550Y984250D02*
G54D10*
D03*
X1758950Y984250D02*
G54D10*
D03*
X1784350Y984250D02*
G54D10*
D03*
X1784350Y1136650D02*
G54D10*
D03*
X1758950Y1136650D02*
G54D10*
D03*
X1733550Y1136650D02*
G54D10*
D03*
X1708150Y1136650D02*
G54D10*
D03*
X1682750Y1136650D02*
G54D10*
D03*
X1657350Y1136650D02*
G54D10*
D03*
X1631950Y1136650D02*
G54D10*
D03*
X1606550Y1136650D02*
G54D10*
D03*
X1581150Y1136650D02*
G54D10*
D03*
X1555750Y1136650D02*
G54D10*
D03*
X1530350Y1136650D02*
G54D10*
D03*
X1504950Y1136650D02*
G54D10*
D03*
X1479550Y1136650D02*
G54D10*
D03*
X1454150Y1136650D02*
G54D10*
D03*
X1428750Y1136650D02*
G54D10*
D03*
X1403350Y1136650D02*
G54D10*
D03*
X1377950Y1136650D02*
G54D10*
D03*
X1352550Y1136650D02*
G54D10*
D03*
X1327150Y1136650D02*
G54D10*
D03*
X1301750Y1136650D02*
G54D10*
D03*
X600075Y1341438D02*
G54D11*
D03*
X538162Y111124D02*
G54D12*
D03*
X4075376Y88900D02*
G54D11*
D03*
G36*
X1867838Y991250D02*
X1881838Y991250D01*
X1881838Y977250D01*
X1867838Y977250D01*
X1867838Y991250D01*
G37*
X1900238Y984250D02*
G54D10*
D03*
X1925638Y984250D02*
G54D10*
D03*
X1951038Y984250D02*
G54D10*
D03*
X1976438Y984250D02*
G54D10*
D03*
X2001838Y984250D02*
G54D10*
D03*
X2027238Y984250D02*
G54D10*
D03*
X2027238Y1060450D02*
G54D10*
D03*
X2001838Y1060450D02*
G54D10*
D03*
X1976438Y1060450D02*
G54D10*
D03*
X1951038Y1060450D02*
G54D10*
D03*
X1925638Y1060450D02*
G54D10*
D03*
X1900238Y1060450D02*
G54D10*
D03*
X1874838Y1060450D02*
G54D10*
D03*
G36*
X1294750Y380062D02*
X1308750Y380062D01*
X1308750Y366062D01*
X1294750Y366062D01*
X1294750Y380062D01*
G37*
X1327150Y373062D02*
G54D10*
D03*
X1352550Y373062D02*
G54D10*
D03*
X1377950Y373062D02*
G54D10*
D03*
X1403350Y373062D02*
G54D10*
D03*
X1428750Y373062D02*
G54D10*
D03*
X1454150Y373062D02*
G54D10*
D03*
X1454150Y449262D02*
G54D10*
D03*
X1428750Y449262D02*
G54D10*
D03*
X1403350Y449262D02*
G54D10*
D03*
X1377950Y449262D02*
G54D10*
D03*
X1352550Y449262D02*
G54D10*
D03*
X1327150Y449262D02*
G54D10*
D03*
X1301750Y449262D02*
G54D10*
D03*
G36*
X1294750Y149875D02*
X1308750Y149875D01*
X1308750Y135875D01*
X1294750Y135875D01*
X1294750Y149875D01*
G37*
X1327150Y142875D02*
G54D10*
D03*
X1352550Y142875D02*
G54D10*
D03*
X1377950Y142875D02*
G54D10*
D03*
X1403350Y142875D02*
G54D10*
D03*
X1428750Y142875D02*
G54D10*
D03*
X1454150Y142875D02*
G54D10*
D03*
X1454150Y219075D02*
G54D10*
D03*
X1428750Y219075D02*
G54D10*
D03*
X1403350Y219075D02*
G54D10*
D03*
X1377950Y219075D02*
G54D10*
D03*
X1352550Y219075D02*
G54D10*
D03*
X1327150Y219075D02*
G54D10*
D03*
X1301750Y219075D02*
G54D10*
D03*
G36*
X1294750Y724550D02*
X1308750Y724550D01*
X1308750Y710550D01*
X1294750Y710550D01*
X1294750Y724550D01*
G37*
X1327150Y717550D02*
G54D10*
D03*
X1352550Y717550D02*
G54D10*
D03*
X1377950Y717550D02*
G54D10*
D03*
X1403350Y717550D02*
G54D10*
D03*
X1428750Y717550D02*
G54D10*
D03*
X1454150Y717550D02*
G54D10*
D03*
X1479550Y717550D02*
G54D10*
D03*
X1504950Y717550D02*
G54D10*
D03*
X1530350Y717550D02*
G54D10*
D03*
X1555750Y717550D02*
G54D10*
D03*
X1581150Y717550D02*
G54D10*
D03*
X1606550Y717550D02*
G54D10*
D03*
X1631950Y717550D02*
G54D10*
D03*
X1631950Y869950D02*
G54D10*
D03*
X1606550Y869950D02*
G54D10*
D03*
X1581150Y869950D02*
G54D10*
D03*
X1555750Y869950D02*
G54D10*
D03*
X1530350Y869950D02*
G54D10*
D03*
X1504950Y869950D02*
G54D10*
D03*
X1479550Y869950D02*
G54D10*
D03*
X1454150Y869950D02*
G54D10*
D03*
X1428750Y869950D02*
G54D10*
D03*
X1403350Y869950D02*
G54D10*
D03*
X1377950Y869950D02*
G54D10*
D03*
X1352550Y869950D02*
G54D10*
D03*
X1327150Y869950D02*
G54D10*
D03*
X1301750Y869950D02*
G54D10*
D03*
G36*
X1791638Y800750D02*
X1805638Y800750D01*
X1805638Y786750D01*
X1791638Y786750D01*
X1791638Y800750D01*
G37*
X1824038Y793750D02*
G54D10*
D03*
X1849438Y793750D02*
G54D10*
D03*
X1874838Y793750D02*
G54D10*
D03*
X1900238Y793750D02*
G54D10*
D03*
X1925638Y793750D02*
G54D10*
D03*
X1951038Y793750D02*
G54D10*
D03*
X1976438Y793750D02*
G54D10*
D03*
X2001838Y793750D02*
G54D10*
D03*
X2027238Y793750D02*
G54D10*
D03*
X2027238Y869950D02*
G54D10*
D03*
X2001838Y869950D02*
G54D10*
D03*
X1976438Y869950D02*
G54D10*
D03*
X1951038Y869950D02*
G54D10*
D03*
X1925638Y869950D02*
G54D10*
D03*
X1900238Y869950D02*
G54D10*
D03*
X1874838Y869950D02*
G54D10*
D03*
X1849438Y869950D02*
G54D10*
D03*
X1824038Y869950D02*
G54D10*
D03*
X1798638Y869950D02*
G54D10*
D03*
G36*
X2171050Y991250D02*
X2185050Y991250D01*
X2185050Y977250D01*
X2171050Y977250D01*
X2171050Y991250D01*
G37*
X2203450Y984250D02*
G54D10*
D03*
X2228850Y984250D02*
G54D10*
D03*
X2254250Y984250D02*
G54D10*
D03*
X2279650Y984250D02*
G54D10*
D03*
X2305050Y984250D02*
G54D10*
D03*
X2330450Y984250D02*
G54D10*
D03*
X2355850Y984250D02*
G54D10*
D03*
X2381250Y984250D02*
G54D10*
D03*
X2406650Y984250D02*
G54D10*
D03*
X2406650Y1060450D02*
G54D10*
D03*
X2381250Y1060450D02*
G54D10*
D03*
X2355850Y1060450D02*
G54D10*
D03*
X2330450Y1060450D02*
G54D10*
D03*
X2305050Y1060450D02*
G54D10*
D03*
X2279650Y1060450D02*
G54D10*
D03*
X2254250Y1060450D02*
G54D10*
D03*
X2228850Y1060450D02*
G54D10*
D03*
X2203450Y1060450D02*
G54D10*
D03*
X2178050Y1060450D02*
G54D10*
D03*
G36*
X2171050Y800750D02*
X2185050Y800750D01*
X2185050Y786750D01*
X2171050Y786750D01*
X2171050Y800750D01*
G37*
X2203450Y793750D02*
G54D10*
D03*
X2228850Y793750D02*
G54D10*
D03*
X2254250Y793750D02*
G54D10*
D03*
X2279650Y793750D02*
G54D10*
D03*
X2305050Y793750D02*
G54D10*
D03*
X2330450Y793750D02*
G54D10*
D03*
X2355850Y793750D02*
G54D10*
D03*
X2381250Y793750D02*
G54D10*
D03*
X2406650Y793750D02*
G54D10*
D03*
X2406650Y869950D02*
G54D10*
D03*
X2381250Y869950D02*
G54D10*
D03*
X2355850Y869950D02*
G54D10*
D03*
X2330450Y869950D02*
G54D10*
D03*
X2305050Y869950D02*
G54D10*
D03*
X2279650Y869950D02*
G54D10*
D03*
X2254250Y869950D02*
G54D10*
D03*
X2228850Y869950D02*
G54D10*
D03*
X2203450Y869950D02*
G54D10*
D03*
X2178050Y869950D02*
G54D10*
D03*
G36*
X2221850Y621362D02*
X2235850Y621362D01*
X2235850Y607362D01*
X2221850Y607362D01*
X2221850Y621362D01*
G37*
X2254250Y614362D02*
G54D10*
D03*
X2279650Y614362D02*
G54D10*
D03*
X2305050Y614362D02*
G54D10*
D03*
X2330450Y614362D02*
G54D10*
D03*
X2355850Y614362D02*
G54D10*
D03*
X2381250Y614362D02*
G54D10*
D03*
X2406650Y614362D02*
G54D10*
D03*
X2406650Y690562D02*
G54D10*
D03*
X2381250Y690562D02*
G54D10*
D03*
X2355850Y690562D02*
G54D10*
D03*
X2330450Y690562D02*
G54D10*
D03*
X2305050Y690562D02*
G54D10*
D03*
X2279650Y690562D02*
G54D10*
D03*
X2254250Y690562D02*
G54D10*
D03*
X2228850Y690562D02*
G54D10*
D03*
G36*
X2209150Y310212D02*
X2223150Y310212D01*
X2223150Y296212D01*
X2209150Y296212D01*
X2209150Y310212D01*
G37*
X2241550Y303212D02*
G54D10*
D03*
X2266950Y303212D02*
G54D10*
D03*
X2292350Y303212D02*
G54D10*
D03*
X2317750Y303212D02*
G54D10*
D03*
X2343150Y303212D02*
G54D10*
D03*
X2368550Y303212D02*
G54D10*
D03*
X2393950Y303212D02*
G54D10*
D03*
X2419350Y303212D02*
G54D10*
D03*
X2419350Y379412D02*
G54D10*
D03*
X2393950Y379412D02*
G54D10*
D03*
X2368550Y379412D02*
G54D10*
D03*
X2343150Y379412D02*
G54D10*
D03*
X2317750Y379412D02*
G54D10*
D03*
X2292350Y379412D02*
G54D10*
D03*
X2266950Y379412D02*
G54D10*
D03*
X2241550Y379412D02*
G54D10*
D03*
X2216150Y379412D02*
G54D10*
D03*
G36*
X2209150Y149875D02*
X2223150Y149875D01*
X2223150Y135875D01*
X2209150Y135875D01*
X2209150Y149875D01*
G37*
X2241550Y142875D02*
G54D10*
D03*
X2266950Y142875D02*
G54D10*
D03*
X2292350Y142875D02*
G54D10*
D03*
X2317750Y142875D02*
G54D10*
D03*
X2343150Y142875D02*
G54D10*
D03*
X2368550Y142875D02*
G54D10*
D03*
X2393950Y142875D02*
G54D10*
D03*
X2419350Y142875D02*
G54D10*
D03*
X2419350Y219075D02*
G54D10*
D03*
X2393950Y219075D02*
G54D10*
D03*
X2368550Y219075D02*
G54D10*
D03*
X2343150Y219075D02*
G54D10*
D03*
X2317750Y219075D02*
G54D10*
D03*
X2292350Y219075D02*
G54D10*
D03*
X2266950Y219075D02*
G54D10*
D03*
X2241550Y219075D02*
G54D10*
D03*
X2216150Y219075D02*
G54D10*
D03*
G36*
X2552050Y162575D02*
X2566050Y162575D01*
X2566050Y148575D01*
X2552050Y148575D01*
X2552050Y162575D01*
G37*
X2584450Y155575D02*
G54D10*
D03*
X2609850Y155575D02*
G54D10*
D03*
X2635250Y155575D02*
G54D10*
D03*
X2660650Y155575D02*
G54D10*
D03*
X2686050Y155575D02*
G54D10*
D03*
X2711450Y155575D02*
G54D10*
D03*
X2736850Y155575D02*
G54D10*
D03*
X2762250Y155575D02*
G54D10*
D03*
X2787650Y155575D02*
G54D10*
D03*
X2813050Y155575D02*
G54D10*
D03*
X2838450Y155575D02*
G54D10*
D03*
X2863850Y155575D02*
G54D10*
D03*
X2889250Y155575D02*
G54D10*
D03*
X2914650Y155575D02*
G54D10*
D03*
X2940050Y155575D02*
G54D10*
D03*
X2965450Y155575D02*
G54D10*
D03*
X2990850Y155575D02*
G54D10*
D03*
X3016250Y155575D02*
G54D10*
D03*
X3041650Y155575D02*
G54D10*
D03*
X3041650Y307975D02*
G54D10*
D03*
X3016250Y307975D02*
G54D10*
D03*
X2990850Y307975D02*
G54D10*
D03*
X2965450Y307975D02*
G54D10*
D03*
X2940050Y307975D02*
G54D10*
D03*
X2914650Y307975D02*
G54D10*
D03*
X2889250Y307975D02*
G54D10*
D03*
X2863850Y307975D02*
G54D10*
D03*
X2838450Y307975D02*
G54D10*
D03*
X2813050Y307975D02*
G54D10*
D03*
X2787650Y307975D02*
G54D10*
D03*
X2762250Y307975D02*
G54D10*
D03*
X2736850Y307975D02*
G54D10*
D03*
X2711450Y307975D02*
G54D10*
D03*
X2686050Y307975D02*
G54D10*
D03*
X2660650Y307975D02*
G54D10*
D03*
X2635250Y307975D02*
G54D10*
D03*
X2609850Y307975D02*
G54D10*
D03*
X2584450Y307975D02*
G54D10*
D03*
X2559050Y307975D02*
G54D10*
D03*
G36*
X2564750Y454675D02*
X2578750Y454675D01*
X2578750Y440675D01*
X2564750Y440675D01*
X2564750Y454675D01*
G37*
X2597150Y447675D02*
G54D10*
D03*
X2622550Y447675D02*
G54D10*
D03*
X2647950Y447675D02*
G54D10*
D03*
X2673350Y447675D02*
G54D10*
D03*
X2698750Y447675D02*
G54D10*
D03*
X2724150Y447675D02*
G54D10*
D03*
X2724150Y523875D02*
G54D10*
D03*
X2698750Y523875D02*
G54D10*
D03*
X2673350Y523875D02*
G54D10*
D03*
X2647950Y523875D02*
G54D10*
D03*
X2622550Y523875D02*
G54D10*
D03*
X2597150Y523875D02*
G54D10*
D03*
X2571750Y523875D02*
G54D10*
D03*
G36*
X2564750Y621362D02*
X2578750Y621362D01*
X2578750Y607362D01*
X2564750Y607362D01*
X2564750Y621362D01*
G37*
X2597150Y614362D02*
G54D10*
D03*
X2622550Y614362D02*
G54D10*
D03*
X2647950Y614362D02*
G54D10*
D03*
X2673350Y614362D02*
G54D10*
D03*
X2698750Y614362D02*
G54D10*
D03*
X2724150Y614362D02*
G54D10*
D03*
X2724150Y690562D02*
G54D10*
D03*
X2698750Y690562D02*
G54D10*
D03*
X2673350Y690562D02*
G54D10*
D03*
X2647950Y690562D02*
G54D10*
D03*
X2622550Y690562D02*
G54D10*
D03*
X2597150Y690562D02*
G54D10*
D03*
X2571750Y690562D02*
G54D10*
D03*
G36*
X2564750Y800750D02*
X2578750Y800750D01*
X2578750Y786750D01*
X2564750Y786750D01*
X2564750Y800750D01*
G37*
X2597150Y793750D02*
G54D10*
D03*
X2622550Y793750D02*
G54D10*
D03*
X2647950Y793750D02*
G54D10*
D03*
X2673350Y793750D02*
G54D10*
D03*
X2698750Y793750D02*
G54D10*
D03*
X2724150Y793750D02*
G54D10*
D03*
X2724150Y869950D02*
G54D10*
D03*
X2698750Y869950D02*
G54D10*
D03*
X2673350Y869950D02*
G54D10*
D03*
X2647950Y869950D02*
G54D10*
D03*
X2622550Y869950D02*
G54D10*
D03*
X2597150Y869950D02*
G54D10*
D03*
X2571750Y869950D02*
G54D10*
D03*
G36*
X2552050Y978550D02*
X2566050Y978550D01*
X2566050Y964550D01*
X2552050Y964550D01*
X2552050Y978550D01*
G37*
X2584450Y971550D02*
G54D10*
D03*
X2609850Y971550D02*
G54D10*
D03*
X2635250Y971550D02*
G54D10*
D03*
X2660650Y971550D02*
G54D10*
D03*
X2686050Y971550D02*
G54D10*
D03*
X2711450Y971550D02*
G54D10*
D03*
X2736850Y971550D02*
G54D10*
D03*
X2762250Y971550D02*
G54D10*
D03*
X2787650Y971550D02*
G54D10*
D03*
X2813050Y971550D02*
G54D10*
D03*
X2838450Y971550D02*
G54D10*
D03*
X2863850Y971550D02*
G54D10*
D03*
X2889250Y971550D02*
G54D10*
D03*
X2914650Y971550D02*
G54D10*
D03*
X2940050Y971550D02*
G54D10*
D03*
X2965450Y971550D02*
G54D10*
D03*
X2990850Y971550D02*
G54D10*
D03*
X3016250Y971550D02*
G54D10*
D03*
X3041650Y971550D02*
G54D10*
D03*
X3041650Y1123950D02*
G54D10*
D03*
X3016250Y1123950D02*
G54D10*
D03*
X2990850Y1123950D02*
G54D10*
D03*
X2965450Y1123950D02*
G54D10*
D03*
X2940050Y1123950D02*
G54D10*
D03*
X2914650Y1123950D02*
G54D10*
D03*
X2889250Y1123950D02*
G54D10*
D03*
X2863850Y1123950D02*
G54D10*
D03*
X2838450Y1123950D02*
G54D10*
D03*
X2813050Y1123950D02*
G54D10*
D03*
X2787650Y1123950D02*
G54D10*
D03*
X2762250Y1123950D02*
G54D10*
D03*
X2736850Y1123950D02*
G54D10*
D03*
X2711450Y1123950D02*
G54D10*
D03*
X2686050Y1123950D02*
G54D10*
D03*
X2660650Y1123950D02*
G54D10*
D03*
X2635250Y1123950D02*
G54D10*
D03*
X2609850Y1123950D02*
G54D10*
D03*
X2584450Y1123950D02*
G54D10*
D03*
X2559050Y1123950D02*
G54D10*
D03*
G36*
X2856850Y799162D02*
X2870850Y799162D01*
X2870850Y785162D01*
X2856850Y785162D01*
X2856850Y799162D01*
G37*
X2889250Y792162D02*
G54D10*
D03*
X2914650Y792162D02*
G54D10*
D03*
X2940050Y792162D02*
G54D10*
D03*
X2965450Y792162D02*
G54D10*
D03*
X2990850Y792162D02*
G54D10*
D03*
X3016250Y792162D02*
G54D10*
D03*
X3016250Y868362D02*
G54D10*
D03*
X2990850Y868362D02*
G54D10*
D03*
X2965450Y868362D02*
G54D10*
D03*
X2940050Y868362D02*
G54D10*
D03*
X2914650Y868362D02*
G54D10*
D03*
X2889250Y868362D02*
G54D10*
D03*
X2863850Y868362D02*
G54D10*
D03*
G36*
X2856850Y454675D02*
X2870850Y454675D01*
X2870850Y440675D01*
X2856850Y440675D01*
X2856850Y454675D01*
G37*
X2889250Y447675D02*
G54D10*
D03*
X2914650Y447675D02*
G54D10*
D03*
X2940050Y447675D02*
G54D10*
D03*
X2965450Y447675D02*
G54D10*
D03*
X2990850Y447675D02*
G54D10*
D03*
X3016250Y447675D02*
G54D10*
D03*
X3016250Y523875D02*
G54D10*
D03*
X2990850Y523875D02*
G54D10*
D03*
X2965450Y523875D02*
G54D10*
D03*
X2940050Y523875D02*
G54D10*
D03*
X2914650Y523875D02*
G54D10*
D03*
X2889250Y523875D02*
G54D10*
D03*
X2863850Y523875D02*
G54D10*
D03*
G36*
X505762Y149875D02*
X519762Y149875D01*
X519762Y135875D01*
X505762Y135875D01*
X505762Y149875D01*
G37*
X538162Y142875D02*
G54D10*
D03*
X563562Y142875D02*
G54D10*
D03*
X588962Y142875D02*
G54D10*
D03*
X614362Y142875D02*
G54D10*
D03*
X639762Y142875D02*
G54D10*
D03*
X665162Y142875D02*
G54D10*
D03*
X690562Y142875D02*
G54D10*
D03*
X715962Y142875D02*
G54D10*
D03*
X741362Y142875D02*
G54D10*
D03*
X741362Y219075D02*
G54D10*
D03*
X715962Y219075D02*
G54D10*
D03*
X690562Y219075D02*
G54D10*
D03*
X665162Y219075D02*
G54D10*
D03*
X639762Y219075D02*
G54D10*
D03*
X614362Y219075D02*
G54D10*
D03*
X588962Y219075D02*
G54D10*
D03*
X563562Y219075D02*
G54D10*
D03*
X538162Y219075D02*
G54D10*
D03*
X512762Y219075D02*
G54D10*
D03*
G36*
X312088Y302275D02*
X326088Y302275D01*
X326088Y288275D01*
X312088Y288275D01*
X312088Y302275D01*
G37*
X344488Y295275D02*
G54D10*
D03*
X369888Y295275D02*
G54D10*
D03*
X395288Y295275D02*
G54D10*
D03*
X395288Y371475D02*
G54D10*
D03*
X369888Y371475D02*
G54D10*
D03*
X344488Y371475D02*
G54D10*
D03*
X319088Y371475D02*
G54D10*
D03*
G36*
X159688Y441975D02*
X173688Y441975D01*
X173688Y427975D01*
X159688Y427975D01*
X159688Y441975D01*
G37*
X192088Y434975D02*
G54D10*
D03*
X217488Y434975D02*
G54D10*
D03*
X242888Y434975D02*
G54D10*
D03*
X268288Y434975D02*
G54D10*
D03*
X293688Y434975D02*
G54D10*
D03*
X319088Y434975D02*
G54D10*
D03*
X344488Y434975D02*
G54D10*
D03*
X344488Y511175D02*
G54D10*
D03*
X319088Y511175D02*
G54D10*
D03*
X293688Y511175D02*
G54D10*
D03*
X268288Y511175D02*
G54D10*
D03*
X242888Y511175D02*
G54D10*
D03*
X217488Y511175D02*
G54D10*
D03*
X192088Y511175D02*
G54D10*
D03*
X166688Y511175D02*
G54D10*
D03*
G36*
X2182250Y1195950D02*
X2199250Y1195950D01*
X2199250Y1178950D01*
X2182250Y1178950D01*
X2182250Y1195950D01*
G37*
X2190750Y1212850D02*
G54D13*
D03*
X2216150Y1187450D02*
G54D13*
D03*
X2216150Y1212850D02*
G54D13*
D03*
X2241550Y1187450D02*
G54D13*
D03*
X2241550Y1212850D02*
G54D13*
D03*
X2266950Y1187450D02*
G54D13*
D03*
X2266950Y1212850D02*
G54D13*
D03*
X2292350Y1187450D02*
G54D13*
D03*
X2292350Y1212850D02*
G54D13*
D03*
X2317750Y1187450D02*
G54D13*
D03*
X2317750Y1212850D02*
G54D13*
D03*
X2343150Y1187450D02*
G54D13*
D03*
X2343150Y1212850D02*
G54D13*
D03*
X2368550Y1187450D02*
G54D13*
D03*
X2368550Y1212850D02*
G54D13*
D03*
X2393950Y1187450D02*
G54D13*
D03*
X2393950Y1212850D02*
G54D13*
D03*
X2419350Y1187450D02*
G54D13*
D03*
X2419350Y1212850D02*
G54D13*
D03*
X2444750Y1187450D02*
G54D13*
D03*
X2444750Y1212850D02*
G54D13*
D03*
X2470150Y1187450D02*
G54D13*
D03*
X2470150Y1212850D02*
G54D13*
D03*
X2495550Y1187450D02*
G54D13*
D03*
X2495550Y1212850D02*
G54D13*
D03*
G36*
X3121168Y1234246D02*
X3121168Y1217246D01*
X3104168Y1217246D01*
X3104168Y1234246D01*
X3121168Y1234246D01*
G37*
X3138068Y1225746D02*
G54D13*
D03*
X3112668Y1200346D02*
G54D13*
D03*
X3138069Y1200346D02*
G54D13*
D03*
X3112669Y1174946D02*
G54D13*
D03*
X3138069Y1174946D02*
G54D13*
D03*
X3112669Y1149546D02*
G54D13*
D03*
X3138069Y1149546D02*
G54D13*
D03*
X3112669Y1124146D02*
G54D13*
D03*
X3138069Y1124146D02*
G54D13*
D03*
X3112669Y1098746D02*
G54D13*
D03*
X3138069Y1098746D02*
G54D13*
D03*
X3112669Y1073346D02*
G54D13*
D03*
X3138069Y1073346D02*
G54D13*
D03*
X3112669Y1047946D02*
G54D13*
D03*
X3138069Y1047946D02*
G54D13*
D03*
X3112669Y1022546D02*
G54D13*
D03*
X3138069Y1022546D02*
G54D13*
D03*
X3112669Y997146D02*
G54D13*
D03*
X3138069Y997146D02*
G54D13*
D03*
X3112669Y971746D02*
G54D13*
D03*
X3138068Y971746D02*
G54D13*
D03*
X3112668Y946346D02*
G54D13*
D03*
X3138068Y946346D02*
G54D13*
D03*
X3112668Y920946D02*
G54D13*
D03*
X3138068Y920946D02*
G54D13*
D03*
X3112668Y895546D02*
G54D13*
D03*
X3138068Y895546D02*
G54D13*
D03*
X3112668Y870146D02*
G54D13*
D03*
X3138068Y870146D02*
G54D13*
D03*
X3112668Y844746D02*
G54D13*
D03*
X3138068Y844746D02*
G54D13*
D03*
X3112668Y819346D02*
G54D13*
D03*
X3138068Y819346D02*
G54D13*
D03*
X1377950Y1412875D02*
G54D11*
D03*
X1403350Y1412875D02*
G54D11*
D03*
X1428750Y1412875D02*
G54D11*
D03*
X1454150Y1412875D02*
G54D11*
D03*
X1530350Y1412875D02*
G54D11*
D03*
X1555750Y1412875D02*
G54D11*
D03*
X1581150Y1412875D02*
G54D11*
D03*
X1606550Y1412875D02*
G54D11*
D03*
X1631950Y1412875D02*
G54D11*
D03*
X1657350Y1412875D02*
G54D11*
D03*
X1682750Y1412875D02*
G54D11*
D03*
X1708150Y1412875D02*
G54D11*
D03*
X1733550Y1412875D02*
G54D11*
D03*
X1758950Y1412875D02*
G54D11*
D03*
X1784350Y1412875D02*
G54D11*
D03*
X1809750Y1412875D02*
G54D11*
D03*
X1835150Y1412875D02*
G54D11*
D03*
X1860550Y1412875D02*
G54D11*
D03*
X1885950Y1412875D02*
G54D11*
D03*
X1911350Y1412875D02*
G54D11*
D03*
X1936750Y1412875D02*
G54D11*
D03*
X1962150Y1412875D02*
G54D11*
D03*
X1987550Y1412875D02*
G54D11*
D03*
X2012950Y1412875D02*
G54D11*
D03*
X2038350Y1412875D02*
G54D11*
D03*
X2063750Y1412875D02*
G54D11*
D03*
X2089150Y1412875D02*
G54D11*
D03*
X3106738Y1412875D02*
G54D11*
D03*
X3132138Y1412875D02*
G54D11*
D03*
X3157538Y1412875D02*
G54D11*
D03*
X3182938Y1412875D02*
G54D11*
D03*
X3208338Y1412875D02*
G54D11*
D03*
X3233738Y1412875D02*
G54D11*
D03*
X3259138Y1412875D02*
G54D11*
D03*
X3284538Y1412875D02*
G54D11*
D03*
X3309938Y1412875D02*
G54D11*
D03*
X3335338Y1412875D02*
G54D11*
D03*
X3360738Y1412875D02*
G54D11*
D03*
X3386138Y1412875D02*
G54D11*
D03*
X3411538Y1412875D02*
G54D11*
D03*
X3487738Y1412875D02*
G54D11*
D03*
X3513138Y1412875D02*
G54D11*
D03*
X3681412Y1412875D02*
G54D11*
D03*
X3706812Y1412875D02*
G54D11*
D03*
X3732212Y1412875D02*
G54D11*
D03*
X3806825Y1412875D02*
G54D11*
D03*
X3833812Y1412875D02*
G54D11*
D03*
X3859212Y1412875D02*
G54D11*
D03*
X3884612Y1412875D02*
G54D11*
D03*
X3910012Y1412875D02*
G54D11*
D03*
X3935412Y1412875D02*
G54D11*
D03*
X3960812Y1412875D02*
G54D11*
D03*
X3986212Y1412875D02*
G54D11*
D03*
X4011612Y1412875D02*
G54D11*
D03*
X4037012Y1412875D02*
G54D11*
D03*
X4062412Y1412875D02*
G54D11*
D03*
X4087812Y1412875D02*
G54D11*
D03*
X1441450Y1009650D02*
G54D11*
D03*
X1835150Y1009650D02*
G54D11*
D03*
X1993900Y1009650D02*
G54D11*
D03*
X1828800Y658812D02*
G54D11*
D03*
X1700212Y652462D02*
G54D11*
D03*
G54D14*
X1441450Y1009650D02*
X1441450Y931862D01*
X1428750Y919162D01*
X1428750Y869950D01*
G54D14*
X1835150Y1009650D02*
X1835150Y836612D01*
X1824038Y825500D01*
X1824038Y793750D01*
X1824038Y735012D01*
X1828800Y730250D01*
X1828800Y658812D01*
G54D14*
X1700212Y652462D02*
X1700610Y381794D01*
X1731962Y381794D01*
G54D14*
X2001838Y1060450D02*
X2001838Y1017588D01*
X1993900Y1009650D01*
X2070100Y1073150D02*
G54D11*
D03*
X2247900Y1079500D02*
G54D11*
D03*
G54D14*
X2228850Y984250D02*
X2228850Y1022350D01*
X2241550Y1035050D01*
X2241550Y1073150D01*
X2247900Y1079500D01*
G54D14*
X2070100Y1073150D02*
X2084388Y1087438D01*
X2084388Y1143000D01*
X2070100Y1155700D01*
X2070100Y1200150D01*
X2084388Y1214438D01*
X2084388Y1408112D01*
X2089150Y1412875D01*
X1951038Y1003300D02*
G54D11*
D03*
X2254250Y1022350D02*
G54D11*
D03*
X2266950Y506412D02*
G54D11*
D03*
X1911350Y519112D02*
G54D11*
D03*
X1314450Y1354138D02*
G54D11*
D03*
G54D14*
X1327150Y717550D02*
X1333500Y723900D01*
X1333500Y811212D01*
X1339850Y817562D01*
X1339850Y920750D01*
X1327150Y933450D01*
X1327150Y984250D01*
X1327150Y1035050D01*
X1314450Y1047750D01*
X1314450Y1354138D01*
X1403350Y1354138D02*
G54D11*
D03*
G54D14*
X1403350Y1412875D02*
X1403350Y1354138D01*
G54D14*
X2254250Y1022350D02*
X2254250Y984250D01*
X2254250Y946150D01*
X2266950Y933450D01*
X2266950Y758825D01*
X2273300Y752475D01*
X2273300Y728662D01*
X2266950Y722312D01*
X2266950Y506412D01*
G54D14*
X1849438Y793750D02*
X1849438Y581025D01*
X1911350Y519112D01*
G54D14*
X1951038Y1003300D02*
X1951038Y1060450D01*
X1339850Y1333500D02*
G54D11*
D03*
X1416050Y1333500D02*
G54D11*
D03*
X1346200Y792162D02*
G54D11*
D03*
X1874838Y677862D02*
G54D11*
D03*
X1733550Y665162D02*
G54D11*
D03*
G54D14*
X1352550Y984250D02*
X1352550Y1035050D01*
X1339850Y1047750D01*
X1339850Y1333500D01*
G54D14*
X1416050Y1333500D02*
X1416050Y1435100D01*
G54D14*
X1352550Y984250D02*
X1352550Y869950D01*
X1352550Y798512D01*
X1346200Y792162D01*
G54D14*
X1874838Y793750D02*
X1874838Y825500D01*
X1885950Y836612D01*
X1885950Y1027112D01*
X1900238Y1041400D01*
X1900238Y1060450D01*
G54D14*
X1874838Y793750D02*
X1874838Y677862D01*
G54D14*
X1733550Y665162D02*
X1733550Y485775D01*
X1727200Y479425D01*
X1727200Y411162D01*
X1731962Y411162D01*
X1365250Y804862D02*
G54D11*
D03*
G54D14*
X1377950Y984250D02*
X1377950Y1035050D01*
X1365250Y1047750D01*
X1365250Y1400175D01*
X1377950Y1412875D01*
G54D14*
X1377950Y984250D02*
X1377950Y933450D01*
X1365250Y920750D01*
X1365250Y804862D01*
G54D14*
X1365250Y804862D02*
X1365250Y785812D01*
X1339850Y760412D01*
X1339850Y354012D01*
X1365250Y328612D01*
X1365250Y168275D01*
X1352550Y155575D01*
X1352550Y142875D01*
G54D14*
X1900238Y793750D02*
X1900238Y549275D01*
X1924050Y525462D01*
X1924050Y455612D01*
X1919288Y450850D01*
X1379538Y823912D02*
G54D11*
D03*
X1409700Y811212D02*
G54D11*
D03*
X1384300Y168275D02*
G54D11*
D03*
G54D14*
X1403350Y984250D02*
X1403350Y1035050D01*
X1390650Y1047750D01*
X1390650Y1435100D01*
G54D14*
X1403350Y984250D02*
X1403350Y931862D01*
X1390650Y919162D01*
X1390650Y835025D01*
X1379538Y823912D01*
G54D14*
X1409700Y811212D02*
X1409700Y766762D01*
X1390650Y747712D01*
X1390650Y174625D01*
X1384300Y168275D01*
G54D14*
X1925638Y793750D02*
X1925638Y765175D01*
X1936750Y754062D01*
X1936750Y557212D01*
X1974850Y519112D01*
X1974850Y391716D01*
X1957388Y391716D01*
X1301750Y1098550D02*
G54D11*
D03*
X1466850Y1098550D02*
G54D11*
D03*
X1822450Y1098550D02*
G54D11*
D03*
X1993900Y1085850D02*
G54D11*
D03*
X2051050Y1092200D02*
G54D11*
D03*
G54D14*
X1301750Y1136650D02*
X1301750Y1098550D01*
G54D14*
X1466850Y1098550D02*
X1466850Y958850D01*
X1479550Y946150D01*
X1479550Y911225D01*
X1474788Y906462D01*
X1474788Y892175D01*
X1479550Y887412D01*
X1479550Y869950D01*
G54D14*
X1822450Y1098550D02*
X1822450Y1027112D01*
X1811338Y1016000D01*
X1811338Y838200D01*
X1798638Y825500D01*
X1798638Y793750D01*
G54D14*
X1798638Y793750D02*
X1798638Y512762D01*
X1792288Y506412D01*
X1792288Y506412D02*
G54D11*
D03*
X1720850Y506412D02*
G54D11*
D03*
G54D14*
X1720850Y506412D02*
X1720850Y503238D01*
X1716088Y498475D01*
X1716088Y401241D01*
X1731962Y401241D01*
G54D14*
X1993900Y1085850D02*
X1993900Y1082675D01*
X1987550Y1076325D01*
X1987550Y1044575D01*
X1976438Y1033462D01*
X1976438Y984250D01*
G54D14*
X2051050Y1092200D02*
X2051050Y1435100D01*
X1339850Y1022350D02*
G54D11*
D03*
X1416050Y1022350D02*
G54D11*
D03*
X1771650Y1022350D02*
G54D11*
D03*
X1925638Y1022350D02*
G54D11*
D03*
X2046288Y1016000D02*
G54D11*
D03*
G54D14*
X2063750Y1412875D02*
X2078038Y1398588D01*
X2078038Y1219200D01*
X2063750Y1204912D01*
X2063750Y1150938D01*
X2078038Y1138238D01*
X2078038Y1106488D01*
X2065338Y1093788D01*
X2065338Y1087438D01*
X2046288Y1068388D01*
X2046288Y1016000D01*
X2071688Y958850D02*
G54D11*
D03*
G54D14*
X2046288Y1016000D02*
X2046288Y985838D01*
X2071688Y958850D01*
X2400300Y958850D02*
G54D11*
D03*
G54D14*
X2400300Y958850D02*
X2406650Y952500D01*
X2406650Y869950D01*
G54D14*
X1925638Y1022350D02*
X1925638Y984250D01*
X1771650Y946150D02*
G54D11*
D03*
G54D14*
X1771650Y1022350D02*
X1771650Y946150D01*
X1682750Y946150D02*
G54D11*
D03*
G54D14*
X1682750Y946150D02*
X1682750Y798512D01*
X1689100Y792162D01*
X1689100Y703262D01*
X1676400Y690562D01*
X1676400Y544512D01*
X1663700Y531812D01*
X1663700Y500062D01*
X1663700Y500062D02*
G54D11*
D03*
X1689100Y500062D02*
G54D11*
D03*
G54D14*
X1689100Y500062D02*
X1689100Y371872D01*
X1731962Y371872D01*
G54D14*
X1416050Y1022350D02*
X1416050Y931862D01*
X1403350Y919162D01*
X1403350Y869950D01*
G54D14*
X1339850Y1022350D02*
X1339850Y1035050D01*
X1327150Y1047750D01*
X1327150Y1136650D01*
X1352550Y1085850D02*
G54D11*
D03*
X1377950Y1085850D02*
G54D11*
D03*
X1885950Y1085850D02*
G54D11*
D03*
X1874838Y939800D02*
G54D11*
D03*
X1898650Y1250950D02*
G54D11*
D03*
X2025650Y1276350D02*
G54D11*
D03*
G54D14*
X2025650Y1435100D02*
X2025650Y1276350D01*
G54D14*
X1898650Y1250950D02*
X1892300Y1244600D01*
X1892300Y1092200D01*
X1885950Y1085850D01*
G54D14*
X1885950Y1085850D02*
X1885950Y1039812D01*
X1874838Y1028700D01*
X1874838Y984250D01*
X1874838Y939800D01*
X2368550Y952500D02*
G54D11*
D03*
X2419350Y952500D02*
G54D11*
D03*
X1708150Y925512D02*
G54D11*
D03*
G54D14*
X1731962Y391716D02*
X1708150Y391716D01*
X1708150Y542925D01*
X1714500Y549275D01*
X1714500Y817562D01*
X1708150Y823912D01*
X1708150Y925512D01*
G54D14*
X2419350Y952500D02*
X2419350Y1047750D01*
X2406650Y1060450D01*
G54D14*
X2368550Y952500D02*
X2368550Y931862D01*
X2374900Y925512D01*
X2374900Y912812D01*
X2368550Y906462D01*
X2368550Y806450D01*
X2381250Y793750D01*
G54D14*
X1377950Y1085850D02*
X1377950Y1047750D01*
X1390650Y1035050D01*
X1390650Y933450D01*
X1377950Y920750D01*
X1377950Y869950D01*
G54D14*
X1352550Y1085850D02*
X1352550Y1136650D01*
G54D14*
X1909366Y450056D02*
X1909366Y453628D01*
X1911747Y456009D01*
X1911747Y518716D01*
X1911350Y519112D01*
X1377950Y1263652D02*
G54D11*
D03*
X1911350Y1263650D02*
G54D11*
D03*
X1854200Y925512D02*
G54D11*
D03*
X1866900Y658812D02*
G54D11*
D03*
X1911350Y690562D02*
G54D11*
D03*
X1377950Y671512D02*
G54D11*
D03*
X1951038Y519112D02*
G54D11*
D03*
X2508250Y430212D02*
G54D11*
D03*
X2508250Y271462D02*
G54D11*
D03*
X2736850Y284162D02*
G54D11*
D03*
G54D14*
X2736850Y155575D02*
X2736850Y284162D01*
G54D14*
X2508250Y271462D02*
X2508250Y290512D01*
X2497138Y301625D01*
X2497138Y360362D01*
X2508250Y371475D01*
X2508250Y430212D01*
G54D14*
X1957388Y401241D02*
X1968103Y401241D01*
X1968500Y401638D01*
X1968500Y461962D01*
X1951038Y479425D01*
X1951038Y519112D01*
G54D14*
X1377950Y1136650D02*
X1377950Y1263652D01*
G54D14*
X1911350Y1263650D02*
X1911350Y1412875D01*
G54D14*
X1911350Y1263650D02*
X1892300Y1263650D01*
X1879600Y1250950D01*
X1879600Y1225550D01*
X1860550Y1206500D01*
X1860550Y931862D01*
X1854200Y925512D01*
X1416050Y914400D02*
G54D11*
D03*
G54D14*
X1416050Y914400D02*
X1416050Y855662D01*
X1403350Y842962D01*
X1403350Y830262D01*
X1384300Y811212D01*
X1384300Y785812D01*
X1352550Y754062D01*
X1352550Y717550D01*
G54D14*
X1854200Y925512D02*
X1860550Y919162D01*
X1860550Y665162D01*
X1866900Y658812D01*
X1949450Y658812D02*
G54D11*
D03*
G54D14*
X1949450Y658812D02*
X1949450Y557212D01*
X1981200Y525462D01*
X1981200Y381794D01*
X1957388Y381794D01*
G54D14*
X1951038Y519112D02*
X1924050Y546100D01*
X1924050Y677862D01*
X1911350Y690562D01*
G54D14*
X1377950Y671512D02*
X1377950Y717550D01*
G54D14*
X1911350Y690562D02*
X1911350Y914400D01*
X1905000Y920750D01*
X1905000Y920750D02*
G54D11*
D03*
X2317750Y933450D02*
G54D11*
D03*
G54D14*
X2317750Y933450D02*
X2305050Y920750D01*
X2305050Y895350D01*
X2317750Y882650D01*
X2317750Y842962D01*
X2330450Y830262D01*
X2330450Y793750D01*
G54D14*
X2355850Y793750D02*
X2355850Y842962D01*
X2343150Y855662D01*
X2343150Y881062D01*
X2355850Y893762D01*
X2355850Y906462D01*
X2343150Y919162D01*
X2343150Y944562D01*
X2343150Y944562D02*
G54D11*
D03*
G54D14*
X1905000Y920750D02*
X1911350Y927100D01*
X1911350Y1096962D01*
X1898650Y1109662D01*
X1898650Y1231900D01*
X1924050Y1257300D01*
X1924050Y1289050D01*
X1924050Y1289050D02*
G54D11*
D03*
G54D14*
X1924050Y1289050D02*
X1924050Y1400175D01*
X1936750Y1412875D01*
X1403350Y1289050D02*
G54D11*
D03*
G54D14*
X1403350Y1289050D02*
X1403350Y1136650D01*
X1428750Y1277938D02*
G54D11*
D03*
X1695450Y1277938D02*
G54D11*
D03*
X1962150Y1277938D02*
G54D11*
D03*
X1701800Y760412D02*
G54D11*
D03*
X1701800Y684212D02*
G54D11*
D03*
X1411288Y677862D02*
G54D11*
D03*
X2305050Y760412D02*
G54D11*
D03*
G54D14*
X1428750Y1136650D02*
X1428750Y1277938D01*
G54D14*
X1695450Y1277938D02*
X1695450Y817562D01*
X1701800Y811212D01*
X1701800Y760412D01*
G54D14*
X2305050Y760412D02*
X2305050Y793750D01*
X2292350Y500062D02*
G54D11*
D03*
X1835150Y512762D02*
G54D11*
D03*
G54D14*
X1840309Y450056D02*
X1840309Y490141D01*
X1835150Y495300D01*
X1835150Y512762D01*
G54D14*
X1701800Y760412D02*
X1701800Y684212D01*
X1689100Y671512D01*
X1689100Y522288D01*
X1676400Y509588D01*
X1676400Y485775D01*
X1682750Y479425D01*
X1682750Y362347D01*
X1731962Y362347D01*
G54D14*
X1403350Y717550D02*
X1403350Y685800D01*
X1411288Y677862D01*
G54D14*
X1962150Y1277938D02*
X1962150Y1412875D01*
X1295400Y1155700D02*
G54D11*
D03*
X1314450Y900112D02*
G54D11*
D03*
X1441450Y906462D02*
G54D11*
D03*
X1428750Y823912D02*
G54D11*
D03*
X1963738Y811212D02*
G54D11*
D03*
X2279650Y827088D02*
G54D11*
D03*
X2305050Y354012D02*
G54D11*
D03*
X2508250Y341312D02*
G54D11*
D03*
X2520950Y187325D02*
G54D11*
D03*
X2773362Y201612D02*
G54D11*
D03*
G54D14*
X2762250Y155575D02*
X2762250Y190500D01*
X2773362Y201612D01*
G54D14*
X2520950Y187325D02*
X2520950Y293688D01*
X2514600Y300038D01*
X2514600Y334962D01*
X2508250Y341312D01*
G54D14*
X2305050Y354012D02*
X2305050Y473075D01*
X2317750Y485775D01*
X2317750Y747712D01*
X2305050Y760412D01*
G54D14*
X2292350Y500062D02*
X2292350Y703262D01*
X2305050Y715962D01*
X2305050Y742950D01*
X2279650Y768350D01*
X2279650Y793750D01*
X2279650Y827088D01*
G54D14*
X1428750Y717550D02*
X1428750Y823912D01*
X1441450Y836612D01*
X1441450Y906462D01*
G54D14*
X1314450Y900112D02*
X1314450Y1033462D01*
X1308100Y1039812D01*
X1308100Y1073150D01*
X1289050Y1092200D01*
X1289050Y1149350D01*
X1295400Y1155700D01*
G54D14*
X1987550Y1412875D02*
X1987550Y1270000D01*
X1976438Y1258888D01*
X1976438Y1106488D01*
X1963738Y1093788D01*
X1963738Y938212D01*
X1951038Y925512D01*
X1951038Y900112D01*
X1963738Y887412D01*
X1963738Y811212D01*
X1479550Y1022350D02*
G54D11*
D03*
X1479550Y1301750D02*
G54D11*
D03*
X1682750Y1314450D02*
G54D11*
D03*
G54D14*
X1682750Y1412875D02*
X1682750Y1314450D01*
G54D14*
X1479550Y1301750D02*
X1479550Y1136650D01*
G54D14*
X1479550Y1136650D02*
X1479550Y1022350D01*
X1670050Y1022350D02*
G54D11*
D03*
X1676400Y766762D02*
G54D11*
D03*
G54D14*
X1670050Y1022350D02*
X1670050Y773112D01*
X1676400Y766762D01*
X1727200Y766762D02*
G54D11*
D03*
X1727200Y690562D02*
G54D11*
D03*
G54D14*
X1727200Y766762D02*
X1727200Y690562D01*
X1809750Y690562D02*
G54D11*
D03*
G54D14*
X1820069Y450056D02*
X1820069Y462756D01*
X1817688Y465138D01*
X1817688Y487362D01*
X1824038Y493712D01*
X1824038Y527050D01*
X1809750Y541338D01*
X1809750Y690562D01*
X1441450Y677862D02*
G54D11*
D03*
G54D14*
X1454150Y717550D02*
X1454150Y690562D01*
X1441450Y677862D01*
X1504950Y1060450D02*
G54D11*
D03*
X1530350Y1060450D02*
G54D11*
D03*
X1581150Y1060450D02*
G54D11*
D03*
X1601788Y1060450D02*
G54D11*
D03*
X1352550Y1060450D02*
G54D11*
D03*
X1746250Y1060450D02*
G54D11*
D03*
X1504950Y1328738D02*
G54D11*
D03*
X1657350Y1328738D02*
G54D11*
D03*
X1720850Y1327150D02*
G54D11*
D03*
X1365250Y939800D02*
G54D11*
D03*
X1466850Y939800D02*
G54D11*
D03*
X1498600Y627062D02*
G54D11*
D03*
X1778000Y627062D02*
G54D11*
D03*
X2222500Y588962D02*
G54D11*
D03*
X2222500Y717550D02*
G54D11*
D03*
X2216150Y835025D02*
G54D11*
D03*
X2470150Y831850D02*
G54D11*
D03*
X2489200Y1016000D02*
G54D11*
D03*
X2635250Y1016000D02*
G54D11*
D03*
G54D14*
X2635250Y1016000D02*
X2635250Y971550D01*
G54D14*
X2489200Y1016000D02*
X2489200Y925512D01*
X2470150Y906462D01*
X2470150Y831850D01*
G54D14*
X2216150Y835025D02*
X2216150Y830262D01*
X2228850Y817562D01*
X2228850Y793750D01*
G54D14*
X2228850Y793750D02*
X2228850Y754062D01*
X2235200Y747712D01*
X2235200Y708025D01*
X2230438Y703262D01*
X2222500Y703262D01*
X2216150Y696912D01*
X2216150Y595312D01*
X2222500Y588962D01*
G54D14*
X1498600Y627062D02*
X1498600Y666750D01*
X1479550Y685800D01*
X1479550Y717550D01*
X1479550Y812800D01*
X1466850Y825500D01*
X1466850Y939800D01*
G54D14*
X1365250Y939800D02*
X1365250Y1035050D01*
X1352550Y1047750D01*
X1352550Y1060450D01*
G54D14*
X1504950Y1060450D02*
X1504950Y1136650D01*
G54D14*
X1780381Y450056D02*
X1780381Y456406D01*
X1773238Y463550D01*
X1773238Y501650D01*
X1778000Y506412D01*
X1778000Y627062D01*
G54D14*
X1657350Y1412875D02*
X1657350Y1328738D01*
G54D14*
X1504950Y1136650D02*
X1504950Y1328738D01*
X1530350Y1250950D02*
G54D11*
D03*
X1631950Y1250950D02*
G54D11*
D03*
G54D14*
X1631950Y1412875D02*
X1631950Y1250950D01*
G54D14*
X1530350Y1250950D02*
X1530350Y1136650D01*
X1530350Y1098550D02*
G54D11*
D03*
X1708150Y1117600D02*
G54D11*
D03*
X1708150Y1098550D02*
G54D11*
D03*
X1720850Y844550D02*
G54D11*
D03*
X1512888Y831850D02*
G54D11*
D03*
X1543050Y531812D02*
G54D11*
D03*
X1765300Y538162D02*
G54D11*
D03*
X1765300Y557212D02*
G54D11*
D03*
X2209800Y538162D02*
G54D11*
D03*
G54D14*
X2209800Y538162D02*
X2209800Y787400D01*
X2203450Y793750D01*
G54D14*
X1770459Y450056D02*
X1770459Y452041D01*
X1765300Y457200D01*
X1765300Y538162D01*
G54D14*
X1543050Y531812D02*
X1543050Y652462D01*
X1504950Y690562D01*
X1504950Y717550D01*
X1504950Y823912D01*
X1512888Y831850D01*
G54D14*
X1720850Y844550D02*
X1720850Y1104900D01*
X1708150Y1117600D01*
G54D14*
X1530350Y1136650D02*
X1530350Y1098550D01*
X1555750Y1206500D02*
G54D11*
D03*
X1606550Y1206500D02*
G54D11*
D03*
G54D14*
X1606550Y1412875D02*
X1606550Y1206500D01*
G54D14*
X1555750Y1136650D02*
X1555750Y1206500D01*
X2159000Y1206500D02*
G54D11*
D03*
G54D14*
X2159000Y1206500D02*
X2159000Y1128712D01*
X2165350Y1122362D01*
X2165350Y1084262D01*
X2159000Y1077912D01*
X2159000Y1046162D01*
X2165350Y1039812D01*
X2165350Y806450D01*
X2178050Y793750D01*
X1555750Y519112D02*
G54D11*
D03*
X1854200Y531812D02*
G54D11*
D03*
X2184400Y531812D02*
G54D11*
D03*
G54D14*
X2178050Y793750D02*
X2178050Y754062D01*
X2197100Y735012D01*
X2197100Y561975D01*
X2184400Y549275D01*
X2184400Y531812D01*
G54D14*
X1530350Y717550D02*
X1530350Y695325D01*
X1555750Y669925D01*
X1555750Y519112D01*
G54D14*
X1860153Y450056D02*
X1860153Y525860D01*
X1854200Y531812D01*
X1416050Y1181100D02*
G54D11*
D03*
X1581150Y1181100D02*
G54D11*
D03*
G54D14*
X1581150Y1412875D02*
X1581150Y1181100D01*
G54D14*
X1428750Y984250D02*
X1428750Y1035050D01*
X1416050Y1047750D01*
X1416050Y1181100D01*
X2082800Y1162050D02*
G54D11*
D03*
G54D14*
X1957388Y322659D02*
X2006203Y322659D01*
X2006600Y322262D01*
X2006600Y377825D01*
X1993900Y390525D01*
X1993900Y536575D01*
X1974850Y555625D01*
X1974850Y720725D01*
X2046288Y792162D01*
X2046288Y882650D01*
X2090738Y927100D01*
X2090738Y1154112D01*
X2082800Y1162050D01*
X1631950Y946150D02*
G54D11*
D03*
X1530350Y933450D02*
G54D11*
D03*
G54D14*
X1517650Y1435100D02*
X1517650Y946150D01*
X1530350Y933450D01*
X1543050Y920750D01*
X1543050Y730250D01*
X1555750Y717550D01*
G54D14*
X1631950Y984250D02*
X1631950Y946150D01*
X1568450Y588962D02*
G54D11*
D03*
X1568450Y506412D02*
G54D11*
D03*
G54D14*
X1568450Y506412D02*
X1568450Y588962D01*
X1568450Y704850D01*
X1555750Y717550D01*
X1289050Y569912D02*
G54D11*
D03*
G36*
X1293750Y654112D02*
X1309750Y654112D01*
X1309750Y638112D01*
X1293750Y638112D01*
X1293750Y654112D01*
G37*
X1327150Y646112D02*
G54D15*
D03*
X1352550Y646112D02*
G54D15*
D03*
X1377950Y646112D02*
G54D15*
D03*
X1403350Y646112D02*
G54D15*
D03*
X1428750Y646112D02*
G54D15*
D03*
X1454150Y646112D02*
G54D15*
D03*
X1479550Y646112D02*
G54D15*
D03*
G36*
X1293750Y596962D02*
X1309750Y596962D01*
X1309750Y580962D01*
X1293750Y580962D01*
X1293750Y596962D01*
G37*
X1327150Y588962D02*
G54D15*
D03*
X1352550Y588962D02*
G54D15*
D03*
X1377950Y588962D02*
G54D15*
D03*
X1403350Y588962D02*
G54D15*
D03*
X1428750Y588962D02*
G54D15*
D03*
X1454150Y588962D02*
G54D15*
D03*
X1479550Y588962D02*
G54D15*
D03*
G54D14*
X1301750Y646112D02*
X1289050Y633412D01*
X1289050Y569912D01*
X2760662Y582612D02*
G54D11*
D03*
G54D14*
X2760662Y582612D02*
X2774950Y568325D01*
X2774950Y371475D01*
X2711450Y307975D01*
G54D14*
X2760662Y582612D02*
X2760662Y596900D01*
X2774950Y611188D01*
X2774950Y728662D01*
X2743200Y760412D01*
X2743200Y901700D01*
X2711450Y933450D01*
X2711450Y971550D01*
X1690688Y307975D02*
G54D11*
D03*
X1403350Y320675D02*
G54D11*
D03*
X1416050Y506412D02*
G54D11*
D03*
X1314450Y506412D02*
G54D11*
D03*
G54D14*
X1327150Y646112D02*
X1327150Y620712D01*
X1314450Y609600D01*
X1314450Y506412D01*
G54D14*
X1416050Y506412D02*
X1416050Y352425D01*
X1403350Y339725D01*
X1403350Y320675D01*
G54D14*
X1731962Y312341D02*
X1695053Y312341D01*
X1690688Y307975D01*
G54D14*
X1690688Y307975D02*
X1677988Y295275D01*
X1677988Y174625D01*
X1677988Y174625D02*
G54D11*
D03*
X1677988Y155575D02*
G54D11*
D03*
X1677988Y136525D02*
G54D11*
D03*
X1657350Y933450D02*
G54D11*
D03*
X1568450Y919162D02*
G54D11*
D03*
G54D14*
X1543050Y1435100D02*
X1543050Y952500D01*
X1568450Y927100D01*
X1568450Y919162D01*
G54D14*
X1568450Y919162D02*
X1568450Y844550D01*
X1581150Y831850D01*
X1581150Y717550D01*
X1593850Y601662D02*
G54D11*
D03*
G54D14*
X1581150Y717550D02*
X1581150Y614362D01*
X1593850Y601662D01*
X2781300Y595312D02*
G54D11*
D03*
G54D14*
X2781300Y595312D02*
X2781300Y893762D01*
X2736850Y938212D01*
X2736850Y971550D01*
G54D14*
X2781300Y595312D02*
X2781300Y352425D01*
X2736850Y307975D01*
X1377950Y307975D02*
G54D11*
D03*
X1701800Y290512D02*
G54D11*
D03*
G54D14*
X1677988Y155575D02*
X1684338Y155575D01*
X1690688Y161925D01*
X1690688Y279400D01*
X1701800Y290512D01*
G54D14*
X1731962Y302419D02*
X1713706Y302419D01*
X1701800Y290512D01*
G54D14*
X1377950Y307975D02*
X1377950Y339725D01*
X1365250Y352425D01*
X1365250Y608012D01*
X1377950Y620712D01*
X1377950Y646112D01*
G54D14*
X1657350Y984250D02*
X1657350Y933450D01*
X1631950Y1073150D02*
G54D11*
D03*
X1568450Y1073150D02*
G54D11*
D03*
G54D14*
X1568450Y1435100D02*
X1568450Y1073150D01*
G54D14*
X1631950Y1073150D02*
X1631950Y1060450D01*
X1581150Y1009650D01*
X1581150Y984250D01*
G54D14*
X1581150Y984250D02*
X1581150Y952500D01*
X1593850Y939800D01*
X1593850Y842962D01*
X1606550Y830262D01*
X1606550Y717550D01*
X1606550Y620712D01*
X1612900Y614362D01*
X1612900Y614362D02*
G54D11*
D03*
X2794000Y614362D02*
G54D11*
D03*
G54D14*
X2794000Y614362D02*
X2794000Y339725D01*
X2762250Y307975D01*
G54D14*
X2794000Y614362D02*
X2794000Y615950D01*
X2787650Y622300D01*
X2787650Y904875D01*
X2762250Y930275D01*
X2762250Y971550D01*
X1485900Y900112D02*
G54D11*
D03*
X1606550Y887412D02*
G54D11*
D03*
G54D14*
X1644650Y1435100D02*
X1644650Y1060450D01*
X1619250Y1035050D01*
X1619250Y900112D01*
X1606550Y887412D01*
G54D14*
X1485900Y900112D02*
X1485900Y977900D01*
X1479550Y984250D01*
X1663700Y717550D02*
G54D11*
D03*
G54D14*
X1631950Y869950D02*
X1644650Y857250D01*
X1644650Y811212D01*
X1663700Y792162D01*
X1663700Y717550D01*
X1663700Y652462D01*
X1663700Y652462D02*
G54D11*
D03*
X2800350Y692150D02*
G54D11*
D03*
G54D14*
X2800350Y692150D02*
X2794000Y698500D01*
X2794000Y927100D01*
X2787650Y933450D01*
X2787650Y971550D01*
G54D14*
X2800350Y692150D02*
X2806700Y685800D01*
X2806700Y587375D01*
X2800350Y581025D01*
X2800350Y320675D01*
X2787650Y307975D01*
X1498600Y231775D02*
G54D11*
D03*
G54D14*
X1479550Y646112D02*
X1479550Y620712D01*
X1498600Y601662D01*
X1498600Y231775D01*
X1714500Y231775D02*
G54D11*
D03*
G54D14*
X1731963Y272256D02*
X1729581Y272256D01*
X1714500Y257175D01*
X1714500Y231775D01*
X1714500Y180975D01*
X1720850Y174625D01*
X1720850Y174625D02*
G54D11*
D03*
X1454150Y895350D02*
G54D11*
D03*
G54D14*
X1454150Y984250D02*
X1454150Y895350D01*
G54D14*
X1606550Y869950D02*
X1608138Y869950D01*
X1644650Y906462D01*
X1644650Y1035050D01*
X1670050Y1060450D01*
X1670050Y1435100D01*
X1619250Y747712D02*
G54D11*
D03*
G54D14*
X1606550Y869950D02*
X1606550Y844550D01*
X1619250Y831850D01*
X1619250Y747712D01*
X1320800Y747712D02*
G54D11*
D03*
G54D14*
X1320800Y747712D02*
X1320800Y746125D01*
X1314450Y739775D01*
X1314450Y628650D01*
X1301750Y615950D01*
X1301750Y588962D01*
X2805112Y736600D02*
G54D11*
D03*
G54D14*
X2805112Y736600D02*
X2805112Y739775D01*
X2800350Y744538D01*
X2800350Y785812D01*
X2806700Y792162D01*
X2806700Y927100D01*
X2813050Y933450D01*
X2813050Y971550D01*
G54D14*
X2805112Y736600D02*
X2813050Y728662D01*
X2813050Y307975D01*
X2000250Y550862D02*
G54D11*
D03*
G54D14*
X2000250Y550862D02*
X2000250Y423862D01*
X2006600Y417512D01*
X2006600Y390525D01*
X2019300Y377825D01*
X2019300Y333375D01*
X2019300Y333375D02*
G54D11*
D03*
X2101850Y307975D02*
G54D11*
D03*
G54D14*
X2101850Y307975D02*
X2095500Y301625D01*
X2095500Y193675D01*
X2089150Y187325D01*
X2063750Y187325D01*
X2063750Y187325D02*
G54D11*
D03*
X1819275Y203200D02*
G54D11*
D03*
G54D14*
X1820068Y224631D02*
X1820068Y203993D01*
X1819275Y203200D01*
X1504950Y946150D02*
G54D11*
D03*
X1568450Y946150D02*
G54D11*
D03*
G54D14*
X1504950Y984250D02*
X1504950Y946150D01*
G54D14*
X1568450Y946150D02*
X1568450Y1008062D01*
X1619250Y1058862D01*
X1619250Y1435100D01*
G54D14*
X1568450Y946150D02*
X1581150Y933450D01*
X1581150Y869950D01*
X1581150Y842962D01*
X1593850Y830262D01*
X1593850Y754062D01*
X1593850Y754062D02*
G54D11*
D03*
X1365250Y747712D02*
G54D11*
D03*
G54D14*
X1365250Y747712D02*
X1365250Y625475D01*
X1352550Y612775D01*
X1352550Y588962D01*
X2813050Y766762D02*
G54D11*
D03*
G54D14*
X2813050Y766762D02*
X2813050Y893762D01*
X2838450Y919162D01*
X2838450Y971550D01*
G54D14*
X2813050Y766762D02*
X2819400Y760412D01*
X2819400Y334962D01*
X2838450Y315912D01*
X2838450Y307975D01*
X1188048Y678311D02*
G54D16*
D03*
X1188048Y576711D02*
G54D16*
D03*
X1213448Y678311D02*
G54D16*
D03*
X1213448Y576711D02*
G54D16*
D03*
X1238848Y678311D02*
G54D16*
D03*
X1238848Y576711D02*
G54D16*
D03*
X1989138Y569912D02*
G54D11*
D03*
G54D14*
X1989138Y569912D02*
X2000250Y569912D01*
X2012950Y557212D01*
X2012950Y442912D01*
X2012950Y442912D02*
G54D11*
D03*
X2127250Y442912D02*
G54D11*
D03*
G54D14*
X2127250Y442912D02*
X2127250Y333375D01*
X2127250Y333375D02*
G54D11*
D03*
X2095500Y333375D02*
G54D11*
D03*
G54D14*
X2095500Y333375D02*
X2089150Y327025D01*
X2089150Y206375D01*
X2082800Y200025D01*
X2082800Y200025D02*
G54D11*
D03*
X1847850Y193675D02*
G54D11*
D03*
G54D14*
X1840309Y224631D02*
X1840309Y201216D01*
X1847850Y193675D01*
X2278062Y354012D02*
G54D11*
D03*
G54D14*
X2278062Y354012D02*
X2278062Y331788D01*
X2266950Y320675D01*
X2266950Y303212D01*
X1701800Y174625D02*
G54D11*
D03*
X1701800Y250825D02*
G54D11*
D03*
G54D14*
X1731962Y282575D02*
X1722438Y282575D01*
X1701800Y261938D01*
X1701800Y250825D01*
G54D14*
X1701800Y250825D02*
X1701800Y174625D01*
X1454150Y263525D02*
G54D11*
D03*
G54D14*
X1454150Y263525D02*
X1454150Y320675D01*
X1441450Y333375D01*
X1441450Y633412D01*
X1428750Y646112D01*
G54D14*
X1530350Y984250D02*
X1530350Y1060450D01*
G54D14*
X1581150Y1060450D02*
X1593850Y1073150D01*
X1593850Y1435100D01*
G54D14*
X1530350Y984250D02*
X1530350Y950912D01*
X1555750Y925512D01*
X1555750Y869950D01*
X1555750Y735012D02*
G54D11*
D03*
X1416050Y735012D02*
G54D11*
D03*
G54D14*
X1555750Y869950D02*
X1554162Y869950D01*
X1549400Y865188D01*
X1549400Y741362D01*
X1555750Y735012D01*
G54D14*
X1416050Y735012D02*
X1416050Y693738D01*
X1427162Y682625D01*
X1427162Y674688D01*
X1416050Y663575D01*
X1416050Y625475D01*
X1403350Y612775D01*
X1403350Y588962D01*
X2830512Y703262D02*
G54D11*
D03*
G54D14*
X2830512Y703262D02*
X2830512Y709612D01*
X2832100Y711200D01*
X2832100Y760412D01*
X2825750Y766762D01*
X2825750Y881062D01*
X2863850Y919162D01*
X2863850Y971550D01*
G54D14*
X2830512Y703262D02*
X2830512Y701675D01*
X2825750Y696912D01*
X2825750Y339725D01*
X2832100Y333375D01*
X2855912Y333375D01*
X2863850Y325438D01*
X2863850Y307975D01*
X2006600Y581025D02*
G54D11*
D03*
G54D14*
X2006600Y581025D02*
X2019300Y568325D01*
X2019300Y517525D01*
X2025650Y511175D01*
X2025650Y428625D01*
X2019300Y422275D01*
X2019300Y403225D01*
X2032000Y390525D01*
X2032000Y390525D02*
G54D11*
D03*
X2101850Y390525D02*
G54D11*
D03*
G54D14*
X2101850Y390525D02*
X2101850Y373062D01*
X2082800Y354012D01*
X2082800Y219075D01*
X2076450Y212725D01*
X2044700Y212725D01*
X2044700Y212725D02*
G54D11*
D03*
X1860550Y206375D02*
G54D11*
D03*
G54D14*
X1849834Y224631D02*
X1849834Y217091D01*
X1860550Y206375D01*
X1606550Y912812D02*
G54D11*
D03*
G54D14*
X1606550Y984250D02*
X1606550Y912812D01*
X1524000Y906462D02*
G54D11*
D03*
G54D14*
X1524000Y906462D02*
X1522412Y906462D01*
X1492250Y936625D01*
X1492250Y1193800D01*
X1492250Y1193800D02*
G54D11*
D03*
X1441450Y1193800D02*
G54D11*
D03*
G54D14*
X1441450Y1193800D02*
X1441450Y1435100D01*
G54D14*
X1524000Y906462D02*
X1530350Y900112D01*
X1530350Y869950D01*
X1530350Y741362D01*
X1530350Y741362D02*
G54D11*
D03*
X1466850Y741362D02*
G54D11*
D03*
G54D14*
X1466850Y741362D02*
X1466850Y601662D01*
X1454150Y588962D01*
X2843212Y722312D02*
G54D11*
D03*
G54D14*
X2843212Y722312D02*
X2843212Y762000D01*
X2832100Y773112D01*
X2832100Y874712D01*
X2889250Y931862D01*
X2889250Y971550D01*
G54D14*
X2843212Y722312D02*
X2843212Y695325D01*
X2832100Y684212D01*
X2832100Y346075D01*
X2838450Y339725D01*
X2881312Y339725D01*
X2889250Y331788D01*
X2889250Y307975D01*
X1987550Y593725D02*
G54D11*
D03*
G54D14*
X1987550Y593725D02*
X2019300Y593725D01*
X2025650Y587375D01*
X2025650Y531812D01*
X2032000Y525462D01*
X2032000Y415925D01*
X2032000Y415925D02*
G54D11*
D03*
X2082800Y415925D02*
G54D11*
D03*
X2082800Y379412D02*
G54D11*
D03*
G54D14*
X2082800Y415925D02*
X2082800Y379412D01*
G54D14*
X2082800Y379412D02*
X2076450Y373062D01*
X2076450Y231775D01*
X2070100Y225425D01*
X2070100Y225425D02*
G54D11*
D03*
X1879600Y206375D02*
G54D11*
D03*
G54D14*
X1879600Y224631D02*
X1879600Y206375D01*
G54D14*
X1784350Y1136650D02*
X1784350Y1231900D01*
X1822450Y1270000D01*
X1822450Y1435100D01*
G54D14*
X1784350Y1136650D02*
X1784350Y1117600D01*
X1797050Y1104900D01*
X1797050Y944562D01*
X1790700Y938212D01*
X1790700Y938212D02*
G54D11*
D03*
G54D14*
X1790700Y938212D02*
X1784350Y931862D01*
X1784350Y798512D01*
X1778000Y792162D01*
X1778000Y792162D02*
G54D11*
D03*
X1460500Y792162D02*
G54D11*
D03*
G54D14*
X1454150Y869950D02*
X1454150Y798512D01*
X1460500Y792162D01*
G54D14*
X2559050Y971550D02*
X2559050Y720725D01*
X2546350Y708025D01*
X2546350Y341312D01*
X2546350Y341312D02*
G54D11*
D03*
X2686050Y341312D02*
G54D11*
D03*
G54D14*
X2686050Y341312D02*
X2673350Y328612D01*
X2673350Y295275D01*
X2660650Y282575D01*
X2660650Y155575D01*
X2151062Y320675D02*
G54D11*
D03*
G54D14*
X2151062Y320675D02*
X2127250Y296862D01*
X2127250Y257175D01*
X2127250Y257175D02*
G54D11*
D03*
X1911350Y271462D02*
G54D11*
D03*
G54D14*
X1928812Y302419D02*
X1918494Y302419D01*
X1911350Y295275D01*
X1911350Y271462D01*
X1803400Y1130300D02*
G54D11*
D03*
G54D14*
X1803400Y1130300D02*
X1803400Y1233488D01*
X1847850Y1277938D01*
X1847850Y1435100D01*
G54D14*
X1803400Y1130300D02*
X1803400Y906462D01*
X1797050Y900112D01*
X1797050Y900112D02*
G54D11*
D03*
X2360612Y920750D02*
G54D11*
D03*
G54D14*
X2355850Y869950D02*
X2355850Y874712D01*
X2362200Y881062D01*
X2362200Y919162D01*
X2360612Y920750D01*
G54D14*
X2584450Y971550D02*
X2584450Y925512D01*
X2609850Y900112D01*
X2609850Y741362D01*
X2584450Y715962D01*
X2584450Y414338D01*
X2571750Y401638D01*
X2571750Y284162D01*
X2571750Y284162D02*
G54D11*
D03*
X1987550Y258762D02*
G54D11*
D03*
G54D14*
X1957388Y262731D02*
X1983581Y262731D01*
X1987550Y258762D01*
G54D14*
X1784350Y984250D02*
X1784350Y1104900D01*
X1771650Y1117600D01*
X1771650Y1244600D01*
X1797050Y1270000D01*
X1797050Y1435100D01*
X1822450Y984250D02*
G54D11*
D03*
X1822450Y912812D02*
G54D11*
D03*
G54D14*
X1822450Y984250D02*
X1822450Y912812D01*
X2381250Y939800D02*
G54D11*
D03*
G54D14*
X2381250Y939800D02*
X2381250Y869950D01*
X2533650Y939800D02*
G54D11*
D03*
G54D14*
X2533650Y939800D02*
X2533650Y614362D01*
X2501900Y582612D01*
X2501900Y441325D01*
X2495550Y434975D01*
X2495550Y377825D01*
X2490788Y373062D01*
X2490788Y261938D01*
X2508250Y244475D01*
X2508250Y104775D01*
X2514600Y98425D01*
X2514600Y98425D02*
G54D11*
D03*
X1924050Y111125D02*
G54D11*
D03*
G54D14*
X1909366Y224631D02*
X1909366Y214709D01*
X1924050Y200025D01*
X1924050Y111125D01*
G54D14*
X1758950Y984250D02*
X1758950Y1104900D01*
X1746250Y1117600D01*
X1746250Y1244600D01*
X1771650Y1270000D01*
X1771650Y1435100D01*
G54D14*
X1758950Y984250D02*
X1758950Y844550D01*
X1758950Y844550D02*
G54D11*
D03*
G54D14*
X1758950Y844550D02*
X1765300Y838200D01*
X1765300Y557212D01*
X2038350Y544512D02*
G54D11*
D03*
X2089150Y544512D02*
G54D16*
D03*
X2114550Y544512D02*
G54D16*
D03*
G54D14*
X1957388Y292497D02*
X2029222Y292497D01*
X2033588Y296862D01*
X2033588Y354012D01*
X2044700Y365125D01*
X2044700Y538162D01*
X2038350Y544512D01*
X1930400Y830262D02*
G54D11*
D03*
G54D14*
X1930400Y830262D02*
X1930400Y820738D01*
X1949450Y801688D01*
X1949450Y795338D01*
X1951038Y793750D01*
G54D14*
X1733550Y984250D02*
X1733550Y1104900D01*
X1720850Y1117600D01*
X1720850Y1246188D01*
X1746250Y1271588D01*
X1746250Y1435100D01*
X1682750Y1073150D02*
G54D11*
D03*
X1657350Y1073150D02*
G54D11*
D03*
G54D14*
X1708150Y984250D02*
X1708150Y1098550D01*
X1879600Y1111250D02*
G54D11*
D03*
X1879600Y1193800D02*
G54D11*
D03*
X1924050Y1193800D02*
G54D11*
D03*
X1944688Y1193800D02*
G54D11*
D03*
G54D14*
X1879600Y1193800D02*
X1879600Y1111250D01*
G54D14*
X1924050Y1193800D02*
X1924050Y1231900D01*
X1949450Y1257300D01*
X1949450Y1333500D01*
X1949450Y1333500D02*
G54D11*
D03*
G54D14*
X1720850Y1435100D02*
X1720850Y1327150D01*
X1963120Y1224732D02*
G54D16*
D03*
X1963120Y1123132D02*
G54D16*
D03*
X2597150Y1092200D02*
G54D11*
D03*
G54D14*
X2597150Y1092200D02*
X2597150Y933450D01*
X2647950Y882650D01*
X2647950Y869950D01*
G54D14*
X2622550Y869950D02*
X2622550Y849312D01*
X2641600Y830262D01*
X2667000Y830262D01*
X2686050Y811212D01*
X2686050Y677862D01*
X2698750Y665162D01*
X2698750Y614362D01*
X2343150Y900112D02*
G54D11*
D03*
G54D14*
X2343150Y900112D02*
X2330450Y912812D01*
X2330450Y938212D01*
X2317750Y950912D01*
X2317750Y1028700D01*
X2330450Y1041400D01*
X2330450Y1060450D01*
X2571750Y574675D02*
G54D16*
D03*
X2597150Y574675D02*
G54D16*
D03*
G54D14*
X2597150Y614362D02*
X2597150Y574675D01*
X1828800Y601662D02*
G54D11*
D03*
G54D14*
X1828800Y601662D02*
X1831975Y601662D01*
X1841500Y611188D01*
X1841500Y755650D01*
X1836738Y760412D01*
X1836738Y825500D01*
X1849438Y838200D01*
X1849438Y869950D01*
G54D14*
X2622550Y614362D02*
X2622550Y596900D01*
X2635250Y584200D01*
X2635250Y423862D01*
X2635250Y423862D02*
G54D11*
D03*
X1746250Y436562D02*
G54D11*
D03*
G54D14*
X1746250Y436562D02*
X1739900Y442912D01*
X1739900Y531812D01*
X1746250Y538162D01*
X1746250Y804862D01*
X1733550Y817562D01*
X1733550Y887412D01*
X1733550Y887412D02*
G54D11*
D03*
G54D14*
X2571750Y690562D02*
X2571750Y614362D01*
X2635250Y671512D02*
G54D11*
D03*
G54D14*
X2647950Y614362D02*
X2647950Y636588D01*
X2635250Y649288D01*
X2635250Y671512D01*
X2559050Y633412D02*
G54D11*
D03*
G54D14*
X2559050Y633412D02*
X2559050Y587375D01*
X2571750Y574675D01*
G54D14*
X2673350Y614362D02*
X2673350Y652462D01*
X2660650Y665162D01*
X2660650Y760412D01*
X2660650Y760412D02*
G54D11*
D03*
X2114550Y773112D02*
G54D11*
D03*
X2114550Y830262D02*
G54D11*
D03*
G54D14*
X2114550Y830262D02*
X2114550Y773112D01*
X1951038Y830262D02*
G54D11*
D03*
G54D14*
X1951038Y869950D02*
X1951038Y830262D01*
X1568450Y823912D02*
G54D17*
D03*
G54D14*
X1327150Y869950D02*
X1327150Y831850D01*
X1327150Y831850D02*
G54D17*
D03*
X1988520Y1224732D02*
G54D18*
D03*
X1988520Y1123132D02*
G54D18*
D03*
G54D14*
X2698750Y690562D02*
X2698750Y725488D01*
X2736850Y763588D01*
X2736850Y889000D01*
X2698750Y927100D01*
X2698750Y996950D01*
X2705100Y1003300D01*
X2705100Y1054100D01*
X2705100Y1054100D02*
G54D17*
D03*
G54D14*
X2698750Y523875D02*
X2698750Y549275D01*
X2660650Y587375D01*
X2660650Y644525D01*
X2647950Y657225D01*
X2647950Y690562D01*
G54D14*
X2698750Y523875D02*
X2698750Y517525D01*
X2686050Y504825D01*
X2686050Y415925D01*
X2686050Y415925D02*
G54D17*
D03*
X2114550Y415925D02*
G54D17*
D03*
G54D14*
X2114550Y415925D02*
X2114550Y347662D01*
X2114550Y347662D02*
G54D17*
D03*
X1993900Y333375D02*
G54D17*
D03*
G54D14*
X1957388Y342503D02*
X1984772Y342503D01*
X1993900Y333375D01*
X2146300Y1301750D02*
G54D17*
D03*
X1885950Y1301750D02*
G54D17*
D03*
G54D14*
X1885950Y1412875D02*
X1885950Y1301750D01*
X1657350Y1301750D02*
G54D17*
D03*
G54D14*
X1657350Y1301750D02*
X1657350Y1136650D01*
X1657350Y1073150D01*
X1295400Y1065212D02*
G54D17*
D03*
G54D14*
X1295400Y1065212D02*
X1295400Y1063625D01*
X1289050Y1057275D01*
X1289050Y895350D01*
X1295400Y889000D01*
X1295400Y889000D02*
G54D17*
D03*
X1244600Y882650D02*
G54D17*
D03*
G54D14*
X1244600Y882650D02*
X1225550Y863600D01*
X1225550Y709612D01*
X1219200Y703262D01*
X1219200Y703262D02*
G54D17*
D03*
X1301750Y671512D02*
G54D17*
D03*
G54D14*
X1301750Y671512D02*
X1290638Y671512D01*
X1282700Y663575D01*
X1282700Y588962D01*
X1270000Y576262D01*
X1270000Y549275D01*
X1295400Y523875D01*
X1295400Y481012D01*
X1295400Y481012D02*
G54D17*
D03*
G54D14*
X2146300Y1301750D02*
X2146300Y1200150D01*
X2152650Y1193800D01*
X2152650Y1125538D01*
X2141538Y1114425D01*
X2141538Y898525D01*
X2152650Y887412D01*
X2152650Y860425D01*
X2146300Y854075D01*
X2146300Y766762D01*
X2146300Y766762D02*
G54D17*
D03*
X2514600Y766762D02*
G54D17*
D03*
G54D14*
X2514600Y766762D02*
X2514600Y652462D01*
X2514600Y652462D02*
G54D17*
D03*
X2863850Y652462D02*
G54D17*
D03*
G54D14*
X2863850Y652462D02*
X2863850Y549275D01*
X2889250Y523875D01*
G54D14*
X2514600Y652462D02*
X2514600Y619125D01*
X2489200Y593725D01*
X2489200Y447675D01*
X2489200Y447675D02*
G54D17*
D03*
G54D14*
X2914650Y523875D02*
X2914650Y473075D01*
X2927350Y460375D01*
X2927350Y271462D01*
X2927350Y271462D02*
G54D17*
D03*
X2686050Y271462D02*
G54D17*
D03*
G54D14*
X2686050Y307975D02*
X2686050Y271462D01*
G54D14*
X2914650Y523875D02*
X2914650Y530225D01*
X2876550Y568325D01*
X2876550Y895350D01*
X2876550Y895350D02*
G54D17*
D03*
X3016250Y895350D02*
G54D17*
D03*
G54D14*
X3016250Y895350D02*
X3016250Y971550D01*
X3125788Y493712D02*
G54D19*
D03*
X3174188Y493712D02*
G54D19*
D03*
X2881312Y487362D02*
G54D17*
D03*
G54D14*
X2863850Y447675D02*
X2863850Y469900D01*
X2881312Y487362D01*
G54D14*
X2940050Y523875D02*
X2940050Y447675D01*
X2940050Y377825D02*
G54D17*
D03*
G54D14*
X2940050Y447675D02*
X2940050Y377825D01*
G54D14*
X2965450Y523875D02*
X2965450Y536575D01*
X2973388Y544512D01*
X2990850Y544512D01*
X2997200Y550862D01*
X2997200Y577850D01*
X3003550Y584200D01*
X3003550Y1052512D01*
X2990850Y1065212D01*
X2990850Y1123950D01*
X2997200Y550862D02*
G54D17*
D03*
X2622550Y487362D02*
G54D17*
D03*
X2698750Y487362D02*
G54D17*
D03*
G54D14*
X2622550Y523875D02*
X2622550Y487362D01*
G54D14*
X2698750Y487362D02*
X2724150Y511175D01*
X2724150Y523875D01*
X2597150Y404812D02*
G54D17*
D03*
G54D14*
X2622550Y447675D02*
X2622550Y436562D01*
X2597150Y411162D01*
X2597150Y404812D01*
X2405062Y404812D02*
G54D17*
D03*
G54D14*
X2405062Y404812D02*
X2405062Y422275D01*
X2395538Y431800D01*
X2395538Y473075D01*
X2374900Y493712D01*
X2374900Y584200D01*
X2368550Y590550D01*
X2368550Y631825D01*
X2357438Y642938D01*
X2357438Y649288D01*
X2357438Y649288D02*
G54D17*
D03*
X2305050Y649288D02*
G54D17*
D03*
G54D14*
X2305050Y690562D02*
X2305050Y649288D01*
G54D14*
X2647950Y447675D02*
X2647950Y490538D01*
X2673350Y515938D01*
X2673350Y523875D01*
G54D14*
X2673350Y447675D02*
X2673350Y365125D01*
X2641600Y333375D01*
X2628900Y333375D01*
X2622550Y327025D01*
X2622550Y111125D01*
X2597150Y85725D01*
X2597150Y85725D02*
G54D17*
D03*
X1295400Y71438D02*
G54D17*
D03*
G54D14*
X1295400Y71438D02*
X1295400Y112712D01*
X1289050Y119062D01*
X1289050Y180975D01*
X1301750Y193675D01*
X1301750Y193675D02*
G54D17*
D03*
X863600Y200025D02*
G54D17*
D03*
G54D14*
X863600Y200025D02*
X844550Y180975D01*
X844550Y142875D01*
X843932Y243656D02*
G54D16*
D03*
X843932Y142057D02*
G54D16*
D03*
X2761453Y511361D02*
G54D16*
D03*
X2761453Y460561D02*
G54D16*
D03*
X2064541Y855849D02*
G54D18*
D03*
X2064541Y805048D02*
G54D18*
D03*
X2445541Y855849D02*
G54D16*
D03*
X2445541Y805048D02*
G54D16*
D03*
X2965863Y396795D02*
G54D16*
D03*
X2864263Y396795D02*
G54D16*
D03*
X2965863Y371395D02*
G54D16*
D03*
X2864263Y371395D02*
G54D16*
D03*
X2998139Y396555D02*
G54D16*
D03*
X2998139Y371155D02*
G54D16*
D03*
G54D14*
X2863850Y447675D02*
X2863850Y397208D01*
X2864263Y396795D01*
X2889250Y411162D02*
G54D17*
D03*
X2914650Y398462D02*
G54D17*
D03*
G54D14*
X2889250Y447675D02*
X2889250Y411162D01*
G54D14*
X2914650Y447675D02*
X2914650Y398462D01*
G54D14*
X2965450Y447675D02*
X2965450Y430212D01*
X2979738Y415925D01*
X3014662Y415925D01*
X3022600Y407988D01*
X3022600Y350838D01*
X3003550Y331788D01*
X3003550Y195262D01*
X3003550Y195262D02*
G54D17*
D03*
X1803400Y142875D02*
G54D17*
D03*
G54D14*
X1810147Y224631D02*
X1810147Y149622D01*
X1803400Y142875D01*
G54D14*
X2990850Y447675D02*
X2990850Y433388D01*
X2997200Y427038D01*
X3028950Y427038D01*
X3035300Y420688D01*
X3035300Y396875D01*
X3041650Y390525D01*
X3041650Y346075D01*
X3028950Y333375D01*
X3028950Y207962D01*
X3028950Y207962D02*
G54D17*
D03*
X2489200Y207962D02*
G54D17*
D03*
X2489200Y231775D02*
G54D17*
D03*
X2489200Y111125D02*
G54D17*
D03*
G54D14*
X2489200Y207962D02*
X2489200Y111125D01*
X1568450Y136525D02*
G54D17*
D03*
G54D14*
X1568450Y136525D02*
X1568450Y468312D01*
X1568450Y468312D02*
G54D17*
D03*
X3719512Y523875D02*
G54D17*
D03*
G54D14*
X3719512Y1435100D02*
X3719512Y525462D01*
X3717925Y523875D01*
X3706812Y539750D02*
G54D17*
D03*
G54D14*
X3706812Y539750D02*
X3706812Y1412875D01*
X2546350Y793750D02*
G54D17*
D03*
G54D14*
X2546350Y793750D02*
X2546350Y996950D01*
X2552700Y1003300D01*
X2552700Y1028700D01*
X2546350Y1035050D01*
X2546350Y1225550D01*
X2546350Y1225550D02*
G54D17*
D03*
X2190750Y1257300D02*
G54D17*
D03*
G54D14*
X2190750Y1257300D02*
X2178050Y1244600D01*
X2178050Y1176338D01*
X2190750Y1163638D01*
X2190750Y1143000D01*
X2197100Y1136650D01*
X2197100Y1136650D02*
G54D17*
D03*
X2064720Y1224732D02*
G54D16*
D03*
X2064720Y1123132D02*
G54D16*
D03*
X2978150Y762000D02*
G54D17*
D03*
X2978150Y563562D02*
G54D17*
D03*
X3073400Y563562D02*
G54D17*
D03*
G54D14*
X3073400Y563562D02*
X3073400Y504825D01*
X3111500Y466725D01*
X3111500Y441325D01*
X3100357Y430216D01*
X3091679Y430213D01*
X3142632Y462732D02*
G54D16*
D03*
X3142632Y361132D02*
G54D16*
D03*
X3169085Y462351D02*
G54D16*
D03*
X3169085Y360751D02*
G54D16*
D03*
X3187700Y339725D02*
G54D17*
D03*
G54D14*
X3169085Y462351D02*
X3169849Y462351D01*
X3187700Y444500D01*
X3187700Y339725D01*
X3143250Y227012D02*
G54D17*
D03*
G54D14*
X3143250Y227012D02*
X3143250Y360514D01*
X3142632Y361132D01*
G54D14*
X2489200Y231775D02*
X2501900Y219075D01*
X2501900Y73025D01*
X2501900Y73025D02*
G54D17*
D03*
X1339850Y71438D02*
G54D17*
D03*
G54D14*
X1339850Y71438D02*
X1339850Y327025D01*
X1314450Y352425D01*
X1314450Y404812D01*
X1327150Y417512D01*
X1327150Y449262D01*
G54D14*
X2673350Y869950D02*
X2673350Y896938D01*
X2647950Y922338D01*
X2647950Y1047750D01*
X2622550Y1073150D01*
X2622550Y1281112D01*
X2630488Y1289050D01*
X2738438Y1289050D01*
X2738438Y1289050D02*
G54D18*
D03*
X2738438Y1187450D02*
G54D18*
D03*
X2482850Y901700D02*
G54D17*
D03*
G54D14*
X2482850Y901700D02*
X2482850Y785812D01*
X2495550Y773112D01*
X2495550Y627062D01*
X2476500Y608012D01*
X2476500Y434975D01*
X2482850Y428625D01*
X2482850Y263525D01*
X2476500Y257175D01*
X2476500Y85725D01*
X2482850Y79375D01*
X2482850Y79375D02*
G54D17*
D03*
X1830388Y104775D02*
G54D17*
D03*
G54D14*
X1829990Y224631D02*
X1829990Y105172D01*
X1830388Y104775D01*
X1555750Y98425D02*
G54D17*
D03*
G54D14*
X1555750Y98425D02*
X1555750Y487362D01*
X1555750Y487362D02*
G54D17*
D03*
X357188Y103188D02*
G54D17*
D03*
X345458Y243656D02*
G54D18*
D03*
X345458Y142057D02*
G54D18*
D03*
G54D14*
X357188Y103188D02*
X357188Y173038D01*
X346075Y184150D01*
X346075Y243039D01*
X345458Y243656D01*
G54D14*
X345458Y142057D02*
X342131Y142057D01*
X304800Y179388D01*
X306388Y320675D01*
X268413Y358683D01*
G54D14*
X268413Y384083D02*
X307944Y384095D01*
X323850Y400050D01*
X401638Y400050D01*
X422275Y420688D01*
X422275Y479425D01*
X422275Y479425D02*
G54D17*
D03*
X901700Y500062D02*
G54D17*
D03*
G54D14*
X901700Y500062D02*
X901700Y531812D01*
X912812Y542925D01*
X912812Y568325D01*
X927100Y582612D01*
X927100Y722312D01*
X984250Y779462D01*
X984250Y1277938D01*
X958850Y1303338D01*
X511175Y1303338D01*
X427038Y1387475D01*
G54D14*
X600075Y1341438D02*
X600075Y1438275D01*
X409575Y1438275D02*
G54D20*
D03*
X447675Y1438275D02*
G54D20*
D03*
X485775Y1438275D02*
G54D20*
D03*
X523875Y1438275D02*
G54D20*
D03*
X561975Y1438275D02*
G54D20*
D03*
X600075Y1438275D02*
G54D20*
D03*
X638175Y1438275D02*
G54D20*
D03*
X676275Y1438275D02*
G54D20*
D03*
X714375Y1436688D02*
G54D20*
D03*
X752475Y1436688D02*
G54D20*
D03*
X390525Y1387475D02*
G54D20*
D03*
X428625Y1387475D02*
G54D20*
D03*
X466725Y1387475D02*
G54D20*
D03*
X504825Y1387475D02*
G54D20*
D03*
X542925Y1387475D02*
G54D20*
D03*
X581025Y1387475D02*
G54D20*
D03*
X619125Y1387475D02*
G54D20*
D03*
X657225Y1387475D02*
G54D20*
D03*
X695325Y1385888D02*
G54D20*
D03*
X733425Y1385888D02*
G54D20*
D03*
X771525Y1385888D02*
G54D20*
D03*
X1460500Y1308100D02*
G54D11*
D03*
G54D14*
X1466850Y1435100D02*
X1466850Y1314450D01*
X1460500Y1308100D01*
G54D14*
X2724150Y869950D02*
X2724150Y842962D01*
X2711450Y830262D01*
X2711450Y785812D01*
X2698750Y773112D01*
X2698750Y773112D02*
G54D11*
D03*
X2470150Y792162D02*
G54D11*
D03*
G54D14*
X2470150Y792162D02*
X2470150Y777875D01*
X2489200Y758825D01*
X2489200Y639762D01*
X2470150Y620712D01*
X2470150Y98425D01*
X2451100Y79375D01*
X2451100Y79375D02*
G54D11*
D03*
X1320800Y85725D02*
G54D11*
D03*
G54D14*
X1320800Y85725D02*
X1314450Y92075D01*
X1314450Y250825D01*
X1308100Y257175D01*
X1308100Y320675D01*
X1308100Y320675D02*
G54D11*
D03*
X1112220Y461144D02*
G54D16*
D03*
X1112220Y359544D02*
G54D16*
D03*
X889000Y441325D02*
G54D20*
D03*
X698500Y517525D02*
G54D11*
D03*
G54D21*
X731838Y517525D02*
X698500Y517525D01*
G54D21*
X842962Y517525D02*
X876300Y517525D01*
G54D22*
X889000Y441325D02*
X876300Y454025D01*
X876300Y517525D01*
X3055937Y633413D02*
G54D23*
D03*
X2761453Y679636D02*
G54D16*
D03*
X2761453Y628836D02*
G54D16*
D03*
X2152650Y601662D02*
G54D23*
D03*
X2279650Y671513D02*
G54D23*
D03*
X2844800Y671513D02*
G54D23*
D03*
G54D14*
X2622550Y690562D02*
X2622550Y679450D01*
X2609850Y666750D01*
X2609850Y492125D01*
X2605088Y487362D01*
X2605088Y487362D02*
G54D11*
D03*
X1835150Y530225D02*
G54D11*
D03*
G54D14*
X1835150Y530225D02*
X1817688Y547688D01*
X1817688Y676275D01*
X1822450Y681038D01*
X1822450Y701675D01*
X1811338Y712788D01*
X1811338Y825500D01*
X1824038Y838200D01*
X1824038Y869950D01*
G54D14*
X1682750Y984250D02*
X1682750Y1073150D01*
X1835150Y1066800D02*
G54D11*
D03*
G54D14*
X1835150Y1066800D02*
X1835150Y1104900D01*
X1828800Y1111250D01*
X1828800Y1149350D01*
X1835150Y1155700D01*
X1835150Y1219200D01*
X1835150Y1219200D02*
G54D11*
D03*
X1682750Y1225550D02*
G54D11*
D03*
G54D14*
X1695450Y1435100D02*
X1695450Y1295400D01*
X1682750Y1282700D01*
X1682750Y1225550D01*
X1936750Y1225550D02*
G54D18*
D03*
X1936750Y1123950D02*
G54D18*
D03*
X2171700Y1136650D02*
G54D11*
D03*
G54D14*
X2171700Y1136650D02*
X2171700Y1077912D01*
X2165350Y1071562D01*
X2165350Y1052512D01*
X2178050Y1039812D01*
X2178050Y984250D01*
G54D14*
X1889125Y224631D02*
X1889125Y215900D01*
X1892300Y212725D01*
X1892300Y180975D01*
X1879600Y168275D01*
X1879600Y123825D01*
X1879600Y123825D02*
G54D11*
D03*
X2063750Y123825D02*
G54D11*
D03*
G54D14*
X2063750Y123825D02*
X2063750Y144462D01*
X2108200Y188912D01*
X2108200Y295275D01*
X2152650Y339725D01*
X2152650Y374650D01*
X2165350Y387350D01*
X2165350Y442912D01*
X2197100Y474662D01*
X2197100Y550862D01*
X2203450Y557212D01*
X2203450Y754062D01*
X2190750Y766762D01*
X2190750Y874712D01*
X2178050Y887412D01*
X2178050Y984250D01*
X1758950Y1365250D02*
G54D11*
D03*
X2038350Y1365250D02*
G54D11*
D03*
G54D14*
X2038350Y1412875D02*
X2038350Y1365250D01*
G54D14*
X1733550Y1136650D02*
X1733550Y1246188D01*
X1758950Y1271588D01*
X1758950Y1365250D01*
X1841500Y1123950D02*
G54D11*
D03*
X1898650Y1314450D02*
G54D11*
D03*
X2038350Y1314450D02*
G54D11*
D03*
X2038350Y1225550D02*
G54D16*
D03*
X2038350Y1123950D02*
G54D16*
D03*
G54D14*
X1841500Y1123950D02*
X1847850Y1130300D01*
X1847850Y1238250D01*
X1898650Y1289050D01*
X1898650Y1314450D01*
X1898650Y1435100D01*
G54D14*
X2038350Y1314450D02*
X2038350Y1225550D01*
G54D14*
X2039938Y1114425D02*
X2039938Y1030288D01*
X2032000Y1022350D01*
X2032000Y1001712D01*
X2039938Y993775D01*
X2039938Y838200D01*
X2014538Y812800D01*
X2014538Y785812D01*
X2005012Y776288D01*
X1993900Y776288D01*
X1976438Y793750D01*
X1962150Y779462D01*
X1962150Y557212D01*
X1987550Y531812D01*
X1987550Y381000D01*
X1993900Y374650D01*
X1993900Y352425D01*
X1957388Y352425D01*
G54D14*
X2039938Y1114425D02*
X2039938Y1122363D01*
X2038350Y1123950D01*
X1682750Y1163638D02*
G54D11*
D03*
X1822450Y1163638D02*
G54D11*
D03*
G54D14*
X1860550Y1412875D02*
X1860550Y1276350D01*
X1822450Y1238250D01*
X1822450Y1163638D01*
G54D14*
X1682750Y1163638D02*
X1682750Y1136650D01*
X1988520Y1154832D02*
G54D11*
D03*
G54D14*
X1988520Y1154832D02*
X1988520Y1123132D01*
X2000250Y1289050D02*
G54D11*
D03*
G54D14*
X1988520Y1224732D02*
X1988520Y1256683D01*
X2000250Y1268412D01*
X2000250Y1289050D01*
X2165350Y1276350D02*
G54D11*
D03*
G54D14*
X2178050Y1060450D02*
X2178050Y1104900D01*
X2184400Y1111250D01*
X2184400Y1160462D01*
X2171700Y1173162D01*
X2171700Y1270000D01*
X2165350Y1276350D01*
X2012950Y1225550D02*
G54D16*
D03*
X2012950Y1123950D02*
G54D16*
D03*
X2063750Y1384300D02*
G54D11*
D03*
X1936750Y1384300D02*
G54D11*
D03*
G54D14*
X2063750Y1384300D02*
X2063750Y1225702D01*
X2064720Y1224732D01*
X1910702Y1149030D02*
G54D18*
D03*
X1910702Y1123630D02*
G54D18*
D03*
G54D14*
X1910702Y1149030D02*
X1910702Y1229664D01*
X1936750Y1255712D01*
X1936750Y1384300D01*
G54D24*
X2114550Y544512D02*
X2114550Y563562D01*
X2152650Y601662D01*
X1949450Y1162050D02*
G54D11*
D03*
G54D14*
X1949450Y1162050D02*
X1957388Y1169988D01*
X1957388Y1204912D01*
X1949450Y1212850D01*
X1949450Y1244600D01*
X1974850Y1270000D01*
X1974850Y1435100D01*
G54D14*
X1949450Y1162050D02*
X1949450Y1111250D01*
X1936750Y1098550D01*
X1936750Y963612D01*
X1925638Y952500D01*
X1925638Y893762D01*
X1925638Y893762D02*
G54D11*
D03*
X2322512Y896938D02*
G54D11*
D03*
G54D14*
X2322512Y896938D02*
X2325688Y896938D01*
X2330450Y892175D01*
X2330450Y869950D01*
X2330450Y849312D01*
X2343150Y836612D01*
X2343150Y588962D01*
X2330450Y576262D01*
X2330450Y576262D02*
G54D11*
D03*
X2305050Y576262D02*
G54D11*
D03*
G54D14*
X2305050Y576262D02*
X2305050Y492125D01*
X2292350Y479425D01*
X2292350Y409575D01*
X2279650Y396875D01*
X2279650Y371475D01*
X2292350Y358775D01*
X2292350Y327025D01*
X2279650Y314325D01*
X2279650Y180975D01*
X2279650Y180975D02*
G54D11*
D03*
X2146300Y155575D02*
G54D11*
D03*
G54D14*
X2146300Y155575D02*
X2127250Y155575D01*
X2095500Y123825D01*
X2082800Y123825D01*
X2082800Y123825D02*
G54D11*
D03*
X1905000Y119062D02*
G54D11*
D03*
G54D14*
X1899047Y224631D02*
X1899047Y205978D01*
X1905000Y200025D01*
X1905000Y119062D01*
X1758950Y1174750D02*
G54D11*
D03*
G54D14*
X1758950Y1174750D02*
X1758950Y1244600D01*
X1784350Y1270000D01*
X1784350Y1339850D01*
X1784350Y1339850D02*
G54D11*
D03*
X2000250Y1339850D02*
G54D11*
D03*
G54D14*
X2000250Y1339850D02*
X2000250Y1435100D01*
G54D14*
X1606550Y1136650D02*
X1606550Y1065212D01*
X1601788Y1060450D01*
G54D14*
X1746250Y1060450D02*
X1746250Y823912D01*
X1752600Y817562D01*
X1752600Y474662D01*
X1752600Y474662D02*
G54D11*
D03*
X1625600Y474662D02*
G54D11*
D03*
X1625600Y220662D02*
G54D11*
D03*
G54D14*
X1625600Y474662D02*
X1625600Y220662D01*
X1927225Y220662D02*
G54D11*
D03*
G54D14*
X1919288Y224631D02*
X1919288Y222250D01*
X1920875Y220662D01*
X1927225Y220662D01*
X1555750Y1041400D02*
G54D23*
D03*
X1574800Y1041400D02*
G54D23*
D03*
G54D25*
X1555750Y984250D02*
X1555750Y1041400D01*
X1574800Y1041400D01*
X2064304Y1047431D02*
G54D16*
D03*
X2064304Y996632D02*
G54D16*
D03*
X1257854Y1015681D02*
G54D16*
D03*
X1257854Y964882D02*
G54D16*
D03*
X2559050Y1060450D02*
G54D23*
D03*
X2559050Y1041400D02*
G54D23*
D03*
X2445304Y1047431D02*
G54D16*
D03*
X2445304Y996632D02*
G54D16*
D03*
X2787650Y990600D02*
G54D23*
D03*
X3041650Y990600D02*
G54D23*
D03*
X3087688Y990600D02*
G54D23*
D03*
X2514600Y990600D02*
G54D23*
D03*
X1250950Y811212D02*
G54D26*
D03*
X1250950Y785812D02*
G54D26*
D03*
X1250950Y760412D02*
G54D26*
D03*
X1276350Y869950D02*
G54D23*
D03*
X1276350Y742950D02*
G54D23*
D03*
X1276350Y730250D02*
G54D23*
D03*
X1631950Y696912D02*
G54D23*
D03*
X1644650Y696912D02*
G54D23*
D03*
X1631950Y773112D02*
G54D23*
D03*
X1651000Y773112D02*
G54D23*
D03*
G54D24*
X1631950Y717550D02*
X1639888Y725488D01*
X1639888Y765175D01*
X1631950Y773112D01*
G54D24*
X1639888Y765175D02*
X1643062Y765175D01*
X1651000Y773112D01*
X1631950Y773112D01*
X1504950Y900112D02*
G54D11*
D03*
G54D14*
X1504950Y869950D02*
X1504950Y900112D01*
X1847850Y984250D02*
G54D11*
D03*
G54D14*
X1847850Y984250D02*
X1854200Y990600D01*
X1854200Y1225550D01*
X1866900Y1238250D01*
X1866900Y1238250D02*
G54D11*
D03*
X2260600Y1244600D02*
G54D11*
D03*
G54D14*
X2260600Y1244600D02*
X2266950Y1238250D01*
X2266950Y1212850D01*
X1936750Y908050D02*
G54D11*
D03*
G54D14*
X1951038Y984250D02*
X1951038Y954088D01*
X1936750Y939800D01*
X1936750Y908050D01*
X2190750Y914400D02*
G54D11*
D03*
G54D14*
X2190750Y914400D02*
X2190750Y1098550D01*
X2190750Y1098550D02*
G54D11*
D03*
X2222500Y1098550D02*
G54D11*
D03*
G54D14*
X2222500Y1098550D02*
X2235200Y1111250D01*
X2247900Y1111250D01*
X2262188Y1125538D01*
X2262188Y1182688D01*
X2266950Y1187450D01*
X1974850Y908050D02*
G54D11*
D03*
G54D14*
X2001838Y984250D02*
X2001838Y935038D01*
X1974850Y908050D01*
X2216150Y920750D02*
G54D11*
D03*
G54D14*
X2216150Y920750D02*
X2216150Y1079500D01*
X2209800Y1085850D01*
X2209800Y1111250D01*
X2216150Y1117600D01*
X2216150Y1154112D01*
X2228850Y1166812D01*
X2228850Y1200150D01*
X2241550Y1212850D01*
X2027238Y1104900D02*
G54D11*
D03*
G54D14*
X2027238Y1060450D02*
X2027238Y1104900D01*
X2228850Y1143000D02*
G54D11*
D03*
G54D14*
X2228850Y1143000D02*
X2241550Y1155700D01*
X2241550Y1187450D01*
X2006600Y1149350D02*
G54D11*
D03*
X2032000Y1149350D02*
G54D11*
D03*
G54D14*
X1976438Y1060450D02*
X1976438Y1090612D01*
X2000250Y1114425D01*
X2000250Y1143000D01*
X2006600Y1149350D01*
X2025650Y1252538D02*
G54D11*
D03*
G54D14*
X2025650Y1252538D02*
X2025650Y1206500D01*
X2032000Y1200150D01*
X2032000Y1149350D01*
X2216150Y1282700D02*
G54D11*
D03*
G54D14*
X2216150Y1212850D02*
X2216150Y1282700D01*
X2216150Y1485900D01*
X2216150Y1485900D02*
G54D11*
D03*
X2747962Y1462088D02*
G54D11*
D03*
X2376646Y1383181D02*
G54D27*
D03*
X2404347Y1383181D02*
G54D27*
D03*
X2432443Y1383181D02*
G54D27*
D03*
X2459746Y1383181D02*
G54D27*
D03*
X2388655Y1410378D02*
G54D27*
D03*
X2416255Y1410175D02*
G54D27*
D03*
X2443856Y1410378D02*
G54D27*
D03*
X2471852Y1410378D02*
G54D27*
D03*
X2487240Y1383175D02*
G54D27*
D03*
X2557260Y1397278D02*
G54D28*
D03*
X2307253Y1397278D02*
G54D29*
D03*
X2708434Y1383181D02*
G54D27*
D03*
X2736135Y1383181D02*
G54D27*
D03*
X2764231Y1383181D02*
G54D27*
D03*
X2791534Y1383181D02*
G54D27*
D03*
X2720443Y1410378D02*
G54D27*
D03*
X2748043Y1410175D02*
G54D27*
D03*
X2775644Y1410378D02*
G54D27*
D03*
X2803640Y1410378D02*
G54D27*
D03*
X2819028Y1383175D02*
G54D27*
D03*
X2889047Y1397278D02*
G54D28*
D03*
X2639041Y1397278D02*
G54D29*
D03*
G54D14*
X2747962Y1462088D02*
X2747962Y1410255D01*
X2748043Y1410175D01*
G54D14*
X2001838Y793750D02*
X2001838Y831850D01*
X2012950Y842962D01*
X2012950Y1012825D01*
X2008188Y1017588D01*
X2008188Y1028700D01*
X2014538Y1035050D01*
X2014538Y1122363D01*
X2012950Y1123950D01*
X2020888Y1131888D01*
X2020888Y1192212D01*
X2000250Y1212850D01*
X2000250Y1257300D01*
X2012950Y1270000D01*
X2012950Y1412875D01*
X1873250Y1322388D02*
G54D11*
D03*
G54D14*
X1873250Y1435100D02*
X1873250Y1322388D01*
X2133600Y1327150D02*
G54D11*
D03*
G54D14*
X2133600Y1327150D02*
X2133600Y1201738D01*
X2146300Y1189038D01*
X2146300Y1130300D01*
X2135188Y1119188D01*
X2135188Y882650D01*
X2127250Y874712D01*
X2127250Y735012D01*
X2165350Y696912D01*
X2165350Y577850D01*
X2139950Y552450D01*
X2139950Y354012D01*
X2139950Y354012D02*
G54D11*
D03*
X1911350Y366712D02*
G54D11*
D03*
G54D14*
X1928416Y371872D02*
X1916510Y371872D01*
X1911350Y366712D01*
X2139950Y869950D02*
G54D11*
D03*
X2233612Y920750D02*
G54D11*
D03*
X2254250Y900112D02*
G54D11*
D03*
X2279650Y896938D02*
G54D11*
D03*
G54D14*
X2279650Y896938D02*
X2279650Y869950D01*
G54D14*
X2139950Y869950D02*
X2133600Y863600D01*
X2133600Y747712D01*
X2178050Y703262D01*
X2178050Y614362D01*
X2171700Y608012D01*
X2171700Y555625D01*
X2152650Y536575D01*
X2152650Y404812D01*
X2152650Y404812D02*
G54D11*
D03*
X1911350Y404812D02*
G54D11*
D03*
G54D14*
X1929210Y410766D02*
X1917303Y410766D01*
X1911350Y404812D01*
X2330450Y404812D02*
G54D11*
D03*
G54D14*
X2330450Y404812D02*
X2330450Y346075D01*
X2317750Y333375D01*
X2317750Y303212D01*
X2317750Y263525D01*
X2317750Y263525D02*
G54D11*
D03*
X2178973Y258404D02*
G54D16*
D03*
X2178973Y233004D02*
G54D16*
D03*
G54D14*
X2317750Y263525D02*
X2317750Y257175D01*
X2330450Y244475D01*
X2330450Y187325D01*
X2317750Y174625D01*
X2317750Y142875D01*
G54D14*
X2203450Y984250D02*
X2203450Y893762D01*
X2216150Y881062D01*
X2216150Y857250D01*
X2241550Y831850D01*
X2241550Y525462D01*
X2254250Y512762D01*
X2254250Y360362D01*
X2254250Y360362D02*
G54D11*
D03*
X1981200Y366712D02*
G54D11*
D03*
G54D14*
X1957388Y362347D02*
X1976834Y362347D01*
X1981200Y366712D01*
G54D14*
X2355850Y1060450D02*
X2355850Y1035050D01*
X2368550Y1022350D01*
X2368550Y969962D01*
X2393950Y944562D01*
X2393950Y766762D01*
X2368550Y741362D01*
X2368550Y669925D01*
X2393950Y644525D01*
X2393950Y603250D01*
X2401888Y595312D01*
X2420938Y595312D01*
X2444750Y571500D01*
X2444750Y531812D01*
X2444750Y531812D02*
G54D11*
D03*
X2279650Y538162D02*
G54D11*
D03*
G54D14*
X2279650Y538162D02*
X2279650Y442912D01*
X2266950Y430212D01*
X2266950Y379412D01*
X2266950Y350838D01*
X2254250Y338138D01*
X2254250Y250825D01*
X2266950Y238125D01*
X2266950Y219075D01*
G54D14*
X2279650Y984250D02*
X2279650Y1028700D01*
X2292350Y1041400D01*
X2292350Y1073150D01*
X2295525Y1076325D01*
X2295525Y1103312D01*
X2317750Y1125538D01*
X2317750Y1149350D01*
X2317750Y1149350D02*
G54D11*
D03*
G36*
X2516090Y1116830D02*
X2500090Y1116830D01*
X2500090Y1132830D01*
X2516090Y1132830D01*
X2516090Y1116830D01*
G37*
X2482690Y1124830D02*
G54D15*
D03*
X2457290Y1124829D02*
G54D15*
D03*
X2431890Y1124830D02*
G54D15*
D03*
X2406490Y1124829D02*
G54D15*
D03*
X2381090Y1124829D02*
G54D15*
D03*
G54D14*
X2406490Y1124830D02*
X2394670Y1136650D01*
X2394670Y1164357D01*
X2406650Y1176338D01*
X2406650Y1200150D01*
X2393950Y1212850D01*
X2381250Y1150938D02*
G54D15*
D03*
X2406650Y1150938D02*
G54D30*
D03*
X2432050Y1150938D02*
G54D15*
D03*
X2457450Y1150938D02*
G54D15*
D03*
X2482850Y1150938D02*
G54D15*
D03*
G54D14*
X2305050Y984250D02*
X2305050Y1028700D01*
X2317750Y1041400D01*
X2317750Y1085850D01*
X2330450Y1098550D01*
X2330450Y1098550D02*
G54D11*
D03*
X2482850Y1098550D02*
G54D11*
D03*
G54D14*
X2482850Y1098550D02*
X2482850Y1124670D01*
X2482690Y1124830D01*
X2481970Y1124830D01*
X2470150Y1136650D01*
X2470150Y1162050D01*
X2444750Y1187450D01*
G54D14*
X2330450Y984250D02*
X2330450Y1025525D01*
X2343150Y1038225D01*
X2343150Y1066800D01*
X2355850Y1079500D01*
X2355850Y1098550D01*
X2355850Y1098550D02*
G54D11*
D03*
X2432050Y1098550D02*
G54D11*
D03*
G54D14*
X2432050Y1098550D02*
X2432050Y1124670D01*
X2431890Y1124830D01*
X2431890Y1128872D01*
X2419350Y1141412D01*
X2419350Y1187450D01*
X2349500Y1019175D02*
G54D11*
D03*
X2432050Y1016000D02*
G54D11*
D03*
G54D14*
X2355850Y984250D02*
X2355850Y1012825D01*
X2349500Y1019175D01*
G54D14*
X2432050Y1016000D02*
X2432050Y1073150D01*
X2457450Y1098550D01*
X2457450Y1124669D01*
X2457290Y1124829D01*
X2456570Y1124829D01*
X2444750Y1136650D01*
X2444750Y1162050D01*
X2432050Y1174750D01*
X2432050Y1200150D01*
X2419350Y1212850D01*
G54D14*
X2381250Y984250D02*
X2381250Y985838D01*
X2393950Y998538D01*
X2393950Y1111969D01*
X2381090Y1124829D01*
X2368390Y1137529D01*
X2368390Y1161890D01*
X2393950Y1187450D01*
G54D31*
X2514600Y990600D02*
X2514600Y1047750D01*
X2508250Y1054100D01*
X2508250Y1124670D01*
X2508090Y1124830D01*
G36*
X2389090Y1269230D02*
X2373090Y1269230D01*
X2373090Y1285230D01*
X2389090Y1285230D01*
X2389090Y1269230D01*
G37*
X2355690Y1277230D02*
G54D15*
D03*
X2330290Y1277229D02*
G54D15*
D03*
X2304890Y1277230D02*
G54D15*
D03*
X2279490Y1277229D02*
G54D15*
D03*
X2254090Y1277229D02*
G54D15*
D03*
X2254250Y1303338D02*
G54D15*
D03*
X2279650Y1303338D02*
G54D15*
D03*
X2305050Y1303338D02*
G54D15*
D03*
X2330450Y1303338D02*
G54D15*
D03*
X2355850Y1303338D02*
G54D15*
D03*
X2446338Y1303338D02*
G54D15*
D03*
X2471738Y1303338D02*
G54D15*
D03*
X2497138Y1303338D02*
G54D15*
D03*
X2522538Y1303338D02*
G54D15*
D03*
X2547938Y1303338D02*
G54D15*
D03*
G36*
X2412258Y1285008D02*
X2428258Y1285008D01*
X2428258Y1269008D01*
X2412258Y1269008D01*
X2412258Y1285008D01*
G37*
X2445658Y1277008D02*
G54D15*
D03*
X2471058Y1277008D02*
G54D15*
D03*
X2496458Y1277008D02*
G54D15*
D03*
X2521858Y1277008D02*
G54D15*
D03*
X2547258Y1277008D02*
G54D15*
D03*
X2241550Y1123950D02*
G54D15*
D03*
X2343150Y1123950D02*
G54D15*
D03*
X2328862Y1136650D02*
G54D11*
D03*
G54D14*
X2305050Y1060450D02*
X2305050Y1093788D01*
X2328862Y1117600D01*
X2328862Y1136650D01*
X2336800Y1079500D02*
G54D11*
D03*
G54D14*
X2336800Y1079500D02*
X2343150Y1085850D01*
X2343150Y1123950D01*
X2343150Y1187450D01*
X2330450Y1200150D01*
X2330450Y1251990D01*
X2355690Y1277230D01*
X2824162Y1233488D02*
G54D11*
D03*
G54D14*
X2824162Y1233488D02*
X2827338Y1233488D01*
X2840038Y1246188D01*
X2840038Y1395412D01*
X2825750Y1409700D01*
X2804318Y1409700D01*
X2803640Y1410378D01*
X2476500Y1079500D02*
G54D11*
D03*
G54D14*
X2476500Y1079500D02*
X2476500Y931862D01*
X2459038Y914400D01*
X2459038Y771525D01*
X2476500Y754062D01*
X2476500Y639762D01*
X2463800Y627062D01*
X2463800Y449262D01*
X2457450Y442912D01*
X2457450Y123825D01*
X2457450Y123825D02*
G54D11*
D03*
G54D14*
X1731962Y332581D02*
X1724819Y332581D01*
X1720850Y328612D01*
X1684338Y328612D01*
X1663700Y307975D01*
X1663700Y150812D01*
X1677988Y136525D01*
X2197740Y1324419D02*
G54D15*
D03*
X2197740Y1426019D02*
G54D15*
D03*
X2233612Y1473200D02*
G54D11*
D03*
G54D14*
X2233612Y1473200D02*
X2233612Y1297707D01*
X2254090Y1277229D01*
G54D14*
X2254090Y1277229D02*
X2254090Y1271748D01*
X2279650Y1246188D01*
X2279650Y1200150D01*
X2292350Y1187450D01*
X2133600Y1174750D02*
G54D11*
D03*
G54D14*
X2133600Y1174750D02*
X2139950Y1168400D01*
X2139950Y1136650D01*
X2128838Y1125538D01*
X2128838Y889000D01*
X2103438Y863600D01*
X2103438Y750888D01*
X2051050Y698500D01*
X2051050Y639762D01*
X2070100Y620712D01*
X2070100Y257175D01*
X2057400Y244475D01*
X2057400Y244475D02*
G54D11*
D03*
X1751012Y233362D02*
G54D11*
D03*
G54D14*
X1770459Y224631D02*
X1759744Y224631D01*
X1751012Y233362D01*
G54D14*
X2203450Y1060450D02*
X2203450Y1125538D01*
X2209800Y1131888D01*
X2209800Y1155700D01*
X2203450Y1162050D01*
X2203450Y1270000D01*
X2197100Y1276350D01*
X2197100Y1323779D01*
X2197740Y1324419D01*
G54D14*
X2228850Y1060450D02*
X2228850Y1085850D01*
X2241550Y1098550D01*
X2241550Y1098550D02*
G54D11*
D03*
X2152650Y1092200D02*
G54D11*
D03*
G54D14*
X2152650Y1092200D02*
X2152650Y919162D01*
X2159000Y912812D01*
X2159000Y741362D01*
X2190750Y709612D01*
X2190750Y601662D01*
X2184400Y595312D01*
X2184400Y595312D02*
G54D11*
D03*
G54D14*
X2279650Y671513D02*
X2279650Y614362D01*
X2260600Y741362D02*
G54D16*
D03*
X2286000Y741362D02*
G54D16*
D03*
X2254250Y652462D02*
G54D11*
D03*
X2424112Y652462D02*
G54D11*
D03*
X2424112Y747712D02*
G54D11*
D03*
G54D14*
X2424112Y652462D02*
X2424112Y747712D01*
X2901950Y755650D02*
G54D11*
D03*
X2889250Y696912D02*
G54D16*
D03*
X2990850Y696912D02*
G54D16*
D03*
G54D14*
X2901950Y755650D02*
X2901950Y709612D01*
X2889250Y696912D01*
X2889250Y612775D02*
G54D16*
D03*
X2990850Y612775D02*
G54D16*
D03*
G54D14*
X2990850Y696912D02*
X2990910Y659020D01*
X2990850Y612775D01*
X2844800Y612775D02*
G54D11*
D03*
G54D14*
X2254250Y652462D02*
X2254250Y690562D01*
X2254250Y735012D01*
X2260600Y741362D01*
G54D14*
X2279650Y690562D02*
X2279650Y735012D01*
X2286000Y741362D01*
G54D14*
X843932Y243656D02*
X843932Y243858D01*
X868362Y268288D01*
X868362Y331788D01*
X889000Y352425D01*
X888845Y379251D01*
X2355850Y576262D02*
G54D16*
D03*
X2406650Y576262D02*
G54D16*
D03*
X2355850Y544512D02*
G54D16*
D03*
X2406650Y544512D02*
G54D16*
D03*
X2330863Y544432D02*
G54D16*
D03*
X2229263Y544432D02*
G54D16*
D03*
G54D14*
X2355850Y614362D02*
X2355850Y576262D01*
G54D14*
X2381250Y614362D02*
X2381250Y590562D01*
X2395550Y576262D01*
X2406650Y576262D01*
X2228850Y434975D02*
G54D11*
D03*
G54D14*
X2228850Y434975D02*
X2228850Y544019D01*
X2229263Y544432D01*
X2438400Y430212D02*
G54D11*
D03*
G54D14*
X2355850Y576262D02*
X2355850Y544512D01*
G54D14*
X2406650Y576262D02*
X2406650Y544512D01*
G54D14*
X2406650Y614362D02*
X2406650Y690562D01*
G36*
X2719290Y1178742D02*
X2703290Y1178742D01*
X2703290Y1194742D01*
X2719290Y1194742D01*
X2719290Y1178742D01*
G37*
X2685890Y1186742D02*
G54D15*
D03*
X2660490Y1186742D02*
G54D15*
D03*
X2635090Y1186742D02*
G54D15*
D03*
X2609690Y1186742D02*
G54D15*
D03*
X2584290Y1186742D02*
G54D15*
D03*
G54D32*
X2330450Y690562D02*
X2330450Y760412D01*
X2317750Y773112D01*
X2317750Y823912D01*
X2292350Y849312D01*
X2292350Y1022350D01*
X2292350Y1022350D02*
G54D11*
D03*
X2584450Y1028700D02*
G54D11*
D03*
G54D32*
X2584450Y1028700D02*
X2584450Y1123950D01*
G54D32*
X2381250Y690562D02*
X2381250Y728662D01*
X2427288Y774700D01*
X2427288Y935038D01*
X2438400Y946150D01*
X2438400Y958850D01*
X2438400Y958850D02*
G54D11*
D03*
X2506662Y958850D02*
G54D11*
D03*
G54D32*
X2506662Y958850D02*
X2509838Y958850D01*
X2527300Y976312D01*
X2527300Y1073150D01*
X2520950Y1079500D01*
X2520950Y1187450D01*
X2520950Y1187450D02*
G54D11*
D03*
X3424238Y1149350D02*
G54D11*
D03*
G54D32*
X3424238Y1149350D02*
X3424238Y1435100D01*
G54D32*
X2254250Y869950D02*
X2254250Y900112D01*
X2520950Y869950D02*
G54D11*
D03*
G54D32*
X2520950Y869950D02*
X2520950Y952500D01*
X2540000Y971550D01*
X2540000Y1016000D01*
X2540000Y1016000D02*
G54D11*
D03*
X2965450Y1022350D02*
G54D11*
D03*
G54D32*
X2965450Y1022350D02*
X2965450Y971550D01*
G54D32*
X2254250Y1060450D02*
X2254250Y1065212D01*
X2260600Y1071562D01*
X2260600Y1108075D01*
X2281238Y1128712D01*
X2281238Y1149350D01*
X2305050Y1173162D01*
X2305050Y1195388D01*
X2295525Y1204912D01*
X2295525Y1209675D01*
X2292350Y1212850D01*
X2292350Y1264369D01*
X2279490Y1277229D01*
X2279490Y1279685D01*
X2266950Y1292225D01*
X2266950Y1316038D01*
X2254250Y1328738D01*
X2254250Y1460500D01*
X2254250Y1460500D02*
G54D11*
D03*
X2686050Y1460500D02*
G54D11*
D03*
X2686050Y1354138D02*
G54D33*
D03*
X2120900Y1225550D02*
G54D33*
D03*
G54D32*
X2120900Y1225550D02*
X2120900Y1168400D01*
X2133600Y1155700D01*
X2133600Y1141412D01*
X2122488Y1130300D01*
X2122488Y895350D01*
X2097088Y869950D01*
X2097088Y763588D01*
X2044700Y711200D01*
X2044700Y628650D01*
X2063750Y609600D01*
X2063750Y282575D01*
X2025650Y244475D01*
X2025650Y244475D02*
G54D33*
D03*
X1731962Y244475D02*
G54D33*
D03*
G54D32*
X1731962Y262731D02*
X1731962Y244475D01*
G54D32*
X2279650Y1060450D02*
X2279650Y1077912D01*
X2286000Y1084262D01*
X2286000Y1120775D01*
X2298700Y1133475D01*
X2298700Y1149350D01*
X2298700Y1149350D02*
G54D33*
D03*
G54D32*
X2298700Y1149350D02*
X2317750Y1168400D01*
X2317750Y1187450D01*
X2317750Y1193800D01*
X2305050Y1206500D01*
X2305050Y1277070D01*
X2304890Y1277230D01*
X2304170Y1277230D01*
X2292350Y1289050D01*
X2292350Y1314450D01*
X2273300Y1333500D01*
X2273300Y1447800D01*
X2273300Y1447800D02*
G54D33*
D03*
X2120900Y1149350D02*
G54D33*
D03*
G54D32*
X2120900Y1149350D02*
X2116138Y1144588D01*
X2116138Y901700D01*
X2089150Y874712D01*
X2089150Y773112D01*
X2038350Y722312D01*
X2038350Y614362D01*
X2057400Y595312D01*
X2057400Y301625D01*
X2051050Y295275D01*
X2051050Y295275D02*
G54D33*
D03*
X1797050Y295275D02*
G54D33*
D03*
G54D32*
X1760538Y292497D02*
X1794272Y292497D01*
X1797050Y295275D01*
X1822450Y322262D02*
G54D33*
D03*
G54D32*
X1760538Y322659D02*
X1822053Y322659D01*
X1822450Y322262D01*
X2044700Y322262D02*
G54D33*
D03*
G54D32*
X2044700Y322262D02*
X2046288Y322262D01*
X2051050Y327025D01*
X2051050Y581025D01*
X2032000Y600075D01*
X2032000Y733425D01*
X2082800Y784225D01*
X2082800Y881062D01*
X2109788Y908050D01*
X2109788Y1238250D01*
X2109788Y1238250D02*
G54D33*
D03*
G54D32*
X2317750Y1212850D02*
X2317750Y1264689D01*
X2330290Y1277229D01*
G54D32*
X2330290Y1277229D02*
X2330290Y1277778D01*
X2343150Y1290638D01*
X2343150Y1430338D01*
X2343150Y1430338D02*
G54D33*
D03*
G54D14*
X2228850Y869950D02*
X2228850Y915988D01*
X2233612Y920750D01*
X2660650Y1009650D02*
G54D33*
D03*
X2686050Y1009650D02*
G54D33*
D03*
X2584450Y1214438D02*
G54D15*
D03*
X2609850Y1214438D02*
G54D15*
D03*
X2635250Y1214438D02*
G54D15*
D03*
X2660650Y1214438D02*
G54D15*
D03*
X2686050Y1214438D02*
G54D15*
D03*
G54D24*
X2559050Y1060450D02*
X2559050Y1123950D01*
X2559050Y1203325D01*
X2570162Y1214438D01*
X2584450Y1214438D01*
X2609850Y1214438D01*
X3035300Y1214438D02*
G54D23*
D03*
X3054350Y1214438D02*
G54D23*
D03*
X2760662Y1289050D02*
G54D16*
D03*
X2760662Y1187450D02*
G54D16*
D03*
X2787650Y1289050D02*
G54D18*
D03*
X2787650Y1187450D02*
G54D18*
D03*
G54D14*
X2660650Y971550D02*
X2660650Y1009650D01*
X2990850Y1009650D02*
G54D11*
D03*
G54D14*
X2990850Y1009650D02*
X2990850Y971550D01*
G54D14*
X2686050Y1009650D02*
X2686050Y1079500D01*
X2673350Y1092200D01*
X2673350Y1155700D01*
X2660650Y1168400D01*
X2660650Y1186582D01*
X2660490Y1186742D01*
X3067050Y1066800D02*
G54D11*
D03*
G54D14*
X3041650Y971550D02*
X3060700Y971550D01*
X3067050Y977900D01*
X3067050Y1066800D01*
X2705100Y1073150D02*
G54D11*
D03*
G54D14*
X2705100Y1073150D02*
X2698750Y1079500D01*
X2698750Y1155700D01*
X2686050Y1168400D01*
X2686050Y1186582D01*
X2685890Y1186742D01*
G54D14*
X3041650Y971550D02*
X3041650Y876300D01*
X3048000Y869950D01*
X3048000Y869950D02*
G54D11*
D03*
X3208141Y870146D02*
G54D11*
D03*
G54D14*
X3208141Y870146D02*
X3208141Y901504D01*
X3233738Y927100D01*
X3233738Y1354138D01*
X3233738Y1354138D02*
G54D11*
D03*
X3138488Y1354138D02*
G54D11*
D03*
G54D14*
X3144838Y1435100D02*
X3144838Y1360488D01*
X3138488Y1354138D01*
G54D14*
X3041650Y1123950D02*
X3041650Y990600D01*
G54D14*
X2940050Y1123950D02*
X2940050Y1341438D01*
X2940050Y1341438D02*
G54D11*
D03*
X3119438Y1347788D02*
G54D11*
D03*
G54D14*
X3119438Y1435100D02*
X3119438Y1347788D01*
X3259138Y1341438D02*
G54D11*
D03*
G54D14*
X3259138Y1341438D02*
X3259138Y939800D01*
X3221038Y901700D01*
X3221038Y844550D01*
X3221038Y844550D02*
G54D11*
D03*
G54D14*
X2914650Y1123950D02*
X2914650Y1047750D01*
X2901950Y1035050D01*
X2901950Y920750D01*
X2901950Y920750D02*
G54D11*
D03*
X3220841Y946346D02*
G54D11*
D03*
G54D14*
X3220841Y946346D02*
X3220841Y1434904D01*
X3221038Y1435100D01*
G54D14*
X2889250Y1123950D02*
X2889250Y1014412D01*
X2876550Y1001712D01*
X2876550Y939800D01*
X2876550Y939800D02*
G54D11*
D03*
X3246438Y971550D02*
G54D11*
D03*
G54D14*
X3246438Y971550D02*
X3246438Y1435100D01*
X2863850Y1028700D02*
G54D11*
D03*
G54D14*
X2863850Y1123950D02*
X2863850Y1028700D01*
X3297041Y1022546D02*
G54D11*
D03*
G54D14*
X3297041Y1022546D02*
X3297041Y1434904D01*
X3297238Y1435100D01*
X2838450Y1054100D02*
G54D11*
D03*
G54D14*
X2838450Y1123950D02*
X2838450Y1054100D01*
X3278188Y1060450D02*
G54D11*
D03*
G54D14*
X3278188Y1060450D02*
X3278188Y1358900D01*
X3271838Y1365250D01*
X3271838Y1435100D01*
X3271838Y996950D02*
G54D11*
D03*
G54D14*
X3278188Y1060450D02*
X3278188Y1003300D01*
X3271838Y996950D01*
X3398641Y1124146D02*
G54D11*
D03*
G54D14*
X3398641Y1124146D02*
X3398641Y1434904D01*
X3398838Y1435100D01*
G54D24*
X2787650Y990600D02*
X2787650Y1123950D01*
X2762250Y1079500D02*
G54D11*
D03*
G54D14*
X2762250Y1079500D02*
X2762250Y1123950D01*
X2762250Y1149350D01*
X2774950Y1162050D01*
X2774950Y1252538D01*
X2760662Y1266825D01*
X2760662Y1289050D01*
X3373438Y1098550D02*
G54D11*
D03*
G54D14*
X3373438Y1098550D02*
X3373438Y1435100D01*
X2736850Y1041400D02*
G54D11*
D03*
G54D14*
X2736850Y1123950D02*
X2736850Y1041400D01*
X3322441Y1047946D02*
G54D11*
D03*
G54D14*
X3322441Y1047946D02*
X3322441Y1434904D01*
X3322638Y1435100D01*
G54D14*
X2711450Y1123950D02*
X2711450Y1161502D01*
X2725578Y1174042D01*
X2725578Y1252698D01*
X2706688Y1271588D01*
X2706688Y1271588D02*
G54D11*
D03*
X3348038Y1136650D02*
G54D11*
D03*
G54D14*
X3348038Y1136650D02*
X3348038Y1435100D01*
X2851150Y1092200D02*
G54D11*
D03*
X2851150Y1187450D02*
G54D11*
D03*
G54D14*
X2851150Y1187450D02*
X2851150Y1092200D01*
X3475038Y1200150D02*
G54D11*
D03*
G54D14*
X3475038Y1200150D02*
X3475038Y1435100D01*
G54D14*
X2635090Y1186742D02*
X2635090Y1124110D01*
X2635250Y1123950D01*
X2635250Y1098550D01*
X2673350Y1060450D01*
X2673350Y927100D01*
X2692400Y908050D01*
X2692400Y908050D02*
G54D11*
D03*
X3195441Y895546D02*
G54D11*
D03*
G54D14*
X3195441Y895546D02*
X3195441Y1340046D01*
X3170238Y1365250D01*
X3170238Y1435100D01*
G54D14*
X2609690Y1186742D02*
X2609690Y1124110D01*
X2609850Y1123950D01*
X2609850Y1047750D01*
X2622550Y1035050D01*
X2622550Y938212D01*
X2622550Y938212D02*
G54D11*
D03*
X3208338Y920750D02*
G54D11*
D03*
G54D14*
X3208338Y920750D02*
X3208338Y1341438D01*
X3195638Y1354138D01*
X3195638Y1435100D01*
X3106738Y1322388D02*
G54D11*
D03*
X3132138Y1322388D02*
G54D11*
D03*
X3106738Y1296988D02*
G54D11*
D03*
X3151188Y1296988D02*
G54D11*
D03*
G54D14*
X3112668Y1225746D02*
X3112668Y1271168D01*
X3117850Y1276350D01*
X3117850Y1333500D01*
X3103562Y1347788D01*
X3074988Y1347788D01*
G54D14*
X3074988Y1322388D02*
X3106738Y1322388D01*
G54D14*
X3074988Y1296988D02*
X3106738Y1296988D01*
G54D14*
X3112668Y1200346D02*
X3113284Y1200346D01*
X3125788Y1212850D01*
X3125788Y1316038D01*
X3132138Y1322388D01*
G54D14*
X3112669Y1174946D02*
X3125172Y1187450D01*
X3144838Y1187450D01*
X3151188Y1193800D01*
X3151188Y1296988D01*
G54D14*
X3074988Y1271588D02*
X3087688Y1271588D01*
X3098800Y1260475D01*
X3098800Y1163415D01*
X3112669Y1149546D01*
G54D14*
X3074988Y1246188D02*
X3084512Y1246188D01*
X3089275Y1241425D01*
X3089275Y1147540D01*
X3112669Y1124146D01*
G54D14*
X3074988Y1220788D02*
X3074988Y1219200D01*
X3068638Y1212850D01*
X3068638Y1142778D01*
X3112669Y1098746D01*
G54D24*
X3112669Y997146D02*
X3112669Y971746D01*
X3112668Y946346D01*
X3112668Y920946D01*
X3112668Y895546D01*
X3112668Y870146D01*
X3112668Y844746D01*
X3112668Y819346D01*
X4129088Y1374775D02*
G54D20*
D03*
X4175125Y1374775D02*
G54D20*
D03*
G54D24*
X4175125Y1374775D02*
X4175125Y1382712D01*
X4181475Y1389062D01*
X4181475Y1433012D01*
X4180975Y1433512D01*
G54D31*
X2355850Y1303338D02*
X2355850Y1404938D01*
X2381250Y1430338D01*
X2435225Y1430338D01*
X2443162Y1422400D01*
X2443162Y1411072D01*
X2443856Y1410378D01*
G54D14*
X2203450Y869950D02*
X2203450Y817562D01*
X2216150Y804862D01*
X2216150Y723900D01*
X2222500Y717550D01*
X2763838Y704850D02*
G54D11*
D03*
G54D14*
X2763838Y704850D02*
X2752725Y704850D01*
X2743200Y695325D01*
X2743200Y423862D01*
X2724150Y404812D01*
X2724150Y347662D01*
X2698750Y322262D01*
X2698750Y231775D01*
X2686050Y219075D01*
X2686050Y155575D01*
X2368550Y1041400D02*
G54D11*
D03*
G54D14*
X2368550Y1041400D02*
X2368550Y1103312D01*
X2355850Y1116012D01*
X2355850Y1200150D01*
X2368550Y1212850D01*
G54D31*
X2368550Y1212850D02*
X2368550Y1264690D01*
X2381090Y1277230D01*
X2095500Y1187450D02*
G54D11*
D03*
X2095500Y1219200D02*
G54D11*
D03*
G54D14*
X2095500Y1187450D02*
X2103438Y1179512D01*
X2103438Y914400D01*
X2076450Y887412D01*
X2076450Y790575D01*
X2019300Y733425D01*
X2019300Y644525D01*
X2019300Y644525D02*
G54D11*
D03*
X1530350Y633412D02*
G54D11*
D03*
G54D14*
X1530350Y633412D02*
X1530350Y314325D01*
X1536700Y307975D01*
X1536700Y128588D01*
X1536700Y128588D02*
G54D11*
D03*
G54D14*
X2095500Y1219200D02*
X2095500Y1214438D01*
X2082800Y1201738D01*
X2082800Y1181100D01*
X2097088Y1166812D01*
X2097088Y920750D01*
X2052638Y876300D01*
X2052638Y785812D01*
X1995488Y728662D01*
X1995488Y652462D01*
X1995488Y652462D02*
G54D11*
D03*
X1511300Y646112D02*
G54D11*
D03*
G54D14*
X1511300Y646112D02*
X1511300Y136525D01*
X1511300Y136525D02*
G54D11*
D03*
X1828800Y481012D02*
G54D11*
D03*
G54D14*
X1829991Y450056D02*
X1829991Y479822D01*
X1828800Y481012D01*
X2317750Y455612D02*
G54D11*
D03*
G54D14*
X2317750Y455612D02*
X2317750Y379412D01*
X2317750Y346075D01*
X2305050Y333375D01*
X2305050Y250825D01*
X2317750Y238125D01*
X2317750Y219075D01*
X1797050Y487362D02*
G54D11*
D03*
G54D14*
X1800225Y450056D02*
X1800225Y484188D01*
X1797050Y487362D01*
X2336800Y449262D02*
G54D11*
D03*
G54D14*
X2336800Y449262D02*
X2336800Y422275D01*
X2343150Y415925D01*
X2343150Y379412D01*
X2343150Y346075D01*
X2330450Y333375D01*
X2330450Y257175D01*
X2343150Y244475D01*
X2343150Y219075D01*
X1809750Y500062D02*
G54D11*
D03*
G54D14*
X1810147Y450056D02*
X1810147Y499666D01*
X1809750Y500062D01*
X2362200Y461962D02*
G54D11*
D03*
G54D14*
X2362200Y461962D02*
X2362200Y422275D01*
X2368550Y415925D01*
X2368550Y379412D01*
X2368550Y346075D01*
X2355850Y333375D01*
X2355850Y258762D01*
X2368550Y246062D01*
X2368550Y219075D01*
X1847850Y500062D02*
G54D11*
D03*
G54D14*
X1849834Y450056D02*
X1849834Y498078D01*
X1847850Y500062D01*
X2381250Y468312D02*
G54D11*
D03*
G54D14*
X2381250Y468312D02*
X2381250Y460375D01*
X2387600Y454025D01*
X2387600Y422275D01*
X2393950Y415925D01*
X2393950Y379412D01*
G54D14*
X2393950Y379412D02*
X2393950Y346075D01*
X2381250Y333375D01*
X2381250Y257175D01*
X2393950Y244475D01*
X2393950Y219075D01*
X1866900Y284162D02*
G54D11*
D03*
G54D14*
X1869678Y421481D02*
X1869678Y410766D01*
X1866900Y407988D01*
X1866900Y284162D01*
G54D14*
X2393950Y303212D02*
X2393950Y257175D01*
X2406650Y244475D01*
X2406650Y187325D01*
X2393950Y174625D01*
X2393950Y142875D01*
X1784350Y474662D02*
G54D11*
D03*
G54D14*
X1790303Y450056D02*
X1790303Y468710D01*
X1784350Y474662D01*
X2374900Y442912D02*
G54D11*
D03*
G54D14*
X2374900Y442912D02*
X2374900Y422275D01*
X2381250Y415925D01*
X2381250Y346075D01*
X2368550Y333375D01*
X2368550Y303212D01*
X2368550Y257175D01*
X2381250Y244475D01*
X2381250Y187325D01*
X2368550Y174625D01*
X2368550Y142875D01*
X1873250Y500062D02*
G54D11*
D03*
X1889125Y493712D02*
G54D11*
D03*
G54D14*
X1879600Y450056D02*
X1879600Y481012D01*
X1873250Y487362D01*
X1873250Y500062D01*
X2343150Y493712D02*
G54D11*
D03*
G54D14*
X2343150Y493712D02*
X2343150Y460375D01*
X2349500Y454025D01*
X2349500Y422275D01*
X2355850Y415925D01*
X2355850Y346075D01*
X2343150Y333375D01*
X2343150Y303212D01*
G54D14*
X2343150Y303212D02*
X2343150Y257175D01*
X2355850Y244475D01*
X2355850Y187325D01*
X2343150Y174625D01*
X2343150Y142875D01*
G54D14*
X1889125Y450056D02*
X1889125Y493712D01*
X2393950Y493712D02*
G54D11*
D03*
G54D14*
X2393950Y493712D02*
X2406650Y481012D01*
X2406650Y447675D01*
X2419350Y434975D01*
X2419350Y379412D01*
X2419350Y346075D01*
X2406650Y333375D01*
X2406650Y257175D01*
X2419350Y244475D01*
X2419350Y219075D01*
G54D24*
X3157538Y1412875D02*
X3157538Y1352550D01*
X3168650Y1341438D01*
X3168650Y798512D01*
X3114675Y798512D01*
X3098800Y782638D01*
X3098800Y676276D01*
X3055937Y633413D01*
G54D24*
X3112668Y819346D02*
X3112668Y800519D01*
X3114675Y798512D01*
G54D24*
X3055937Y633413D02*
X3055937Y406400D01*
X3067050Y395288D01*
X3067050Y47625D01*
G54D24*
X3016250Y447675D02*
X3055938Y447675D01*
X3090862Y582612D02*
G54D26*
D03*
X3208338Y582612D02*
G54D26*
D03*
G54D14*
X2292350Y142875D02*
X2292350Y174625D01*
X2305050Y187325D01*
X2305050Y239712D01*
X2292350Y252412D01*
X2292350Y303212D01*
X2011362Y309562D02*
G54D11*
D03*
G54D14*
X1957388Y312341D02*
X2008584Y312341D01*
X2011362Y309562D01*
X2178841Y366898D02*
G54D16*
D03*
X2178841Y316098D02*
G54D16*
D03*
X2178841Y204973D02*
G54D16*
D03*
X2178841Y154173D02*
G54D16*
D03*
G54D24*
X2216150Y379412D02*
X2216150Y303212D01*
X2216150Y219075D01*
X2216150Y142875D01*
X2216150Y49212D01*
G54D24*
X2178841Y316098D02*
X2178841Y315116D01*
X2147888Y284162D01*
X2147888Y185126D01*
X2178841Y154173D01*
G54D24*
X2178973Y233004D02*
X2178973Y205105D01*
X2178841Y204973D01*
G54D24*
X2419350Y142875D02*
X2422525Y142875D01*
X2438400Y158750D01*
X2438400Y303212D01*
X2419350Y303212D01*
G54D24*
X2438400Y303212D02*
X2438400Y430212D01*
X2438400Y447675D01*
X2425700Y460375D01*
X2425700Y488950D01*
X2437656Y500907D01*
X2450718Y500906D01*
G54D24*
X2711450Y155575D02*
X2711450Y49212D01*
G54D24*
X2914650Y307975D02*
X2914650Y334962D01*
X2898775Y350838D01*
X2851150Y350838D01*
X2844800Y357188D01*
X2844800Y523875D01*
X2863850Y523875D01*
G54D24*
X2844800Y523875D02*
X2844800Y612775D01*
X2844800Y671513D01*
X2863850Y690562D01*
X2863850Y760412D01*
X2844800Y779462D01*
X2844800Y849312D01*
X2863850Y868362D01*
G54D24*
X2445541Y855849D02*
X2445541Y926303D01*
X2463800Y944562D01*
X2463800Y1028935D01*
X2445304Y1047431D01*
G54D24*
X2584450Y1214438D02*
X2584450Y1295400D01*
X2576512Y1303338D01*
X2547938Y1303338D01*
X2514600Y1409700D02*
G54D23*
D03*
X1816100Y384175D02*
G54D34*
D03*
X1884362Y384175D02*
G54D34*
D03*
X1897062Y384175D02*
G54D34*
D03*
G54D35*
X1644560Y409575D02*
X1670050Y409575D01*
X1670050Y342900D01*
X1729184Y342900D01*
G54D35*
X1926828Y332184D02*
X1917303Y332184D01*
X1897062Y352425D01*
X1897062Y384175D01*
G54D14*
X1760538Y352425D02*
X1784350Y352425D01*
X1816100Y384175D01*
G54D24*
X1644650Y696912D02*
X1644560Y409575D01*
G54D24*
X1644560Y384175D02*
X1644356Y49507D01*
X1644650Y49212D01*
X1344612Y1392238D02*
G54D34*
D03*
X1327150Y1392238D02*
G54D34*
D03*
X1309688Y1392238D02*
G54D34*
D03*
G54D24*
X1309688Y1392238D02*
X1308100Y1392238D01*
X1276350Y1360488D01*
X1276350Y869950D01*
X1276350Y742950D01*
X1276350Y730250D01*
G54D24*
X1250950Y760412D02*
X1276350Y760412D01*
G54D24*
X1257854Y1017269D02*
X1276032Y1017269D01*
X1276350Y1017588D01*
G54D24*
X1276350Y869950D02*
X1301750Y869950D01*
G54D24*
X1276350Y730250D02*
X1263650Y717550D01*
X1263650Y601513D01*
X1238848Y576711D01*
G54D24*
X1238848Y576711D02*
X1238848Y548677D01*
X1276350Y511175D01*
X1276350Y449262D01*
X1301750Y449262D01*
X1276350Y449262D01*
X1276350Y219075D01*
X1301750Y219075D01*
X1276350Y219075D01*
X1276350Y77788D01*
X1276350Y77788D02*
G54D34*
D03*
G54D24*
X1309688Y1392238D02*
X1327150Y1392238D01*
X1344612Y1392238D01*
G54D24*
X1454150Y373062D02*
X1479550Y347662D01*
X1479550Y168275D01*
X1454150Y142875D01*
X1454150Y52388D01*
G54D24*
X1465262Y52388D02*
X1465262Y153988D01*
X1466850Y155575D01*
G54D14*
X2889250Y868362D02*
X2889250Y882650D01*
X2927350Y920750D01*
X2927350Y1258888D01*
X2927350Y1258888D02*
G54D11*
D03*
G54D14*
X2547258Y1277008D02*
X2547258Y1277029D01*
X2535238Y1289050D01*
X2535238Y1357312D01*
X2484438Y1408112D01*
X2474118Y1408112D01*
X2471852Y1410378D01*
G54D14*
X2914650Y868362D02*
X2914650Y857250D01*
X2927350Y844550D01*
X2927350Y506412D01*
X2927350Y506412D02*
G54D11*
D03*
X2728912Y487362D02*
G54D11*
D03*
G54D14*
X2728912Y487362D02*
X2711450Y469900D01*
X2711450Y415925D01*
X2711450Y415925D02*
G54D11*
D03*
G36*
X2551050Y387412D02*
X2567050Y387412D01*
X2567050Y371412D01*
X2551050Y371412D01*
X2551050Y387412D01*
G37*
X2584450Y379412D02*
G54D15*
D03*
X2609850Y379412D02*
G54D15*
D03*
X2635250Y379412D02*
G54D15*
D03*
X2660650Y379412D02*
G54D15*
D03*
X2686050Y379412D02*
G54D15*
D03*
X2711450Y379412D02*
G54D15*
D03*
X2736850Y379412D02*
G54D15*
D03*
G54D14*
X2559050Y379412D02*
X2559050Y307975D01*
G54D14*
X2559050Y307975D02*
X2559050Y244475D01*
X2559050Y244475D02*
G54D11*
D03*
X4037012Y244475D02*
G54D11*
D03*
G54D14*
X4037012Y1412875D02*
X4037012Y244475D01*
X4049712Y231775D02*
G54D11*
D03*
G54D14*
X4049712Y231775D02*
X4049712Y1435100D01*
G54D14*
X4075112Y1435100D02*
X4075376Y88900D01*
G54D14*
X4062412Y1412875D02*
X4062412Y219075D01*
X4062412Y219075D02*
G54D11*
D03*
G54D14*
X4087812Y1412875D02*
X4087812Y133350D01*
X4087812Y133350D02*
G54D11*
D03*
G54D14*
X4024312Y1435100D02*
X4024312Y255588D01*
X4024312Y255588D02*
G54D11*
D03*
G54D14*
X4011612Y1412875D02*
X4011612Y268288D01*
X4011612Y268288D02*
G54D11*
D03*
G54D14*
X3998912Y1435100D02*
X3998912Y280988D01*
X3998912Y280988D02*
G54D11*
D03*
G54D14*
X2609850Y379412D02*
X2609850Y365125D01*
X2584450Y339725D01*
X2584450Y307975D01*
X2584450Y250825D01*
X2584450Y250825D02*
G54D11*
D03*
G54D14*
X2660650Y379412D02*
X2660650Y369888D01*
X2643188Y352425D01*
X2620962Y352425D01*
X2609850Y341312D01*
X2609850Y307975D01*
X2609850Y257175D01*
X2609850Y257175D02*
G54D11*
D03*
G54D14*
X2711450Y379412D02*
X2711450Y373062D01*
X2698750Y360362D01*
X2686050Y360362D01*
X2647950Y322262D01*
X2636838Y322262D01*
X2635250Y320675D01*
X2635250Y307975D01*
X2635250Y263525D01*
X2635250Y263525D02*
G54D11*
D03*
G36*
X2881250Y743012D02*
X2897250Y743012D01*
X2897250Y727012D01*
X2881250Y727012D01*
X2881250Y743012D01*
G37*
X2914650Y735012D02*
G54D15*
D03*
X2940050Y735012D02*
G54D15*
D03*
X2965450Y735012D02*
G54D15*
D03*
X2990850Y735012D02*
G54D15*
D03*
X3016250Y735012D02*
G54D15*
D03*
X3041650Y735012D02*
G54D15*
D03*
X3067050Y735012D02*
G54D15*
D03*
X3060700Y830262D02*
G54D11*
D03*
G54D14*
X3060700Y830262D02*
X3060700Y779462D01*
X3081338Y758825D01*
X3081338Y722312D01*
X3067050Y708025D01*
X3067050Y677862D01*
X3067050Y677862D02*
G54D11*
D03*
X3732212Y557212D02*
G54D11*
D03*
G54D14*
X3732212Y557212D02*
X3732212Y1412875D01*
G54D14*
X3744912Y1435100D02*
X3744912Y576262D01*
X3744912Y576262D02*
G54D11*
D03*
X3079750Y793750D02*
G54D11*
D03*
X3079750Y844550D02*
G54D11*
D03*
G54D14*
X3079750Y844550D02*
X3079750Y793750D01*
G54D14*
X3694112Y1435100D02*
X3694112Y92075D01*
X3694112Y92075D02*
G54D11*
D03*
G54D24*
X3795712Y1435100D02*
X3795712Y1425575D01*
X3787775Y1417638D01*
X3787775Y1290638D01*
G54D14*
X2559050Y155575D02*
X2559050Y211138D01*
X2541588Y228600D01*
X2541588Y320675D01*
X2533650Y328612D01*
X2533650Y550862D01*
X2533650Y550862D02*
G54D11*
D03*
X2901950Y582612D02*
G54D11*
D03*
G54D14*
X2901950Y582612D02*
X2901950Y657225D01*
X2914650Y669925D01*
X2914650Y735012D01*
G54D14*
X2889250Y792162D02*
X2889250Y735012D01*
X2863850Y831850D02*
G54D11*
D03*
X2501900Y831850D02*
G54D11*
D03*
G54D14*
X2863850Y831850D02*
X2863850Y792162D01*
G54D14*
X2501900Y831850D02*
X2501900Y941388D01*
X2497138Y946150D01*
X2497138Y974725D01*
X2501900Y979488D01*
X2501900Y1027112D01*
X2495550Y1033462D01*
X2495550Y1136650D01*
X2508250Y1149350D01*
X2508250Y1233488D01*
X2501900Y1239838D01*
X2468562Y1239838D01*
X2446338Y1262062D01*
X2446338Y1276329D01*
X2445658Y1277008D01*
X2487612Y1322388D02*
G54D11*
D03*
X2432050Y1322388D02*
G54D11*
D03*
X2433638Y1255712D02*
G54D11*
D03*
G54D14*
X2471058Y1277008D02*
X2471058Y1256392D01*
X2476500Y1250950D01*
X2511425Y1250950D01*
X2533650Y1228725D01*
X2533650Y1104900D01*
X2533650Y1104900D02*
G54D11*
D03*
X2724150Y1092200D02*
G54D11*
D03*
G54D14*
X2724150Y1092200D02*
X2724150Y938212D01*
X2749550Y912812D01*
X2749550Y793750D01*
X2757488Y785812D01*
X2768600Y785812D01*
X2768600Y785812D02*
G54D11*
D03*
G54D14*
X2445658Y1277008D02*
X2445658Y1284967D01*
X2432050Y1298575D01*
X2432050Y1322388D01*
G54D14*
X2487612Y1322388D02*
X2487612Y1382803D01*
X2487240Y1383175D01*
G54D14*
X2940050Y792162D02*
X2940050Y735012D01*
G54D14*
X2965450Y735012D02*
X2965450Y715962D01*
X2952750Y703262D01*
X2952750Y563562D01*
X2952750Y563562D02*
G54D11*
D03*
X2520950Y525462D02*
G54D11*
D03*
G54D14*
X2520950Y525462D02*
X2527300Y519112D01*
X2527300Y319088D01*
X2533650Y312738D01*
X2533650Y219075D01*
X2546350Y206375D01*
X2546350Y142875D01*
X2552700Y136525D01*
X2579688Y136525D01*
X2584450Y141288D01*
X2584450Y155575D01*
G54D14*
X2609850Y155575D02*
X2609850Y136525D01*
X2597150Y123825D01*
X2544762Y123825D01*
X2533650Y134938D01*
X2533650Y203200D01*
X2527300Y209550D01*
X2527300Y303212D01*
X2520950Y309562D01*
X2520950Y468312D01*
X2508250Y481012D01*
X2508250Y544512D01*
X2514600Y550862D01*
X2514600Y550862D02*
G54D11*
D03*
X3028950Y582612D02*
G54D11*
D03*
G54D14*
X3028950Y582612D02*
X3028950Y709612D01*
X3016250Y722312D01*
X3016250Y735012D01*
G54D14*
X2990850Y792162D02*
X2990850Y735012D01*
G54D14*
X3016250Y868362D02*
X3016250Y827088D01*
X3041650Y801688D01*
X3041650Y735012D01*
G54D14*
X3067050Y735012D02*
X3067050Y733425D01*
X3041650Y708025D01*
X3041650Y569912D01*
X3035300Y563562D01*
X3035300Y474662D01*
X3035300Y474662D02*
G54D11*
D03*
X3122612Y431800D02*
G54D11*
D03*
G54D14*
X3122612Y431800D02*
X3122612Y219075D01*
X3117850Y214312D01*
X3117850Y214312D02*
G54D11*
D03*
X2635250Y220662D02*
G54D11*
D03*
G54D14*
X2635250Y220662D02*
X2635250Y155575D01*
G54D14*
X2965450Y792162D02*
X2965450Y838200D01*
X2952750Y850900D01*
X2952750Y1322388D01*
X2952750Y1322388D02*
G54D11*
D03*
X3033712Y850900D02*
G54D11*
D03*
G54D14*
X3033712Y850900D02*
X3028950Y855662D01*
X3028950Y1182688D01*
X3011488Y1200150D01*
X3011488Y1258888D01*
X3011488Y1258888D02*
G54D11*
D03*
X2400300Y1250950D02*
G54D11*
D03*
G54D14*
X2432443Y1383181D02*
X2432443Y1367231D01*
X2419350Y1354138D01*
X2419350Y1301750D01*
X2433638Y1287462D01*
X2433638Y1255712D01*
G54D14*
X2400300Y1250950D02*
X2400300Y1379134D01*
X2404347Y1383181D01*
G54D14*
X2471058Y1277008D02*
X2471058Y1278617D01*
X2459038Y1290638D01*
X2459038Y1382472D01*
X2459746Y1383181D01*
G54D24*
X2514600Y1409700D02*
X2514600Y1454150D01*
G36*
X2266950Y1482725D02*
X2301875Y1447800D01*
X2649538Y1447800D01*
X2649538Y1482725D01*
X2266950Y1482725D01*
G37*
G54D22*
X2266950Y1482725D02*
X2301875Y1447800D01*
X2649538Y1447800D01*
X2649538Y1482725D01*
X2266950Y1482725D01*
G36*
X2779712Y1487488D02*
X2779712Y1430338D01*
X3038475Y1430338D01*
X3048000Y1420812D01*
X3048000Y1403519D01*
X3054433Y1397086D01*
X3062374Y1397086D01*
X3063875Y1398588D01*
X3063875Y1428750D01*
X3048000Y1444625D01*
X2926404Y1444595D01*
X2926359Y1487726D01*
X2779712Y1487488D01*
G37*
G54D22*
X2779712Y1487488D02*
X2779712Y1430338D01*
X3038475Y1430338D01*
X3048000Y1420812D01*
X3048000Y1403519D01*
X3054433Y1397086D01*
X3062374Y1397086D01*
X3063875Y1398588D01*
X3063875Y1428750D01*
X3048000Y1444625D01*
X2926404Y1444595D01*
X2926359Y1487726D01*
X2779712Y1487488D01*
G54D22*
X3054433Y1397086D02*
X3054433Y1428667D01*
X3054350Y1428750D01*
X3821112Y104775D02*
G54D11*
D03*
G54D14*
X3821112Y1435100D02*
X3821112Y104775D01*
X3806825Y92075D02*
G54D11*
D03*
G54D14*
X3806825Y1412875D02*
X3806825Y92075D01*
X3833812Y115888D02*
G54D11*
D03*
G54D14*
X3833812Y1412875D02*
X3833812Y115888D01*
X3846512Y130175D02*
G54D11*
D03*
G54D36*
X3846512Y1435100D02*
X3846512Y130175D01*
X3859212Y142875D02*
G54D11*
D03*
G54D36*
X3859212Y1412875D02*
X3859212Y142875D01*
X3871912Y155575D02*
G54D11*
D03*
G54D36*
X3871912Y1435100D02*
X3871912Y155575D01*
X3884612Y168275D02*
G54D11*
D03*
G54D36*
X3884612Y1412875D02*
X3884612Y168275D01*
X3986212Y180975D02*
G54D11*
D03*
G54D36*
X3986212Y1412875D02*
X3986212Y180975D01*
X3973512Y193675D02*
G54D11*
D03*
G54D36*
X3973512Y1435100D02*
X3973512Y193675D01*
X3960812Y206375D02*
G54D11*
D03*
G54D36*
X3960812Y1412875D02*
X3960812Y206375D01*
X3948112Y307975D02*
G54D11*
D03*
G54D36*
X3948112Y307975D02*
X3948112Y1435100D01*
X3935412Y296862D02*
G54D11*
D03*
G54D36*
X3935412Y1412875D02*
X3935412Y296862D01*
X3922712Y284162D02*
G54D11*
D03*
G54D36*
X3922712Y1435100D02*
X3922712Y284162D01*
X3910012Y271462D02*
G54D11*
D03*
G54D36*
X3910012Y1412875D02*
X3910012Y271462D01*
X3897312Y327025D02*
G54D11*
D03*
G54D36*
X3897312Y1435100D02*
X3897312Y327025D01*
G54D24*
X3487738Y1412875D02*
X3487738Y1411288D01*
X3508375Y1390650D01*
G54D24*
X3487738Y1411288D02*
X3511550Y1411288D01*
X3513138Y1412875D01*
X3513138Y1395412D01*
X3508375Y1390650D01*
G54D24*
X3500438Y1411288D02*
X3500438Y1408112D01*
X3513138Y1395412D01*
G54D37*
X4175125Y1374775D02*
X4175125Y1312862D01*
X4148138Y1285875D01*
G36*
X4162425Y11112D02*
X4162425Y1301750D01*
X4119562Y1301750D01*
X4119562Y52388D01*
X3781425Y52388D01*
X3781425Y1273175D01*
X3794125Y1287462D01*
X3794125Y1295400D01*
X3790950Y1300162D01*
X3783012Y1300162D01*
X3767138Y1284288D01*
X3767138Y52388D01*
X3667125Y52388D01*
X3667125Y1393825D01*
X3511550Y1393825D01*
X3508375Y1390650D01*
X3508375Y1155700D01*
X3359150Y1006475D01*
X3359150Y639762D01*
X3246438Y639762D01*
X3246438Y806450D01*
X3170238Y806450D01*
X3170238Y800100D01*
X3168650Y798512D01*
X3168650Y790575D01*
X3232150Y790575D01*
X3232150Y212725D01*
X3300412Y212725D01*
X3300412Y53975D01*
X1244600Y53975D01*
X1244600Y474662D01*
X1168400Y550862D01*
X1168400Y690562D01*
X1212850Y735012D01*
X1212850Y890588D01*
X1200150Y890588D01*
X1200150Y735012D01*
X1157288Y692150D01*
X1157288Y546100D01*
X1233488Y469900D01*
X1233488Y53975D01*
X434975Y53975D01*
X434975Y295275D01*
X450850Y311150D01*
X471488Y311150D01*
X487362Y328612D01*
X487339Y350814D01*
X465138Y350838D01*
X465138Y503238D01*
X471488Y509588D01*
X471488Y566738D01*
X515938Y611188D01*
X515938Y687388D01*
X546100Y717550D01*
X546100Y735012D01*
X531812Y735012D01*
X496888Y700088D01*
X496888Y623888D01*
X452438Y579438D01*
X452438Y522288D01*
X444500Y514350D01*
X444500Y382588D01*
X458788Y368300D01*
X458788Y339725D01*
X420688Y301625D01*
X420688Y53975D01*
X233362Y53975D01*
X233362Y11112D01*
X4162425Y11112D01*
G37*
G54D24*
X4162425Y11112D02*
X4162425Y1301750D01*
X4119562Y1301750D01*
X4119562Y52388D01*
X3781425Y52388D01*
X3781425Y1273175D01*
X3794125Y1287462D01*
X3794125Y1295400D01*
X3790950Y1300162D01*
X3783012Y1300162D01*
X3767138Y1284288D01*
X3767138Y52388D01*
X3667125Y52388D01*
X3667125Y1393825D01*
X3511550Y1393825D01*
X3508375Y1390650D01*
X3508375Y1155700D01*
X3359150Y1006475D01*
X3359150Y639762D01*
X3246438Y639762D01*
X3246438Y806450D01*
X3170238Y806450D01*
X3170238Y800100D01*
X3168650Y798512D01*
X3168650Y790575D01*
X3232150Y790575D01*
X3232150Y212725D01*
X3300412Y212725D01*
X3300412Y53975D01*
X1244600Y53975D01*
X1244600Y474662D01*
X1168400Y550862D01*
X1168400Y690562D01*
X1212850Y735012D01*
X1212850Y890588D01*
X1200150Y890588D01*
X1200150Y735012D01*
X1157288Y692150D01*
X1157288Y546100D01*
X1233488Y469900D01*
X1233488Y53975D01*
X434975Y53975D01*
X434975Y295275D01*
X450850Y311150D01*
X471488Y311150D01*
X487362Y328612D01*
X487339Y350814D01*
X465138Y350838D01*
X465138Y503238D01*
X471488Y509588D01*
X471488Y566738D01*
X515938Y611188D01*
X515938Y687388D01*
X546100Y717550D01*
X546100Y735012D01*
X531812Y735012D01*
X496888Y700088D01*
X496888Y623888D01*
X452438Y579438D01*
X452438Y522288D01*
X444500Y514350D01*
X444500Y382588D01*
X458788Y368300D01*
X458788Y339725D01*
X420688Y301625D01*
X420688Y53975D01*
X233362Y53975D01*
X233362Y11112D01*
X4162425Y11112D01*
G54D38*
X59678Y63754D02*
X59678Y79754D01*
G54D38*
X59678Y68754D02*
X69278Y79754D01*
G54D38*
X63278Y71754D02*
X69278Y63754D01*
G54D38*
X84478Y76754D02*
X84478Y66754D01*
X83278Y64754D01*
X80878Y63754D01*
X78478Y63754D01*
X76078Y64754D01*
X74878Y66754D01*
X74878Y76754D01*
X76078Y78754D01*
X78478Y79754D01*
X80878Y79754D01*
X83278Y78754D01*
X84478Y76754D01*
G54D38*
X90078Y63754D02*
X90078Y79754D01*
X96078Y69754D01*
X102078Y79754D01*
X102078Y63754D01*
G54D38*
X107678Y63754D02*
X107678Y79754D01*
X113678Y79754D01*
X116078Y78754D01*
X117278Y76754D01*
X117278Y74754D01*
X116078Y72754D01*
X113678Y71754D01*
X107678Y71754D01*
G54D38*
X122878Y63754D02*
X128878Y79754D01*
X134878Y63754D01*
G54D38*
X125278Y69754D02*
X132478Y69754D01*
G54D38*
X140478Y63754D02*
X140478Y79754D01*
G54D38*
X140478Y68754D02*
X150078Y79754D01*
G54D38*
X144078Y71754D02*
X150078Y63754D01*
G54D38*
X160478Y63754D02*
X160478Y79754D01*
G54D38*
X155678Y79754D02*
X165278Y79754D01*
G54D38*
X59678Y52766D02*
X65678Y36766D01*
X71678Y52766D01*
G54D38*
X85678Y36766D02*
X77278Y36766D01*
X77278Y52766D01*
X85678Y52766D01*
G54D38*
X77278Y44766D02*
X85678Y44766D01*
G54D38*
X96078Y44766D02*
X99678Y42766D01*
X100878Y40766D01*
X100878Y36766D01*
G54D38*
X91278Y36766D02*
X91278Y52766D01*
X97278Y52766D01*
X99678Y51766D01*
X100878Y49766D01*
X100878Y47766D01*
X99678Y45766D01*
X97278Y44766D01*
X91278Y44766D01*
G54D38*
X106478Y43766D02*
X116078Y43766D01*
G54D38*
X131278Y36766D02*
X121678Y36766D01*
X121678Y37766D01*
X122878Y39766D01*
X130078Y45766D01*
X131278Y47766D01*
X131278Y49766D01*
X130078Y51766D01*
X127678Y52766D01*
X125278Y52766D01*
X122878Y51766D01*
X121678Y49766D01*
G54D38*
X136878Y36766D02*
X136878Y36766D01*
G54D38*
X142478Y49766D02*
X143678Y51766D01*
X146078Y52766D01*
X148478Y52766D01*
X150878Y51766D01*
X152078Y49766D01*
X152078Y47766D01*
X150878Y45766D01*
X148478Y44766D01*
X150878Y43766D01*
X152078Y41766D01*
X152078Y39766D01*
X150878Y37766D01*
X148478Y36766D01*
X146078Y36766D01*
X143678Y37766D01*
X142478Y39766D01*
G54D38*
X69278Y14366D02*
X68078Y12366D01*
X65678Y11366D01*
X63278Y11366D01*
X60878Y12366D01*
X59678Y14366D01*
X59678Y24366D01*
X60878Y26366D01*
X63278Y27366D01*
X65678Y27366D01*
X68078Y26366D01*
X69278Y24366D01*
G54D38*
X84478Y24366D02*
X84478Y14366D01*
X83278Y12366D01*
X80878Y11366D01*
X78478Y11366D01*
X76078Y12366D01*
X74878Y14366D01*
X74878Y24366D01*
X76078Y26366D01*
X78478Y27366D01*
X80878Y27366D01*
X83278Y26366D01*
X84478Y24366D01*
G54D38*
X90078Y11366D02*
X90078Y27366D01*
X96078Y17366D01*
X102078Y27366D01*
X102078Y11366D01*
G54D38*
X107678Y11366D02*
X107678Y27366D01*
X113678Y27366D01*
X116078Y26366D01*
X117278Y24366D01*
X117278Y22366D01*
X116078Y20366D01*
X113678Y19366D01*
X107678Y19366D01*
G54D38*
X3884612Y134412D02*
X3891812Y134412D01*
X3884612Y125412D01*
X3891812Y125412D01*
G54D38*
X3907012Y138412D02*
X3907012Y128412D01*
X3905812Y126412D01*
X3903412Y125412D01*
X3901012Y125412D01*
X3898612Y126412D01*
X3897412Y128412D01*
X3897412Y138412D01*
X3898612Y140412D01*
X3901012Y141412D01*
X3903412Y141412D01*
X3905812Y140412D01*
X3907012Y138412D01*
G54D38*
X3922212Y138412D02*
X3922212Y128412D01*
X3921012Y126412D01*
X3918612Y125412D01*
X3916212Y125412D01*
X3913812Y126412D01*
X3912612Y128412D01*
X3912612Y138412D01*
X3913812Y140412D01*
X3916212Y141412D01*
X3918612Y141412D01*
X3921012Y140412D01*
X3922212Y138412D01*
G54D38*
X3927812Y125412D02*
X3927812Y134412D01*
G54D38*
X3927812Y132812D02*
X3930212Y134412D01*
X3932612Y133812D01*
X3933812Y132412D01*
X3933812Y125412D01*
G54D38*
X3933812Y132812D02*
X3936212Y134412D01*
X3938612Y133812D01*
X3939812Y132412D01*
X3939812Y125412D01*
G54D38*
X3945412Y132412D02*
X3955012Y132412D01*
G54D38*
X3970212Y138412D02*
X3970212Y128412D01*
X3969012Y126412D01*
X3966612Y125412D01*
X3964212Y125412D01*
X3961812Y126412D01*
X3960612Y128412D01*
X3960612Y138412D01*
X3961812Y140412D01*
X3964212Y141412D01*
X3966612Y141412D01*
X3969012Y140412D01*
X3970212Y138412D01*
G54D38*
X3975812Y138412D02*
X3977012Y140412D01*
X3979412Y141412D01*
X3981812Y141412D01*
X3984212Y140412D01*
X3985412Y138412D01*
X3985412Y136412D01*
X3984212Y134412D01*
X3981812Y133412D01*
X3984212Y132412D01*
X3985412Y130412D01*
X3985412Y128412D01*
X3984212Y126412D01*
X3981812Y125412D01*
X3979412Y125412D01*
X3977012Y126412D01*
X3975812Y128412D01*
G54D38*
X3991012Y132412D02*
X4000612Y132412D01*
G54D38*
X4015812Y125412D02*
X4006212Y125412D01*
X4006212Y126412D01*
X4007412Y128412D01*
X4014612Y134412D01*
X4015812Y136412D01*
X4015812Y138412D01*
X4014612Y140412D01*
X4012212Y141412D01*
X4009812Y141412D01*
X4007412Y140412D01*
X4006212Y138412D01*
G54D38*
X4031012Y138412D02*
X4031012Y128412D01*
X4029812Y126412D01*
X4027412Y125412D01*
X4025012Y125412D01*
X4022612Y126412D01*
X4021412Y128412D01*
X4021412Y138412D01*
X4022612Y140412D01*
X4025012Y141412D01*
X4027412Y141412D01*
X4029812Y140412D01*
X4031012Y138412D01*
G54D38*
X4046212Y125412D02*
X4036612Y125412D01*
X4036612Y126412D01*
X4037812Y128412D01*
X4045012Y134412D01*
X4046212Y136412D01*
X4046212Y138412D01*
X4045012Y140412D01*
X4042612Y141412D01*
X4040212Y141412D01*
X4037812Y140412D01*
X4036612Y138412D01*
G54D38*
X4061412Y141412D02*
X4051812Y141412D01*
X4051812Y134412D01*
X4053012Y134412D01*
X4055412Y135412D01*
X4057812Y135412D01*
X4060212Y134412D01*
X4061412Y132412D01*
X4061412Y128412D01*
X4060212Y126412D01*
X4057812Y125412D01*
X4055412Y125412D01*
X4053012Y126412D01*
X4051812Y128412D01*
G54D14*
X2686050Y1460500D02*
X2686050Y1354138D01*
G54D14*
X2978150Y762000D02*
X2978150Y563562D01*
G54D14*
X1925831Y1060450D02*
X1925831Y1066800D01*
X1924243Y1068387D01*
X1924243Y1173162D01*
X1944881Y1193800D01*
X1887538Y404812D02*
G54D11*
D03*
G54D14*
X1899047Y421481D02*
X1899047Y416322D01*
X1887538Y404812D01*
X1581150Y428625D02*
G54D11*
D03*
G54D14*
X1581150Y428625D02*
X1581150Y111125D01*
X1581150Y111125D02*
G54D11*
D03*
G54D14*
X538162Y142875D02*
X538162Y111124D01*
X1429163Y290432D02*
G54D16*
D03*
X1327563Y290432D02*
G54D16*
D03*
X1847850Y277812D02*
G54D11*
D03*
G54D14*
X1860153Y253206D02*
X1860153Y265510D01*
X1847850Y277812D01*
X1881188Y271462D02*
G54D11*
D03*
G54D14*
X1869678Y253206D02*
X1869678Y259953D01*
X1881188Y271462D01*
X1524000Y265112D02*
G54D11*
D03*
G54D14*
X1524000Y265112D02*
X1524000Y92075D01*
X1524000Y92075D02*
G54D11*
D03*
X398462Y90488D02*
G54D11*
D03*
X397845Y243656D02*
G54D18*
D03*
X397845Y142057D02*
G54D18*
D03*
G54D14*
X398462Y90488D02*
X398462Y141439D01*
X397845Y142057D01*
G54D14*
X1428750Y142875D02*
X1428750Y219075D01*
G54D14*
X1327150Y219075D02*
X1327150Y290019D01*
X1327563Y290432D01*
G54D14*
X1403350Y142875D02*
X1403350Y171450D01*
X1416050Y184150D01*
X1416050Y309562D01*
X1428750Y322262D01*
X1428750Y373062D01*
X1301750Y339725D02*
G54D11*
D03*
G54D14*
X1301750Y373062D02*
X1301750Y339725D01*
X1608138Y339725D02*
G54D11*
D03*
X1614488Y206375D02*
G54D11*
D03*
G54D14*
X1608138Y339725D02*
X1608138Y212725D01*
X1614488Y206375D01*
X1765300Y206375D02*
G54D11*
D03*
G54D14*
X1780381Y224631D02*
X1780381Y211931D01*
X1774825Y206375D01*
X1765300Y206375D01*
X1212850Y385762D02*
G54D11*
D03*
G54D14*
X1212850Y385762D02*
X1212850Y269875D01*
X1187450Y244475D01*
X1187450Y149225D01*
X1187450Y149225D02*
G54D11*
D03*
X1789112Y187325D02*
G54D11*
D03*
G54D14*
X1800225Y224631D02*
X1800225Y198438D01*
X1789112Y187325D01*
X1377950Y398462D02*
G54D11*
D03*
G54D14*
X1377950Y398462D02*
X1377950Y373062D01*
X1593850Y398462D02*
G54D11*
D03*
G54D14*
X1593850Y398462D02*
X1593850Y193675D01*
X1593850Y193675D02*
G54D11*
D03*
X1751012Y193675D02*
G54D11*
D03*
G54D14*
X1790303Y224631D02*
X1790303Y204390D01*
X1779588Y193675D01*
X1751012Y193675D01*
X1193800Y398462D02*
G54D11*
D03*
G54D14*
X1193800Y398462D02*
X1193800Y288925D01*
X1174750Y269875D01*
X1174750Y168275D01*
X1174750Y168275D02*
G54D11*
D03*
X1162050Y373062D02*
G54D11*
D03*
G54D14*
X1162050Y373062D02*
X1162050Y320675D01*
X1149350Y307975D01*
X1149350Y142875D01*
X1149350Y142875D02*
G54D11*
D03*
X1174750Y423862D02*
G54D11*
D03*
G54D14*
X1174750Y423862D02*
X1174750Y301625D01*
X1162050Y288925D01*
X1162050Y122238D01*
X1162050Y122238D02*
G54D11*
D03*
X215282Y243656D02*
G54D18*
D03*
X215282Y142057D02*
G54D18*
D03*
X932832Y243656D02*
G54D16*
D03*
X932832Y142057D02*
G54D16*
D03*
X1010620Y243656D02*
G54D16*
D03*
X1010620Y142057D02*
G54D16*
D03*
X1086820Y243656D02*
G54D16*
D03*
X1086820Y142057D02*
G54D16*
D03*
X882032Y243656D02*
G54D16*
D03*
X882032Y142057D02*
G54D16*
D03*
X958232Y243656D02*
G54D16*
D03*
X958232Y142057D02*
G54D16*
D03*
X1036020Y243656D02*
G54D16*
D03*
X1036020Y142057D02*
G54D16*
D03*
X907432Y243656D02*
G54D16*
D03*
X907432Y142057D02*
G54D16*
D03*
X983632Y243656D02*
G54D16*
D03*
X983632Y142057D02*
G54D16*
D03*
X1061420Y243656D02*
G54D18*
D03*
X1061420Y142057D02*
G54D18*
D03*
G54D24*
X882032Y142057D02*
X882032Y49830D01*
X882650Y49212D01*
G54D24*
X958232Y142057D02*
X958232Y48242D01*
X958850Y47625D01*
G54D24*
X1036020Y142057D02*
X1036020Y53358D01*
X1035050Y52388D01*
G54D14*
X882032Y243656D02*
X882032Y205405D01*
X908050Y179388D01*
X908050Y142674D01*
X907432Y142057D01*
G54D14*
X958232Y243656D02*
X958232Y208580D01*
X984250Y182562D01*
X984250Y142674D01*
X983632Y142057D01*
G54D14*
X1036020Y243656D02*
X1036020Y206992D01*
X1060450Y182562D01*
X1060450Y143027D01*
X1061420Y142057D01*
X892844Y322881D02*
G54D16*
D03*
X892844Y297481D02*
G54D16*
D03*
X970632Y322881D02*
G54D16*
D03*
X970632Y297481D02*
G54D16*
D03*
X1048419Y322881D02*
G54D16*
D03*
X1048419Y297481D02*
G54D16*
D03*
G54D14*
X932532Y297481D02*
X932618Y243871D01*
X932832Y243656D01*
G54D14*
X1086519Y297481D02*
X1086605Y243871D01*
X1086820Y243656D01*
X767732Y397644D02*
G54D16*
D03*
X767732Y296044D02*
G54D16*
D03*
X793132Y397644D02*
G54D16*
D03*
X793132Y296044D02*
G54D16*
D03*
X818117Y347344D02*
G54D18*
D03*
X818117Y296544D02*
G54D18*
D03*
X845104Y347344D02*
G54D16*
D03*
X845104Y296544D02*
G54D16*
D03*
X818232Y397493D02*
G54D16*
D03*
X818232Y372093D02*
G54D16*
D03*
G54D24*
X767732Y296044D02*
X767732Y53005D01*
X768350Y52388D01*
X920750Y180975D02*
G54D11*
D03*
X996950Y193675D02*
G54D11*
D03*
X1073150Y180975D02*
G54D11*
D03*
G54D14*
X920750Y180975D02*
X920750Y294975D01*
X892844Y322881D01*
G54D14*
X996950Y193675D02*
X996950Y296562D01*
X970632Y322881D01*
G54D14*
X1073150Y180975D02*
X1073150Y298150D01*
X1048419Y322881D01*
X1085232Y461144D02*
G54D16*
D03*
X1085232Y359544D02*
G54D16*
D03*
X1059832Y461144D02*
G54D16*
D03*
X1059832Y359544D02*
G54D16*
D03*
X1036020Y461144D02*
G54D16*
D03*
X1036020Y359544D02*
G54D16*
D03*
X1003300Y595312D02*
G54D18*
D03*
X1041400Y595312D02*
G54D18*
D03*
X1022350Y576262D02*
G54D18*
D03*
X1003300Y544512D02*
G54D18*
D03*
X1041400Y544512D02*
G54D18*
D03*
X1022350Y525462D02*
G54D18*
D03*
X1073150Y544512D02*
G54D18*
D03*
X1111250Y544512D02*
G54D18*
D03*
X1092200Y525462D02*
G54D18*
D03*
X965045Y396714D02*
G54D18*
D03*
X965045Y434814D02*
G54D18*
D03*
X984095Y415763D02*
G54D18*
D03*
X869795Y360201D02*
G54D18*
D03*
X869795Y398301D02*
G54D18*
D03*
X888845Y379251D02*
G54D18*
D03*
X1010620Y461144D02*
G54D16*
D03*
X1010620Y359544D02*
G54D16*
D03*
G54D14*
X1009326Y322881D02*
X1023217Y322881D01*
X1059832Y359544D01*
G54D14*
X1086519Y322881D02*
X1086605Y358171D01*
X1085232Y359544D01*
G54D31*
X1041400Y544512D02*
X1041400Y595312D01*
X1162050Y608012D02*
G54D15*
D03*
G54D14*
X1085232Y461144D02*
X1085232Y518494D01*
X1092200Y525462D01*
G54D14*
X1059832Y461144D02*
X1059832Y487980D01*
X1022350Y525462D01*
G54D14*
X1036020Y461144D02*
X1035868Y461144D01*
X1008062Y488950D01*
X1008062Y530225D01*
X1022350Y544512D01*
X1022350Y576262D01*
G54D24*
X1010620Y461144D02*
X1010620Y397845D01*
X1003300Y390525D01*
X971233Y390525D01*
X965045Y396714D01*
X958850Y595312D02*
G54D11*
D03*
X958850Y576262D02*
G54D11*
D03*
X927100Y563562D02*
G54D11*
D03*
G54D14*
X958850Y595312D02*
X958850Y703262D01*
X1009650Y754062D01*
X1009650Y1303338D01*
X984250Y1328738D01*
X687388Y1328738D01*
X657225Y1358900D01*
X657225Y1387475D01*
G54D14*
X581025Y1387475D02*
X581025Y1336675D01*
X595312Y1322388D01*
X977900Y1322388D01*
X1003300Y1296988D01*
X1003300Y760412D01*
X946150Y703262D01*
X946150Y588962D01*
X958850Y576262D01*
G54D14*
X927100Y563562D02*
X933450Y569912D01*
X933450Y715962D01*
X990600Y773112D01*
X990600Y1284288D01*
X965200Y1309688D01*
X557212Y1309688D01*
X504825Y1362075D01*
X504825Y1387475D01*
X914400Y358775D02*
G54D11*
D03*
G54D14*
X914400Y358775D02*
X920750Y365125D01*
X920750Y417512D01*
X933450Y430212D01*
X933450Y530225D01*
X971550Y568325D01*
X971550Y703262D01*
X1016000Y747712D01*
X1016000Y1309688D01*
X990600Y1335088D01*
X703262Y1335088D01*
X676275Y1362075D01*
X676275Y1438275D01*
X793750Y249238D02*
G54D11*
D03*
G54D14*
X793750Y249238D02*
X793750Y295427D01*
X793132Y296044D01*
G54D14*
X818232Y372093D02*
X818181Y372093D01*
X781050Y334962D01*
X781050Y147638D01*
X785812Y142875D01*
X785812Y142875D02*
G54D11*
D03*
X806450Y219075D02*
G54D11*
D03*
X817562Y238125D02*
G54D11*
D03*
G54D14*
X806450Y219075D02*
X806450Y335677D01*
X818117Y347344D01*
G54D14*
X817562Y238125D02*
X817562Y255588D01*
X831850Y269875D01*
X831850Y334090D01*
X845104Y347344D01*
X613745Y397644D02*
G54D16*
D03*
X613745Y296044D02*
G54D16*
D03*
G54D14*
X613745Y397644D02*
X613745Y397845D01*
X633412Y417512D01*
X903288Y417512D01*
X920750Y434975D01*
X920750Y533400D01*
X939800Y552450D01*
X939800Y709612D01*
X996950Y766762D01*
X996950Y1290638D01*
X971550Y1316038D01*
X568325Y1316038D01*
X523875Y1360488D01*
X523875Y1438275D01*
X460375Y71438D02*
G54D34*
D03*
X434975Y192088D02*
G54D23*
D03*
X434975Y179388D02*
G54D23*
D03*
X664774Y250422D02*
G54D16*
D03*
X613974Y250422D02*
G54D16*
D03*
X1123950Y219075D02*
G54D23*
D03*
X1123950Y193675D02*
G54D23*
D03*
X1098550Y842962D02*
G54D39*
D03*
X1174750Y842962D02*
G54D39*
D03*
G54D31*
X1123950Y193675D02*
X1123950Y219075D01*
X1123950Y327025D01*
X1130300Y333375D01*
X1130300Y709612D01*
X1155700Y735012D01*
X1155700Y820738D01*
X1133475Y842962D01*
X1098550Y842962D01*
X1077912Y842962D01*
X1047750Y873125D01*
X1047750Y1295400D01*
X965200Y517525D02*
G54D20*
D03*
X454025Y542925D02*
G54D11*
D03*
X447675Y511175D02*
G54D23*
D03*
G36*
X1200150Y1279525D02*
X1200150Y890588D01*
X1071562Y890588D01*
X1071562Y1279525D01*
X1200150Y1279525D01*
G37*
G54D37*
X1200150Y1279525D02*
X1200150Y890588D01*
X1071562Y890588D01*
X1071562Y1279525D01*
X1200150Y1279525D01*
G54D24*
X1212850Y890588D02*
X1212850Y966788D01*
X1230696Y966788D01*
X1230850Y966634D01*
X1104900Y1047750D02*
G54D23*
D03*
X1149350Y1047750D02*
G54D23*
D03*
X1073150Y895350D02*
G54D40*
D03*
X1086519Y297481D02*
G54D16*
D03*
X1086519Y322881D02*
G54D16*
D03*
X1009326Y297481D02*
G54D16*
D03*
X1009326Y322881D02*
G54D16*
D03*
G54D14*
X1010620Y243656D02*
X1010620Y296186D01*
X1009326Y297481D01*
X932532Y297481D02*
G54D16*
D03*
X932532Y322881D02*
G54D16*
D03*
X268413Y384083D02*
G54D16*
D03*
X268413Y358683D02*
G54D16*
D03*
X1073150Y1295400D02*
G54D16*
D03*
X1047750Y1295400D02*
G54D16*
D03*
G54D24*
X1073150Y1295400D02*
X1073146Y1280104D01*
X1230850Y965046D02*
G54D41*
D03*
X1230850Y990446D02*
G54D41*
D03*
X1644560Y384175D02*
G54D41*
D03*
X1644560Y409575D02*
G54D41*
D03*
X1106488Y588962D02*
G54D16*
D03*
X1081088Y588962D02*
G54D16*
D03*
X2450718Y475506D02*
G54D15*
D03*
X2450718Y500906D02*
G54D15*
D03*
X2450718Y640069D02*
G54D41*
D03*
X2450718Y665468D02*
G54D41*
D03*
X2768218Y818406D02*
G54D15*
D03*
X2768218Y843806D02*
G54D15*
D03*
X3053847Y1400175D02*
G54D41*
D03*
X3053846Y1374775D02*
G54D41*
D03*
X3091680Y455612D02*
G54D41*
D03*
X3091679Y430213D02*
G54D41*
D03*
X2965510Y659020D02*
G54D41*
D03*
X2990910Y659020D02*
G54D41*
D03*
X4181475Y1433012D02*
G54D41*
D03*
X4156075Y1433012D02*
G54D41*
D03*
G54D14*
X397845Y142057D02*
X392931Y142057D01*
X382588Y152400D01*
X382588Y333375D01*
X344488Y371475D01*
X433942Y345757D02*
G54D18*
D03*
X433942Y294956D02*
G54D18*
D03*
X203200Y346076D02*
G54D16*
D03*
X203200Y371475D02*
G54D16*
D03*
X268336Y320381D02*
G54D16*
D03*
X268336Y294981D02*
G54D16*
D03*
X203200Y295276D02*
G54D16*
D03*
X203200Y320675D02*
G54D16*
D03*
X229154Y345757D02*
G54D18*
D03*
X229154Y294956D02*
G54D18*
D03*
X228600Y398462D02*
G54D16*
D03*
X228600Y373064D02*
G54D16*
D03*
X240682Y243656D02*
G54D18*
D03*
X240682Y142057D02*
G54D18*
D03*
X298450Y396875D02*
G54D11*
D03*
X984250Y481012D02*
G54D11*
D03*
G54D14*
X984250Y481012D02*
X990600Y487362D01*
X990600Y684212D01*
X1035050Y728662D01*
X1035050Y1333500D01*
X1058862Y1357312D01*
X1058862Y1401762D01*
X1047750Y1412875D01*
X893762Y1412875D01*
X868362Y1387475D01*
X893762Y1362075D01*
X484742Y345757D02*
G54D18*
D03*
X484742Y294956D02*
G54D18*
D03*
G54D24*
X460375Y71438D02*
X460375Y270590D01*
X484742Y294956D01*
X370858Y243656D02*
G54D18*
D03*
X370858Y142057D02*
G54D18*
D03*
G54D14*
X344488Y295275D02*
X344488Y268288D01*
X358775Y254000D01*
X358775Y198438D01*
X371475Y185738D01*
X371475Y142674D01*
X370858Y142057D01*
X266082Y243656D02*
G54D18*
D03*
X266082Y142057D02*
G54D18*
D03*
G54D14*
X268336Y294981D02*
X268336Y245910D01*
X266082Y243656D01*
X293070Y243656D02*
G54D18*
D03*
X293070Y142057D02*
G54D18*
D03*
X178770Y267469D02*
G54D18*
D03*
X178770Y165869D02*
G54D18*
D03*
G54D24*
X240682Y142057D02*
X240682Y53005D01*
X241300Y52388D01*
G54D24*
X239712Y103188D02*
X193675Y103188D01*
X177800Y119062D01*
X177800Y164899D01*
X178770Y165869D01*
X318470Y243656D02*
G54D18*
D03*
X318470Y142057D02*
G54D18*
D03*
G54D14*
X240682Y243656D02*
X240682Y267670D01*
X249238Y276225D01*
X249238Y395288D01*
X258762Y404812D01*
X290512Y404812D01*
X298450Y396875D01*
G54D14*
X293070Y142057D02*
X291331Y142057D01*
X227012Y206375D01*
X227012Y292815D01*
X229154Y294956D01*
X298450Y344488D02*
G54D11*
D03*
G54D14*
X298450Y344488D02*
X317500Y344488D01*
X331788Y358775D01*
X331788Y384175D01*
X339725Y392112D01*
X422275Y392112D01*
X422275Y392112D02*
G54D11*
D03*
X965200Y466725D02*
G54D11*
D03*
G54D14*
X965200Y466725D02*
X965200Y485775D01*
X984250Y504825D01*
X984250Y690562D01*
X1028700Y735012D01*
X1028700Y1379538D01*
X1020762Y1387475D01*
X995362Y1362075D01*
G54D14*
X203200Y371475D02*
X215900Y358775D01*
X215900Y308211D01*
X229154Y294956D01*
G54D14*
X215282Y243656D02*
X215282Y283194D01*
X203200Y295276D01*
X346075Y346075D02*
G54D11*
D03*
G54D14*
X346075Y346075D02*
X346075Y325438D01*
X358775Y312738D01*
X358775Y274638D01*
X369888Y263525D01*
X369888Y244626D01*
X370858Y243656D01*
X511729Y345757D02*
G54D18*
D03*
X511729Y294956D02*
G54D18*
D03*
X537129Y345757D02*
G54D18*
D03*
X537129Y294956D02*
G54D18*
D03*
X562529Y345757D02*
G54D18*
D03*
X562529Y294956D02*
G54D18*
D03*
X562529Y421957D02*
G54D18*
D03*
X562529Y371156D02*
G54D18*
D03*
X485775Y396875D02*
G54D16*
D03*
X485775Y371476D02*
G54D16*
D03*
X511175Y396875D02*
G54D16*
D03*
X511175Y371476D02*
G54D16*
D03*
X536575Y396875D02*
G54D16*
D03*
X536575Y371476D02*
G54D16*
D03*
X589932Y397644D02*
G54D16*
D03*
X589932Y296044D02*
G54D16*
D03*
G54D14*
X589932Y296044D02*
X589932Y251442D01*
X614362Y227012D01*
X614362Y219075D01*
G54D24*
X562529Y371156D02*
X562529Y345757D01*
X689945Y397644D02*
G54D16*
D03*
X689945Y296044D02*
G54D16*
D03*
X716932Y397644D02*
G54D16*
D03*
X716932Y296044D02*
G54D16*
D03*
X742332Y397644D02*
G54D16*
D03*
X742332Y296044D02*
G54D16*
D03*
X639145Y397644D02*
G54D16*
D03*
X639145Y296044D02*
G54D16*
D03*
X664545Y397644D02*
G54D16*
D03*
X664545Y296044D02*
G54D16*
D03*
G54D14*
X589932Y397644D02*
X589932Y347045D01*
X550862Y307975D01*
X550862Y257175D01*
X576262Y231775D01*
X576262Y206375D01*
X512762Y142875D01*
X574675Y314325D02*
G54D11*
D03*
X728662Y263525D02*
G54D11*
D03*
G54D14*
X613745Y296044D02*
X613745Y284780D01*
X639762Y258762D01*
X639762Y244475D01*
X665162Y219075D01*
G54D14*
X639762Y142875D02*
X677862Y180975D01*
X677862Y230188D01*
X690562Y242888D01*
X690562Y295427D01*
X689945Y296044D01*
G54D14*
X690562Y142875D02*
X690562Y144462D01*
X703262Y157162D01*
X703262Y384326D01*
X689945Y397644D01*
X484188Y134938D02*
G54D11*
D03*
G54D14*
X728662Y263525D02*
X728662Y155575D01*
X715962Y142875D01*
X939800Y415925D02*
G54D11*
D03*
G54D14*
X939800Y415925D02*
X946150Y422275D01*
X946150Y530225D01*
X977900Y561975D01*
X977900Y696912D01*
X1022350Y741362D01*
X1022350Y1316038D01*
X996950Y1341438D01*
X777875Y1341438D01*
X733425Y1385888D01*
G54D35*
X733425Y1385888D02*
X733425Y1387475D01*
X784225Y1438275D01*
X1098550Y1438275D01*
X1123950Y1412875D01*
X1123950Y1343025D01*
X1149350Y415925D02*
G54D11*
D03*
G54D14*
X1149350Y415925D02*
X1143000Y422275D01*
X1143000Y703262D01*
X1174750Y735012D01*
X1174750Y842962D01*
G54D14*
X588962Y219075D02*
X588962Y230188D01*
X574675Y244475D01*
X574675Y314325D01*
X511175Y516712D02*
G54D19*
D03*
X511175Y468312D02*
G54D19*
D03*
G54D14*
X563562Y219075D02*
X563562Y220662D01*
X536575Y247650D01*
X536575Y294402D01*
X537129Y294956D01*
G54D24*
X485775Y371476D02*
X463550Y371475D01*
G54D24*
X485775Y371476D02*
X485775Y346790D01*
X484742Y345757D01*
G54D24*
X484188Y360362D02*
X466725Y360362D01*
G54D14*
X484188Y134938D02*
X484188Y250825D01*
X498475Y265112D01*
X498475Y384175D01*
X485775Y396875D01*
G54D14*
X538162Y219075D02*
X525462Y231775D01*
X525462Y307975D01*
X550862Y333375D01*
X550862Y382588D01*
X536575Y396875D01*
G54D14*
X511175Y468312D02*
X511175Y433388D01*
X523875Y420688D01*
X523875Y357902D01*
X511729Y345757D01*
G54D14*
X511175Y516712D02*
X499250Y516712D01*
X492125Y509588D01*
X492125Y433388D01*
X511175Y414338D01*
X511175Y396875D01*
G54D24*
X537129Y345757D02*
X537129Y370922D01*
X536575Y371476D01*
X603250Y434975D02*
G54D26*
D03*
X601662Y550863D02*
G54D26*
D03*
X370858Y659582D02*
G54D16*
D03*
X370858Y557982D02*
G54D16*
D03*
X345458Y659582D02*
G54D16*
D03*
X345458Y557982D02*
G54D16*
D03*
X151782Y267469D02*
G54D16*
D03*
X151782Y165869D02*
G54D16*
D03*
X124795Y267469D02*
G54D16*
D03*
X124795Y165869D02*
G54D16*
D03*
X151782Y396056D02*
G54D16*
D03*
X151782Y294457D02*
G54D16*
D03*
X178770Y396056D02*
G54D18*
D03*
X178770Y294457D02*
G54D18*
D03*
X429595Y659582D02*
G54D16*
D03*
X429595Y557982D02*
G54D16*
D03*
X320058Y659582D02*
G54D16*
D03*
X320058Y557982D02*
G54D16*
D03*
X293070Y659582D02*
G54D16*
D03*
X293070Y557982D02*
G54D16*
D03*
X189882Y665932D02*
G54D16*
D03*
X189882Y564332D02*
G54D16*
D03*
X216870Y665932D02*
G54D16*
D03*
X216870Y564332D02*
G54D16*
D03*
X242270Y665932D02*
G54D16*
D03*
X242270Y564331D02*
G54D16*
D03*
X100906Y568930D02*
G54D42*
D03*
X100906Y619730D02*
G54D42*
D03*
X151706Y568930D02*
G54D42*
D03*
X151706Y619731D02*
G54D42*
D03*
X190500Y538162D02*
G54D16*
D03*
X241300Y538162D02*
G54D16*
D03*
X627616Y780731D02*
G54D43*
D03*
X627616Y729931D02*
G54D43*
D03*
X564472Y730824D02*
G54D44*
D03*
X564472Y781624D02*
G54D44*
D03*
X786366Y1001394D02*
G54D43*
D03*
X786366Y950594D02*
G54D43*
D03*
X504825Y800100D02*
G54D23*
D03*
X492125Y787400D02*
G54D23*
D03*
X466725Y633412D02*
G54D23*
D03*
X100304Y767830D02*
G54D44*
D03*
X100304Y717030D02*
G54D44*
D03*
X228892Y767830D02*
G54D44*
D03*
X228892Y717030D02*
G54D44*
D03*
X531812Y685800D02*
G54D20*
D03*
X531812Y569912D02*
G54D20*
D03*
X786016Y1151121D02*
G54D41*
D03*
X786016Y1176521D02*
G54D41*
D03*
G54D14*
X293688Y434975D02*
X293688Y450850D01*
X279400Y465138D01*
X279400Y585788D01*
X293688Y600075D01*
X293688Y658964D01*
X293070Y659582D01*
G54D14*
X293070Y557982D02*
X293070Y546718D01*
X319088Y520700D01*
X319088Y511175D01*
G54D14*
X166688Y434975D02*
X166688Y325438D01*
X178789Y313337D01*
X178770Y294457D01*
G54D14*
X151782Y294457D02*
X151631Y294457D01*
X136525Y309562D01*
X136525Y446088D01*
X192088Y501650D01*
X192088Y511175D01*
G54D14*
X178770Y396056D02*
X178770Y397845D01*
X196850Y415925D01*
X363538Y415925D01*
X396875Y449262D01*
G54D14*
X192088Y434975D02*
X192088Y447675D01*
X203200Y458788D01*
X203200Y590550D01*
X190500Y603250D01*
X190500Y665314D01*
X189882Y665932D01*
G54D24*
X293688Y511175D02*
X293688Y501650D01*
X344488Y449262D01*
X344488Y434975D01*
G54D24*
X370858Y659582D02*
X370858Y631208D01*
X319088Y579438D01*
X319088Y558952D01*
X320058Y557982D01*
G54D24*
X344488Y434975D02*
X344488Y473075D01*
X369888Y498475D01*
X369888Y557012D01*
X370858Y557982D01*
G54D24*
X370858Y659582D02*
X370858Y666132D01*
X492125Y787400D01*
X504825Y800100D01*
X882650Y768350D02*
G54D39*
D03*
X908050Y768350D02*
G54D39*
D03*
X933450Y768350D02*
G54D39*
D03*
G36*
X855662Y984250D02*
X958850Y984250D01*
X958850Y830262D01*
X855662Y830262D01*
X855662Y984250D01*
G37*
G54D37*
X855662Y984250D02*
X958850Y984250D01*
X958850Y830262D01*
X855662Y830262D01*
X855662Y984250D01*
X931402Y1288120D02*
G54D39*
D03*
X906002Y1288120D02*
G54D39*
D03*
X880602Y1288120D02*
G54D39*
D03*
G36*
X855202Y1224620D02*
X958390Y1224620D01*
X958390Y1070632D01*
X855202Y1070632D01*
X855202Y1224620D01*
G37*
G54D37*
X855202Y1224620D02*
X958390Y1224620D01*
X958390Y1070632D01*
X855202Y1070632D01*
X855202Y1224620D01*
G54D24*
X268288Y511175D02*
X268288Y706438D01*
X292100Y706438D01*
X319088Y679450D01*
X319088Y660552D01*
X320058Y659582D01*
G54D37*
X151706Y619731D02*
X151706Y715269D01*
X152400Y715962D01*
X101372Y715962D01*
X100304Y717030D01*
G54D37*
X152400Y715962D02*
X227824Y715962D01*
X228892Y717030D01*
X258243Y717030D01*
X398462Y857250D01*
X509588Y857250D01*
X542925Y823912D01*
X661988Y823912D01*
X698500Y787400D01*
X755650Y787400D01*
G54D37*
X806450Y787400D02*
X877888Y787400D01*
G54D24*
X882650Y768350D02*
X882650Y782638D01*
X877888Y787400D01*
G54D37*
X258243Y717030D02*
X258243Y716482D01*
X268288Y706438D01*
X282575Y706438D01*
G54D37*
X473075Y860425D02*
X473075Y952500D01*
X531812Y1011238D01*
X712788Y1011238D01*
X712788Y1141412D01*
X747712Y1176338D01*
X765175Y1176338D01*
G54D37*
X786366Y950594D02*
X724218Y950594D01*
X712788Y962025D01*
X712788Y1011238D01*
G54D24*
X786016Y1176521D02*
X765358Y1176521D01*
X765175Y1176338D01*
G54D24*
X786016Y1176521D02*
X809808Y1176521D01*
X825500Y1192212D01*
X825500Y1249362D01*
X839788Y1263650D01*
X921220Y1263650D01*
X931402Y1273832D01*
X931402Y1288120D01*
G54D24*
X100906Y568930D02*
X126306Y594331D01*
X126306Y637281D01*
X66675Y696912D01*
X66675Y734201D01*
X100304Y767830D01*
G54D37*
X100304Y767830D02*
X228892Y767830D01*
G54D45*
X627616Y729931D02*
X565364Y729931D01*
X564472Y730824D01*
G54D37*
X564472Y730824D02*
X540324Y730824D01*
X539750Y730250D01*
G54D37*
X531812Y685800D02*
X508000Y685800D01*
X1053482Y805631D02*
G54D46*
D03*
X1053482Y754831D02*
G54D46*
D03*
X1078882Y805631D02*
G54D46*
D03*
X1078882Y754831D02*
G54D46*
D03*
X1104282Y805631D02*
G54D46*
D03*
X1104282Y754831D02*
G54D46*
D03*
X1129682Y805631D02*
G54D46*
D03*
X1129682Y754831D02*
G54D46*
D03*
X1104900Y722312D02*
G54D47*
D03*
X1104900Y687388D02*
G54D20*
D03*
G54D37*
X531812Y569912D02*
X531812Y582612D01*
X679450Y730250D01*
X896938Y730250D01*
X908050Y741362D01*
G54D37*
X908050Y768350D02*
X908050Y741362D01*
X403225Y804862D02*
G54D20*
D03*
X350838Y703262D02*
G54D20*
D03*
X454025Y703262D02*
G54D20*
D03*
G54D24*
X396875Y449262D02*
X396875Y595312D01*
X411162Y609600D01*
X442912Y609600D01*
X466725Y633412D01*
G54D24*
X429595Y659582D02*
X429595Y659782D01*
X454025Y684212D01*
X454025Y703262D01*
G54D37*
X454025Y703262D02*
X531812Y781050D01*
X563897Y781050D01*
X564472Y781624D01*
X626723Y781624D01*
X627616Y780731D01*
X755650Y787400D02*
G54D48*
D03*
X806450Y787400D02*
G54D48*
D03*
X1168400Y1385888D02*
G54D49*
D03*
X1123950Y1343025D02*
G54D49*
D03*
X1212850Y1343025D02*
G54D49*
D03*
X893762Y1481138D02*
G54D20*
D03*
X995362Y1481138D02*
G54D20*
D03*
X868362Y1387475D02*
G54D20*
D03*
X944562Y1387475D02*
G54D20*
D03*
X1020762Y1387475D02*
G54D20*
D03*
X893762Y1362075D02*
G54D20*
D03*
X995362Y1362075D02*
G54D20*
D03*
G54D37*
X1168400Y1385888D02*
X1168400Y1277938D01*
X292100Y1220788D02*
G54D50*
D03*
X342900Y1220788D02*
G54D50*
D03*
X544512Y1220788D02*
G54D50*
D03*
X593725Y1220788D02*
G54D50*
D03*
X293688Y908050D02*
G54D50*
D03*
X593725Y908050D02*
G54D50*
D03*
X395288Y939800D02*
G54D50*
D03*
X544512Y939800D02*
G54D50*
D03*
X273050Y1322388D02*
G54D50*
D03*
X20638Y1290638D02*
G54D50*
D03*
X46038Y1177925D02*
G54D50*
D03*
X46038Y1127125D02*
G54D51*
D03*
X46038Y1011238D02*
G54D51*
D03*
X46038Y960438D02*
G54D51*
D03*
X66675Y525462D02*
G54D50*
D03*
X66675Y474662D02*
G54D51*
D03*
X66675Y358775D02*
G54D51*
D03*
X66675Y307975D02*
G54D51*
D03*
G54D37*
X100906Y619730D02*
X74007Y619730D01*
X36512Y657225D01*
X36512Y769938D01*
X84138Y817562D01*
X203200Y817562D01*
X293688Y908050D01*
X255588Y869950D02*
G54D52*
D03*
G54D24*
X3112669Y997146D02*
X3094234Y997146D01*
X3087688Y990600D01*
X1770460Y434578D02*
G54D53*
D03*
X1780381Y434578D02*
G54D53*
D03*
X1790303Y434578D02*
G54D53*
D03*
X1800225Y434578D02*
G54D53*
D03*
X1810147Y434578D02*
G54D53*
D03*
X1820069Y434578D02*
G54D53*
D03*
X1829990Y434578D02*
G54D53*
D03*
X1840310Y434578D02*
G54D53*
D03*
X1849834Y434578D02*
G54D53*
D03*
X1860153Y434578D02*
G54D53*
D03*
X1869678Y434578D02*
G54D53*
D03*
X1879600Y434578D02*
G54D53*
D03*
X1889125Y434578D02*
G54D53*
D03*
X1899047Y434578D02*
G54D53*
D03*
X1909366Y434578D02*
G54D53*
D03*
X1919288Y434578D02*
G54D53*
D03*
X1770460Y240109D02*
G54D53*
D03*
X1780381Y240109D02*
G54D53*
D03*
X1790303Y240109D02*
G54D53*
D03*
X1800225Y240109D02*
G54D53*
D03*
X1810147Y240109D02*
G54D53*
D03*
X1820069Y240109D02*
G54D53*
D03*
X1829990Y240109D02*
G54D53*
D03*
X1840310Y240109D02*
G54D53*
D03*
X1849834Y240109D02*
G54D53*
D03*
X1860153Y240109D02*
G54D53*
D03*
X1869678Y240109D02*
G54D53*
D03*
X1879600Y240109D02*
G54D53*
D03*
X1889125Y240109D02*
G54D53*
D03*
X1899047Y240109D02*
G54D53*
D03*
X1909366Y240109D02*
G54D53*
D03*
X1919288Y240109D02*
G54D53*
D03*
X1943894Y410766D02*
G54D54*
D03*
X1943894Y401241D02*
G54D54*
D03*
X1943894Y391716D02*
G54D54*
D03*
X1943894Y381794D02*
G54D54*
D03*
X1943894Y371872D02*
G54D54*
D03*
X1943894Y362347D02*
G54D54*
D03*
X1943894Y352425D02*
G54D54*
D03*
X1943894Y342503D02*
G54D54*
D03*
X1944290Y332581D02*
G54D54*
D03*
X1943894Y322659D02*
G54D54*
D03*
X1943894Y312341D02*
G54D54*
D03*
X1943894Y302419D02*
G54D54*
D03*
X1943894Y292497D02*
G54D54*
D03*
X1943894Y282575D02*
G54D54*
D03*
X1943894Y272653D02*
G54D54*
D03*
X1943894Y262731D02*
G54D54*
D03*
X1747440Y411162D02*
G54D54*
D03*
X1747440Y401241D02*
G54D54*
D03*
X1747440Y391716D02*
G54D54*
D03*
X1747440Y381794D02*
G54D54*
D03*
X1747440Y371872D02*
G54D54*
D03*
X1747440Y362347D02*
G54D54*
D03*
X1747440Y352425D02*
G54D54*
D03*
X1747440Y342503D02*
G54D54*
D03*
X1747440Y332581D02*
G54D54*
D03*
X1747440Y322659D02*
G54D54*
D03*
X1747440Y312341D02*
G54D54*
D03*
X1747440Y302419D02*
G54D54*
D03*
X1747441Y292497D02*
G54D54*
D03*
X1747440Y282575D02*
G54D54*
D03*
X1747440Y272256D02*
G54D54*
D03*
X1747440Y262731D02*
G54D54*
D03*
X3119438Y1466850D02*
G54D55*
D03*
X3144838Y1466850D02*
G54D55*
D03*
X3170238Y1466850D02*
G54D55*
D03*
X3195638Y1466850D02*
G54D55*
D03*
X3221038Y1466850D02*
G54D55*
D03*
X3246438Y1466850D02*
G54D55*
D03*
X3271838Y1466850D02*
G54D55*
D03*
X3297238Y1466850D02*
G54D55*
D03*
X3322638Y1466850D02*
G54D55*
D03*
X3348038Y1466850D02*
G54D55*
D03*
X3373438Y1466850D02*
G54D55*
D03*
X3398838Y1466850D02*
G54D55*
D03*
X3424238Y1466850D02*
G54D55*
D03*
X3475038Y1466850D02*
G54D55*
D03*
X3500438Y1466850D02*
G54D55*
D03*
X3694112Y1466850D02*
G54D55*
D03*
X3719512Y1466850D02*
G54D55*
D03*
X3744912Y1466850D02*
G54D55*
D03*
X3795712Y1466850D02*
G54D55*
D03*
X3821112Y1466850D02*
G54D55*
D03*
X3846512Y1466850D02*
G54D55*
D03*
X3871912Y1466850D02*
G54D55*
D03*
X3897312Y1466850D02*
G54D55*
D03*
X3922712Y1466850D02*
G54D55*
D03*
X3948112Y1466850D02*
G54D55*
D03*
X3973512Y1466850D02*
G54D55*
D03*
X3998912Y1466850D02*
G54D55*
D03*
X4024312Y1466850D02*
G54D55*
D03*
X4049712Y1466850D02*
G54D55*
D03*
X4075112Y1466850D02*
G54D55*
D03*
X1390650Y1466850D02*
G54D55*
D03*
X1416050Y1466850D02*
G54D55*
D03*
X1441450Y1466850D02*
G54D55*
D03*
X1466850Y1466850D02*
G54D55*
D03*
X1517650Y1466850D02*
G54D55*
D03*
X1543050Y1466850D02*
G54D55*
D03*
X1568450Y1466850D02*
G54D55*
D03*
X1593850Y1466850D02*
G54D55*
D03*
X1619250Y1466850D02*
G54D55*
D03*
X1644650Y1466850D02*
G54D55*
D03*
X1670050Y1466850D02*
G54D55*
D03*
X1695450Y1466850D02*
G54D55*
D03*
X1720850Y1466850D02*
G54D55*
D03*
X1746250Y1466850D02*
G54D55*
D03*
X1771650Y1466850D02*
G54D55*
D03*
X1797050Y1466850D02*
G54D55*
D03*
X1822450Y1466850D02*
G54D55*
D03*
X1847850Y1466850D02*
G54D55*
D03*
X1873250Y1466850D02*
G54D55*
D03*
X1898650Y1466850D02*
G54D55*
D03*
X1924050Y1466850D02*
G54D55*
D03*
X1949450Y1466850D02*
G54D55*
D03*
X1974850Y1466850D02*
G54D55*
D03*
X2000250Y1466850D02*
G54D55*
D03*
X2025650Y1466850D02*
G54D55*
D03*
X2051050Y1466850D02*
G54D55*
D03*
X2076450Y1466850D02*
G54D55*
D03*
G54D24*
X3053847Y1400175D02*
X3053847Y1414966D01*
X3048000Y1420812D01*
X3053847Y1414966D01*
X3054349Y1293812D02*
G54D56*
D03*
G54D24*
X3053846Y1374775D02*
X3053846Y1359404D01*
X3054350Y1358900D01*
G54D24*
X3054350Y1214438D02*
X3054350Y1233488D01*
X3074988Y1347788D02*
G54D57*
D03*
X3074988Y1322388D02*
G54D57*
D03*
X3074988Y1296988D02*
G54D57*
D03*
X3074988Y1271588D02*
G54D57*
D03*
X3074988Y1246188D02*
G54D57*
D03*
X3074988Y1220788D02*
G54D57*
D03*
X2598340Y1489075D02*
G54D58*
D03*
G54D59*
X2263030Y1498586D02*
X2263031Y1482378D01*
X2262982Y1482328D01*
M02*
