%FSLAX34Y34*%
%MOMM*%
%LNSOLDERMASK_TOP*%
G71*
G01*
%ADD10C,1.800*%
%ADD11C,1.400*%
%ADD12C,1.500*%
%ADD13C,2.100*%
%ADD14C,2.000*%
%ADD15C,2.000*%
%ADD16C,1.400*%
%ADD17C,1.900*%
%ADD18C,2.400*%
%ADD19C,2.800*%
%ADD20C,3.000*%
%ADD21C,1.700*%
%ADD22C,1.800*%
%ADD23C,2.200*%
%ADD24C,4.400*%
%ADD25C,4.400*%
%ADD26C,1.900*%
%ADD27C,1.400*%
%ADD28C,1.700*%
%ADD29C,2.400*%
%ADD30C,2.900*%
%ADD31C,3.200*%
%ADD32C,2.100*%
%ADD33C,2.600*%
%ADD34C,2.200*%
%ADD35C,3.400*%
%ADD36C,2.600*%
%ADD37C,2.600*%
%ADD38C,2.600*%
%ADD39C,3.400*%
%ADD40C,3.400*%
%ADD41C,3.410*%
%ADD42C,2.400*%
%ADD43R,1.000X3.600*%
%ADD44R,3.600X1.000*%
%ADD45R,2.400X8.900*%
%ADD46R,1.700X15.000*%
%ADD47R,2.000X2.000*%
%ADD48R,67.400X2.900*%
%LPD*%
G36*
X1292750Y993250D02*
X1310750Y993250D01*
X1310750Y975250D01*
X1292750Y975250D01*
X1292750Y993250D01*
G37*
X1327150Y984250D02*
G54D10*
D03*
X1352550Y984250D02*
G54D10*
D03*
X1377950Y984250D02*
G54D10*
D03*
X1403350Y984250D02*
G54D10*
D03*
X1428750Y984250D02*
G54D10*
D03*
X1454150Y984250D02*
G54D10*
D03*
X1479550Y984250D02*
G54D10*
D03*
X1504950Y984250D02*
G54D10*
D03*
X1530350Y984250D02*
G54D10*
D03*
X1555750Y984250D02*
G54D10*
D03*
X1581150Y984250D02*
G54D10*
D03*
X1606550Y984250D02*
G54D10*
D03*
X1631950Y984250D02*
G54D10*
D03*
X1657350Y984250D02*
G54D10*
D03*
X1682750Y984250D02*
G54D10*
D03*
X1708150Y984250D02*
G54D10*
D03*
X1733550Y984250D02*
G54D10*
D03*
X1758950Y984250D02*
G54D10*
D03*
X1784350Y984250D02*
G54D10*
D03*
X1784350Y1136650D02*
G54D10*
D03*
X1758950Y1136650D02*
G54D10*
D03*
X1733550Y1136650D02*
G54D10*
D03*
X1708150Y1136650D02*
G54D10*
D03*
X1682750Y1136650D02*
G54D10*
D03*
X1657350Y1136650D02*
G54D10*
D03*
X1631950Y1136650D02*
G54D10*
D03*
X1606550Y1136650D02*
G54D10*
D03*
X1581150Y1136650D02*
G54D10*
D03*
X1555750Y1136650D02*
G54D10*
D03*
X1530350Y1136650D02*
G54D10*
D03*
X1504950Y1136650D02*
G54D10*
D03*
X1479550Y1136650D02*
G54D10*
D03*
X1454150Y1136650D02*
G54D10*
D03*
X1428750Y1136650D02*
G54D10*
D03*
X1403350Y1136650D02*
G54D10*
D03*
X1377950Y1136650D02*
G54D10*
D03*
X1352550Y1136650D02*
G54D10*
D03*
X1327150Y1136650D02*
G54D10*
D03*
X1301750Y1136650D02*
G54D10*
D03*
X600075Y1341438D02*
G54D11*
D03*
X538162Y111124D02*
G54D12*
D03*
X4075376Y88900D02*
G54D11*
D03*
G36*
X1865838Y993250D02*
X1883838Y993250D01*
X1883838Y975250D01*
X1865838Y975250D01*
X1865838Y993250D01*
G37*
X1900238Y984250D02*
G54D10*
D03*
X1925638Y984250D02*
G54D10*
D03*
X1951038Y984250D02*
G54D10*
D03*
X1976438Y984250D02*
G54D10*
D03*
X2001838Y984250D02*
G54D10*
D03*
X2027238Y984250D02*
G54D10*
D03*
X2027238Y1060450D02*
G54D10*
D03*
X2001838Y1060450D02*
G54D10*
D03*
X1976438Y1060450D02*
G54D10*
D03*
X1951038Y1060450D02*
G54D10*
D03*
X1925638Y1060450D02*
G54D10*
D03*
X1900238Y1060450D02*
G54D10*
D03*
X1874838Y1060450D02*
G54D10*
D03*
G36*
X1292750Y382062D02*
X1310750Y382062D01*
X1310750Y364062D01*
X1292750Y364062D01*
X1292750Y382062D01*
G37*
X1327150Y373062D02*
G54D10*
D03*
X1352550Y373062D02*
G54D10*
D03*
X1377950Y373062D02*
G54D10*
D03*
X1403350Y373062D02*
G54D10*
D03*
X1428750Y373062D02*
G54D10*
D03*
X1454150Y373062D02*
G54D10*
D03*
X1454150Y449262D02*
G54D10*
D03*
X1428750Y449262D02*
G54D10*
D03*
X1403350Y449262D02*
G54D10*
D03*
X1377950Y449262D02*
G54D10*
D03*
X1352550Y449262D02*
G54D10*
D03*
X1327150Y449262D02*
G54D10*
D03*
X1301750Y449262D02*
G54D10*
D03*
G36*
X1292750Y151875D02*
X1310750Y151875D01*
X1310750Y133875D01*
X1292750Y133875D01*
X1292750Y151875D01*
G37*
X1327150Y142875D02*
G54D10*
D03*
X1352550Y142875D02*
G54D10*
D03*
X1377950Y142875D02*
G54D10*
D03*
X1403350Y142875D02*
G54D10*
D03*
X1428750Y142875D02*
G54D10*
D03*
X1454150Y142875D02*
G54D10*
D03*
X1454150Y219075D02*
G54D10*
D03*
X1428750Y219075D02*
G54D10*
D03*
X1403350Y219075D02*
G54D10*
D03*
X1377950Y219075D02*
G54D10*
D03*
X1352550Y219075D02*
G54D10*
D03*
X1327150Y219075D02*
G54D10*
D03*
X1301750Y219075D02*
G54D10*
D03*
G36*
X1292750Y726550D02*
X1310750Y726550D01*
X1310750Y708550D01*
X1292750Y708550D01*
X1292750Y726550D01*
G37*
X1327150Y717550D02*
G54D10*
D03*
X1352550Y717550D02*
G54D10*
D03*
X1377950Y717550D02*
G54D10*
D03*
X1403350Y717550D02*
G54D10*
D03*
X1428750Y717550D02*
G54D10*
D03*
X1454150Y717550D02*
G54D10*
D03*
X1479550Y717550D02*
G54D10*
D03*
X1504950Y717550D02*
G54D10*
D03*
X1530350Y717550D02*
G54D10*
D03*
X1555750Y717550D02*
G54D10*
D03*
X1581150Y717550D02*
G54D10*
D03*
X1606550Y717550D02*
G54D10*
D03*
X1631950Y717550D02*
G54D10*
D03*
X1631950Y869950D02*
G54D10*
D03*
X1606550Y869950D02*
G54D10*
D03*
X1581150Y869950D02*
G54D10*
D03*
X1555750Y869950D02*
G54D10*
D03*
X1530350Y869950D02*
G54D10*
D03*
X1504950Y869950D02*
G54D10*
D03*
X1479550Y869950D02*
G54D10*
D03*
X1454150Y869950D02*
G54D10*
D03*
X1428750Y869950D02*
G54D10*
D03*
X1403350Y869950D02*
G54D10*
D03*
X1377950Y869950D02*
G54D10*
D03*
X1352550Y869950D02*
G54D10*
D03*
X1327150Y869950D02*
G54D10*
D03*
X1301750Y869950D02*
G54D10*
D03*
G36*
X1789638Y802750D02*
X1807638Y802750D01*
X1807638Y784750D01*
X1789638Y784750D01*
X1789638Y802750D01*
G37*
X1824038Y793750D02*
G54D10*
D03*
X1849438Y793750D02*
G54D10*
D03*
X1874838Y793750D02*
G54D10*
D03*
X1900238Y793750D02*
G54D10*
D03*
X1925638Y793750D02*
G54D10*
D03*
X1951038Y793750D02*
G54D10*
D03*
X1976438Y793750D02*
G54D10*
D03*
X2001838Y793750D02*
G54D10*
D03*
X2027238Y793750D02*
G54D10*
D03*
X2027238Y869950D02*
G54D10*
D03*
X2001838Y869950D02*
G54D10*
D03*
X1976438Y869950D02*
G54D10*
D03*
X1951038Y869950D02*
G54D10*
D03*
X1925638Y869950D02*
G54D10*
D03*
X1900238Y869950D02*
G54D10*
D03*
X1874838Y869950D02*
G54D10*
D03*
X1849438Y869950D02*
G54D10*
D03*
X1824038Y869950D02*
G54D10*
D03*
X1798638Y869950D02*
G54D10*
D03*
G36*
X2169050Y993250D02*
X2187050Y993250D01*
X2187050Y975250D01*
X2169050Y975250D01*
X2169050Y993250D01*
G37*
X2203450Y984250D02*
G54D10*
D03*
X2228850Y984250D02*
G54D10*
D03*
X2254250Y984250D02*
G54D10*
D03*
X2279650Y984250D02*
G54D10*
D03*
X2305050Y984250D02*
G54D10*
D03*
X2330450Y984250D02*
G54D10*
D03*
X2355850Y984250D02*
G54D10*
D03*
X2381250Y984250D02*
G54D10*
D03*
X2406650Y984250D02*
G54D10*
D03*
X2406650Y1060450D02*
G54D10*
D03*
X2381250Y1060450D02*
G54D10*
D03*
X2355850Y1060450D02*
G54D10*
D03*
X2330450Y1060450D02*
G54D10*
D03*
X2305050Y1060450D02*
G54D10*
D03*
X2279650Y1060450D02*
G54D10*
D03*
X2254250Y1060450D02*
G54D10*
D03*
X2228850Y1060450D02*
G54D10*
D03*
X2203450Y1060450D02*
G54D10*
D03*
X2178050Y1060450D02*
G54D10*
D03*
G36*
X2169050Y802750D02*
X2187050Y802750D01*
X2187050Y784750D01*
X2169050Y784750D01*
X2169050Y802750D01*
G37*
X2203450Y793750D02*
G54D10*
D03*
X2228850Y793750D02*
G54D10*
D03*
X2254250Y793750D02*
G54D10*
D03*
X2279650Y793750D02*
G54D10*
D03*
X2305050Y793750D02*
G54D10*
D03*
X2330450Y793750D02*
G54D10*
D03*
X2355850Y793750D02*
G54D10*
D03*
X2381250Y793750D02*
G54D10*
D03*
X2406650Y793750D02*
G54D10*
D03*
X2406650Y869950D02*
G54D10*
D03*
X2381250Y869950D02*
G54D10*
D03*
X2355850Y869950D02*
G54D10*
D03*
X2330450Y869950D02*
G54D10*
D03*
X2305050Y869950D02*
G54D10*
D03*
X2279650Y869950D02*
G54D10*
D03*
X2254250Y869950D02*
G54D10*
D03*
X2228850Y869950D02*
G54D10*
D03*
X2203450Y869950D02*
G54D10*
D03*
X2178050Y869950D02*
G54D10*
D03*
G36*
X2219850Y623362D02*
X2237850Y623362D01*
X2237850Y605362D01*
X2219850Y605362D01*
X2219850Y623362D01*
G37*
X2254250Y614362D02*
G54D10*
D03*
X2279650Y614362D02*
G54D10*
D03*
X2305050Y614362D02*
G54D10*
D03*
X2330450Y614362D02*
G54D10*
D03*
X2355850Y614362D02*
G54D10*
D03*
X2381250Y614362D02*
G54D10*
D03*
X2406650Y614362D02*
G54D10*
D03*
X2406650Y690562D02*
G54D10*
D03*
X2381250Y690562D02*
G54D10*
D03*
X2355850Y690562D02*
G54D10*
D03*
X2330450Y690562D02*
G54D10*
D03*
X2305050Y690562D02*
G54D10*
D03*
X2279650Y690562D02*
G54D10*
D03*
X2254250Y690562D02*
G54D10*
D03*
X2228850Y690562D02*
G54D10*
D03*
G36*
X2207150Y312212D02*
X2225150Y312212D01*
X2225150Y294212D01*
X2207150Y294212D01*
X2207150Y312212D01*
G37*
X2241550Y303212D02*
G54D10*
D03*
X2266950Y303212D02*
G54D10*
D03*
X2292350Y303212D02*
G54D10*
D03*
X2317750Y303212D02*
G54D10*
D03*
X2343150Y303212D02*
G54D10*
D03*
X2368550Y303212D02*
G54D10*
D03*
X2393950Y303212D02*
G54D10*
D03*
X2419350Y303212D02*
G54D10*
D03*
X2419350Y379412D02*
G54D10*
D03*
X2393950Y379412D02*
G54D10*
D03*
X2368550Y379412D02*
G54D10*
D03*
X2343150Y379412D02*
G54D10*
D03*
X2317750Y379412D02*
G54D10*
D03*
X2292350Y379412D02*
G54D10*
D03*
X2266950Y379412D02*
G54D10*
D03*
X2241550Y379412D02*
G54D10*
D03*
X2216150Y379412D02*
G54D10*
D03*
G36*
X2207150Y151875D02*
X2225150Y151875D01*
X2225150Y133875D01*
X2207150Y133875D01*
X2207150Y151875D01*
G37*
X2241550Y142875D02*
G54D10*
D03*
X2266950Y142875D02*
G54D10*
D03*
X2292350Y142875D02*
G54D10*
D03*
X2317750Y142875D02*
G54D10*
D03*
X2343150Y142875D02*
G54D10*
D03*
X2368550Y142875D02*
G54D10*
D03*
X2393950Y142875D02*
G54D10*
D03*
X2419350Y142875D02*
G54D10*
D03*
X2419350Y219075D02*
G54D10*
D03*
X2393950Y219075D02*
G54D10*
D03*
X2368550Y219075D02*
G54D10*
D03*
X2343150Y219075D02*
G54D10*
D03*
X2317750Y219075D02*
G54D10*
D03*
X2292350Y219075D02*
G54D10*
D03*
X2266950Y219075D02*
G54D10*
D03*
X2241550Y219075D02*
G54D10*
D03*
X2216150Y219075D02*
G54D10*
D03*
G36*
X2550050Y164575D02*
X2568050Y164575D01*
X2568050Y146575D01*
X2550050Y146575D01*
X2550050Y164575D01*
G37*
X2584450Y155575D02*
G54D10*
D03*
X2609850Y155575D02*
G54D10*
D03*
X2635250Y155575D02*
G54D10*
D03*
X2660650Y155575D02*
G54D10*
D03*
X2686050Y155575D02*
G54D10*
D03*
X2711450Y155575D02*
G54D10*
D03*
X2736850Y155575D02*
G54D10*
D03*
X2762250Y155575D02*
G54D10*
D03*
X2787650Y155575D02*
G54D10*
D03*
X2813050Y155575D02*
G54D10*
D03*
X2838450Y155575D02*
G54D10*
D03*
X2863850Y155575D02*
G54D10*
D03*
X2889250Y155575D02*
G54D10*
D03*
X2914650Y155575D02*
G54D10*
D03*
X2940050Y155575D02*
G54D10*
D03*
X2965450Y155575D02*
G54D10*
D03*
X2990850Y155575D02*
G54D10*
D03*
X3016250Y155575D02*
G54D10*
D03*
X3041650Y155575D02*
G54D10*
D03*
X3041650Y307975D02*
G54D10*
D03*
X3016250Y307975D02*
G54D10*
D03*
X2990850Y307975D02*
G54D10*
D03*
X2965450Y307975D02*
G54D10*
D03*
X2940050Y307975D02*
G54D10*
D03*
X2914650Y307975D02*
G54D10*
D03*
X2889250Y307975D02*
G54D10*
D03*
X2863850Y307975D02*
G54D10*
D03*
X2838450Y307975D02*
G54D10*
D03*
X2813050Y307975D02*
G54D10*
D03*
X2787650Y307975D02*
G54D10*
D03*
X2762250Y307975D02*
G54D10*
D03*
X2736850Y307975D02*
G54D10*
D03*
X2711450Y307975D02*
G54D10*
D03*
X2686050Y307975D02*
G54D10*
D03*
X2660650Y307975D02*
G54D10*
D03*
X2635250Y307975D02*
G54D10*
D03*
X2609850Y307975D02*
G54D10*
D03*
X2584450Y307975D02*
G54D10*
D03*
X2559050Y307975D02*
G54D10*
D03*
G36*
X2562750Y456675D02*
X2580750Y456675D01*
X2580750Y438675D01*
X2562750Y438675D01*
X2562750Y456675D01*
G37*
X2597150Y447675D02*
G54D10*
D03*
X2622550Y447675D02*
G54D10*
D03*
X2647950Y447675D02*
G54D10*
D03*
X2673350Y447675D02*
G54D10*
D03*
X2698750Y447675D02*
G54D10*
D03*
X2724150Y447675D02*
G54D10*
D03*
X2724150Y523875D02*
G54D10*
D03*
X2698750Y523875D02*
G54D10*
D03*
X2673350Y523875D02*
G54D10*
D03*
X2647950Y523875D02*
G54D10*
D03*
X2622550Y523875D02*
G54D10*
D03*
X2597150Y523875D02*
G54D10*
D03*
X2571750Y523875D02*
G54D10*
D03*
G36*
X2562750Y623362D02*
X2580750Y623362D01*
X2580750Y605362D01*
X2562750Y605362D01*
X2562750Y623362D01*
G37*
X2597150Y614362D02*
G54D10*
D03*
X2622550Y614362D02*
G54D10*
D03*
X2647950Y614362D02*
G54D10*
D03*
X2673350Y614362D02*
G54D10*
D03*
X2698750Y614362D02*
G54D10*
D03*
X2724150Y614362D02*
G54D10*
D03*
X2724150Y690562D02*
G54D10*
D03*
X2698750Y690562D02*
G54D10*
D03*
X2673350Y690562D02*
G54D10*
D03*
X2647950Y690562D02*
G54D10*
D03*
X2622550Y690562D02*
G54D10*
D03*
X2597150Y690562D02*
G54D10*
D03*
X2571750Y690562D02*
G54D10*
D03*
G36*
X2562750Y802750D02*
X2580750Y802750D01*
X2580750Y784750D01*
X2562750Y784750D01*
X2562750Y802750D01*
G37*
X2597150Y793750D02*
G54D10*
D03*
X2622550Y793750D02*
G54D10*
D03*
X2647950Y793750D02*
G54D10*
D03*
X2673350Y793750D02*
G54D10*
D03*
X2698750Y793750D02*
G54D10*
D03*
X2724150Y793750D02*
G54D10*
D03*
X2724150Y869950D02*
G54D10*
D03*
X2698750Y869950D02*
G54D10*
D03*
X2673350Y869950D02*
G54D10*
D03*
X2647950Y869950D02*
G54D10*
D03*
X2622550Y869950D02*
G54D10*
D03*
X2597150Y869950D02*
G54D10*
D03*
X2571750Y869950D02*
G54D10*
D03*
G36*
X2550050Y980550D02*
X2568050Y980550D01*
X2568050Y962550D01*
X2550050Y962550D01*
X2550050Y980550D01*
G37*
X2584450Y971550D02*
G54D10*
D03*
X2609850Y971550D02*
G54D10*
D03*
X2635250Y971550D02*
G54D10*
D03*
X2660650Y971550D02*
G54D10*
D03*
X2686050Y971550D02*
G54D10*
D03*
X2711450Y971550D02*
G54D10*
D03*
X2736850Y971550D02*
G54D10*
D03*
X2762250Y971550D02*
G54D10*
D03*
X2787650Y971550D02*
G54D10*
D03*
X2813050Y971550D02*
G54D10*
D03*
X2838450Y971550D02*
G54D10*
D03*
X2863850Y971550D02*
G54D10*
D03*
X2889250Y971550D02*
G54D10*
D03*
X2914650Y971550D02*
G54D10*
D03*
X2940050Y971550D02*
G54D10*
D03*
X2965450Y971550D02*
G54D10*
D03*
X2990850Y971550D02*
G54D10*
D03*
X3016250Y971550D02*
G54D10*
D03*
X3041650Y971550D02*
G54D10*
D03*
X3041650Y1123950D02*
G54D10*
D03*
X3016250Y1123950D02*
G54D10*
D03*
X2990850Y1123950D02*
G54D10*
D03*
X2965450Y1123950D02*
G54D10*
D03*
X2940050Y1123950D02*
G54D10*
D03*
X2914650Y1123950D02*
G54D10*
D03*
X2889250Y1123950D02*
G54D10*
D03*
X2863850Y1123950D02*
G54D10*
D03*
X2838450Y1123950D02*
G54D10*
D03*
X2813050Y1123950D02*
G54D10*
D03*
X2787650Y1123950D02*
G54D10*
D03*
X2762250Y1123950D02*
G54D10*
D03*
X2736850Y1123950D02*
G54D10*
D03*
X2711450Y1123950D02*
G54D10*
D03*
X2686050Y1123950D02*
G54D10*
D03*
X2660650Y1123950D02*
G54D10*
D03*
X2635250Y1123950D02*
G54D10*
D03*
X2609850Y1123950D02*
G54D10*
D03*
X2584450Y1123950D02*
G54D10*
D03*
X2559050Y1123950D02*
G54D10*
D03*
G36*
X2854850Y801162D02*
X2872850Y801162D01*
X2872850Y783162D01*
X2854850Y783162D01*
X2854850Y801162D01*
G37*
X2889250Y792162D02*
G54D10*
D03*
X2914650Y792162D02*
G54D10*
D03*
X2940050Y792162D02*
G54D10*
D03*
X2965450Y792162D02*
G54D10*
D03*
X2990850Y792162D02*
G54D10*
D03*
X3016250Y792162D02*
G54D10*
D03*
X3016250Y868362D02*
G54D10*
D03*
X2990850Y868362D02*
G54D10*
D03*
X2965450Y868362D02*
G54D10*
D03*
X2940050Y868362D02*
G54D10*
D03*
X2914650Y868362D02*
G54D10*
D03*
X2889250Y868362D02*
G54D10*
D03*
X2863850Y868362D02*
G54D10*
D03*
G36*
X2854850Y456675D02*
X2872850Y456675D01*
X2872850Y438675D01*
X2854850Y438675D01*
X2854850Y456675D01*
G37*
X2889250Y447675D02*
G54D10*
D03*
X2914650Y447675D02*
G54D10*
D03*
X2940050Y447675D02*
G54D10*
D03*
X2965450Y447675D02*
G54D10*
D03*
X2990850Y447675D02*
G54D10*
D03*
X3016250Y447675D02*
G54D10*
D03*
X3016250Y523875D02*
G54D10*
D03*
X2990850Y523875D02*
G54D10*
D03*
X2965450Y523875D02*
G54D10*
D03*
X2940050Y523875D02*
G54D10*
D03*
X2914650Y523875D02*
G54D10*
D03*
X2889250Y523875D02*
G54D10*
D03*
X2863850Y523875D02*
G54D10*
D03*
G36*
X503762Y151875D02*
X521762Y151875D01*
X521762Y133875D01*
X503762Y133875D01*
X503762Y151875D01*
G37*
X538162Y142875D02*
G54D10*
D03*
X563562Y142875D02*
G54D10*
D03*
X588962Y142875D02*
G54D10*
D03*
X614362Y142875D02*
G54D10*
D03*
X639762Y142875D02*
G54D10*
D03*
X665162Y142875D02*
G54D10*
D03*
X690562Y142875D02*
G54D10*
D03*
X715962Y142875D02*
G54D10*
D03*
X741362Y142875D02*
G54D10*
D03*
X741362Y219075D02*
G54D10*
D03*
X715962Y219075D02*
G54D10*
D03*
X690562Y219075D02*
G54D10*
D03*
X665162Y219075D02*
G54D10*
D03*
X639762Y219075D02*
G54D10*
D03*
X614362Y219075D02*
G54D10*
D03*
X588962Y219075D02*
G54D10*
D03*
X563562Y219075D02*
G54D10*
D03*
X538162Y219075D02*
G54D10*
D03*
X512762Y219075D02*
G54D10*
D03*
G36*
X310088Y304275D02*
X328088Y304275D01*
X328088Y286275D01*
X310088Y286275D01*
X310088Y304275D01*
G37*
X344488Y295275D02*
G54D10*
D03*
X369888Y295275D02*
G54D10*
D03*
X395288Y295275D02*
G54D10*
D03*
X395288Y371475D02*
G54D10*
D03*
X369888Y371475D02*
G54D10*
D03*
X344488Y371475D02*
G54D10*
D03*
X319088Y371475D02*
G54D10*
D03*
G36*
X157688Y443975D02*
X175688Y443975D01*
X175688Y425975D01*
X157688Y425975D01*
X157688Y443975D01*
G37*
X192088Y434975D02*
G54D10*
D03*
X217488Y434975D02*
G54D10*
D03*
X242888Y434975D02*
G54D10*
D03*
X268288Y434975D02*
G54D10*
D03*
X293688Y434975D02*
G54D10*
D03*
X319088Y434975D02*
G54D10*
D03*
X344488Y434975D02*
G54D10*
D03*
X344488Y511175D02*
G54D10*
D03*
X319088Y511175D02*
G54D10*
D03*
X293688Y511175D02*
G54D10*
D03*
X268288Y511175D02*
G54D10*
D03*
X242888Y511175D02*
G54D10*
D03*
X217488Y511175D02*
G54D10*
D03*
X192088Y511175D02*
G54D10*
D03*
X166688Y511175D02*
G54D10*
D03*
G36*
X2180250Y1197950D02*
X2201250Y1197950D01*
X2201250Y1176950D01*
X2180250Y1176950D01*
X2180250Y1197950D01*
G37*
X2190750Y1212850D02*
G54D13*
D03*
X2216150Y1187450D02*
G54D13*
D03*
X2216150Y1212850D02*
G54D13*
D03*
X2241550Y1187450D02*
G54D13*
D03*
X2241550Y1212850D02*
G54D13*
D03*
X2266950Y1187450D02*
G54D13*
D03*
X2266950Y1212850D02*
G54D13*
D03*
X2292350Y1187450D02*
G54D13*
D03*
X2292350Y1212850D02*
G54D13*
D03*
X2317750Y1187450D02*
G54D13*
D03*
X2317750Y1212850D02*
G54D13*
D03*
X2343150Y1187450D02*
G54D13*
D03*
X2343150Y1212850D02*
G54D13*
D03*
X2368550Y1187450D02*
G54D13*
D03*
X2368550Y1212850D02*
G54D13*
D03*
X2393950Y1187450D02*
G54D13*
D03*
X2393950Y1212850D02*
G54D13*
D03*
X2419350Y1187450D02*
G54D13*
D03*
X2419350Y1212850D02*
G54D13*
D03*
X2444750Y1187450D02*
G54D13*
D03*
X2444750Y1212850D02*
G54D13*
D03*
X2470150Y1187450D02*
G54D13*
D03*
X2470150Y1212850D02*
G54D13*
D03*
X2495550Y1187450D02*
G54D13*
D03*
X2495550Y1212850D02*
G54D13*
D03*
G36*
X3123168Y1236246D02*
X3123168Y1215246D01*
X3102168Y1215246D01*
X3102168Y1236246D01*
X3123168Y1236246D01*
G37*
X3138068Y1225746D02*
G54D13*
D03*
X3112668Y1200346D02*
G54D13*
D03*
X3138069Y1200346D02*
G54D13*
D03*
X3112669Y1174946D02*
G54D13*
D03*
X3138069Y1174946D02*
G54D13*
D03*
X3112669Y1149546D02*
G54D13*
D03*
X3138069Y1149546D02*
G54D13*
D03*
X3112669Y1124146D02*
G54D13*
D03*
X3138069Y1124146D02*
G54D13*
D03*
X3112669Y1098746D02*
G54D13*
D03*
X3138069Y1098746D02*
G54D13*
D03*
X3112669Y1073346D02*
G54D13*
D03*
X3138069Y1073346D02*
G54D13*
D03*
X3112669Y1047946D02*
G54D13*
D03*
X3138069Y1047946D02*
G54D13*
D03*
X3112669Y1022546D02*
G54D13*
D03*
X3138069Y1022546D02*
G54D13*
D03*
X3112669Y997146D02*
G54D13*
D03*
X3138069Y997146D02*
G54D13*
D03*
X3112669Y971746D02*
G54D13*
D03*
X3138068Y971746D02*
G54D13*
D03*
X3112668Y946346D02*
G54D13*
D03*
X3138068Y946346D02*
G54D13*
D03*
X3112668Y920946D02*
G54D13*
D03*
X3138068Y920946D02*
G54D13*
D03*
X3112668Y895546D02*
G54D13*
D03*
X3138068Y895546D02*
G54D13*
D03*
X3112668Y870146D02*
G54D13*
D03*
X3138068Y870146D02*
G54D13*
D03*
X3112668Y844746D02*
G54D13*
D03*
X3138068Y844746D02*
G54D13*
D03*
X3112668Y819346D02*
G54D13*
D03*
X3138068Y819346D02*
G54D13*
D03*
X1377950Y1412875D02*
G54D11*
D03*
X1403350Y1412875D02*
G54D11*
D03*
X1428750Y1412875D02*
G54D11*
D03*
X1454150Y1412875D02*
G54D11*
D03*
X1530350Y1412875D02*
G54D11*
D03*
X1555750Y1412875D02*
G54D11*
D03*
X1581150Y1412875D02*
G54D11*
D03*
X1606550Y1412875D02*
G54D11*
D03*
X1631950Y1412875D02*
G54D11*
D03*
X1657350Y1412875D02*
G54D11*
D03*
X1682750Y1412875D02*
G54D11*
D03*
X1708150Y1412875D02*
G54D11*
D03*
X1733550Y1412875D02*
G54D11*
D03*
X1758950Y1412875D02*
G54D11*
D03*
X1784350Y1412875D02*
G54D11*
D03*
X1809750Y1412875D02*
G54D11*
D03*
X1835150Y1412875D02*
G54D11*
D03*
X1860550Y1412875D02*
G54D11*
D03*
X1885950Y1412875D02*
G54D11*
D03*
X1911350Y1412875D02*
G54D11*
D03*
X1936750Y1412875D02*
G54D11*
D03*
X1962150Y1412875D02*
G54D11*
D03*
X1987550Y1412875D02*
G54D11*
D03*
X2012950Y1412875D02*
G54D11*
D03*
X2038350Y1412875D02*
G54D11*
D03*
X2063750Y1412875D02*
G54D11*
D03*
X2089150Y1412875D02*
G54D11*
D03*
X3106738Y1412875D02*
G54D11*
D03*
X3132138Y1412875D02*
G54D11*
D03*
X3157538Y1412875D02*
G54D11*
D03*
X3182938Y1412875D02*
G54D11*
D03*
X3208338Y1412875D02*
G54D11*
D03*
X3233738Y1412875D02*
G54D11*
D03*
X3259138Y1412875D02*
G54D11*
D03*
X3284538Y1412875D02*
G54D11*
D03*
X3309938Y1412875D02*
G54D11*
D03*
X3335338Y1412875D02*
G54D11*
D03*
X3360738Y1412875D02*
G54D11*
D03*
X3386138Y1412875D02*
G54D11*
D03*
X3411538Y1412875D02*
G54D11*
D03*
X3487738Y1412875D02*
G54D11*
D03*
X3513138Y1412875D02*
G54D11*
D03*
X3681412Y1412875D02*
G54D11*
D03*
X3706812Y1412875D02*
G54D11*
D03*
X3732212Y1412875D02*
G54D11*
D03*
X3806825Y1412875D02*
G54D11*
D03*
X3833812Y1412875D02*
G54D11*
D03*
X3859212Y1412875D02*
G54D11*
D03*
X3884612Y1412875D02*
G54D11*
D03*
X3910012Y1412875D02*
G54D11*
D03*
X3935412Y1412875D02*
G54D11*
D03*
X3960812Y1412875D02*
G54D11*
D03*
X3986212Y1412875D02*
G54D11*
D03*
X4011612Y1412875D02*
G54D11*
D03*
X4037012Y1412875D02*
G54D11*
D03*
X4062412Y1412875D02*
G54D11*
D03*
X4087812Y1412875D02*
G54D11*
D03*
X1441450Y1009650D02*
G54D11*
D03*
X1835150Y1009650D02*
G54D11*
D03*
X1993900Y1009650D02*
G54D11*
D03*
X1828800Y658812D02*
G54D11*
D03*
X1700212Y652462D02*
G54D11*
D03*
X2070100Y1073150D02*
G54D11*
D03*
X2247900Y1079500D02*
G54D11*
D03*
X1951038Y1003300D02*
G54D11*
D03*
X2254250Y1022350D02*
G54D11*
D03*
X2266950Y506412D02*
G54D11*
D03*
X1911350Y519112D02*
G54D11*
D03*
X1314450Y1354138D02*
G54D11*
D03*
X1403350Y1354138D02*
G54D11*
D03*
X1339850Y1333500D02*
G54D11*
D03*
X1416050Y1333500D02*
G54D11*
D03*
X1346200Y792162D02*
G54D11*
D03*
X1874838Y677862D02*
G54D11*
D03*
X1733550Y665162D02*
G54D11*
D03*
X1365250Y804862D02*
G54D11*
D03*
X1379538Y823912D02*
G54D11*
D03*
X1409700Y811212D02*
G54D11*
D03*
X1384300Y168275D02*
G54D11*
D03*
X1301750Y1098550D02*
G54D11*
D03*
X1466850Y1098550D02*
G54D11*
D03*
X1822450Y1098550D02*
G54D11*
D03*
X1993900Y1085850D02*
G54D11*
D03*
X2051050Y1092200D02*
G54D11*
D03*
X1792288Y506412D02*
G54D11*
D03*
X1720850Y506412D02*
G54D11*
D03*
X1339850Y1022350D02*
G54D11*
D03*
X1416050Y1022350D02*
G54D11*
D03*
X1771650Y1022350D02*
G54D11*
D03*
X1925638Y1022350D02*
G54D11*
D03*
X2046288Y1016000D02*
G54D11*
D03*
X2071688Y958850D02*
G54D11*
D03*
X2400300Y958850D02*
G54D11*
D03*
X1771650Y946150D02*
G54D11*
D03*
X1682750Y946150D02*
G54D11*
D03*
X1663700Y500062D02*
G54D11*
D03*
X1689100Y500062D02*
G54D11*
D03*
X1352550Y1085850D02*
G54D11*
D03*
X1377950Y1085850D02*
G54D11*
D03*
X1885950Y1085850D02*
G54D11*
D03*
X1874838Y939800D02*
G54D11*
D03*
X1898650Y1250950D02*
G54D11*
D03*
X2025650Y1276350D02*
G54D11*
D03*
X2368550Y952500D02*
G54D11*
D03*
X2419350Y952500D02*
G54D11*
D03*
X1708150Y925512D02*
G54D11*
D03*
X1377950Y1263652D02*
G54D11*
D03*
X1911350Y1263650D02*
G54D11*
D03*
X1854200Y925512D02*
G54D11*
D03*
X1866900Y658812D02*
G54D11*
D03*
X1911350Y690562D02*
G54D11*
D03*
X1377950Y671512D02*
G54D11*
D03*
X1951038Y519112D02*
G54D11*
D03*
X2508250Y430212D02*
G54D11*
D03*
X2508250Y271462D02*
G54D11*
D03*
X2736850Y284162D02*
G54D11*
D03*
X1416050Y914400D02*
G54D11*
D03*
X1949450Y658812D02*
G54D11*
D03*
X1905000Y920750D02*
G54D11*
D03*
X2317750Y933450D02*
G54D11*
D03*
X2343150Y944562D02*
G54D11*
D03*
X1924050Y1289050D02*
G54D11*
D03*
X1403350Y1289050D02*
G54D11*
D03*
X1428750Y1277938D02*
G54D11*
D03*
X1695450Y1277938D02*
G54D11*
D03*
X1962150Y1277938D02*
G54D11*
D03*
X1701800Y760412D02*
G54D11*
D03*
X1701800Y684212D02*
G54D11*
D03*
X1411288Y677862D02*
G54D11*
D03*
X2305050Y760412D02*
G54D11*
D03*
X2292350Y500062D02*
G54D11*
D03*
X1835150Y512762D02*
G54D11*
D03*
X1295400Y1155700D02*
G54D11*
D03*
X1314450Y900112D02*
G54D11*
D03*
X1441450Y906462D02*
G54D11*
D03*
X1428750Y823912D02*
G54D11*
D03*
X1963738Y811212D02*
G54D11*
D03*
X2279650Y827088D02*
G54D11*
D03*
X2305050Y354012D02*
G54D11*
D03*
X2508250Y341312D02*
G54D11*
D03*
X2520950Y187325D02*
G54D11*
D03*
X2773362Y201612D02*
G54D11*
D03*
X1479550Y1022350D02*
G54D11*
D03*
X1479550Y1301750D02*
G54D11*
D03*
X1682750Y1314450D02*
G54D11*
D03*
X1670050Y1022350D02*
G54D11*
D03*
X1676400Y766762D02*
G54D11*
D03*
X1727200Y766762D02*
G54D11*
D03*
X1727200Y690562D02*
G54D11*
D03*
X1809750Y690562D02*
G54D11*
D03*
X1441450Y677862D02*
G54D11*
D03*
X1504950Y1060450D02*
G54D11*
D03*
X1530350Y1060450D02*
G54D11*
D03*
X1581150Y1060450D02*
G54D11*
D03*
X1601788Y1060450D02*
G54D11*
D03*
X1352550Y1060450D02*
G54D11*
D03*
X1746250Y1060450D02*
G54D11*
D03*
X1504950Y1328738D02*
G54D11*
D03*
X1657350Y1328738D02*
G54D11*
D03*
X1720850Y1327150D02*
G54D11*
D03*
X1365250Y939800D02*
G54D11*
D03*
X1466850Y939800D02*
G54D11*
D03*
X1498600Y627062D02*
G54D11*
D03*
X1778000Y627062D02*
G54D11*
D03*
X2222500Y588962D02*
G54D11*
D03*
X2222500Y717550D02*
G54D11*
D03*
X2216150Y835025D02*
G54D11*
D03*
X2470150Y831850D02*
G54D11*
D03*
X2489200Y1016000D02*
G54D11*
D03*
X2635250Y1016000D02*
G54D11*
D03*
X1530350Y1250950D02*
G54D11*
D03*
X1631950Y1250950D02*
G54D11*
D03*
X1530350Y1098550D02*
G54D11*
D03*
X1708150Y1117600D02*
G54D11*
D03*
X1708150Y1098550D02*
G54D11*
D03*
X1720850Y844550D02*
G54D11*
D03*
X1512888Y831850D02*
G54D11*
D03*
X1543050Y531812D02*
G54D11*
D03*
X1765300Y538162D02*
G54D11*
D03*
X1765300Y557212D02*
G54D11*
D03*
X2209800Y538162D02*
G54D11*
D03*
X1555750Y1206500D02*
G54D11*
D03*
X1606550Y1206500D02*
G54D11*
D03*
X2159000Y1206500D02*
G54D11*
D03*
X1555750Y519112D02*
G54D11*
D03*
X1854200Y531812D02*
G54D11*
D03*
X2184400Y531812D02*
G54D11*
D03*
X1416050Y1181100D02*
G54D11*
D03*
X1581150Y1181100D02*
G54D11*
D03*
X2082800Y1162050D02*
G54D11*
D03*
X1631950Y946150D02*
G54D11*
D03*
X1530350Y933450D02*
G54D11*
D03*
X1568450Y588962D02*
G54D11*
D03*
X1568450Y506412D02*
G54D11*
D03*
X1289050Y569912D02*
G54D11*
D03*
G36*
X1291750Y656112D02*
X1311750Y656112D01*
X1311750Y636112D01*
X1291750Y636112D01*
X1291750Y656112D01*
G37*
X1327150Y646112D02*
G54D14*
D03*
X1352550Y646112D02*
G54D14*
D03*
X1377950Y646112D02*
G54D14*
D03*
X1403350Y646112D02*
G54D14*
D03*
X1428750Y646112D02*
G54D14*
D03*
X1454150Y646112D02*
G54D14*
D03*
X1479550Y646112D02*
G54D14*
D03*
G36*
X1291750Y598962D02*
X1311750Y598962D01*
X1311750Y578962D01*
X1291750Y578962D01*
X1291750Y598962D01*
G37*
X1327150Y588962D02*
G54D14*
D03*
X1352550Y588962D02*
G54D14*
D03*
X1377950Y588962D02*
G54D14*
D03*
X1403350Y588962D02*
G54D14*
D03*
X1428750Y588962D02*
G54D14*
D03*
X1454150Y588962D02*
G54D14*
D03*
X1479550Y588962D02*
G54D14*
D03*
X2760662Y582612D02*
G54D11*
D03*
X1690688Y307975D02*
G54D11*
D03*
X1403350Y320675D02*
G54D11*
D03*
X1416050Y506412D02*
G54D11*
D03*
X1314450Y506412D02*
G54D11*
D03*
X1677988Y174625D02*
G54D11*
D03*
X1677988Y155575D02*
G54D11*
D03*
X1677988Y136525D02*
G54D11*
D03*
X1657350Y933450D02*
G54D11*
D03*
X1568450Y919162D02*
G54D11*
D03*
X1593850Y601662D02*
G54D11*
D03*
X2781300Y595312D02*
G54D11*
D03*
X1377950Y307975D02*
G54D11*
D03*
X1701800Y290512D02*
G54D11*
D03*
X1631950Y1073150D02*
G54D11*
D03*
X1568450Y1073150D02*
G54D11*
D03*
X1612900Y614362D02*
G54D11*
D03*
X2794000Y614362D02*
G54D11*
D03*
X1485900Y900112D02*
G54D11*
D03*
X1606550Y887412D02*
G54D11*
D03*
X1663700Y717550D02*
G54D11*
D03*
X1663700Y652462D02*
G54D11*
D03*
X2800350Y692150D02*
G54D11*
D03*
X1498600Y231775D02*
G54D11*
D03*
X1714500Y231775D02*
G54D11*
D03*
X1720850Y174625D02*
G54D11*
D03*
X1454150Y895350D02*
G54D11*
D03*
X1619250Y747712D02*
G54D11*
D03*
X1320800Y747712D02*
G54D11*
D03*
X2805112Y736600D02*
G54D11*
D03*
X2000250Y550862D02*
G54D11*
D03*
X2019300Y333375D02*
G54D11*
D03*
X2101850Y307975D02*
G54D11*
D03*
X2063750Y187325D02*
G54D11*
D03*
X1819275Y203200D02*
G54D11*
D03*
X1504950Y946150D02*
G54D11*
D03*
X1568450Y946150D02*
G54D11*
D03*
X1593850Y754062D02*
G54D11*
D03*
X1365250Y747712D02*
G54D11*
D03*
X2813050Y766762D02*
G54D11*
D03*
X1188048Y678311D02*
G54D15*
D03*
X1188048Y576711D02*
G54D15*
D03*
X1213448Y678311D02*
G54D15*
D03*
X1213448Y576711D02*
G54D15*
D03*
X1238848Y678311D02*
G54D15*
D03*
X1238848Y576711D02*
G54D15*
D03*
X1989138Y569912D02*
G54D11*
D03*
X2012950Y442912D02*
G54D11*
D03*
X2127250Y442912D02*
G54D11*
D03*
X2127250Y333375D02*
G54D11*
D03*
X2095500Y333375D02*
G54D11*
D03*
X2082800Y200025D02*
G54D11*
D03*
X1847850Y193675D02*
G54D11*
D03*
X2278062Y354012D02*
G54D11*
D03*
X1701800Y174625D02*
G54D11*
D03*
X1701800Y250825D02*
G54D11*
D03*
X1454150Y263525D02*
G54D11*
D03*
X1555750Y735012D02*
G54D11*
D03*
X1416050Y735012D02*
G54D11*
D03*
X2830512Y703262D02*
G54D11*
D03*
X2006600Y581025D02*
G54D11*
D03*
X2032000Y390525D02*
G54D11*
D03*
X2101850Y390525D02*
G54D11*
D03*
X2044700Y212725D02*
G54D11*
D03*
X1860550Y206375D02*
G54D11*
D03*
X1606550Y912812D02*
G54D11*
D03*
X1524000Y906462D02*
G54D11*
D03*
X1492250Y1193800D02*
G54D11*
D03*
X1441450Y1193800D02*
G54D11*
D03*
X1530350Y741362D02*
G54D11*
D03*
X1466850Y741362D02*
G54D11*
D03*
X2843212Y722312D02*
G54D11*
D03*
X1987550Y593725D02*
G54D11*
D03*
X2032000Y415925D02*
G54D11*
D03*
X2082800Y415925D02*
G54D11*
D03*
X2082800Y379412D02*
G54D11*
D03*
X2070100Y225425D02*
G54D11*
D03*
X1879600Y206375D02*
G54D11*
D03*
X1790700Y938212D02*
G54D11*
D03*
X1778000Y792162D02*
G54D11*
D03*
X1460500Y792162D02*
G54D11*
D03*
X2546350Y341312D02*
G54D11*
D03*
X2686050Y341312D02*
G54D11*
D03*
X2151062Y320675D02*
G54D11*
D03*
X2127250Y257175D02*
G54D11*
D03*
X1911350Y271462D02*
G54D11*
D03*
X1803400Y1130300D02*
G54D11*
D03*
X1797050Y900112D02*
G54D11*
D03*
X2360612Y920750D02*
G54D11*
D03*
X2571750Y284162D02*
G54D11*
D03*
X1987550Y258762D02*
G54D11*
D03*
X1822450Y984250D02*
G54D11*
D03*
X1822450Y912812D02*
G54D11*
D03*
X2381250Y939800D02*
G54D11*
D03*
X2533650Y939800D02*
G54D11*
D03*
X2514600Y98425D02*
G54D11*
D03*
X1924050Y111125D02*
G54D11*
D03*
X1758950Y844550D02*
G54D11*
D03*
X2038350Y544512D02*
G54D11*
D03*
X2089150Y544512D02*
G54D15*
D03*
X2114550Y544512D02*
G54D15*
D03*
X1930400Y830262D02*
G54D11*
D03*
X1682750Y1073150D02*
G54D11*
D03*
X1657350Y1073150D02*
G54D11*
D03*
X1879600Y1111250D02*
G54D11*
D03*
X1879600Y1193800D02*
G54D11*
D03*
X1924050Y1193800D02*
G54D11*
D03*
X1944688Y1193800D02*
G54D11*
D03*
X1949450Y1333500D02*
G54D11*
D03*
X1963120Y1224732D02*
G54D15*
D03*
X1963120Y1123132D02*
G54D15*
D03*
X2597150Y1092200D02*
G54D11*
D03*
X2343150Y900112D02*
G54D11*
D03*
X2571750Y574675D02*
G54D15*
D03*
X2597150Y574675D02*
G54D15*
D03*
X1828800Y601662D02*
G54D11*
D03*
X2635250Y423862D02*
G54D11*
D03*
X1746250Y436562D02*
G54D11*
D03*
X1733550Y887412D02*
G54D11*
D03*
X2635250Y671512D02*
G54D11*
D03*
X2559050Y633412D02*
G54D11*
D03*
X2660650Y760412D02*
G54D11*
D03*
X2114550Y773112D02*
G54D11*
D03*
X2114550Y830262D02*
G54D11*
D03*
X1951038Y830262D02*
G54D11*
D03*
X1568450Y823912D02*
G54D16*
D03*
X1327150Y831850D02*
G54D16*
D03*
X1988520Y1224732D02*
G54D17*
D03*
X1988520Y1123132D02*
G54D17*
D03*
X2705100Y1054100D02*
G54D16*
D03*
X2686050Y415925D02*
G54D16*
D03*
X2114550Y415925D02*
G54D16*
D03*
X2114550Y347662D02*
G54D16*
D03*
X1993900Y333375D02*
G54D16*
D03*
X2146300Y1301750D02*
G54D16*
D03*
X1885950Y1301750D02*
G54D16*
D03*
X1657350Y1301750D02*
G54D16*
D03*
X1295400Y1065212D02*
G54D16*
D03*
X1295400Y889000D02*
G54D16*
D03*
X1244600Y882650D02*
G54D16*
D03*
X1219200Y703262D02*
G54D16*
D03*
X1301750Y671512D02*
G54D16*
D03*
X1295400Y481012D02*
G54D16*
D03*
X2146300Y766762D02*
G54D16*
D03*
X2514600Y766762D02*
G54D16*
D03*
X2514600Y652462D02*
G54D16*
D03*
X2863850Y652462D02*
G54D16*
D03*
X2489200Y447675D02*
G54D16*
D03*
X2927350Y271462D02*
G54D16*
D03*
X2686050Y271462D02*
G54D16*
D03*
X2876550Y895350D02*
G54D16*
D03*
X3016250Y895350D02*
G54D16*
D03*
X3125788Y493712D02*
G54D18*
D03*
X3174188Y493712D02*
G54D18*
D03*
X2881312Y487362D02*
G54D16*
D03*
X2940050Y377825D02*
G54D16*
D03*
X2997200Y550862D02*
G54D16*
D03*
X2622550Y487362D02*
G54D16*
D03*
X2698750Y487362D02*
G54D16*
D03*
X2597150Y404812D02*
G54D16*
D03*
X2405062Y404812D02*
G54D16*
D03*
X2357438Y649288D02*
G54D16*
D03*
X2305050Y649288D02*
G54D16*
D03*
X2597150Y85725D02*
G54D16*
D03*
X1295400Y71438D02*
G54D16*
D03*
X1301750Y193675D02*
G54D16*
D03*
X863600Y200025D02*
G54D16*
D03*
X843932Y243656D02*
G54D15*
D03*
X843932Y142057D02*
G54D15*
D03*
X2761453Y511361D02*
G54D15*
D03*
X2761453Y460561D02*
G54D15*
D03*
X2064541Y855849D02*
G54D17*
D03*
X2064541Y805048D02*
G54D17*
D03*
X2445541Y855849D02*
G54D15*
D03*
X2445541Y805048D02*
G54D15*
D03*
X2965863Y396795D02*
G54D15*
D03*
X2864263Y396795D02*
G54D15*
D03*
X2965863Y371395D02*
G54D15*
D03*
X2864263Y371395D02*
G54D15*
D03*
X2998139Y396555D02*
G54D15*
D03*
X2998139Y371155D02*
G54D15*
D03*
X2889250Y411162D02*
G54D16*
D03*
X2914650Y398462D02*
G54D16*
D03*
X3003550Y195262D02*
G54D16*
D03*
X1803400Y142875D02*
G54D16*
D03*
X3028950Y207962D02*
G54D16*
D03*
X2489200Y207962D02*
G54D16*
D03*
X2489200Y231775D02*
G54D16*
D03*
X2489200Y111125D02*
G54D16*
D03*
X1568450Y136525D02*
G54D16*
D03*
X1568450Y468312D02*
G54D16*
D03*
X3719512Y523875D02*
G54D16*
D03*
X3706812Y539750D02*
G54D16*
D03*
X2546350Y793750D02*
G54D16*
D03*
X2546350Y1225550D02*
G54D16*
D03*
X2190750Y1257300D02*
G54D16*
D03*
X2197100Y1136650D02*
G54D16*
D03*
X2064720Y1224732D02*
G54D15*
D03*
X2064720Y1123132D02*
G54D15*
D03*
X2978150Y762000D02*
G54D16*
D03*
X2978150Y563562D02*
G54D16*
D03*
X3073400Y563562D02*
G54D16*
D03*
X3142632Y462732D02*
G54D15*
D03*
X3142632Y361132D02*
G54D15*
D03*
X3169085Y462351D02*
G54D15*
D03*
X3169085Y360751D02*
G54D15*
D03*
X3187700Y339725D02*
G54D16*
D03*
X3143250Y227012D02*
G54D16*
D03*
X2501900Y73025D02*
G54D16*
D03*
X1339850Y71438D02*
G54D16*
D03*
X2738438Y1289050D02*
G54D17*
D03*
X2738438Y1187450D02*
G54D17*
D03*
X2482850Y901700D02*
G54D16*
D03*
X2482850Y79375D02*
G54D16*
D03*
X1830388Y104775D02*
G54D16*
D03*
X1555750Y98425D02*
G54D16*
D03*
X1555750Y487362D02*
G54D16*
D03*
X357188Y103188D02*
G54D16*
D03*
X345458Y243656D02*
G54D17*
D03*
X345458Y142057D02*
G54D17*
D03*
X422275Y479425D02*
G54D16*
D03*
X901700Y500062D02*
G54D16*
D03*
X409575Y1438275D02*
G54D19*
D03*
X447675Y1438275D02*
G54D19*
D03*
X485775Y1438275D02*
G54D19*
D03*
X523875Y1438275D02*
G54D19*
D03*
X561975Y1438275D02*
G54D19*
D03*
X600075Y1438275D02*
G54D19*
D03*
X638175Y1438275D02*
G54D19*
D03*
X676275Y1438275D02*
G54D19*
D03*
X714375Y1436688D02*
G54D19*
D03*
X752475Y1436688D02*
G54D19*
D03*
X390525Y1387475D02*
G54D19*
D03*
X428625Y1387475D02*
G54D19*
D03*
X466725Y1387475D02*
G54D19*
D03*
X504825Y1387475D02*
G54D19*
D03*
X542925Y1387475D02*
G54D19*
D03*
X581025Y1387475D02*
G54D19*
D03*
X619125Y1387475D02*
G54D19*
D03*
X657225Y1387475D02*
G54D19*
D03*
X695325Y1385888D02*
G54D19*
D03*
X733425Y1385888D02*
G54D19*
D03*
X771525Y1385888D02*
G54D19*
D03*
X1460500Y1308100D02*
G54D11*
D03*
X2698750Y773112D02*
G54D11*
D03*
X2470150Y792162D02*
G54D11*
D03*
X2451100Y79375D02*
G54D11*
D03*
X1320800Y85725D02*
G54D11*
D03*
X1308100Y320675D02*
G54D11*
D03*
X1112220Y461144D02*
G54D15*
D03*
X1112220Y359544D02*
G54D15*
D03*
X889000Y441325D02*
G54D19*
D03*
X698500Y517525D02*
G54D11*
D03*
G54D20*
X731838Y517525D02*
X698500Y517525D01*
G54D20*
X842962Y517525D02*
X876300Y517525D01*
X3055937Y633413D02*
G54D21*
D03*
X2761453Y679636D02*
G54D15*
D03*
X2761453Y628836D02*
G54D15*
D03*
X2152650Y601662D02*
G54D21*
D03*
X2279650Y671513D02*
G54D21*
D03*
X2844800Y671513D02*
G54D21*
D03*
X2605088Y487362D02*
G54D11*
D03*
X1835150Y530225D02*
G54D11*
D03*
X1835150Y1066800D02*
G54D11*
D03*
X1835150Y1219200D02*
G54D11*
D03*
X1682750Y1225550D02*
G54D11*
D03*
X1936750Y1225550D02*
G54D17*
D03*
X1936750Y1123950D02*
G54D17*
D03*
X2171700Y1136650D02*
G54D11*
D03*
X1879600Y123825D02*
G54D11*
D03*
X2063750Y123825D02*
G54D11*
D03*
X1758950Y1365250D02*
G54D11*
D03*
X2038350Y1365250D02*
G54D11*
D03*
X1841500Y1123950D02*
G54D11*
D03*
X1898650Y1314450D02*
G54D11*
D03*
X2038350Y1314450D02*
G54D11*
D03*
X2038350Y1225550D02*
G54D15*
D03*
X2038350Y1123950D02*
G54D15*
D03*
X1682750Y1163638D02*
G54D11*
D03*
X1822450Y1163638D02*
G54D11*
D03*
X1988520Y1154832D02*
G54D11*
D03*
X2000250Y1289050D02*
G54D11*
D03*
X2165350Y1276350D02*
G54D11*
D03*
X2012950Y1225550D02*
G54D15*
D03*
X2012950Y1123950D02*
G54D15*
D03*
X2063750Y1384300D02*
G54D11*
D03*
X1936750Y1384300D02*
G54D11*
D03*
X1910702Y1149030D02*
G54D17*
D03*
X1910702Y1123630D02*
G54D17*
D03*
X1949450Y1162050D02*
G54D11*
D03*
X1925638Y893762D02*
G54D11*
D03*
X2322512Y896938D02*
G54D11*
D03*
X2330450Y576262D02*
G54D11*
D03*
X2305050Y576262D02*
G54D11*
D03*
X2279650Y180975D02*
G54D11*
D03*
X2146300Y155575D02*
G54D11*
D03*
X2082800Y123825D02*
G54D11*
D03*
X1905000Y119062D02*
G54D11*
D03*
X1758950Y1174750D02*
G54D11*
D03*
X1784350Y1339850D02*
G54D11*
D03*
X2000250Y1339850D02*
G54D11*
D03*
X1752600Y474662D02*
G54D11*
D03*
X1625600Y474662D02*
G54D11*
D03*
X1625600Y220662D02*
G54D11*
D03*
X1927225Y220662D02*
G54D11*
D03*
X1555750Y1041400D02*
G54D21*
D03*
X1574800Y1041400D02*
G54D21*
D03*
X2064304Y1047431D02*
G54D15*
D03*
X2064304Y996632D02*
G54D15*
D03*
X1257854Y1015681D02*
G54D15*
D03*
X1257854Y964882D02*
G54D15*
D03*
X2559050Y1060450D02*
G54D21*
D03*
X2559050Y1041400D02*
G54D21*
D03*
X2445304Y1047431D02*
G54D15*
D03*
X2445304Y996632D02*
G54D15*
D03*
X2787650Y990600D02*
G54D21*
D03*
X3041650Y990600D02*
G54D21*
D03*
X3087688Y990600D02*
G54D21*
D03*
X2514600Y990600D02*
G54D21*
D03*
X1250950Y811212D02*
G54D22*
D03*
X1250950Y785812D02*
G54D22*
D03*
X1250950Y760412D02*
G54D22*
D03*
X1276350Y869950D02*
G54D21*
D03*
X1276350Y742950D02*
G54D21*
D03*
X1276350Y730250D02*
G54D21*
D03*
X1631950Y696912D02*
G54D21*
D03*
X1644650Y696912D02*
G54D21*
D03*
X1631950Y773112D02*
G54D21*
D03*
X1651000Y773112D02*
G54D21*
D03*
X1504950Y900112D02*
G54D11*
D03*
X1847850Y984250D02*
G54D11*
D03*
X1866900Y1238250D02*
G54D11*
D03*
X2260600Y1244600D02*
G54D11*
D03*
X1936750Y908050D02*
G54D11*
D03*
X2190750Y914400D02*
G54D11*
D03*
X2190750Y1098550D02*
G54D11*
D03*
X2222500Y1098550D02*
G54D11*
D03*
X1974850Y908050D02*
G54D11*
D03*
X2216150Y920750D02*
G54D11*
D03*
X2027238Y1104900D02*
G54D11*
D03*
X2228850Y1143000D02*
G54D11*
D03*
X2006600Y1149350D02*
G54D11*
D03*
X2032000Y1149350D02*
G54D11*
D03*
X2025650Y1252538D02*
G54D11*
D03*
X2216150Y1282700D02*
G54D11*
D03*
X2216150Y1485900D02*
G54D11*
D03*
X2747962Y1462088D02*
G54D11*
D03*
X2376646Y1383181D02*
G54D23*
D03*
X2404347Y1383181D02*
G54D23*
D03*
X2432443Y1383181D02*
G54D23*
D03*
X2459746Y1383181D02*
G54D23*
D03*
X2388655Y1410378D02*
G54D23*
D03*
X2416255Y1410175D02*
G54D23*
D03*
X2443856Y1410378D02*
G54D23*
D03*
X2471852Y1410378D02*
G54D23*
D03*
X2487240Y1383175D02*
G54D23*
D03*
X2557260Y1397278D02*
G54D24*
D03*
X2307253Y1397278D02*
G54D25*
D03*
X2708434Y1383181D02*
G54D23*
D03*
X2736135Y1383181D02*
G54D23*
D03*
X2764231Y1383181D02*
G54D23*
D03*
X2791534Y1383181D02*
G54D23*
D03*
X2720443Y1410378D02*
G54D23*
D03*
X2748043Y1410175D02*
G54D23*
D03*
X2775644Y1410378D02*
G54D23*
D03*
X2803640Y1410378D02*
G54D23*
D03*
X2819028Y1383175D02*
G54D23*
D03*
X2889047Y1397278D02*
G54D24*
D03*
X2639041Y1397278D02*
G54D25*
D03*
X1873250Y1322388D02*
G54D11*
D03*
X2133600Y1327150D02*
G54D11*
D03*
X2139950Y354012D02*
G54D11*
D03*
X1911350Y366712D02*
G54D11*
D03*
X2139950Y869950D02*
G54D11*
D03*
X2233612Y920750D02*
G54D11*
D03*
X2254250Y900112D02*
G54D11*
D03*
X2279650Y896938D02*
G54D11*
D03*
X2152650Y404812D02*
G54D11*
D03*
X1911350Y404812D02*
G54D11*
D03*
X2330450Y404812D02*
G54D11*
D03*
X2317750Y263525D02*
G54D11*
D03*
X2178973Y258404D02*
G54D15*
D03*
X2178973Y233004D02*
G54D15*
D03*
X2254250Y360362D02*
G54D11*
D03*
X1981200Y366712D02*
G54D11*
D03*
X2444750Y531812D02*
G54D11*
D03*
X2279650Y538162D02*
G54D11*
D03*
X2317750Y1149350D02*
G54D11*
D03*
G36*
X2518090Y1114830D02*
X2498090Y1114830D01*
X2498090Y1134830D01*
X2518090Y1134830D01*
X2518090Y1114830D01*
G37*
X2482690Y1124830D02*
G54D14*
D03*
X2457290Y1124829D02*
G54D14*
D03*
X2431890Y1124830D02*
G54D14*
D03*
X2406490Y1124829D02*
G54D14*
D03*
X2381090Y1124829D02*
G54D14*
D03*
X2381250Y1150938D02*
G54D14*
D03*
X2406650Y1150938D02*
G54D26*
D03*
X2432050Y1150938D02*
G54D14*
D03*
X2457450Y1150938D02*
G54D14*
D03*
X2482850Y1150938D02*
G54D14*
D03*
X2330450Y1098550D02*
G54D11*
D03*
X2482850Y1098550D02*
G54D11*
D03*
X2355850Y1098550D02*
G54D11*
D03*
X2432050Y1098550D02*
G54D11*
D03*
X2349500Y1019175D02*
G54D11*
D03*
X2432050Y1016000D02*
G54D11*
D03*
G36*
X2391090Y1267230D02*
X2371090Y1267230D01*
X2371090Y1287230D01*
X2391090Y1287230D01*
X2391090Y1267230D01*
G37*
X2355690Y1277230D02*
G54D14*
D03*
X2330290Y1277229D02*
G54D14*
D03*
X2304890Y1277230D02*
G54D14*
D03*
X2279490Y1277229D02*
G54D14*
D03*
X2254090Y1277229D02*
G54D14*
D03*
X2254250Y1303338D02*
G54D14*
D03*
X2279650Y1303338D02*
G54D14*
D03*
X2305050Y1303338D02*
G54D14*
D03*
X2330450Y1303338D02*
G54D14*
D03*
X2355850Y1303338D02*
G54D14*
D03*
X2446338Y1303338D02*
G54D14*
D03*
X2471738Y1303338D02*
G54D14*
D03*
X2497138Y1303338D02*
G54D14*
D03*
X2522538Y1303338D02*
G54D14*
D03*
X2547938Y1303338D02*
G54D14*
D03*
G36*
X2410258Y1287008D02*
X2430258Y1287008D01*
X2430258Y1267008D01*
X2410258Y1267008D01*
X2410258Y1287008D01*
G37*
X2445658Y1277008D02*
G54D14*
D03*
X2471058Y1277008D02*
G54D14*
D03*
X2496458Y1277008D02*
G54D14*
D03*
X2521858Y1277008D02*
G54D14*
D03*
X2547258Y1277008D02*
G54D14*
D03*
X2241550Y1123950D02*
G54D14*
D03*
X2343150Y1123950D02*
G54D14*
D03*
X2328862Y1136650D02*
G54D11*
D03*
X2336800Y1079500D02*
G54D11*
D03*
X2824162Y1233488D02*
G54D11*
D03*
X2476500Y1079500D02*
G54D11*
D03*
X2457450Y123825D02*
G54D11*
D03*
X2197740Y1324419D02*
G54D14*
D03*
X2197740Y1426019D02*
G54D14*
D03*
X2233612Y1473200D02*
G54D11*
D03*
X2133600Y1174750D02*
G54D11*
D03*
X2057400Y244475D02*
G54D11*
D03*
X1751012Y233362D02*
G54D11*
D03*
X2241550Y1098550D02*
G54D11*
D03*
X2152650Y1092200D02*
G54D11*
D03*
X2184400Y595312D02*
G54D11*
D03*
X2260600Y741362D02*
G54D15*
D03*
X2286000Y741362D02*
G54D15*
D03*
X2254250Y652462D02*
G54D11*
D03*
X2424112Y652462D02*
G54D11*
D03*
X2424112Y747712D02*
G54D11*
D03*
X2901950Y755650D02*
G54D11*
D03*
X2889250Y696912D02*
G54D15*
D03*
X2990850Y696912D02*
G54D15*
D03*
X2889250Y612775D02*
G54D15*
D03*
X2990850Y612775D02*
G54D15*
D03*
X2844800Y612775D02*
G54D11*
D03*
X2355850Y576262D02*
G54D15*
D03*
X2406650Y576262D02*
G54D15*
D03*
X2355850Y544512D02*
G54D15*
D03*
X2406650Y544512D02*
G54D15*
D03*
X2330863Y544432D02*
G54D15*
D03*
X2229263Y544432D02*
G54D15*
D03*
X2228850Y434975D02*
G54D11*
D03*
X2438400Y430212D02*
G54D11*
D03*
G36*
X2721290Y1176742D02*
X2701290Y1176742D01*
X2701290Y1196742D01*
X2721290Y1196742D01*
X2721290Y1176742D01*
G37*
X2685890Y1186742D02*
G54D14*
D03*
X2660490Y1186742D02*
G54D14*
D03*
X2635090Y1186742D02*
G54D14*
D03*
X2609690Y1186742D02*
G54D14*
D03*
X2584290Y1186742D02*
G54D14*
D03*
X2292350Y1022350D02*
G54D11*
D03*
X2584450Y1028700D02*
G54D11*
D03*
X2438400Y958850D02*
G54D11*
D03*
X2506662Y958850D02*
G54D11*
D03*
X2520950Y1187450D02*
G54D11*
D03*
X3424238Y1149350D02*
G54D11*
D03*
X2520950Y869950D02*
G54D11*
D03*
X2540000Y1016000D02*
G54D11*
D03*
X2965450Y1022350D02*
G54D11*
D03*
X2254250Y1460500D02*
G54D11*
D03*
X2686050Y1460500D02*
G54D11*
D03*
X2686050Y1354138D02*
G54D27*
D03*
X2120900Y1225550D02*
G54D27*
D03*
X2025650Y244475D02*
G54D27*
D03*
X1731962Y244475D02*
G54D27*
D03*
X2298700Y1149350D02*
G54D27*
D03*
X2273300Y1447800D02*
G54D27*
D03*
X2120900Y1149350D02*
G54D27*
D03*
X2051050Y295275D02*
G54D27*
D03*
X1797050Y295275D02*
G54D27*
D03*
X1822450Y322262D02*
G54D27*
D03*
X2044700Y322262D02*
G54D27*
D03*
X2109788Y1238250D02*
G54D27*
D03*
X2343150Y1430338D02*
G54D27*
D03*
X2660650Y1009650D02*
G54D27*
D03*
X2686050Y1009650D02*
G54D27*
D03*
X2584450Y1214438D02*
G54D14*
D03*
X2609850Y1214438D02*
G54D14*
D03*
X2635250Y1214438D02*
G54D14*
D03*
X2660650Y1214438D02*
G54D14*
D03*
X2686050Y1214438D02*
G54D14*
D03*
X3035300Y1214438D02*
G54D21*
D03*
X3054350Y1214438D02*
G54D21*
D03*
X2760662Y1289050D02*
G54D15*
D03*
X2760662Y1187450D02*
G54D15*
D03*
X2787650Y1289050D02*
G54D17*
D03*
X2787650Y1187450D02*
G54D17*
D03*
X2990850Y1009650D02*
G54D11*
D03*
X3067050Y1066800D02*
G54D11*
D03*
X2705100Y1073150D02*
G54D11*
D03*
X3048000Y869950D02*
G54D11*
D03*
X3208141Y870146D02*
G54D11*
D03*
X3233738Y1354138D02*
G54D11*
D03*
X3138488Y1354138D02*
G54D11*
D03*
X2940050Y1341438D02*
G54D11*
D03*
X3119438Y1347788D02*
G54D11*
D03*
X3259138Y1341438D02*
G54D11*
D03*
X3221038Y844550D02*
G54D11*
D03*
X2901950Y920750D02*
G54D11*
D03*
X3220841Y946346D02*
G54D11*
D03*
X2876550Y939800D02*
G54D11*
D03*
X3246438Y971550D02*
G54D11*
D03*
X2863850Y1028700D02*
G54D11*
D03*
X3297041Y1022546D02*
G54D11*
D03*
X2838450Y1054100D02*
G54D11*
D03*
X3278188Y1060450D02*
G54D11*
D03*
X3271838Y996950D02*
G54D11*
D03*
X3398641Y1124146D02*
G54D11*
D03*
X2762250Y1079500D02*
G54D11*
D03*
X3373438Y1098550D02*
G54D11*
D03*
X2736850Y1041400D02*
G54D11*
D03*
X3322441Y1047946D02*
G54D11*
D03*
X2706688Y1271588D02*
G54D11*
D03*
X3348038Y1136650D02*
G54D11*
D03*
X2851150Y1092200D02*
G54D11*
D03*
X2851150Y1187450D02*
G54D11*
D03*
X3475038Y1200150D02*
G54D11*
D03*
X2692400Y908050D02*
G54D11*
D03*
X3195441Y895546D02*
G54D11*
D03*
X2622550Y938212D02*
G54D11*
D03*
X3208338Y920750D02*
G54D11*
D03*
X3106738Y1322388D02*
G54D11*
D03*
X3132138Y1322388D02*
G54D11*
D03*
X3106738Y1296988D02*
G54D11*
D03*
X3151188Y1296988D02*
G54D11*
D03*
X4129088Y1374775D02*
G54D19*
D03*
X4175125Y1374775D02*
G54D19*
D03*
X2763838Y704850D02*
G54D11*
D03*
X2368550Y1041400D02*
G54D11*
D03*
X2095500Y1187450D02*
G54D11*
D03*
X2095500Y1219200D02*
G54D11*
D03*
X2019300Y644525D02*
G54D11*
D03*
X1530350Y633412D02*
G54D11*
D03*
X1536700Y128588D02*
G54D11*
D03*
X1995488Y652462D02*
G54D11*
D03*
X1511300Y646112D02*
G54D11*
D03*
X1511300Y136525D02*
G54D11*
D03*
X1828800Y481012D02*
G54D11*
D03*
X2317750Y455612D02*
G54D11*
D03*
X1797050Y487362D02*
G54D11*
D03*
X2336800Y449262D02*
G54D11*
D03*
X1809750Y500062D02*
G54D11*
D03*
X2362200Y461962D02*
G54D11*
D03*
X1847850Y500062D02*
G54D11*
D03*
X2381250Y468312D02*
G54D11*
D03*
X1866900Y284162D02*
G54D11*
D03*
X1784350Y474662D02*
G54D11*
D03*
X2374900Y442912D02*
G54D11*
D03*
X1873250Y500062D02*
G54D11*
D03*
X1889125Y493712D02*
G54D11*
D03*
X2343150Y493712D02*
G54D11*
D03*
X2393950Y493712D02*
G54D11*
D03*
X3090862Y582612D02*
G54D22*
D03*
X3208338Y582612D02*
G54D22*
D03*
X2011362Y309562D02*
G54D11*
D03*
X2178841Y366898D02*
G54D15*
D03*
X2178841Y316098D02*
G54D15*
D03*
X2178841Y204973D02*
G54D15*
D03*
X2178841Y154173D02*
G54D15*
D03*
X2514600Y1409700D02*
G54D21*
D03*
X1816100Y384175D02*
G54D28*
D03*
X1884362Y384175D02*
G54D28*
D03*
X1897062Y384175D02*
G54D28*
D03*
X1344612Y1392238D02*
G54D28*
D03*
X1327150Y1392238D02*
G54D28*
D03*
X1309688Y1392238D02*
G54D28*
D03*
X1276350Y77788D02*
G54D28*
D03*
X2927350Y1258888D02*
G54D11*
D03*
X2927350Y506412D02*
G54D11*
D03*
X2728912Y487362D02*
G54D11*
D03*
X2711450Y415925D02*
G54D11*
D03*
G36*
X2549050Y389412D02*
X2569050Y389412D01*
X2569050Y369412D01*
X2549050Y369412D01*
X2549050Y389412D01*
G37*
X2584450Y379412D02*
G54D14*
D03*
X2609850Y379412D02*
G54D14*
D03*
X2635250Y379412D02*
G54D14*
D03*
X2660650Y379412D02*
G54D14*
D03*
X2686050Y379412D02*
G54D14*
D03*
X2711450Y379412D02*
G54D14*
D03*
X2736850Y379412D02*
G54D14*
D03*
X2559050Y244475D02*
G54D11*
D03*
X4037012Y244475D02*
G54D11*
D03*
X4049712Y231775D02*
G54D11*
D03*
X4062412Y219075D02*
G54D11*
D03*
X4087812Y133350D02*
G54D11*
D03*
X4024312Y255588D02*
G54D11*
D03*
X4011612Y268288D02*
G54D11*
D03*
X3998912Y280988D02*
G54D11*
D03*
X2584450Y250825D02*
G54D11*
D03*
X2609850Y257175D02*
G54D11*
D03*
X2635250Y263525D02*
G54D11*
D03*
G36*
X2879250Y745012D02*
X2899250Y745012D01*
X2899250Y725012D01*
X2879250Y725012D01*
X2879250Y745012D01*
G37*
X2914650Y735012D02*
G54D14*
D03*
X2940050Y735012D02*
G54D14*
D03*
X2965450Y735012D02*
G54D14*
D03*
X2990850Y735012D02*
G54D14*
D03*
X3016250Y735012D02*
G54D14*
D03*
X3041650Y735012D02*
G54D14*
D03*
X3067050Y735012D02*
G54D14*
D03*
X3060700Y830262D02*
G54D11*
D03*
X3067050Y677862D02*
G54D11*
D03*
X3732212Y557212D02*
G54D11*
D03*
X3744912Y576262D02*
G54D11*
D03*
X3079750Y793750D02*
G54D11*
D03*
X3079750Y844550D02*
G54D11*
D03*
X3694112Y92075D02*
G54D11*
D03*
X2533650Y550862D02*
G54D11*
D03*
X2901950Y582612D02*
G54D11*
D03*
X2863850Y831850D02*
G54D11*
D03*
X2501900Y831850D02*
G54D11*
D03*
X2487612Y1322388D02*
G54D11*
D03*
X2432050Y1322388D02*
G54D11*
D03*
X2433638Y1255712D02*
G54D11*
D03*
X2533650Y1104900D02*
G54D11*
D03*
X2724150Y1092200D02*
G54D11*
D03*
X2768600Y785812D02*
G54D11*
D03*
X2952750Y563562D02*
G54D11*
D03*
X2520950Y525462D02*
G54D11*
D03*
X2514600Y550862D02*
G54D11*
D03*
X3028950Y582612D02*
G54D11*
D03*
X3035300Y474662D02*
G54D11*
D03*
X3122612Y431800D02*
G54D11*
D03*
X3117850Y214312D02*
G54D11*
D03*
X2635250Y220662D02*
G54D11*
D03*
X2952750Y1322388D02*
G54D11*
D03*
X3033712Y850900D02*
G54D11*
D03*
X3011488Y1258888D02*
G54D11*
D03*
X2400300Y1250950D02*
G54D11*
D03*
X3821112Y104775D02*
G54D11*
D03*
X3806825Y92075D02*
G54D11*
D03*
X3833812Y115888D02*
G54D11*
D03*
X3846512Y130175D02*
G54D11*
D03*
X3859212Y142875D02*
G54D11*
D03*
X3871912Y155575D02*
G54D11*
D03*
X3884612Y168275D02*
G54D11*
D03*
X3986212Y180975D02*
G54D11*
D03*
X3973512Y193675D02*
G54D11*
D03*
X3960812Y206375D02*
G54D11*
D03*
X3948112Y307975D02*
G54D11*
D03*
X3935412Y296862D02*
G54D11*
D03*
X3922712Y284162D02*
G54D11*
D03*
X3910012Y271462D02*
G54D11*
D03*
X3897312Y327025D02*
G54D11*
D03*
X1887538Y404812D02*
G54D11*
D03*
X1581150Y428625D02*
G54D11*
D03*
X1581150Y111125D02*
G54D11*
D03*
X1429163Y290432D02*
G54D15*
D03*
X1327563Y290432D02*
G54D15*
D03*
X1847850Y277812D02*
G54D11*
D03*
X1881188Y271462D02*
G54D11*
D03*
X1524000Y265112D02*
G54D11*
D03*
X1524000Y92075D02*
G54D11*
D03*
X398462Y90488D02*
G54D11*
D03*
X397845Y243656D02*
G54D17*
D03*
X397845Y142057D02*
G54D17*
D03*
X1301750Y339725D02*
G54D11*
D03*
X1608138Y339725D02*
G54D11*
D03*
X1614488Y206375D02*
G54D11*
D03*
X1765300Y206375D02*
G54D11*
D03*
X1212850Y385762D02*
G54D11*
D03*
X1187450Y149225D02*
G54D11*
D03*
X1789112Y187325D02*
G54D11*
D03*
X1377950Y398462D02*
G54D11*
D03*
X1593850Y398462D02*
G54D11*
D03*
X1593850Y193675D02*
G54D11*
D03*
X1751012Y193675D02*
G54D11*
D03*
X1193800Y398462D02*
G54D11*
D03*
X1174750Y168275D02*
G54D11*
D03*
X1162050Y373062D02*
G54D11*
D03*
X1149350Y142875D02*
G54D11*
D03*
X1174750Y423862D02*
G54D11*
D03*
X1162050Y122238D02*
G54D11*
D03*
X215282Y243656D02*
G54D17*
D03*
X215282Y142057D02*
G54D17*
D03*
X932832Y243656D02*
G54D15*
D03*
X932832Y142057D02*
G54D15*
D03*
X1010620Y243656D02*
G54D15*
D03*
X1010620Y142057D02*
G54D15*
D03*
X1086820Y243656D02*
G54D15*
D03*
X1086820Y142057D02*
G54D15*
D03*
X882032Y243656D02*
G54D15*
D03*
X882032Y142057D02*
G54D15*
D03*
X958232Y243656D02*
G54D15*
D03*
X958232Y142057D02*
G54D15*
D03*
X1036020Y243656D02*
G54D15*
D03*
X1036020Y142057D02*
G54D15*
D03*
X907432Y243656D02*
G54D15*
D03*
X907432Y142057D02*
G54D15*
D03*
X983632Y243656D02*
G54D15*
D03*
X983632Y142057D02*
G54D15*
D03*
X1061420Y243656D02*
G54D17*
D03*
X1061420Y142057D02*
G54D17*
D03*
X892844Y322881D02*
G54D15*
D03*
X892844Y297481D02*
G54D15*
D03*
X970632Y322881D02*
G54D15*
D03*
X970632Y297481D02*
G54D15*
D03*
X1048419Y322881D02*
G54D15*
D03*
X1048419Y297481D02*
G54D15*
D03*
X767732Y397644D02*
G54D15*
D03*
X767732Y296044D02*
G54D15*
D03*
X793132Y397644D02*
G54D15*
D03*
X793132Y296044D02*
G54D15*
D03*
X818117Y347344D02*
G54D17*
D03*
X818117Y296544D02*
G54D17*
D03*
X845104Y347344D02*
G54D15*
D03*
X845104Y296544D02*
G54D15*
D03*
X818232Y397493D02*
G54D15*
D03*
X818232Y372093D02*
G54D15*
D03*
X920750Y180975D02*
G54D11*
D03*
X996950Y193675D02*
G54D11*
D03*
X1073150Y180975D02*
G54D11*
D03*
X1085232Y461144D02*
G54D15*
D03*
X1085232Y359544D02*
G54D15*
D03*
X1059832Y461144D02*
G54D15*
D03*
X1059832Y359544D02*
G54D15*
D03*
X1036020Y461144D02*
G54D15*
D03*
X1036020Y359544D02*
G54D15*
D03*
X1003300Y595312D02*
G54D17*
D03*
X1041400Y595312D02*
G54D17*
D03*
X1022350Y576262D02*
G54D17*
D03*
X1003300Y544512D02*
G54D17*
D03*
X1041400Y544512D02*
G54D17*
D03*
X1022350Y525462D02*
G54D17*
D03*
X1073150Y544512D02*
G54D17*
D03*
X1111250Y544512D02*
G54D17*
D03*
X1092200Y525462D02*
G54D17*
D03*
X965045Y396714D02*
G54D17*
D03*
X965045Y434814D02*
G54D17*
D03*
X984095Y415763D02*
G54D17*
D03*
X869795Y360201D02*
G54D17*
D03*
X869795Y398301D02*
G54D17*
D03*
X888845Y379251D02*
G54D17*
D03*
X1010620Y461144D02*
G54D15*
D03*
X1010620Y359544D02*
G54D15*
D03*
X1162050Y608012D02*
G54D14*
D03*
X958850Y595312D02*
G54D11*
D03*
X958850Y576262D02*
G54D11*
D03*
X927100Y563562D02*
G54D11*
D03*
X914400Y358775D02*
G54D11*
D03*
X793750Y249238D02*
G54D11*
D03*
X785812Y142875D02*
G54D11*
D03*
X806450Y219075D02*
G54D11*
D03*
X817562Y238125D02*
G54D11*
D03*
X613745Y397644D02*
G54D15*
D03*
X613745Y296044D02*
G54D15*
D03*
X460375Y71438D02*
G54D28*
D03*
X434975Y192088D02*
G54D21*
D03*
X434975Y179388D02*
G54D21*
D03*
X664774Y250422D02*
G54D15*
D03*
X613974Y250422D02*
G54D15*
D03*
X1123950Y219075D02*
G54D21*
D03*
X1123950Y193675D02*
G54D21*
D03*
X1098550Y842962D02*
G54D29*
D03*
X1174750Y842962D02*
G54D29*
D03*
X965200Y517525D02*
G54D19*
D03*
X454025Y542925D02*
G54D11*
D03*
X447675Y511175D02*
G54D21*
D03*
G36*
X1200150Y1279525D02*
X1200150Y890588D01*
X1071562Y890588D01*
X1071562Y1279525D01*
X1200150Y1279525D01*
G37*
G54D30*
X1200150Y1279525D02*
X1200150Y890588D01*
X1071562Y890588D01*
X1071562Y1279525D01*
X1200150Y1279525D01*
X1104900Y1047750D02*
G54D21*
D03*
X1149350Y1047750D02*
G54D21*
D03*
X1073150Y895350D02*
G54D31*
D03*
X1086519Y297481D02*
G54D15*
D03*
X1086519Y322881D02*
G54D15*
D03*
X1009326Y297481D02*
G54D15*
D03*
X1009326Y322881D02*
G54D15*
D03*
X932532Y297481D02*
G54D15*
D03*
X932532Y322881D02*
G54D15*
D03*
X268413Y384083D02*
G54D15*
D03*
X268413Y358683D02*
G54D15*
D03*
X1073150Y1295400D02*
G54D15*
D03*
X1047750Y1295400D02*
G54D15*
D03*
X1230850Y965046D02*
G54D32*
D03*
X1230850Y990446D02*
G54D32*
D03*
X1644560Y384175D02*
G54D32*
D03*
X1644560Y409575D02*
G54D32*
D03*
X1106488Y588962D02*
G54D15*
D03*
X1081088Y588962D02*
G54D15*
D03*
X2450718Y475506D02*
G54D14*
D03*
X2450718Y500906D02*
G54D14*
D03*
X2450718Y640069D02*
G54D32*
D03*
X2450718Y665468D02*
G54D32*
D03*
X2768218Y818406D02*
G54D14*
D03*
X2768218Y843806D02*
G54D14*
D03*
X3053847Y1400175D02*
G54D32*
D03*
X3053846Y1374775D02*
G54D32*
D03*
X3091680Y455612D02*
G54D32*
D03*
X3091679Y430213D02*
G54D32*
D03*
X2965510Y659020D02*
G54D32*
D03*
X2990910Y659020D02*
G54D32*
D03*
X4181475Y1433012D02*
G54D32*
D03*
X4156075Y1433012D02*
G54D32*
D03*
X433942Y345757D02*
G54D17*
D03*
X433942Y294956D02*
G54D17*
D03*
X203200Y346076D02*
G54D15*
D03*
X203200Y371475D02*
G54D15*
D03*
X268336Y320381D02*
G54D15*
D03*
X268336Y294981D02*
G54D15*
D03*
X203200Y295276D02*
G54D15*
D03*
X203200Y320675D02*
G54D15*
D03*
X229154Y345757D02*
G54D17*
D03*
X229154Y294956D02*
G54D17*
D03*
X228600Y398462D02*
G54D15*
D03*
X228600Y373064D02*
G54D15*
D03*
X240682Y243656D02*
G54D17*
D03*
X240682Y142057D02*
G54D17*
D03*
X298450Y396875D02*
G54D11*
D03*
X984250Y481012D02*
G54D11*
D03*
X484742Y345757D02*
G54D17*
D03*
X484742Y294956D02*
G54D17*
D03*
X370858Y243656D02*
G54D17*
D03*
X370858Y142057D02*
G54D17*
D03*
X266082Y243656D02*
G54D17*
D03*
X266082Y142057D02*
G54D17*
D03*
X293070Y243656D02*
G54D17*
D03*
X293070Y142057D02*
G54D17*
D03*
X178770Y267469D02*
G54D17*
D03*
X178770Y165869D02*
G54D17*
D03*
X318470Y243656D02*
G54D17*
D03*
X318470Y142057D02*
G54D17*
D03*
X298450Y344488D02*
G54D11*
D03*
X422275Y392112D02*
G54D11*
D03*
X965200Y466725D02*
G54D11*
D03*
X346075Y346075D02*
G54D11*
D03*
X511729Y345757D02*
G54D17*
D03*
X511729Y294956D02*
G54D17*
D03*
X537129Y345757D02*
G54D17*
D03*
X537129Y294956D02*
G54D17*
D03*
X562529Y345757D02*
G54D17*
D03*
X562529Y294956D02*
G54D17*
D03*
X562529Y421957D02*
G54D17*
D03*
X562529Y371156D02*
G54D17*
D03*
X485775Y396875D02*
G54D15*
D03*
X485775Y371476D02*
G54D15*
D03*
X511175Y396875D02*
G54D15*
D03*
X511175Y371476D02*
G54D15*
D03*
X536575Y396875D02*
G54D15*
D03*
X536575Y371476D02*
G54D15*
D03*
X589932Y397644D02*
G54D15*
D03*
X589932Y296044D02*
G54D15*
D03*
X689945Y397644D02*
G54D15*
D03*
X689945Y296044D02*
G54D15*
D03*
X716932Y397644D02*
G54D15*
D03*
X716932Y296044D02*
G54D15*
D03*
X742332Y397644D02*
G54D15*
D03*
X742332Y296044D02*
G54D15*
D03*
X639145Y397644D02*
G54D15*
D03*
X639145Y296044D02*
G54D15*
D03*
X664545Y397644D02*
G54D15*
D03*
X664545Y296044D02*
G54D15*
D03*
X574675Y314325D02*
G54D11*
D03*
X728662Y263525D02*
G54D11*
D03*
X484188Y134938D02*
G54D11*
D03*
X939800Y415925D02*
G54D11*
D03*
X1149350Y415925D02*
G54D11*
D03*
X511175Y516712D02*
G54D18*
D03*
X511175Y468312D02*
G54D18*
D03*
X603250Y434975D02*
G54D22*
D03*
X601662Y550863D02*
G54D22*
D03*
X370858Y659582D02*
G54D15*
D03*
X370858Y557982D02*
G54D15*
D03*
X345458Y659582D02*
G54D15*
D03*
X345458Y557982D02*
G54D15*
D03*
X151782Y267469D02*
G54D15*
D03*
X151782Y165869D02*
G54D15*
D03*
X124795Y267469D02*
G54D15*
D03*
X124795Y165869D02*
G54D15*
D03*
X151782Y396056D02*
G54D15*
D03*
X151782Y294457D02*
G54D15*
D03*
X178770Y396056D02*
G54D17*
D03*
X178770Y294457D02*
G54D17*
D03*
X429595Y659582D02*
G54D15*
D03*
X429595Y557982D02*
G54D15*
D03*
X320058Y659582D02*
G54D15*
D03*
X320058Y557982D02*
G54D15*
D03*
X293070Y659582D02*
G54D15*
D03*
X293070Y557982D02*
G54D15*
D03*
X189882Y665932D02*
G54D15*
D03*
X189882Y564332D02*
G54D15*
D03*
X216870Y665932D02*
G54D15*
D03*
X216870Y564332D02*
G54D15*
D03*
X242270Y665932D02*
G54D15*
D03*
X242270Y564331D02*
G54D15*
D03*
X100906Y568930D02*
G54D33*
D03*
X100906Y619730D02*
G54D33*
D03*
X151706Y568930D02*
G54D33*
D03*
X151706Y619731D02*
G54D33*
D03*
X190500Y538162D02*
G54D15*
D03*
X241300Y538162D02*
G54D15*
D03*
X627616Y780731D02*
G54D34*
D03*
X627616Y729931D02*
G54D34*
D03*
X564472Y730824D02*
G54D35*
D03*
X564472Y781624D02*
G54D35*
D03*
X786366Y1001394D02*
G54D34*
D03*
X786366Y950594D02*
G54D34*
D03*
X504825Y800100D02*
G54D21*
D03*
X492125Y787400D02*
G54D21*
D03*
X466725Y633412D02*
G54D21*
D03*
X100304Y767830D02*
G54D35*
D03*
X100304Y717030D02*
G54D35*
D03*
X228892Y767830D02*
G54D35*
D03*
X228892Y717030D02*
G54D35*
D03*
X531812Y685800D02*
G54D19*
D03*
X531812Y569912D02*
G54D19*
D03*
X786016Y1151121D02*
G54D32*
D03*
X786016Y1176521D02*
G54D32*
D03*
X882650Y768350D02*
G54D29*
D03*
X908050Y768350D02*
G54D29*
D03*
X933450Y768350D02*
G54D29*
D03*
G36*
X855662Y984250D02*
X958850Y984250D01*
X958850Y830262D01*
X855662Y830262D01*
X855662Y984250D01*
G37*
G54D30*
X855662Y984250D02*
X958850Y984250D01*
X958850Y830262D01*
X855662Y830262D01*
X855662Y984250D01*
X931402Y1288120D02*
G54D29*
D03*
X906002Y1288120D02*
G54D29*
D03*
X880602Y1288120D02*
G54D29*
D03*
G36*
X855202Y1224620D02*
X958390Y1224620D01*
X958390Y1070632D01*
X855202Y1070632D01*
X855202Y1224620D01*
G37*
G54D30*
X855202Y1224620D02*
X958390Y1224620D01*
X958390Y1070632D01*
X855202Y1070632D01*
X855202Y1224620D01*
X1053482Y805631D02*
G54D36*
D03*
X1053482Y754831D02*
G54D36*
D03*
X1078882Y805631D02*
G54D36*
D03*
X1078882Y754831D02*
G54D36*
D03*
X1104282Y805631D02*
G54D36*
D03*
X1104282Y754831D02*
G54D36*
D03*
X1129682Y805631D02*
G54D36*
D03*
X1129682Y754831D02*
G54D36*
D03*
X1104900Y722312D02*
G54D37*
D03*
X1104900Y687388D02*
G54D19*
D03*
X403225Y804862D02*
G54D19*
D03*
X350838Y703262D02*
G54D19*
D03*
X454025Y703262D02*
G54D19*
D03*
X755650Y787400D02*
G54D38*
D03*
X806450Y787400D02*
G54D38*
D03*
X1168400Y1385888D02*
G54D39*
D03*
X1123950Y1343025D02*
G54D39*
D03*
X1212850Y1343025D02*
G54D39*
D03*
X893762Y1481138D02*
G54D19*
D03*
X995362Y1481138D02*
G54D19*
D03*
X868362Y1387475D02*
G54D19*
D03*
X944562Y1387475D02*
G54D19*
D03*
X1020762Y1387475D02*
G54D19*
D03*
X893762Y1362075D02*
G54D19*
D03*
X995362Y1362075D02*
G54D19*
D03*
X292100Y1220788D02*
G54D40*
D03*
X342900Y1220788D02*
G54D40*
D03*
X544512Y1220788D02*
G54D40*
D03*
X593725Y1220788D02*
G54D40*
D03*
X293688Y908050D02*
G54D40*
D03*
X593725Y908050D02*
G54D40*
D03*
X395288Y939800D02*
G54D40*
D03*
X544512Y939800D02*
G54D40*
D03*
X273050Y1322388D02*
G54D40*
D03*
X20638Y1290638D02*
G54D40*
D03*
X46038Y1177925D02*
G54D40*
D03*
X46038Y1127125D02*
G54D41*
D03*
X46038Y1011238D02*
G54D41*
D03*
X46038Y960438D02*
G54D41*
D03*
X66675Y525462D02*
G54D40*
D03*
X66675Y474662D02*
G54D41*
D03*
X66675Y358775D02*
G54D41*
D03*
X66675Y307975D02*
G54D41*
D03*
X255588Y869950D02*
G54D42*
D03*
X1770460Y434578D02*
G54D43*
D03*
X1780381Y434578D02*
G54D43*
D03*
X1790303Y434578D02*
G54D43*
D03*
X1800225Y434578D02*
G54D43*
D03*
X1810147Y434578D02*
G54D43*
D03*
X1820069Y434578D02*
G54D43*
D03*
X1829990Y434578D02*
G54D43*
D03*
X1840310Y434578D02*
G54D43*
D03*
X1849834Y434578D02*
G54D43*
D03*
X1860153Y434578D02*
G54D43*
D03*
X1869678Y434578D02*
G54D43*
D03*
X1879600Y434578D02*
G54D43*
D03*
X1889125Y434578D02*
G54D43*
D03*
X1899047Y434578D02*
G54D43*
D03*
X1909366Y434578D02*
G54D43*
D03*
X1919288Y434578D02*
G54D43*
D03*
X1770460Y240109D02*
G54D43*
D03*
X1780381Y240109D02*
G54D43*
D03*
X1790303Y240109D02*
G54D43*
D03*
X1800225Y240109D02*
G54D43*
D03*
X1810147Y240109D02*
G54D43*
D03*
X1820069Y240109D02*
G54D43*
D03*
X1829990Y240109D02*
G54D43*
D03*
X1840310Y240109D02*
G54D43*
D03*
X1849834Y240109D02*
G54D43*
D03*
X1860153Y240109D02*
G54D43*
D03*
X1869678Y240109D02*
G54D43*
D03*
X1879600Y240109D02*
G54D43*
D03*
X1889125Y240109D02*
G54D43*
D03*
X1899047Y240109D02*
G54D43*
D03*
X1909366Y240109D02*
G54D43*
D03*
X1919288Y240109D02*
G54D43*
D03*
X1943894Y410766D02*
G54D44*
D03*
X1943894Y401241D02*
G54D44*
D03*
X1943894Y391716D02*
G54D44*
D03*
X1943894Y381794D02*
G54D44*
D03*
X1943894Y371872D02*
G54D44*
D03*
X1943894Y362347D02*
G54D44*
D03*
X1943894Y352425D02*
G54D44*
D03*
X1943894Y342503D02*
G54D44*
D03*
X1944290Y332581D02*
G54D44*
D03*
X1943894Y322659D02*
G54D44*
D03*
X1943894Y312341D02*
G54D44*
D03*
X1943894Y302419D02*
G54D44*
D03*
X1943894Y292497D02*
G54D44*
D03*
X1943894Y282575D02*
G54D44*
D03*
X1943894Y272653D02*
G54D44*
D03*
X1943894Y262731D02*
G54D44*
D03*
X1747440Y411162D02*
G54D44*
D03*
X1747440Y401241D02*
G54D44*
D03*
X1747440Y391716D02*
G54D44*
D03*
X1747440Y381794D02*
G54D44*
D03*
X1747440Y371872D02*
G54D44*
D03*
X1747440Y362347D02*
G54D44*
D03*
X1747440Y352425D02*
G54D44*
D03*
X1747440Y342503D02*
G54D44*
D03*
X1747440Y332581D02*
G54D44*
D03*
X1747440Y322659D02*
G54D44*
D03*
X1747440Y312341D02*
G54D44*
D03*
X1747440Y302419D02*
G54D44*
D03*
X1747441Y292497D02*
G54D44*
D03*
X1747440Y282575D02*
G54D44*
D03*
X1747440Y272256D02*
G54D44*
D03*
X1747440Y262731D02*
G54D44*
D03*
X3119438Y1466850D02*
G54D45*
D03*
X3144838Y1466850D02*
G54D45*
D03*
X3170238Y1466850D02*
G54D45*
D03*
X3195638Y1466850D02*
G54D45*
D03*
X3221038Y1466850D02*
G54D45*
D03*
X3246438Y1466850D02*
G54D45*
D03*
X3271838Y1466850D02*
G54D45*
D03*
X3297238Y1466850D02*
G54D45*
D03*
X3322638Y1466850D02*
G54D45*
D03*
X3348038Y1466850D02*
G54D45*
D03*
X3373438Y1466850D02*
G54D45*
D03*
X3398838Y1466850D02*
G54D45*
D03*
X3424238Y1466850D02*
G54D45*
D03*
X3475038Y1466850D02*
G54D45*
D03*
X3500438Y1466850D02*
G54D45*
D03*
X3694112Y1466850D02*
G54D45*
D03*
X3719512Y1466850D02*
G54D45*
D03*
X3744912Y1466850D02*
G54D45*
D03*
X3795712Y1466850D02*
G54D45*
D03*
X3821112Y1466850D02*
G54D45*
D03*
X3846512Y1466850D02*
G54D45*
D03*
X3871912Y1466850D02*
G54D45*
D03*
X3897312Y1466850D02*
G54D45*
D03*
X3922712Y1466850D02*
G54D45*
D03*
X3948112Y1466850D02*
G54D45*
D03*
X3973512Y1466850D02*
G54D45*
D03*
X3998912Y1466850D02*
G54D45*
D03*
X4024312Y1466850D02*
G54D45*
D03*
X4049712Y1466850D02*
G54D45*
D03*
X4075112Y1466850D02*
G54D45*
D03*
X1390650Y1466850D02*
G54D45*
D03*
X1416050Y1466850D02*
G54D45*
D03*
X1441450Y1466850D02*
G54D45*
D03*
X1466850Y1466850D02*
G54D45*
D03*
X1517650Y1466850D02*
G54D45*
D03*
X1543050Y1466850D02*
G54D45*
D03*
X1568450Y1466850D02*
G54D45*
D03*
X1593850Y1466850D02*
G54D45*
D03*
X1619250Y1466850D02*
G54D45*
D03*
X1644650Y1466850D02*
G54D45*
D03*
X1670050Y1466850D02*
G54D45*
D03*
X1695450Y1466850D02*
G54D45*
D03*
X1720850Y1466850D02*
G54D45*
D03*
X1746250Y1466850D02*
G54D45*
D03*
X1771650Y1466850D02*
G54D45*
D03*
X1797050Y1466850D02*
G54D45*
D03*
X1822450Y1466850D02*
G54D45*
D03*
X1847850Y1466850D02*
G54D45*
D03*
X1873250Y1466850D02*
G54D45*
D03*
X1898650Y1466850D02*
G54D45*
D03*
X1924050Y1466850D02*
G54D45*
D03*
X1949450Y1466850D02*
G54D45*
D03*
X1974850Y1466850D02*
G54D45*
D03*
X2000250Y1466850D02*
G54D45*
D03*
X2025650Y1466850D02*
G54D45*
D03*
X2051050Y1466850D02*
G54D45*
D03*
X2076450Y1466850D02*
G54D45*
D03*
X3054349Y1293812D02*
G54D46*
D03*
X3074988Y1347788D02*
G54D47*
D03*
X3074988Y1322388D02*
G54D47*
D03*
X3074988Y1296988D02*
G54D47*
D03*
X3074988Y1271588D02*
G54D47*
D03*
X3074988Y1246188D02*
G54D47*
D03*
X3074988Y1220788D02*
G54D47*
D03*
X2598340Y1489075D02*
G54D48*
D03*
M02*
