%FSLAX34Y34*%
%MOMM*%
%LNSOLDERMASK_BOTTOM*%
G71*
G01*
%ADD10C,1.800*%
%ADD11C,1.900*%
%ADD12C,2.400*%
%ADD13C,1.400*%
%ADD14C,2.040*%
%LPD*%
G36*
X59234Y488629D02*
X59234Y470629D01*
X41234Y470629D01*
X41234Y488629D01*
X59234Y488629D01*
G37*
X50234Y454229D02*
G54D10*
D03*
X50234Y428829D02*
G54D10*
D03*
X50234Y403429D02*
G54D10*
D03*
X50234Y378029D02*
G54D10*
D03*
X50234Y352629D02*
G54D10*
D03*
X50234Y327229D02*
G54D10*
D03*
X126434Y327229D02*
G54D10*
D03*
X126434Y352629D02*
G54D10*
D03*
X126434Y378029D02*
G54D10*
D03*
X126434Y403429D02*
G54D10*
D03*
X126434Y428829D02*
G54D10*
D03*
X126434Y454229D02*
G54D10*
D03*
X126434Y479629D02*
G54D10*
D03*
G36*
X187822Y488629D02*
X187822Y470629D01*
X169822Y470629D01*
X169822Y488629D01*
X187822Y488629D01*
G37*
X178822Y454229D02*
G54D10*
D03*
X178822Y428829D02*
G54D10*
D03*
X178822Y403429D02*
G54D10*
D03*
X178822Y378029D02*
G54D10*
D03*
X178822Y352629D02*
G54D10*
D03*
X178822Y327229D02*
G54D10*
D03*
X255022Y327229D02*
G54D10*
D03*
X255022Y352629D02*
G54D10*
D03*
X255022Y378029D02*
G54D10*
D03*
X255022Y403429D02*
G54D10*
D03*
X255022Y428829D02*
G54D10*
D03*
X255022Y454229D02*
G54D10*
D03*
X255022Y479629D02*
G54D10*
D03*
G36*
X311647Y488629D02*
X311647Y470629D01*
X293647Y470629D01*
X293647Y488629D01*
X311647Y488629D01*
G37*
X302647Y454229D02*
G54D10*
D03*
X302647Y428829D02*
G54D10*
D03*
X302647Y403429D02*
G54D10*
D03*
X302647Y378029D02*
G54D10*
D03*
X302647Y352629D02*
G54D10*
D03*
X302647Y327229D02*
G54D10*
D03*
X378847Y327229D02*
G54D10*
D03*
X378847Y352629D02*
G54D10*
D03*
X378847Y378029D02*
G54D10*
D03*
X378847Y403429D02*
G54D10*
D03*
X378847Y428829D02*
G54D10*
D03*
X378847Y454229D02*
G54D10*
D03*
X378847Y479629D02*
G54D10*
D03*
G36*
X438647Y488629D02*
X438647Y470629D01*
X420647Y470629D01*
X420647Y488629D01*
X438647Y488629D01*
G37*
X429647Y454229D02*
G54D10*
D03*
X429647Y428829D02*
G54D10*
D03*
X429647Y403429D02*
G54D10*
D03*
X429647Y378029D02*
G54D10*
D03*
X429647Y352629D02*
G54D10*
D03*
X429647Y327229D02*
G54D10*
D03*
X505847Y327229D02*
G54D10*
D03*
X505847Y352629D02*
G54D10*
D03*
X505847Y378029D02*
G54D10*
D03*
X505847Y403429D02*
G54D10*
D03*
X505847Y428829D02*
G54D10*
D03*
X505847Y454229D02*
G54D10*
D03*
X505847Y479629D02*
G54D10*
D03*
G36*
X110034Y236217D02*
X110034Y218217D01*
X92034Y218217D01*
X92034Y236217D01*
X110034Y236217D01*
G37*
X101034Y201817D02*
G54D10*
D03*
X101034Y176417D02*
G54D10*
D03*
X101034Y151017D02*
G54D10*
D03*
X101034Y125617D02*
G54D10*
D03*
X101034Y100217D02*
G54D10*
D03*
X101034Y74817D02*
G54D10*
D03*
X177234Y74817D02*
G54D10*
D03*
X177234Y100217D02*
G54D10*
D03*
X177234Y125617D02*
G54D10*
D03*
X177234Y151017D02*
G54D10*
D03*
X177234Y176417D02*
G54D10*
D03*
X177234Y201817D02*
G54D10*
D03*
X177234Y227217D02*
G54D10*
D03*
G36*
X235447Y236217D02*
X235447Y218217D01*
X217447Y218217D01*
X217447Y236217D01*
X235447Y236217D01*
G37*
X226447Y201817D02*
G54D10*
D03*
X226447Y176417D02*
G54D10*
D03*
X226447Y151017D02*
G54D10*
D03*
X226447Y125617D02*
G54D10*
D03*
X226447Y100217D02*
G54D10*
D03*
X226447Y74817D02*
G54D10*
D03*
X302647Y74817D02*
G54D10*
D03*
X302647Y100217D02*
G54D10*
D03*
X302647Y125617D02*
G54D10*
D03*
X302647Y151017D02*
G54D10*
D03*
X302647Y176417D02*
G54D10*
D03*
X302647Y201817D02*
G54D10*
D03*
X302647Y227217D02*
G54D10*
D03*
G36*
X386259Y261617D02*
X386259Y243617D01*
X368259Y243617D01*
X368259Y261617D01*
X386259Y261617D01*
G37*
X377259Y227217D02*
G54D10*
D03*
X377259Y201817D02*
G54D10*
D03*
X377259Y176417D02*
G54D10*
D03*
X377259Y151017D02*
G54D10*
D03*
X377259Y125617D02*
G54D10*
D03*
X377259Y100217D02*
G54D10*
D03*
X377259Y74817D02*
G54D10*
D03*
X453459Y74817D02*
G54D10*
D03*
X453459Y100217D02*
G54D10*
D03*
X453459Y125617D02*
G54D10*
D03*
X453459Y151017D02*
G54D10*
D03*
X453459Y176417D02*
G54D10*
D03*
X453459Y201817D02*
G54D10*
D03*
X453459Y227217D02*
G54D10*
D03*
X453459Y252617D02*
G54D10*
D03*
X455612Y290513D02*
G54D11*
D03*
X531812Y290513D02*
G54D11*
D03*
X50800Y515938D02*
G54D12*
D03*
X101600Y515938D02*
G54D12*
D03*
X152400Y515938D02*
G54D12*
D03*
X201612Y515938D02*
G54D12*
D03*
X254000Y515938D02*
G54D12*
D03*
X303212Y515938D02*
G54D12*
D03*
X352425Y515938D02*
G54D12*
D03*
X404812Y515938D02*
G54D12*
D03*
X455612Y515938D02*
G54D12*
D03*
X504825Y515938D02*
G54D12*
D03*
X515938Y252412D02*
G54D12*
D03*
X492125Y227012D02*
G54D12*
D03*
X515938Y201612D02*
G54D12*
D03*
X492125Y176212D02*
G54D12*
D03*
X515938Y150812D02*
G54D12*
D03*
X492125Y125412D02*
G54D12*
D03*
X515938Y100012D02*
G54D12*
D03*
X492125Y74612D02*
G54D12*
D03*
X477838Y38100D02*
G54D12*
D03*
X427038Y38100D02*
G54D12*
D03*
X377825Y38100D02*
G54D12*
D03*
X327025Y38100D02*
G54D12*
D03*
X276225Y38100D02*
G54D12*
D03*
X227012Y38100D02*
G54D12*
D03*
X177800Y38100D02*
G54D12*
D03*
X38100Y74612D02*
G54D12*
D03*
X38100Y125412D02*
G54D12*
D03*
X38100Y176212D02*
G54D12*
D03*
X38100Y227012D02*
G54D12*
D03*
X38100Y276225D02*
G54D12*
D03*
X150813Y301625D02*
G54D13*
D03*
X150813Y238125D02*
G54D13*
D03*
X288925Y290513D02*
G54D13*
D03*
X430212Y290513D02*
G54D13*
D03*
X319088Y290512D02*
G54D13*
D03*
X319088Y138112D02*
G54D13*
D03*
X339725Y314325D02*
G54D13*
D03*
X339725Y150813D02*
G54D13*
D03*
X101600Y439738D02*
G54D13*
D03*
X161926Y439738D02*
G54D13*
D03*
X80425Y36512D02*
G54D14*
D03*
X60325Y36512D02*
G54D14*
D03*
X207962Y290512D02*
G54D11*
D03*
X258762Y290512D02*
G54D11*
D03*
X207962Y246062D02*
G54D13*
D03*
M02*
