%FSLAX34Y34*%
%MOMM*%
%LNCOPPER_BOTTOM*%
G71*
G01*
%ADD10C,1.400*%
%ADD11C,1.500*%
%ADD12C,2.000*%
%ADD13C,1.000*%
%ADD14C,1.000*%
%ADD15C,0.700*%
%ADD16C,0.400*%
%ADD17C,1.640*%
%LPD*%
G36*
X57234Y486629D02*
X57234Y472629D01*
X43234Y472629D01*
X43234Y486629D01*
X57234Y486629D01*
G37*
X50234Y454229D02*
G54D10*
D03*
X50234Y428829D02*
G54D10*
D03*
X50234Y403429D02*
G54D10*
D03*
X50234Y378029D02*
G54D10*
D03*
X50234Y352629D02*
G54D10*
D03*
X50234Y327229D02*
G54D10*
D03*
X126434Y327229D02*
G54D10*
D03*
X126434Y352629D02*
G54D10*
D03*
X126434Y378029D02*
G54D10*
D03*
X126434Y403429D02*
G54D10*
D03*
X126434Y428829D02*
G54D10*
D03*
X126434Y454229D02*
G54D10*
D03*
X126434Y479629D02*
G54D10*
D03*
G36*
X185822Y486629D02*
X185822Y472629D01*
X171822Y472629D01*
X171822Y486629D01*
X185822Y486629D01*
G37*
X178822Y454229D02*
G54D10*
D03*
X178822Y428829D02*
G54D10*
D03*
X178822Y403429D02*
G54D10*
D03*
X178822Y378029D02*
G54D10*
D03*
X178822Y352629D02*
G54D10*
D03*
X178822Y327229D02*
G54D10*
D03*
X255022Y327229D02*
G54D10*
D03*
X255022Y352629D02*
G54D10*
D03*
X255022Y378029D02*
G54D10*
D03*
X255022Y403429D02*
G54D10*
D03*
X255022Y428829D02*
G54D10*
D03*
X255022Y454229D02*
G54D10*
D03*
X255022Y479629D02*
G54D10*
D03*
G36*
X309647Y486629D02*
X309647Y472629D01*
X295647Y472629D01*
X295647Y486629D01*
X309647Y486629D01*
G37*
X302647Y454229D02*
G54D10*
D03*
X302647Y428829D02*
G54D10*
D03*
X302647Y403429D02*
G54D10*
D03*
X302647Y378029D02*
G54D10*
D03*
X302647Y352629D02*
G54D10*
D03*
X302647Y327229D02*
G54D10*
D03*
X378847Y327229D02*
G54D10*
D03*
X378847Y352629D02*
G54D10*
D03*
X378847Y378029D02*
G54D10*
D03*
X378847Y403429D02*
G54D10*
D03*
X378847Y428829D02*
G54D10*
D03*
X378847Y454229D02*
G54D10*
D03*
X378847Y479629D02*
G54D10*
D03*
G36*
X436647Y486629D02*
X436647Y472629D01*
X422647Y472629D01*
X422647Y486629D01*
X436647Y486629D01*
G37*
X429647Y454229D02*
G54D10*
D03*
X429647Y428829D02*
G54D10*
D03*
X429647Y403429D02*
G54D10*
D03*
X429647Y378029D02*
G54D10*
D03*
X429647Y352629D02*
G54D10*
D03*
X429647Y327229D02*
G54D10*
D03*
X505847Y327229D02*
G54D10*
D03*
X505847Y352629D02*
G54D10*
D03*
X505847Y378029D02*
G54D10*
D03*
X505847Y403429D02*
G54D10*
D03*
X505847Y428829D02*
G54D10*
D03*
X505847Y454229D02*
G54D10*
D03*
X505847Y479629D02*
G54D10*
D03*
G36*
X108034Y234217D02*
X108034Y220217D01*
X94034Y220217D01*
X94034Y234217D01*
X108034Y234217D01*
G37*
X101034Y201817D02*
G54D10*
D03*
X101034Y176417D02*
G54D10*
D03*
X101034Y151017D02*
G54D10*
D03*
X101034Y125617D02*
G54D10*
D03*
X101034Y100217D02*
G54D10*
D03*
X101034Y74817D02*
G54D10*
D03*
X177234Y74817D02*
G54D10*
D03*
X177234Y100217D02*
G54D10*
D03*
X177234Y125617D02*
G54D10*
D03*
X177234Y151017D02*
G54D10*
D03*
X177234Y176417D02*
G54D10*
D03*
X177234Y201817D02*
G54D10*
D03*
X177234Y227217D02*
G54D10*
D03*
G36*
X233447Y234217D02*
X233447Y220217D01*
X219447Y220217D01*
X219447Y234217D01*
X233447Y234217D01*
G37*
X226447Y201817D02*
G54D10*
D03*
X226447Y176417D02*
G54D10*
D03*
X226447Y151017D02*
G54D10*
D03*
X226447Y125617D02*
G54D10*
D03*
X226447Y100217D02*
G54D10*
D03*
X226447Y74817D02*
G54D10*
D03*
X302647Y74817D02*
G54D10*
D03*
X302647Y100217D02*
G54D10*
D03*
X302647Y125617D02*
G54D10*
D03*
X302647Y151017D02*
G54D10*
D03*
X302647Y176417D02*
G54D10*
D03*
X302647Y201817D02*
G54D10*
D03*
X302647Y227217D02*
G54D10*
D03*
G36*
X384259Y259617D02*
X384259Y245617D01*
X370259Y245617D01*
X370259Y259617D01*
X384259Y259617D01*
G37*
X377259Y227217D02*
G54D10*
D03*
X377259Y201817D02*
G54D10*
D03*
X377259Y176417D02*
G54D10*
D03*
X377259Y151017D02*
G54D10*
D03*
X377259Y125617D02*
G54D10*
D03*
X377259Y100217D02*
G54D10*
D03*
X377259Y74817D02*
G54D10*
D03*
X453459Y74817D02*
G54D10*
D03*
X453459Y100217D02*
G54D10*
D03*
X453459Y125617D02*
G54D10*
D03*
X453459Y151017D02*
G54D10*
D03*
X453459Y176417D02*
G54D10*
D03*
X453459Y201817D02*
G54D10*
D03*
X453459Y227217D02*
G54D10*
D03*
X453459Y252617D02*
G54D10*
D03*
X455612Y290513D02*
G54D11*
D03*
X531812Y290513D02*
G54D11*
D03*
X50800Y515938D02*
G54D12*
D03*
X101600Y515938D02*
G54D12*
D03*
X152400Y515938D02*
G54D12*
D03*
X201612Y515938D02*
G54D12*
D03*
X254000Y515938D02*
G54D12*
D03*
X303212Y515938D02*
G54D12*
D03*
X352425Y515938D02*
G54D12*
D03*
X404812Y515938D02*
G54D12*
D03*
X455612Y515938D02*
G54D12*
D03*
X504825Y515938D02*
G54D12*
D03*
X515938Y252412D02*
G54D12*
D03*
X492125Y227012D02*
G54D12*
D03*
X515938Y201612D02*
G54D12*
D03*
X492125Y176212D02*
G54D12*
D03*
X515938Y150812D02*
G54D12*
D03*
X492125Y125412D02*
G54D12*
D03*
X515938Y100012D02*
G54D12*
D03*
X492125Y74612D02*
G54D12*
D03*
X477838Y38100D02*
G54D12*
D03*
X427038Y38100D02*
G54D12*
D03*
X377825Y38100D02*
G54D12*
D03*
X327025Y38100D02*
G54D12*
D03*
X276225Y38100D02*
G54D12*
D03*
X227012Y38100D02*
G54D12*
D03*
X177800Y38100D02*
G54D12*
D03*
X38100Y74612D02*
G54D12*
D03*
X38100Y125412D02*
G54D12*
D03*
X38100Y176212D02*
G54D12*
D03*
X38100Y227012D02*
G54D12*
D03*
X38100Y276225D02*
G54D12*
D03*
X150813Y301625D02*
G54D13*
D03*
X150813Y238125D02*
G54D13*
D03*
X288925Y290513D02*
G54D13*
D03*
X430212Y290513D02*
G54D13*
D03*
X319088Y290512D02*
G54D13*
D03*
X319088Y138112D02*
G54D13*
D03*
X339725Y314325D02*
G54D13*
D03*
X339725Y150813D02*
G54D13*
D03*
X101600Y439738D02*
G54D13*
D03*
X161926Y439738D02*
G54D13*
D03*
G54D14*
X38100Y276225D02*
X38100Y301625D01*
X150813Y301625D01*
G54D14*
X38100Y301625D02*
X25400Y301625D01*
X25400Y539750D01*
X525462Y539750D01*
X538162Y527050D01*
X538162Y337321D01*
X453459Y252617D01*
G54D14*
X150813Y238126D02*
X158750Y246062D01*
X283801Y246062D01*
X302647Y227217D01*
G54D14*
X76200Y539750D02*
X76200Y508000D01*
X104775Y479425D01*
X126230Y479425D01*
X126434Y479629D01*
G54D14*
X228600Y539750D02*
X228600Y506051D01*
X255022Y479629D01*
G54D14*
X330200Y539750D02*
X330200Y501650D01*
X352425Y479425D01*
X378643Y479425D01*
X378847Y479629D01*
G54D14*
X481012Y539750D02*
X481012Y504464D01*
X505847Y479629D01*
G54D14*
X50234Y479629D02*
X25604Y479629D01*
X25400Y479425D01*
G54D14*
X50234Y403429D02*
X25604Y403429D01*
X25400Y403225D01*
G54D14*
X38100Y74612D02*
X100830Y74612D01*
X101034Y74817D01*
X101396Y74817D01*
X138112Y38100D01*
X177800Y38100D01*
G54D14*
X177800Y38100D02*
X200025Y38100D01*
X200025Y48395D01*
X226447Y74817D01*
G54D14*
X200025Y38100D02*
X200025Y36512D01*
X222250Y14288D01*
X341312Y14288D01*
X354012Y26988D01*
X354012Y51571D01*
X377259Y74817D01*
G54D14*
X177234Y227217D02*
X177234Y245497D01*
X177800Y246062D01*
G54D14*
X38100Y74612D02*
X38100Y77788D01*
X7938Y107950D01*
X7938Y231775D01*
X30162Y254000D01*
X52388Y254000D01*
X84138Y285750D01*
X177800Y285750D01*
X178822Y327229D01*
G54D15*
X50234Y327229D02*
X64522Y312942D01*
X135142Y312942D01*
X149225Y327025D01*
X178618Y327025D01*
X178822Y327229D01*
G54D14*
X178822Y327229D02*
X207758Y327229D01*
X222250Y312738D01*
X288155Y312738D01*
X302647Y327229D01*
G54D14*
X288925Y290513D02*
X288925Y311968D01*
X288155Y312738D01*
G54D14*
X429647Y327229D02*
X430212Y290513D01*
G54D14*
X429647Y327229D02*
X451054Y327229D01*
X468312Y344488D01*
X468312Y439738D01*
X454025Y454025D01*
X429851Y454025D01*
X429647Y454229D01*
G54D16*
X50800Y515938D02*
X71438Y495300D01*
X71438Y475432D01*
X50234Y454229D01*
G54D16*
X50234Y428829D02*
X90692Y428829D01*
X101600Y439738D01*
G54D16*
X50234Y378029D02*
X77992Y378029D01*
X103188Y403225D01*
X126230Y403225D01*
X126434Y403429D01*
G54D15*
X26988Y365125D02*
X113530Y365125D01*
X126434Y378029D01*
G54D16*
X126434Y428829D02*
X126434Y427603D01*
X142875Y411162D01*
X142875Y343670D01*
X126434Y327229D01*
G54D16*
X142875Y343670D02*
X142875Y342900D01*
X146050Y339725D01*
X200025Y339725D01*
X200025Y363538D01*
X158750Y363538D01*
X158750Y390525D01*
X217126Y390525D01*
X255022Y352629D01*
G54D16*
X178822Y378029D02*
X204222Y378029D01*
X255022Y327229D01*
G54D16*
X101600Y515938D02*
X115888Y515938D01*
X142875Y488950D01*
X142875Y430212D01*
X150812Y422275D01*
X150812Y352425D01*
X178618Y352425D01*
X178822Y352629D01*
G54D16*
X161926Y439738D02*
X188912Y439738D01*
X214312Y414338D01*
X334962Y414338D01*
X358775Y390525D01*
X396875Y390525D01*
X396875Y436201D01*
X378847Y454229D01*
G54D16*
X178822Y428829D02*
X178822Y403429D01*
G54D16*
X152400Y515938D02*
X152400Y506051D01*
X178822Y479629D01*
G54D16*
X178822Y454229D02*
X201408Y454229D01*
X201612Y454025D01*
X201612Y515938D01*
G54D16*
X201612Y454025D02*
X201612Y452438D01*
X225425Y428625D01*
X254818Y428625D01*
X255022Y428829D01*
X302647Y428829D01*
G54D16*
X255022Y479629D02*
X255022Y454229D01*
G54D16*
X254000Y515938D02*
X254000Y502876D01*
X302647Y454229D01*
G54D16*
X255022Y403429D02*
X255022Y378029D01*
G54D16*
X302647Y352629D02*
X302647Y327229D01*
G54D16*
X302647Y378029D02*
X302647Y376803D01*
X323850Y355600D01*
X323850Y298450D01*
X319088Y290512D01*
G54D16*
X302647Y403429D02*
X307771Y403429D01*
X339725Y371475D01*
X339725Y314325D01*
G54D16*
X302647Y479629D02*
X302647Y478403D01*
X352425Y428625D01*
X378643Y428625D01*
X378847Y428829D01*
G54D16*
X378847Y428829D02*
X378847Y403429D01*
G54D16*
X352425Y515938D02*
X371475Y515938D01*
X407988Y479425D01*
X429443Y479425D01*
X429647Y479629D01*
G54D16*
X303212Y515938D02*
X303212Y508000D01*
X342900Y468312D01*
X387350Y468312D01*
X414338Y441325D01*
X442912Y441325D01*
X455612Y428625D01*
X455612Y401638D01*
X446088Y392112D01*
X412750Y392112D01*
X412750Y369526D01*
X429647Y352629D01*
G54D16*
X429647Y428829D02*
X429647Y403429D01*
X406604Y403429D01*
X406400Y403225D01*
X406400Y307975D01*
X355600Y257175D01*
X355600Y239712D01*
X392112Y239712D01*
X398462Y233362D01*
X398462Y214312D01*
X347662Y214312D01*
X334962Y201612D01*
X302851Y201612D01*
X302647Y201817D01*
X272846Y201817D01*
X247650Y227012D01*
X226651Y227012D01*
X226447Y227217D01*
G54D16*
X378847Y352629D02*
X406196Y352629D01*
X406400Y352425D01*
G54D16*
X505847Y403429D02*
X505847Y378029D01*
G54D16*
X404812Y515938D02*
X423862Y515938D01*
X479425Y460375D01*
X479425Y379051D01*
X505847Y352629D01*
G54D16*
X455612Y515938D02*
X455612Y506412D01*
X490538Y471488D01*
X490538Y444139D01*
X505847Y428829D01*
G54D16*
X505847Y454229D02*
X505847Y455047D01*
X522288Y471488D01*
X522288Y498475D01*
X504825Y515938D01*
G54D16*
X455612Y290513D02*
X460376Y290513D01*
X496888Y327025D01*
X505642Y327025D01*
X505847Y327229D01*
G54D16*
X378847Y378029D02*
X378847Y374084D01*
X360362Y355600D01*
X360362Y314325D01*
X320675Y274638D01*
X90488Y274638D01*
X49212Y233362D01*
X44450Y233362D01*
X38100Y227012D01*
G54D16*
X378847Y327229D02*
X378847Y307409D01*
X338138Y266700D01*
X119062Y266700D01*
X84138Y231775D01*
X84138Y214312D01*
X134938Y214312D01*
X160338Y188912D01*
X244475Y188912D01*
X244475Y165100D01*
X211138Y165100D01*
X200025Y153988D01*
X200025Y127000D01*
X187325Y114300D01*
X144462Y114300D01*
X120650Y138112D01*
X76200Y138112D01*
X76200Y125051D01*
X101034Y100217D01*
G54D16*
X429647Y378029D02*
X437946Y378029D01*
X452438Y363538D01*
X452438Y349250D01*
X444500Y341312D01*
X414338Y341312D01*
X414338Y254000D01*
X441325Y227012D01*
X453254Y227012D01*
X453459Y227217D01*
X463755Y227217D01*
X490538Y254000D01*
X514350Y254000D01*
X515938Y252412D01*
G54D16*
X101034Y227217D02*
X106567Y227217D01*
X138112Y258762D01*
X319088Y258762D01*
X350838Y227012D01*
X377054Y227012D01*
X377259Y227217D01*
G54D16*
X377259Y252617D02*
X396670Y252617D01*
X434975Y214312D01*
X479425Y214312D01*
X492125Y227012D01*
G54D16*
X38100Y176212D02*
X42862Y176212D01*
X68262Y201612D01*
X100830Y201612D01*
X101034Y201817D01*
X126796Y201817D01*
X152400Y176212D01*
X177030Y176212D01*
X177234Y176417D01*
G54D16*
X38100Y125412D02*
X38100Y141288D01*
X85725Y188912D01*
X119062Y188912D01*
X144462Y163512D01*
X187325Y163512D01*
X200025Y176212D01*
X226447Y176417D01*
G54D14*
X177234Y227217D02*
X177234Y201817D01*
G54D16*
X177234Y151017D02*
X177234Y125617D01*
G54D16*
X101034Y125617D02*
X102983Y125617D01*
X153988Y74612D01*
X177030Y74612D01*
X177234Y74817D01*
G54D16*
X101034Y176417D02*
X101034Y151017D01*
G54D16*
X177234Y100217D02*
X198642Y100217D01*
X209550Y111125D01*
X209550Y139700D01*
X254000Y139700D01*
X279400Y114300D01*
X354012Y114300D01*
X354012Y150812D01*
X377259Y151017D01*
G54D16*
X226447Y151017D02*
X254204Y151017D01*
X266700Y163512D01*
X327026Y163512D01*
X339725Y150813D01*
G54D16*
X226447Y201817D02*
X253796Y201817D01*
X266700Y188912D01*
X414338Y188912D01*
X414338Y165100D01*
X428625Y150812D01*
X453254Y150812D01*
X453459Y151017D01*
G54D16*
X226447Y100217D02*
X231571Y100217D01*
X249238Y82550D01*
X249238Y60325D01*
X227012Y38100D01*
G54D16*
X226447Y125617D02*
X250621Y125617D01*
X276225Y100012D01*
X302443Y100012D01*
X302647Y100217D01*
G54D16*
X276225Y38100D02*
X276225Y55562D01*
X293688Y73025D01*
X300855Y73025D01*
X302647Y74817D01*
G54D16*
X302647Y100217D02*
X309358Y100217D01*
X327025Y82550D01*
X327025Y38100D01*
G54D16*
X377825Y38100D02*
X396875Y57150D01*
X396875Y80601D01*
X377259Y100217D01*
G54D16*
X377259Y100217D02*
X374445Y100217D01*
X361950Y112712D01*
X361950Y138112D01*
X396875Y138112D01*
X396875Y163512D01*
X360362Y163512D01*
X347662Y176212D01*
X302851Y176212D01*
X302647Y176417D01*
G54D16*
X377259Y125617D02*
X399845Y125617D01*
X412750Y112712D01*
X412750Y52388D01*
X427038Y38100D01*
G54D16*
X377259Y176417D02*
X404608Y176417D01*
X404812Y176212D01*
X404812Y147638D01*
X430212Y122238D01*
X430212Y73025D01*
X446088Y57150D01*
X458788Y57150D01*
X477838Y38100D01*
G54D16*
X453459Y201817D02*
X515733Y201817D01*
X515938Y201612D01*
G54D16*
X453459Y176417D02*
X491920Y176417D01*
X492125Y176212D01*
G54D16*
X453459Y125617D02*
X491920Y125617D01*
X492125Y125412D01*
G54D16*
X453459Y100217D02*
X515733Y100217D01*
X515938Y100012D01*
G54D16*
X453459Y74817D02*
X491920Y74817D01*
X492125Y74612D01*
X523875Y74612D01*
X523875Y76200D01*
X541338Y93662D01*
X541338Y280988D01*
X531812Y290513D01*
G54D16*
X377259Y201817D02*
X428420Y201817D01*
X428625Y201612D01*
X428625Y176212D01*
X441325Y163512D01*
X469900Y163512D01*
X482600Y150812D01*
X515938Y150812D01*
X80425Y36512D02*
G54D17*
D03*
X60325Y36512D02*
G54D17*
D03*
X207962Y290512D02*
G54D11*
D03*
X258762Y290512D02*
G54D11*
D03*
G54D14*
X101034Y74817D02*
X101034Y57122D01*
X80425Y36512D01*
G54D14*
X258762Y290512D02*
X288925Y290513D01*
X207962Y246062D02*
G54D13*
D03*
G54D16*
X302647Y151017D02*
X317296Y151017D01*
X319088Y149225D01*
X319088Y138112D01*
G54D16*
X302647Y125617D02*
X316117Y125617D01*
X319088Y128588D01*
X319088Y138112D01*
M02*
