; Drill file
; Format: 2.4 (00.0000)
M48
INCH
T01C0.0157
T02C0.0236
T03C0.0283
T04C0.0315
%
G05
G90
T01
X005940Y009380
X008190Y009690
X005940Y011880
X011370Y011440
X012560Y011440
X013370Y012380
X016940Y011440
X013370Y005940
X012560Y005440
X006380Y017310
X004000Y017310
T02
X008190Y011440
X010190Y011440
X017940Y011440
X020940Y011440
T03
X002370Y001440
X003170Y001440
X003980Y002950
X003980Y003950
X003980Y004950
X003980Y005950
X003980Y006950
X003980Y007950
X003980Y008950
X006980Y008950
X006980Y007950
X006980Y006950
X006980Y005950
X006980Y004950
X006980Y003950
X006980Y002950
X008920Y002950
X008920Y003950
X008920Y004950
X008920Y005950
X008920Y006950
X008920Y007950
X008920Y008950
X011920Y008950
X011920Y007950
X011920Y006950
X011920Y005950
X011920Y004950
X011920Y003950
X011920Y002950
X014850Y002950
X014850Y003950
X014850Y004950
X014850Y005950
X014850Y006950
X014850Y007950
X014850Y008950
X014850Y009950
X014920Y012880
X014920Y013880
X014920Y014880
X014920Y015880
X014920Y016880
X014920Y017880
X014920Y018880
X016920Y018880
X016920Y017880
X016920Y016880
X016920Y015880
X016920Y014880
X016920Y013880
X016920Y012880
X019920Y012880
X019920Y013880
X019920Y014880
X019920Y015880
X019920Y016880
X019920Y017880
X019920Y018880
X011920Y018880
X011920Y017880
X011920Y016880
X011920Y015880
X011920Y014880
X011920Y013880
X011920Y012880
X010040Y012880
X010040Y013880
X010040Y014880
X010040Y015880
X010040Y016880
X010040Y017880
X010040Y018880
X007040Y018880
X007040Y017880
X007040Y016880
X007040Y015880
X007040Y014880
X007040Y013880
X007040Y012880
X004980Y012880
X004980Y013880
X004980Y014880
X004980Y015880
X004980Y016880
X004980Y017880
X004980Y018880
X001980Y018880
X001980Y017880
X001980Y016880
X001980Y015880
X001980Y014880
X001980Y013880
X001980Y012880
X017850Y009950
X017850Y008950
X017850Y007950
X017850Y006950
X017850Y005950
X017850Y004950
X017850Y003950
X017850Y002950
T04
X001500Y002940
X001500Y004940
X001500Y006940
X001500Y008940
X001500Y010870
X002000Y020310
X004000Y020310
X006000Y020310
X007940Y020310
X010000Y020310
X011940Y020310
X013870Y020310
X015940Y020310
X017940Y020310
X019880Y020310
X020310Y009940
X019380Y008940
X020310Y007940
X019380Y006940
X020310Y005940
X019380Y004940
X020310Y003940
X019380Y002940
X018810Y001500
X016810Y001500
X014880Y001500
X012880Y001500
X010870Y001500
X008940Y001500
X007000Y001500
M30
