%FSLAX34Y34*%
%MOMM*%
%LNSILK_TOP*%
G71*
G01*
%ADD10C,0.150*%
%ADD11C,0.206*%
%ADD12C,0.167*%
%LPD*%
G54D10*
X113734Y492329D02*
X62934Y492329D01*
X62934Y314529D01*
X113734Y314529D01*
X113734Y492329D01*
G54D10*
X101034Y492329D02*
X75634Y492329D01*
X75634Y479629D01*
X101034Y479629D01*
X101034Y492329D01*
G54D11*
X84822Y393067D02*
X73266Y393067D01*
G54D11*
X75433Y404044D02*
X82655Y404044D01*
X84100Y403177D01*
X84822Y401444D01*
X84822Y399711D01*
X84100Y397977D01*
X82655Y397111D01*
X75433Y397111D01*
X73988Y397977D01*
X73266Y399711D01*
X73266Y401444D01*
X73988Y403177D01*
X75433Y404044D01*
G54D11*
X84822Y413288D02*
X73266Y413288D01*
X80488Y408088D01*
X81933Y408088D01*
X81933Y415021D01*
G54D11*
X93454Y378779D02*
X93454Y385713D01*
X94898Y384846D01*
X97065Y383113D01*
X99954Y381379D01*
X102120Y380513D01*
X105009Y380513D01*
G54D11*
X105009Y394956D02*
X93454Y394956D01*
X100676Y389756D01*
X102120Y389756D01*
X102120Y396690D01*
G54D11*
X93454Y400733D02*
X105009Y400733D01*
X105009Y406800D01*
G54D11*
X102843Y410844D02*
X104287Y411711D01*
X105009Y413444D01*
X105009Y415178D01*
X104287Y416911D01*
X102843Y417778D01*
X101398Y417778D01*
X99954Y416911D01*
X99232Y415178D01*
X99232Y413444D01*
X98509Y411711D01*
X97065Y410844D01*
X95620Y410844D01*
X94176Y411711D01*
X93454Y413444D01*
X93454Y415178D01*
X94176Y416911D01*
X95620Y417778D01*
G54D11*
X105009Y427021D02*
X93454Y427021D01*
X100676Y421821D01*
X102120Y421821D01*
X102120Y428755D01*
G54D10*
X242322Y492329D02*
X191522Y492329D01*
X191522Y314529D01*
X242322Y314529D01*
X242322Y492329D01*
G54D10*
X229622Y492329D02*
X204222Y492329D01*
X204222Y479629D01*
X229622Y479629D01*
X229622Y492329D01*
G54D11*
X213409Y393067D02*
X201854Y393067D01*
G54D11*
X204020Y404044D02*
X211243Y404044D01*
X212687Y403177D01*
X213409Y401444D01*
X213409Y399711D01*
X212687Y397977D01*
X211243Y397111D01*
X204020Y397111D01*
X202576Y397977D01*
X201854Y399711D01*
X201854Y401444D01*
X202576Y403177D01*
X204020Y404044D01*
G54D11*
X204020Y408088D02*
X202576Y408954D01*
X201854Y410688D01*
X201854Y412421D01*
X202576Y414154D01*
X204020Y415021D01*
X205465Y415021D01*
X206909Y414154D01*
X207632Y412421D01*
X208354Y414154D01*
X209798Y415021D01*
X211243Y415021D01*
X212687Y414154D01*
X213409Y412421D01*
X213409Y410688D01*
X212687Y408954D01*
X211243Y408088D01*
G54D11*
X220454Y372429D02*
X220454Y379363D01*
X221898Y378496D01*
X224065Y376763D01*
X226954Y375029D01*
X229120Y374163D01*
X232009Y374163D01*
G54D11*
X232009Y388606D02*
X220454Y388606D01*
X227676Y383406D01*
X229120Y383406D01*
X229120Y390340D01*
G54D11*
X220454Y394383D02*
X232009Y394383D01*
X232009Y400450D01*
G54D11*
X229843Y404494D02*
X231287Y405361D01*
X232009Y407094D01*
X232009Y408828D01*
X231287Y410561D01*
X229843Y411428D01*
X228398Y411428D01*
X226954Y410561D01*
X226232Y408828D01*
X226232Y407094D01*
X225509Y405361D01*
X224065Y404494D01*
X222620Y404494D01*
X221176Y405361D01*
X220454Y407094D01*
X220454Y408828D01*
X221176Y410561D01*
X222620Y411428D01*
G54D11*
X222620Y422405D02*
X229843Y422405D01*
X231287Y421538D01*
X232009Y419805D01*
X232009Y418071D01*
X231287Y416338D01*
X229843Y415471D01*
X222620Y415471D01*
X221176Y416338D01*
X220454Y418071D01*
X220454Y419805D01*
X221176Y421538D01*
X222620Y422405D01*
G54D11*
X222620Y433382D02*
X229843Y433382D01*
X231287Y432515D01*
X232009Y430782D01*
X232009Y429048D01*
X231287Y427315D01*
X229843Y426448D01*
X222620Y426448D01*
X221176Y427315D01*
X220454Y429048D01*
X220454Y430782D01*
X221176Y432515D01*
X222620Y433382D01*
G54D10*
X366147Y492329D02*
X315347Y492329D01*
X315347Y314529D01*
X366147Y314529D01*
X366147Y492329D01*
G54D10*
X353447Y492329D02*
X328047Y492329D01*
X328047Y479629D01*
X353447Y479629D01*
X353447Y492329D01*
G54D11*
X337234Y393067D02*
X325679Y393067D01*
G54D11*
X327845Y404044D02*
X335068Y404044D01*
X336512Y403177D01*
X337234Y401444D01*
X337234Y399711D01*
X336512Y397977D01*
X335068Y397111D01*
X327845Y397111D01*
X326401Y397977D01*
X325679Y399711D01*
X325679Y401444D01*
X326401Y403177D01*
X327845Y404044D01*
G54D11*
X337234Y415021D02*
X337234Y408088D01*
X336512Y408088D01*
X335068Y408954D01*
X330734Y414154D01*
X329290Y415021D01*
X327845Y415021D01*
X326401Y414154D01*
X325679Y412421D01*
X325679Y410688D01*
X326401Y408954D01*
X327845Y408088D01*
G54D11*
X344279Y372429D02*
X344279Y379363D01*
X345723Y378496D01*
X347890Y376763D01*
X350779Y375029D01*
X352945Y374163D01*
X355834Y374163D01*
G54D11*
X355834Y388606D02*
X344279Y388606D01*
X351501Y383406D01*
X352945Y383406D01*
X352945Y390340D01*
G54D11*
X344279Y394383D02*
X355834Y394383D01*
X355834Y400450D01*
G54D11*
X353668Y404494D02*
X355112Y405361D01*
X355834Y407094D01*
X355834Y408828D01*
X355112Y410561D01*
X353668Y411428D01*
X352223Y411428D01*
X350779Y410561D01*
X350057Y408828D01*
X350057Y407094D01*
X349334Y405361D01*
X347890Y404494D01*
X346445Y404494D01*
X345001Y405361D01*
X344279Y407094D01*
X344279Y408828D01*
X345001Y410561D01*
X346445Y411428D01*
G54D11*
X346445Y422405D02*
X353668Y422405D01*
X355112Y421538D01*
X355834Y419805D01*
X355834Y418071D01*
X355112Y416338D01*
X353668Y415471D01*
X346445Y415471D01*
X345001Y416338D01*
X344279Y418071D01*
X344279Y419805D01*
X345001Y421538D01*
X346445Y422405D01*
G54D11*
X355834Y433382D02*
X355834Y426448D01*
X355112Y426448D01*
X353668Y427315D01*
X349334Y432515D01*
X347890Y433382D01*
X346445Y433382D01*
X345001Y432515D01*
X344279Y430782D01*
X344279Y429048D01*
X345001Y427315D01*
X346445Y426448D01*
G54D10*
X493147Y492329D02*
X442347Y492329D01*
X442347Y314529D01*
X493147Y314529D01*
X493147Y492329D01*
G54D10*
X480447Y492329D02*
X455047Y492329D01*
X455047Y479629D01*
X480447Y479629D01*
X480447Y492329D01*
G54D11*
X464234Y393067D02*
X452679Y393067D01*
G54D11*
X454845Y404044D02*
X462068Y404044D01*
X463512Y403177D01*
X464234Y401444D01*
X464234Y399711D01*
X463512Y397977D01*
X462068Y397111D01*
X454845Y397111D01*
X453401Y397977D01*
X452679Y399711D01*
X452679Y401444D01*
X453401Y403177D01*
X454845Y404044D01*
G54D11*
X457012Y408088D02*
X452679Y412421D01*
X464234Y412421D01*
G54D11*
X471279Y372429D02*
X471279Y379363D01*
X472723Y378496D01*
X474890Y376763D01*
X477779Y375029D01*
X479945Y374163D01*
X482834Y374163D01*
G54D11*
X482834Y388606D02*
X471279Y388606D01*
X478501Y383406D01*
X479945Y383406D01*
X479945Y390340D01*
G54D11*
X471279Y394383D02*
X482834Y394383D01*
X482834Y400450D01*
G54D11*
X480668Y404494D02*
X482112Y405361D01*
X482834Y407094D01*
X482834Y408828D01*
X482112Y410561D01*
X480668Y411428D01*
X479223Y411428D01*
X477779Y410561D01*
X477056Y408828D01*
X477056Y407094D01*
X476334Y405361D01*
X474890Y404494D01*
X473445Y404494D01*
X472001Y405361D01*
X471279Y407094D01*
X471279Y408828D01*
X472001Y410561D01*
X473445Y411428D01*
G54D11*
X473445Y415471D02*
X472001Y416338D01*
X471279Y418071D01*
X471279Y419805D01*
X472001Y421538D01*
X473445Y422405D01*
X474890Y422405D01*
X476334Y421538D01*
X477056Y419805D01*
X477779Y421538D01*
X479223Y422405D01*
X480668Y422405D01*
X482112Y421538D01*
X482834Y419805D01*
X482834Y418071D01*
X482112Y416338D01*
X480668Y415471D01*
G54D11*
X482834Y433382D02*
X482834Y426448D01*
X482112Y426448D01*
X480668Y427315D01*
X476334Y432515D01*
X474890Y433382D01*
X473445Y433382D01*
X472001Y432515D01*
X471279Y430782D01*
X471279Y429048D01*
X472001Y427315D01*
X473445Y426448D01*
G54D10*
X164534Y239917D02*
X113734Y239917D01*
X113734Y62117D01*
X164534Y62117D01*
X164534Y239917D01*
G54D10*
X151834Y239917D02*
X126434Y239917D01*
X126434Y227217D01*
X151834Y227217D01*
X151834Y239917D01*
G54D11*
X135622Y139067D02*
X124066Y139067D01*
G54D11*
X126233Y150044D02*
X133455Y150044D01*
X134900Y149177D01*
X135622Y147444D01*
X135622Y145711D01*
X134900Y143977D01*
X133455Y143111D01*
X126233Y143111D01*
X124788Y143977D01*
X124066Y145711D01*
X124066Y147444D01*
X124788Y149177D01*
X126233Y150044D01*
G54D11*
X124066Y154088D02*
X124066Y161021D01*
X125511Y160154D01*
X127677Y158421D01*
X130566Y156688D01*
X132733Y155821D01*
X135622Y155821D01*
G54D11*
X141079Y120017D02*
X141079Y126950D01*
X142523Y126083D01*
X144690Y124350D01*
X147579Y122617D01*
X149745Y121750D01*
X152634Y121750D01*
G54D11*
X152634Y136194D02*
X141079Y136194D01*
X148301Y130994D01*
X149745Y130994D01*
X149745Y137927D01*
G54D11*
X141079Y141971D02*
X152634Y141971D01*
X152634Y148037D01*
G54D11*
X150468Y152082D02*
X151912Y152948D01*
X152634Y154682D01*
X152634Y156415D01*
X151912Y158148D01*
X150468Y159015D01*
X149023Y159015D01*
X147579Y158148D01*
X146857Y156415D01*
X146857Y154682D01*
X146134Y152948D01*
X144690Y152082D01*
X143245Y152082D01*
X141801Y152948D01*
X141079Y154682D01*
X141079Y156415D01*
X141801Y158148D01*
X143245Y159015D01*
G54D11*
X143245Y169992D02*
X150468Y169992D01*
X151912Y169125D01*
X152634Y167392D01*
X152634Y165659D01*
X151912Y163925D01*
X150468Y163059D01*
X143245Y163059D01*
X141801Y163925D01*
X141079Y165659D01*
X141079Y167392D01*
X141801Y169125D01*
X143245Y169992D01*
G54D11*
X143245Y180969D02*
X150468Y180969D01*
X151912Y180102D01*
X152634Y178369D01*
X152634Y176636D01*
X151912Y174902D01*
X150468Y174036D01*
X143245Y174036D01*
X141801Y174902D01*
X141079Y176636D01*
X141079Y178369D01*
X141801Y180102D01*
X143245Y180969D01*
G54D10*
X289947Y239917D02*
X239147Y239917D01*
X239147Y62117D01*
X289947Y62117D01*
X289947Y239917D01*
G54D10*
X277247Y239917D02*
X251847Y239917D01*
X251847Y227217D01*
X277247Y227217D01*
X277247Y239917D01*
G54D11*
X261034Y139067D02*
X249479Y139067D01*
G54D11*
X251646Y150044D02*
X258868Y150044D01*
X260312Y149177D01*
X261034Y147444D01*
X261034Y145711D01*
X260312Y143977D01*
X258868Y143111D01*
X251646Y143111D01*
X250201Y143977D01*
X249479Y145711D01*
X249479Y147444D01*
X250201Y149177D01*
X251646Y150044D01*
G54D11*
X251646Y161021D02*
X250201Y160154D01*
X249479Y158421D01*
X249479Y156688D01*
X250201Y154954D01*
X251646Y154088D01*
X255257Y154088D01*
X255979Y154088D01*
X254534Y156688D01*
X254534Y158421D01*
X255257Y160154D01*
X256701Y161021D01*
X258868Y161021D01*
X260312Y160154D01*
X261034Y158421D01*
X261034Y156688D01*
X260312Y154954D01*
X258868Y154088D01*
X255257Y154088D01*
G54D11*
X266491Y120017D02*
X266491Y126950D01*
X267936Y126083D01*
X270102Y124350D01*
X272991Y122617D01*
X275158Y121750D01*
X278047Y121750D01*
G54D11*
X278047Y136194D02*
X266491Y136194D01*
X273714Y130994D01*
X275158Y130994D01*
X275158Y137927D01*
G54D11*
X266491Y141971D02*
X278047Y141971D01*
X278047Y148037D01*
G54D11*
X275880Y152082D02*
X277325Y152948D01*
X278047Y154682D01*
X278047Y156415D01*
X277325Y158148D01*
X275880Y159015D01*
X274436Y159015D01*
X272991Y158148D01*
X272269Y156415D01*
X272269Y154682D01*
X271547Y152948D01*
X270102Y152082D01*
X268658Y152082D01*
X267214Y152948D01*
X266491Y154682D01*
X266491Y156415D01*
X267214Y158148D01*
X268658Y159015D01*
G54D11*
X268658Y163059D02*
X267214Y163925D01*
X266491Y165659D01*
X266491Y167392D01*
X267214Y169125D01*
X268658Y169992D01*
X270102Y169992D01*
X271547Y169125D01*
X272269Y167392D01*
X272991Y169125D01*
X274436Y169992D01*
X275880Y169992D01*
X277325Y169125D01*
X278047Y167392D01*
X278047Y165659D01*
X277325Y163925D01*
X275880Y163059D01*
G54D11*
X278047Y180969D02*
X278047Y174036D01*
X277325Y174036D01*
X275880Y174902D01*
X271547Y180102D01*
X270102Y180969D01*
X268658Y180969D01*
X267214Y180102D01*
X266491Y178369D01*
X266491Y176636D01*
X267214Y174902D01*
X268658Y174036D01*
G54D10*
X440759Y265317D02*
X389959Y265317D01*
X389959Y62117D01*
X440759Y62117D01*
X440759Y265317D01*
G54D10*
X428059Y265317D02*
X402659Y265317D01*
X402659Y252617D01*
X428059Y252617D01*
X428059Y265317D01*
G54D11*
X411847Y151767D02*
X400291Y151767D01*
G54D11*
X402458Y162745D02*
X409680Y162745D01*
X411125Y161878D01*
X411847Y160145D01*
X411847Y158411D01*
X411125Y156678D01*
X409680Y155811D01*
X402458Y155811D01*
X401013Y156678D01*
X400291Y158411D01*
X400291Y160145D01*
X401013Y161878D01*
X402458Y162745D01*
G54D11*
X400291Y173722D02*
X400291Y166788D01*
X405347Y166788D01*
X405347Y167655D01*
X404625Y169388D01*
X404625Y171122D01*
X405347Y172855D01*
X406791Y173722D01*
X409680Y173722D01*
X411125Y172855D01*
X411847Y171122D01*
X411847Y169388D01*
X411125Y167655D01*
X409680Y166788D01*
G54D11*
X418891Y129542D02*
X418891Y136476D01*
X420336Y135609D01*
X422502Y133876D01*
X425391Y132142D01*
X427558Y131276D01*
X430447Y131276D01*
G54D11*
X430447Y145719D02*
X418891Y145719D01*
X426114Y140519D01*
X427558Y140519D01*
X427558Y147453D01*
G54D11*
X418891Y151496D02*
X430447Y151496D01*
X430447Y157563D01*
G54D11*
X428280Y161607D02*
X429725Y162474D01*
X430447Y164207D01*
X430447Y165941D01*
X429725Y167674D01*
X428280Y168541D01*
X426836Y168541D01*
X425391Y167674D01*
X424669Y165941D01*
X424669Y164207D01*
X423947Y162474D01*
X422502Y161607D01*
X421058Y161607D01*
X419614Y162474D01*
X418891Y164207D01*
X418891Y165941D01*
X419614Y167674D01*
X421058Y168541D01*
G54D11*
X423225Y172584D02*
X418891Y176918D01*
X430447Y176918D01*
G54D11*
X418891Y180961D02*
X418891Y187895D01*
X420336Y187028D01*
X422502Y185295D01*
X425391Y183561D01*
X427558Y182695D01*
X430447Y182695D01*
G54D11*
X430447Y197138D02*
X418891Y197138D01*
X426114Y191938D01*
X427558Y191938D01*
X427558Y198872D01*
G54D10*
X474712Y281013D02*
X474712Y300013D01*
X512712Y300013D01*
X512712Y281013D01*
X474712Y281013D01*
G54D10*
X474612Y290513D02*
X466712Y290513D01*
G54D10*
X512712Y290513D02*
X520612Y290513D01*
G54D11*
X501898Y308728D02*
X503631Y307284D01*
X504209Y305839D01*
X504209Y302950D01*
G54D11*
X499587Y302950D02*
X499587Y314506D01*
X502476Y314506D01*
X503631Y313784D01*
X504209Y312339D01*
X504209Y310895D01*
X503631Y309450D01*
X502476Y308728D01*
X499587Y308728D01*
G54D11*
X508253Y310173D02*
X511142Y314506D01*
X511142Y302950D01*
G54D11*
X485159Y285038D02*
X480537Y285038D01*
X480537Y285760D01*
X481115Y287205D01*
X484581Y291538D01*
X485159Y292982D01*
X485159Y294427D01*
X484581Y295871D01*
X483426Y296594D01*
X482270Y296594D01*
X481115Y295871D01*
X480537Y294427D01*
G54D11*
X489203Y285038D02*
X489203Y296594D01*
G54D11*
X490936Y289371D02*
X492670Y285038D01*
G54D11*
X489203Y287927D02*
X492670Y291538D01*
G54D11*
X501336Y285038D02*
X496714Y285038D01*
X496714Y285760D01*
X497292Y287205D01*
X500758Y291538D01*
X501336Y292982D01*
X501336Y294427D01*
X500758Y295871D01*
X499603Y296594D01*
X498447Y296594D01*
X497292Y295871D01*
X496714Y294427D01*
G54D11*
X23354Y295504D02*
X27976Y295504D01*
G54D11*
X25665Y298392D02*
X25665Y292615D01*
G54D11*
X36642Y302004D02*
X32020Y302004D01*
X32020Y296948D01*
X32597Y296948D01*
X33753Y297670D01*
X34908Y297670D01*
X36064Y296948D01*
X36642Y295504D01*
X36642Y292615D01*
X36064Y291170D01*
X34908Y290448D01*
X33753Y290448D01*
X32597Y291170D01*
X32020Y292615D01*
G54D11*
X40686Y302004D02*
X43574Y290448D01*
X46463Y302004D01*
G54D11*
X29114Y94614D02*
X31425Y94614D01*
X31425Y91003D01*
X30847Y89558D01*
X29692Y88836D01*
X28536Y88836D01*
X27381Y89558D01*
X26803Y91003D01*
X26803Y98225D01*
X27381Y99669D01*
X28536Y100392D01*
X29692Y100392D01*
X30847Y99669D01*
X31425Y98225D01*
G54D11*
X35469Y88836D02*
X35469Y100392D01*
X40091Y88836D01*
X40091Y100392D01*
G54D11*
X44135Y88836D02*
X44135Y100392D01*
X47024Y100392D01*
X48179Y99669D01*
X48757Y98225D01*
X48757Y91003D01*
X48179Y89558D01*
X47024Y88836D01*
X44135Y88836D01*
G54D11*
X168814Y18414D02*
X171125Y18414D01*
X171125Y14803D01*
X170547Y13358D01*
X169392Y12636D01*
X168236Y12636D01*
X167081Y13358D01*
X166503Y14803D01*
X166503Y22025D01*
X167081Y23469D01*
X168236Y24192D01*
X169392Y24192D01*
X170547Y23469D01*
X171125Y22025D01*
G54D11*
X175169Y12636D02*
X175169Y24192D01*
X179791Y12636D01*
X179791Y24192D01*
G54D11*
X183835Y12636D02*
X183835Y24192D01*
X186724Y24192D01*
X187879Y23469D01*
X188457Y22025D01*
X188457Y14803D01*
X187879Y13358D01*
X186724Y12636D01*
X183835Y12636D01*
G54D11*
X15564Y240601D02*
X18453Y252157D01*
X21342Y240601D01*
G54D11*
X16720Y244934D02*
X20186Y244934D01*
G54D11*
X28275Y246379D02*
X27119Y246379D01*
X25964Y247101D01*
X25386Y248545D01*
X25386Y249990D01*
X25964Y251434D01*
X27119Y252157D01*
X28275Y252157D01*
X29430Y251434D01*
X30008Y249990D01*
X30008Y248545D01*
X29430Y247101D01*
X28275Y246379D01*
X29430Y245657D01*
X30008Y244212D01*
X30008Y242768D01*
X29430Y241323D01*
X28275Y240601D01*
X27119Y240601D01*
X25964Y241323D01*
X25386Y242768D01*
X25386Y244212D01*
X25964Y245657D01*
X27119Y246379D01*
G54D11*
X34052Y245657D02*
X38674Y245657D01*
G54D11*
X47340Y240601D02*
X42718Y240601D01*
X42718Y241323D01*
X43296Y242768D01*
X46762Y247101D01*
X47340Y248545D01*
X47340Y249990D01*
X46762Y251434D01*
X45607Y252157D01*
X44451Y252157D01*
X43296Y251434D01*
X42718Y249990D01*
G54D11*
X56006Y252157D02*
X51384Y252157D01*
X51384Y247101D01*
X51962Y247101D01*
X53117Y247823D01*
X54273Y247823D01*
X55428Y247101D01*
X56006Y245657D01*
X56006Y242768D01*
X55428Y241323D01*
X54273Y240601D01*
X53117Y240601D01*
X51962Y241323D01*
X51384Y242768D01*
G54D11*
X64672Y249990D02*
X64094Y251434D01*
X62939Y252157D01*
X61783Y252157D01*
X60628Y251434D01*
X60050Y249990D01*
X60050Y246379D01*
X60050Y245657D01*
X61783Y247101D01*
X62939Y247101D01*
X64094Y246379D01*
X64672Y244934D01*
X64672Y242768D01*
X64094Y241323D01*
X62939Y240601D01*
X61783Y240601D01*
X60628Y241323D01*
X60050Y242768D01*
X60050Y246379D01*
G54D11*
X32554Y205532D02*
X32554Y204088D01*
X31976Y202644D01*
X31398Y202644D01*
G54D11*
X46074Y205532D02*
X46074Y204088D01*
X45496Y202644D01*
X44918Y202644D01*
G54D11*
X36868Y193556D02*
X37446Y192111D01*
X38601Y191389D01*
X39757Y191389D01*
X40912Y192111D01*
X41490Y193556D01*
X41490Y195000D01*
X40912Y196445D01*
X39757Y197167D01*
X38601Y197167D01*
X37446Y197889D01*
X36868Y199333D01*
X36868Y200778D01*
X37446Y202222D01*
X38601Y202945D01*
X39757Y202945D01*
X40912Y202222D01*
X41490Y200778D01*
G54D11*
X27630Y140589D02*
X30519Y152145D01*
X33408Y140589D01*
G54D11*
X28786Y144922D02*
X32252Y144922D01*
G54D11*
X37452Y147811D02*
X40341Y152145D01*
X40341Y140589D01*
G54D11*
X49007Y152145D02*
X44385Y152145D01*
X44385Y147089D01*
X44963Y147089D01*
X46118Y147811D01*
X47274Y147811D01*
X48429Y147089D01*
X49007Y145645D01*
X49007Y142756D01*
X48429Y141311D01*
X47274Y140589D01*
X46118Y140589D01*
X44963Y141311D01*
X44385Y142756D01*
G54D11*
X53518Y156954D02*
X53518Y155509D01*
X52940Y154065D01*
X52362Y154065D01*
G54D11*
X58718Y156954D02*
X58718Y155509D01*
X58140Y154065D01*
X57562Y154065D01*
G54D11*
X205760Y12001D02*
X210382Y23557D01*
G54D11*
X219048Y14168D02*
X218470Y12723D01*
X217315Y12001D01*
X216159Y12001D01*
X215004Y12723D01*
X214426Y14168D01*
X214426Y21390D01*
X215004Y22834D01*
X216159Y23557D01*
X217315Y23557D01*
X218470Y22834D01*
X219048Y21390D01*
G54D11*
X223092Y12001D02*
X225981Y23557D01*
X228870Y12001D01*
G54D11*
X224248Y16334D02*
X227714Y16334D01*
G54D11*
X232914Y14168D02*
X233492Y12723D01*
X234647Y12001D01*
X235803Y12001D01*
X236958Y12723D01*
X237536Y14168D01*
X237536Y15612D01*
X236958Y17057D01*
X235803Y17779D01*
X234647Y17779D01*
X233492Y18501D01*
X232914Y19945D01*
X232914Y21390D01*
X233492Y22834D01*
X234647Y23557D01*
X235803Y23557D01*
X236958Y22834D01*
X237536Y21390D01*
G54D11*
X241580Y19223D02*
X244469Y23557D01*
X244469Y12001D01*
G54D11*
X255105Y12001D02*
X259727Y23557D01*
G54D11*
X268393Y14168D02*
X267815Y12723D01*
X266660Y12001D01*
X265504Y12001D01*
X264349Y12723D01*
X263771Y14168D01*
X263771Y21390D01*
X264349Y22834D01*
X265504Y23557D01*
X266660Y23557D01*
X267815Y22834D01*
X268393Y21390D01*
G54D11*
X272437Y12001D02*
X275326Y23557D01*
X278215Y12001D01*
G54D11*
X273593Y16334D02*
X277059Y16334D01*
G54D11*
X282259Y14168D02*
X282837Y12723D01*
X283992Y12001D01*
X285148Y12001D01*
X286303Y12723D01*
X286881Y14168D01*
X286881Y15612D01*
X286303Y17057D01*
X285148Y17779D01*
X283992Y17779D01*
X282837Y18501D01*
X282259Y19945D01*
X282259Y21390D01*
X282837Y22834D01*
X283992Y23557D01*
X285148Y23557D01*
X286303Y22834D01*
X286881Y21390D01*
G54D11*
X295547Y21390D02*
X295547Y14168D01*
X294969Y12723D01*
X293814Y12001D01*
X292658Y12001D01*
X291503Y12723D01*
X290925Y14168D01*
X290925Y21390D01*
X291503Y22834D01*
X292658Y23557D01*
X293814Y23557D01*
X294969Y22834D01*
X295547Y21390D01*
G54D11*
X374353Y14168D02*
X377242Y12001D01*
G54D11*
X376664Y21390D02*
X376664Y14168D01*
X376086Y12723D01*
X374931Y12001D01*
X373775Y12001D01*
X372620Y12723D01*
X372042Y14168D01*
X372042Y21390D01*
X372620Y22834D01*
X373775Y23557D01*
X374931Y23557D01*
X376086Y22834D01*
X376664Y21390D01*
G54D11*
X381286Y21390D02*
X381864Y22834D01*
X383019Y23557D01*
X384175Y23557D01*
X385330Y22834D01*
X385908Y21390D01*
X385908Y19945D01*
X385330Y18501D01*
X384175Y17779D01*
X385330Y17057D01*
X385908Y15612D01*
X385908Y14168D01*
X385330Y12723D01*
X384175Y12001D01*
X383019Y12001D01*
X381864Y12723D01*
X381286Y14168D01*
G54D11*
X421210Y12001D02*
X421210Y23557D01*
X424099Y23557D01*
X425254Y22834D01*
X425832Y21390D01*
X425832Y14168D01*
X425254Y12723D01*
X424099Y12001D01*
X421210Y12001D01*
G54D11*
X429876Y21390D02*
X430454Y22834D01*
X431609Y23557D01*
X432765Y23557D01*
X433920Y22834D01*
X434498Y21390D01*
X434498Y19945D01*
X433920Y18501D01*
X432765Y17779D01*
X433920Y17057D01*
X434498Y15612D01*
X434498Y14168D01*
X433920Y12723D01*
X432765Y12001D01*
X431609Y12001D01*
X430454Y12723D01*
X429876Y14168D01*
G54D11*
X472010Y13589D02*
X472010Y25145D01*
X474899Y25145D01*
X476054Y24422D01*
X476632Y22978D01*
X476632Y15756D01*
X476054Y14311D01*
X474899Y13589D01*
X472010Y13589D01*
G54D11*
X485298Y22978D02*
X484720Y24422D01*
X483565Y25145D01*
X482409Y25145D01*
X481254Y24422D01*
X480676Y22978D01*
X480676Y19367D01*
X480676Y18645D01*
X482409Y20089D01*
X483565Y20089D01*
X484720Y19367D01*
X485298Y17922D01*
X485298Y15756D01*
X484720Y14311D01*
X483565Y13589D01*
X482409Y13589D01*
X481254Y14311D01*
X480676Y15756D01*
X480676Y19367D01*
G54D11*
X43471Y531114D02*
X46360Y542670D01*
X49249Y531114D01*
G54D11*
X44627Y535447D02*
X48093Y535447D01*
G54D11*
X57915Y540503D02*
X57337Y541947D01*
X56182Y542670D01*
X55026Y542670D01*
X53871Y541947D01*
X53293Y540503D01*
X53293Y536892D01*
X53293Y536170D01*
X55026Y537614D01*
X56182Y537614D01*
X57337Y536892D01*
X57915Y535447D01*
X57915Y533281D01*
X57337Y531836D01*
X56182Y531114D01*
X55026Y531114D01*
X53871Y531836D01*
X53293Y533281D01*
X53293Y536892D01*
G54D11*
X91144Y529524D02*
X94032Y541080D01*
X96921Y529524D01*
G54D11*
X92299Y533857D02*
X95766Y533857D01*
G54D11*
X100966Y536746D02*
X103854Y541080D01*
X103854Y529524D01*
G54D11*
X111365Y529524D02*
X111365Y541080D01*
X107898Y533857D01*
X107898Y532413D01*
X112521Y532413D01*
G54D11*
X117118Y544304D02*
X117118Y542859D01*
X116540Y541415D01*
X115962Y541415D01*
G54D11*
X140356Y529524D02*
X143244Y541080D01*
X146133Y529524D01*
G54D11*
X141511Y533857D02*
X144978Y533857D01*
G54D11*
X150178Y536746D02*
X153066Y541080D01*
X153066Y529524D01*
G54D11*
X160577Y529524D02*
X160577Y541080D01*
X157110Y533857D01*
X157110Y532413D01*
X161733Y532413D01*
G54D11*
X178772Y531114D02*
X183394Y542670D01*
G54D11*
X189749Y536892D02*
X191482Y535447D01*
X192060Y534003D01*
X192060Y531114D01*
G54D11*
X187438Y531114D02*
X187438Y542670D01*
X190327Y542670D01*
X191482Y541947D01*
X192060Y540503D01*
X192060Y539058D01*
X191482Y537614D01*
X190327Y536892D01*
X187438Y536892D01*
G54D11*
X196104Y531114D02*
X196104Y542670D01*
X200148Y542670D01*
G54D11*
X196104Y536892D02*
X200148Y536892D01*
G54D11*
X204192Y533281D02*
X204770Y531836D01*
X205925Y531114D01*
X207081Y531114D01*
X208236Y531836D01*
X208814Y533281D01*
X208814Y534725D01*
X208236Y536170D01*
X207081Y536892D01*
X205925Y536892D01*
X204770Y537614D01*
X204192Y539058D01*
X204192Y540503D01*
X204770Y541947D01*
X205925Y542670D01*
X207081Y542670D01*
X208236Y541947D01*
X208814Y540503D01*
G54D11*
X212858Y531114D02*
X212858Y542670D01*
G54D11*
X217480Y531114D02*
X217480Y542670D01*
G54D11*
X212858Y536892D02*
X217480Y536892D01*
G54D11*
X234470Y531114D02*
X239092Y542670D01*
G54D11*
X243136Y531114D02*
X243136Y542670D01*
X246024Y535447D01*
X248913Y542670D01*
X248913Y531114D01*
G54D11*
X255269Y536892D02*
X257002Y535447D01*
X257580Y534003D01*
X257580Y531114D01*
G54D11*
X252958Y531114D02*
X252958Y542670D01*
X255846Y542670D01*
X257002Y541947D01*
X257580Y540503D01*
X257580Y539058D01*
X257002Y537614D01*
X255846Y536892D01*
X252958Y536892D01*
G54D11*
X265668Y531114D02*
X261624Y531114D01*
X261624Y542670D01*
X265668Y542670D01*
G54D11*
X261624Y536892D02*
X265668Y536892D01*
G54D11*
X272023Y533281D02*
X274912Y531114D01*
G54D11*
X274334Y540503D02*
X274334Y533281D01*
X273756Y531836D01*
X272600Y531114D01*
X271445Y531114D01*
X270289Y531836D01*
X269712Y533281D01*
X269712Y540503D01*
X270289Y541947D01*
X271445Y542670D01*
X272600Y542670D01*
X273756Y541947D01*
X274334Y540503D01*
G54D11*
X292742Y529526D02*
X295631Y541082D01*
X298520Y529526D01*
G54D11*
X293898Y533859D02*
X297364Y533859D01*
G54D11*
X302564Y536748D02*
X305453Y541082D01*
X305453Y529526D01*
G54D11*
X314119Y541082D02*
X309497Y541082D01*
X309497Y536026D01*
X310075Y536026D01*
X311230Y536748D01*
X312386Y536748D01*
X313541Y536026D01*
X314119Y534582D01*
X314119Y531693D01*
X313541Y530248D01*
X312386Y529526D01*
X311230Y529526D01*
X310075Y530248D01*
X309497Y531693D01*
G54D11*
X318731Y544304D02*
X318731Y542859D01*
X318153Y541415D01*
X317576Y541415D01*
G54D12*
X-16130Y569788D02*
X-16130Y568121D01*
X-16796Y566455D01*
X-17463Y566455D01*
G54D11*
X341955Y529526D02*
X344844Y541082D01*
X347733Y529526D01*
G54D11*
X343111Y533859D02*
X346577Y533859D01*
G54D11*
X351777Y536748D02*
X354666Y541082D01*
X354666Y529526D01*
G54D11*
X363332Y541082D02*
X358710Y541082D01*
X358710Y536026D01*
X359288Y536026D01*
X360443Y536748D01*
X361599Y536748D01*
X362754Y536026D01*
X363332Y534582D01*
X363332Y531693D01*
X362754Y530248D01*
X361599Y529526D01*
X360443Y529526D01*
X359288Y530248D01*
X358710Y531693D01*
G54D11*
X391296Y529526D02*
X395918Y541081D01*
G54D11*
X399962Y541081D02*
X399962Y529526D01*
X402851Y536748D01*
X405740Y529526D01*
X405740Y541081D01*
G54D11*
X412095Y535303D02*
X413828Y533859D01*
X414406Y532414D01*
X414406Y529526D01*
G54D11*
X409784Y529526D02*
X409784Y541081D01*
X412673Y541081D01*
X413828Y540359D01*
X414406Y538914D01*
X414406Y537470D01*
X413828Y536026D01*
X412673Y535303D01*
X409784Y535303D01*
G54D11*
X434094Y529526D02*
X438717Y541082D01*
G54D11*
X442760Y529526D02*
X442760Y541082D01*
G54D11*
X451427Y538915D02*
X451427Y531693D01*
X450849Y530248D01*
X449693Y529526D01*
X448538Y529526D01*
X447382Y530248D01*
X446804Y531693D01*
X446804Y538915D01*
X447382Y540359D01*
X448538Y541082D01*
X449693Y541082D01*
X450849Y540359D01*
X451427Y538915D01*
G54D11*
X457782Y535304D02*
X459515Y533859D01*
X460093Y532415D01*
X460093Y529526D01*
G54D11*
X455470Y529526D02*
X455470Y541082D01*
X458359Y541082D01*
X459515Y540359D01*
X460093Y538915D01*
X460093Y537470D01*
X459515Y536026D01*
X458359Y535304D01*
X455470Y535304D01*
G54D11*
X466448Y531693D02*
X469336Y529526D01*
G54D11*
X468759Y538915D02*
X468759Y531693D01*
X468181Y530248D01*
X467025Y529526D01*
X465870Y529526D01*
X464714Y530248D01*
X464136Y531693D01*
X464136Y538915D01*
X464714Y540359D01*
X465870Y541082D01*
X467025Y541082D01*
X468181Y540359D01*
X468759Y538915D01*
G54D11*
X495775Y529524D02*
X498664Y541080D01*
X501553Y529524D01*
G54D11*
X496931Y533857D02*
X500397Y533857D01*
G54D11*
X505597Y536746D02*
X508486Y541080D01*
X508486Y529524D01*
G54D11*
X529486Y250706D02*
X530063Y249261D01*
X531219Y248539D01*
X532374Y248539D01*
X533530Y249261D01*
X534108Y250706D01*
X534108Y252150D01*
X533530Y253595D01*
X532374Y254317D01*
X531219Y254317D01*
X530063Y255039D01*
X529486Y256483D01*
X529486Y257928D01*
X530063Y259372D01*
X531219Y260095D01*
X532374Y260095D01*
X533530Y259372D01*
X534108Y257928D01*
G54D11*
X542196Y248539D02*
X538152Y248539D01*
X538152Y260095D01*
X542196Y260095D01*
G54D11*
X538152Y254317D02*
X542196Y254317D01*
G54D11*
X546240Y260095D02*
X546240Y248539D01*
X550284Y248539D01*
G54D11*
X502758Y221552D02*
X507381Y233107D01*
G54D11*
X513736Y227329D02*
X515469Y225885D01*
X516047Y224440D01*
X516047Y221552D01*
G54D11*
X511424Y221552D02*
X511424Y233107D01*
X514313Y233107D01*
X515469Y232385D01*
X516047Y230940D01*
X516047Y229496D01*
X515469Y228052D01*
X514313Y227329D01*
X511424Y227329D01*
G54D11*
X524135Y221552D02*
X520090Y221552D01*
X520090Y233107D01*
X524135Y233107D01*
G54D11*
X520090Y227329D02*
X524135Y227329D01*
G54D11*
X528178Y223718D02*
X528756Y222274D01*
X529912Y221552D01*
X531067Y221552D01*
X532223Y222274D01*
X532801Y223718D01*
X532801Y225163D01*
X532223Y226607D01*
X531067Y227329D01*
X529912Y227329D01*
X528756Y228052D01*
X528178Y229496D01*
X528178Y230940D01*
X528756Y232385D01*
X529912Y233107D01*
X531067Y233107D01*
X532223Y232385D01*
X532801Y230940D01*
G54D11*
X540889Y221552D02*
X536844Y221552D01*
X536844Y233107D01*
X540889Y233107D01*
G54D11*
X536844Y227329D02*
X540889Y227329D01*
G54D11*
X547244Y221552D02*
X547244Y233107D01*
G54D11*
X544932Y233107D02*
X549555Y233107D01*
G54D11*
X530754Y196151D02*
X530754Y207707D01*
X533643Y207707D01*
X534799Y206984D01*
X535377Y205540D01*
X535377Y198318D01*
X534799Y196873D01*
X533643Y196151D01*
X530754Y196151D01*
G54D11*
X539420Y207707D02*
X544043Y207707D01*
X543465Y206262D01*
X542309Y204095D01*
X541154Y201207D01*
X540576Y199040D01*
X540576Y196151D01*
G54D11*
X506948Y170751D02*
X506948Y182307D01*
X509837Y182307D01*
X510993Y181584D01*
X511571Y180140D01*
X511571Y172918D01*
X510993Y171473D01*
X509837Y170751D01*
X506948Y170751D01*
G54D11*
X519081Y170751D02*
X519081Y182307D01*
X515614Y175084D01*
X515614Y173640D01*
X520237Y173640D01*
G54D11*
X530748Y146939D02*
X530748Y158495D01*
X533636Y158495D01*
X534792Y157772D01*
X535370Y156328D01*
X535370Y149106D01*
X534792Y147661D01*
X533636Y146939D01*
X530748Y146939D01*
G54D11*
X544036Y158495D02*
X539414Y158495D01*
X539414Y153439D01*
X539991Y153439D01*
X541147Y154161D01*
X542302Y154161D01*
X543458Y153439D01*
X544036Y151995D01*
X544036Y149106D01*
X543458Y147661D01*
X542302Y146939D01*
X541147Y146939D01*
X539991Y147661D01*
X539414Y149106D01*
G54D11*
X506935Y119951D02*
X506935Y131507D01*
X509824Y131507D01*
X510979Y130784D01*
X511557Y129340D01*
X511557Y122118D01*
X510979Y120673D01*
X509824Y119951D01*
X506935Y119951D01*
G54D11*
X520223Y129340D02*
X520223Y122118D01*
X519645Y120673D01*
X518490Y119951D01*
X517334Y119951D01*
X516179Y120673D01*
X515601Y122118D01*
X515601Y129340D01*
X516179Y130784D01*
X517334Y131507D01*
X518490Y131507D01*
X519645Y130784D01*
X520223Y129340D01*
G54D11*
X529283Y94551D02*
X529283Y106107D01*
X532172Y106107D01*
X533327Y105384D01*
X533905Y103940D01*
X533905Y96718D01*
X533327Y95273D01*
X532172Y94551D01*
X529283Y94551D01*
G54D11*
X542571Y103940D02*
X542571Y96718D01*
X541993Y95273D01*
X540838Y94551D01*
X539682Y94551D01*
X538527Y95273D01*
X537949Y96718D01*
X537949Y103940D01*
X538527Y105384D01*
X539682Y106107D01*
X540838Y106107D01*
X541993Y105384D01*
X542571Y103940D01*
G54D11*
X507236Y69151D02*
X507236Y80707D01*
X510124Y80707D01*
X511280Y79984D01*
X511858Y78540D01*
X511858Y77095D01*
X511280Y75651D01*
X510124Y74929D01*
X511280Y74207D01*
X511858Y72762D01*
X511858Y71318D01*
X511280Y69873D01*
X510124Y69151D01*
X507236Y69151D01*
G54D11*
X507236Y74929D02*
X510124Y74929D01*
G54D11*
X515902Y80707D02*
X515902Y69151D01*
X519946Y69151D01*
G54D11*
X528612Y78540D02*
X528612Y71318D01*
X528034Y69873D01*
X526878Y69151D01*
X525723Y69151D01*
X524567Y69873D01*
X523990Y71318D01*
X523990Y78540D01*
X524567Y79984D01*
X525723Y80707D01*
X526878Y80707D01*
X528034Y79984D01*
X528612Y78540D01*
G54D11*
X532656Y69151D02*
X532656Y80707D01*
G54D11*
X532656Y72762D02*
X537278Y80707D01*
G54D11*
X534389Y74929D02*
X537278Y69151D01*
G54D11*
X307326Y12001D02*
X311948Y23557D01*
G54D11*
X320614Y14168D02*
X320036Y12723D01*
X318881Y12001D01*
X317725Y12001D01*
X316570Y12723D01*
X315992Y14168D01*
X315992Y21390D01*
X316570Y22834D01*
X317725Y23557D01*
X318881Y23557D01*
X320036Y22834D01*
X320614Y21390D01*
G54D11*
X324658Y12001D02*
X327547Y23557D01*
X330436Y12001D01*
G54D11*
X325814Y16334D02*
X329280Y16334D01*
G54D11*
X334480Y14168D02*
X335058Y12723D01*
X336213Y12001D01*
X337369Y12001D01*
X338524Y12723D01*
X339102Y14168D01*
X339102Y15612D01*
X338524Y17057D01*
X337369Y17779D01*
X336213Y17779D01*
X335058Y18501D01*
X334480Y19945D01*
X334480Y21390D01*
X335058Y22834D01*
X336213Y23557D01*
X337369Y23557D01*
X338524Y22834D01*
X339102Y21390D01*
G54D11*
X480026Y260095D02*
X480026Y248539D01*
X484071Y248539D01*
G54D11*
X492159Y248539D02*
X488114Y248539D01*
X488114Y260095D01*
X492159Y260095D01*
G54D11*
X488114Y254317D02*
X492159Y254317D01*
G54D11*
X496202Y248539D02*
X496202Y260095D01*
X499091Y260095D01*
X500247Y259372D01*
X500825Y257928D01*
X500825Y250706D01*
X500247Y249261D01*
X499091Y248539D01*
X496202Y248539D01*
G54D11*
X481614Y106107D02*
X481614Y94551D01*
X485658Y94551D01*
G54D11*
X493746Y94551D02*
X489702Y94551D01*
X489702Y106107D01*
X493746Y106107D01*
G54D11*
X489702Y100329D02*
X493746Y100329D01*
G54D11*
X497790Y94551D02*
X497790Y106107D01*
X500679Y106107D01*
X501834Y105384D01*
X502412Y103940D01*
X502412Y96718D01*
X501834Y95273D01*
X500679Y94551D01*
X497790Y94551D01*
G54D10*
X56525Y23812D02*
X64125Y23812D01*
G54D10*
X60325Y27612D02*
X60325Y20012D01*
G54D10*
G75*
G01X95429Y36362D02*
G03X95429Y36362I-25050J0D01*
G01*
G54D11*
X103975Y43353D02*
X103397Y41909D01*
X102242Y41186D01*
X101086Y41186D01*
X99931Y41909D01*
X99353Y43353D01*
X99353Y50575D01*
X99931Y52020D01*
X101086Y52742D01*
X102242Y52742D01*
X103397Y52020D01*
X103975Y50575D01*
G54D11*
X108019Y48409D02*
X110908Y52742D01*
X110908Y41186D01*
G54D11*
X99353Y28909D02*
X102242Y33242D01*
X102242Y21686D01*
G54D11*
X110908Y31075D02*
X110908Y23853D01*
X110330Y22409D01*
X109175Y21686D01*
X108019Y21686D01*
X106864Y22409D01*
X106286Y23853D01*
X106286Y31075D01*
X106864Y32520D01*
X108019Y33242D01*
X109175Y33242D01*
X110330Y32520D01*
X110908Y31075D01*
G54D11*
X119574Y31075D02*
X119574Y23853D01*
X118996Y22409D01*
X117841Y21686D01*
X116685Y21686D01*
X115530Y22409D01*
X114952Y23853D01*
X114952Y31075D01*
X115530Y32520D01*
X116685Y33242D01*
X117841Y33242D01*
X118996Y32520D01*
X119574Y31075D01*
G54D11*
X127085Y28186D02*
X127085Y21686D01*
G54D11*
X127085Y23131D02*
X126507Y21975D01*
X125351Y21686D01*
X124196Y21975D01*
X123618Y23131D01*
X123618Y28186D01*
G54D11*
X131129Y21686D02*
X131129Y33242D01*
X135173Y33242D01*
G54D11*
X131129Y27464D02*
X135173Y27464D01*
G54D10*
X197562Y303212D02*
X197562Y277812D01*
X269162Y277812D01*
X269162Y303212D01*
X197562Y303212D01*
G54D10*
X231762Y298512D02*
X231762Y282512D01*
G54D10*
X234962Y298512D02*
X234962Y282512D01*
G54D10*
X219062Y290512D02*
X231762Y290512D01*
G54D10*
X234962Y290512D02*
X247662Y290512D01*
G54D11*
X259309Y308316D02*
X258731Y306872D01*
X257575Y306150D01*
X256420Y306150D01*
X255264Y306872D01*
X254686Y308316D01*
X254686Y315538D01*
X255264Y316983D01*
X256420Y317705D01*
X257575Y317705D01*
X258731Y316983D01*
X259309Y315538D01*
G54D11*
X267975Y306150D02*
X263352Y306150D01*
X263352Y306872D01*
X263930Y308316D01*
X267397Y312650D01*
X267975Y314094D01*
X267975Y315538D01*
X267397Y316983D01*
X266241Y317705D01*
X265086Y317705D01*
X263930Y316983D01*
X263352Y315538D01*
G54D11*
X222902Y271647D02*
X225791Y275980D01*
X225791Y264424D01*
G54D11*
X234457Y273813D02*
X234457Y266591D01*
X233879Y265147D01*
X232724Y264424D01*
X231568Y264424D01*
X230413Y265147D01*
X229835Y266591D01*
X229835Y273813D01*
X230413Y275258D01*
X231568Y275980D01*
X232724Y275980D01*
X233879Y275258D01*
X234457Y273813D01*
G54D11*
X243123Y273813D02*
X243123Y266591D01*
X242545Y265147D01*
X241390Y264424D01*
X240234Y264424D01*
X239079Y265147D01*
X238501Y266591D01*
X238501Y273813D01*
X239079Y275258D01*
X240234Y275980D01*
X241390Y275980D01*
X242545Y275258D01*
X243123Y273813D01*
G54D11*
X247167Y264424D02*
X247167Y270924D01*
G54D11*
X247167Y269480D02*
X247745Y270491D01*
X248900Y270924D01*
X250056Y270491D01*
X250634Y269480D01*
X250634Y264424D01*
G54D12*
X8958Y323813D02*
X22292Y323813D01*
X22292Y328480D01*
G54D12*
X15625Y332147D02*
X14792Y333481D01*
X14792Y335081D01*
X16458Y336147D01*
X22292Y336147D01*
G54D12*
X19792Y336147D02*
X18125Y335481D01*
X17792Y334147D01*
X18125Y332814D01*
X19792Y332147D01*
X21458Y332414D01*
X22292Y333481D01*
X22292Y334147D01*
X22292Y334414D01*
X21458Y335481D01*
X19792Y336147D01*
G54D12*
X22292Y339814D02*
X14792Y339814D01*
G54D12*
X16125Y339814D02*
X14792Y341148D01*
X15292Y342481D01*
X16458Y343148D01*
X22292Y343148D01*
G54D12*
X16125Y343148D02*
X14792Y344481D01*
X15292Y345814D01*
X16458Y346481D01*
X22292Y346481D01*
G54D12*
X15625Y350148D02*
X14792Y351482D01*
X14792Y353082D01*
X16458Y354148D01*
X22292Y354148D01*
G54D12*
X19792Y354148D02*
X18125Y353482D01*
X17792Y352148D01*
X18125Y350815D01*
X19792Y350148D01*
X21458Y350415D01*
X22292Y351482D01*
X22292Y352148D01*
X22292Y352415D01*
X21458Y353482D01*
X19792Y354148D01*
G54D12*
X15292Y361149D02*
X14792Y359815D01*
X15292Y358482D01*
X16958Y357815D01*
X20292Y357815D01*
X21958Y358482D01*
X22292Y359815D01*
X21958Y361149D01*
G54D12*
X22292Y368615D02*
X8958Y373949D01*
G54D12*
X8958Y381415D02*
X22292Y384749D01*
X8958Y388082D01*
G54D12*
X15625Y391749D02*
X14792Y393083D01*
X14792Y394683D01*
X16458Y395749D01*
X22292Y395749D01*
G54D12*
X19792Y395749D02*
X18125Y395083D01*
X17792Y393749D01*
X18125Y392416D01*
X19792Y391749D01*
X21458Y392016D01*
X22292Y393083D01*
X22292Y393749D01*
X22292Y394016D01*
X21458Y395083D01*
X19792Y395749D01*
G54D12*
X22292Y399416D02*
X14792Y399416D01*
G54D12*
X16458Y399416D02*
X15292Y400083D01*
X14792Y401416D01*
X15292Y402750D01*
X16458Y403416D01*
X22292Y403416D01*
G54D12*
X21458Y411083D02*
X22292Y410017D01*
X22292Y408683D01*
X21458Y407350D01*
X19792Y407083D01*
X16958Y407083D01*
X15292Y407750D01*
X14792Y409083D01*
X15292Y410417D01*
X16458Y411083D01*
X18125Y411083D01*
X18125Y407083D01*
G54D12*
X22292Y414750D02*
X8958Y414750D01*
G54D12*
X17292Y416750D02*
X22292Y418750D01*
G54D12*
X18958Y414750D02*
X14792Y418750D01*
G54D12*
X22292Y426217D02*
X8958Y431551D01*
G54D12*
X8958Y439017D02*
X8958Y444351D01*
X22292Y439017D01*
X22292Y444351D01*
G54D12*
X8958Y448017D02*
X22292Y454684D01*
G54D12*
X22292Y448017D02*
X8958Y454684D01*
G54D12*
X19792Y458351D02*
X21458Y459018D01*
X22292Y460351D01*
X22292Y461685D01*
X21458Y463018D01*
X19792Y463685D01*
X18125Y463685D01*
X16458Y463018D01*
X15625Y461685D01*
X15625Y460351D01*
X14792Y459018D01*
X13125Y458351D01*
X11458Y458351D01*
X9792Y459018D01*
X8958Y460351D01*
X8958Y461685D01*
X9792Y463018D01*
X11458Y463685D01*
G54D12*
X15625Y474485D02*
X15625Y473151D01*
X14792Y471818D01*
X13125Y471151D01*
X11458Y471151D01*
X9792Y471818D01*
X8958Y473151D01*
X8958Y474485D01*
X9792Y475818D01*
X11458Y476485D01*
X13125Y476485D01*
X14792Y475818D01*
X15625Y474485D01*
X16458Y475818D01*
X18125Y476485D01*
X19792Y476485D01*
X21458Y475818D01*
X22292Y474485D01*
X22292Y473151D01*
X21458Y471818D01*
X19792Y471151D01*
X18125Y471151D01*
X16458Y471818D01*
X15625Y473151D01*
G54D12*
X11458Y485485D02*
X19792Y485485D01*
X21458Y484818D01*
X22292Y483485D01*
X22292Y482151D01*
X21458Y480818D01*
X19792Y480151D01*
X11458Y480151D01*
X9792Y480818D01*
X8958Y482151D01*
X8958Y483485D01*
X9792Y484818D01*
X11458Y485485D01*
G54D12*
X22292Y489151D02*
X8958Y489151D01*
G54D12*
X17292Y491151D02*
X22292Y493151D01*
G54D12*
X18958Y489151D02*
X14792Y493151D01*
G54D12*
X16458Y500618D02*
X16458Y505952D01*
G54D12*
X8958Y518752D02*
X8958Y513418D01*
X14792Y513418D01*
X14792Y514085D01*
X13958Y515418D01*
X13958Y516752D01*
X14792Y518085D01*
X16458Y518752D01*
X19792Y518752D01*
X21458Y518085D01*
X22292Y516752D01*
X22292Y515418D01*
X21458Y514085D01*
X19792Y513418D01*
G54D12*
X22292Y527752D02*
X22292Y522418D01*
X21458Y522418D01*
X19792Y523085D01*
X14792Y527085D01*
X13125Y527752D01*
X11458Y527752D01*
X9792Y527085D01*
X8958Y525752D01*
X8958Y524418D01*
X9792Y523085D01*
X11458Y522418D01*
G54D12*
X15625Y534752D02*
X15625Y533418D01*
X14792Y532085D01*
X13125Y531418D01*
X11458Y531418D01*
X9792Y532085D01*
X8958Y533418D01*
X8958Y534752D01*
X9792Y536085D01*
X11458Y536752D01*
X13125Y536752D01*
X14792Y536085D01*
X15625Y534752D01*
X16458Y536085D01*
X18125Y536752D01*
X19792Y536752D01*
X21458Y536085D01*
X22292Y534752D01*
X22292Y533418D01*
X21458Y532085D01*
X19792Y531418D01*
X18125Y531418D01*
X16458Y532085D01*
X15625Y533418D01*
G54D12*
X22292Y540418D02*
X8958Y540418D01*
G54D12*
X17292Y542418D02*
X22292Y544418D01*
G54D12*
X18958Y540418D02*
X14792Y544418D01*
M02*
