; Drill file
; Format: 2.4 (00.0000)
M48
INCH
T01C0.0197
T02C0.0205
T03C0.0236
T04C0.0276
T05C0.0283
T06C0.0394
%
G05
G90
T01
X004810Y019130
X007250Y021120
X010250Y020190
X014250Y020620
X013750Y022880
X015750Y023120
X016750Y022190
X017250Y021630
X017690Y023880
X018810Y023880
X020750Y023880
X022250Y023120
X025750Y018880
X025500Y015630
X026690Y014560
X028690Y014560
X029690Y015130
X030190Y017630
X029690Y020630
X031500Y022380
X030690Y025940
X035690Y024560
X039750Y023630
X041190Y023630
X040690Y020880
X037250Y019130
X035690Y016560
X033690Y016560
X033690Y014560
X037250Y012630
X039250Y014630
X041190Y011130
X041190Y010130
X036500Y008060
X029190Y012560
X024250Y010630
X023750Y011630
X018500Y015130
X017190Y014630
X018620Y017560
X020000Y017880
X015940Y024870
X015940Y025620
X022750Y036670
X036620Y038690
X040620Y038190
X044690Y040190
X048190Y038190
X049690Y038690
X048690Y039690
X050120Y041690
X051690Y040690
X053190Y041690
X054190Y041190
X053690Y039690
X054750Y038690
X055190Y039690
X056190Y039190
X057190Y038690
X056690Y037190
X057690Y036690
X059440Y035690
X060190Y036690
X062190Y037190
X062190Y038190
X063190Y037630
X064190Y036690
X065690Y036440
X066690Y037630
X067190Y036940
X067690Y038190
X069190Y038190
X069190Y036940
X070440Y036940
X071620Y035380
X072440Y036190
X074190Y034940
X075190Y035190
X075690Y034130
X075190Y033190
X075190Y031190
X075690Y030310
X074690Y028690
X073250Y028690
X073690Y030130
X073250Y031190
X073190Y032630
X072190Y032630
X073190Y034060
X070620Y033630
X070620Y034560
X070190Y032190
X068190Y031630
X067190Y031130
X065690Y030130
X063690Y030130
X062440Y031130
X061500Y031690
X063190Y032630
X064750Y032630
X068190Y035690
X065190Y038190
X063690Y040130
X064190Y041690
X065190Y041690
X064690Y043940
X063690Y043940
X062690Y043940
X061690Y043940
X060690Y043940
X059750Y043940
X058690Y043940
X057690Y043940
X056690Y043940
X055690Y043940
X057190Y041690
X060120Y041690
X061190Y042690
X062690Y041690
X061190Y038940
X058940Y039190
X052690Y037690
X052190Y035630
X050120Y036190
X048250Y035630
X049190Y034130
X047810Y033690
X048690Y032630
X048250Y031690
X050190Y031190
X049690Y030130
X051690Y031190
X053190Y031190
X054190Y030130
X056190Y032190
X058190Y032190
X059190Y032190
X059190Y030130
X060690Y029630
X061190Y027560
X061190Y026060
X062620Y027130
X063750Y024690
X063750Y023560
X064000Y021630
X065690Y021190
X065690Y022630
X066250Y024690
X065690Y026690
X065690Y027560
X066690Y027560
X067940Y026690
X068690Y025810
X069190Y027560
X069690Y028060
X070690Y026880
X071690Y025810
X072440Y026440
X073500Y026440
X075690Y026190
X075690Y024880
X074750Y024630
X073940Y023060
X073190Y021690
X074750Y020130
X075690Y020630
X075690Y019630
X076690Y019130
X075190Y018630
X073690Y019130
X072750Y018130
X073690Y016130
X072690Y015630
X073250Y014630
X072690Y013130
X074190Y013130
X075690Y011630
X076690Y013130
X077440Y013130
X079750Y012630
X080440Y012630
X081250Y013130
X081440Y011190
X080250Y010130
X082690Y008880
X083690Y009060
X084690Y009130
X085440Y009630
X086440Y009630
X085690Y010880
X084940Y010880
X084940Y011630
X086750Y011130
X089250Y012630
X090250Y011310
X091250Y011310
X091440Y012380
X090750Y014380
X092940Y013880
X093250Y014630
X094940Y014130
X096370Y012880
X097620Y015190
X095940Y016880
X095370Y018380
X092440Y018380
X090620Y017380
X090690Y019630
X089190Y021190
X088690Y022190
X089190Y023130
X089500Y024130
X090190Y025880
X089500Y026940
X088060Y026940
X086690Y026940
X086690Y025940
X085690Y027190
X083940Y027380
X083440Y026440
X082690Y026440
X082560Y025440
X081190Y025690
X080190Y025880
X079190Y026440
X078750Y025130
X078250Y023630
X077500Y023630
X076250Y022630
X078000Y021130
X078440Y020630
X078000Y020130
X079370Y018130
X079750Y015630
X077750Y015630
X076250Y016630
X070690Y014060
X068690Y013130
X069750Y011630
X069190Y010630
X067750Y010880
X068250Y008810
X067190Y007630
X065750Y007630
X064250Y007630
X062190Y010130
X060250Y010130
X059190Y010630
X058690Y009130
X056690Y007310
X058190Y012060
X059750Y012630
X058190Y014630
X057190Y015130
X053690Y016560
X052750Y016130
X049690Y016130
X049690Y014630
X047250Y014630
X046750Y015690
X044690Y017630
X046750Y019560
X048690Y019560
X050190Y020560
X049750Y021630
X049190Y023190
X051190Y025630
X050190Y026560
X051690Y027190
X048690Y027190
X046620Y027190
X045750Y026630
X044750Y027690
X044250Y028690
X046190Y028690
X042690Y026630
X045750Y023630
X054190Y023190
X055000Y021190
X056000Y021190
X056690Y022380
X057750Y020880
X058690Y018630
X061190Y018630
X061190Y017630
X064250Y017630
X065190Y017130
X065690Y018130
X064750Y019060
X065690Y019560
X068690Y018130
X068690Y017130
X066750Y014060
X066500Y013130
X065750Y013560
X063750Y015690
X064250Y010880
X070250Y008810
X073250Y008630
X074250Y008630
X075250Y008630
X076750Y009060
X073750Y010630
X083190Y014630
X084190Y015130
X083690Y016130
X082750Y016130
X082440Y018630
X083370Y018630
X082870Y019630
X081190Y020940
X080690Y022940
X079690Y023060
X078750Y022630
X081940Y023880
X084120Y022940
X086120Y023190
X086690Y023690
X087440Y023880
X085940Y019560
X085190Y018690
X084440Y018130
X084940Y017560
X085940Y017060
X086190Y018130
X087190Y017560
X087190Y016560
X086690Y014630
X087690Y014630
X085620Y015130
X087690Y008130
X090500Y007560
X093690Y007560
X094500Y008060
X095750Y007880
X097190Y009060
X098690Y008560
X098690Y010060
X098690Y011560
X099370Y011880
X100190Y013060
X101190Y014060
X102190Y013630
X102690Y015060
X102690Y016560
X101190Y017130
X104190Y017380
X104690Y015630
X104190Y014630
X106190Y016380
X106190Y018630
X105690Y019630
X106190Y020880
X105190Y021880
X103750Y022380
X102690Y022630
X104440Y024380
X105370Y024880
X105940Y024380
X108190Y025060
X108370Y027130
X107940Y028630
X106250Y029380
X105190Y028130
X104440Y028130
X103690Y028130
X101690Y030130
X100940Y030130
X100190Y030880
X101190Y033880
X100190Y035060
X099190Y035440
X098690Y036690
X097620Y036690
X096440Y036380
X097440Y035130
X095620Y034630
X093940Y033380
X094940Y032380
X095620Y031630
X096190Y030130
X093190Y030190
X094190Y027630
X094750Y027130
X095690Y026630
X098190Y027130
X098190Y025880
X099500Y024380
X100620Y024880
X099750Y021380
X106750Y026630
X107120Y030880
X104690Y032380
X104250Y031630
X103000Y032380
X104690Y035060
X106210Y035620
X107370Y036380
X108690Y036060
X108190Y037560
X107190Y039690
X106190Y039810
X105620Y038940
X104750Y040130
X103440Y039810
X102250Y041190
X103190Y041690
X103940Y041940
X104440Y041440
X105620Y041380
X106690Y041190
X106690Y041940
X107190Y042440
X108190Y041940
X108940Y041940
X112190Y042940
X114310Y044060
X113690Y040190
X111870Y037630
X110500Y035060
X109440Y034380
X111690Y032560
X112690Y032560
X114440Y032560
X115940Y032560
X116690Y032310
X117690Y032560
X117690Y034560
X115190Y035060
X113690Y034560
X116690Y037060
X117190Y038060
X116190Y030060
X114690Y030060
X114690Y027560
X116440Y027560
X117440Y027560
X116190Y025060
X113690Y025060
X111690Y025060
X111190Y022560
X114190Y022810
X116190Y022560
X114690Y014560
X113690Y014560
X113690Y010060
X115690Y009560
X116440Y009060
X117690Y008560
X109690Y011560
X109190Y010560
X108690Y012060
X108190Y014560
X104690Y011130
X103190Y011060
X101940Y012060
X103190Y008560
X105120Y008060
X099940Y007560
X094500Y009380
X093440Y011560
X091940Y027130
X091190Y027130
X087690Y030190
X086940Y031880
X086190Y032880
X087690Y033380
X086370Y035190
X088440Y036630
X089620Y036630
X091870Y036380
X092620Y037630
X093370Y037940
X094370Y037630
X091690Y034130
X086120Y038940
X086370Y040190
X087620Y041380
X089620Y041630
X090120Y042690
X091310Y042880
X091620Y043940
X090620Y043940
X089620Y043940
X088560Y043940
X086120Y042940
X085690Y043940
X084690Y042940
X084620Y041880
X083120Y041130
X084190Y040190
X081690Y040690
X080690Y041130
X081120Y041690
X078690Y042690
X077620Y043190
X076690Y043940
X075690Y043940
X074690Y043940
X073690Y043940
X072750Y043940
X071750Y043940
X070750Y043940
X069750Y043940
X068690Y043940
X067690Y043940
X066690Y043940
X065690Y043940
X069370Y041690
X071120Y040190
X072190Y040190
X073620Y039690
X074690Y040190
X076190Y039690
X077620Y040690
X079120Y043940
X082620Y043940
X083690Y043440
X092690Y042940
X093120Y043380
X093870Y043380
X095690Y042690
X096870Y042190
X097690Y042940
X098620Y044440
X099620Y043940
X100870Y042130
X101190Y040690
X102440Y042690
X103060Y042940
X102620Y043940
X103620Y043940
X104620Y043940
X105620Y043940
X102190Y038130
X101120Y037940
X101120Y037190
X102500Y036380
X103500Y036940
X082190Y029630
X080690Y029630
X081690Y027880
X082690Y027690
X077190Y026690
X071690Y028630
X070690Y024690
X070190Y023630
X069690Y022630
X068690Y023630
X070750Y020630
X062190Y020630
X057690Y025630
X056000Y025630
X057190Y027560
X057190Y030130
X044750Y033690
X044250Y032630
X042250Y033690
X044690Y035630
X049690Y043940
X050690Y043940
X051690Y043940
X052690Y043940
X070620Y038940
X073620Y041690
X073190Y042190
X077620Y036630
X077190Y034560
X078190Y032630
X079440Y032630
X052190Y012630
X051250Y011630
X050190Y011630
X050190Y010630
X047750Y009630
X046750Y009630
X047250Y008690
X048750Y007810
X049750Y007630
X051750Y008130
X053250Y011130
T02
X017690Y036380
X017190Y036880
X018190Y036880
X043210Y025670
X043710Y026170
X044210Y025670
T03
X004790Y013590
X005730Y013590
X006730Y013590
X007730Y013590
X008790Y013590
X009790Y013590
X010790Y013590
X011730Y013590
X011730Y017590
X010790Y017590
X009790Y017590
X008790Y017590
X007730Y017590
X006730Y017590
X005730Y017590
X004790Y017590
X013750Y019620
X014810Y019620
X015780Y019600
X015780Y020600
X016780Y020600
X016780Y019600
X017780Y019600
X017780Y020600
X018810Y020630
X019780Y020600
X019780Y019600
X018810Y019620
X020750Y019620
X021750Y019620
X022750Y019620
X023750Y019620
X024780Y019630
X024780Y020630
X023750Y021630
X022750Y021630
X021750Y021630
X020750Y021630
X018810Y021630
X014810Y021630
X013750Y021630
X018310Y026380
X020220Y026380
X023190Y025880
X023190Y026880
X023190Y027880
X023190Y028880
X023190Y029940
X027190Y029940
X027190Y028880
X027190Y027880
X027190Y026880
X027190Y025880
X028410Y020630
X028410Y019630
X028410Y018630
X029660Y018630
X029660Y019630
X030970Y019630
X030970Y020630
X032250Y019620
X032250Y018630
X033450Y018620
X033450Y019620
X033470Y020630
X034250Y021880
X038250Y021880
X039730Y022660
X040660Y022660
X041730Y022660
X042730Y022660
X043730Y022660
X044660Y022660
X045660Y022660
X046730Y022660
X047790Y022660
X047730Y025590
X045740Y025630
X045740Y029630
X047730Y029590
X047190Y034690
X047190Y035630
X047190Y036630
X047190Y037690
X047190Y038690
X047160Y040690
X046160Y041690
X046160Y042690
X047160Y042690
X043190Y038690
X043190Y037690
X043190Y036630
X043190Y035630
X043190Y034690
X028660Y036690
X027660Y037660
X027660Y038660
X028660Y038690
X026590Y038660
X025590Y038660
X024660Y038660
X023730Y038660
X021670Y038180
X021670Y034180
X023730Y034660
X024660Y034660
X025590Y036660
X026590Y037660
X027160Y019630
X027160Y018630
X030970Y018630
X034220Y015570
X035410Y014570
X035410Y013570
X034220Y013570
X039730Y018660
X040660Y018660
X041730Y018660
X042730Y018660
X043730Y018660
X044660Y018660
X045660Y018660
X046730Y018660
X047790Y018660
X064720Y015570
X064720Y013570
X067690Y013560
X067690Y014630
X067690Y015630
X067690Y016630
X067690Y017630
X067690Y018630
X067690Y019630
X067690Y020630
X067690Y021630
X067690Y022630
X067690Y023630
X067690Y024690
X071690Y024690
X071690Y023630
X071690Y022630
X071690Y021630
X071690Y020630
X071690Y019630
X071690Y018630
X071690Y017630
X071690Y016630
X071690Y015630
X071690Y014630
X071690Y013560
X076660Y033660
X077660Y033660
X078660Y033660
X079660Y033660
X080660Y033660
X081660Y033660
X082660Y033660
X083660Y033660
X084660Y033660
X085660Y033660
X086660Y030630
X086660Y028630
X085660Y037660
X084660Y037660
X083660Y037660
X082660Y037660
X081660Y037660
X080660Y037660
X079660Y037660
X078660Y037660
X077660Y037660
X076660Y037660
X095140Y037640
X096120Y037650
X097120Y037650
X098140Y037640
X099140Y037640
X100090Y037650
X103170Y037630
X104150Y037620
X105170Y037630
X106210Y037620
X107170Y037630
X107170Y033630
X106210Y033620
X105170Y033630
X104150Y033620
X103170Y033630
X100090Y033650
X099140Y033640
X098140Y033640
X097120Y033650
X096120Y033650
X095140Y033640
X106200Y032120
X107160Y032120
X107160Y028120
X106200Y028130
X107220Y025630
X107220Y023630
X106190Y015570
X106190Y014570
X117160Y015570
X117160Y013570
X117160Y018570
X117160Y020570
X117160Y023570
X117160Y025570
X117160Y033690
X117160Y035690
X117190Y043060
X117190Y044060
X114190Y045190
X113190Y045190
X113190Y044060
X113190Y043060
X110590Y044440
X108690Y044440
T04
X021690Y031690
T05
X014190Y013560
X015190Y013560
X016190Y013560
X017190Y013560
X018190Y013560
X019190Y013560
X020190Y013560
X021190Y013560
X022190Y013560
X023190Y013560
X023190Y016560
X022190Y016560
X021190Y016560
X020190Y016560
X019190Y016560
X018190Y016560
X017190Y016560
X016190Y016560
X015190Y016560
X014190Y016560
X026690Y016560
X027690Y016560
X028690Y016560
X029690Y016560
X030690Y016560
X031690Y016560
X032690Y016560
X032690Y013560
X031690Y013560
X030690Y013560
X029690Y013560
X028690Y013560
X027690Y013560
X026690Y013560
X039690Y013560
X040690Y013560
X041690Y013560
X042690Y013560
X043690Y013560
X044690Y013560
X045690Y013560
X045690Y016560
X044690Y016560
X043690Y016560
X042690Y016560
X041690Y016560
X040690Y016560
X039690Y016560
X050190Y013560
X051190Y013560
X052190Y013560
X053190Y013560
X054190Y013560
X055190Y013560
X056190Y013560
X057190Y013560
X058190Y013560
X059190Y013560
X060190Y013560
X061190Y013560
X062190Y013560
X063190Y013560
X063190Y019560
X062190Y019560
X061190Y019560
X060190Y019560
X059190Y019560
X058190Y019560
X057190Y019560
X056190Y019560
X055190Y019560
X054190Y019560
X053190Y019560
X052190Y019560
X051190Y019560
X050190Y019560
X050190Y028560
X051190Y028560
X052190Y028560
X053190Y028560
X054190Y028560
X055190Y028560
X056190Y028560
X057190Y028560
X058190Y028560
X059190Y028560
X060190Y028560
X061190Y028560
X062190Y028560
X063190Y028560
X064190Y028560
X065190Y028560
X066190Y028560
X067190Y028560
X068190Y028560
X069190Y028560
X069190Y034560
X068190Y034560
X067190Y034560
X066190Y034560
X065190Y034560
X064190Y034560
X063190Y034560
X062190Y034560
X061190Y034560
X060190Y034560
X059190Y034560
X058190Y034560
X057190Y034560
X056190Y034560
X055190Y034560
X054190Y034560
X053190Y034560
X052190Y034560
X051190Y034560
X050190Y034560
X046660Y032160
X045680Y032160
X027190Y030940
X026190Y030940
X025190Y030940
X024190Y030940
X024190Y033940
X025190Y033940
X026190Y033940
X027190Y033940
X020670Y031690
X019690Y031690
X020520Y028560
X021310Y028560
X076190Y028560
X077190Y028560
X078190Y028560
X079190Y028560
X080190Y028560
X081190Y028560
X082190Y028560
X083190Y028560
X084190Y028560
X085190Y028560
X088190Y028560
X089190Y028560
X090190Y028560
X091190Y028560
X092190Y028560
X093190Y028560
X094190Y028560
X096690Y028560
X097690Y028560
X098690Y028560
X099690Y028560
X100690Y028560
X101690Y028560
X102690Y028560
X102690Y026560
X103690Y026560
X104690Y026560
X105690Y026560
X105690Y023560
X104690Y023560
X103690Y023560
X102690Y023560
X101690Y023560
X100690Y023560
X099690Y023560
X099690Y026560
X100690Y026560
X101690Y026560
X104710Y029720
X104710Y030510
X102690Y031560
X101690Y031560
X100690Y031560
X099690Y031560
X098690Y031560
X097690Y031560
X096690Y031560
X094190Y031560
X093190Y031560
X092190Y031560
X091190Y031560
X090190Y031560
X089190Y031560
X088190Y031560
X085190Y031560
X084190Y031560
X083190Y031560
X082190Y031560
X081190Y031560
X080190Y031560
X079190Y031560
X078190Y031560
X077190Y031560
X076190Y031560
X087060Y039560
X087060Y040560
X088060Y040560
X088060Y039560
X089060Y039560
X089060Y040560
X090060Y040560
X090060Y039560
X091060Y039560
X091060Y040560
X092060Y040560
X092060Y039560
X093060Y039560
X093060Y040560
X094060Y040560
X094060Y039560
X095060Y039560
X095060Y040560
X096060Y040560
X096060Y039560
X097060Y039560
X097060Y040560
X098060Y040560
X098060Y039560
X099060Y039560
X099060Y040560
X109690Y041560
X110690Y041560
X111690Y041560
X112690Y041560
X113690Y041560
X114690Y041560
X115690Y041560
X117340Y040260
X117340Y039470
X115690Y038560
X114690Y038560
X113690Y038560
X112690Y038560
X111690Y038560
X110690Y038560
X109690Y038560
X109690Y036560
X110690Y036560
X111690Y036560
X112690Y036560
X113690Y036560
X114690Y036560
X115690Y036560
X115690Y033560
X114690Y033560
X113690Y033560
X112690Y033560
X111690Y033560
X110690Y033560
X109690Y033560
X109690Y031560
X110690Y031560
X111690Y031560
X112690Y031560
X113690Y031560
X114690Y031560
X115690Y031560
X117340Y029510
X117340Y028720
X115690Y028560
X114690Y028560
X113690Y028560
X112690Y028560
X111690Y028560
X110690Y028560
X109690Y028560
X109690Y026560
X110690Y026560
X111690Y026560
X112690Y026560
X113690Y026560
X114690Y026560
X115690Y026560
X115690Y023560
X114690Y023560
X113690Y023560
X112690Y023560
X111690Y023560
X110690Y023560
X109690Y023560
X109690Y021560
X110690Y021560
X111690Y021560
X112690Y021560
X113690Y021560
X114690Y021560
X115690Y021560
X115690Y018560
X114690Y018560
X113690Y018560
X112690Y018560
X111690Y018560
X110690Y018560
X109690Y018560
X108690Y018560
X107690Y018560
X107690Y016560
X108690Y016560
X109690Y016560
X110690Y016560
X111690Y016560
X112690Y016560
X113690Y016560
X114690Y016560
X115690Y016560
X115690Y013560
X114690Y013560
X113690Y013560
X112690Y013560
X111690Y013560
X110690Y013560
X109690Y013560
X108690Y013560
X107690Y013560
X107690Y021560
X108690Y021560
T06
X004250Y022620
X008310Y022620
X019690Y034190
X019690Y036190
X016130Y038190
X022690Y041190
X024690Y041190
X026690Y041190
X036620Y041190
X038620Y041250
X040620Y041250
X038250Y023190
X034250Y023130
M30
