%FSLAX34Y34*%
%MOMM*%
%LNSOLDERMASK_BOTTOM*%
G71*
G01*
%ADD10C,1.800*%
%ADD11C,1.400*%
%ADD12C,2.400*%
%ADD13C,2.400*%
%ADD14C,1.900*%
%ADD15C,1.420*%
%ADD16C,1.410*%
%ADD17C,1.800*%
%ADD18C,1.680*%
%ADD19C,2.040*%
%ADD20C,2.500*%
%ADD21C,2.200*%
%ADD22C,1.430*%
%ADD23C,3.000*%
%ADD24C,2.600*%
%ADD25C,2.000*%
%LPD*%
G36*
X2726262Y353488D02*
X2744262Y353488D01*
X2744262Y335488D01*
X2726262Y335488D01*
X2726262Y353488D01*
G37*
X2760662Y344488D02*
G54D10*
D03*
X2786062Y344488D02*
G54D10*
D03*
X2811462Y344488D02*
G54D10*
D03*
X2836862Y344488D02*
G54D10*
D03*
X2862262Y344488D02*
G54D10*
D03*
X2887662Y344488D02*
G54D10*
D03*
X2913062Y344488D02*
G54D10*
D03*
X2938462Y344488D02*
G54D10*
D03*
X2938462Y420688D02*
G54D10*
D03*
X2913062Y420688D02*
G54D10*
D03*
X2887662Y420688D02*
G54D10*
D03*
X2862262Y420688D02*
G54D10*
D03*
X2836862Y420688D02*
G54D10*
D03*
X2811462Y420688D02*
G54D10*
D03*
X2786062Y420688D02*
G54D10*
D03*
X2760662Y420688D02*
G54D10*
D03*
X2735262Y420688D02*
G54D10*
D03*
G36*
X2726262Y480488D02*
X2744262Y480488D01*
X2744262Y462488D01*
X2726262Y462488D01*
X2726262Y480488D01*
G37*
X2760662Y471488D02*
G54D10*
D03*
X2786062Y471488D02*
G54D10*
D03*
X2811462Y471488D02*
G54D10*
D03*
X2836862Y471488D02*
G54D10*
D03*
X2862262Y471488D02*
G54D10*
D03*
X2887662Y471488D02*
G54D10*
D03*
X2913062Y471488D02*
G54D10*
D03*
X2938462Y471488D02*
G54D10*
D03*
X2938462Y547688D02*
G54D10*
D03*
X2913062Y547688D02*
G54D10*
D03*
X2887662Y547688D02*
G54D10*
D03*
X2862262Y547688D02*
G54D10*
D03*
X2836862Y547688D02*
G54D10*
D03*
X2811462Y547688D02*
G54D10*
D03*
X2786062Y547688D02*
G54D10*
D03*
X2760662Y547688D02*
G54D10*
D03*
X2735262Y547688D02*
G54D10*
D03*
G36*
X2777062Y607488D02*
X2795062Y607488D01*
X2795062Y589488D01*
X2777062Y589488D01*
X2777062Y607488D01*
G37*
X2811462Y598488D02*
G54D10*
D03*
X2836862Y598488D02*
G54D10*
D03*
X2862262Y598488D02*
G54D10*
D03*
X2887662Y598488D02*
G54D10*
D03*
X2913062Y598488D02*
G54D10*
D03*
X2938462Y598488D02*
G54D10*
D03*
X2938462Y674688D02*
G54D10*
D03*
X2913062Y674688D02*
G54D10*
D03*
X2887662Y674688D02*
G54D10*
D03*
X2862262Y674688D02*
G54D10*
D03*
X2836862Y674688D02*
G54D10*
D03*
X2811462Y674688D02*
G54D10*
D03*
X2786062Y674688D02*
G54D10*
D03*
G36*
X2523062Y607488D02*
X2541062Y607488D01*
X2541062Y589488D01*
X2523062Y589488D01*
X2523062Y607488D01*
G37*
X2557462Y598488D02*
G54D10*
D03*
X2582862Y598488D02*
G54D10*
D03*
X2608262Y598488D02*
G54D10*
D03*
X2633662Y598488D02*
G54D10*
D03*
X2659062Y598488D02*
G54D10*
D03*
X2684462Y598488D02*
G54D10*
D03*
X2684462Y674688D02*
G54D10*
D03*
X2659062Y674688D02*
G54D10*
D03*
X2633662Y674688D02*
G54D10*
D03*
X2608262Y674688D02*
G54D10*
D03*
X2582862Y674688D02*
G54D10*
D03*
X2557462Y674688D02*
G54D10*
D03*
X2532062Y674688D02*
G54D10*
D03*
G36*
X2777062Y734488D02*
X2795062Y734488D01*
X2795062Y716488D01*
X2777062Y716488D01*
X2777062Y734488D01*
G37*
X2811462Y725488D02*
G54D10*
D03*
X2836862Y725488D02*
G54D10*
D03*
X2862262Y725488D02*
G54D10*
D03*
X2887662Y725488D02*
G54D10*
D03*
X2913062Y725488D02*
G54D10*
D03*
X2938462Y725488D02*
G54D10*
D03*
X2938462Y801688D02*
G54D10*
D03*
X2913062Y801688D02*
G54D10*
D03*
X2887662Y801688D02*
G54D10*
D03*
X2862262Y801688D02*
G54D10*
D03*
X2836862Y801688D02*
G54D10*
D03*
X2811462Y801688D02*
G54D10*
D03*
X2786062Y801688D02*
G54D10*
D03*
G36*
X2777062Y861488D02*
X2795062Y861488D01*
X2795062Y843488D01*
X2777062Y843488D01*
X2777062Y861488D01*
G37*
X2811462Y852488D02*
G54D10*
D03*
X2836862Y852488D02*
G54D10*
D03*
X2862262Y852488D02*
G54D10*
D03*
X2887662Y852488D02*
G54D10*
D03*
X2913062Y852488D02*
G54D10*
D03*
X2938462Y852488D02*
G54D10*
D03*
X2938462Y928688D02*
G54D10*
D03*
X2913062Y928688D02*
G54D10*
D03*
X2887662Y928688D02*
G54D10*
D03*
X2862262Y928688D02*
G54D10*
D03*
X2836862Y928688D02*
G54D10*
D03*
X2811462Y928688D02*
G54D10*
D03*
X2786062Y928688D02*
G54D10*
D03*
G36*
X2777062Y988488D02*
X2795062Y988488D01*
X2795062Y970488D01*
X2777062Y970488D01*
X2777062Y988488D01*
G37*
X2811462Y979488D02*
G54D10*
D03*
X2836862Y979488D02*
G54D10*
D03*
X2862262Y979488D02*
G54D10*
D03*
X2887662Y979488D02*
G54D10*
D03*
X2913062Y979488D02*
G54D10*
D03*
X2938462Y979488D02*
G54D10*
D03*
X2938462Y1055688D02*
G54D10*
D03*
X2913062Y1055688D02*
G54D10*
D03*
X2887662Y1055688D02*
G54D10*
D03*
X2862262Y1055688D02*
G54D10*
D03*
X2836862Y1055688D02*
G54D10*
D03*
X2811462Y1055688D02*
G54D10*
D03*
X2786062Y1055688D02*
G54D10*
D03*
G36*
X2446862Y734488D02*
X2464862Y734488D01*
X2464862Y716488D01*
X2446862Y716488D01*
X2446862Y734488D01*
G37*
X2481262Y725488D02*
G54D10*
D03*
X2506662Y725488D02*
G54D10*
D03*
X2532062Y725488D02*
G54D10*
D03*
X2557462Y725488D02*
G54D10*
D03*
X2582862Y725488D02*
G54D10*
D03*
X2608262Y725488D02*
G54D10*
D03*
X2608262Y801688D02*
G54D10*
D03*
X2582862Y801688D02*
G54D10*
D03*
X2557462Y801688D02*
G54D10*
D03*
X2532062Y801688D02*
G54D10*
D03*
X2506662Y801688D02*
G54D10*
D03*
X2481262Y801688D02*
G54D10*
D03*
X2455862Y801688D02*
G54D10*
D03*
G36*
X2230962Y734488D02*
X2248962Y734488D01*
X2248962Y716488D01*
X2230962Y716488D01*
X2230962Y734488D01*
G37*
X2265362Y725488D02*
G54D10*
D03*
X2290762Y725488D02*
G54D10*
D03*
X2316162Y725488D02*
G54D10*
D03*
X2341562Y725488D02*
G54D10*
D03*
X2366962Y725488D02*
G54D10*
D03*
X2392362Y725488D02*
G54D10*
D03*
X2392362Y801688D02*
G54D10*
D03*
X2366962Y801688D02*
G54D10*
D03*
X2341562Y801688D02*
G54D10*
D03*
X2316162Y801688D02*
G54D10*
D03*
X2290762Y801688D02*
G54D10*
D03*
X2265362Y801688D02*
G54D10*
D03*
X2239962Y801688D02*
G54D10*
D03*
G36*
X1926162Y734488D02*
X1944162Y734488D01*
X1944162Y716488D01*
X1926162Y716488D01*
X1926162Y734488D01*
G37*
X1960562Y725488D02*
G54D10*
D03*
X1985962Y725488D02*
G54D10*
D03*
X2011362Y725488D02*
G54D10*
D03*
X2036762Y725488D02*
G54D10*
D03*
X2062162Y725488D02*
G54D10*
D03*
X2087562Y725488D02*
G54D10*
D03*
X2112962Y725488D02*
G54D10*
D03*
X2138362Y725488D02*
G54D10*
D03*
X2163762Y725488D02*
G54D10*
D03*
X2163762Y801688D02*
G54D10*
D03*
X2138362Y801688D02*
G54D10*
D03*
X2112962Y801688D02*
G54D10*
D03*
X2087562Y801688D02*
G54D10*
D03*
X2062162Y801688D02*
G54D10*
D03*
X2036762Y801688D02*
G54D10*
D03*
X2011362Y801688D02*
G54D10*
D03*
X1985962Y801688D02*
G54D10*
D03*
X1960562Y801688D02*
G54D10*
D03*
X1935162Y801688D02*
G54D10*
D03*
G36*
X1265762Y734488D02*
X1283762Y734488D01*
X1283762Y716488D01*
X1265762Y716488D01*
X1265762Y734488D01*
G37*
X1300162Y725488D02*
G54D10*
D03*
X1325562Y725488D02*
G54D10*
D03*
X1350962Y725488D02*
G54D10*
D03*
X1376362Y725488D02*
G54D10*
D03*
X1401762Y725488D02*
G54D10*
D03*
X1427162Y725488D02*
G54D10*
D03*
X1452562Y725488D02*
G54D10*
D03*
X1477962Y725488D02*
G54D10*
D03*
X1503362Y725488D02*
G54D10*
D03*
X1528762Y725488D02*
G54D10*
D03*
X1554162Y725488D02*
G54D10*
D03*
X1579562Y725488D02*
G54D10*
D03*
X1604962Y725488D02*
G54D10*
D03*
X1630362Y725488D02*
G54D10*
D03*
X1655762Y725488D02*
G54D10*
D03*
X1681162Y725488D02*
G54D10*
D03*
X1706562Y725488D02*
G54D10*
D03*
X1731962Y725488D02*
G54D10*
D03*
X1757362Y725488D02*
G54D10*
D03*
X1757362Y877888D02*
G54D10*
D03*
X1731962Y877888D02*
G54D10*
D03*
X1706562Y877888D02*
G54D10*
D03*
X1681162Y877888D02*
G54D10*
D03*
X1655762Y877888D02*
G54D10*
D03*
X1630362Y877888D02*
G54D10*
D03*
X1604962Y877888D02*
G54D10*
D03*
X1579562Y877888D02*
G54D10*
D03*
X1554162Y877888D02*
G54D10*
D03*
X1528762Y877888D02*
G54D10*
D03*
X1503362Y877888D02*
G54D10*
D03*
X1477962Y877888D02*
G54D10*
D03*
X1452562Y877888D02*
G54D10*
D03*
X1427162Y877888D02*
G54D10*
D03*
X1401762Y877888D02*
G54D10*
D03*
X1376362Y877888D02*
G54D10*
D03*
X1350962Y877888D02*
G54D10*
D03*
X1325562Y877888D02*
G54D10*
D03*
X1300162Y877888D02*
G54D10*
D03*
X1274762Y877888D02*
G54D10*
D03*
G36*
X351362Y353488D02*
X369362Y353488D01*
X369362Y335488D01*
X351362Y335488D01*
X351362Y353488D01*
G37*
X385762Y344488D02*
G54D10*
D03*
X411162Y344488D02*
G54D10*
D03*
X436562Y344488D02*
G54D10*
D03*
X461962Y344488D02*
G54D10*
D03*
X487362Y344488D02*
G54D10*
D03*
X512762Y344488D02*
G54D10*
D03*
X538162Y344488D02*
G54D10*
D03*
X563562Y344488D02*
G54D10*
D03*
X588962Y344488D02*
G54D10*
D03*
X588962Y420688D02*
G54D10*
D03*
X563562Y420688D02*
G54D10*
D03*
X538162Y420688D02*
G54D10*
D03*
X512762Y420688D02*
G54D10*
D03*
X487362Y420688D02*
G54D10*
D03*
X461962Y420688D02*
G54D10*
D03*
X436562Y420688D02*
G54D10*
D03*
X411162Y420688D02*
G54D10*
D03*
X385762Y420688D02*
G54D10*
D03*
X360362Y420688D02*
G54D10*
D03*
G36*
X668862Y353488D02*
X686862Y353488D01*
X686862Y335488D01*
X668862Y335488D01*
X668862Y353488D01*
G37*
X703262Y344488D02*
G54D10*
D03*
X728662Y344488D02*
G54D10*
D03*
X754062Y344488D02*
G54D10*
D03*
X779462Y344488D02*
G54D10*
D03*
X804862Y344488D02*
G54D10*
D03*
X830262Y344488D02*
G54D10*
D03*
X830262Y420688D02*
G54D10*
D03*
X804862Y420688D02*
G54D10*
D03*
X779462Y420688D02*
G54D10*
D03*
X754062Y420688D02*
G54D10*
D03*
X728662Y420688D02*
G54D10*
D03*
X703262Y420688D02*
G54D10*
D03*
X677862Y420688D02*
G54D10*
D03*
G36*
X999062Y353488D02*
X1017062Y353488D01*
X1017062Y335488D01*
X999062Y335488D01*
X999062Y353488D01*
G37*
X1033462Y344488D02*
G54D10*
D03*
X1058862Y344488D02*
G54D10*
D03*
X1084262Y344488D02*
G54D10*
D03*
X1109662Y344488D02*
G54D10*
D03*
X1135062Y344488D02*
G54D10*
D03*
X1160462Y344488D02*
G54D10*
D03*
X1160462Y420688D02*
G54D10*
D03*
X1135062Y420688D02*
G54D10*
D03*
X1109662Y420688D02*
G54D10*
D03*
X1084262Y420688D02*
G54D10*
D03*
X1058862Y420688D02*
G54D10*
D03*
X1033462Y420688D02*
G54D10*
D03*
X1008062Y420688D02*
G54D10*
D03*
G36*
X1265762Y353488D02*
X1283762Y353488D01*
X1283762Y335488D01*
X1265762Y335488D01*
X1265762Y353488D01*
G37*
X1300162Y344488D02*
G54D10*
D03*
X1325562Y344488D02*
G54D10*
D03*
X1350962Y344488D02*
G54D10*
D03*
X1376362Y344488D02*
G54D10*
D03*
X1401762Y344488D02*
G54D10*
D03*
X1427162Y344488D02*
G54D10*
D03*
X1452562Y344488D02*
G54D10*
D03*
X1477962Y344488D02*
G54D10*
D03*
X1503362Y344488D02*
G54D10*
D03*
X1528762Y344488D02*
G54D10*
D03*
X1554162Y344488D02*
G54D10*
D03*
X1579562Y344488D02*
G54D10*
D03*
X1604962Y344488D02*
G54D10*
D03*
X1604962Y496888D02*
G54D10*
D03*
X1579562Y496888D02*
G54D10*
D03*
X1554162Y496888D02*
G54D10*
D03*
X1528762Y496888D02*
G54D10*
D03*
X1503362Y496888D02*
G54D10*
D03*
X1477962Y496888D02*
G54D10*
D03*
X1452562Y496888D02*
G54D10*
D03*
X1427162Y496888D02*
G54D10*
D03*
X1401762Y496888D02*
G54D10*
D03*
X1376362Y496888D02*
G54D10*
D03*
X1350962Y496888D02*
G54D10*
D03*
X1325562Y496888D02*
G54D10*
D03*
X1300162Y496888D02*
G54D10*
D03*
X1274762Y496888D02*
G54D10*
D03*
G36*
X605362Y794813D02*
X623362Y794813D01*
X623362Y776813D01*
X605362Y776813D01*
X605362Y794813D01*
G37*
X639762Y785813D02*
G54D10*
D03*
X665162Y785813D02*
G54D10*
D03*
X690562Y785813D02*
G54D10*
D03*
X690562Y862013D02*
G54D10*
D03*
X665162Y862013D02*
G54D10*
D03*
X639762Y862013D02*
G54D10*
D03*
X614362Y862013D02*
G54D10*
D03*
X1274762Y522288D02*
G54D11*
D03*
X1274762Y674688D02*
G54D11*
D03*
X1554162Y661988D02*
G54D11*
D03*
X1554162Y700088D02*
G54D11*
D03*
X1668462Y700088D02*
G54D11*
D03*
X1668462Y765176D02*
G54D11*
D03*
X1871662Y765176D02*
G54D11*
D03*
X1858962Y865188D02*
G54D11*
D03*
X1878012Y585788D02*
G54D11*
D03*
X2024062Y585788D02*
G54D11*
D03*
X1960562Y877888D02*
G54D11*
D03*
X2328862Y866776D02*
G54D11*
D03*
X2779712Y873126D02*
G54D11*
D03*
X1947862Y1116013D02*
G54D11*
D03*
G54D12*
X1960562Y1189038D02*
X1960562Y1154113D01*
G54D12*
X1935162Y1189038D02*
X1935162Y1154113D01*
G54D12*
X1909762Y1189038D02*
X1909762Y1154113D01*
G54D12*
X1884362Y1189038D02*
X1884362Y1154113D01*
G54D12*
X1858962Y1189038D02*
X1858962Y1154113D01*
G54D12*
X1833562Y1189038D02*
X1833562Y1154113D01*
G54D12*
X1808162Y1189038D02*
X1808162Y1154113D01*
G54D12*
X1782762Y1189038D02*
X1782762Y1154113D01*
G54D12*
X1757362Y1189038D02*
X1757362Y1154113D01*
G54D12*
X1731962Y1189038D02*
X1731962Y1154113D01*
G54D12*
X1706562Y1189038D02*
X1706562Y1154113D01*
G54D12*
X1681162Y1189038D02*
X1681162Y1154113D01*
G54D12*
X1655762Y1189038D02*
X1655762Y1154113D01*
G54D12*
X1630362Y1189038D02*
X1630362Y1154113D01*
G54D12*
X1604962Y1189038D02*
X1604962Y1154113D01*
G54D12*
X1579562Y1189038D02*
X1579562Y1154113D01*
G54D12*
X1554162Y1189038D02*
X1554162Y1154113D01*
G54D12*
X1528762Y1189038D02*
X1528762Y1154113D01*
G54D12*
X1503362Y1189038D02*
X1503362Y1154113D01*
G54D12*
X1477962Y1189038D02*
X1477962Y1154113D01*
G54D12*
X1452562Y1189038D02*
X1452562Y1154113D01*
G54D12*
X1427162Y1189038D02*
X1427162Y1154113D01*
G54D12*
X1401762Y1189038D02*
X1401762Y1154113D01*
G54D12*
X1350962Y1189038D02*
X1350962Y1154113D01*
G54D12*
X1325562Y1189038D02*
X1325562Y1154113D01*
G54D12*
X1300162Y1189038D02*
X1300162Y1154113D01*
G54D12*
X1274762Y1189038D02*
X1274762Y1154113D01*
X1262062Y1116013D02*
G54D11*
D03*
X1287462Y1116013D02*
G54D11*
D03*
X1312862Y1116013D02*
G54D11*
D03*
X1338262Y1116013D02*
G54D11*
D03*
X1414462Y1116013D02*
G54D11*
D03*
X1439862Y1116013D02*
G54D11*
D03*
X1465262Y1116013D02*
G54D11*
D03*
X1490662Y1116013D02*
G54D11*
D03*
X1517650Y1116013D02*
G54D11*
D03*
X1541462Y1116013D02*
G54D11*
D03*
X1566862Y1116013D02*
G54D11*
D03*
X1592262Y1116013D02*
G54D11*
D03*
X1617662Y1116013D02*
G54D11*
D03*
X1643062Y1116013D02*
G54D11*
D03*
X1668462Y1116013D02*
G54D11*
D03*
X1693862Y1116013D02*
G54D11*
D03*
X1719262Y1116013D02*
G54D11*
D03*
X1744662Y1116013D02*
G54D11*
D03*
X1771650Y1116013D02*
G54D11*
D03*
X1797050Y1116013D02*
G54D11*
D03*
X1822450Y1116013D02*
G54D11*
D03*
X1847850Y1116013D02*
G54D11*
D03*
X1871662Y1116013D02*
G54D11*
D03*
X1897062Y1116013D02*
G54D11*
D03*
X1922462Y1116013D02*
G54D11*
D03*
G54D12*
X2189162Y1189038D02*
X2189162Y1154113D01*
G54D12*
X2238374Y1189038D02*
X2238374Y1154113D01*
G54D12*
X2263774Y1189038D02*
X2263774Y1154113D01*
G54D12*
X2289174Y1189038D02*
X2289174Y1154113D01*
G54D12*
X2314574Y1189038D02*
X2314574Y1154113D01*
G54D12*
X2541587Y1189038D02*
X2541587Y1154113D01*
G54D12*
X2592387Y1189038D02*
X2592387Y1154113D01*
G54D12*
X2617787Y1189038D02*
X2617787Y1154113D01*
G54D12*
X2643187Y1189038D02*
X2643187Y1154113D01*
G54D12*
X2668587Y1189038D02*
X2668587Y1154113D01*
X2760662Y1128713D02*
G54D13*
D03*
X2809062Y1128713D02*
G54D13*
D03*
X2874962Y1147763D02*
G54D14*
D03*
X2900362Y1147763D02*
G54D14*
D03*
X2903537Y1119188D02*
G54D11*
D03*
X2849562Y1090613D02*
G54D11*
D03*
X2887662Y1020763D02*
G54D11*
D03*
X2747962Y1065213D02*
G54D11*
D03*
X2767012Y1065213D02*
G54D11*
D03*
X2976562Y966788D02*
G54D11*
D03*
X2989262Y877888D02*
G54D11*
D03*
X2925762Y890588D02*
G54D11*
D03*
X2887662Y877888D02*
G54D11*
D03*
X2806700Y890588D02*
G54D11*
D03*
X2722562Y1077913D02*
G54D11*
D03*
X2709862Y1065213D02*
G54D11*
D03*
X2709862Y1046163D02*
G54D11*
D03*
X2682874Y1050926D02*
G54D11*
D03*
X2697162Y1011238D02*
G54D11*
D03*
X2722562Y1008063D02*
G54D11*
D03*
X2682874Y989013D02*
G54D11*
D03*
X2697828Y904835D02*
G54D11*
D03*
X2963862Y941388D02*
G54D11*
D03*
X2963862Y820738D02*
G54D11*
D03*
X2836862Y827088D02*
G54D11*
D03*
X2862262Y827088D02*
G54D11*
D03*
X2906712Y827088D02*
G54D11*
D03*
X2944812Y827088D02*
G54D11*
D03*
X2951162Y763588D02*
G54D11*
D03*
X2913062Y763588D02*
G54D11*
D03*
X2989262Y827088D02*
G54D11*
D03*
X2913062Y700088D02*
G54D11*
D03*
X2957512Y700088D02*
G54D11*
D03*
X2982912Y700088D02*
G54D11*
D03*
X2951162Y636588D02*
G54D11*
D03*
X2887662Y636588D02*
G54D11*
D03*
X2836862Y636588D02*
G54D11*
D03*
X2824162Y573088D02*
G54D11*
D03*
X2900362Y579438D02*
G54D11*
D03*
X2951162Y573088D02*
G54D11*
D03*
X2913062Y369888D02*
G54D11*
D03*
X2887662Y369888D02*
G54D11*
D03*
X2989262Y217488D02*
G54D11*
D03*
X2957512Y230188D02*
G54D11*
D03*
X2938462Y242888D02*
G54D11*
D03*
X2887662Y255588D02*
G54D11*
D03*
X2773362Y268288D02*
G54D11*
D03*
X2786062Y293688D02*
G54D11*
D03*
X2760662Y306388D02*
G54D11*
D03*
X2747962Y369888D02*
G54D11*
D03*
X2727324Y923926D02*
G54D11*
D03*
X2760662Y915988D02*
G54D11*
D03*
X2682874Y1116013D02*
G54D11*
D03*
X2657474Y1116013D02*
G54D11*
D03*
X2632074Y1116013D02*
G54D11*
D03*
X2606674Y1116013D02*
G54D11*
D03*
X2975765Y395474D02*
G54D14*
D03*
X2975765Y344674D02*
G54D14*
D03*
X2975765Y522474D02*
G54D14*
D03*
X2975765Y471674D02*
G54D14*
D03*
X2975765Y649474D02*
G54D14*
D03*
X2975765Y598674D02*
G54D14*
D03*
X2975765Y906649D02*
G54D14*
D03*
X2975765Y855849D02*
G54D14*
D03*
X2980312Y729417D02*
G54D10*
D03*
X2980312Y749517D02*
G54D10*
D03*
X2980312Y1002467D02*
G54D10*
D03*
X2980312Y1022567D02*
G54D10*
D03*
X2841624Y955676D02*
G54D11*
D03*
X2747962Y954088D02*
G54D15*
D03*
X2659637Y754817D02*
G54D10*
D03*
X2659637Y774917D02*
G54D10*
D03*
X2530474Y1116013D02*
G54D15*
D03*
X2659062Y890588D02*
G54D15*
D03*
X2603500Y923926D02*
G54D15*
D03*
X2628900Y938213D02*
G54D15*
D03*
X2544762Y890588D02*
G54D15*
D03*
X2519362Y900113D02*
G54D15*
D03*
X2506662Y931863D02*
G54D15*
D03*
X2568574Y944563D02*
G54D15*
D03*
X2568574Y963613D02*
G54D15*
D03*
X2595562Y968376D02*
G54D15*
D03*
X2627312Y1011238D02*
G54D15*
D03*
X2660650Y1019176D02*
G54D15*
D03*
X2570162Y1033463D02*
G54D15*
D03*
X2597150Y1046163D02*
G54D15*
D03*
X2652712Y1052513D02*
G54D15*
D03*
X2620962Y1058863D02*
G54D15*
D03*
X2640012Y1065213D02*
G54D15*
D03*
X2617787Y1090613D02*
G54D15*
D03*
X2601912Y1084263D02*
G54D15*
D03*
X2647950Y803276D02*
G54D15*
D03*
X2659062Y822326D02*
G54D15*
D03*
X2616200Y822326D02*
G54D15*
D03*
X2720974Y784226D02*
G54D15*
D03*
X2698750Y746126D02*
G54D15*
D03*
X2428874Y879476D02*
G54D15*
D03*
X2436812Y428626D02*
G54D15*
D03*
X2570162Y860426D02*
G54D16*
D03*
X2386012Y847726D02*
G54D16*
D03*
X2411412Y822326D02*
G54D16*
D03*
X2428874Y803276D02*
G54D16*
D03*
X2443162Y765176D02*
G54D16*
D03*
X2544762Y784226D02*
G54D16*
D03*
X2563812Y765176D02*
G54D16*
D03*
X2582862Y765176D02*
G54D16*
D03*
X2366962Y766763D02*
G54D16*
D03*
X2474912Y892176D02*
G54D16*
D03*
X2392362Y701676D02*
G54D16*
D03*
X2406650Y688976D02*
G54D16*
D03*
X2430462Y676276D02*
G54D16*
D03*
X2493962Y688976D02*
G54D16*
D03*
X2493962Y657226D02*
G54D16*
D03*
X2301874Y441326D02*
G54D16*
D03*
X2635250Y568326D02*
G54D16*
D03*
G36*
X2202387Y1013888D02*
X2220387Y1013888D01*
X2220387Y995888D01*
X2202387Y995888D01*
X2202387Y1013888D01*
G37*
X2211387Y1030288D02*
G54D10*
D03*
X2236787Y1004888D02*
G54D10*
D03*
X2236787Y1030288D02*
G54D10*
D03*
X2262187Y1004888D02*
G54D10*
D03*
X2262187Y1030288D02*
G54D10*
D03*
X2287587Y1004888D02*
G54D10*
D03*
X2287587Y1030288D02*
G54D10*
D03*
X2312987Y1004888D02*
G54D10*
D03*
X2312987Y1030288D02*
G54D10*
D03*
X2338387Y1004888D02*
G54D10*
D03*
X2338387Y1030288D02*
G54D10*
D03*
X2363787Y1004888D02*
G54D10*
D03*
X2363787Y1030288D02*
G54D10*
D03*
X2389187Y1004888D02*
G54D10*
D03*
X2389187Y1030288D02*
G54D10*
D03*
X2414587Y1004888D02*
G54D10*
D03*
X2414587Y1030288D02*
G54D10*
D03*
X2439987Y1004888D02*
G54D10*
D03*
X2439987Y1030288D02*
G54D10*
D03*
X2465387Y1004888D02*
G54D10*
D03*
X2465387Y1030288D02*
G54D10*
D03*
X2490787Y1004888D02*
G54D10*
D03*
X2490787Y1030288D02*
G54D10*
D03*
X2516187Y1004888D02*
G54D10*
D03*
X2516187Y1030288D02*
G54D10*
D03*
X2671762Y714376D02*
G54D16*
D03*
X2652712Y714376D02*
G54D16*
D03*
X2633662Y714376D02*
G54D16*
D03*
X2741612Y727076D02*
G54D16*
D03*
X2752724Y688976D02*
G54D16*
D03*
X2711450Y676276D02*
G54D16*
D03*
X2670174Y204788D02*
G54D16*
D03*
X1911350Y219076D02*
G54D16*
D03*
X1720850Y276226D02*
G54D16*
D03*
X1631950Y276226D02*
G54D16*
D03*
X1631950Y193676D02*
G54D16*
D03*
X1263650Y193676D02*
G54D16*
D03*
X1173162Y728663D02*
G54D16*
D03*
X1123950Y728663D02*
G54D16*
D03*
X1123950Y828676D02*
G54D16*
D03*
X1096962Y904876D02*
G54D14*
D03*
X1198562Y904876D02*
G54D14*
D03*
X2193924Y893763D02*
G54D16*
D03*
X1909762Y893763D02*
G54D16*
D03*
X1909762Y842963D02*
G54D16*
D03*
X2201862Y658813D02*
G54D16*
D03*
X2036762Y657226D02*
G54D15*
D03*
X2676524Y631826D02*
G54D15*
D03*
X2555874Y631826D02*
G54D15*
D03*
X2544762Y331788D02*
G54D15*
D03*
X1846262Y333376D02*
G54D15*
D03*
X1795462Y357188D02*
G54D15*
D03*
X1262062Y371476D02*
G54D15*
D03*
X1262062Y409576D02*
G54D15*
D03*
X2449512Y923926D02*
G54D15*
D03*
X2468562Y230188D02*
G54D15*
D03*
X2100262Y225426D02*
G54D15*
D03*
X2506662Y217488D02*
G54D15*
D03*
X2620962Y217488D02*
G54D15*
D03*
X2620962Y280988D02*
G54D15*
D03*
X2203450Y282576D02*
G54D15*
D03*
X2201862Y371476D02*
G54D15*
D03*
X1719262Y344488D02*
G54D14*
D03*
X1820862Y344488D02*
G54D14*
D03*
X1744662Y434976D02*
G54D15*
D03*
X1655762Y434976D02*
G54D15*
D03*
X1236662Y496888D02*
G54D15*
D03*
X1223962Y969963D02*
G54D15*
D03*
X1225550Y904876D02*
G54D15*
D03*
X1325562Y904876D02*
G54D15*
D03*
X1214437Y855663D02*
G54D15*
D03*
X1096962Y881063D02*
G54D14*
D03*
X1198562Y881063D02*
G54D14*
D03*
X1579557Y969958D02*
G54D15*
D03*
X2697828Y955635D02*
G54D14*
D03*
X2697828Y854035D02*
G54D14*
D03*
X2697393Y815975D02*
G54D14*
D03*
X2697393Y714376D02*
G54D14*
D03*
X2721945Y815950D02*
G54D14*
D03*
X2721945Y714350D02*
G54D14*
D03*
X2874962Y1119188D02*
G54D14*
D03*
X2976562Y1119188D02*
G54D14*
D03*
X2874962Y1093788D02*
G54D17*
D03*
X2976562Y1093788D02*
G54D17*
D03*
X2671762Y555626D02*
G54D15*
D03*
X2645382Y955512D02*
G54D14*
D03*
X2645382Y853912D02*
G54D14*
D03*
X2671414Y955853D02*
G54D14*
D03*
X2671414Y854253D02*
G54D14*
D03*
X2722214Y955853D02*
G54D14*
D03*
X2722214Y854253D02*
G54D14*
D03*
X2620614Y955853D02*
G54D14*
D03*
X2620614Y854253D02*
G54D14*
D03*
X2652712Y619126D02*
G54D15*
D03*
X2690812Y619126D02*
G54D15*
D03*
X2527300Y619126D02*
G54D15*
D03*
X2608262Y574676D02*
G54D15*
D03*
X2723352Y651062D02*
G54D14*
D03*
X2723352Y600261D02*
G54D14*
D03*
X2747962Y636588D02*
G54D15*
D03*
X2201066Y778061D02*
G54D14*
D03*
X2201066Y727261D02*
G54D14*
D03*
X2335212Y688976D02*
G54D15*
D03*
X2208212Y809626D02*
G54D15*
D03*
X2220912Y606426D02*
G54D15*
D03*
X2273300Y612776D02*
G54D15*
D03*
X2400300Y204788D02*
G54D15*
D03*
X1314450Y206376D02*
G54D15*
D03*
X2533650Y542926D02*
G54D15*
D03*
X2538412Y192088D02*
G54D15*
D03*
X1439862Y185738D02*
G54D15*
D03*
X1452562Y384176D02*
G54D15*
D03*
X754062Y384176D02*
G54D15*
D03*
X2327274Y1116013D02*
G54D15*
D03*
X2301874Y1116013D02*
G54D15*
D03*
X2276474Y1116013D02*
G54D15*
D03*
X2249487Y1116013D02*
G54D15*
D03*
X2176462Y1116013D02*
G54D15*
D03*
X2416512Y956104D02*
G54D14*
D03*
X2416512Y854504D02*
G54D14*
D03*
X1985962Y828676D02*
G54D15*
D03*
X1966912Y333376D02*
G54D15*
D03*
X2043112Y320676D02*
G54D15*
D03*
X2397124Y955676D02*
G54D15*
D03*
X2352674Y955676D02*
G54D15*
D03*
X2354262Y1090613D02*
G54D15*
D03*
X2441388Y956307D02*
G54D14*
D03*
X2441387Y854707D02*
G54D14*
D03*
X2430462Y1084263D02*
G54D15*
D03*
X2562224Y1069976D02*
G54D15*
D03*
X2505074Y1128713D02*
G54D15*
D03*
X2481262Y1090613D02*
G54D15*
D03*
X2460624Y1071563D02*
G54D15*
D03*
X2365374Y1101726D02*
G54D15*
D03*
X2384424Y1101726D02*
G54D15*
D03*
X2319337Y1089026D02*
G54D15*
D03*
X2289174Y1084263D02*
G54D15*
D03*
X2479674Y931863D02*
G54D15*
D03*
X2371724Y963613D02*
G54D15*
D03*
X2187574Y1090613D02*
G54D15*
D03*
X2225674Y1050926D02*
G54D15*
D03*
X2276474Y1057276D02*
G54D15*
D03*
X2333624Y923926D02*
G54D15*
D03*
X2276474Y930276D02*
G54D15*
D03*
X2246312Y930276D02*
G54D15*
D03*
X2447924Y327026D02*
G54D15*
D03*
X2063750Y333376D02*
G54D15*
D03*
X2466787Y956306D02*
G54D14*
D03*
X2466787Y854706D02*
G54D14*
D03*
X2479674Y385763D02*
G54D15*
D03*
X2112962Y371476D02*
G54D15*
D03*
X1992312Y523876D02*
G54D15*
D03*
X1922462Y523876D02*
G54D15*
D03*
X1922462Y631826D02*
G54D15*
D03*
X2290762Y657226D02*
G54D15*
D03*
X2492712Y956104D02*
G54D14*
D03*
X2492712Y854504D02*
G54D14*
D03*
X2542363Y854732D02*
G54D14*
D03*
X2542363Y956332D02*
G54D14*
D03*
X2518112Y956105D02*
G54D14*
D03*
X2518112Y854505D02*
G54D14*
D03*
X800100Y568326D02*
G54D15*
D03*
X1136650Y703263D02*
G54D15*
D03*
X1136650Y855663D02*
G54D15*
D03*
X1833562Y828676D02*
G54D15*
D03*
X1858962Y1071563D02*
G54D15*
D03*
X2227262Y847726D02*
G54D15*
D03*
X2265362Y538163D02*
G54D15*
D03*
X2105024Y498476D02*
G54D15*
D03*
X2093912Y473076D02*
G54D15*
D03*
X2117724Y473076D02*
G54D15*
D03*
X2182812Y496888D02*
G54D15*
D03*
X2163762Y474663D02*
G54D15*
D03*
X2144712Y460376D02*
G54D15*
D03*
X2157412Y446088D02*
G54D15*
D03*
X2182812Y433388D02*
G54D15*
D03*
X2189162Y460376D02*
G54D15*
D03*
X2214562Y446088D02*
G54D15*
D03*
X2214562Y420688D02*
G54D15*
D03*
X2101850Y409576D02*
G54D15*
D03*
X2125662Y409576D02*
G54D15*
D03*
X2138362Y384176D02*
G54D15*
D03*
X2174874Y384176D02*
G54D15*
D03*
X2227262Y371476D02*
G54D15*
D03*
X2100262Y703263D02*
G54D15*
D03*
X2100262Y671513D02*
G54D15*
D03*
X2119312Y671513D02*
G54D15*
D03*
X2011362Y671513D02*
G54D15*
D03*
X1866900Y671513D02*
G54D15*
D03*
X1858962Y828676D02*
G54D15*
D03*
X1922462Y866776D02*
G54D15*
D03*
X1249362Y866776D02*
G54D15*
D03*
X1249362Y588963D02*
G54D15*
D03*
X1376362Y588963D02*
G54D15*
D03*
X2227262Y766763D02*
G54D15*
D03*
X2193924Y1020763D02*
G54D15*
D03*
X1935162Y1008063D02*
G54D15*
D03*
X1922462Y769938D02*
G54D15*
D03*
X1274762Y792163D02*
G54D15*
D03*
X1263650Y549276D02*
G54D15*
D03*
X1922462Y665163D02*
G54D15*
D03*
X2062162Y652463D02*
G54D15*
D03*
X2252662Y563563D02*
G54D15*
D03*
X2265362Y587376D02*
G54D15*
D03*
X2347912Y466726D02*
G54D15*
D03*
X2303462Y498476D02*
G54D15*
D03*
X2136774Y582613D02*
G54D15*
D03*
X2187574Y588963D02*
G54D15*
D03*
X2201862Y601663D02*
G54D15*
D03*
X2097087Y646113D02*
G54D15*
D03*
X2081212Y606426D02*
G54D15*
D03*
X2062162Y531813D02*
G54D15*
D03*
X2697162Y530226D02*
G54D15*
D03*
X2684462Y498476D02*
G54D15*
D03*
X2697162Y473076D02*
G54D15*
D03*
X2697162Y415926D02*
G54D15*
D03*
X2646362Y371476D02*
G54D15*
D03*
X2659062Y396876D02*
G54D15*
D03*
X2608262Y382588D02*
G54D15*
D03*
X2608262Y420688D02*
G54D15*
D03*
X2646362Y441326D02*
G54D15*
D03*
X2570162Y434976D02*
G54D15*
D03*
X2570162Y357188D02*
G54D15*
D03*
X2595562Y346076D02*
G54D15*
D03*
X2589212Y306388D02*
G54D15*
D03*
X2659062Y282576D02*
G54D15*
D03*
X2524124Y301626D02*
G54D15*
D03*
X2506662Y293688D02*
G54D15*
D03*
X2506662Y255588D02*
G54D15*
D03*
X2422524Y466726D02*
G54D15*
D03*
X2368550Y371476D02*
G54D15*
D03*
X2411412Y358776D02*
G54D15*
D03*
X2305050Y365126D02*
G54D15*
D03*
X2360612Y352426D02*
G54D15*
D03*
X2298700Y192088D02*
G54D15*
D03*
X2379662Y192088D02*
G54D15*
D03*
X2400300Y238126D02*
G54D15*
D03*
X2432050Y200026D02*
G54D15*
D03*
X2373312Y293688D02*
G54D15*
D03*
X2266950Y320676D02*
G54D15*
D03*
X2322512Y314326D02*
G54D15*
D03*
X2292350Y287338D02*
G54D15*
D03*
X2317750Y287338D02*
G54D15*
D03*
X2227262Y206376D02*
G54D15*
D03*
X2316162Y688976D02*
G54D15*
D03*
X2236787Y684213D02*
G54D15*
D03*
X2273300Y684213D02*
G54D15*
D03*
X2201862Y684213D02*
G54D15*
D03*
X2176462Y690563D02*
G54D15*
D03*
X2132012Y695326D02*
G54D15*
D03*
X2074862Y708026D02*
G54D15*
D03*
X2049462Y582613D02*
G54D15*
D03*
X2049462Y752476D02*
G54D15*
D03*
X2087562Y752476D02*
G54D15*
D03*
X1960562Y677863D02*
G54D15*
D03*
X1668462Y574676D02*
G54D15*
D03*
X1668462Y677863D02*
G54D15*
D03*
X1376362Y765176D02*
G54D15*
D03*
X1262062Y765176D02*
G54D15*
D03*
X1262062Y982663D02*
G54D15*
D03*
X1096962Y982663D02*
G54D14*
D03*
X1198562Y982663D02*
G54D14*
D03*
X1096962Y957263D02*
G54D14*
D03*
X1198562Y957263D02*
G54D14*
D03*
X1858962Y550863D02*
G54D15*
D03*
X1839912Y671513D02*
G54D15*
D03*
X1971674Y930276D02*
G54D15*
D03*
X1897062Y728663D02*
G54D15*
D03*
X1860550Y728663D02*
G54D15*
D03*
X1860550Y792163D02*
G54D15*
D03*
X1350962Y792163D02*
G54D15*
D03*
X1338262Y957263D02*
G54D15*
D03*
X1046162Y282576D02*
G54D15*
D03*
X1046164Y257176D02*
G54D15*
D03*
X1046162Y600076D02*
G54D15*
D03*
X1162050Y600076D02*
G54D15*
D03*
X603250Y295276D02*
G54D15*
D03*
X1161701Y752653D02*
G54D14*
D03*
X1161701Y651053D02*
G54D14*
D03*
X1212232Y751658D02*
G54D14*
D03*
X1212232Y650058D02*
G54D14*
D03*
X1162050Y676276D02*
G54D15*
D03*
X1123001Y651991D02*
G54D18*
D03*
X1110301Y664691D02*
G54D18*
D03*
X1097601Y651991D02*
G54D18*
D03*
X1160170Y816990D02*
G54D19*
D03*
X1185070Y816990D02*
G54D19*
D03*
X1159844Y575444D02*
G54D14*
D03*
X1159844Y473844D02*
G54D14*
D03*
X1085231Y575444D02*
G54D14*
D03*
X1085231Y473844D02*
G54D14*
D03*
X588962Y760413D02*
G54D14*
D03*
X690562Y760413D02*
G54D14*
D03*
X1530350Y257176D02*
G54D15*
D03*
X1274762Y269876D02*
G54D15*
D03*
X1274762Y295276D02*
G54D15*
D03*
X1301750Y295276D02*
G54D15*
D03*
X1517650Y320676D02*
G54D15*
D03*
X1197765Y1084449D02*
G54D14*
D03*
X1197765Y1033649D02*
G54D14*
D03*
X1172365Y1084449D02*
G54D14*
D03*
X1172365Y1059049D02*
G54D14*
D03*
X927100Y204788D02*
G54D15*
D03*
G54D20*
X971550Y612776D02*
X971550Y588963D01*
G54D20*
X869950Y612776D02*
X869950Y587376D01*
X869950Y587380D02*
G54D21*
D03*
X971550Y588968D02*
G54D21*
D03*
X869950Y555626D02*
G54D14*
D03*
X971550Y555626D02*
G54D14*
D03*
X588962Y657226D02*
G54D14*
D03*
X690562Y657226D02*
G54D14*
D03*
X588962Y682626D02*
G54D14*
D03*
X690562Y682626D02*
G54D14*
D03*
X2176462Y276226D02*
G54D15*
D03*
X2157412Y295276D02*
G54D15*
D03*
X2157412Y276226D02*
G54D15*
D03*
X2151062Y231776D02*
G54D15*
D03*
X2125662Y230188D02*
G54D15*
D03*
X2170112Y244476D02*
G54D15*
D03*
X2195512Y244476D02*
G54D15*
D03*
X2068512Y284163D02*
G54D15*
D03*
X2038350Y257176D02*
G54D15*
D03*
X2025650Y320676D02*
G54D15*
D03*
X1947862Y333376D02*
G54D15*
D03*
X1949450Y230188D02*
G54D15*
D03*
X1922462Y295276D02*
G54D15*
D03*
X1884362Y333376D02*
G54D15*
D03*
X1981200Y536576D02*
G54D15*
D03*
X1981200Y511176D02*
G54D15*
D03*
X2016124Y460376D02*
G54D15*
D03*
X2025650Y396876D02*
G54D15*
D03*
X1974850Y396876D02*
G54D15*
D03*
X1936750Y422276D02*
G54D15*
D03*
X1947862Y485776D02*
G54D15*
D03*
X1922462Y498476D02*
G54D15*
D03*
X1898650Y511176D02*
G54D15*
D03*
X1871662Y485776D02*
G54D15*
D03*
X1909762Y473076D02*
G54D15*
D03*
X1847850Y460376D02*
G54D15*
D03*
X1871662Y409576D02*
G54D15*
D03*
X1846262Y396876D02*
G54D15*
D03*
X1860550Y371476D02*
G54D15*
D03*
X1936750Y574676D02*
G54D15*
D03*
X2000250Y574676D02*
G54D15*
D03*
X2000250Y638176D02*
G54D15*
D03*
X1898650Y625476D02*
G54D15*
D03*
X1968500Y600076D02*
G54D15*
D03*
X1987550Y600076D02*
G54D15*
D03*
X1795462Y682626D02*
G54D15*
D03*
X1795462Y627063D02*
G54D15*
D03*
X1782762Y600076D02*
G54D15*
D03*
X1797050Y523876D02*
G54D15*
D03*
X1971674Y1096963D02*
G54D15*
D03*
X1971674Y1033463D02*
G54D15*
D03*
X2009774Y1116013D02*
G54D15*
D03*
X1998662Y1084263D02*
G54D15*
D03*
X2060574Y1058863D02*
G54D15*
D03*
X2049462Y1044576D02*
G54D15*
D03*
X2074862Y1033463D02*
G54D15*
D03*
X2098674Y1116013D02*
G54D15*
D03*
X2111374Y1044576D02*
G54D15*
D03*
X2125662Y1103313D02*
G54D15*
D03*
X2151062Y1090613D02*
G54D15*
D03*
X2149474Y1063626D02*
G54D15*
D03*
X2138362Y1020763D02*
G54D15*
D03*
X2187574Y989013D02*
G54D15*
D03*
X1897062Y1020763D02*
G54D15*
D03*
X2189162Y835026D02*
G54D15*
D03*
X1884362Y887413D02*
G54D15*
D03*
X2017712Y828676D02*
G54D15*
D03*
X1909762Y792163D02*
G54D15*
D03*
X1870074Y1058863D02*
G54D15*
D03*
X1870074Y1008063D02*
G54D15*
D03*
X1762124Y1058863D02*
G54D15*
D03*
X1806574Y1020763D02*
G54D15*
D03*
X1833562Y1020763D02*
G54D15*
D03*
X1793874Y989013D02*
G54D15*
D03*
X1757362Y969963D02*
G54D15*
D03*
X1757362Y938213D02*
G54D15*
D03*
X1789112Y938213D02*
G54D15*
D03*
X1839912Y919163D02*
G54D15*
D03*
X1819274Y898526D02*
G54D15*
D03*
X1793874Y877888D02*
G54D15*
D03*
X1793874Y854076D02*
G54D15*
D03*
X1363662Y1008063D02*
G54D15*
D03*
X1390650Y982663D02*
G54D15*
D03*
X1401762Y1008063D02*
G54D15*
D03*
X1376362Y1046163D02*
G54D15*
D03*
X1350962Y1058863D02*
G54D15*
D03*
X1452562Y1058863D02*
G54D15*
D03*
X1452562Y982663D02*
G54D15*
D03*
X1427162Y995363D02*
G54D15*
D03*
X1497012Y995363D02*
G54D15*
D03*
X1439862Y944563D02*
G54D15*
D03*
X1465262Y931863D02*
G54D15*
D03*
X1509712Y906463D02*
G54D15*
D03*
X1528762Y931863D02*
G54D15*
D03*
X1527174Y1058863D02*
G54D15*
D03*
X1592262Y1058863D02*
G54D15*
D03*
X1630362Y1058863D02*
G54D15*
D03*
X1655762Y1058863D02*
G54D15*
D03*
X1617662Y1019176D02*
G54D15*
D03*
X1604962Y955676D02*
G54D15*
D03*
X1579562Y944563D02*
G54D15*
D03*
X1630362Y931863D02*
G54D15*
D03*
X1668462Y925513D02*
G54D15*
D03*
X1731962Y906463D02*
G54D15*
D03*
X1706562Y938213D02*
G54D15*
D03*
X1719262Y969963D02*
G54D15*
D03*
X1693862Y955676D02*
G54D15*
D03*
X1655762Y969963D02*
G54D15*
D03*
X1554162Y1084263D02*
G54D15*
D03*
X1554162Y989013D02*
G54D15*
D03*
X1427162Y817563D02*
G54D15*
D03*
X1477962Y817563D02*
G54D15*
D03*
X1503362Y817563D02*
G54D15*
D03*
X1503362Y765176D02*
G54D15*
D03*
X1452562Y765176D02*
G54D15*
D03*
X1617662Y765176D02*
G54D15*
D03*
X1541462Y752476D02*
G54D15*
D03*
X1562100Y804863D02*
G54D15*
D03*
X1585912Y790576D02*
G54D15*
D03*
X1604962Y828676D02*
G54D15*
D03*
X1644650Y828676D02*
G54D15*
D03*
X1706562Y790576D02*
G54D15*
D03*
X1731962Y803276D02*
G54D15*
D03*
X1782762Y817563D02*
G54D15*
D03*
X1452562Y700088D02*
G54D15*
D03*
X1693862Y700088D02*
G54D15*
D03*
X1757362Y700088D02*
G54D15*
D03*
X1770062Y712788D02*
G54D15*
D03*
X1820862Y727076D02*
G54D15*
D03*
X1820862Y655638D02*
G54D15*
D03*
X1744662Y655638D02*
G54D15*
D03*
X1725612Y677863D02*
G54D15*
D03*
X1744662Y600076D02*
G54D15*
D03*
X1770062Y574676D02*
G54D15*
D03*
X1682750Y627063D02*
G54D15*
D03*
X1619250Y627063D02*
G54D22*
D03*
X1590674Y688976D02*
G54D22*
D03*
X1619250Y598488D02*
G54D22*
D03*
X1625600Y549276D02*
G54D22*
D03*
X1668462Y538163D02*
G54D22*
D03*
X1668462Y496888D02*
G54D22*
D03*
X1668462Y460376D02*
G54D22*
D03*
X1744662Y460376D02*
G54D22*
D03*
X1744662Y333376D02*
G54D22*
D03*
X1733550Y223838D02*
G54D22*
D03*
X1784350Y223838D02*
G54D22*
D03*
X1757362Y269876D02*
G54D22*
D03*
X1771650Y295276D02*
G54D22*
D03*
X1860550Y219076D02*
G54D22*
D03*
X1873250Y269876D02*
G54D22*
D03*
X1885950Y219076D02*
G54D22*
D03*
X1689100Y333376D02*
G54D22*
D03*
X1695450Y357188D02*
G54D22*
D03*
X1339850Y409576D02*
G54D22*
D03*
X1325562Y320676D02*
G54D22*
D03*
X1352550Y282576D02*
G54D22*
D03*
X1477962Y306388D02*
G54D22*
D03*
X1477962Y371476D02*
G54D22*
D03*
X1363662Y420688D02*
G54D22*
D03*
X1490662Y473076D02*
G54D22*
D03*
X1554162Y473076D02*
G54D22*
D03*
X1554162Y447676D02*
G54D22*
D03*
X1631950Y447676D02*
G54D22*
D03*
X1644650Y484188D02*
G54D22*
D03*
X1579562Y523876D02*
G54D22*
D03*
X1466850Y530226D02*
G54D22*
D03*
X1439862Y568326D02*
G54D22*
D03*
X1422400Y538163D02*
G54D22*
D03*
X1397000Y538163D02*
G54D22*
D03*
X1670050Y193676D02*
G54D22*
D03*
X1706562Y193676D02*
G54D22*
D03*
X1670050Y344488D02*
G54D22*
D03*
X1619250Y398463D02*
G54D22*
D03*
X1643853Y395474D02*
G54D14*
D03*
X1643853Y344674D02*
G54D14*
D03*
X1579562Y257176D02*
G54D22*
D03*
X1490662Y231776D02*
G54D22*
D03*
X1503362Y269876D02*
G54D22*
D03*
X1312862Y792163D02*
G54D22*
D03*
X1312862Y690563D02*
G54D22*
D03*
X1300162Y650876D02*
G54D22*
D03*
X1422400Y650876D02*
G54D22*
D03*
X1465262Y650876D02*
G54D22*
D03*
X1236662Y828676D02*
G54D22*
D03*
X1225550Y804863D02*
G54D22*
D03*
X1236662Y690563D02*
G54D22*
D03*
X1184274Y690563D02*
G54D22*
D03*
X1312862Y1033463D02*
G54D22*
D03*
X1273174Y919163D02*
G54D22*
D03*
X1273174Y1058863D02*
G54D22*
D03*
X1096962Y930276D02*
G54D14*
D03*
X1198562Y930276D02*
G54D14*
D03*
X930274Y982663D02*
G54D22*
D03*
X1031874Y969963D02*
G54D22*
D03*
X1135062Y1020763D02*
G54D22*
D03*
X1135062Y904876D02*
G54D22*
D03*
X1236662Y1008063D02*
G54D22*
D03*
X1073150Y855663D02*
G54D22*
D03*
X1084262Y676276D02*
G54D22*
D03*
X930272Y1046168D02*
G54D23*
D03*
X981072Y1047748D02*
G54D23*
D03*
X1031872Y1047748D02*
G54D23*
D03*
X1187450Y398463D02*
G54D22*
D03*
X1187450Y244476D02*
G54D22*
D03*
X1212850Y244476D02*
G54D22*
D03*
X1200150Y220663D02*
G54D22*
D03*
X1200150Y371476D02*
G54D22*
D03*
X1238250Y198438D02*
G54D22*
D03*
X1135062Y447676D02*
G54D22*
D03*
X1187450Y496888D02*
G54D22*
D03*
X1033462Y530226D02*
G54D22*
D03*
X855662Y369888D02*
G54D22*
D03*
X855662Y420688D02*
G54D22*
D03*
X906462Y420688D02*
G54D22*
D03*
X869153Y395474D02*
G54D14*
D03*
X869153Y344674D02*
G54D14*
D03*
X899315Y370074D02*
G54D14*
D03*
X899315Y344674D02*
G54D14*
D03*
X1719262Y371476D02*
G54D14*
D03*
X1820862Y371476D02*
G54D14*
D03*
X1719262Y396876D02*
G54D14*
D03*
X1820862Y396876D02*
G54D14*
D03*
X1719262Y422276D02*
G54D14*
D03*
X1820862Y422276D02*
G54D14*
D03*
X1719262Y447676D02*
G54D14*
D03*
X1820862Y447676D02*
G54D14*
D03*
X1719262Y473076D02*
G54D14*
D03*
X1820862Y473076D02*
G54D14*
D03*
X1719262Y498476D02*
G54D14*
D03*
X1820862Y498476D02*
G54D14*
D03*
X1719262Y523876D02*
G54D14*
D03*
X1820862Y523876D02*
G54D14*
D03*
X1719262Y549276D02*
G54D14*
D03*
X1820862Y549276D02*
G54D14*
D03*
X1719262Y574676D02*
G54D14*
D03*
X1820862Y574676D02*
G54D14*
D03*
X1719262Y600076D02*
G54D14*
D03*
X1820862Y600076D02*
G54D14*
D03*
X2175844Y956445D02*
G54D14*
D03*
X2175844Y854845D02*
G54D14*
D03*
X2150444Y956445D02*
G54D14*
D03*
X2150444Y854845D02*
G54D14*
D03*
X2125044Y956445D02*
G54D14*
D03*
X2125044Y854845D02*
G54D14*
D03*
X2099644Y956445D02*
G54D14*
D03*
X2099644Y854845D02*
G54D14*
D03*
X2074244Y956445D02*
G54D14*
D03*
X2074244Y854845D02*
G54D14*
D03*
X2048844Y956445D02*
G54D14*
D03*
X2048844Y854845D02*
G54D14*
D03*
X2023444Y956445D02*
G54D14*
D03*
X2023444Y854845D02*
G54D14*
D03*
X1998044Y956445D02*
G54D14*
D03*
X1998044Y854845D02*
G54D14*
D03*
X1972644Y956445D02*
G54D14*
D03*
X1972644Y854845D02*
G54D14*
D03*
X1947244Y956445D02*
G54D14*
D03*
X1947244Y854845D02*
G54D14*
D03*
X1719262Y627063D02*
G54D14*
D03*
X1820862Y627063D02*
G54D14*
D03*
X2697158Y395474D02*
G54D14*
D03*
X2697158Y370074D02*
G54D14*
D03*
X1213819Y575444D02*
G54D14*
D03*
X1213819Y473844D02*
G54D14*
D03*
X1186831Y575444D02*
G54D14*
D03*
X1186831Y473844D02*
G54D14*
D03*
X1134444Y575444D02*
G54D14*
D03*
X1134444Y473844D02*
G54D14*
D03*
X1110631Y575444D02*
G54D14*
D03*
X1110631Y473844D02*
G54D14*
D03*
X1059831Y575444D02*
G54D14*
D03*
X1059831Y473844D02*
G54D14*
D03*
X1032844Y575444D02*
G54D14*
D03*
X1032844Y473844D02*
G54D14*
D03*
X1009031Y575444D02*
G54D14*
D03*
X1009031Y473844D02*
G54D14*
D03*
X1009650Y600076D02*
G54D22*
D03*
X946150Y485776D02*
G54D22*
D03*
X906462Y623888D02*
G54D22*
D03*
X996950Y371476D02*
G54D22*
D03*
X946150Y320676D02*
G54D22*
D03*
X615950Y269876D02*
G54D22*
D03*
X508000Y454026D02*
G54D22*
D03*
X473074Y446088D02*
G54D22*
D03*
X469900Y384176D02*
G54D22*
D03*
X436562Y371476D02*
G54D22*
D03*
X654050Y479426D02*
G54D22*
D03*
X647700Y396876D02*
G54D22*
D03*
X602632Y981844D02*
G54D14*
D03*
X602632Y880244D02*
G54D14*
D03*
X626444Y981844D02*
G54D14*
D03*
X626444Y880244D02*
G54D14*
D03*
X627062Y1046168D02*
G54D23*
D03*
X576262Y1046168D02*
G54D23*
D03*
X677862Y1046168D02*
G54D23*
D03*
X675478Y982055D02*
G54D14*
D03*
X675478Y956655D02*
G54D14*
D03*
X702465Y982055D02*
G54D14*
D03*
X702465Y956655D02*
G54D14*
D03*
X727866Y982849D02*
G54D14*
D03*
X727866Y932049D02*
G54D14*
D03*
X650078Y982055D02*
G54D14*
D03*
X650078Y931255D02*
G54D14*
D03*
X779462Y658813D02*
G54D22*
D03*
X677862Y369888D02*
G54D22*
D03*
X728662Y369888D02*
G54D22*
D03*
X766762Y447676D02*
G54D22*
D03*
X754062Y523876D02*
G54D22*
D03*
X741362Y319088D02*
G54D22*
D03*
X819147Y498475D02*
G54D14*
D03*
X819147Y473075D02*
G54D14*
D03*
X849627Y498446D02*
G54D14*
D03*
X849627Y473046D02*
G54D14*
D03*
X721515Y498661D02*
G54D14*
D03*
X721515Y473261D02*
G54D14*
D03*
X753265Y498661D02*
G54D14*
D03*
X753265Y473261D02*
G54D14*
D03*
X786602Y498661D02*
G54D14*
D03*
X786602Y473261D02*
G54D14*
D03*
X689765Y498661D02*
G54D14*
D03*
X689765Y473261D02*
G54D14*
D03*
X629440Y524061D02*
G54D14*
D03*
X629440Y498661D02*
G54D14*
D03*
X577850Y931466D02*
G54D15*
D03*
X500062Y868363D02*
G54D24*
D03*
X500062Y919163D02*
G54D24*
D03*
X436562Y936625D02*
G54D18*
D03*
X449262Y923925D02*
G54D18*
D03*
X461962Y936625D02*
G54D18*
D03*
X550451Y969759D02*
G54D14*
D03*
X550451Y868159D02*
G54D14*
D03*
X409580Y969960D02*
G54D24*
D03*
X721520Y523880D02*
G54D14*
D03*
X786610Y523880D02*
G54D14*
D03*
X850110Y523880D02*
G54D14*
D03*
X524962Y804862D02*
G54D19*
D03*
X500062Y804862D02*
G54D19*
D03*
X588962Y708026D02*
G54D14*
D03*
X690562Y708026D02*
G54D14*
D03*
X588962Y733426D02*
G54D14*
D03*
X690562Y733426D02*
G54D14*
D03*
X465138Y669925D02*
G54D13*
D03*
X513538Y669925D02*
G54D13*
D03*
X121620Y446856D02*
G54D14*
D03*
X121620Y345256D02*
G54D14*
D03*
X145432Y446856D02*
G54D14*
D03*
X145432Y345256D02*
G54D14*
D03*
X170832Y446856D02*
G54D14*
D03*
X170832Y345256D02*
G54D14*
D03*
X196232Y446856D02*
G54D14*
D03*
X196232Y345256D02*
G54D14*
D03*
X223220Y446856D02*
G54D14*
D03*
X223220Y345256D02*
G54D14*
D03*
X248620Y446856D02*
G54D14*
D03*
X248620Y345256D02*
G54D14*
D03*
X274020Y446856D02*
G54D14*
D03*
X274020Y345256D02*
G54D14*
D03*
X297832Y446856D02*
G54D14*
D03*
X297832Y345256D02*
G54D14*
D03*
X122238Y485775D02*
G54D15*
D03*
X184150Y536575D02*
G54D15*
D03*
X260350Y512762D02*
G54D15*
D03*
X107950Y574670D02*
G54D24*
D03*
X211138Y574670D02*
G54D24*
D03*
X404812Y650875D02*
G54D15*
D03*
X404812Y631825D02*
G54D15*
D03*
X349250Y581025D02*
G54D15*
D03*
X400050Y587375D02*
G54D15*
D03*
X449262Y606425D02*
G54D15*
D03*
X477838Y606425D02*
G54D15*
D03*
X527050Y606425D02*
G54D15*
D03*
X565150Y587375D02*
G54D15*
D03*
X550860Y804860D02*
G54D25*
D03*
X425450Y563562D02*
G54D15*
D03*
X361950Y523875D02*
G54D15*
D03*
X438150Y549275D02*
G54D15*
D03*
X349251Y549275D02*
G54D14*
D03*
X349250Y498475D02*
G54D14*
D03*
X376238Y549275D02*
G54D14*
D03*
X376238Y498475D02*
G54D14*
D03*
X400840Y523267D02*
G54D14*
D03*
X400840Y497867D02*
G54D14*
D03*
X426240Y523267D02*
G54D14*
D03*
X426240Y497867D02*
G54D14*
D03*
X451640Y523267D02*
G54D14*
D03*
X451640Y497867D02*
G54D14*
D03*
X477838Y549275D02*
G54D14*
D03*
X477838Y498475D02*
G54D14*
D03*
X477840Y523890D02*
G54D14*
D03*
X527051Y549275D02*
G54D14*
D03*
X527050Y498475D02*
G54D14*
D03*
X552451Y549275D02*
G54D14*
D03*
X552450Y498475D02*
G54D14*
D03*
X577851Y549275D02*
G54D14*
D03*
X577850Y498475D02*
G54D14*
D03*
X603251Y549275D02*
G54D14*
D03*
X603250Y498475D02*
G54D14*
D03*
X502440Y523267D02*
G54D14*
D03*
X502440Y497867D02*
G54D14*
D03*
X541338Y725488D02*
G54D19*
D03*
X521238Y725488D02*
G54D19*
D03*
M02*
