%TF.GenerationSoftware,KiCad,Pcbnew,(5.1.9)-1*%
%TF.CreationDate,2021-05-20T14:34:39+02:00*%
%TF.ProjectId,ColorAce,436f6c6f-7241-4636-952e-6b696361645f,rev?*%
%TF.SameCoordinates,Original*%
%TF.FileFunction,Legend,Top*%
%TF.FilePolarity,Positive*%
%FSLAX46Y46*%
G04 Gerber Fmt 4.6, Leading zero omitted, Abs format (unit mm)*
G04 Created by KiCad (PCBNEW (5.1.9)-1) date 2021-05-20 14:34:39*
%MOMM*%
%LPD*%
G01*
G04 APERTURE LIST*
%ADD10C,0.150000*%
%ADD11C,0.125000*%
%ADD12C,0.120000*%
G04 APERTURE END LIST*
D10*
X134855000Y-120624523D02*
X134816904Y-120700714D01*
X134816904Y-120815000D01*
X134855000Y-120929285D01*
X134931190Y-121005476D01*
X135007380Y-121043571D01*
X135159761Y-121081666D01*
X135274047Y-121081666D01*
X135426428Y-121043571D01*
X135502619Y-121005476D01*
X135578809Y-120929285D01*
X135616904Y-120815000D01*
X135616904Y-120738809D01*
X135578809Y-120624523D01*
X135540714Y-120586428D01*
X135274047Y-120586428D01*
X135274047Y-120738809D01*
X135616904Y-120243571D02*
X134816904Y-120243571D01*
X135616904Y-119786428D01*
X134816904Y-119786428D01*
X135616904Y-119405476D02*
X134816904Y-119405476D01*
X134816904Y-119215000D01*
X134855000Y-119100714D01*
X134931190Y-119024523D01*
X135007380Y-118986428D01*
X135159761Y-118948333D01*
X135274047Y-118948333D01*
X135426428Y-118986428D01*
X135502619Y-119024523D01*
X135578809Y-119100714D01*
X135616904Y-119215000D01*
X135616904Y-119405476D01*
X134816904Y-116128666D02*
X135616904Y-115862000D01*
X134816904Y-115595333D01*
X135540714Y-114871523D02*
X135578809Y-114909619D01*
X135616904Y-115023904D01*
X135616904Y-115100095D01*
X135578809Y-115214380D01*
X135502619Y-115290571D01*
X135426428Y-115328666D01*
X135274047Y-115366761D01*
X135159761Y-115366761D01*
X135007380Y-115328666D01*
X134931190Y-115290571D01*
X134855000Y-115214380D01*
X134816904Y-115100095D01*
X134816904Y-115023904D01*
X134855000Y-114909619D01*
X134893095Y-114871523D01*
X135540714Y-114071523D02*
X135578809Y-114109619D01*
X135616904Y-114223904D01*
X135616904Y-114300095D01*
X135578809Y-114414380D01*
X135502619Y-114490571D01*
X135426428Y-114528666D01*
X135274047Y-114566761D01*
X135159761Y-114566761D01*
X135007380Y-114528666D01*
X134931190Y-114490571D01*
X134855000Y-114414380D01*
X134816904Y-114300095D01*
X134816904Y-114223904D01*
X134855000Y-114109619D01*
X134893095Y-114071523D01*
X136894857Y-125375857D02*
X136923428Y-125290142D01*
X136923428Y-125147285D01*
X136894857Y-125090142D01*
X136866285Y-125061571D01*
X136809142Y-125033000D01*
X136752000Y-125033000D01*
X136694857Y-125061571D01*
X136666285Y-125090142D01*
X136637714Y-125147285D01*
X136609142Y-125261571D01*
X136580571Y-125318714D01*
X136552000Y-125347285D01*
X136494857Y-125375857D01*
X136437714Y-125375857D01*
X136380571Y-125347285D01*
X136352000Y-125318714D01*
X136323428Y-125261571D01*
X136323428Y-125118714D01*
X136352000Y-125033000D01*
X136637714Y-124661571D02*
X136923428Y-124661571D01*
X136323428Y-124861571D02*
X136637714Y-124661571D01*
X136323428Y-124461571D01*
X136923428Y-124261571D02*
X136323428Y-124261571D01*
X136923428Y-123918714D01*
X136323428Y-123918714D01*
X136866285Y-123290142D02*
X136894857Y-123318714D01*
X136923428Y-123404428D01*
X136923428Y-123461571D01*
X136894857Y-123547285D01*
X136837714Y-123604428D01*
X136780571Y-123633000D01*
X136666285Y-123661571D01*
X136580571Y-123661571D01*
X136466285Y-123633000D01*
X136409142Y-123604428D01*
X136352000Y-123547285D01*
X136323428Y-123461571D01*
X136323428Y-123404428D01*
X136352000Y-123318714D01*
X136380571Y-123290142D01*
X133762000Y-125247333D02*
X133728666Y-125314000D01*
X133728666Y-125414000D01*
X133762000Y-125514000D01*
X133828666Y-125580666D01*
X133895333Y-125614000D01*
X134028666Y-125647333D01*
X134128666Y-125647333D01*
X134262000Y-125614000D01*
X134328666Y-125580666D01*
X134395333Y-125514000D01*
X134428666Y-125414000D01*
X134428666Y-125347333D01*
X134395333Y-125247333D01*
X134362000Y-125214000D01*
X134128666Y-125214000D01*
X134128666Y-125347333D01*
X134428666Y-124914000D02*
X133728666Y-124914000D01*
X134428666Y-124514000D01*
X133728666Y-124514000D01*
X134428666Y-124180666D02*
X133728666Y-124180666D01*
X133728666Y-124014000D01*
X133762000Y-123914000D01*
X133828666Y-123847333D01*
X133895333Y-123814000D01*
X134028666Y-123780666D01*
X134128666Y-123780666D01*
X134262000Y-123814000D01*
X134328666Y-123847333D01*
X134395333Y-123914000D01*
X134428666Y-124014000D01*
X134428666Y-124180666D01*
X121369142Y-125658428D02*
X121397714Y-125572714D01*
X121426285Y-125544142D01*
X121483428Y-125515571D01*
X121569142Y-125515571D01*
X121626285Y-125544142D01*
X121654857Y-125572714D01*
X121683428Y-125629857D01*
X121683428Y-125858428D01*
X121083428Y-125858428D01*
X121083428Y-125658428D01*
X121112000Y-125601285D01*
X121140571Y-125572714D01*
X121197714Y-125544142D01*
X121254857Y-125544142D01*
X121312000Y-125572714D01*
X121340571Y-125601285D01*
X121369142Y-125658428D01*
X121369142Y-125858428D01*
X121683428Y-124972714D02*
X121683428Y-125258428D01*
X121083428Y-125258428D01*
X121512000Y-124801285D02*
X121512000Y-124515571D01*
X121683428Y-124858428D02*
X121083428Y-124658428D01*
X121683428Y-124458428D01*
X121683428Y-124258428D02*
X121083428Y-124258428D01*
X121683428Y-123915571D01*
X121083428Y-123915571D01*
X121683428Y-123629857D02*
X121083428Y-123629857D01*
X121683428Y-123287000D02*
X121340571Y-123544142D01*
X121083428Y-123287000D02*
X121426285Y-123629857D01*
X124194857Y-125874285D02*
X124223428Y-125788571D01*
X124223428Y-125645714D01*
X124194857Y-125588571D01*
X124166285Y-125560000D01*
X124109142Y-125531428D01*
X124052000Y-125531428D01*
X123994857Y-125560000D01*
X123966285Y-125588571D01*
X123937714Y-125645714D01*
X123909142Y-125760000D01*
X123880571Y-125817142D01*
X123852000Y-125845714D01*
X123794857Y-125874285D01*
X123737714Y-125874285D01*
X123680571Y-125845714D01*
X123652000Y-125817142D01*
X123623428Y-125760000D01*
X123623428Y-125617142D01*
X123652000Y-125531428D01*
X123623428Y-125160000D02*
X123623428Y-125045714D01*
X123652000Y-124988571D01*
X123709142Y-124931428D01*
X123823428Y-124902857D01*
X124023428Y-124902857D01*
X124137714Y-124931428D01*
X124194857Y-124988571D01*
X124223428Y-125045714D01*
X124223428Y-125160000D01*
X124194857Y-125217142D01*
X124137714Y-125274285D01*
X124023428Y-125302857D01*
X123823428Y-125302857D01*
X123709142Y-125274285D01*
X123652000Y-125217142D01*
X123623428Y-125160000D01*
X123623428Y-124645714D02*
X124109142Y-124645714D01*
X124166285Y-124617142D01*
X124194857Y-124588571D01*
X124223428Y-124531428D01*
X124223428Y-124417142D01*
X124194857Y-124360000D01*
X124166285Y-124331428D01*
X124109142Y-124302857D01*
X123623428Y-124302857D01*
X124223428Y-124017142D02*
X123623428Y-124017142D01*
X124223428Y-123674285D01*
X123623428Y-123674285D01*
X124223428Y-123388571D02*
X123623428Y-123388571D01*
X123623428Y-123245714D01*
X123652000Y-123160000D01*
X123709142Y-123102857D01*
X123766285Y-123074285D01*
X123880571Y-123045714D01*
X123966285Y-123045714D01*
X124080571Y-123074285D01*
X124137714Y-123102857D01*
X124194857Y-123160000D01*
X124223428Y-123245714D01*
X124223428Y-123388571D01*
X126442000Y-125503666D02*
X126475333Y-125403666D01*
X126508666Y-125370333D01*
X126575333Y-125337000D01*
X126675333Y-125337000D01*
X126742000Y-125370333D01*
X126775333Y-125403666D01*
X126808666Y-125470333D01*
X126808666Y-125737000D01*
X126108666Y-125737000D01*
X126108666Y-125503666D01*
X126142000Y-125437000D01*
X126175333Y-125403666D01*
X126242000Y-125370333D01*
X126308666Y-125370333D01*
X126375333Y-125403666D01*
X126408666Y-125437000D01*
X126442000Y-125503666D01*
X126442000Y-125737000D01*
X126808666Y-124703666D02*
X126808666Y-125037000D01*
X126108666Y-125037000D01*
X126108666Y-124470333D02*
X126675333Y-124470333D01*
X126742000Y-124437000D01*
X126775333Y-124403666D01*
X126808666Y-124337000D01*
X126808666Y-124203666D01*
X126775333Y-124137000D01*
X126742000Y-124103666D01*
X126675333Y-124070333D01*
X126108666Y-124070333D01*
X126442000Y-123737000D02*
X126442000Y-123503666D01*
X126808666Y-123403666D02*
X126808666Y-123737000D01*
X126108666Y-123737000D01*
X126108666Y-123403666D01*
X131222000Y-125245666D02*
X131188666Y-125312333D01*
X131188666Y-125412333D01*
X131222000Y-125512333D01*
X131288666Y-125579000D01*
X131355333Y-125612333D01*
X131488666Y-125645666D01*
X131588666Y-125645666D01*
X131722000Y-125612333D01*
X131788666Y-125579000D01*
X131855333Y-125512333D01*
X131888666Y-125412333D01*
X131888666Y-125345666D01*
X131855333Y-125245666D01*
X131822000Y-125212333D01*
X131588666Y-125212333D01*
X131588666Y-125345666D01*
X131888666Y-124512333D02*
X131555333Y-124745666D01*
X131888666Y-124912333D02*
X131188666Y-124912333D01*
X131188666Y-124645666D01*
X131222000Y-124579000D01*
X131255333Y-124545666D01*
X131322000Y-124512333D01*
X131422000Y-124512333D01*
X131488666Y-124545666D01*
X131522000Y-124579000D01*
X131555333Y-124645666D01*
X131555333Y-124912333D01*
X131522000Y-124212333D02*
X131522000Y-123979000D01*
X131888666Y-123879000D02*
X131888666Y-124212333D01*
X131188666Y-124212333D01*
X131188666Y-123879000D01*
X131522000Y-123579000D02*
X131522000Y-123345666D01*
X131888666Y-123245666D02*
X131888666Y-123579000D01*
X131188666Y-123579000D01*
X131188666Y-123245666D01*
X131888666Y-122945666D02*
X131188666Y-122945666D01*
X131888666Y-122545666D01*
X131188666Y-122545666D01*
X129348666Y-125291000D02*
X129015333Y-125524333D01*
X129348666Y-125691000D02*
X128648666Y-125691000D01*
X128648666Y-125424333D01*
X128682000Y-125357666D01*
X128715333Y-125324333D01*
X128782000Y-125291000D01*
X128882000Y-125291000D01*
X128948666Y-125324333D01*
X128982000Y-125357666D01*
X129015333Y-125424333D01*
X129015333Y-125691000D01*
X128982000Y-124991000D02*
X128982000Y-124757666D01*
X129348666Y-124657666D02*
X129348666Y-124991000D01*
X128648666Y-124991000D01*
X128648666Y-124657666D01*
X129348666Y-124357666D02*
X128648666Y-124357666D01*
X128648666Y-124191000D01*
X128682000Y-124091000D01*
X128748666Y-124024333D01*
X128815333Y-123991000D01*
X128948666Y-123957666D01*
X129048666Y-123957666D01*
X129182000Y-123991000D01*
X129248666Y-124024333D01*
X129315333Y-124091000D01*
X129348666Y-124191000D01*
X129348666Y-124357666D01*
X90834333Y-96701666D02*
X90867666Y-96601666D01*
X90867666Y-96435000D01*
X90834333Y-96368333D01*
X90801000Y-96335000D01*
X90734333Y-96301666D01*
X90667666Y-96301666D01*
X90601000Y-96335000D01*
X90567666Y-96368333D01*
X90534333Y-96435000D01*
X90501000Y-96568333D01*
X90467666Y-96635000D01*
X90434333Y-96668333D01*
X90367666Y-96701666D01*
X90301000Y-96701666D01*
X90234333Y-96668333D01*
X90201000Y-96635000D01*
X90167666Y-96568333D01*
X90167666Y-96401666D01*
X90201000Y-96301666D01*
X90167666Y-96101666D02*
X90167666Y-95701666D01*
X90867666Y-95901666D02*
X90167666Y-95901666D01*
X90501000Y-95235000D02*
X90534333Y-95135000D01*
X90567666Y-95101666D01*
X90634333Y-95068333D01*
X90734333Y-95068333D01*
X90801000Y-95101666D01*
X90834333Y-95135000D01*
X90867666Y-95201666D01*
X90867666Y-95468333D01*
X90167666Y-95468333D01*
X90167666Y-95235000D01*
X90201000Y-95168333D01*
X90234333Y-95135000D01*
X90301000Y-95101666D01*
X90367666Y-95101666D01*
X90434333Y-95135000D01*
X90467666Y-95168333D01*
X90501000Y-95235000D01*
X90501000Y-95468333D01*
D11*
X90667666Y-99164666D02*
X90667666Y-98831333D01*
X90867666Y-99231333D02*
X90167666Y-98998000D01*
X90867666Y-98764666D01*
X90167666Y-98231333D02*
X90167666Y-98364666D01*
X90201000Y-98431333D01*
X90234333Y-98464666D01*
X90334333Y-98531333D01*
X90467666Y-98564666D01*
X90734333Y-98564666D01*
X90801000Y-98531333D01*
X90834333Y-98498000D01*
X90867666Y-98431333D01*
X90867666Y-98298000D01*
X90834333Y-98231333D01*
X90801000Y-98198000D01*
X90734333Y-98164666D01*
X90567666Y-98164666D01*
X90501000Y-98198000D01*
X90467666Y-98231333D01*
X90434333Y-98298000D01*
X90434333Y-98431333D01*
X90467666Y-98498000D01*
X90501000Y-98531333D01*
X90567666Y-98564666D01*
X90167666Y-97731333D02*
X90167666Y-97598000D01*
X90201000Y-97531333D01*
X90267666Y-97464666D01*
X90401000Y-97431333D01*
X90634333Y-97431333D01*
X90767666Y-97464666D01*
X90834333Y-97531333D01*
X90867666Y-97598000D01*
X90867666Y-97731333D01*
X90834333Y-97798000D01*
X90767666Y-97864666D01*
X90634333Y-97898000D01*
X90401000Y-97898000D01*
X90267666Y-97864666D01*
X90201000Y-97798000D01*
X90167666Y-97731333D01*
X90667666Y-101831666D02*
X90667666Y-101498333D01*
X90867666Y-101898333D02*
X90167666Y-101665000D01*
X90867666Y-101431666D01*
X90167666Y-100898333D02*
X90167666Y-101031666D01*
X90201000Y-101098333D01*
X90234333Y-101131666D01*
X90334333Y-101198333D01*
X90467666Y-101231666D01*
X90734333Y-101231666D01*
X90801000Y-101198333D01*
X90834333Y-101165000D01*
X90867666Y-101098333D01*
X90867666Y-100965000D01*
X90834333Y-100898333D01*
X90801000Y-100865000D01*
X90734333Y-100831666D01*
X90567666Y-100831666D01*
X90501000Y-100865000D01*
X90467666Y-100898333D01*
X90434333Y-100965000D01*
X90434333Y-101098333D01*
X90467666Y-101165000D01*
X90501000Y-101198333D01*
X90567666Y-101231666D01*
X90167666Y-100398333D02*
X90167666Y-100265000D01*
X90201000Y-100198333D01*
X90267666Y-100131666D01*
X90401000Y-100098333D01*
X90634333Y-100098333D01*
X90767666Y-100131666D01*
X90834333Y-100198333D01*
X90867666Y-100265000D01*
X90867666Y-100398333D01*
X90834333Y-100465000D01*
X90767666Y-100531666D01*
X90634333Y-100565000D01*
X90401000Y-100565000D01*
X90267666Y-100531666D01*
X90201000Y-100465000D01*
X90167666Y-100398333D01*
X90867666Y-104188333D02*
X90167666Y-104188333D01*
X90167666Y-104021666D01*
X90201000Y-103921666D01*
X90267666Y-103855000D01*
X90334333Y-103821666D01*
X90467666Y-103788333D01*
X90567666Y-103788333D01*
X90701000Y-103821666D01*
X90767666Y-103855000D01*
X90834333Y-103921666D01*
X90867666Y-104021666D01*
X90867666Y-104188333D01*
X90867666Y-103488333D02*
X90167666Y-103488333D01*
X90167666Y-102855000D02*
X90167666Y-102988333D01*
X90201000Y-103055000D01*
X90234333Y-103088333D01*
X90334333Y-103155000D01*
X90467666Y-103188333D01*
X90734333Y-103188333D01*
X90801000Y-103155000D01*
X90834333Y-103121666D01*
X90867666Y-103055000D01*
X90867666Y-102921666D01*
X90834333Y-102855000D01*
X90801000Y-102821666D01*
X90734333Y-102788333D01*
X90567666Y-102788333D01*
X90501000Y-102821666D01*
X90467666Y-102855000D01*
X90434333Y-102921666D01*
X90434333Y-103055000D01*
X90467666Y-103121666D01*
X90501000Y-103155000D01*
X90567666Y-103188333D01*
X90867666Y-106601333D02*
X90167666Y-106601333D01*
X90167666Y-106434666D01*
X90201000Y-106334666D01*
X90267666Y-106268000D01*
X90334333Y-106234666D01*
X90467666Y-106201333D01*
X90567666Y-106201333D01*
X90701000Y-106234666D01*
X90767666Y-106268000D01*
X90834333Y-106334666D01*
X90867666Y-106434666D01*
X90867666Y-106601333D01*
X90867666Y-105901333D02*
X90167666Y-105901333D01*
X90167666Y-105634666D02*
X90167666Y-105168000D01*
X90867666Y-105468000D01*
X90834333Y-109801666D02*
X90867666Y-109701666D01*
X90867666Y-109535000D01*
X90834333Y-109468333D01*
X90801000Y-109435000D01*
X90734333Y-109401666D01*
X90667666Y-109401666D01*
X90601000Y-109435000D01*
X90567666Y-109468333D01*
X90534333Y-109535000D01*
X90501000Y-109668333D01*
X90467666Y-109735000D01*
X90434333Y-109768333D01*
X90367666Y-109801666D01*
X90301000Y-109801666D01*
X90234333Y-109768333D01*
X90201000Y-109735000D01*
X90167666Y-109668333D01*
X90167666Y-109501666D01*
X90201000Y-109401666D01*
X90534333Y-108968333D02*
X90867666Y-108968333D01*
X90167666Y-109201666D02*
X90534333Y-108968333D01*
X90167666Y-108735000D01*
X90867666Y-108501666D02*
X90167666Y-108501666D01*
X90867666Y-108101666D01*
X90167666Y-108101666D01*
X90801000Y-107368333D02*
X90834333Y-107401666D01*
X90867666Y-107501666D01*
X90867666Y-107568333D01*
X90834333Y-107668333D01*
X90767666Y-107735000D01*
X90701000Y-107768333D01*
X90567666Y-107801666D01*
X90467666Y-107801666D01*
X90334333Y-107768333D01*
X90267666Y-107735000D01*
X90201000Y-107668333D01*
X90167666Y-107568333D01*
X90167666Y-107501666D01*
X90201000Y-107401666D01*
X90234333Y-107368333D01*
X90834333Y-112295666D02*
X90867666Y-112195666D01*
X90867666Y-112029000D01*
X90834333Y-111962333D01*
X90801000Y-111929000D01*
X90734333Y-111895666D01*
X90667666Y-111895666D01*
X90601000Y-111929000D01*
X90567666Y-111962333D01*
X90534333Y-112029000D01*
X90501000Y-112162333D01*
X90467666Y-112229000D01*
X90434333Y-112262333D01*
X90367666Y-112295666D01*
X90301000Y-112295666D01*
X90234333Y-112262333D01*
X90201000Y-112229000D01*
X90167666Y-112162333D01*
X90167666Y-111995666D01*
X90201000Y-111895666D01*
X90867666Y-111595666D02*
X90167666Y-111595666D01*
X90867666Y-111195666D01*
X90167666Y-111195666D01*
X90867666Y-110862333D02*
X90167666Y-110862333D01*
X90167666Y-110695666D01*
X90201000Y-110595666D01*
X90267666Y-110529000D01*
X90334333Y-110495666D01*
X90467666Y-110462333D01*
X90567666Y-110462333D01*
X90701000Y-110495666D01*
X90767666Y-110529000D01*
X90834333Y-110595666D01*
X90867666Y-110695666D01*
X90867666Y-110862333D01*
X90167666Y-114725333D02*
X90867666Y-114492000D01*
X90167666Y-114258666D01*
X90801000Y-113625333D02*
X90834333Y-113658666D01*
X90867666Y-113758666D01*
X90867666Y-113825333D01*
X90834333Y-113925333D01*
X90767666Y-113992000D01*
X90701000Y-114025333D01*
X90567666Y-114058666D01*
X90467666Y-114058666D01*
X90334333Y-114025333D01*
X90267666Y-113992000D01*
X90201000Y-113925333D01*
X90167666Y-113825333D01*
X90167666Y-113758666D01*
X90201000Y-113658666D01*
X90234333Y-113625333D01*
X90801000Y-112925333D02*
X90834333Y-112958666D01*
X90867666Y-113058666D01*
X90867666Y-113125333D01*
X90834333Y-113225333D01*
X90767666Y-113292000D01*
X90701000Y-113325333D01*
X90567666Y-113358666D01*
X90467666Y-113358666D01*
X90334333Y-113325333D01*
X90267666Y-113292000D01*
X90201000Y-113225333D01*
X90167666Y-113125333D01*
X90167666Y-113058666D01*
X90201000Y-112958666D01*
X90234333Y-112925333D01*
X97059000Y-114325333D02*
X97025666Y-114392000D01*
X97025666Y-114492000D01*
X97059000Y-114592000D01*
X97125666Y-114658666D01*
X97192333Y-114692000D01*
X97325666Y-114725333D01*
X97425666Y-114725333D01*
X97559000Y-114692000D01*
X97625666Y-114658666D01*
X97692333Y-114592000D01*
X97725666Y-114492000D01*
X97725666Y-114425333D01*
X97692333Y-114325333D01*
X97659000Y-114292000D01*
X97425666Y-114292000D01*
X97425666Y-114425333D01*
X97725666Y-113992000D02*
X97025666Y-113992000D01*
X97725666Y-113592000D01*
X97025666Y-113592000D01*
X97725666Y-113258666D02*
X97025666Y-113258666D01*
X97025666Y-113092000D01*
X97059000Y-112992000D01*
X97125666Y-112925333D01*
X97192333Y-112892000D01*
X97325666Y-112858666D01*
X97425666Y-112858666D01*
X97559000Y-112892000D01*
X97625666Y-112925333D01*
X97692333Y-112992000D01*
X97725666Y-113092000D01*
X97725666Y-113258666D01*
X97525666Y-112264666D02*
X97525666Y-111931333D01*
X97725666Y-112331333D02*
X97025666Y-112098000D01*
X97725666Y-111864666D01*
X97725666Y-111631333D02*
X97025666Y-111631333D01*
X97525666Y-111398000D01*
X97025666Y-111164666D01*
X97725666Y-111164666D01*
X97025666Y-110831333D02*
X97592333Y-110831333D01*
X97659000Y-110798000D01*
X97692333Y-110764666D01*
X97725666Y-110698000D01*
X97725666Y-110564666D01*
X97692333Y-110498000D01*
X97659000Y-110464666D01*
X97592333Y-110431333D01*
X97025666Y-110431333D01*
X97025666Y-110164666D02*
X97725666Y-109698000D01*
X97025666Y-109698000D02*
X97725666Y-110164666D01*
X97025666Y-109081000D02*
X97725666Y-108847666D01*
X97025666Y-108614333D01*
X97725666Y-108381000D02*
X97025666Y-108381000D01*
X97725666Y-108047666D02*
X97025666Y-108047666D01*
X97025666Y-107881000D01*
X97059000Y-107781000D01*
X97125666Y-107714333D01*
X97192333Y-107681000D01*
X97325666Y-107647666D01*
X97425666Y-107647666D01*
X97559000Y-107681000D01*
X97625666Y-107714333D01*
X97692333Y-107781000D01*
X97725666Y-107881000D01*
X97725666Y-108047666D01*
X96742500Y-107072000D02*
X96742500Y-106405333D01*
X97025666Y-106972000D02*
X97025666Y-106505333D01*
X97725666Y-106972000D01*
X97725666Y-106505333D01*
X96742500Y-106405333D02*
X96742500Y-105805333D01*
X97525666Y-106272000D02*
X97525666Y-105938666D01*
X97725666Y-106338666D02*
X97025666Y-106105333D01*
X97725666Y-105872000D01*
X96742500Y-105805333D02*
X96742500Y-105272000D01*
X97025666Y-105738666D02*
X97025666Y-105338666D01*
X97725666Y-105538666D02*
X97025666Y-105538666D01*
X97725666Y-104328000D02*
X97025666Y-104328000D01*
X97525666Y-104094666D01*
X97025666Y-103861333D01*
X97725666Y-103861333D01*
X97025666Y-103394666D02*
X97025666Y-103261333D01*
X97059000Y-103194666D01*
X97125666Y-103128000D01*
X97259000Y-103094666D01*
X97492333Y-103094666D01*
X97625666Y-103128000D01*
X97692333Y-103194666D01*
X97725666Y-103261333D01*
X97725666Y-103394666D01*
X97692333Y-103461333D01*
X97625666Y-103528000D01*
X97492333Y-103561333D01*
X97259000Y-103561333D01*
X97125666Y-103528000D01*
X97059000Y-103461333D01*
X97025666Y-103394666D01*
X97725666Y-102794666D02*
X97025666Y-102794666D01*
X97025666Y-102628000D01*
X97059000Y-102528000D01*
X97125666Y-102461333D01*
X97192333Y-102428000D01*
X97325666Y-102394666D01*
X97425666Y-102394666D01*
X97559000Y-102428000D01*
X97625666Y-102461333D01*
X97692333Y-102528000D01*
X97725666Y-102628000D01*
X97725666Y-102794666D01*
X96742500Y-101471333D02*
X96742500Y-100871333D01*
X97359000Y-101071333D02*
X97359000Y-101304666D01*
X97725666Y-101304666D02*
X97025666Y-101304666D01*
X97025666Y-100971333D01*
X96742500Y-100871333D02*
X96742500Y-100204666D01*
X97092333Y-100738000D02*
X97059000Y-100704666D01*
X97025666Y-100638000D01*
X97025666Y-100471333D01*
X97059000Y-100404666D01*
X97092333Y-100371333D01*
X97159000Y-100338000D01*
X97225666Y-100338000D01*
X97325666Y-100371333D01*
X97725666Y-100771333D01*
X97725666Y-100338000D01*
X96742500Y-98931333D02*
X96742500Y-98331333D01*
X97359000Y-98531333D02*
X97359000Y-98764666D01*
X97725666Y-98764666D02*
X97025666Y-98764666D01*
X97025666Y-98431333D01*
X96742500Y-98331333D02*
X96742500Y-97664666D01*
X97725666Y-97798000D02*
X97725666Y-98198000D01*
X97725666Y-97998000D02*
X97025666Y-97998000D01*
X97125666Y-98064666D01*
X97192333Y-98131333D01*
X97225666Y-98198000D01*
X97725666Y-96624666D02*
X97025666Y-96624666D01*
X97525666Y-96391333D01*
X97025666Y-96158000D01*
X97725666Y-96158000D01*
X97525666Y-95858000D02*
X97525666Y-95524666D01*
X97725666Y-95924666D02*
X97025666Y-95691333D01*
X97725666Y-95458000D01*
X97025666Y-94924666D02*
X97025666Y-95058000D01*
X97059000Y-95124666D01*
X97092333Y-95158000D01*
X97192333Y-95224666D01*
X97325666Y-95258000D01*
X97592333Y-95258000D01*
X97659000Y-95224666D01*
X97692333Y-95191333D01*
X97725666Y-95124666D01*
X97725666Y-94991333D01*
X97692333Y-94924666D01*
X97659000Y-94891333D01*
X97592333Y-94858000D01*
X97425666Y-94858000D01*
X97359000Y-94891333D01*
X97325666Y-94924666D01*
X97292333Y-94991333D01*
X97292333Y-95124666D01*
X97325666Y-95191333D01*
X97359000Y-95224666D01*
X97425666Y-95258000D01*
D10*
X142811714Y-108640619D02*
X142859333Y-108593000D01*
X142954571Y-108545380D01*
X143192666Y-108545380D01*
X143287904Y-108593000D01*
X143335523Y-108640619D01*
X143383142Y-108735857D01*
X143383142Y-108831095D01*
X143335523Y-108973952D01*
X142764095Y-109545380D01*
X143383142Y-109545380D01*
X144002190Y-108545380D02*
X144097428Y-108545380D01*
X144192666Y-108593000D01*
X144240285Y-108640619D01*
X144287904Y-108735857D01*
X144335523Y-108926333D01*
X144335523Y-109164428D01*
X144287904Y-109354904D01*
X144240285Y-109450142D01*
X144192666Y-109497761D01*
X144097428Y-109545380D01*
X144002190Y-109545380D01*
X143906952Y-109497761D01*
X143859333Y-109450142D01*
X143811714Y-109354904D01*
X143764095Y-109164428D01*
X143764095Y-108926333D01*
X143811714Y-108735857D01*
X143859333Y-108640619D01*
X143906952Y-108593000D01*
X144002190Y-108545380D01*
X144716476Y-108640619D02*
X144764095Y-108593000D01*
X144859333Y-108545380D01*
X145097428Y-108545380D01*
X145192666Y-108593000D01*
X145240285Y-108640619D01*
X145287904Y-108735857D01*
X145287904Y-108831095D01*
X145240285Y-108973952D01*
X144668857Y-109545380D01*
X145287904Y-109545380D01*
X146240285Y-109545380D02*
X145668857Y-109545380D01*
X145954571Y-109545380D02*
X145954571Y-108545380D01*
X145859333Y-108688238D01*
X145764095Y-108783476D01*
X145668857Y-108831095D01*
X141136952Y-123421714D02*
X141136952Y-124088380D01*
X140708380Y-123421714D02*
X140708380Y-123945523D01*
X140756000Y-124040761D01*
X140851238Y-124088380D01*
X140994095Y-124088380D01*
X141089333Y-124040761D01*
X141136952Y-123993142D01*
X141613142Y-124088380D02*
X141613142Y-123088380D01*
X141613142Y-123469333D02*
X141708380Y-123421714D01*
X141898857Y-123421714D01*
X141994095Y-123469333D01*
X142041714Y-123516952D01*
X142089333Y-123612190D01*
X142089333Y-123897904D01*
X142041714Y-123993142D01*
X141994095Y-124040761D01*
X141898857Y-124088380D01*
X141708380Y-124088380D01*
X141613142Y-124040761D01*
X142660761Y-123516952D02*
X142565523Y-123469333D01*
X142517904Y-123421714D01*
X142470285Y-123326476D01*
X142470285Y-123278857D01*
X142517904Y-123183619D01*
X142565523Y-123136000D01*
X142660761Y-123088380D01*
X142851238Y-123088380D01*
X142946476Y-123136000D01*
X142994095Y-123183619D01*
X143041714Y-123278857D01*
X143041714Y-123326476D01*
X142994095Y-123421714D01*
X142946476Y-123469333D01*
X142851238Y-123516952D01*
X142660761Y-123516952D01*
X142565523Y-123564571D01*
X142517904Y-123612190D01*
X142470285Y-123707428D01*
X142470285Y-123897904D01*
X142517904Y-123993142D01*
X142565523Y-124040761D01*
X142660761Y-124088380D01*
X142851238Y-124088380D01*
X142946476Y-124040761D01*
X142994095Y-123993142D01*
X143041714Y-123897904D01*
X143041714Y-123707428D01*
X142994095Y-123612190D01*
X142946476Y-123564571D01*
X142851238Y-123516952D01*
X143613142Y-123516952D02*
X143517904Y-123469333D01*
X143470285Y-123421714D01*
X143422666Y-123326476D01*
X143422666Y-123278857D01*
X143470285Y-123183619D01*
X143517904Y-123136000D01*
X143613142Y-123088380D01*
X143803619Y-123088380D01*
X143898857Y-123136000D01*
X143946476Y-123183619D01*
X143994095Y-123278857D01*
X143994095Y-123326476D01*
X143946476Y-123421714D01*
X143898857Y-123469333D01*
X143803619Y-123516952D01*
X143613142Y-123516952D01*
X143517904Y-123564571D01*
X143470285Y-123612190D01*
X143422666Y-123707428D01*
X143422666Y-123897904D01*
X143470285Y-123993142D01*
X143517904Y-124040761D01*
X143613142Y-124088380D01*
X143803619Y-124088380D01*
X143898857Y-124040761D01*
X143946476Y-123993142D01*
X143994095Y-123897904D01*
X143994095Y-123707428D01*
X143946476Y-123612190D01*
X143898857Y-123564571D01*
X143803619Y-123516952D01*
X144613142Y-123088380D02*
X144708380Y-123088380D01*
X144803619Y-123136000D01*
X144851238Y-123183619D01*
X144898857Y-123278857D01*
X144946476Y-123469333D01*
X144946476Y-123707428D01*
X144898857Y-123897904D01*
X144851238Y-123993142D01*
X144803619Y-124040761D01*
X144708380Y-124088380D01*
X144613142Y-124088380D01*
X144517904Y-124040761D01*
X144470285Y-123993142D01*
X144422666Y-123897904D01*
X144375047Y-123707428D01*
X144375047Y-123469333D01*
X144422666Y-123278857D01*
X144470285Y-123183619D01*
X144517904Y-123136000D01*
X144613142Y-123088380D01*
X145803619Y-124088380D02*
X145803619Y-123088380D01*
X145803619Y-124040761D02*
X145708380Y-124088380D01*
X145517904Y-124088380D01*
X145422666Y-124040761D01*
X145375047Y-123993142D01*
X145327428Y-123897904D01*
X145327428Y-123612190D01*
X145375047Y-123516952D01*
X145422666Y-123469333D01*
X145517904Y-123421714D01*
X145708380Y-123421714D01*
X145803619Y-123469333D01*
X141922666Y-125738380D02*
X141922666Y-125071714D01*
X141922666Y-124738380D02*
X141875047Y-124786000D01*
X141922666Y-124833619D01*
X141970285Y-124786000D01*
X141922666Y-124738380D01*
X141922666Y-124833619D01*
X142398857Y-125738380D02*
X142398857Y-124738380D01*
X142494095Y-125357428D02*
X142779809Y-125738380D01*
X142779809Y-125071714D02*
X142398857Y-125452666D01*
X143398857Y-124738380D02*
X143494095Y-124738380D01*
X143589333Y-124786000D01*
X143636952Y-124833619D01*
X143684571Y-124928857D01*
X143732190Y-125119333D01*
X143732190Y-125357428D01*
X143684571Y-125547904D01*
X143636952Y-125643142D01*
X143589333Y-125690761D01*
X143494095Y-125738380D01*
X143398857Y-125738380D01*
X143303619Y-125690761D01*
X143256000Y-125643142D01*
X143208380Y-125547904D01*
X143160761Y-125357428D01*
X143160761Y-125119333D01*
X143208380Y-124928857D01*
X143256000Y-124833619D01*
X143303619Y-124786000D01*
X143398857Y-124738380D01*
X144160761Y-125071714D02*
X144160761Y-125738380D01*
X144160761Y-125166952D02*
X144208380Y-125119333D01*
X144303619Y-125071714D01*
X144446476Y-125071714D01*
X144541714Y-125119333D01*
X144589333Y-125214571D01*
X144589333Y-125738380D01*
X140446476Y-127388380D02*
X140113142Y-126912190D01*
X139875047Y-127388380D02*
X139875047Y-126388380D01*
X140256000Y-126388380D01*
X140351238Y-126436000D01*
X140398857Y-126483619D01*
X140446476Y-126578857D01*
X140446476Y-126721714D01*
X140398857Y-126816952D01*
X140351238Y-126864571D01*
X140256000Y-126912190D01*
X139875047Y-126912190D01*
X140875047Y-127388380D02*
X140875047Y-126388380D01*
X141208380Y-127102666D01*
X141541714Y-126388380D01*
X141541714Y-127388380D01*
X142017904Y-127007428D02*
X142779809Y-127007428D01*
X143113142Y-126388380D02*
X143684571Y-126388380D01*
X143398857Y-127388380D02*
X143398857Y-126388380D01*
X144398857Y-127340761D02*
X144303619Y-127388380D01*
X144113142Y-127388380D01*
X144017904Y-127340761D01*
X143970285Y-127245523D01*
X143970285Y-126864571D01*
X144017904Y-126769333D01*
X144113142Y-126721714D01*
X144303619Y-126721714D01*
X144398857Y-126769333D01*
X144446476Y-126864571D01*
X144446476Y-126959809D01*
X143970285Y-127055047D01*
X145303619Y-127388380D02*
X145303619Y-126864571D01*
X145256000Y-126769333D01*
X145160761Y-126721714D01*
X144970285Y-126721714D01*
X144875047Y-126769333D01*
X145303619Y-127340761D02*
X145208380Y-127388380D01*
X144970285Y-127388380D01*
X144875047Y-127340761D01*
X144827428Y-127245523D01*
X144827428Y-127150285D01*
X144875047Y-127055047D01*
X144970285Y-127007428D01*
X145208380Y-127007428D01*
X145303619Y-126959809D01*
X145779809Y-127388380D02*
X145779809Y-126721714D01*
X145779809Y-126816952D02*
X145827428Y-126769333D01*
X145922666Y-126721714D01*
X146065523Y-126721714D01*
X146160761Y-126769333D01*
X146208380Y-126864571D01*
X146208380Y-127388380D01*
X146208380Y-126864571D02*
X146256000Y-126769333D01*
X146351238Y-126721714D01*
X146494095Y-126721714D01*
X146589333Y-126769333D01*
X146636952Y-126864571D01*
X146636952Y-127388380D01*
X141375047Y-128371714D02*
X141898857Y-128371714D01*
X141375047Y-129038380D01*
X141898857Y-129038380D01*
X142470285Y-128038380D02*
X142565523Y-128038380D01*
X142660761Y-128086000D01*
X142708380Y-128133619D01*
X142756000Y-128228857D01*
X142803619Y-128419333D01*
X142803619Y-128657428D01*
X142756000Y-128847904D01*
X142708380Y-128943142D01*
X142660761Y-128990761D01*
X142565523Y-129038380D01*
X142470285Y-129038380D01*
X142375047Y-128990761D01*
X142327428Y-128943142D01*
X142279809Y-128847904D01*
X142232190Y-128657428D01*
X142232190Y-128419333D01*
X142279809Y-128228857D01*
X142327428Y-128133619D01*
X142375047Y-128086000D01*
X142470285Y-128038380D01*
X143422666Y-128038380D02*
X143517904Y-128038380D01*
X143613142Y-128086000D01*
X143660761Y-128133619D01*
X143708380Y-128228857D01*
X143756000Y-128419333D01*
X143756000Y-128657428D01*
X143708380Y-128847904D01*
X143660761Y-128943142D01*
X143613142Y-128990761D01*
X143517904Y-129038380D01*
X143422666Y-129038380D01*
X143327428Y-128990761D01*
X143279809Y-128943142D01*
X143232190Y-128847904D01*
X143184571Y-128657428D01*
X143184571Y-128419333D01*
X143232190Y-128228857D01*
X143279809Y-128133619D01*
X143327428Y-128086000D01*
X143422666Y-128038380D01*
X144184571Y-129038380D02*
X144184571Y-128371714D01*
X144184571Y-128466952D02*
X144232190Y-128419333D01*
X144327428Y-128371714D01*
X144470285Y-128371714D01*
X144565523Y-128419333D01*
X144613142Y-128514571D01*
X144613142Y-129038380D01*
X144613142Y-128514571D02*
X144660761Y-128419333D01*
X144756000Y-128371714D01*
X144898857Y-128371714D01*
X144994095Y-128419333D01*
X145041714Y-128514571D01*
X145041714Y-129038380D01*
X129866190Y-111620952D02*
X129866190Y-109120952D01*
X130247142Y-109120952D01*
X130342380Y-109240000D01*
X130390000Y-109359047D01*
X130437619Y-109597142D01*
X130437619Y-109954285D01*
X130390000Y-110192380D01*
X130342380Y-110311428D01*
X130247142Y-110430476D01*
X129866190Y-110430476D01*
X130866190Y-111620952D02*
X130866190Y-109120952D01*
X131199523Y-110906666D01*
X131532857Y-109120952D01*
X131532857Y-111620952D01*
X132009047Y-111620952D02*
X132009047Y-109120952D01*
X132247142Y-109120952D01*
X132390000Y-109240000D01*
X132485238Y-109478095D01*
X132532857Y-109716190D01*
X132580476Y-110192380D01*
X132580476Y-110549523D01*
X132532857Y-111025714D01*
X132485238Y-111263809D01*
X132390000Y-111501904D01*
X132247142Y-111620952D01*
X132009047Y-111620952D01*
X133151904Y-110192380D02*
X133056666Y-110073333D01*
X133009047Y-109954285D01*
X132961428Y-109716190D01*
X132961428Y-109597142D01*
X133009047Y-109359047D01*
X133056666Y-109240000D01*
X133151904Y-109120952D01*
X133342380Y-109120952D01*
X133437619Y-109240000D01*
X133485238Y-109359047D01*
X133532857Y-109597142D01*
X133532857Y-109716190D01*
X133485238Y-109954285D01*
X133437619Y-110073333D01*
X133342380Y-110192380D01*
X133151904Y-110192380D01*
X133056666Y-110311428D01*
X133009047Y-110430476D01*
X132961428Y-110668571D01*
X132961428Y-111144761D01*
X133009047Y-111382857D01*
X133056666Y-111501904D01*
X133151904Y-111620952D01*
X133342380Y-111620952D01*
X133437619Y-111501904D01*
X133485238Y-111382857D01*
X133532857Y-111144761D01*
X133532857Y-110668571D01*
X133485238Y-110430476D01*
X133437619Y-110311428D01*
X133342380Y-110192380D01*
X134437619Y-109120952D02*
X133961428Y-109120952D01*
X133913809Y-110311428D01*
X133961428Y-110192380D01*
X134056666Y-110073333D01*
X134294761Y-110073333D01*
X134390000Y-110192380D01*
X134437619Y-110311428D01*
X134485238Y-110549523D01*
X134485238Y-111144761D01*
X134437619Y-111382857D01*
X134390000Y-111501904D01*
X134294761Y-111620952D01*
X134056666Y-111620952D01*
X133961428Y-111501904D01*
X133913809Y-111382857D01*
X136247142Y-111382857D02*
X136199523Y-111501904D01*
X136056666Y-111620952D01*
X135961428Y-111620952D01*
X135818571Y-111501904D01*
X135723333Y-111263809D01*
X135675714Y-111025714D01*
X135628095Y-110549523D01*
X135628095Y-110192380D01*
X135675714Y-109716190D01*
X135723333Y-109478095D01*
X135818571Y-109240000D01*
X135961428Y-109120952D01*
X136056666Y-109120952D01*
X136199523Y-109240000D01*
X136247142Y-109359047D01*
X136818571Y-111620952D02*
X136723333Y-111501904D01*
X136675714Y-111382857D01*
X136628095Y-111144761D01*
X136628095Y-110430476D01*
X136675714Y-110192380D01*
X136723333Y-110073333D01*
X136818571Y-109954285D01*
X136961428Y-109954285D01*
X137056666Y-110073333D01*
X137104285Y-110192380D01*
X137151904Y-110430476D01*
X137151904Y-111144761D01*
X137104285Y-111382857D01*
X137056666Y-111501904D01*
X136961428Y-111620952D01*
X136818571Y-111620952D01*
X137723333Y-111620952D02*
X137628095Y-111501904D01*
X137580476Y-111263809D01*
X137580476Y-109120952D01*
X138247142Y-111620952D02*
X138151904Y-111501904D01*
X138104285Y-111382857D01*
X138056666Y-111144761D01*
X138056666Y-110430476D01*
X138104285Y-110192380D01*
X138151904Y-110073333D01*
X138247142Y-109954285D01*
X138390000Y-109954285D01*
X138485238Y-110073333D01*
X138532857Y-110192380D01*
X138580476Y-110430476D01*
X138580476Y-111144761D01*
X138532857Y-111382857D01*
X138485238Y-111501904D01*
X138390000Y-111620952D01*
X138247142Y-111620952D01*
X139009047Y-111620952D02*
X139009047Y-109954285D01*
X139009047Y-110430476D02*
X139056666Y-110192380D01*
X139104285Y-110073333D01*
X139199523Y-109954285D01*
X139294761Y-109954285D01*
X139580476Y-110906666D02*
X140056666Y-110906666D01*
X139485238Y-111620952D02*
X139818571Y-109120952D01*
X140151904Y-111620952D01*
X141056666Y-111382857D02*
X141009047Y-111501904D01*
X140866190Y-111620952D01*
X140770952Y-111620952D01*
X140628095Y-111501904D01*
X140532857Y-111263809D01*
X140485238Y-111025714D01*
X140437619Y-110549523D01*
X140437619Y-110192380D01*
X140485238Y-109716190D01*
X140532857Y-109478095D01*
X140628095Y-109240000D01*
X140770952Y-109120952D01*
X140866190Y-109120952D01*
X141009047Y-109240000D01*
X141056666Y-109359047D01*
X141485238Y-110311428D02*
X141818571Y-110311428D01*
X141961428Y-111620952D02*
X141485238Y-111620952D01*
X141485238Y-109120952D01*
X141961428Y-109120952D01*
D12*
%TO.C,R11*%
X112426000Y-128382000D02*
X110586000Y-128382000D01*
X110586000Y-128382000D02*
X110586000Y-132222000D01*
X110586000Y-132222000D02*
X112426000Y-132222000D01*
X112426000Y-132222000D02*
X112426000Y-128382000D01*
X111506000Y-127432000D02*
X111506000Y-128382000D01*
X111506000Y-133172000D02*
X111506000Y-132222000D01*
%TO.C,R1*%
X121300000Y-106584000D02*
X121300000Y-104744000D01*
X121300000Y-104744000D02*
X117460000Y-104744000D01*
X117460000Y-104744000D02*
X117460000Y-106584000D01*
X117460000Y-106584000D02*
X121300000Y-106584000D01*
X122250000Y-105664000D02*
X121300000Y-105664000D01*
X116510000Y-105664000D02*
X117460000Y-105664000D01*
%TO.C,R2*%
X128636000Y-94584000D02*
X128636000Y-96424000D01*
X128636000Y-96424000D02*
X132476000Y-96424000D01*
X132476000Y-96424000D02*
X132476000Y-94584000D01*
X132476000Y-94584000D02*
X128636000Y-94584000D01*
X127686000Y-95504000D02*
X128636000Y-95504000D01*
X133426000Y-95504000D02*
X132476000Y-95504000D01*
%TO.C,R3*%
X139558000Y-94584000D02*
X139558000Y-96424000D01*
X139558000Y-96424000D02*
X143398000Y-96424000D01*
X143398000Y-96424000D02*
X143398000Y-94584000D01*
X143398000Y-94584000D02*
X139558000Y-94584000D01*
X138608000Y-95504000D02*
X139558000Y-95504000D01*
X144348000Y-95504000D02*
X143398000Y-95504000D01*
%TO.C,R4*%
X121300000Y-101504000D02*
X121300000Y-99664000D01*
X121300000Y-99664000D02*
X117460000Y-99664000D01*
X117460000Y-99664000D02*
X117460000Y-101504000D01*
X117460000Y-101504000D02*
X121300000Y-101504000D01*
X122250000Y-100584000D02*
X121300000Y-100584000D01*
X116510000Y-100584000D02*
X117460000Y-100584000D01*
%TO.C,R5*%
X128636000Y-99664000D02*
X128636000Y-101504000D01*
X128636000Y-101504000D02*
X132476000Y-101504000D01*
X132476000Y-101504000D02*
X132476000Y-99664000D01*
X132476000Y-99664000D02*
X128636000Y-99664000D01*
X127686000Y-100584000D02*
X128636000Y-100584000D01*
X133426000Y-100584000D02*
X132476000Y-100584000D01*
%TO.C,R6*%
X139558000Y-99664000D02*
X139558000Y-101504000D01*
X139558000Y-101504000D02*
X143398000Y-101504000D01*
X143398000Y-101504000D02*
X143398000Y-99664000D01*
X143398000Y-99664000D02*
X139558000Y-99664000D01*
X138608000Y-100584000D02*
X139558000Y-100584000D01*
X144348000Y-100584000D02*
X143398000Y-100584000D01*
%TO.C,R7*%
X121300000Y-96424000D02*
X121300000Y-94584000D01*
X121300000Y-94584000D02*
X117460000Y-94584000D01*
X117460000Y-94584000D02*
X117460000Y-96424000D01*
X117460000Y-96424000D02*
X121300000Y-96424000D01*
X122250000Y-95504000D02*
X121300000Y-95504000D01*
X116510000Y-95504000D02*
X117460000Y-95504000D01*
%TO.C,R8*%
X128636000Y-104744000D02*
X128636000Y-106584000D01*
X128636000Y-106584000D02*
X132476000Y-106584000D01*
X132476000Y-106584000D02*
X132476000Y-104744000D01*
X132476000Y-104744000D02*
X128636000Y-104744000D01*
X127686000Y-105664000D02*
X128636000Y-105664000D01*
X133426000Y-105664000D02*
X132476000Y-105664000D01*
%TO.C,R9*%
X139558000Y-104744000D02*
X139558000Y-106584000D01*
X139558000Y-106584000D02*
X143398000Y-106584000D01*
X143398000Y-106584000D02*
X143398000Y-104744000D01*
X143398000Y-104744000D02*
X139558000Y-104744000D01*
X138608000Y-105664000D02*
X139558000Y-105664000D01*
X144348000Y-105664000D02*
X143398000Y-105664000D01*
%TO.C,R10*%
X117506000Y-128382000D02*
X115666000Y-128382000D01*
X115666000Y-128382000D02*
X115666000Y-132222000D01*
X115666000Y-132222000D02*
X117506000Y-132222000D01*
X117506000Y-132222000D02*
X117506000Y-128382000D01*
X116586000Y-127432000D02*
X116586000Y-128382000D01*
X116586000Y-133172000D02*
X116586000Y-132222000D01*
%TO.C,R12*%
X107346000Y-128382000D02*
X105506000Y-128382000D01*
X105506000Y-128382000D02*
X105506000Y-132222000D01*
X105506000Y-132222000D02*
X107346000Y-132222000D01*
X107346000Y-132222000D02*
X107346000Y-128382000D01*
X106426000Y-127432000D02*
X106426000Y-128382000D01*
X106426000Y-133172000D02*
X106426000Y-132222000D01*
%TO.C,R13*%
X100172000Y-132222000D02*
X102012000Y-132222000D01*
X102012000Y-132222000D02*
X102012000Y-128382000D01*
X102012000Y-128382000D02*
X100172000Y-128382000D01*
X100172000Y-128382000D02*
X100172000Y-132222000D01*
X101092000Y-133172000D02*
X101092000Y-132222000D01*
X101092000Y-127432000D02*
X101092000Y-128382000D01*
%TO.C,C1*%
X104036000Y-120296000D02*
X111276000Y-120296000D01*
X104036000Y-123036000D02*
X111276000Y-123036000D01*
X104036000Y-120296000D02*
X104036000Y-123036000D01*
X111276000Y-120296000D02*
X111276000Y-123036000D01*
%TO.C,C2*%
X133806000Y-117856000D02*
G75*
G03*
X133806000Y-117856000I-3270000J0D01*
G01*
X130536000Y-114626000D02*
X130536000Y-121086000D01*
X130576000Y-114626000D02*
X130576000Y-121086000D01*
X130616000Y-114626000D02*
X130616000Y-121086000D01*
X130656000Y-114628000D02*
X130656000Y-121084000D01*
X130696000Y-114629000D02*
X130696000Y-121083000D01*
X130736000Y-114632000D02*
X130736000Y-121080000D01*
X130776000Y-114634000D02*
X130776000Y-116816000D01*
X130776000Y-118896000D02*
X130776000Y-121078000D01*
X130816000Y-114638000D02*
X130816000Y-116816000D01*
X130816000Y-118896000D02*
X130816000Y-121074000D01*
X130856000Y-114641000D02*
X130856000Y-116816000D01*
X130856000Y-118896000D02*
X130856000Y-121071000D01*
X130896000Y-114645000D02*
X130896000Y-116816000D01*
X130896000Y-118896000D02*
X130896000Y-121067000D01*
X130936000Y-114650000D02*
X130936000Y-116816000D01*
X130936000Y-118896000D02*
X130936000Y-121062000D01*
X130976000Y-114655000D02*
X130976000Y-116816000D01*
X130976000Y-118896000D02*
X130976000Y-121057000D01*
X131016000Y-114661000D02*
X131016000Y-116816000D01*
X131016000Y-118896000D02*
X131016000Y-121051000D01*
X131056000Y-114667000D02*
X131056000Y-116816000D01*
X131056000Y-118896000D02*
X131056000Y-121045000D01*
X131096000Y-114674000D02*
X131096000Y-116816000D01*
X131096000Y-118896000D02*
X131096000Y-121038000D01*
X131136000Y-114681000D02*
X131136000Y-116816000D01*
X131136000Y-118896000D02*
X131136000Y-121031000D01*
X131176000Y-114689000D02*
X131176000Y-116816000D01*
X131176000Y-118896000D02*
X131176000Y-121023000D01*
X131216000Y-114697000D02*
X131216000Y-116816000D01*
X131216000Y-118896000D02*
X131216000Y-121015000D01*
X131257000Y-114706000D02*
X131257000Y-116816000D01*
X131257000Y-118896000D02*
X131257000Y-121006000D01*
X131297000Y-114715000D02*
X131297000Y-116816000D01*
X131297000Y-118896000D02*
X131297000Y-120997000D01*
X131337000Y-114725000D02*
X131337000Y-116816000D01*
X131337000Y-118896000D02*
X131337000Y-120987000D01*
X131377000Y-114735000D02*
X131377000Y-116816000D01*
X131377000Y-118896000D02*
X131377000Y-120977000D01*
X131417000Y-114746000D02*
X131417000Y-116816000D01*
X131417000Y-118896000D02*
X131417000Y-120966000D01*
X131457000Y-114758000D02*
X131457000Y-116816000D01*
X131457000Y-118896000D02*
X131457000Y-120954000D01*
X131497000Y-114770000D02*
X131497000Y-116816000D01*
X131497000Y-118896000D02*
X131497000Y-120942000D01*
X131537000Y-114782000D02*
X131537000Y-116816000D01*
X131537000Y-118896000D02*
X131537000Y-120930000D01*
X131577000Y-114795000D02*
X131577000Y-116816000D01*
X131577000Y-118896000D02*
X131577000Y-120917000D01*
X131617000Y-114809000D02*
X131617000Y-116816000D01*
X131617000Y-118896000D02*
X131617000Y-120903000D01*
X131657000Y-114823000D02*
X131657000Y-116816000D01*
X131657000Y-118896000D02*
X131657000Y-120889000D01*
X131697000Y-114838000D02*
X131697000Y-116816000D01*
X131697000Y-118896000D02*
X131697000Y-120874000D01*
X131737000Y-114854000D02*
X131737000Y-116816000D01*
X131737000Y-118896000D02*
X131737000Y-120858000D01*
X131777000Y-114870000D02*
X131777000Y-116816000D01*
X131777000Y-118896000D02*
X131777000Y-120842000D01*
X131817000Y-114886000D02*
X131817000Y-116816000D01*
X131817000Y-118896000D02*
X131817000Y-120826000D01*
X131857000Y-114904000D02*
X131857000Y-116816000D01*
X131857000Y-118896000D02*
X131857000Y-120808000D01*
X131897000Y-114922000D02*
X131897000Y-116816000D01*
X131897000Y-118896000D02*
X131897000Y-120790000D01*
X131937000Y-114940000D02*
X131937000Y-116816000D01*
X131937000Y-118896000D02*
X131937000Y-120772000D01*
X131977000Y-114960000D02*
X131977000Y-116816000D01*
X131977000Y-118896000D02*
X131977000Y-120752000D01*
X132017000Y-114980000D02*
X132017000Y-116816000D01*
X132017000Y-118896000D02*
X132017000Y-120732000D01*
X132057000Y-115000000D02*
X132057000Y-116816000D01*
X132057000Y-118896000D02*
X132057000Y-120712000D01*
X132097000Y-115022000D02*
X132097000Y-116816000D01*
X132097000Y-118896000D02*
X132097000Y-120690000D01*
X132137000Y-115044000D02*
X132137000Y-116816000D01*
X132137000Y-118896000D02*
X132137000Y-120668000D01*
X132177000Y-115066000D02*
X132177000Y-116816000D01*
X132177000Y-118896000D02*
X132177000Y-120646000D01*
X132217000Y-115090000D02*
X132217000Y-116816000D01*
X132217000Y-118896000D02*
X132217000Y-120622000D01*
X132257000Y-115114000D02*
X132257000Y-116816000D01*
X132257000Y-118896000D02*
X132257000Y-120598000D01*
X132297000Y-115140000D02*
X132297000Y-116816000D01*
X132297000Y-118896000D02*
X132297000Y-120572000D01*
X132337000Y-115166000D02*
X132337000Y-116816000D01*
X132337000Y-118896000D02*
X132337000Y-120546000D01*
X132377000Y-115192000D02*
X132377000Y-116816000D01*
X132377000Y-118896000D02*
X132377000Y-120520000D01*
X132417000Y-115220000D02*
X132417000Y-116816000D01*
X132417000Y-118896000D02*
X132417000Y-120492000D01*
X132457000Y-115249000D02*
X132457000Y-116816000D01*
X132457000Y-118896000D02*
X132457000Y-120463000D01*
X132497000Y-115278000D02*
X132497000Y-116816000D01*
X132497000Y-118896000D02*
X132497000Y-120434000D01*
X132537000Y-115308000D02*
X132537000Y-116816000D01*
X132537000Y-118896000D02*
X132537000Y-120404000D01*
X132577000Y-115340000D02*
X132577000Y-116816000D01*
X132577000Y-118896000D02*
X132577000Y-120372000D01*
X132617000Y-115372000D02*
X132617000Y-116816000D01*
X132617000Y-118896000D02*
X132617000Y-120340000D01*
X132657000Y-115406000D02*
X132657000Y-116816000D01*
X132657000Y-118896000D02*
X132657000Y-120306000D01*
X132697000Y-115440000D02*
X132697000Y-116816000D01*
X132697000Y-118896000D02*
X132697000Y-120272000D01*
X132737000Y-115476000D02*
X132737000Y-116816000D01*
X132737000Y-118896000D02*
X132737000Y-120236000D01*
X132777000Y-115513000D02*
X132777000Y-116816000D01*
X132777000Y-118896000D02*
X132777000Y-120199000D01*
X132817000Y-115551000D02*
X132817000Y-116816000D01*
X132817000Y-118896000D02*
X132817000Y-120161000D01*
X132857000Y-115591000D02*
X132857000Y-120121000D01*
X132897000Y-115632000D02*
X132897000Y-120080000D01*
X132937000Y-115674000D02*
X132937000Y-120038000D01*
X132977000Y-115719000D02*
X132977000Y-119993000D01*
X133017000Y-115764000D02*
X133017000Y-119948000D01*
X133057000Y-115812000D02*
X133057000Y-119900000D01*
X133097000Y-115861000D02*
X133097000Y-119851000D01*
X133137000Y-115912000D02*
X133137000Y-119800000D01*
X133177000Y-115966000D02*
X133177000Y-119746000D01*
X133217000Y-116022000D02*
X133217000Y-119690000D01*
X133257000Y-116080000D02*
X133257000Y-119632000D01*
X133297000Y-116142000D02*
X133297000Y-119570000D01*
X133337000Y-116206000D02*
X133337000Y-119506000D01*
X133377000Y-116275000D02*
X133377000Y-119437000D01*
X133417000Y-116347000D02*
X133417000Y-119365000D01*
X133457000Y-116424000D02*
X133457000Y-119288000D01*
X133497000Y-116506000D02*
X133497000Y-119206000D01*
X133537000Y-116594000D02*
X133537000Y-119118000D01*
X133577000Y-116691000D02*
X133577000Y-119021000D01*
X133617000Y-116797000D02*
X133617000Y-118915000D01*
X133657000Y-116916000D02*
X133657000Y-118796000D01*
X133697000Y-117054000D02*
X133697000Y-118658000D01*
X133737000Y-117223000D02*
X133737000Y-118489000D01*
X133777000Y-117454000D02*
X133777000Y-118258000D01*
X127035759Y-116017000D02*
X127665759Y-116017000D01*
X127350759Y-115702000D02*
X127350759Y-116332000D01*
%TO.C,C3*%
X92044759Y-120020000D02*
X92044759Y-120650000D01*
X91729759Y-120335000D02*
X92359759Y-120335000D01*
X98471000Y-121772000D02*
X98471000Y-122576000D01*
X98431000Y-121541000D02*
X98431000Y-122807000D01*
X98391000Y-121372000D02*
X98391000Y-122976000D01*
X98351000Y-121234000D02*
X98351000Y-123114000D01*
X98311000Y-121115000D02*
X98311000Y-123233000D01*
X98271000Y-121009000D02*
X98271000Y-123339000D01*
X98231000Y-120912000D02*
X98231000Y-123436000D01*
X98191000Y-120824000D02*
X98191000Y-123524000D01*
X98151000Y-120742000D02*
X98151000Y-123606000D01*
X98111000Y-120665000D02*
X98111000Y-123683000D01*
X98071000Y-120593000D02*
X98071000Y-123755000D01*
X98031000Y-120524000D02*
X98031000Y-123824000D01*
X97991000Y-120460000D02*
X97991000Y-123888000D01*
X97951000Y-120398000D02*
X97951000Y-123950000D01*
X97911000Y-120340000D02*
X97911000Y-124008000D01*
X97871000Y-120284000D02*
X97871000Y-124064000D01*
X97831000Y-120230000D02*
X97831000Y-124118000D01*
X97791000Y-120179000D02*
X97791000Y-124169000D01*
X97751000Y-120130000D02*
X97751000Y-124218000D01*
X97711000Y-120082000D02*
X97711000Y-124266000D01*
X97671000Y-120037000D02*
X97671000Y-124311000D01*
X97631000Y-119992000D02*
X97631000Y-124356000D01*
X97591000Y-119950000D02*
X97591000Y-124398000D01*
X97551000Y-119909000D02*
X97551000Y-124439000D01*
X97511000Y-123214000D02*
X97511000Y-124479000D01*
X97511000Y-119869000D02*
X97511000Y-121134000D01*
X97471000Y-123214000D02*
X97471000Y-124517000D01*
X97471000Y-119831000D02*
X97471000Y-121134000D01*
X97431000Y-123214000D02*
X97431000Y-124554000D01*
X97431000Y-119794000D02*
X97431000Y-121134000D01*
X97391000Y-123214000D02*
X97391000Y-124590000D01*
X97391000Y-119758000D02*
X97391000Y-121134000D01*
X97351000Y-123214000D02*
X97351000Y-124624000D01*
X97351000Y-119724000D02*
X97351000Y-121134000D01*
X97311000Y-123214000D02*
X97311000Y-124658000D01*
X97311000Y-119690000D02*
X97311000Y-121134000D01*
X97271000Y-123214000D02*
X97271000Y-124690000D01*
X97271000Y-119658000D02*
X97271000Y-121134000D01*
X97231000Y-123214000D02*
X97231000Y-124722000D01*
X97231000Y-119626000D02*
X97231000Y-121134000D01*
X97191000Y-123214000D02*
X97191000Y-124752000D01*
X97191000Y-119596000D02*
X97191000Y-121134000D01*
X97151000Y-123214000D02*
X97151000Y-124781000D01*
X97151000Y-119567000D02*
X97151000Y-121134000D01*
X97111000Y-123214000D02*
X97111000Y-124810000D01*
X97111000Y-119538000D02*
X97111000Y-121134000D01*
X97071000Y-123214000D02*
X97071000Y-124838000D01*
X97071000Y-119510000D02*
X97071000Y-121134000D01*
X97031000Y-123214000D02*
X97031000Y-124864000D01*
X97031000Y-119484000D02*
X97031000Y-121134000D01*
X96991000Y-123214000D02*
X96991000Y-124890000D01*
X96991000Y-119458000D02*
X96991000Y-121134000D01*
X96951000Y-123214000D02*
X96951000Y-124916000D01*
X96951000Y-119432000D02*
X96951000Y-121134000D01*
X96911000Y-123214000D02*
X96911000Y-124940000D01*
X96911000Y-119408000D02*
X96911000Y-121134000D01*
X96871000Y-123214000D02*
X96871000Y-124964000D01*
X96871000Y-119384000D02*
X96871000Y-121134000D01*
X96831000Y-123214000D02*
X96831000Y-124986000D01*
X96831000Y-119362000D02*
X96831000Y-121134000D01*
X96791000Y-123214000D02*
X96791000Y-125008000D01*
X96791000Y-119340000D02*
X96791000Y-121134000D01*
X96751000Y-123214000D02*
X96751000Y-125030000D01*
X96751000Y-119318000D02*
X96751000Y-121134000D01*
X96711000Y-123214000D02*
X96711000Y-125050000D01*
X96711000Y-119298000D02*
X96711000Y-121134000D01*
X96671000Y-123214000D02*
X96671000Y-125070000D01*
X96671000Y-119278000D02*
X96671000Y-121134000D01*
X96631000Y-123214000D02*
X96631000Y-125090000D01*
X96631000Y-119258000D02*
X96631000Y-121134000D01*
X96591000Y-123214000D02*
X96591000Y-125108000D01*
X96591000Y-119240000D02*
X96591000Y-121134000D01*
X96551000Y-123214000D02*
X96551000Y-125126000D01*
X96551000Y-119222000D02*
X96551000Y-121134000D01*
X96511000Y-123214000D02*
X96511000Y-125144000D01*
X96511000Y-119204000D02*
X96511000Y-121134000D01*
X96471000Y-123214000D02*
X96471000Y-125160000D01*
X96471000Y-119188000D02*
X96471000Y-121134000D01*
X96431000Y-123214000D02*
X96431000Y-125176000D01*
X96431000Y-119172000D02*
X96431000Y-121134000D01*
X96391000Y-123214000D02*
X96391000Y-125192000D01*
X96391000Y-119156000D02*
X96391000Y-121134000D01*
X96351000Y-123214000D02*
X96351000Y-125207000D01*
X96351000Y-119141000D02*
X96351000Y-121134000D01*
X96311000Y-123214000D02*
X96311000Y-125221000D01*
X96311000Y-119127000D02*
X96311000Y-121134000D01*
X96271000Y-123214000D02*
X96271000Y-125235000D01*
X96271000Y-119113000D02*
X96271000Y-121134000D01*
X96231000Y-123214000D02*
X96231000Y-125248000D01*
X96231000Y-119100000D02*
X96231000Y-121134000D01*
X96191000Y-123214000D02*
X96191000Y-125260000D01*
X96191000Y-119088000D02*
X96191000Y-121134000D01*
X96151000Y-123214000D02*
X96151000Y-125272000D01*
X96151000Y-119076000D02*
X96151000Y-121134000D01*
X96111000Y-123214000D02*
X96111000Y-125284000D01*
X96111000Y-119064000D02*
X96111000Y-121134000D01*
X96071000Y-123214000D02*
X96071000Y-125295000D01*
X96071000Y-119053000D02*
X96071000Y-121134000D01*
X96031000Y-123214000D02*
X96031000Y-125305000D01*
X96031000Y-119043000D02*
X96031000Y-121134000D01*
X95991000Y-123214000D02*
X95991000Y-125315000D01*
X95991000Y-119033000D02*
X95991000Y-121134000D01*
X95951000Y-123214000D02*
X95951000Y-125324000D01*
X95951000Y-119024000D02*
X95951000Y-121134000D01*
X95910000Y-123214000D02*
X95910000Y-125333000D01*
X95910000Y-119015000D02*
X95910000Y-121134000D01*
X95870000Y-123214000D02*
X95870000Y-125341000D01*
X95870000Y-119007000D02*
X95870000Y-121134000D01*
X95830000Y-123214000D02*
X95830000Y-125349000D01*
X95830000Y-118999000D02*
X95830000Y-121134000D01*
X95790000Y-123214000D02*
X95790000Y-125356000D01*
X95790000Y-118992000D02*
X95790000Y-121134000D01*
X95750000Y-123214000D02*
X95750000Y-125363000D01*
X95750000Y-118985000D02*
X95750000Y-121134000D01*
X95710000Y-123214000D02*
X95710000Y-125369000D01*
X95710000Y-118979000D02*
X95710000Y-121134000D01*
X95670000Y-123214000D02*
X95670000Y-125375000D01*
X95670000Y-118973000D02*
X95670000Y-121134000D01*
X95630000Y-123214000D02*
X95630000Y-125380000D01*
X95630000Y-118968000D02*
X95630000Y-121134000D01*
X95590000Y-123214000D02*
X95590000Y-125385000D01*
X95590000Y-118963000D02*
X95590000Y-121134000D01*
X95550000Y-123214000D02*
X95550000Y-125389000D01*
X95550000Y-118959000D02*
X95550000Y-121134000D01*
X95510000Y-123214000D02*
X95510000Y-125392000D01*
X95510000Y-118956000D02*
X95510000Y-121134000D01*
X95470000Y-123214000D02*
X95470000Y-125396000D01*
X95470000Y-118952000D02*
X95470000Y-121134000D01*
X95430000Y-118950000D02*
X95430000Y-125398000D01*
X95390000Y-118947000D02*
X95390000Y-125401000D01*
X95350000Y-118946000D02*
X95350000Y-125402000D01*
X95310000Y-118944000D02*
X95310000Y-125404000D01*
X95270000Y-118944000D02*
X95270000Y-125404000D01*
X95230000Y-118944000D02*
X95230000Y-125404000D01*
X98500000Y-122174000D02*
G75*
G03*
X98500000Y-122174000I-3270000J0D01*
G01*
%TO.C,J1*%
X137982000Y-128440000D02*
X120082000Y-128440000D01*
X120082000Y-128440000D02*
X120082000Y-131100000D01*
X120082000Y-131100000D02*
X137982000Y-131100000D01*
X137982000Y-131100000D02*
X137982000Y-128440000D01*
X137032000Y-131100000D02*
X137032000Y-137100000D01*
X137032000Y-137100000D02*
X136272000Y-137100000D01*
X136272000Y-137100000D02*
X136272000Y-131100000D01*
X136972000Y-131100000D02*
X136972000Y-137100000D01*
X136852000Y-131100000D02*
X136852000Y-137100000D01*
X136732000Y-131100000D02*
X136732000Y-137100000D01*
X136612000Y-131100000D02*
X136612000Y-137100000D01*
X136492000Y-131100000D02*
X136492000Y-137100000D01*
X136372000Y-131100000D02*
X136372000Y-137100000D01*
X137032000Y-128110000D02*
X137032000Y-128440000D01*
X136272000Y-128110000D02*
X136272000Y-128440000D01*
X135382000Y-128440000D02*
X135382000Y-131100000D01*
X134492000Y-131100000D02*
X134492000Y-137100000D01*
X134492000Y-137100000D02*
X133732000Y-137100000D01*
X133732000Y-137100000D02*
X133732000Y-131100000D01*
X134492000Y-128042929D02*
X134492000Y-128440000D01*
X133732000Y-128042929D02*
X133732000Y-128440000D01*
X132842000Y-128440000D02*
X132842000Y-131100000D01*
X131952000Y-131100000D02*
X131952000Y-137100000D01*
X131952000Y-137100000D02*
X131192000Y-137100000D01*
X131192000Y-137100000D02*
X131192000Y-131100000D01*
X131952000Y-128042929D02*
X131952000Y-128440000D01*
X131192000Y-128042929D02*
X131192000Y-128440000D01*
X130302000Y-128440000D02*
X130302000Y-131100000D01*
X129412000Y-131100000D02*
X129412000Y-137100000D01*
X129412000Y-137100000D02*
X128652000Y-137100000D01*
X128652000Y-137100000D02*
X128652000Y-131100000D01*
X129412000Y-128042929D02*
X129412000Y-128440000D01*
X128652000Y-128042929D02*
X128652000Y-128440000D01*
X127762000Y-128440000D02*
X127762000Y-131100000D01*
X126872000Y-131100000D02*
X126872000Y-137100000D01*
X126872000Y-137100000D02*
X126112000Y-137100000D01*
X126112000Y-137100000D02*
X126112000Y-131100000D01*
X126872000Y-128042929D02*
X126872000Y-128440000D01*
X126112000Y-128042929D02*
X126112000Y-128440000D01*
X125222000Y-128440000D02*
X125222000Y-131100000D01*
X124332000Y-131100000D02*
X124332000Y-137100000D01*
X124332000Y-137100000D02*
X123572000Y-137100000D01*
X123572000Y-137100000D02*
X123572000Y-131100000D01*
X124332000Y-128042929D02*
X124332000Y-128440000D01*
X123572000Y-128042929D02*
X123572000Y-128440000D01*
X122682000Y-128440000D02*
X122682000Y-131100000D01*
X121792000Y-131100000D02*
X121792000Y-137100000D01*
X121792000Y-137100000D02*
X121032000Y-137100000D01*
X121032000Y-137100000D02*
X121032000Y-131100000D01*
X121792000Y-128042929D02*
X121792000Y-128440000D01*
X121032000Y-128042929D02*
X121032000Y-128440000D01*
X136652000Y-125730000D02*
X137922000Y-125730000D01*
X137922000Y-125730000D02*
X137922000Y-127000000D01*
%TO.C,J2*%
X91380000Y-114915000D02*
X96580000Y-114915000D01*
X91380000Y-97075000D02*
X91380000Y-114915000D01*
X96580000Y-94475000D02*
X96580000Y-114915000D01*
X91380000Y-97075000D02*
X93980000Y-97075000D01*
X93980000Y-97075000D02*
X93980000Y-94475000D01*
X93980000Y-94475000D02*
X96580000Y-94475000D01*
X91380000Y-95805000D02*
X91380000Y-94475000D01*
X91380000Y-94475000D02*
X92710000Y-94475000D01*
%TO.C,Q1*%
X115548000Y-114372000D02*
X119148000Y-114372000D01*
X119186478Y-114360478D02*
G75*
G03*
X117348000Y-109922000I-1838478J1838478D01*
G01*
X115509522Y-114360478D02*
G75*
G02*
X117348000Y-109922000I1838478J1838478D01*
G01*
%TO.C,Q2*%
X122152000Y-114372000D02*
X125752000Y-114372000D01*
X122113522Y-114360478D02*
G75*
G02*
X123952000Y-109922000I1838478J1838478D01*
G01*
X125790478Y-114360478D02*
G75*
G03*
X123952000Y-109922000I-1838478J1838478D01*
G01*
%TO.C,Q3*%
X121898000Y-122754000D02*
X125498000Y-122754000D01*
X125536478Y-122742478D02*
G75*
G03*
X123698000Y-118304000I-1838478J1838478D01*
G01*
X121859522Y-122742478D02*
G75*
G02*
X123698000Y-118304000I1838478J1838478D01*
G01*
%TO.C,Q4*%
X115548000Y-122754000D02*
X119148000Y-122754000D01*
X115509522Y-122742478D02*
G75*
G02*
X117348000Y-118304000I1838478J1838478D01*
G01*
X119186478Y-122742478D02*
G75*
G03*
X117348000Y-118304000I-1838478J1838478D01*
G01*
%TO.C,SW1*%
X138600000Y-113732000D02*
X138600000Y-121472000D01*
X138600000Y-121472000D02*
X141260000Y-121472000D01*
X141260000Y-121472000D02*
X141260000Y-113732000D01*
X141260000Y-113732000D02*
X138600000Y-113732000D01*
X141260000Y-114682000D02*
X147260000Y-114682000D01*
X147260000Y-114682000D02*
X147260000Y-115442000D01*
X147260000Y-115442000D02*
X141260000Y-115442000D01*
X141260000Y-114742000D02*
X147260000Y-114742000D01*
X141260000Y-114862000D02*
X147260000Y-114862000D01*
X141260000Y-114982000D02*
X147260000Y-114982000D01*
X141260000Y-115102000D02*
X147260000Y-115102000D01*
X141260000Y-115222000D02*
X147260000Y-115222000D01*
X141260000Y-115342000D02*
X147260000Y-115342000D01*
X138270000Y-114682000D02*
X138600000Y-114682000D01*
X138270000Y-115442000D02*
X138600000Y-115442000D01*
X138600000Y-116332000D02*
X141260000Y-116332000D01*
X141260000Y-117222000D02*
X147260000Y-117222000D01*
X147260000Y-117222000D02*
X147260000Y-117982000D01*
X147260000Y-117982000D02*
X141260000Y-117982000D01*
X138202929Y-117222000D02*
X138600000Y-117222000D01*
X138202929Y-117982000D02*
X138600000Y-117982000D01*
X138600000Y-118872000D02*
X141260000Y-118872000D01*
X141260000Y-119762000D02*
X147260000Y-119762000D01*
X147260000Y-119762000D02*
X147260000Y-120522000D01*
X147260000Y-120522000D02*
X141260000Y-120522000D01*
X138202929Y-119762000D02*
X138600000Y-119762000D01*
X138202929Y-120522000D02*
X138600000Y-120522000D01*
X135890000Y-115062000D02*
X135890000Y-113792000D01*
X135890000Y-113792000D02*
X137160000Y-113792000D01*
%TO.C,U1*%
X106696000Y-94174000D02*
X105446000Y-94174000D01*
X105446000Y-94174000D02*
X105446000Y-119694000D01*
X105446000Y-119694000D02*
X109946000Y-119694000D01*
X109946000Y-119694000D02*
X109946000Y-94174000D01*
X109946000Y-94174000D02*
X108696000Y-94174000D01*
X108696000Y-94174000D02*
G75*
G02*
X106696000Y-94174000I-1000000J0D01*
G01*
%TO.C,R11*%
D10*
X109672380Y-130944857D02*
X109196190Y-131278190D01*
X109672380Y-131516285D02*
X108672380Y-131516285D01*
X108672380Y-131135333D01*
X108720000Y-131040095D01*
X108767619Y-130992476D01*
X108862857Y-130944857D01*
X109005714Y-130944857D01*
X109100952Y-130992476D01*
X109148571Y-131040095D01*
X109196190Y-131135333D01*
X109196190Y-131516285D01*
X109672380Y-129992476D02*
X109672380Y-130563904D01*
X109672380Y-130278190D02*
X108672380Y-130278190D01*
X108815238Y-130373428D01*
X108910476Y-130468666D01*
X108958095Y-130563904D01*
X109672380Y-129040095D02*
X109672380Y-129611523D01*
X109672380Y-129325809D02*
X108672380Y-129325809D01*
X108815238Y-129421047D01*
X108910476Y-129516285D01*
X108958095Y-129611523D01*
%TO.C,R1*%
X119213333Y-103830380D02*
X118880000Y-103354190D01*
X118641904Y-103830380D02*
X118641904Y-102830380D01*
X119022857Y-102830380D01*
X119118095Y-102878000D01*
X119165714Y-102925619D01*
X119213333Y-103020857D01*
X119213333Y-103163714D01*
X119165714Y-103258952D01*
X119118095Y-103306571D01*
X119022857Y-103354190D01*
X118641904Y-103354190D01*
X120165714Y-103830380D02*
X119594285Y-103830380D01*
X119880000Y-103830380D02*
X119880000Y-102830380D01*
X119784761Y-102973238D01*
X119689523Y-103068476D01*
X119594285Y-103116095D01*
%TO.C,R2*%
X130389333Y-93586380D02*
X130056000Y-93110190D01*
X129817904Y-93586380D02*
X129817904Y-92586380D01*
X130198857Y-92586380D01*
X130294095Y-92634000D01*
X130341714Y-92681619D01*
X130389333Y-92776857D01*
X130389333Y-92919714D01*
X130341714Y-93014952D01*
X130294095Y-93062571D01*
X130198857Y-93110190D01*
X129817904Y-93110190D01*
X130770285Y-92681619D02*
X130817904Y-92634000D01*
X130913142Y-92586380D01*
X131151238Y-92586380D01*
X131246476Y-92634000D01*
X131294095Y-92681619D01*
X131341714Y-92776857D01*
X131341714Y-92872095D01*
X131294095Y-93014952D01*
X130722666Y-93586380D01*
X131341714Y-93586380D01*
%TO.C,R3*%
X141311333Y-93586380D02*
X140978000Y-93110190D01*
X140739904Y-93586380D02*
X140739904Y-92586380D01*
X141120857Y-92586380D01*
X141216095Y-92634000D01*
X141263714Y-92681619D01*
X141311333Y-92776857D01*
X141311333Y-92919714D01*
X141263714Y-93014952D01*
X141216095Y-93062571D01*
X141120857Y-93110190D01*
X140739904Y-93110190D01*
X141644666Y-92586380D02*
X142263714Y-92586380D01*
X141930380Y-92967333D01*
X142073238Y-92967333D01*
X142168476Y-93014952D01*
X142216095Y-93062571D01*
X142263714Y-93157809D01*
X142263714Y-93395904D01*
X142216095Y-93491142D01*
X142168476Y-93538761D01*
X142073238Y-93586380D01*
X141787523Y-93586380D01*
X141692285Y-93538761D01*
X141644666Y-93491142D01*
%TO.C,R4*%
X119213333Y-99004380D02*
X118880000Y-98528190D01*
X118641904Y-99004380D02*
X118641904Y-98004380D01*
X119022857Y-98004380D01*
X119118095Y-98052000D01*
X119165714Y-98099619D01*
X119213333Y-98194857D01*
X119213333Y-98337714D01*
X119165714Y-98432952D01*
X119118095Y-98480571D01*
X119022857Y-98528190D01*
X118641904Y-98528190D01*
X120070476Y-98337714D02*
X120070476Y-99004380D01*
X119832380Y-97956761D02*
X119594285Y-98671047D01*
X120213333Y-98671047D01*
%TO.C,R5*%
X130389333Y-98666380D02*
X130056000Y-98190190D01*
X129817904Y-98666380D02*
X129817904Y-97666380D01*
X130198857Y-97666380D01*
X130294095Y-97714000D01*
X130341714Y-97761619D01*
X130389333Y-97856857D01*
X130389333Y-97999714D01*
X130341714Y-98094952D01*
X130294095Y-98142571D01*
X130198857Y-98190190D01*
X129817904Y-98190190D01*
X131294095Y-97666380D02*
X130817904Y-97666380D01*
X130770285Y-98142571D01*
X130817904Y-98094952D01*
X130913142Y-98047333D01*
X131151238Y-98047333D01*
X131246476Y-98094952D01*
X131294095Y-98142571D01*
X131341714Y-98237809D01*
X131341714Y-98475904D01*
X131294095Y-98571142D01*
X131246476Y-98618761D01*
X131151238Y-98666380D01*
X130913142Y-98666380D01*
X130817904Y-98618761D01*
X130770285Y-98571142D01*
%TO.C,R6*%
X141311333Y-98666380D02*
X140978000Y-98190190D01*
X140739904Y-98666380D02*
X140739904Y-97666380D01*
X141120857Y-97666380D01*
X141216095Y-97714000D01*
X141263714Y-97761619D01*
X141311333Y-97856857D01*
X141311333Y-97999714D01*
X141263714Y-98094952D01*
X141216095Y-98142571D01*
X141120857Y-98190190D01*
X140739904Y-98190190D01*
X142168476Y-97666380D02*
X141978000Y-97666380D01*
X141882761Y-97714000D01*
X141835142Y-97761619D01*
X141739904Y-97904476D01*
X141692285Y-98094952D01*
X141692285Y-98475904D01*
X141739904Y-98571142D01*
X141787523Y-98618761D01*
X141882761Y-98666380D01*
X142073238Y-98666380D01*
X142168476Y-98618761D01*
X142216095Y-98571142D01*
X142263714Y-98475904D01*
X142263714Y-98237809D01*
X142216095Y-98142571D01*
X142168476Y-98094952D01*
X142073238Y-98047333D01*
X141882761Y-98047333D01*
X141787523Y-98094952D01*
X141739904Y-98142571D01*
X141692285Y-98237809D01*
%TO.C,R7*%
X119213333Y-93670380D02*
X118880000Y-93194190D01*
X118641904Y-93670380D02*
X118641904Y-92670380D01*
X119022857Y-92670380D01*
X119118095Y-92718000D01*
X119165714Y-92765619D01*
X119213333Y-92860857D01*
X119213333Y-93003714D01*
X119165714Y-93098952D01*
X119118095Y-93146571D01*
X119022857Y-93194190D01*
X118641904Y-93194190D01*
X119546666Y-92670380D02*
X120213333Y-92670380D01*
X119784761Y-93670380D01*
%TO.C,R8*%
X130389333Y-103746380D02*
X130056000Y-103270190D01*
X129817904Y-103746380D02*
X129817904Y-102746380D01*
X130198857Y-102746380D01*
X130294095Y-102794000D01*
X130341714Y-102841619D01*
X130389333Y-102936857D01*
X130389333Y-103079714D01*
X130341714Y-103174952D01*
X130294095Y-103222571D01*
X130198857Y-103270190D01*
X129817904Y-103270190D01*
X130960761Y-103174952D02*
X130865523Y-103127333D01*
X130817904Y-103079714D01*
X130770285Y-102984476D01*
X130770285Y-102936857D01*
X130817904Y-102841619D01*
X130865523Y-102794000D01*
X130960761Y-102746380D01*
X131151238Y-102746380D01*
X131246476Y-102794000D01*
X131294095Y-102841619D01*
X131341714Y-102936857D01*
X131341714Y-102984476D01*
X131294095Y-103079714D01*
X131246476Y-103127333D01*
X131151238Y-103174952D01*
X130960761Y-103174952D01*
X130865523Y-103222571D01*
X130817904Y-103270190D01*
X130770285Y-103365428D01*
X130770285Y-103555904D01*
X130817904Y-103651142D01*
X130865523Y-103698761D01*
X130960761Y-103746380D01*
X131151238Y-103746380D01*
X131246476Y-103698761D01*
X131294095Y-103651142D01*
X131341714Y-103555904D01*
X131341714Y-103365428D01*
X131294095Y-103270190D01*
X131246476Y-103222571D01*
X131151238Y-103174952D01*
%TO.C,R9*%
X141311333Y-103746380D02*
X140978000Y-103270190D01*
X140739904Y-103746380D02*
X140739904Y-102746380D01*
X141120857Y-102746380D01*
X141216095Y-102794000D01*
X141263714Y-102841619D01*
X141311333Y-102936857D01*
X141311333Y-103079714D01*
X141263714Y-103174952D01*
X141216095Y-103222571D01*
X141120857Y-103270190D01*
X140739904Y-103270190D01*
X141787523Y-103746380D02*
X141978000Y-103746380D01*
X142073238Y-103698761D01*
X142120857Y-103651142D01*
X142216095Y-103508285D01*
X142263714Y-103317809D01*
X142263714Y-102936857D01*
X142216095Y-102841619D01*
X142168476Y-102794000D01*
X142073238Y-102746380D01*
X141882761Y-102746380D01*
X141787523Y-102794000D01*
X141739904Y-102841619D01*
X141692285Y-102936857D01*
X141692285Y-103174952D01*
X141739904Y-103270190D01*
X141787523Y-103317809D01*
X141882761Y-103365428D01*
X142073238Y-103365428D01*
X142168476Y-103317809D01*
X142216095Y-103270190D01*
X142263714Y-103174952D01*
%TO.C,R10*%
X114752380Y-130944857D02*
X114276190Y-131278190D01*
X114752380Y-131516285D02*
X113752380Y-131516285D01*
X113752380Y-131135333D01*
X113800000Y-131040095D01*
X113847619Y-130992476D01*
X113942857Y-130944857D01*
X114085714Y-130944857D01*
X114180952Y-130992476D01*
X114228571Y-131040095D01*
X114276190Y-131135333D01*
X114276190Y-131516285D01*
X114752380Y-129992476D02*
X114752380Y-130563904D01*
X114752380Y-130278190D02*
X113752380Y-130278190D01*
X113895238Y-130373428D01*
X113990476Y-130468666D01*
X114038095Y-130563904D01*
X113752380Y-129373428D02*
X113752380Y-129278190D01*
X113800000Y-129182952D01*
X113847619Y-129135333D01*
X113942857Y-129087714D01*
X114133333Y-129040095D01*
X114371428Y-129040095D01*
X114561904Y-129087714D01*
X114657142Y-129135333D01*
X114704761Y-129182952D01*
X114752380Y-129278190D01*
X114752380Y-129373428D01*
X114704761Y-129468666D01*
X114657142Y-129516285D01*
X114561904Y-129563904D01*
X114371428Y-129611523D01*
X114133333Y-129611523D01*
X113942857Y-129563904D01*
X113847619Y-129516285D01*
X113800000Y-129468666D01*
X113752380Y-129373428D01*
%TO.C,R12*%
X104592380Y-130944857D02*
X104116190Y-131278190D01*
X104592380Y-131516285D02*
X103592380Y-131516285D01*
X103592380Y-131135333D01*
X103640000Y-131040095D01*
X103687619Y-130992476D01*
X103782857Y-130944857D01*
X103925714Y-130944857D01*
X104020952Y-130992476D01*
X104068571Y-131040095D01*
X104116190Y-131135333D01*
X104116190Y-131516285D01*
X104592380Y-129992476D02*
X104592380Y-130563904D01*
X104592380Y-130278190D02*
X103592380Y-130278190D01*
X103735238Y-130373428D01*
X103830476Y-130468666D01*
X103878095Y-130563904D01*
X103687619Y-129611523D02*
X103640000Y-129563904D01*
X103592380Y-129468666D01*
X103592380Y-129230571D01*
X103640000Y-129135333D01*
X103687619Y-129087714D01*
X103782857Y-129040095D01*
X103878095Y-129040095D01*
X104020952Y-129087714D01*
X104592380Y-129659142D01*
X104592380Y-129040095D01*
%TO.C,R13*%
X99174380Y-130944857D02*
X98698190Y-131278190D01*
X99174380Y-131516285D02*
X98174380Y-131516285D01*
X98174380Y-131135333D01*
X98222000Y-131040095D01*
X98269619Y-130992476D01*
X98364857Y-130944857D01*
X98507714Y-130944857D01*
X98602952Y-130992476D01*
X98650571Y-131040095D01*
X98698190Y-131135333D01*
X98698190Y-131516285D01*
X99174380Y-129992476D02*
X99174380Y-130563904D01*
X99174380Y-130278190D02*
X98174380Y-130278190D01*
X98317238Y-130373428D01*
X98412476Y-130468666D01*
X98460095Y-130563904D01*
X98174380Y-129659142D02*
X98174380Y-129040095D01*
X98555333Y-129373428D01*
X98555333Y-129230571D01*
X98602952Y-129135333D01*
X98650571Y-129087714D01*
X98745809Y-129040095D01*
X98983904Y-129040095D01*
X99079142Y-129087714D01*
X99126761Y-129135333D01*
X99174380Y-129230571D01*
X99174380Y-129516285D01*
X99126761Y-129611523D01*
X99079142Y-129659142D01*
%TO.C,C1*%
X107529333Y-124309142D02*
X107481714Y-124356761D01*
X107338857Y-124404380D01*
X107243619Y-124404380D01*
X107100761Y-124356761D01*
X107005523Y-124261523D01*
X106957904Y-124166285D01*
X106910285Y-123975809D01*
X106910285Y-123832952D01*
X106957904Y-123642476D01*
X107005523Y-123547238D01*
X107100761Y-123452000D01*
X107243619Y-123404380D01*
X107338857Y-123404380D01*
X107481714Y-123452000D01*
X107529333Y-123499619D01*
X108481714Y-124404380D02*
X107910285Y-124404380D01*
X108196000Y-124404380D02*
X108196000Y-123404380D01*
X108100761Y-123547238D01*
X108005523Y-123642476D01*
X107910285Y-123690095D01*
%TO.C,C2*%
X130262333Y-113895142D02*
X130214714Y-113942761D01*
X130071857Y-113990380D01*
X129976619Y-113990380D01*
X129833761Y-113942761D01*
X129738523Y-113847523D01*
X129690904Y-113752285D01*
X129643285Y-113561809D01*
X129643285Y-113418952D01*
X129690904Y-113228476D01*
X129738523Y-113133238D01*
X129833761Y-113038000D01*
X129976619Y-112990380D01*
X130071857Y-112990380D01*
X130214714Y-113038000D01*
X130262333Y-113085619D01*
X130643285Y-113085619D02*
X130690904Y-113038000D01*
X130786142Y-112990380D01*
X131024238Y-112990380D01*
X131119476Y-113038000D01*
X131167095Y-113085619D01*
X131214714Y-113180857D01*
X131214714Y-113276095D01*
X131167095Y-113418952D01*
X130595666Y-113990380D01*
X131214714Y-113990380D01*
%TO.C,C3*%
X95063333Y-118131142D02*
X95015714Y-118178761D01*
X94872857Y-118226380D01*
X94777619Y-118226380D01*
X94634761Y-118178761D01*
X94539523Y-118083523D01*
X94491904Y-117988285D01*
X94444285Y-117797809D01*
X94444285Y-117654952D01*
X94491904Y-117464476D01*
X94539523Y-117369238D01*
X94634761Y-117274000D01*
X94777619Y-117226380D01*
X94872857Y-117226380D01*
X95015714Y-117274000D01*
X95063333Y-117321619D01*
X95396666Y-117226380D02*
X96015714Y-117226380D01*
X95682380Y-117607333D01*
X95825238Y-117607333D01*
X95920476Y-117654952D01*
X95968095Y-117702571D01*
X96015714Y-117797809D01*
X96015714Y-118035904D01*
X95968095Y-118131142D01*
X95920476Y-118178761D01*
X95825238Y-118226380D01*
X95539523Y-118226380D01*
X95444285Y-118178761D01*
X95396666Y-118131142D01*
%TO.C,J1*%
X138374380Y-131718333D02*
X139088666Y-131718333D01*
X139231523Y-131765952D01*
X139326761Y-131861190D01*
X139374380Y-132004047D01*
X139374380Y-132099285D01*
X139374380Y-130718333D02*
X139374380Y-131289761D01*
X139374380Y-131004047D02*
X138374380Y-131004047D01*
X138517238Y-131099285D01*
X138612476Y-131194523D01*
X138660095Y-131289761D01*
%TO.C,J2*%
X93646666Y-92670379D02*
X93646666Y-93384665D01*
X93599047Y-93527522D01*
X93503809Y-93622760D01*
X93360952Y-93670379D01*
X93265714Y-93670379D01*
X94075238Y-92765618D02*
X94122857Y-92717999D01*
X94218095Y-92670379D01*
X94456190Y-92670379D01*
X94551428Y-92717999D01*
X94599047Y-92765618D01*
X94646666Y-92860856D01*
X94646666Y-92956094D01*
X94599047Y-93098951D01*
X94027619Y-93670379D01*
X94646666Y-93670379D01*
%TO.C,Q1*%
X117252761Y-109509619D02*
X117157523Y-109462000D01*
X117062285Y-109366761D01*
X116919428Y-109223904D01*
X116824190Y-109176285D01*
X116728952Y-109176285D01*
X116776571Y-109414380D02*
X116681333Y-109366761D01*
X116586095Y-109271523D01*
X116538476Y-109081047D01*
X116538476Y-108747714D01*
X116586095Y-108557238D01*
X116681333Y-108462000D01*
X116776571Y-108414380D01*
X116967047Y-108414380D01*
X117062285Y-108462000D01*
X117157523Y-108557238D01*
X117205142Y-108747714D01*
X117205142Y-109081047D01*
X117157523Y-109271523D01*
X117062285Y-109366761D01*
X116967047Y-109414380D01*
X116776571Y-109414380D01*
X118157523Y-109414380D02*
X117586095Y-109414380D01*
X117871809Y-109414380D02*
X117871809Y-108414380D01*
X117776571Y-108557238D01*
X117681333Y-108652476D01*
X117586095Y-108700095D01*
%TO.C,Q2*%
X123856761Y-109509619D02*
X123761523Y-109462000D01*
X123666285Y-109366761D01*
X123523428Y-109223904D01*
X123428190Y-109176285D01*
X123332952Y-109176285D01*
X123380571Y-109414380D02*
X123285333Y-109366761D01*
X123190095Y-109271523D01*
X123142476Y-109081047D01*
X123142476Y-108747714D01*
X123190095Y-108557238D01*
X123285333Y-108462000D01*
X123380571Y-108414380D01*
X123571047Y-108414380D01*
X123666285Y-108462000D01*
X123761523Y-108557238D01*
X123809142Y-108747714D01*
X123809142Y-109081047D01*
X123761523Y-109271523D01*
X123666285Y-109366761D01*
X123571047Y-109414380D01*
X123380571Y-109414380D01*
X124190095Y-108509619D02*
X124237714Y-108462000D01*
X124332952Y-108414380D01*
X124571047Y-108414380D01*
X124666285Y-108462000D01*
X124713904Y-108509619D01*
X124761523Y-108604857D01*
X124761523Y-108700095D01*
X124713904Y-108842952D01*
X124142476Y-109414380D01*
X124761523Y-109414380D01*
%TO.C,Q3*%
X123602761Y-117891619D02*
X123507523Y-117844000D01*
X123412285Y-117748761D01*
X123269428Y-117605904D01*
X123174190Y-117558285D01*
X123078952Y-117558285D01*
X123126571Y-117796380D02*
X123031333Y-117748761D01*
X122936095Y-117653523D01*
X122888476Y-117463047D01*
X122888476Y-117129714D01*
X122936095Y-116939238D01*
X123031333Y-116844000D01*
X123126571Y-116796380D01*
X123317047Y-116796380D01*
X123412285Y-116844000D01*
X123507523Y-116939238D01*
X123555142Y-117129714D01*
X123555142Y-117463047D01*
X123507523Y-117653523D01*
X123412285Y-117748761D01*
X123317047Y-117796380D01*
X123126571Y-117796380D01*
X123888476Y-116796380D02*
X124507523Y-116796380D01*
X124174190Y-117177333D01*
X124317047Y-117177333D01*
X124412285Y-117224952D01*
X124459904Y-117272571D01*
X124507523Y-117367809D01*
X124507523Y-117605904D01*
X124459904Y-117701142D01*
X124412285Y-117748761D01*
X124317047Y-117796380D01*
X124031333Y-117796380D01*
X123936095Y-117748761D01*
X123888476Y-117701142D01*
%TO.C,Q4*%
X117252761Y-117891619D02*
X117157523Y-117844000D01*
X117062285Y-117748761D01*
X116919428Y-117605904D01*
X116824190Y-117558285D01*
X116728952Y-117558285D01*
X116776571Y-117796380D02*
X116681333Y-117748761D01*
X116586095Y-117653523D01*
X116538476Y-117463047D01*
X116538476Y-117129714D01*
X116586095Y-116939238D01*
X116681333Y-116844000D01*
X116776571Y-116796380D01*
X116967047Y-116796380D01*
X117062285Y-116844000D01*
X117157523Y-116939238D01*
X117205142Y-117129714D01*
X117205142Y-117463047D01*
X117157523Y-117653523D01*
X117062285Y-117748761D01*
X116967047Y-117796380D01*
X116776571Y-117796380D01*
X118062285Y-117129714D02*
X118062285Y-117796380D01*
X117824190Y-116748761D02*
X117586095Y-117463047D01*
X118205142Y-117463047D01*
%TO.C,SW1*%
X138887333Y-113353809D02*
X139001619Y-113391904D01*
X139192095Y-113391904D01*
X139268285Y-113353809D01*
X139306380Y-113315714D01*
X139344476Y-113239523D01*
X139344476Y-113163333D01*
X139306380Y-113087142D01*
X139268285Y-113049047D01*
X139192095Y-113010952D01*
X139039714Y-112972857D01*
X138963523Y-112934761D01*
X138925428Y-112896666D01*
X138887333Y-112820476D01*
X138887333Y-112744285D01*
X138925428Y-112668095D01*
X138963523Y-112630000D01*
X139039714Y-112591904D01*
X139230190Y-112591904D01*
X139344476Y-112630000D01*
X139611142Y-112591904D02*
X139801619Y-113391904D01*
X139954000Y-112820476D01*
X140106380Y-113391904D01*
X140296857Y-112591904D01*
X141020666Y-113391904D02*
X140563523Y-113391904D01*
X140792095Y-113391904D02*
X140792095Y-112591904D01*
X140715904Y-112706190D01*
X140639714Y-112782380D01*
X140563523Y-112820476D01*
%TO.C,U1*%
X106934095Y-92626380D02*
X106934095Y-93435904D01*
X106981714Y-93531142D01*
X107029333Y-93578761D01*
X107124571Y-93626380D01*
X107315047Y-93626380D01*
X107410285Y-93578761D01*
X107457904Y-93531142D01*
X107505523Y-93435904D01*
X107505523Y-92626380D01*
X108505523Y-93626380D02*
X107934095Y-93626380D01*
X108219809Y-93626380D02*
X108219809Y-92626380D01*
X108124571Y-92769238D01*
X108029333Y-92864476D01*
X107934095Y-92912095D01*
%TD*%
M02*
