M48
; DRILL file {KiCad (5.1.9)-1} date 05/20/21 14:34:51
; FORMAT={-:-/ absolute / inch / decimal}
; #@! TF.CreationDate,2021-05-20T14:34:51+02:00
; #@! TF.GenerationSoftware,Kicad,Pcbnew,(5.1.9)-1
; #@! TF.FileFunction,Plated,1,2,PTH
FMAT,2
INCH
T1C0.0276
T2C0.0295
T3C0.0315
T4C0.0394
T5C0.1260
%
G90
G05
T1
X3.98Y-4.98
X3.98Y-5.28
X4.19Y-4.98
X4.19Y-5.28
X4.39Y-4.98
X4.39Y-5.28
X4.55Y-3.76
X4.55Y-3.96
X4.55Y-4.16
X4.59Y-4.98
X4.59Y-5.28
X4.85Y-3.76
X4.85Y-3.96
X4.85Y-4.16
X4.99Y-3.76
X4.99Y-3.96
X4.99Y-4.16
X5.29Y-3.76
X5.29Y-3.96
X5.29Y-4.16
X5.42Y-3.76
X5.42Y-3.96
X5.42Y-4.16
X5.72Y-3.76
X5.72Y-3.96
X5.72Y-4.16
T2
X4.57Y-4.43
X4.57Y-4.76
X4.62Y-4.43
X4.62Y-4.76
X4.67Y-4.43
X4.67Y-4.76
X4.82Y-4.76
X4.83Y-4.43
X4.87Y-4.76
X4.88Y-4.43
X4.92Y-4.76
X4.93Y-4.43
T3
X3.7Y-4.81
X3.7984Y-4.81
X4.09Y-3.76
X4.09Y-3.86
X4.09Y-3.96
X4.09Y-4.06
X4.09Y-4.16
X4.09Y-4.26
X4.09Y-4.36
X4.09Y-4.46
X4.09Y-4.56
X4.09Y-4.66
X4.14Y-4.79
X4.3369Y-4.79
X4.39Y-3.76
X4.39Y-3.86
X4.39Y-3.96
X4.39Y-4.06
X4.39Y-4.16
X4.39Y-4.26
X4.39Y-4.36
X4.39Y-4.46
X4.39Y-4.56
X4.39Y-4.66
X5.09Y-4.64
X5.1884Y-4.64
T4
X3.65Y-3.7719
X3.65Y-3.8719
X3.65Y-3.9719
X3.65Y-4.0719
X3.65Y-4.1719
X3.65Y-4.2719
X3.65Y-4.3719
X3.65Y-4.4719
X3.75Y-3.7719
X3.75Y-3.8719
X3.75Y-3.9719
X3.75Y-4.0719
X3.75Y-4.1719
X3.75Y-4.2719
X3.75Y-4.3719
X3.75Y-4.4719
X4.78Y-5.0
X4.88Y-5.0
X4.98Y-5.0
X5.08Y-5.0
X5.18Y-5.0
X5.28Y-5.0
X5.38Y-5.0
X5.4Y-4.53
X5.4Y-4.63
X5.4Y-4.73
T5
X3.71Y-5.23
X5.64Y-5.23
T0
M30
