%TF.GenerationSoftware,KiCad,Pcbnew,(5.1.9)-1*%
%TF.CreationDate,2021-05-20T14:34:39+02:00*%
%TF.ProjectId,ColorAce,436f6c6f-7241-4636-952e-6b696361645f,rev?*%
%TF.SameCoordinates,Original*%
%TF.FileFunction,Copper,L2,Bot*%
%TF.FilePolarity,Positive*%
%FSLAX46Y46*%
G04 Gerber Fmt 4.6, Leading zero omitted, Abs format (unit mm)*
G04 Created by KiCad (PCBNEW (5.1.9)-1) date 2021-05-20 14:34:39*
%MOMM*%
%LPD*%
G01*
G04 APERTURE LIST*
%TA.AperFunction,ComponentPad*%
%ADD10O,1.400000X1.400000*%
%TD*%
%TA.AperFunction,ComponentPad*%
%ADD11C,1.400000*%
%TD*%
%TA.AperFunction,ComponentPad*%
%ADD12C,5.700000*%
%TD*%
%TA.AperFunction,ComponentPad*%
%ADD13C,1.600000*%
%TD*%
%TA.AperFunction,ComponentPad*%
%ADD14R,1.600000X1.600000*%
%TD*%
%TA.AperFunction,ComponentPad*%
%ADD15R,1.700000X1.700000*%
%TD*%
%TA.AperFunction,ComponentPad*%
%ADD16O,1.700000X1.700000*%
%TD*%
%TA.AperFunction,ComponentPad*%
%ADD17R,1.050000X1.500000*%
%TD*%
%TA.AperFunction,ComponentPad*%
%ADD18O,1.050000X1.500000*%
%TD*%
%TA.AperFunction,ComponentPad*%
%ADD19R,2.400000X1.600000*%
%TD*%
%TA.AperFunction,ComponentPad*%
%ADD20O,2.400000X1.600000*%
%TD*%
%TA.AperFunction,Conductor*%
%ADD21C,1.000000*%
%TD*%
%TA.AperFunction,Conductor*%
%ADD22C,0.250000*%
%TD*%
%TA.AperFunction,Conductor*%
%ADD23C,0.254000*%
%TD*%
%TA.AperFunction,Conductor*%
%ADD24C,0.100000*%
%TD*%
G04 APERTURE END LIST*
D10*
%TO.P,R11,2*%
%TO.N,/SND*%
X111506000Y-134112000D03*
D11*
%TO.P,R11,1*%
%TO.N,Net-(Q4-Pad2)*%
X111506000Y-126492000D03*
%TD*%
D10*
%TO.P,R1,2*%
%TO.N,/B*%
X115570000Y-105664000D03*
D11*
%TO.P,R1,1*%
%TO.N,Net-(Q1-Pad2)*%
X123190000Y-105664000D03*
%TD*%
D10*
%TO.P,R2,2*%
%TO.N,/BLUE*%
X134366000Y-95504000D03*
D11*
%TO.P,R2,1*%
%TO.N,Net-(Q1-Pad3)*%
X126746000Y-95504000D03*
%TD*%
D10*
%TO.P,R3,2*%
%TO.N,GND*%
X145288000Y-95504000D03*
D11*
%TO.P,R3,1*%
%TO.N,/BLUE*%
X137668000Y-95504000D03*
%TD*%
D10*
%TO.P,R4,2*%
%TO.N,/G*%
X115570000Y-100584000D03*
D11*
%TO.P,R4,1*%
%TO.N,Net-(Q2-Pad2)*%
X123190000Y-100584000D03*
%TD*%
D10*
%TO.P,R5,2*%
%TO.N,/GREEN*%
X134366000Y-100584000D03*
D11*
%TO.P,R5,1*%
%TO.N,Net-(Q2-Pad3)*%
X126746000Y-100584000D03*
%TD*%
D10*
%TO.P,R6,2*%
%TO.N,GND*%
X145288000Y-100584000D03*
D11*
%TO.P,R6,1*%
%TO.N,/GREEN*%
X137668000Y-100584000D03*
%TD*%
D10*
%TO.P,R7,2*%
%TO.N,/R*%
X115570000Y-95504000D03*
D11*
%TO.P,R7,1*%
%TO.N,Net-(Q3-Pad2)*%
X123190000Y-95504000D03*
%TD*%
D10*
%TO.P,R8,2*%
%TO.N,/RED*%
X134366000Y-105664000D03*
D11*
%TO.P,R8,1*%
%TO.N,Net-(Q3-Pad3)*%
X126746000Y-105664000D03*
%TD*%
D10*
%TO.P,R9,2*%
%TO.N,GND*%
X145288000Y-105664000D03*
D11*
%TO.P,R9,1*%
%TO.N,/RED*%
X137668000Y-105664000D03*
%TD*%
D10*
%TO.P,R10,2*%
%TO.N,Net-(J1-Pad7)*%
X116586000Y-134112000D03*
D11*
%TO.P,R10,1*%
%TO.N,VCC*%
X116586000Y-126492000D03*
%TD*%
D10*
%TO.P,R12,2*%
%TO.N,Net-(C2-Pad1)*%
X106426000Y-134112000D03*
D11*
%TO.P,R12,1*%
%TO.N,Net-(Q4-Pad1)*%
X106426000Y-126492000D03*
%TD*%
D10*
%TO.P,R13,2*%
%TO.N,GND*%
X101092000Y-126492000D03*
D11*
%TO.P,R13,1*%
%TO.N,Net-(C2-Pad1)*%
X101092000Y-134112000D03*
%TD*%
D12*
%TO.P,MH2,1*%
%TO.N,GND*%
X143256000Y-132842000D03*
%TD*%
%TO.P,MH1,1*%
%TO.N,GND*%
X94234000Y-132842000D03*
%TD*%
D13*
%TO.P,C1,1*%
%TO.N,GND*%
X105156000Y-121666000D03*
%TO.P,C1,2*%
%TO.N,VCC*%
X110156000Y-121666000D03*
%TD*%
D14*
%TO.P,C2,1*%
%TO.N,Net-(C2-Pad1)*%
X129286000Y-117856000D03*
D13*
%TO.P,C2,2*%
%TO.N,/SOUND*%
X131786000Y-117856000D03*
%TD*%
%TO.P,C3,2*%
%TO.N,GND*%
X96480000Y-122174000D03*
D14*
%TO.P,C3,1*%
%TO.N,VCC*%
X93980000Y-122174000D03*
%TD*%
D15*
%TO.P,J1,1*%
%TO.N,/SYNC*%
X136652000Y-127000000D03*
D16*
%TO.P,J1,2*%
%TO.N,GND*%
X134112000Y-127000000D03*
%TO.P,J1,3*%
%TO.N,/GREEN*%
X131572000Y-127000000D03*
%TO.P,J1,4*%
%TO.N,/RED*%
X129032000Y-127000000D03*
%TO.P,J1,5*%
%TO.N,/BLUE*%
X126492000Y-127000000D03*
%TO.P,J1,6*%
%TO.N,/SOUND*%
X123952000Y-127000000D03*
%TO.P,J1,7*%
%TO.N,Net-(J1-Pad7)*%
X121412000Y-127000000D03*
%TD*%
D15*
%TO.P,J2,1*%
%TO.N,/STB*%
X92710000Y-95805000D03*
D16*
%TO.P,J2,2*%
%TO.N,/MA6*%
X95250000Y-95805000D03*
%TO.P,J2,3*%
%TO.N,/A6O*%
X92710000Y-98345000D03*
%TO.P,J2,4*%
%TO.N,/~F1*%
X95250000Y-98345000D03*
%TO.P,J2,5*%
%TO.N,/A6O*%
X92710000Y-100885000D03*
%TO.P,J2,6*%
%TO.N,/~F2*%
X95250000Y-100885000D03*
%TO.P,J2,7*%
%TO.N,/DI6*%
X92710000Y-103425000D03*
%TO.P,J2,8*%
%TO.N,/MOD*%
X95250000Y-103425000D03*
%TO.P,J2,9*%
%TO.N,/DI7*%
X92710000Y-105965000D03*
%TO.P,J2,10*%
%TO.N,/~ZAT*%
X95250000Y-105965000D03*
%TO.P,J2,11*%
%TO.N,/SYNC*%
X92710000Y-108505000D03*
%TO.P,J2,12*%
%TO.N,/VID*%
X95250000Y-108505000D03*
%TO.P,J2,13*%
%TO.N,/SND*%
X92710000Y-111045000D03*
%TO.P,J2,14*%
%TO.N,/AMUX*%
X95250000Y-111045000D03*
%TO.P,J2,15*%
%TO.N,VCC*%
X92710000Y-113585000D03*
%TO.P,J2,16*%
%TO.N,GND*%
X95250000Y-113585000D03*
%TD*%
D17*
%TO.P,Q1,1*%
%TO.N,VCC*%
X116078000Y-112522000D03*
D18*
%TO.P,Q1,3*%
%TO.N,Net-(Q1-Pad3)*%
X118618000Y-112522000D03*
%TO.P,Q1,2*%
%TO.N,Net-(Q1-Pad2)*%
X117348000Y-112522000D03*
%TD*%
%TO.P,Q2,2*%
%TO.N,Net-(Q2-Pad2)*%
X123952000Y-112522000D03*
%TO.P,Q2,3*%
%TO.N,Net-(Q2-Pad3)*%
X125222000Y-112522000D03*
D17*
%TO.P,Q2,1*%
%TO.N,VCC*%
X122682000Y-112522000D03*
%TD*%
%TO.P,Q3,1*%
%TO.N,VCC*%
X122428000Y-120904000D03*
D18*
%TO.P,Q3,3*%
%TO.N,Net-(Q3-Pad3)*%
X124968000Y-120904000D03*
%TO.P,Q3,2*%
%TO.N,Net-(Q3-Pad2)*%
X123698000Y-120904000D03*
%TD*%
%TO.P,Q4,2*%
%TO.N,Net-(Q4-Pad2)*%
X117348000Y-120904000D03*
%TO.P,Q4,3*%
%TO.N,VCC*%
X118618000Y-120904000D03*
D17*
%TO.P,Q4,1*%
%TO.N,Net-(Q4-Pad1)*%
X116078000Y-120904000D03*
%TD*%
D15*
%TO.P,SW1,1*%
%TO.N,VCC*%
X137160000Y-115062000D03*
D16*
%TO.P,SW1,2*%
%TO.N,/SWITCH*%
X137160000Y-117602000D03*
%TO.P,SW1,3*%
%TO.N,GND*%
X137160000Y-120142000D03*
%TD*%
D19*
%TO.P,U1,1*%
%TO.N,/STB*%
X103886000Y-95504000D03*
D20*
%TO.P,U1,11*%
%TO.N,Net-(U1-Pad11)*%
X111506000Y-118364000D03*
%TO.P,U1,2*%
%TO.N,/MA6*%
X103886000Y-98044000D03*
%TO.P,U1,12*%
%TO.N,/DI6*%
X111506000Y-115824000D03*
%TO.P,U1,3*%
%TO.N,/SWITCH*%
X103886000Y-100584000D03*
%TO.P,U1,13*%
%TO.N,/DI7*%
X111506000Y-113284000D03*
%TO.P,U1,4*%
%TO.N,/~F1*%
X103886000Y-103124000D03*
%TO.P,U1,14*%
%TO.N,Net-(U1-Pad14)*%
X111506000Y-110744000D03*
%TO.P,U1,5*%
%TO.N,/~F2*%
X103886000Y-105664000D03*
%TO.P,U1,15*%
%TO.N,Net-(U1-Pad15)*%
X111506000Y-108204000D03*
%TO.P,U1,6*%
%TO.N,/MOD*%
X103886000Y-108204000D03*
%TO.P,U1,16*%
%TO.N,/B*%
X111506000Y-105664000D03*
%TO.P,U1,7*%
%TO.N,/~ZAT*%
X103886000Y-110744000D03*
%TO.P,U1,17*%
%TO.N,/G*%
X111506000Y-103124000D03*
%TO.P,U1,8*%
%TO.N,/VID*%
X103886000Y-113284000D03*
%TO.P,U1,18*%
%TO.N,/R*%
X111506000Y-100584000D03*
%TO.P,U1,9*%
%TO.N,/AMUX*%
X103886000Y-115824000D03*
%TO.P,U1,19*%
%TO.N,/A6O*%
X111506000Y-98044000D03*
%TO.P,U1,10*%
%TO.N,GND*%
X103886000Y-118364000D03*
%TO.P,U1,20*%
%TO.N,VCC*%
X111506000Y-95504000D03*
%TD*%
D21*
%TO.N,GND*%
X137160000Y-120142000D02*
X137160000Y-121692300D01*
X134112000Y-127000000D02*
X134112000Y-124740300D01*
X134112000Y-124740300D02*
X137160000Y-121692300D01*
X145288000Y-105664000D02*
X145288000Y-100584000D01*
X145288000Y-100584000D02*
X145288000Y-95504000D01*
X141732000Y-120142000D02*
X137160000Y-120142000D01*
X145288000Y-116586000D02*
X141732000Y-120142000D01*
X145288000Y-105664000D02*
X145288000Y-116586000D01*
X101092000Y-126492000D02*
X101092000Y-123063000D01*
X102489000Y-121666000D02*
X105156000Y-121666000D01*
X101092000Y-123063000D02*
X102489000Y-121666000D01*
X103886000Y-120396000D02*
X105156000Y-121666000D01*
X103886000Y-118364000D02*
X103886000Y-120396000D01*
%TO.N,VCC*%
X116586000Y-126492000D02*
X118618000Y-124460000D01*
X118618000Y-124460000D02*
X118618000Y-120904000D01*
D22*
%TO.N,Net-(C2-Pad1)*%
X106426000Y-134112000D02*
X106426000Y-135890000D01*
X106426000Y-135890000D02*
X106680000Y-136144000D01*
X106680000Y-136144000D02*
X113284000Y-136144000D01*
X113284000Y-136144000D02*
X114046000Y-135382000D01*
X114046000Y-132626998D02*
X118999000Y-127673998D01*
X114046000Y-135382000D02*
X114046000Y-132626998D01*
X118999000Y-127673998D02*
X118999000Y-126492000D01*
X118999000Y-126492000D02*
X121285000Y-124206000D01*
X121285000Y-124206000D02*
X124333000Y-124206000D01*
X129286000Y-119253000D02*
X129286000Y-117856000D01*
X124333000Y-124206000D02*
X129286000Y-119253000D01*
X101092000Y-134112000D02*
X106426000Y-134112000D01*
%TO.N,/SOUND*%
X123952000Y-127000000D02*
X123952000Y-125824700D01*
X123952000Y-125824700D02*
X131786000Y-117990700D01*
X131786000Y-117990700D02*
X131786000Y-117856000D01*
%TO.N,/GREEN*%
X137668000Y-100584000D02*
X134366000Y-100584000D01*
X139192000Y-100584000D02*
X137668000Y-100584000D01*
X140081000Y-101473000D02*
X139192000Y-100584000D01*
X140081000Y-106426000D02*
X140081000Y-101473000D01*
X135255000Y-111252000D02*
X140081000Y-106426000D01*
X135255000Y-119253000D02*
X135255000Y-111252000D01*
X131572000Y-122936000D02*
X135255000Y-119253000D01*
X131572000Y-127000000D02*
X131572000Y-122936000D01*
%TO.N,/RED*%
X137668000Y-105664000D02*
X134366000Y-105664000D01*
X134366000Y-114808000D02*
X134366000Y-105664000D01*
X134366000Y-119126000D02*
X134366000Y-114808000D01*
X132334000Y-121158000D02*
X134366000Y-119126000D01*
X130937000Y-121158000D02*
X132334000Y-121158000D01*
X129032000Y-123063000D02*
X130937000Y-121158000D01*
X129032000Y-127000000D02*
X129032000Y-123063000D01*
%TO.N,/BLUE*%
X137668000Y-95504000D02*
X134366000Y-95504000D01*
X132715000Y-95504000D02*
X134366000Y-95504000D01*
X131572000Y-114808000D02*
X131572000Y-96647000D01*
X133477000Y-116713000D02*
X131572000Y-114808000D01*
X133477000Y-118872000D02*
X133477000Y-116713000D01*
X131953000Y-120396000D02*
X133477000Y-118872000D01*
X130556000Y-120396000D02*
X131953000Y-120396000D01*
X126492000Y-124460000D02*
X130556000Y-120396000D01*
X131572000Y-96647000D02*
X132715000Y-95504000D01*
X126492000Y-127000000D02*
X126492000Y-124460000D01*
%TO.N,Net-(J1-Pad7)*%
X121412000Y-127000000D02*
X121412000Y-128175300D01*
X116586000Y-134112000D02*
X116586000Y-132986700D01*
X116586000Y-132986700D02*
X121397400Y-128175300D01*
X121397400Y-128175300D02*
X121412000Y-128175300D01*
%TO.N,/DI6*%
X113411000Y-115824000D02*
X111506000Y-115824000D01*
X113792000Y-104902000D02*
X113792000Y-115443000D01*
X113284000Y-104394000D02*
X113792000Y-104902000D01*
X101092000Y-104394000D02*
X113284000Y-104394000D01*
X113792000Y-115443000D02*
X113411000Y-115824000D01*
X94027000Y-102108000D02*
X98806000Y-102108000D01*
X98806000Y-102108000D02*
X101092000Y-104394000D01*
X92710000Y-103425000D02*
X94027000Y-102108000D01*
%TO.N,/DI7*%
X109347000Y-113284000D02*
X111506000Y-113284000D01*
X108331000Y-112268000D02*
X109347000Y-113284000D01*
X108331000Y-110363000D02*
X108331000Y-112268000D01*
X107442000Y-109474000D02*
X108331000Y-110363000D01*
X101092000Y-109474000D02*
X107442000Y-109474000D01*
X98806000Y-107188000D02*
X101092000Y-109474000D01*
X93933000Y-107188000D02*
X98806000Y-107188000D01*
X92710000Y-105965000D02*
X93933000Y-107188000D01*
%TO.N,/A6O*%
X92710000Y-100885000D02*
X92710000Y-98345000D01*
X108966000Y-98044000D02*
X111506000Y-98044000D01*
X107823000Y-96901000D02*
X108966000Y-98044000D01*
X107823000Y-94996000D02*
X107823000Y-96901000D01*
X106934000Y-94107000D02*
X107823000Y-94996000D01*
X91567000Y-94107000D02*
X106934000Y-94107000D01*
X91186000Y-94488000D02*
X91567000Y-94107000D01*
X91186000Y-98044000D02*
X91186000Y-94488000D01*
X91487000Y-98345000D02*
X91186000Y-98044000D01*
X92710000Y-98345000D02*
X91487000Y-98345000D01*
%TO.N,/SND*%
X111506000Y-133096000D02*
X111506000Y-134112000D01*
X109220000Y-130810000D02*
X111506000Y-133096000D01*
X99060000Y-130810000D02*
X109220000Y-130810000D01*
X96139000Y-127889000D02*
X99060000Y-130810000D01*
X93472000Y-127889000D02*
X96139000Y-127889000D01*
X91186000Y-125603000D02*
X93472000Y-127889000D01*
X91186000Y-111379000D02*
X91186000Y-125603000D01*
X91520000Y-111045000D02*
X91186000Y-111379000D01*
X92710000Y-111045000D02*
X91520000Y-111045000D01*
%TO.N,Net-(Q1-Pad3)*%
X124714000Y-104648000D02*
X124714000Y-107315000D01*
X122936000Y-102870000D02*
X124714000Y-104648000D01*
X122174000Y-102870000D02*
X122936000Y-102870000D01*
X121158000Y-101854000D02*
X122174000Y-102870000D01*
X121158000Y-94996000D02*
X121158000Y-101854000D01*
X118618000Y-108839000D02*
X118618000Y-112522000D01*
X122174000Y-93980000D02*
X121158000Y-94996000D01*
X119253000Y-108204000D02*
X118618000Y-108839000D01*
X126238000Y-93980000D02*
X122174000Y-93980000D01*
X123825000Y-108204000D02*
X119253000Y-108204000D01*
X126746000Y-94488000D02*
X126238000Y-93980000D01*
X124714000Y-107315000D02*
X123825000Y-108204000D01*
X126746000Y-95504000D02*
X126746000Y-94488000D01*
%TO.N,Net-(Q1-Pad2)*%
X117348000Y-111446700D02*
X117348000Y-112522000D01*
X120269000Y-105664000D02*
X117348000Y-108585000D01*
X117348000Y-108585000D02*
X117348000Y-111446700D01*
X123190000Y-105664000D02*
X120269000Y-105664000D01*
%TO.N,Net-(Q3-Pad3)*%
X124968000Y-116967000D02*
X124968000Y-120904000D01*
X126746000Y-115189000D02*
X124968000Y-116967000D01*
X126746000Y-105664000D02*
X126746000Y-115189000D01*
%TO.N,Net-(Q3-Pad2)*%
X123698000Y-117299100D02*
X123698000Y-120904000D01*
X126088000Y-114909100D02*
X123698000Y-117299100D01*
X126088000Y-108435000D02*
X126088000Y-114909100D01*
X125222000Y-107569000D02*
X126088000Y-108435000D01*
X125222000Y-97536000D02*
X125222000Y-107569000D01*
X123190000Y-95504000D02*
X125222000Y-97536000D01*
%TO.N,Net-(Q4-Pad2)*%
X111506000Y-126492000D02*
X111506000Y-125476000D01*
X111506000Y-125476000D02*
X112649000Y-124333000D01*
X112649000Y-124333000D02*
X115697000Y-124333000D01*
X115697000Y-124333000D02*
X117348000Y-122682000D01*
X117348000Y-122682000D02*
X117348000Y-120904000D01*
%TO.N,Net-(Q4-Pad1)*%
X106426000Y-126492000D02*
X106426000Y-125095000D01*
X106426000Y-125095000D02*
X107696000Y-123825000D01*
X107696000Y-123825000D02*
X114554000Y-123825000D01*
X116078000Y-122301000D02*
X116078000Y-120904000D01*
X114554000Y-123825000D02*
X116078000Y-122301000D01*
%TD*%
D23*
%TO.N,GND*%
X147168001Y-137008000D02*
X90322000Y-137008000D01*
X90322000Y-135294033D01*
X91961572Y-135294033D01*
X92279757Y-135747850D01*
X92884210Y-136073269D01*
X93540535Y-136274512D01*
X94223510Y-136343845D01*
X94906888Y-136278605D01*
X95564407Y-136081298D01*
X96170799Y-135759506D01*
X96188243Y-135747850D01*
X96506428Y-135294033D01*
X94234000Y-133021605D01*
X91961572Y-135294033D01*
X90322000Y-135294033D01*
X90322000Y-132831510D01*
X90732155Y-132831510D01*
X90797395Y-133514888D01*
X90994702Y-134172407D01*
X91316494Y-134778799D01*
X91328150Y-134796243D01*
X91781967Y-135114428D01*
X94054395Y-132842000D01*
X94413605Y-132842000D01*
X96686033Y-135114428D01*
X97139850Y-134796243D01*
X97465269Y-134191790D01*
X97666512Y-133535465D01*
X97735845Y-132852490D01*
X97670605Y-132169112D01*
X97473298Y-131511593D01*
X97151506Y-130905201D01*
X97139850Y-130887757D01*
X96686033Y-130569572D01*
X94413605Y-132842000D01*
X94054395Y-132842000D01*
X91781967Y-130569572D01*
X91328150Y-130887757D01*
X91002731Y-131492210D01*
X90801488Y-132148535D01*
X90732155Y-132831510D01*
X90322000Y-132831510D01*
X90322000Y-130389967D01*
X91961572Y-130389967D01*
X94234000Y-132662395D01*
X96506428Y-130389967D01*
X96188243Y-129936150D01*
X95583790Y-129610731D01*
X94927465Y-129409488D01*
X94244490Y-129340155D01*
X93561112Y-129405395D01*
X92903593Y-129602702D01*
X92297201Y-129924494D01*
X92279757Y-129936150D01*
X91961572Y-130389967D01*
X90322000Y-130389967D01*
X90322000Y-94488000D01*
X90422324Y-94488000D01*
X90426001Y-94525332D01*
X90426000Y-98006677D01*
X90422324Y-98044000D01*
X90426000Y-98081322D01*
X90426000Y-98081332D01*
X90436997Y-98192985D01*
X90451728Y-98241546D01*
X90480454Y-98336246D01*
X90551026Y-98468276D01*
X90569889Y-98491260D01*
X90645999Y-98584001D01*
X90675003Y-98607804D01*
X90923196Y-98855997D01*
X90946999Y-98885001D01*
X91062724Y-98979974D01*
X91194753Y-99050546D01*
X91338014Y-99094003D01*
X91430564Y-99103119D01*
X91556525Y-99291632D01*
X91763368Y-99498475D01*
X91937760Y-99615000D01*
X91763368Y-99731525D01*
X91556525Y-99938368D01*
X91394010Y-100181589D01*
X91282068Y-100451842D01*
X91225000Y-100738740D01*
X91225000Y-101031260D01*
X91282068Y-101318158D01*
X91394010Y-101588411D01*
X91556525Y-101831632D01*
X91763368Y-102038475D01*
X91937760Y-102155000D01*
X91763368Y-102271525D01*
X91556525Y-102478368D01*
X91394010Y-102721589D01*
X91282068Y-102991842D01*
X91225000Y-103278740D01*
X91225000Y-103571260D01*
X91282068Y-103858158D01*
X91394010Y-104128411D01*
X91556525Y-104371632D01*
X91763368Y-104578475D01*
X91937760Y-104695000D01*
X91763368Y-104811525D01*
X91556525Y-105018368D01*
X91394010Y-105261589D01*
X91282068Y-105531842D01*
X91225000Y-105818740D01*
X91225000Y-106111260D01*
X91282068Y-106398158D01*
X91394010Y-106668411D01*
X91556525Y-106911632D01*
X91763368Y-107118475D01*
X91937760Y-107235000D01*
X91763368Y-107351525D01*
X91556525Y-107558368D01*
X91394010Y-107801589D01*
X91282068Y-108071842D01*
X91225000Y-108358740D01*
X91225000Y-108651260D01*
X91282068Y-108938158D01*
X91394010Y-109208411D01*
X91556525Y-109451632D01*
X91763368Y-109658475D01*
X91937760Y-109775000D01*
X91763368Y-109891525D01*
X91556525Y-110098368D01*
X91428240Y-110290361D01*
X91371014Y-110295997D01*
X91227753Y-110339454D01*
X91095724Y-110410026D01*
X90979999Y-110504999D01*
X90956196Y-110534003D01*
X90675003Y-110815196D01*
X90645999Y-110838999D01*
X90599208Y-110896015D01*
X90551026Y-110954724D01*
X90480455Y-111086753D01*
X90480454Y-111086754D01*
X90436997Y-111230015D01*
X90426000Y-111341668D01*
X90426000Y-111341678D01*
X90422324Y-111379000D01*
X90426000Y-111416322D01*
X90426001Y-125565668D01*
X90422324Y-125603000D01*
X90426001Y-125640333D01*
X90436998Y-125751986D01*
X90447454Y-125786454D01*
X90480454Y-125895246D01*
X90551026Y-126027276D01*
X90619716Y-126110974D01*
X90646000Y-126143001D01*
X90674998Y-126166799D01*
X92908200Y-128400002D01*
X92931999Y-128429001D01*
X93047724Y-128523974D01*
X93179753Y-128594546D01*
X93323014Y-128638003D01*
X93434667Y-128649000D01*
X93434676Y-128649000D01*
X93471999Y-128652676D01*
X93509322Y-128649000D01*
X95824199Y-128649000D01*
X98496200Y-131321002D01*
X98519999Y-131350001D01*
X98635724Y-131444974D01*
X98767753Y-131515546D01*
X98911014Y-131559003D01*
X99022667Y-131570000D01*
X99022677Y-131570000D01*
X99060000Y-131573676D01*
X99097323Y-131570000D01*
X108905199Y-131570000D01*
X110532612Y-133197413D01*
X110469038Y-133260987D01*
X110322939Y-133479641D01*
X110222304Y-133722595D01*
X110171000Y-133980514D01*
X110171000Y-134243486D01*
X110222304Y-134501405D01*
X110322939Y-134744359D01*
X110469038Y-134963013D01*
X110654987Y-135148962D01*
X110873641Y-135295061D01*
X111088358Y-135384000D01*
X107186000Y-135384000D01*
X107186000Y-135209775D01*
X107277013Y-135148962D01*
X107462962Y-134963013D01*
X107609061Y-134744359D01*
X107709696Y-134501405D01*
X107761000Y-134243486D01*
X107761000Y-133980514D01*
X107709696Y-133722595D01*
X107609061Y-133479641D01*
X107462962Y-133260987D01*
X107277013Y-133075038D01*
X107058359Y-132928939D01*
X106815405Y-132828304D01*
X106557486Y-132777000D01*
X106294514Y-132777000D01*
X106036595Y-132828304D01*
X105793641Y-132928939D01*
X105574987Y-133075038D01*
X105389038Y-133260987D01*
X105328225Y-133352000D01*
X102189775Y-133352000D01*
X102128962Y-133260987D01*
X101943013Y-133075038D01*
X101724359Y-132928939D01*
X101481405Y-132828304D01*
X101223486Y-132777000D01*
X100960514Y-132777000D01*
X100702595Y-132828304D01*
X100459641Y-132928939D01*
X100240987Y-133075038D01*
X100055038Y-133260987D01*
X99908939Y-133479641D01*
X99808304Y-133722595D01*
X99757000Y-133980514D01*
X99757000Y-134243486D01*
X99808304Y-134501405D01*
X99908939Y-134744359D01*
X100055038Y-134963013D01*
X100240987Y-135148962D01*
X100459641Y-135295061D01*
X100702595Y-135395696D01*
X100960514Y-135447000D01*
X101223486Y-135447000D01*
X101481405Y-135395696D01*
X101724359Y-135295061D01*
X101943013Y-135148962D01*
X102128962Y-134963013D01*
X102189775Y-134872000D01*
X105328225Y-134872000D01*
X105389038Y-134963013D01*
X105574987Y-135148962D01*
X105666001Y-135209775D01*
X105666001Y-135852668D01*
X105662324Y-135890000D01*
X105666001Y-135927333D01*
X105676998Y-136038986D01*
X105689833Y-136081298D01*
X105720454Y-136182246D01*
X105791026Y-136314276D01*
X105862201Y-136401002D01*
X105886000Y-136430001D01*
X105914998Y-136453799D01*
X106116196Y-136654997D01*
X106139999Y-136684001D01*
X106255724Y-136778974D01*
X106387753Y-136849546D01*
X106531014Y-136893003D01*
X106642667Y-136904000D01*
X106642676Y-136904000D01*
X106679999Y-136907676D01*
X106717322Y-136904000D01*
X113246678Y-136904000D01*
X113284000Y-136907676D01*
X113321322Y-136904000D01*
X113321333Y-136904000D01*
X113432986Y-136893003D01*
X113576247Y-136849546D01*
X113708276Y-136778974D01*
X113824001Y-136684001D01*
X113847803Y-136654998D01*
X114557004Y-135945798D01*
X114586001Y-135922001D01*
X114680974Y-135806276D01*
X114751546Y-135674247D01*
X114795003Y-135530986D01*
X114806000Y-135419333D01*
X114806000Y-135419325D01*
X114809676Y-135382000D01*
X114806000Y-135344675D01*
X114806000Y-132941799D01*
X119510004Y-128237796D01*
X119539001Y-128213999D01*
X119633974Y-128098274D01*
X119704546Y-127966245D01*
X119748003Y-127822984D01*
X119759000Y-127711331D01*
X119759000Y-127711323D01*
X119762676Y-127673998D01*
X119759000Y-127636673D01*
X119759000Y-126806801D01*
X119980370Y-126585431D01*
X119927000Y-126853740D01*
X119927000Y-127146260D01*
X119984068Y-127433158D01*
X120096010Y-127703411D01*
X120258525Y-127946632D01*
X120404896Y-128093003D01*
X116074998Y-132422901D01*
X116046000Y-132446699D01*
X116022202Y-132475697D01*
X116022201Y-132475698D01*
X115951026Y-132562424D01*
X115880454Y-132694454D01*
X115855415Y-132777000D01*
X115839853Y-132828304D01*
X115836998Y-132837715D01*
X115822324Y-132986700D01*
X115825095Y-133014830D01*
X115734987Y-133075038D01*
X115549038Y-133260987D01*
X115402939Y-133479641D01*
X115302304Y-133722595D01*
X115251000Y-133980514D01*
X115251000Y-134243486D01*
X115302304Y-134501405D01*
X115402939Y-134744359D01*
X115549038Y-134963013D01*
X115734987Y-135148962D01*
X115953641Y-135295061D01*
X116196595Y-135395696D01*
X116454514Y-135447000D01*
X116717486Y-135447000D01*
X116975405Y-135395696D01*
X117218359Y-135295061D01*
X117219897Y-135294033D01*
X140983572Y-135294033D01*
X141301757Y-135747850D01*
X141906210Y-136073269D01*
X142562535Y-136274512D01*
X143245510Y-136343845D01*
X143928888Y-136278605D01*
X144586407Y-136081298D01*
X145192799Y-135759506D01*
X145210243Y-135747850D01*
X145528428Y-135294033D01*
X143256000Y-133021605D01*
X140983572Y-135294033D01*
X117219897Y-135294033D01*
X117437013Y-135148962D01*
X117622962Y-134963013D01*
X117769061Y-134744359D01*
X117869696Y-134501405D01*
X117921000Y-134243486D01*
X117921000Y-133980514D01*
X117869696Y-133722595D01*
X117769061Y-133479641D01*
X117622962Y-133260987D01*
X117504738Y-133142763D01*
X117815991Y-132831510D01*
X139754155Y-132831510D01*
X139819395Y-133514888D01*
X140016702Y-134172407D01*
X140338494Y-134778799D01*
X140350150Y-134796243D01*
X140803967Y-135114428D01*
X143076395Y-132842000D01*
X143435605Y-132842000D01*
X145708033Y-135114428D01*
X146161850Y-134796243D01*
X146487269Y-134191790D01*
X146688512Y-133535465D01*
X146757845Y-132852490D01*
X146692605Y-132169112D01*
X146495298Y-131511593D01*
X146173506Y-130905201D01*
X146161850Y-130887757D01*
X145708033Y-130569572D01*
X143435605Y-132842000D01*
X143076395Y-132842000D01*
X140803967Y-130569572D01*
X140350150Y-130887757D01*
X140024731Y-131492210D01*
X139823488Y-132148535D01*
X139754155Y-132831510D01*
X117815991Y-132831510D01*
X120257534Y-130389967D01*
X140983572Y-130389967D01*
X143256000Y-132662395D01*
X145528428Y-130389967D01*
X145210243Y-129936150D01*
X144605790Y-129610731D01*
X143949465Y-129409488D01*
X143266490Y-129340155D01*
X142583112Y-129405395D01*
X141925593Y-129602702D01*
X141319201Y-129924494D01*
X141301757Y-129936150D01*
X140983572Y-130389967D01*
X120257534Y-130389967D01*
X121841585Y-128805917D01*
X121952001Y-128715301D01*
X122046974Y-128599576D01*
X122117546Y-128467547D01*
X122161003Y-128324286D01*
X122165089Y-128282796D01*
X122358632Y-128153475D01*
X122565475Y-127946632D01*
X122682000Y-127772240D01*
X122798525Y-127946632D01*
X123005368Y-128153475D01*
X123248589Y-128315990D01*
X123518842Y-128427932D01*
X123805740Y-128485000D01*
X124098260Y-128485000D01*
X124385158Y-128427932D01*
X124655411Y-128315990D01*
X124898632Y-128153475D01*
X125105475Y-127946632D01*
X125222000Y-127772240D01*
X125338525Y-127946632D01*
X125545368Y-128153475D01*
X125788589Y-128315990D01*
X126058842Y-128427932D01*
X126345740Y-128485000D01*
X126638260Y-128485000D01*
X126925158Y-128427932D01*
X127195411Y-128315990D01*
X127438632Y-128153475D01*
X127645475Y-127946632D01*
X127762000Y-127772240D01*
X127878525Y-127946632D01*
X128085368Y-128153475D01*
X128328589Y-128315990D01*
X128598842Y-128427932D01*
X128885740Y-128485000D01*
X129178260Y-128485000D01*
X129465158Y-128427932D01*
X129735411Y-128315990D01*
X129978632Y-128153475D01*
X130185475Y-127946632D01*
X130302000Y-127772240D01*
X130418525Y-127946632D01*
X130625368Y-128153475D01*
X130868589Y-128315990D01*
X131138842Y-128427932D01*
X131425740Y-128485000D01*
X131718260Y-128485000D01*
X132005158Y-128427932D01*
X132275411Y-128315990D01*
X132518632Y-128153475D01*
X132725475Y-127946632D01*
X132847195Y-127764466D01*
X132916822Y-127881355D01*
X133111731Y-128097588D01*
X133345080Y-128271641D01*
X133607901Y-128396825D01*
X133755110Y-128441476D01*
X133985000Y-128320155D01*
X133985000Y-127127000D01*
X133965000Y-127127000D01*
X133965000Y-126873000D01*
X133985000Y-126873000D01*
X133985000Y-125679845D01*
X134239000Y-125679845D01*
X134239000Y-126873000D01*
X134259000Y-126873000D01*
X134259000Y-127127000D01*
X134239000Y-127127000D01*
X134239000Y-128320155D01*
X134468890Y-128441476D01*
X134616099Y-128396825D01*
X134878920Y-128271641D01*
X135112269Y-128097588D01*
X135188034Y-128013534D01*
X135212498Y-128094180D01*
X135271463Y-128204494D01*
X135350815Y-128301185D01*
X135447506Y-128380537D01*
X135557820Y-128439502D01*
X135677518Y-128475812D01*
X135802000Y-128488072D01*
X137502000Y-128488072D01*
X137626482Y-128475812D01*
X137746180Y-128439502D01*
X137856494Y-128380537D01*
X137953185Y-128301185D01*
X138032537Y-128204494D01*
X138091502Y-128094180D01*
X138127812Y-127974482D01*
X138140072Y-127850000D01*
X138140072Y-126150000D01*
X138127812Y-126025518D01*
X138091502Y-125905820D01*
X138032537Y-125795506D01*
X137953185Y-125698815D01*
X137856494Y-125619463D01*
X137746180Y-125560498D01*
X137626482Y-125524188D01*
X137502000Y-125511928D01*
X135802000Y-125511928D01*
X135677518Y-125524188D01*
X135557820Y-125560498D01*
X135447506Y-125619463D01*
X135350815Y-125698815D01*
X135271463Y-125795506D01*
X135212498Y-125905820D01*
X135188034Y-125986466D01*
X135112269Y-125902412D01*
X134878920Y-125728359D01*
X134616099Y-125603175D01*
X134468890Y-125558524D01*
X134239000Y-125679845D01*
X133985000Y-125679845D01*
X133755110Y-125558524D01*
X133607901Y-125603175D01*
X133345080Y-125728359D01*
X133111731Y-125902412D01*
X132916822Y-126118645D01*
X132847195Y-126235534D01*
X132725475Y-126053368D01*
X132518632Y-125846525D01*
X132332000Y-125721822D01*
X132332000Y-123250801D01*
X135083911Y-120498890D01*
X135718524Y-120498890D01*
X135763175Y-120646099D01*
X135888359Y-120908920D01*
X136062412Y-121142269D01*
X136278645Y-121337178D01*
X136528748Y-121486157D01*
X136803109Y-121583481D01*
X137033000Y-121462814D01*
X137033000Y-120269000D01*
X137287000Y-120269000D01*
X137287000Y-121462814D01*
X137516891Y-121583481D01*
X137791252Y-121486157D01*
X138041355Y-121337178D01*
X138257588Y-121142269D01*
X138431641Y-120908920D01*
X138556825Y-120646099D01*
X138601476Y-120498890D01*
X138480155Y-120269000D01*
X137287000Y-120269000D01*
X137033000Y-120269000D01*
X135839845Y-120269000D01*
X135718524Y-120498890D01*
X135083911Y-120498890D01*
X135745871Y-119836930D01*
X135839845Y-120015000D01*
X137033000Y-120015000D01*
X137033000Y-119995000D01*
X137287000Y-119995000D01*
X137287000Y-120015000D01*
X138480155Y-120015000D01*
X138601476Y-119785110D01*
X138556825Y-119637901D01*
X138431641Y-119375080D01*
X138257588Y-119141731D01*
X138041355Y-118946822D01*
X137924466Y-118877195D01*
X138106632Y-118755475D01*
X138313475Y-118548632D01*
X138475990Y-118305411D01*
X138587932Y-118035158D01*
X138645000Y-117748260D01*
X138645000Y-117455740D01*
X138587932Y-117168842D01*
X138475990Y-116898589D01*
X138313475Y-116655368D01*
X138181620Y-116523513D01*
X138254180Y-116501502D01*
X138364494Y-116442537D01*
X138461185Y-116363185D01*
X138540537Y-116266494D01*
X138599502Y-116156180D01*
X138635812Y-116036482D01*
X138648072Y-115912000D01*
X138648072Y-114212000D01*
X138635812Y-114087518D01*
X138599502Y-113967820D01*
X138540537Y-113857506D01*
X138461185Y-113760815D01*
X138364494Y-113681463D01*
X138254180Y-113622498D01*
X138134482Y-113586188D01*
X138010000Y-113573928D01*
X136310000Y-113573928D01*
X136185518Y-113586188D01*
X136065820Y-113622498D01*
X136015000Y-113649662D01*
X136015000Y-111566801D01*
X140592004Y-106989798D01*
X140621001Y-106966001D01*
X140715974Y-106850276D01*
X140786546Y-106718247D01*
X140830003Y-106574986D01*
X140841000Y-106463333D01*
X140841000Y-106463325D01*
X140844676Y-106426000D01*
X140841000Y-106388675D01*
X140841000Y-105997329D01*
X143995284Y-105997329D01*
X144027953Y-106105044D01*
X144138208Y-106342392D01*
X144292649Y-106553670D01*
X144485340Y-106730759D01*
X144708877Y-106866853D01*
X144954670Y-106956722D01*
X145161000Y-106834201D01*
X145161000Y-105791000D01*
X145415000Y-105791000D01*
X145415000Y-106834201D01*
X145621330Y-106956722D01*
X145867123Y-106866853D01*
X146090660Y-106730759D01*
X146283351Y-106553670D01*
X146437792Y-106342392D01*
X146548047Y-106105044D01*
X146580716Y-105997329D01*
X146457374Y-105791000D01*
X145415000Y-105791000D01*
X145161000Y-105791000D01*
X144118626Y-105791000D01*
X143995284Y-105997329D01*
X140841000Y-105997329D01*
X140841000Y-105330671D01*
X143995284Y-105330671D01*
X144118626Y-105537000D01*
X145161000Y-105537000D01*
X145161000Y-104493799D01*
X145415000Y-104493799D01*
X145415000Y-105537000D01*
X146457374Y-105537000D01*
X146580716Y-105330671D01*
X146548047Y-105222956D01*
X146437792Y-104985608D01*
X146283351Y-104774330D01*
X146090660Y-104597241D01*
X145867123Y-104461147D01*
X145621330Y-104371278D01*
X145415000Y-104493799D01*
X145161000Y-104493799D01*
X144954670Y-104371278D01*
X144708877Y-104461147D01*
X144485340Y-104597241D01*
X144292649Y-104774330D01*
X144138208Y-104985608D01*
X144027953Y-105222956D01*
X143995284Y-105330671D01*
X140841000Y-105330671D01*
X140841000Y-101510323D01*
X140844676Y-101473000D01*
X140841000Y-101435677D01*
X140841000Y-101435667D01*
X140830003Y-101324014D01*
X140786546Y-101180753D01*
X140715974Y-101048724D01*
X140621001Y-100932999D01*
X140601908Y-100917329D01*
X143995284Y-100917329D01*
X144027953Y-101025044D01*
X144138208Y-101262392D01*
X144292649Y-101473670D01*
X144485340Y-101650759D01*
X144708877Y-101786853D01*
X144954670Y-101876722D01*
X145161000Y-101754201D01*
X145161000Y-100711000D01*
X145415000Y-100711000D01*
X145415000Y-101754201D01*
X145621330Y-101876722D01*
X145867123Y-101786853D01*
X146090660Y-101650759D01*
X146283351Y-101473670D01*
X146437792Y-101262392D01*
X146548047Y-101025044D01*
X146580716Y-100917329D01*
X146457374Y-100711000D01*
X145415000Y-100711000D01*
X145161000Y-100711000D01*
X144118626Y-100711000D01*
X143995284Y-100917329D01*
X140601908Y-100917329D01*
X140592003Y-100909201D01*
X139933473Y-100250671D01*
X143995284Y-100250671D01*
X144118626Y-100457000D01*
X145161000Y-100457000D01*
X145161000Y-99413799D01*
X145415000Y-99413799D01*
X145415000Y-100457000D01*
X146457374Y-100457000D01*
X146580716Y-100250671D01*
X146548047Y-100142956D01*
X146437792Y-99905608D01*
X146283351Y-99694330D01*
X146090660Y-99517241D01*
X145867123Y-99381147D01*
X145621330Y-99291278D01*
X145415000Y-99413799D01*
X145161000Y-99413799D01*
X144954670Y-99291278D01*
X144708877Y-99381147D01*
X144485340Y-99517241D01*
X144292649Y-99694330D01*
X144138208Y-99905608D01*
X144027953Y-100142956D01*
X143995284Y-100250671D01*
X139933473Y-100250671D01*
X139755803Y-100073002D01*
X139732001Y-100043999D01*
X139616276Y-99949026D01*
X139484247Y-99878454D01*
X139340986Y-99834997D01*
X139229333Y-99824000D01*
X139229322Y-99824000D01*
X139192000Y-99820324D01*
X139154678Y-99824000D01*
X138765775Y-99824000D01*
X138704962Y-99732987D01*
X138519013Y-99547038D01*
X138300359Y-99400939D01*
X138057405Y-99300304D01*
X137799486Y-99249000D01*
X137536514Y-99249000D01*
X137278595Y-99300304D01*
X137035641Y-99400939D01*
X136816987Y-99547038D01*
X136631038Y-99732987D01*
X136570225Y-99824000D01*
X135463775Y-99824000D01*
X135402962Y-99732987D01*
X135217013Y-99547038D01*
X134998359Y-99400939D01*
X134755405Y-99300304D01*
X134497486Y-99249000D01*
X134234514Y-99249000D01*
X133976595Y-99300304D01*
X133733641Y-99400939D01*
X133514987Y-99547038D01*
X133329038Y-99732987D01*
X133182939Y-99951641D01*
X133082304Y-100194595D01*
X133031000Y-100452514D01*
X133031000Y-100715486D01*
X133082304Y-100973405D01*
X133182939Y-101216359D01*
X133329038Y-101435013D01*
X133514987Y-101620962D01*
X133733641Y-101767061D01*
X133976595Y-101867696D01*
X134234514Y-101919000D01*
X134497486Y-101919000D01*
X134755405Y-101867696D01*
X134998359Y-101767061D01*
X135217013Y-101620962D01*
X135402962Y-101435013D01*
X135463775Y-101344000D01*
X136570225Y-101344000D01*
X136631038Y-101435013D01*
X136816987Y-101620962D01*
X137035641Y-101767061D01*
X137278595Y-101867696D01*
X137536514Y-101919000D01*
X137799486Y-101919000D01*
X138057405Y-101867696D01*
X138300359Y-101767061D01*
X138519013Y-101620962D01*
X138704962Y-101435013D01*
X138765775Y-101344000D01*
X138877199Y-101344000D01*
X139321001Y-101787803D01*
X139321000Y-106111198D01*
X135126000Y-110306199D01*
X135126000Y-106761775D01*
X135217013Y-106700962D01*
X135402962Y-106515013D01*
X135463775Y-106424000D01*
X136570225Y-106424000D01*
X136631038Y-106515013D01*
X136816987Y-106700962D01*
X137035641Y-106847061D01*
X137278595Y-106947696D01*
X137536514Y-106999000D01*
X137799486Y-106999000D01*
X138057405Y-106947696D01*
X138300359Y-106847061D01*
X138519013Y-106700962D01*
X138704962Y-106515013D01*
X138851061Y-106296359D01*
X138951696Y-106053405D01*
X139003000Y-105795486D01*
X139003000Y-105532514D01*
X138951696Y-105274595D01*
X138851061Y-105031641D01*
X138704962Y-104812987D01*
X138519013Y-104627038D01*
X138300359Y-104480939D01*
X138057405Y-104380304D01*
X137799486Y-104329000D01*
X137536514Y-104329000D01*
X137278595Y-104380304D01*
X137035641Y-104480939D01*
X136816987Y-104627038D01*
X136631038Y-104812987D01*
X136570225Y-104904000D01*
X135463775Y-104904000D01*
X135402962Y-104812987D01*
X135217013Y-104627038D01*
X134998359Y-104480939D01*
X134755405Y-104380304D01*
X134497486Y-104329000D01*
X134234514Y-104329000D01*
X133976595Y-104380304D01*
X133733641Y-104480939D01*
X133514987Y-104627038D01*
X133329038Y-104812987D01*
X133182939Y-105031641D01*
X133082304Y-105274595D01*
X133031000Y-105532514D01*
X133031000Y-105795486D01*
X133082304Y-106053405D01*
X133182939Y-106296359D01*
X133329038Y-106515013D01*
X133514987Y-106700962D01*
X133606001Y-106761775D01*
X133606000Y-114845332D01*
X133606001Y-114845342D01*
X133606001Y-115767199D01*
X132332000Y-114493199D01*
X132332000Y-96961801D01*
X133029802Y-96264000D01*
X133268225Y-96264000D01*
X133329038Y-96355013D01*
X133514987Y-96540962D01*
X133733641Y-96687061D01*
X133976595Y-96787696D01*
X134234514Y-96839000D01*
X134497486Y-96839000D01*
X134755405Y-96787696D01*
X134998359Y-96687061D01*
X135217013Y-96540962D01*
X135402962Y-96355013D01*
X135463775Y-96264000D01*
X136570225Y-96264000D01*
X136631038Y-96355013D01*
X136816987Y-96540962D01*
X137035641Y-96687061D01*
X137278595Y-96787696D01*
X137536514Y-96839000D01*
X137799486Y-96839000D01*
X138057405Y-96787696D01*
X138300359Y-96687061D01*
X138519013Y-96540962D01*
X138704962Y-96355013D01*
X138851061Y-96136359D01*
X138951696Y-95893405D01*
X138962850Y-95837329D01*
X143995284Y-95837329D01*
X144027953Y-95945044D01*
X144138208Y-96182392D01*
X144292649Y-96393670D01*
X144485340Y-96570759D01*
X144708877Y-96706853D01*
X144954670Y-96796722D01*
X145161000Y-96674201D01*
X145161000Y-95631000D01*
X145415000Y-95631000D01*
X145415000Y-96674201D01*
X145621330Y-96796722D01*
X145867123Y-96706853D01*
X146090660Y-96570759D01*
X146283351Y-96393670D01*
X146437792Y-96182392D01*
X146548047Y-95945044D01*
X146580716Y-95837329D01*
X146457374Y-95631000D01*
X145415000Y-95631000D01*
X145161000Y-95631000D01*
X144118626Y-95631000D01*
X143995284Y-95837329D01*
X138962850Y-95837329D01*
X139003000Y-95635486D01*
X139003000Y-95372514D01*
X138962851Y-95170671D01*
X143995284Y-95170671D01*
X144118626Y-95377000D01*
X145161000Y-95377000D01*
X145161000Y-94333799D01*
X145415000Y-94333799D01*
X145415000Y-95377000D01*
X146457374Y-95377000D01*
X146580716Y-95170671D01*
X146548047Y-95062956D01*
X146437792Y-94825608D01*
X146283351Y-94614330D01*
X146090660Y-94437241D01*
X145867123Y-94301147D01*
X145621330Y-94211278D01*
X145415000Y-94333799D01*
X145161000Y-94333799D01*
X144954670Y-94211278D01*
X144708877Y-94301147D01*
X144485340Y-94437241D01*
X144292649Y-94614330D01*
X144138208Y-94825608D01*
X144027953Y-95062956D01*
X143995284Y-95170671D01*
X138962851Y-95170671D01*
X138951696Y-95114595D01*
X138851061Y-94871641D01*
X138704962Y-94652987D01*
X138519013Y-94467038D01*
X138300359Y-94320939D01*
X138057405Y-94220304D01*
X137799486Y-94169000D01*
X137536514Y-94169000D01*
X137278595Y-94220304D01*
X137035641Y-94320939D01*
X136816987Y-94467038D01*
X136631038Y-94652987D01*
X136570225Y-94744000D01*
X135463775Y-94744000D01*
X135402962Y-94652987D01*
X135217013Y-94467038D01*
X134998359Y-94320939D01*
X134755405Y-94220304D01*
X134497486Y-94169000D01*
X134234514Y-94169000D01*
X133976595Y-94220304D01*
X133733641Y-94320939D01*
X133514987Y-94467038D01*
X133329038Y-94652987D01*
X133268225Y-94744000D01*
X132752322Y-94744000D01*
X132714999Y-94740324D01*
X132677676Y-94744000D01*
X132677667Y-94744000D01*
X132566014Y-94754997D01*
X132422753Y-94798454D01*
X132290723Y-94869026D01*
X132207083Y-94937668D01*
X132174999Y-94963999D01*
X132151201Y-94992997D01*
X131060998Y-96083201D01*
X131032000Y-96106999D01*
X131008202Y-96135997D01*
X131008201Y-96135998D01*
X130937026Y-96222724D01*
X130866454Y-96354754D01*
X130822998Y-96498015D01*
X130808324Y-96647000D01*
X130812001Y-96684333D01*
X130812000Y-114770678D01*
X130808324Y-114808000D01*
X130812000Y-114845322D01*
X130812000Y-114845332D01*
X130822997Y-114956985D01*
X130855459Y-115064000D01*
X130866454Y-115100246D01*
X130937026Y-115232276D01*
X130969785Y-115272192D01*
X131031999Y-115348001D01*
X131061003Y-115371804D01*
X132155605Y-116466406D01*
X131927335Y-116421000D01*
X131644665Y-116421000D01*
X131367426Y-116476147D01*
X131106273Y-116584320D01*
X130871241Y-116741363D01*
X130704661Y-116907943D01*
X130675502Y-116811820D01*
X130616537Y-116701506D01*
X130537185Y-116604815D01*
X130440494Y-116525463D01*
X130330180Y-116466498D01*
X130210482Y-116430188D01*
X130086000Y-116417928D01*
X128486000Y-116417928D01*
X128361518Y-116430188D01*
X128241820Y-116466498D01*
X128131506Y-116525463D01*
X128034815Y-116604815D01*
X127955463Y-116701506D01*
X127896498Y-116811820D01*
X127860188Y-116931518D01*
X127847928Y-117056000D01*
X127847928Y-118656000D01*
X127860188Y-118780482D01*
X127896498Y-118900180D01*
X127955463Y-119010494D01*
X128034815Y-119107185D01*
X128131506Y-119186537D01*
X128226751Y-119237447D01*
X126111588Y-121352610D01*
X126128000Y-121185978D01*
X126128000Y-120622021D01*
X126111215Y-120451600D01*
X126044885Y-120232940D01*
X125937171Y-120031421D01*
X125792212Y-119854788D01*
X125728000Y-119802091D01*
X125728000Y-117281801D01*
X127257003Y-115752799D01*
X127286001Y-115729001D01*
X127380974Y-115613276D01*
X127451546Y-115481247D01*
X127495003Y-115337986D01*
X127506000Y-115226333D01*
X127506000Y-115226325D01*
X127509676Y-115189000D01*
X127506000Y-115151675D01*
X127506000Y-106761775D01*
X127597013Y-106700962D01*
X127782962Y-106515013D01*
X127929061Y-106296359D01*
X128029696Y-106053405D01*
X128081000Y-105795486D01*
X128081000Y-105532514D01*
X128029696Y-105274595D01*
X127929061Y-105031641D01*
X127782962Y-104812987D01*
X127597013Y-104627038D01*
X127378359Y-104480939D01*
X127135405Y-104380304D01*
X126877486Y-104329000D01*
X126614514Y-104329000D01*
X126356595Y-104380304D01*
X126113641Y-104480939D01*
X125982000Y-104568898D01*
X125982000Y-101679102D01*
X126113641Y-101767061D01*
X126356595Y-101867696D01*
X126614514Y-101919000D01*
X126877486Y-101919000D01*
X127135405Y-101867696D01*
X127378359Y-101767061D01*
X127597013Y-101620962D01*
X127782962Y-101435013D01*
X127929061Y-101216359D01*
X128029696Y-100973405D01*
X128081000Y-100715486D01*
X128081000Y-100452514D01*
X128029696Y-100194595D01*
X127929061Y-99951641D01*
X127782962Y-99732987D01*
X127597013Y-99547038D01*
X127378359Y-99400939D01*
X127135405Y-99300304D01*
X126877486Y-99249000D01*
X126614514Y-99249000D01*
X126356595Y-99300304D01*
X126113641Y-99400939D01*
X125982000Y-99488898D01*
X125982000Y-97573323D01*
X125985676Y-97536000D01*
X125982000Y-97498677D01*
X125982000Y-97498667D01*
X125971003Y-97387014D01*
X125927546Y-97243753D01*
X125921762Y-97232932D01*
X125856974Y-97111723D01*
X125785799Y-97024997D01*
X125762001Y-96995999D01*
X125733004Y-96972202D01*
X124503645Y-95742844D01*
X124525000Y-95635486D01*
X124525000Y-95372514D01*
X124473696Y-95114595D01*
X124373061Y-94871641D01*
X124285102Y-94740000D01*
X125650898Y-94740000D01*
X125562939Y-94871641D01*
X125462304Y-95114595D01*
X125411000Y-95372514D01*
X125411000Y-95635486D01*
X125462304Y-95893405D01*
X125562939Y-96136359D01*
X125709038Y-96355013D01*
X125894987Y-96540962D01*
X126113641Y-96687061D01*
X126356595Y-96787696D01*
X126614514Y-96839000D01*
X126877486Y-96839000D01*
X127135405Y-96787696D01*
X127378359Y-96687061D01*
X127597013Y-96540962D01*
X127782962Y-96355013D01*
X127929061Y-96136359D01*
X128029696Y-95893405D01*
X128081000Y-95635486D01*
X128081000Y-95372514D01*
X128029696Y-95114595D01*
X127929061Y-94871641D01*
X127782962Y-94652987D01*
X127597013Y-94467038D01*
X127501314Y-94403095D01*
X127495003Y-94339014D01*
X127451546Y-94195753D01*
X127380974Y-94063724D01*
X127286001Y-93947999D01*
X127257002Y-93924200D01*
X126801803Y-93469002D01*
X126778001Y-93439999D01*
X126662276Y-93345026D01*
X126530247Y-93274454D01*
X126386986Y-93230997D01*
X126275333Y-93220000D01*
X126275322Y-93220000D01*
X126238000Y-93216324D01*
X126200678Y-93220000D01*
X122211322Y-93220000D01*
X122174000Y-93216324D01*
X122136677Y-93220000D01*
X122136667Y-93220000D01*
X122025014Y-93230997D01*
X121881753Y-93274454D01*
X121749723Y-93345026D01*
X121680966Y-93401454D01*
X121633999Y-93439999D01*
X121610201Y-93468997D01*
X120647002Y-94432196D01*
X120617999Y-94455999D01*
X120578758Y-94503815D01*
X120523026Y-94571724D01*
X120452911Y-94702899D01*
X120452454Y-94703754D01*
X120408997Y-94847015D01*
X120398000Y-94958668D01*
X120398000Y-94958678D01*
X120394324Y-94996000D01*
X120398000Y-95033323D01*
X120398001Y-101816668D01*
X120394324Y-101854000D01*
X120398001Y-101891333D01*
X120400449Y-101916182D01*
X120408998Y-102002985D01*
X120452454Y-102146246D01*
X120523026Y-102278276D01*
X120589273Y-102358997D01*
X120618000Y-102394001D01*
X120646998Y-102417799D01*
X121610200Y-103381002D01*
X121633999Y-103410001D01*
X121662997Y-103433799D01*
X121749723Y-103504974D01*
X121873735Y-103571260D01*
X121881753Y-103575546D01*
X122025014Y-103619003D01*
X122136667Y-103630000D01*
X122136677Y-103630000D01*
X122174000Y-103633676D01*
X122211322Y-103630000D01*
X122621199Y-103630000D01*
X123320198Y-104329000D01*
X123058514Y-104329000D01*
X122800595Y-104380304D01*
X122557641Y-104480939D01*
X122338987Y-104627038D01*
X122153038Y-104812987D01*
X122092225Y-104904000D01*
X120306323Y-104904000D01*
X120269000Y-104900324D01*
X120231677Y-104904000D01*
X120231667Y-104904000D01*
X120120014Y-104914997D01*
X119976753Y-104958454D01*
X119844724Y-105029026D01*
X119728999Y-105123999D01*
X119705201Y-105152997D01*
X116837003Y-108021196D01*
X116807999Y-108044999D01*
X116755474Y-108109001D01*
X116713026Y-108160724D01*
X116646057Y-108286014D01*
X116642454Y-108292754D01*
X116598997Y-108436015D01*
X116588000Y-108547668D01*
X116588000Y-108547678D01*
X116584324Y-108585000D01*
X116588000Y-108622323D01*
X116588001Y-111133928D01*
X115553000Y-111133928D01*
X115428518Y-111146188D01*
X115308820Y-111182498D01*
X115198506Y-111241463D01*
X115101815Y-111320815D01*
X115022463Y-111417506D01*
X114963498Y-111527820D01*
X114927188Y-111647518D01*
X114914928Y-111772000D01*
X114914928Y-113272000D01*
X114927188Y-113396482D01*
X114963498Y-113516180D01*
X115022463Y-113626494D01*
X115101815Y-113723185D01*
X115198506Y-113802537D01*
X115308820Y-113861502D01*
X115428518Y-113897812D01*
X115553000Y-113910072D01*
X116603000Y-113910072D01*
X116727482Y-113897812D01*
X116847180Y-113861502D01*
X116911902Y-113826907D01*
X117120601Y-113890215D01*
X117348000Y-113912612D01*
X117575400Y-113890215D01*
X117794060Y-113823885D01*
X117983001Y-113722894D01*
X118171941Y-113823885D01*
X118390601Y-113890215D01*
X118618000Y-113912612D01*
X118845400Y-113890215D01*
X119064060Y-113823885D01*
X119265579Y-113716171D01*
X119442212Y-113571212D01*
X119587171Y-113394579D01*
X119694885Y-113193059D01*
X119761215Y-112974399D01*
X119778000Y-112803978D01*
X119778000Y-112240021D01*
X119761215Y-112069600D01*
X119694885Y-111850940D01*
X119587171Y-111649421D01*
X119442212Y-111472788D01*
X119378000Y-111420091D01*
X119378000Y-109153801D01*
X119567802Y-108964000D01*
X123787678Y-108964000D01*
X123825000Y-108967676D01*
X123862322Y-108964000D01*
X123862333Y-108964000D01*
X123973986Y-108953003D01*
X124117247Y-108909546D01*
X124249276Y-108838974D01*
X124365001Y-108744001D01*
X124388803Y-108714998D01*
X124841000Y-108262801D01*
X125328000Y-108749802D01*
X125328000Y-111141828D01*
X125222000Y-111131388D01*
X124994600Y-111153785D01*
X124775940Y-111220115D01*
X124586999Y-111321106D01*
X124398059Y-111220115D01*
X124179399Y-111153785D01*
X123952000Y-111131388D01*
X123724600Y-111153785D01*
X123515902Y-111217093D01*
X123451180Y-111182498D01*
X123331482Y-111146188D01*
X123207000Y-111133928D01*
X122157000Y-111133928D01*
X122032518Y-111146188D01*
X121912820Y-111182498D01*
X121802506Y-111241463D01*
X121705815Y-111320815D01*
X121626463Y-111417506D01*
X121567498Y-111527820D01*
X121531188Y-111647518D01*
X121518928Y-111772000D01*
X121518928Y-113272000D01*
X121531188Y-113396482D01*
X121567498Y-113516180D01*
X121626463Y-113626494D01*
X121705815Y-113723185D01*
X121802506Y-113802537D01*
X121912820Y-113861502D01*
X122032518Y-113897812D01*
X122157000Y-113910072D01*
X123207000Y-113910072D01*
X123331482Y-113897812D01*
X123451180Y-113861502D01*
X123515902Y-113826907D01*
X123724601Y-113890215D01*
X123952000Y-113912612D01*
X124179400Y-113890215D01*
X124398060Y-113823885D01*
X124587001Y-113722894D01*
X124775941Y-113823885D01*
X124994601Y-113890215D01*
X125222000Y-113912612D01*
X125328001Y-113902172D01*
X125328001Y-114594296D01*
X123187003Y-116735296D01*
X123157999Y-116759099D01*
X123109649Y-116818014D01*
X123063026Y-116874824D01*
X122992455Y-117006853D01*
X122992454Y-117006854D01*
X122948997Y-117150115D01*
X122938000Y-117261768D01*
X122938000Y-117261778D01*
X122934324Y-117299100D01*
X122938000Y-117336423D01*
X122938001Y-119515928D01*
X121903000Y-119515928D01*
X121778518Y-119528188D01*
X121658820Y-119564498D01*
X121548506Y-119623463D01*
X121451815Y-119702815D01*
X121372463Y-119799506D01*
X121313498Y-119909820D01*
X121277188Y-120029518D01*
X121264928Y-120154000D01*
X121264928Y-121654000D01*
X121277188Y-121778482D01*
X121313498Y-121898180D01*
X121372463Y-122008494D01*
X121451815Y-122105185D01*
X121548506Y-122184537D01*
X121658820Y-122243502D01*
X121778518Y-122279812D01*
X121903000Y-122292072D01*
X122953000Y-122292072D01*
X123077482Y-122279812D01*
X123197180Y-122243502D01*
X123261902Y-122208907D01*
X123470601Y-122272215D01*
X123698000Y-122294612D01*
X123925400Y-122272215D01*
X124144060Y-122205885D01*
X124333000Y-122104894D01*
X124521941Y-122205885D01*
X124740601Y-122272215D01*
X124968000Y-122294612D01*
X125191610Y-122272588D01*
X124018199Y-123446000D01*
X121322322Y-123446000D01*
X121284999Y-123442324D01*
X121247676Y-123446000D01*
X121247667Y-123446000D01*
X121136014Y-123456997D01*
X120992753Y-123500454D01*
X120860724Y-123571026D01*
X120744999Y-123665999D01*
X120721201Y-123694997D01*
X119736891Y-124679307D01*
X119753000Y-124515752D01*
X119753000Y-124515751D01*
X119758491Y-124460000D01*
X119753000Y-124404249D01*
X119753000Y-121383480D01*
X119761215Y-121356399D01*
X119778000Y-121185978D01*
X119778000Y-120622021D01*
X119761215Y-120451600D01*
X119694885Y-120232940D01*
X119587171Y-120031421D01*
X119442212Y-119854788D01*
X119265578Y-119709829D01*
X119064059Y-119602115D01*
X118845399Y-119535785D01*
X118618000Y-119513388D01*
X118390600Y-119535785D01*
X118171940Y-119602115D01*
X117983000Y-119703106D01*
X117794059Y-119602115D01*
X117575399Y-119535785D01*
X117348000Y-119513388D01*
X117120600Y-119535785D01*
X116911902Y-119599093D01*
X116847180Y-119564498D01*
X116727482Y-119528188D01*
X116603000Y-119515928D01*
X115553000Y-119515928D01*
X115428518Y-119528188D01*
X115308820Y-119564498D01*
X115198506Y-119623463D01*
X115101815Y-119702815D01*
X115022463Y-119799506D01*
X114963498Y-119909820D01*
X114927188Y-120029518D01*
X114914928Y-120154000D01*
X114914928Y-121654000D01*
X114927188Y-121778482D01*
X114963498Y-121898180D01*
X115022463Y-122008494D01*
X115101815Y-122105185D01*
X115155200Y-122148997D01*
X114239199Y-123065000D01*
X110478317Y-123065000D01*
X110574574Y-123045853D01*
X110835727Y-122937680D01*
X111070759Y-122780637D01*
X111270637Y-122580759D01*
X111427680Y-122345727D01*
X111535853Y-122084574D01*
X111591000Y-121807335D01*
X111591000Y-121524665D01*
X111535853Y-121247426D01*
X111427680Y-120986273D01*
X111270637Y-120751241D01*
X111070759Y-120551363D01*
X110835727Y-120394320D01*
X110574574Y-120286147D01*
X110297335Y-120231000D01*
X110014665Y-120231000D01*
X109737426Y-120286147D01*
X109476273Y-120394320D01*
X109241241Y-120551363D01*
X109041363Y-120751241D01*
X108884320Y-120986273D01*
X108776147Y-121247426D01*
X108721000Y-121524665D01*
X108721000Y-121807335D01*
X108776147Y-122084574D01*
X108884320Y-122345727D01*
X109041363Y-122580759D01*
X109241241Y-122780637D01*
X109476273Y-122937680D01*
X109737426Y-123045853D01*
X109833683Y-123065000D01*
X107733322Y-123065000D01*
X107695999Y-123061324D01*
X107658676Y-123065000D01*
X107658667Y-123065000D01*
X107547014Y-123075997D01*
X107403753Y-123119454D01*
X107271724Y-123190026D01*
X107155999Y-123284999D01*
X107132201Y-123313997D01*
X105914998Y-124531201D01*
X105886000Y-124554999D01*
X105862202Y-124583997D01*
X105862201Y-124583998D01*
X105791026Y-124670724D01*
X105720454Y-124802754D01*
X105709361Y-124839324D01*
X105676998Y-124946014D01*
X105671681Y-125000001D01*
X105662324Y-125095000D01*
X105666001Y-125132332D01*
X105666001Y-125394225D01*
X105574987Y-125455038D01*
X105389038Y-125640987D01*
X105242939Y-125859641D01*
X105142304Y-126102595D01*
X105091000Y-126360514D01*
X105091000Y-126623486D01*
X105142304Y-126881405D01*
X105242939Y-127124359D01*
X105389038Y-127343013D01*
X105574987Y-127528962D01*
X105793641Y-127675061D01*
X106036595Y-127775696D01*
X106294514Y-127827000D01*
X106557486Y-127827000D01*
X106815405Y-127775696D01*
X107058359Y-127675061D01*
X107277013Y-127528962D01*
X107462962Y-127343013D01*
X107609061Y-127124359D01*
X107709696Y-126881405D01*
X107761000Y-126623486D01*
X107761000Y-126360514D01*
X107709696Y-126102595D01*
X107609061Y-125859641D01*
X107462962Y-125640987D01*
X107277013Y-125455038D01*
X107195337Y-125400464D01*
X108010802Y-124585000D01*
X111322199Y-124585000D01*
X110994998Y-124912201D01*
X110966000Y-124935999D01*
X110942202Y-124964997D01*
X110942201Y-124964998D01*
X110871026Y-125051724D01*
X110800454Y-125183754D01*
X110785834Y-125231953D01*
X110761038Y-125313698D01*
X110756998Y-125327015D01*
X110750687Y-125391094D01*
X110654987Y-125455038D01*
X110469038Y-125640987D01*
X110322939Y-125859641D01*
X110222304Y-126102595D01*
X110171000Y-126360514D01*
X110171000Y-126623486D01*
X110222304Y-126881405D01*
X110322939Y-127124359D01*
X110469038Y-127343013D01*
X110654987Y-127528962D01*
X110873641Y-127675061D01*
X111116595Y-127775696D01*
X111374514Y-127827000D01*
X111637486Y-127827000D01*
X111895405Y-127775696D01*
X112138359Y-127675061D01*
X112357013Y-127528962D01*
X112542962Y-127343013D01*
X112689061Y-127124359D01*
X112789696Y-126881405D01*
X112841000Y-126623486D01*
X112841000Y-126360514D01*
X112789696Y-126102595D01*
X112689061Y-125859641D01*
X112542962Y-125640987D01*
X112479388Y-125577413D01*
X112963802Y-125093000D01*
X115659678Y-125093000D01*
X115697000Y-125096676D01*
X115734322Y-125093000D01*
X115734333Y-125093000D01*
X115845986Y-125082003D01*
X115989247Y-125038546D01*
X116121276Y-124967974D01*
X116237001Y-124873001D01*
X116260804Y-124843997D01*
X117483000Y-123621802D01*
X117483000Y-123989868D01*
X116281442Y-125191427D01*
X116196595Y-125208304D01*
X115953641Y-125308939D01*
X115734987Y-125455038D01*
X115549038Y-125640987D01*
X115402939Y-125859641D01*
X115302304Y-126102595D01*
X115251000Y-126360514D01*
X115251000Y-126623486D01*
X115302304Y-126881405D01*
X115402939Y-127124359D01*
X115549038Y-127343013D01*
X115734987Y-127528962D01*
X115953641Y-127675061D01*
X116196595Y-127775696D01*
X116454514Y-127827000D01*
X116717486Y-127827000D01*
X116975405Y-127775696D01*
X117218359Y-127675061D01*
X117437013Y-127528962D01*
X117622962Y-127343013D01*
X117769061Y-127124359D01*
X117869696Y-126881405D01*
X117886573Y-126796558D01*
X118240152Y-126442979D01*
X118235324Y-126492000D01*
X118239001Y-126529332D01*
X118239000Y-127359196D01*
X113534998Y-132063199D01*
X113506000Y-132086997D01*
X113482202Y-132115995D01*
X113482201Y-132115996D01*
X113411026Y-132202722D01*
X113340454Y-132334752D01*
X113296998Y-132478013D01*
X113282324Y-132626998D01*
X113286001Y-132664330D01*
X113286000Y-135067198D01*
X112969199Y-135384000D01*
X111923642Y-135384000D01*
X112138359Y-135295061D01*
X112357013Y-135148962D01*
X112542962Y-134963013D01*
X112689061Y-134744359D01*
X112789696Y-134501405D01*
X112841000Y-134243486D01*
X112841000Y-133980514D01*
X112789696Y-133722595D01*
X112689061Y-133479641D01*
X112542962Y-133260987D01*
X112357013Y-133075038D01*
X112261314Y-133011095D01*
X112255003Y-132947014D01*
X112211546Y-132803753D01*
X112140974Y-132671724D01*
X112046001Y-132555999D01*
X112017004Y-132532202D01*
X109783804Y-130299003D01*
X109760001Y-130269999D01*
X109644276Y-130175026D01*
X109512247Y-130104454D01*
X109368986Y-130060997D01*
X109257333Y-130050000D01*
X109257322Y-130050000D01*
X109220000Y-130046324D01*
X109182678Y-130050000D01*
X99374802Y-130050000D01*
X96702804Y-127378003D01*
X96679001Y-127348999D01*
X96563276Y-127254026D01*
X96431247Y-127183454D01*
X96287986Y-127139997D01*
X96176333Y-127129000D01*
X96176322Y-127129000D01*
X96139000Y-127125324D01*
X96101678Y-127129000D01*
X93786802Y-127129000D01*
X93483132Y-126825330D01*
X99799278Y-126825330D01*
X99889147Y-127071123D01*
X100025241Y-127294660D01*
X100202330Y-127487351D01*
X100413608Y-127641792D01*
X100650956Y-127752047D01*
X100758671Y-127784716D01*
X100965000Y-127661374D01*
X100965000Y-126619000D01*
X101219000Y-126619000D01*
X101219000Y-127661374D01*
X101425329Y-127784716D01*
X101533044Y-127752047D01*
X101770392Y-127641792D01*
X101981670Y-127487351D01*
X102158759Y-127294660D01*
X102294853Y-127071123D01*
X102384722Y-126825330D01*
X102262201Y-126619000D01*
X101219000Y-126619000D01*
X100965000Y-126619000D01*
X99921799Y-126619000D01*
X99799278Y-126825330D01*
X93483132Y-126825330D01*
X92816472Y-126158670D01*
X99799278Y-126158670D01*
X99921799Y-126365000D01*
X100965000Y-126365000D01*
X100965000Y-125322626D01*
X101219000Y-125322626D01*
X101219000Y-126365000D01*
X102262201Y-126365000D01*
X102384722Y-126158670D01*
X102294853Y-125912877D01*
X102158759Y-125689340D01*
X101981670Y-125496649D01*
X101770392Y-125342208D01*
X101533044Y-125231953D01*
X101425329Y-125199284D01*
X101219000Y-125322626D01*
X100965000Y-125322626D01*
X100758671Y-125199284D01*
X100650956Y-125231953D01*
X100413608Y-125342208D01*
X100202330Y-125496649D01*
X100025241Y-125689340D01*
X99889147Y-125912877D01*
X99799278Y-126158670D01*
X92816472Y-126158670D01*
X91946000Y-125288199D01*
X91946000Y-121374000D01*
X92541928Y-121374000D01*
X92541928Y-122974000D01*
X92554188Y-123098482D01*
X92590498Y-123218180D01*
X92649463Y-123328494D01*
X92728815Y-123425185D01*
X92825506Y-123504537D01*
X92935820Y-123563502D01*
X93055518Y-123599812D01*
X93180000Y-123612072D01*
X94780000Y-123612072D01*
X94904482Y-123599812D01*
X95024180Y-123563502D01*
X95134494Y-123504537D01*
X95231185Y-123425185D01*
X95310537Y-123328494D01*
X95369502Y-123218180D01*
X95385117Y-123166702D01*
X95666903Y-123166702D01*
X95738486Y-123410671D01*
X95993996Y-123531571D01*
X96268184Y-123600300D01*
X96550512Y-123614217D01*
X96830130Y-123572787D01*
X97096292Y-123477603D01*
X97221514Y-123410671D01*
X97293097Y-123166702D01*
X96480000Y-122353605D01*
X95666903Y-123166702D01*
X95385117Y-123166702D01*
X95405812Y-123098482D01*
X95418072Y-122974000D01*
X95418072Y-122966785D01*
X95487298Y-122987097D01*
X96300395Y-122174000D01*
X96659605Y-122174000D01*
X97472702Y-122987097D01*
X97716671Y-122915514D01*
X97837571Y-122660004D01*
X97837897Y-122658702D01*
X104342903Y-122658702D01*
X104414486Y-122902671D01*
X104669996Y-123023571D01*
X104944184Y-123092300D01*
X105226512Y-123106217D01*
X105506130Y-123064787D01*
X105772292Y-122969603D01*
X105897514Y-122902671D01*
X105969097Y-122658702D01*
X105156000Y-121845605D01*
X104342903Y-122658702D01*
X97837897Y-122658702D01*
X97906300Y-122385816D01*
X97920217Y-122103488D01*
X97878787Y-121823870D01*
X97847547Y-121736512D01*
X103715783Y-121736512D01*
X103757213Y-122016130D01*
X103852397Y-122282292D01*
X103919329Y-122407514D01*
X104163298Y-122479097D01*
X104976395Y-121666000D01*
X105335605Y-121666000D01*
X106148702Y-122479097D01*
X106392671Y-122407514D01*
X106513571Y-122152004D01*
X106582300Y-121877816D01*
X106596217Y-121595488D01*
X106554787Y-121315870D01*
X106459603Y-121049708D01*
X106392671Y-120924486D01*
X106148702Y-120852903D01*
X105335605Y-121666000D01*
X104976395Y-121666000D01*
X104163298Y-120852903D01*
X103919329Y-120924486D01*
X103798429Y-121179996D01*
X103729700Y-121454184D01*
X103715783Y-121736512D01*
X97847547Y-121736512D01*
X97783603Y-121557708D01*
X97716671Y-121432486D01*
X97472702Y-121360903D01*
X96659605Y-122174000D01*
X96300395Y-122174000D01*
X95487298Y-121360903D01*
X95418072Y-121381215D01*
X95418072Y-121374000D01*
X95405812Y-121249518D01*
X95385118Y-121181298D01*
X95666903Y-121181298D01*
X96480000Y-121994395D01*
X97293097Y-121181298D01*
X97221514Y-120937329D01*
X96966004Y-120816429D01*
X96691816Y-120747700D01*
X96409488Y-120733783D01*
X96129870Y-120775213D01*
X95863708Y-120870397D01*
X95738486Y-120937329D01*
X95666903Y-121181298D01*
X95385118Y-121181298D01*
X95369502Y-121129820D01*
X95310537Y-121019506D01*
X95231185Y-120922815D01*
X95134494Y-120843463D01*
X95024180Y-120784498D01*
X94904482Y-120748188D01*
X94780000Y-120735928D01*
X93180000Y-120735928D01*
X93055518Y-120748188D01*
X92935820Y-120784498D01*
X92825506Y-120843463D01*
X92728815Y-120922815D01*
X92649463Y-121019506D01*
X92590498Y-121129820D01*
X92554188Y-121249518D01*
X92541928Y-121374000D01*
X91946000Y-121374000D01*
X91946000Y-120673298D01*
X104342903Y-120673298D01*
X105156000Y-121486395D01*
X105969097Y-120673298D01*
X105897514Y-120429329D01*
X105642004Y-120308429D01*
X105367816Y-120239700D01*
X105085488Y-120225783D01*
X104805870Y-120267213D01*
X104539708Y-120362397D01*
X104414486Y-120429329D01*
X104342903Y-120673298D01*
X91946000Y-120673298D01*
X91946000Y-118713039D01*
X102094096Y-118713039D01*
X102111633Y-118795818D01*
X102222285Y-119055646D01*
X102381500Y-119288895D01*
X102583161Y-119486601D01*
X102819517Y-119641166D01*
X103081486Y-119746650D01*
X103359000Y-119799000D01*
X103759000Y-119799000D01*
X103759000Y-118491000D01*
X104013000Y-118491000D01*
X104013000Y-119799000D01*
X104413000Y-119799000D01*
X104690514Y-119746650D01*
X104952483Y-119641166D01*
X105188839Y-119486601D01*
X105390500Y-119288895D01*
X105549715Y-119055646D01*
X105660367Y-118795818D01*
X105677904Y-118713039D01*
X105555915Y-118491000D01*
X104013000Y-118491000D01*
X103759000Y-118491000D01*
X102216085Y-118491000D01*
X102094096Y-118713039D01*
X91946000Y-118713039D01*
X91946000Y-114860506D01*
X92006589Y-114900990D01*
X92276842Y-115012932D01*
X92563740Y-115070000D01*
X92856260Y-115070000D01*
X93143158Y-115012932D01*
X93413411Y-114900990D01*
X93656632Y-114738475D01*
X93863475Y-114531632D01*
X93981100Y-114355594D01*
X94152412Y-114585269D01*
X94368645Y-114780178D01*
X94618748Y-114929157D01*
X94893109Y-115026481D01*
X95123000Y-114905814D01*
X95123000Y-113712000D01*
X95377000Y-113712000D01*
X95377000Y-114905814D01*
X95606891Y-115026481D01*
X95881252Y-114929157D01*
X96131355Y-114780178D01*
X96347588Y-114585269D01*
X96521641Y-114351920D01*
X96646825Y-114089099D01*
X96691476Y-113941890D01*
X96570155Y-113712000D01*
X95377000Y-113712000D01*
X95123000Y-113712000D01*
X95103000Y-113712000D01*
X95103000Y-113458000D01*
X95123000Y-113458000D01*
X95123000Y-113438000D01*
X95377000Y-113438000D01*
X95377000Y-113458000D01*
X96570155Y-113458000D01*
X96691476Y-113228110D01*
X96646825Y-113080901D01*
X96521641Y-112818080D01*
X96347588Y-112584731D01*
X96131355Y-112389822D01*
X96014466Y-112320195D01*
X96196632Y-112198475D01*
X96403475Y-111991632D01*
X96565990Y-111748411D01*
X96677932Y-111478158D01*
X96735000Y-111191260D01*
X96735000Y-110898740D01*
X96677932Y-110611842D01*
X96565990Y-110341589D01*
X96403475Y-110098368D01*
X96196632Y-109891525D01*
X96022240Y-109775000D01*
X96196632Y-109658475D01*
X96403475Y-109451632D01*
X96565990Y-109208411D01*
X96677932Y-108938158D01*
X96735000Y-108651260D01*
X96735000Y-108358740D01*
X96677932Y-108071842D01*
X96626635Y-107948000D01*
X98491199Y-107948000D01*
X100528200Y-109985002D01*
X100551999Y-110014001D01*
X100667724Y-110108974D01*
X100799753Y-110179546D01*
X100943014Y-110223003D01*
X101054667Y-110234000D01*
X101054676Y-110234000D01*
X101091999Y-110237676D01*
X101129322Y-110234000D01*
X102141136Y-110234000D01*
X102071764Y-110462691D01*
X102044057Y-110744000D01*
X102071764Y-111025309D01*
X102153818Y-111295808D01*
X102287068Y-111545101D01*
X102466392Y-111763608D01*
X102684899Y-111942932D01*
X102817858Y-112014000D01*
X102684899Y-112085068D01*
X102466392Y-112264392D01*
X102287068Y-112482899D01*
X102153818Y-112732192D01*
X102071764Y-113002691D01*
X102044057Y-113284000D01*
X102071764Y-113565309D01*
X102153818Y-113835808D01*
X102287068Y-114085101D01*
X102466392Y-114303608D01*
X102684899Y-114482932D01*
X102817858Y-114554000D01*
X102684899Y-114625068D01*
X102466392Y-114804392D01*
X102287068Y-115022899D01*
X102153818Y-115272192D01*
X102071764Y-115542691D01*
X102044057Y-115824000D01*
X102071764Y-116105309D01*
X102153818Y-116375808D01*
X102287068Y-116625101D01*
X102466392Y-116843608D01*
X102684899Y-117022932D01*
X102812741Y-117091265D01*
X102583161Y-117241399D01*
X102381500Y-117439105D01*
X102222285Y-117672354D01*
X102111633Y-117932182D01*
X102094096Y-118014961D01*
X102216085Y-118237000D01*
X103759000Y-118237000D01*
X103759000Y-118217000D01*
X104013000Y-118217000D01*
X104013000Y-118237000D01*
X105555915Y-118237000D01*
X105677904Y-118014961D01*
X105660367Y-117932182D01*
X105549715Y-117672354D01*
X105390500Y-117439105D01*
X105188839Y-117241399D01*
X104959259Y-117091265D01*
X105087101Y-117022932D01*
X105305608Y-116843608D01*
X105484932Y-116625101D01*
X105618182Y-116375808D01*
X105700236Y-116105309D01*
X105727943Y-115824000D01*
X105700236Y-115542691D01*
X105618182Y-115272192D01*
X105484932Y-115022899D01*
X105305608Y-114804392D01*
X105087101Y-114625068D01*
X104954142Y-114554000D01*
X105087101Y-114482932D01*
X105305608Y-114303608D01*
X105484932Y-114085101D01*
X105618182Y-113835808D01*
X105700236Y-113565309D01*
X105727943Y-113284000D01*
X105700236Y-113002691D01*
X105618182Y-112732192D01*
X105484932Y-112482899D01*
X105305608Y-112264392D01*
X105087101Y-112085068D01*
X104954142Y-112014000D01*
X105087101Y-111942932D01*
X105305608Y-111763608D01*
X105484932Y-111545101D01*
X105618182Y-111295808D01*
X105700236Y-111025309D01*
X105727943Y-110744000D01*
X105700236Y-110462691D01*
X105630864Y-110234000D01*
X107127199Y-110234000D01*
X107571000Y-110677802D01*
X107571001Y-112230668D01*
X107567324Y-112268000D01*
X107581998Y-112416985D01*
X107625454Y-112560246D01*
X107696026Y-112692276D01*
X107762273Y-112772997D01*
X107791000Y-112808001D01*
X107819998Y-112831799D01*
X108783201Y-113795003D01*
X108806999Y-113824001D01*
X108835997Y-113847799D01*
X108922723Y-113918974D01*
X108965596Y-113941890D01*
X109054753Y-113989546D01*
X109198014Y-114033003D01*
X109309667Y-114044000D01*
X109309677Y-114044000D01*
X109347000Y-114047676D01*
X109384322Y-114044000D01*
X109885099Y-114044000D01*
X109907068Y-114085101D01*
X110086392Y-114303608D01*
X110304899Y-114482932D01*
X110437858Y-114554000D01*
X110304899Y-114625068D01*
X110086392Y-114804392D01*
X109907068Y-115022899D01*
X109773818Y-115272192D01*
X109691764Y-115542691D01*
X109664057Y-115824000D01*
X109691764Y-116105309D01*
X109773818Y-116375808D01*
X109907068Y-116625101D01*
X110086392Y-116843608D01*
X110304899Y-117022932D01*
X110437858Y-117094000D01*
X110304899Y-117165068D01*
X110086392Y-117344392D01*
X109907068Y-117562899D01*
X109773818Y-117812192D01*
X109691764Y-118082691D01*
X109664057Y-118364000D01*
X109691764Y-118645309D01*
X109773818Y-118915808D01*
X109907068Y-119165101D01*
X110086392Y-119383608D01*
X110304899Y-119562932D01*
X110554192Y-119696182D01*
X110824691Y-119778236D01*
X111035508Y-119799000D01*
X111976492Y-119799000D01*
X112187309Y-119778236D01*
X112457808Y-119696182D01*
X112707101Y-119562932D01*
X112925608Y-119383608D01*
X113104932Y-119165101D01*
X113238182Y-118915808D01*
X113320236Y-118645309D01*
X113347943Y-118364000D01*
X113320236Y-118082691D01*
X113238182Y-117812192D01*
X113104932Y-117562899D01*
X112925608Y-117344392D01*
X112707101Y-117165068D01*
X112574142Y-117094000D01*
X112707101Y-117022932D01*
X112925608Y-116843608D01*
X113104932Y-116625101D01*
X113126901Y-116584000D01*
X113373678Y-116584000D01*
X113411000Y-116587676D01*
X113448322Y-116584000D01*
X113448333Y-116584000D01*
X113559986Y-116573003D01*
X113703247Y-116529546D01*
X113835276Y-116458974D01*
X113951001Y-116364001D01*
X113974804Y-116334997D01*
X114302997Y-116006804D01*
X114332001Y-115983001D01*
X114426974Y-115867276D01*
X114497546Y-115735247D01*
X114541003Y-115591986D01*
X114552000Y-115480333D01*
X114552000Y-115480324D01*
X114555676Y-115443001D01*
X114552000Y-115405678D01*
X114552000Y-106533975D01*
X114718987Y-106700962D01*
X114937641Y-106847061D01*
X115180595Y-106947696D01*
X115438514Y-106999000D01*
X115701486Y-106999000D01*
X115959405Y-106947696D01*
X116202359Y-106847061D01*
X116421013Y-106700962D01*
X116606962Y-106515013D01*
X116753061Y-106296359D01*
X116853696Y-106053405D01*
X116905000Y-105795486D01*
X116905000Y-105532514D01*
X116853696Y-105274595D01*
X116753061Y-105031641D01*
X116606962Y-104812987D01*
X116421013Y-104627038D01*
X116202359Y-104480939D01*
X115959405Y-104380304D01*
X115701486Y-104329000D01*
X115438514Y-104329000D01*
X115180595Y-104380304D01*
X114937641Y-104480939D01*
X114718987Y-104627038D01*
X114545666Y-104800359D01*
X114541003Y-104753014D01*
X114497546Y-104609753D01*
X114426974Y-104477724D01*
X114332001Y-104361999D01*
X114303003Y-104338202D01*
X113847803Y-103883002D01*
X113824001Y-103853999D01*
X113708276Y-103759026D01*
X113576247Y-103688454D01*
X113432986Y-103644997D01*
X113321333Y-103634000D01*
X113321322Y-103634000D01*
X113284000Y-103630324D01*
X113250993Y-103633575D01*
X113320236Y-103405309D01*
X113347943Y-103124000D01*
X113320236Y-102842691D01*
X113238182Y-102572192D01*
X113104932Y-102322899D01*
X112925608Y-102104392D01*
X112707101Y-101925068D01*
X112574142Y-101854000D01*
X112707101Y-101782932D01*
X112925608Y-101603608D01*
X113104932Y-101385101D01*
X113238182Y-101135808D01*
X113320236Y-100865309D01*
X113347943Y-100584000D01*
X113334993Y-100452514D01*
X114235000Y-100452514D01*
X114235000Y-100715486D01*
X114286304Y-100973405D01*
X114386939Y-101216359D01*
X114533038Y-101435013D01*
X114718987Y-101620962D01*
X114937641Y-101767061D01*
X115180595Y-101867696D01*
X115438514Y-101919000D01*
X115701486Y-101919000D01*
X115959405Y-101867696D01*
X116202359Y-101767061D01*
X116421013Y-101620962D01*
X116606962Y-101435013D01*
X116753061Y-101216359D01*
X116853696Y-100973405D01*
X116905000Y-100715486D01*
X116905000Y-100452514D01*
X116853696Y-100194595D01*
X116753061Y-99951641D01*
X116606962Y-99732987D01*
X116421013Y-99547038D01*
X116202359Y-99400939D01*
X115959405Y-99300304D01*
X115701486Y-99249000D01*
X115438514Y-99249000D01*
X115180595Y-99300304D01*
X114937641Y-99400939D01*
X114718987Y-99547038D01*
X114533038Y-99732987D01*
X114386939Y-99951641D01*
X114286304Y-100194595D01*
X114235000Y-100452514D01*
X113334993Y-100452514D01*
X113320236Y-100302691D01*
X113238182Y-100032192D01*
X113104932Y-99782899D01*
X112925608Y-99564392D01*
X112707101Y-99385068D01*
X112574142Y-99314000D01*
X112707101Y-99242932D01*
X112925608Y-99063608D01*
X113104932Y-98845101D01*
X113238182Y-98595808D01*
X113320236Y-98325309D01*
X113347943Y-98044000D01*
X113320236Y-97762691D01*
X113238182Y-97492192D01*
X113104932Y-97242899D01*
X112925608Y-97024392D01*
X112707101Y-96845068D01*
X112574142Y-96774000D01*
X112707101Y-96702932D01*
X112925608Y-96523608D01*
X113104932Y-96305101D01*
X113238182Y-96055808D01*
X113320236Y-95785309D01*
X113347943Y-95504000D01*
X113334993Y-95372514D01*
X114235000Y-95372514D01*
X114235000Y-95635486D01*
X114286304Y-95893405D01*
X114386939Y-96136359D01*
X114533038Y-96355013D01*
X114718987Y-96540962D01*
X114937641Y-96687061D01*
X115180595Y-96787696D01*
X115438514Y-96839000D01*
X115701486Y-96839000D01*
X115959405Y-96787696D01*
X116202359Y-96687061D01*
X116421013Y-96540962D01*
X116606962Y-96355013D01*
X116753061Y-96136359D01*
X116853696Y-95893405D01*
X116905000Y-95635486D01*
X116905000Y-95372514D01*
X116853696Y-95114595D01*
X116753061Y-94871641D01*
X116606962Y-94652987D01*
X116421013Y-94467038D01*
X116202359Y-94320939D01*
X115959405Y-94220304D01*
X115701486Y-94169000D01*
X115438514Y-94169000D01*
X115180595Y-94220304D01*
X114937641Y-94320939D01*
X114718987Y-94467038D01*
X114533038Y-94652987D01*
X114386939Y-94871641D01*
X114286304Y-95114595D01*
X114235000Y-95372514D01*
X113334993Y-95372514D01*
X113320236Y-95222691D01*
X113238182Y-94952192D01*
X113104932Y-94702899D01*
X112925608Y-94484392D01*
X112707101Y-94305068D01*
X112457808Y-94171818D01*
X112187309Y-94089764D01*
X111976492Y-94069000D01*
X111035508Y-94069000D01*
X110824691Y-94089764D01*
X110554192Y-94171818D01*
X110304899Y-94305068D01*
X110086392Y-94484392D01*
X109907068Y-94702899D01*
X109773818Y-94952192D01*
X109691764Y-95222691D01*
X109664057Y-95504000D01*
X109691764Y-95785309D01*
X109773818Y-96055808D01*
X109907068Y-96305101D01*
X110086392Y-96523608D01*
X110304899Y-96702932D01*
X110437858Y-96774000D01*
X110304899Y-96845068D01*
X110086392Y-97024392D01*
X109907068Y-97242899D01*
X109885099Y-97284000D01*
X109280802Y-97284000D01*
X108583000Y-96586199D01*
X108583000Y-95033323D01*
X108586676Y-94996000D01*
X108583000Y-94958677D01*
X108583000Y-94958667D01*
X108572003Y-94847014D01*
X108528546Y-94703753D01*
X108457974Y-94571724D01*
X108363001Y-94455999D01*
X108334004Y-94432202D01*
X107497803Y-93596002D01*
X107474001Y-93566999D01*
X107358276Y-93472026D01*
X107226247Y-93401454D01*
X107082986Y-93357997D01*
X106971333Y-93347000D01*
X106971322Y-93347000D01*
X106934000Y-93343324D01*
X106896678Y-93347000D01*
X91604322Y-93347000D01*
X91566999Y-93343324D01*
X91529676Y-93347000D01*
X91529667Y-93347000D01*
X91418014Y-93357997D01*
X91274753Y-93401454D01*
X91142724Y-93472026D01*
X91026999Y-93566999D01*
X91003196Y-93596003D01*
X90674998Y-93924201D01*
X90646000Y-93947999D01*
X90622202Y-93976997D01*
X90622201Y-93976998D01*
X90551026Y-94063724D01*
X90480454Y-94195754D01*
X90457251Y-94272247D01*
X90436998Y-94339014D01*
X90430570Y-94404276D01*
X90422324Y-94488000D01*
X90322000Y-94488000D01*
X90322000Y-93116000D01*
X147168000Y-93116000D01*
X147168001Y-137008000D01*
%TA.AperFunction,Conductor*%
D24*
G36*
X147168001Y-137008000D02*
G01*
X90322000Y-137008000D01*
X90322000Y-135294033D01*
X91961572Y-135294033D01*
X92279757Y-135747850D01*
X92884210Y-136073269D01*
X93540535Y-136274512D01*
X94223510Y-136343845D01*
X94906888Y-136278605D01*
X95564407Y-136081298D01*
X96170799Y-135759506D01*
X96188243Y-135747850D01*
X96506428Y-135294033D01*
X94234000Y-133021605D01*
X91961572Y-135294033D01*
X90322000Y-135294033D01*
X90322000Y-132831510D01*
X90732155Y-132831510D01*
X90797395Y-133514888D01*
X90994702Y-134172407D01*
X91316494Y-134778799D01*
X91328150Y-134796243D01*
X91781967Y-135114428D01*
X94054395Y-132842000D01*
X94413605Y-132842000D01*
X96686033Y-135114428D01*
X97139850Y-134796243D01*
X97465269Y-134191790D01*
X97666512Y-133535465D01*
X97735845Y-132852490D01*
X97670605Y-132169112D01*
X97473298Y-131511593D01*
X97151506Y-130905201D01*
X97139850Y-130887757D01*
X96686033Y-130569572D01*
X94413605Y-132842000D01*
X94054395Y-132842000D01*
X91781967Y-130569572D01*
X91328150Y-130887757D01*
X91002731Y-131492210D01*
X90801488Y-132148535D01*
X90732155Y-132831510D01*
X90322000Y-132831510D01*
X90322000Y-130389967D01*
X91961572Y-130389967D01*
X94234000Y-132662395D01*
X96506428Y-130389967D01*
X96188243Y-129936150D01*
X95583790Y-129610731D01*
X94927465Y-129409488D01*
X94244490Y-129340155D01*
X93561112Y-129405395D01*
X92903593Y-129602702D01*
X92297201Y-129924494D01*
X92279757Y-129936150D01*
X91961572Y-130389967D01*
X90322000Y-130389967D01*
X90322000Y-94488000D01*
X90422324Y-94488000D01*
X90426001Y-94525332D01*
X90426000Y-98006677D01*
X90422324Y-98044000D01*
X90426000Y-98081322D01*
X90426000Y-98081332D01*
X90436997Y-98192985D01*
X90451728Y-98241546D01*
X90480454Y-98336246D01*
X90551026Y-98468276D01*
X90569889Y-98491260D01*
X90645999Y-98584001D01*
X90675003Y-98607804D01*
X90923196Y-98855997D01*
X90946999Y-98885001D01*
X91062724Y-98979974D01*
X91194753Y-99050546D01*
X91338014Y-99094003D01*
X91430564Y-99103119D01*
X91556525Y-99291632D01*
X91763368Y-99498475D01*
X91937760Y-99615000D01*
X91763368Y-99731525D01*
X91556525Y-99938368D01*
X91394010Y-100181589D01*
X91282068Y-100451842D01*
X91225000Y-100738740D01*
X91225000Y-101031260D01*
X91282068Y-101318158D01*
X91394010Y-101588411D01*
X91556525Y-101831632D01*
X91763368Y-102038475D01*
X91937760Y-102155000D01*
X91763368Y-102271525D01*
X91556525Y-102478368D01*
X91394010Y-102721589D01*
X91282068Y-102991842D01*
X91225000Y-103278740D01*
X91225000Y-103571260D01*
X91282068Y-103858158D01*
X91394010Y-104128411D01*
X91556525Y-104371632D01*
X91763368Y-104578475D01*
X91937760Y-104695000D01*
X91763368Y-104811525D01*
X91556525Y-105018368D01*
X91394010Y-105261589D01*
X91282068Y-105531842D01*
X91225000Y-105818740D01*
X91225000Y-106111260D01*
X91282068Y-106398158D01*
X91394010Y-106668411D01*
X91556525Y-106911632D01*
X91763368Y-107118475D01*
X91937760Y-107235000D01*
X91763368Y-107351525D01*
X91556525Y-107558368D01*
X91394010Y-107801589D01*
X91282068Y-108071842D01*
X91225000Y-108358740D01*
X91225000Y-108651260D01*
X91282068Y-108938158D01*
X91394010Y-109208411D01*
X91556525Y-109451632D01*
X91763368Y-109658475D01*
X91937760Y-109775000D01*
X91763368Y-109891525D01*
X91556525Y-110098368D01*
X91428240Y-110290361D01*
X91371014Y-110295997D01*
X91227753Y-110339454D01*
X91095724Y-110410026D01*
X90979999Y-110504999D01*
X90956196Y-110534003D01*
X90675003Y-110815196D01*
X90645999Y-110838999D01*
X90599208Y-110896015D01*
X90551026Y-110954724D01*
X90480455Y-111086753D01*
X90480454Y-111086754D01*
X90436997Y-111230015D01*
X90426000Y-111341668D01*
X90426000Y-111341678D01*
X90422324Y-111379000D01*
X90426000Y-111416322D01*
X90426001Y-125565668D01*
X90422324Y-125603000D01*
X90426001Y-125640333D01*
X90436998Y-125751986D01*
X90447454Y-125786454D01*
X90480454Y-125895246D01*
X90551026Y-126027276D01*
X90619716Y-126110974D01*
X90646000Y-126143001D01*
X90674998Y-126166799D01*
X92908200Y-128400002D01*
X92931999Y-128429001D01*
X93047724Y-128523974D01*
X93179753Y-128594546D01*
X93323014Y-128638003D01*
X93434667Y-128649000D01*
X93434676Y-128649000D01*
X93471999Y-128652676D01*
X93509322Y-128649000D01*
X95824199Y-128649000D01*
X98496200Y-131321002D01*
X98519999Y-131350001D01*
X98635724Y-131444974D01*
X98767753Y-131515546D01*
X98911014Y-131559003D01*
X99022667Y-131570000D01*
X99022677Y-131570000D01*
X99060000Y-131573676D01*
X99097323Y-131570000D01*
X108905199Y-131570000D01*
X110532612Y-133197413D01*
X110469038Y-133260987D01*
X110322939Y-133479641D01*
X110222304Y-133722595D01*
X110171000Y-133980514D01*
X110171000Y-134243486D01*
X110222304Y-134501405D01*
X110322939Y-134744359D01*
X110469038Y-134963013D01*
X110654987Y-135148962D01*
X110873641Y-135295061D01*
X111088358Y-135384000D01*
X107186000Y-135384000D01*
X107186000Y-135209775D01*
X107277013Y-135148962D01*
X107462962Y-134963013D01*
X107609061Y-134744359D01*
X107709696Y-134501405D01*
X107761000Y-134243486D01*
X107761000Y-133980514D01*
X107709696Y-133722595D01*
X107609061Y-133479641D01*
X107462962Y-133260987D01*
X107277013Y-133075038D01*
X107058359Y-132928939D01*
X106815405Y-132828304D01*
X106557486Y-132777000D01*
X106294514Y-132777000D01*
X106036595Y-132828304D01*
X105793641Y-132928939D01*
X105574987Y-133075038D01*
X105389038Y-133260987D01*
X105328225Y-133352000D01*
X102189775Y-133352000D01*
X102128962Y-133260987D01*
X101943013Y-133075038D01*
X101724359Y-132928939D01*
X101481405Y-132828304D01*
X101223486Y-132777000D01*
X100960514Y-132777000D01*
X100702595Y-132828304D01*
X100459641Y-132928939D01*
X100240987Y-133075038D01*
X100055038Y-133260987D01*
X99908939Y-133479641D01*
X99808304Y-133722595D01*
X99757000Y-133980514D01*
X99757000Y-134243486D01*
X99808304Y-134501405D01*
X99908939Y-134744359D01*
X100055038Y-134963013D01*
X100240987Y-135148962D01*
X100459641Y-135295061D01*
X100702595Y-135395696D01*
X100960514Y-135447000D01*
X101223486Y-135447000D01*
X101481405Y-135395696D01*
X101724359Y-135295061D01*
X101943013Y-135148962D01*
X102128962Y-134963013D01*
X102189775Y-134872000D01*
X105328225Y-134872000D01*
X105389038Y-134963013D01*
X105574987Y-135148962D01*
X105666001Y-135209775D01*
X105666001Y-135852668D01*
X105662324Y-135890000D01*
X105666001Y-135927333D01*
X105676998Y-136038986D01*
X105689833Y-136081298D01*
X105720454Y-136182246D01*
X105791026Y-136314276D01*
X105862201Y-136401002D01*
X105886000Y-136430001D01*
X105914998Y-136453799D01*
X106116196Y-136654997D01*
X106139999Y-136684001D01*
X106255724Y-136778974D01*
X106387753Y-136849546D01*
X106531014Y-136893003D01*
X106642667Y-136904000D01*
X106642676Y-136904000D01*
X106679999Y-136907676D01*
X106717322Y-136904000D01*
X113246678Y-136904000D01*
X113284000Y-136907676D01*
X113321322Y-136904000D01*
X113321333Y-136904000D01*
X113432986Y-136893003D01*
X113576247Y-136849546D01*
X113708276Y-136778974D01*
X113824001Y-136684001D01*
X113847803Y-136654998D01*
X114557004Y-135945798D01*
X114586001Y-135922001D01*
X114680974Y-135806276D01*
X114751546Y-135674247D01*
X114795003Y-135530986D01*
X114806000Y-135419333D01*
X114806000Y-135419325D01*
X114809676Y-135382000D01*
X114806000Y-135344675D01*
X114806000Y-132941799D01*
X119510004Y-128237796D01*
X119539001Y-128213999D01*
X119633974Y-128098274D01*
X119704546Y-127966245D01*
X119748003Y-127822984D01*
X119759000Y-127711331D01*
X119759000Y-127711323D01*
X119762676Y-127673998D01*
X119759000Y-127636673D01*
X119759000Y-126806801D01*
X119980370Y-126585431D01*
X119927000Y-126853740D01*
X119927000Y-127146260D01*
X119984068Y-127433158D01*
X120096010Y-127703411D01*
X120258525Y-127946632D01*
X120404896Y-128093003D01*
X116074998Y-132422901D01*
X116046000Y-132446699D01*
X116022202Y-132475697D01*
X116022201Y-132475698D01*
X115951026Y-132562424D01*
X115880454Y-132694454D01*
X115855415Y-132777000D01*
X115839853Y-132828304D01*
X115836998Y-132837715D01*
X115822324Y-132986700D01*
X115825095Y-133014830D01*
X115734987Y-133075038D01*
X115549038Y-133260987D01*
X115402939Y-133479641D01*
X115302304Y-133722595D01*
X115251000Y-133980514D01*
X115251000Y-134243486D01*
X115302304Y-134501405D01*
X115402939Y-134744359D01*
X115549038Y-134963013D01*
X115734987Y-135148962D01*
X115953641Y-135295061D01*
X116196595Y-135395696D01*
X116454514Y-135447000D01*
X116717486Y-135447000D01*
X116975405Y-135395696D01*
X117218359Y-135295061D01*
X117219897Y-135294033D01*
X140983572Y-135294033D01*
X141301757Y-135747850D01*
X141906210Y-136073269D01*
X142562535Y-136274512D01*
X143245510Y-136343845D01*
X143928888Y-136278605D01*
X144586407Y-136081298D01*
X145192799Y-135759506D01*
X145210243Y-135747850D01*
X145528428Y-135294033D01*
X143256000Y-133021605D01*
X140983572Y-135294033D01*
X117219897Y-135294033D01*
X117437013Y-135148962D01*
X117622962Y-134963013D01*
X117769061Y-134744359D01*
X117869696Y-134501405D01*
X117921000Y-134243486D01*
X117921000Y-133980514D01*
X117869696Y-133722595D01*
X117769061Y-133479641D01*
X117622962Y-133260987D01*
X117504738Y-133142763D01*
X117815991Y-132831510D01*
X139754155Y-132831510D01*
X139819395Y-133514888D01*
X140016702Y-134172407D01*
X140338494Y-134778799D01*
X140350150Y-134796243D01*
X140803967Y-135114428D01*
X143076395Y-132842000D01*
X143435605Y-132842000D01*
X145708033Y-135114428D01*
X146161850Y-134796243D01*
X146487269Y-134191790D01*
X146688512Y-133535465D01*
X146757845Y-132852490D01*
X146692605Y-132169112D01*
X146495298Y-131511593D01*
X146173506Y-130905201D01*
X146161850Y-130887757D01*
X145708033Y-130569572D01*
X143435605Y-132842000D01*
X143076395Y-132842000D01*
X140803967Y-130569572D01*
X140350150Y-130887757D01*
X140024731Y-131492210D01*
X139823488Y-132148535D01*
X139754155Y-132831510D01*
X117815991Y-132831510D01*
X120257534Y-130389967D01*
X140983572Y-130389967D01*
X143256000Y-132662395D01*
X145528428Y-130389967D01*
X145210243Y-129936150D01*
X144605790Y-129610731D01*
X143949465Y-129409488D01*
X143266490Y-129340155D01*
X142583112Y-129405395D01*
X141925593Y-129602702D01*
X141319201Y-129924494D01*
X141301757Y-129936150D01*
X140983572Y-130389967D01*
X120257534Y-130389967D01*
X121841585Y-128805917D01*
X121952001Y-128715301D01*
X122046974Y-128599576D01*
X122117546Y-128467547D01*
X122161003Y-128324286D01*
X122165089Y-128282796D01*
X122358632Y-128153475D01*
X122565475Y-127946632D01*
X122682000Y-127772240D01*
X122798525Y-127946632D01*
X123005368Y-128153475D01*
X123248589Y-128315990D01*
X123518842Y-128427932D01*
X123805740Y-128485000D01*
X124098260Y-128485000D01*
X124385158Y-128427932D01*
X124655411Y-128315990D01*
X124898632Y-128153475D01*
X125105475Y-127946632D01*
X125222000Y-127772240D01*
X125338525Y-127946632D01*
X125545368Y-128153475D01*
X125788589Y-128315990D01*
X126058842Y-128427932D01*
X126345740Y-128485000D01*
X126638260Y-128485000D01*
X126925158Y-128427932D01*
X127195411Y-128315990D01*
X127438632Y-128153475D01*
X127645475Y-127946632D01*
X127762000Y-127772240D01*
X127878525Y-127946632D01*
X128085368Y-128153475D01*
X128328589Y-128315990D01*
X128598842Y-128427932D01*
X128885740Y-128485000D01*
X129178260Y-128485000D01*
X129465158Y-128427932D01*
X129735411Y-128315990D01*
X129978632Y-128153475D01*
X130185475Y-127946632D01*
X130302000Y-127772240D01*
X130418525Y-127946632D01*
X130625368Y-128153475D01*
X130868589Y-128315990D01*
X131138842Y-128427932D01*
X131425740Y-128485000D01*
X131718260Y-128485000D01*
X132005158Y-128427932D01*
X132275411Y-128315990D01*
X132518632Y-128153475D01*
X132725475Y-127946632D01*
X132847195Y-127764466D01*
X132916822Y-127881355D01*
X133111731Y-128097588D01*
X133345080Y-128271641D01*
X133607901Y-128396825D01*
X133755110Y-128441476D01*
X133985000Y-128320155D01*
X133985000Y-127127000D01*
X133965000Y-127127000D01*
X133965000Y-126873000D01*
X133985000Y-126873000D01*
X133985000Y-125679845D01*
X134239000Y-125679845D01*
X134239000Y-126873000D01*
X134259000Y-126873000D01*
X134259000Y-127127000D01*
X134239000Y-127127000D01*
X134239000Y-128320155D01*
X134468890Y-128441476D01*
X134616099Y-128396825D01*
X134878920Y-128271641D01*
X135112269Y-128097588D01*
X135188034Y-128013534D01*
X135212498Y-128094180D01*
X135271463Y-128204494D01*
X135350815Y-128301185D01*
X135447506Y-128380537D01*
X135557820Y-128439502D01*
X135677518Y-128475812D01*
X135802000Y-128488072D01*
X137502000Y-128488072D01*
X137626482Y-128475812D01*
X137746180Y-128439502D01*
X137856494Y-128380537D01*
X137953185Y-128301185D01*
X138032537Y-128204494D01*
X138091502Y-128094180D01*
X138127812Y-127974482D01*
X138140072Y-127850000D01*
X138140072Y-126150000D01*
X138127812Y-126025518D01*
X138091502Y-125905820D01*
X138032537Y-125795506D01*
X137953185Y-125698815D01*
X137856494Y-125619463D01*
X137746180Y-125560498D01*
X137626482Y-125524188D01*
X137502000Y-125511928D01*
X135802000Y-125511928D01*
X135677518Y-125524188D01*
X135557820Y-125560498D01*
X135447506Y-125619463D01*
X135350815Y-125698815D01*
X135271463Y-125795506D01*
X135212498Y-125905820D01*
X135188034Y-125986466D01*
X135112269Y-125902412D01*
X134878920Y-125728359D01*
X134616099Y-125603175D01*
X134468890Y-125558524D01*
X134239000Y-125679845D01*
X133985000Y-125679845D01*
X133755110Y-125558524D01*
X133607901Y-125603175D01*
X133345080Y-125728359D01*
X133111731Y-125902412D01*
X132916822Y-126118645D01*
X132847195Y-126235534D01*
X132725475Y-126053368D01*
X132518632Y-125846525D01*
X132332000Y-125721822D01*
X132332000Y-123250801D01*
X135083911Y-120498890D01*
X135718524Y-120498890D01*
X135763175Y-120646099D01*
X135888359Y-120908920D01*
X136062412Y-121142269D01*
X136278645Y-121337178D01*
X136528748Y-121486157D01*
X136803109Y-121583481D01*
X137033000Y-121462814D01*
X137033000Y-120269000D01*
X137287000Y-120269000D01*
X137287000Y-121462814D01*
X137516891Y-121583481D01*
X137791252Y-121486157D01*
X138041355Y-121337178D01*
X138257588Y-121142269D01*
X138431641Y-120908920D01*
X138556825Y-120646099D01*
X138601476Y-120498890D01*
X138480155Y-120269000D01*
X137287000Y-120269000D01*
X137033000Y-120269000D01*
X135839845Y-120269000D01*
X135718524Y-120498890D01*
X135083911Y-120498890D01*
X135745871Y-119836930D01*
X135839845Y-120015000D01*
X137033000Y-120015000D01*
X137033000Y-119995000D01*
X137287000Y-119995000D01*
X137287000Y-120015000D01*
X138480155Y-120015000D01*
X138601476Y-119785110D01*
X138556825Y-119637901D01*
X138431641Y-119375080D01*
X138257588Y-119141731D01*
X138041355Y-118946822D01*
X137924466Y-118877195D01*
X138106632Y-118755475D01*
X138313475Y-118548632D01*
X138475990Y-118305411D01*
X138587932Y-118035158D01*
X138645000Y-117748260D01*
X138645000Y-117455740D01*
X138587932Y-117168842D01*
X138475990Y-116898589D01*
X138313475Y-116655368D01*
X138181620Y-116523513D01*
X138254180Y-116501502D01*
X138364494Y-116442537D01*
X138461185Y-116363185D01*
X138540537Y-116266494D01*
X138599502Y-116156180D01*
X138635812Y-116036482D01*
X138648072Y-115912000D01*
X138648072Y-114212000D01*
X138635812Y-114087518D01*
X138599502Y-113967820D01*
X138540537Y-113857506D01*
X138461185Y-113760815D01*
X138364494Y-113681463D01*
X138254180Y-113622498D01*
X138134482Y-113586188D01*
X138010000Y-113573928D01*
X136310000Y-113573928D01*
X136185518Y-113586188D01*
X136065820Y-113622498D01*
X136015000Y-113649662D01*
X136015000Y-111566801D01*
X140592004Y-106989798D01*
X140621001Y-106966001D01*
X140715974Y-106850276D01*
X140786546Y-106718247D01*
X140830003Y-106574986D01*
X140841000Y-106463333D01*
X140841000Y-106463325D01*
X140844676Y-106426000D01*
X140841000Y-106388675D01*
X140841000Y-105997329D01*
X143995284Y-105997329D01*
X144027953Y-106105044D01*
X144138208Y-106342392D01*
X144292649Y-106553670D01*
X144485340Y-106730759D01*
X144708877Y-106866853D01*
X144954670Y-106956722D01*
X145161000Y-106834201D01*
X145161000Y-105791000D01*
X145415000Y-105791000D01*
X145415000Y-106834201D01*
X145621330Y-106956722D01*
X145867123Y-106866853D01*
X146090660Y-106730759D01*
X146283351Y-106553670D01*
X146437792Y-106342392D01*
X146548047Y-106105044D01*
X146580716Y-105997329D01*
X146457374Y-105791000D01*
X145415000Y-105791000D01*
X145161000Y-105791000D01*
X144118626Y-105791000D01*
X143995284Y-105997329D01*
X140841000Y-105997329D01*
X140841000Y-105330671D01*
X143995284Y-105330671D01*
X144118626Y-105537000D01*
X145161000Y-105537000D01*
X145161000Y-104493799D01*
X145415000Y-104493799D01*
X145415000Y-105537000D01*
X146457374Y-105537000D01*
X146580716Y-105330671D01*
X146548047Y-105222956D01*
X146437792Y-104985608D01*
X146283351Y-104774330D01*
X146090660Y-104597241D01*
X145867123Y-104461147D01*
X145621330Y-104371278D01*
X145415000Y-104493799D01*
X145161000Y-104493799D01*
X144954670Y-104371278D01*
X144708877Y-104461147D01*
X144485340Y-104597241D01*
X144292649Y-104774330D01*
X144138208Y-104985608D01*
X144027953Y-105222956D01*
X143995284Y-105330671D01*
X140841000Y-105330671D01*
X140841000Y-101510323D01*
X140844676Y-101473000D01*
X140841000Y-101435677D01*
X140841000Y-101435667D01*
X140830003Y-101324014D01*
X140786546Y-101180753D01*
X140715974Y-101048724D01*
X140621001Y-100932999D01*
X140601908Y-100917329D01*
X143995284Y-100917329D01*
X144027953Y-101025044D01*
X144138208Y-101262392D01*
X144292649Y-101473670D01*
X144485340Y-101650759D01*
X144708877Y-101786853D01*
X144954670Y-101876722D01*
X145161000Y-101754201D01*
X145161000Y-100711000D01*
X145415000Y-100711000D01*
X145415000Y-101754201D01*
X145621330Y-101876722D01*
X145867123Y-101786853D01*
X146090660Y-101650759D01*
X146283351Y-101473670D01*
X146437792Y-101262392D01*
X146548047Y-101025044D01*
X146580716Y-100917329D01*
X146457374Y-100711000D01*
X145415000Y-100711000D01*
X145161000Y-100711000D01*
X144118626Y-100711000D01*
X143995284Y-100917329D01*
X140601908Y-100917329D01*
X140592003Y-100909201D01*
X139933473Y-100250671D01*
X143995284Y-100250671D01*
X144118626Y-100457000D01*
X145161000Y-100457000D01*
X145161000Y-99413799D01*
X145415000Y-99413799D01*
X145415000Y-100457000D01*
X146457374Y-100457000D01*
X146580716Y-100250671D01*
X146548047Y-100142956D01*
X146437792Y-99905608D01*
X146283351Y-99694330D01*
X146090660Y-99517241D01*
X145867123Y-99381147D01*
X145621330Y-99291278D01*
X145415000Y-99413799D01*
X145161000Y-99413799D01*
X144954670Y-99291278D01*
X144708877Y-99381147D01*
X144485340Y-99517241D01*
X144292649Y-99694330D01*
X144138208Y-99905608D01*
X144027953Y-100142956D01*
X143995284Y-100250671D01*
X139933473Y-100250671D01*
X139755803Y-100073002D01*
X139732001Y-100043999D01*
X139616276Y-99949026D01*
X139484247Y-99878454D01*
X139340986Y-99834997D01*
X139229333Y-99824000D01*
X139229322Y-99824000D01*
X139192000Y-99820324D01*
X139154678Y-99824000D01*
X138765775Y-99824000D01*
X138704962Y-99732987D01*
X138519013Y-99547038D01*
X138300359Y-99400939D01*
X138057405Y-99300304D01*
X137799486Y-99249000D01*
X137536514Y-99249000D01*
X137278595Y-99300304D01*
X137035641Y-99400939D01*
X136816987Y-99547038D01*
X136631038Y-99732987D01*
X136570225Y-99824000D01*
X135463775Y-99824000D01*
X135402962Y-99732987D01*
X135217013Y-99547038D01*
X134998359Y-99400939D01*
X134755405Y-99300304D01*
X134497486Y-99249000D01*
X134234514Y-99249000D01*
X133976595Y-99300304D01*
X133733641Y-99400939D01*
X133514987Y-99547038D01*
X133329038Y-99732987D01*
X133182939Y-99951641D01*
X133082304Y-100194595D01*
X133031000Y-100452514D01*
X133031000Y-100715486D01*
X133082304Y-100973405D01*
X133182939Y-101216359D01*
X133329038Y-101435013D01*
X133514987Y-101620962D01*
X133733641Y-101767061D01*
X133976595Y-101867696D01*
X134234514Y-101919000D01*
X134497486Y-101919000D01*
X134755405Y-101867696D01*
X134998359Y-101767061D01*
X135217013Y-101620962D01*
X135402962Y-101435013D01*
X135463775Y-101344000D01*
X136570225Y-101344000D01*
X136631038Y-101435013D01*
X136816987Y-101620962D01*
X137035641Y-101767061D01*
X137278595Y-101867696D01*
X137536514Y-101919000D01*
X137799486Y-101919000D01*
X138057405Y-101867696D01*
X138300359Y-101767061D01*
X138519013Y-101620962D01*
X138704962Y-101435013D01*
X138765775Y-101344000D01*
X138877199Y-101344000D01*
X139321001Y-101787803D01*
X139321000Y-106111198D01*
X135126000Y-110306199D01*
X135126000Y-106761775D01*
X135217013Y-106700962D01*
X135402962Y-106515013D01*
X135463775Y-106424000D01*
X136570225Y-106424000D01*
X136631038Y-106515013D01*
X136816987Y-106700962D01*
X137035641Y-106847061D01*
X137278595Y-106947696D01*
X137536514Y-106999000D01*
X137799486Y-106999000D01*
X138057405Y-106947696D01*
X138300359Y-106847061D01*
X138519013Y-106700962D01*
X138704962Y-106515013D01*
X138851061Y-106296359D01*
X138951696Y-106053405D01*
X139003000Y-105795486D01*
X139003000Y-105532514D01*
X138951696Y-105274595D01*
X138851061Y-105031641D01*
X138704962Y-104812987D01*
X138519013Y-104627038D01*
X138300359Y-104480939D01*
X138057405Y-104380304D01*
X137799486Y-104329000D01*
X137536514Y-104329000D01*
X137278595Y-104380304D01*
X137035641Y-104480939D01*
X136816987Y-104627038D01*
X136631038Y-104812987D01*
X136570225Y-104904000D01*
X135463775Y-104904000D01*
X135402962Y-104812987D01*
X135217013Y-104627038D01*
X134998359Y-104480939D01*
X134755405Y-104380304D01*
X134497486Y-104329000D01*
X134234514Y-104329000D01*
X133976595Y-104380304D01*
X133733641Y-104480939D01*
X133514987Y-104627038D01*
X133329038Y-104812987D01*
X133182939Y-105031641D01*
X133082304Y-105274595D01*
X133031000Y-105532514D01*
X133031000Y-105795486D01*
X133082304Y-106053405D01*
X133182939Y-106296359D01*
X133329038Y-106515013D01*
X133514987Y-106700962D01*
X133606001Y-106761775D01*
X133606000Y-114845332D01*
X133606001Y-114845342D01*
X133606001Y-115767199D01*
X132332000Y-114493199D01*
X132332000Y-96961801D01*
X133029802Y-96264000D01*
X133268225Y-96264000D01*
X133329038Y-96355013D01*
X133514987Y-96540962D01*
X133733641Y-96687061D01*
X133976595Y-96787696D01*
X134234514Y-96839000D01*
X134497486Y-96839000D01*
X134755405Y-96787696D01*
X134998359Y-96687061D01*
X135217013Y-96540962D01*
X135402962Y-96355013D01*
X135463775Y-96264000D01*
X136570225Y-96264000D01*
X136631038Y-96355013D01*
X136816987Y-96540962D01*
X137035641Y-96687061D01*
X137278595Y-96787696D01*
X137536514Y-96839000D01*
X137799486Y-96839000D01*
X138057405Y-96787696D01*
X138300359Y-96687061D01*
X138519013Y-96540962D01*
X138704962Y-96355013D01*
X138851061Y-96136359D01*
X138951696Y-95893405D01*
X138962850Y-95837329D01*
X143995284Y-95837329D01*
X144027953Y-95945044D01*
X144138208Y-96182392D01*
X144292649Y-96393670D01*
X144485340Y-96570759D01*
X144708877Y-96706853D01*
X144954670Y-96796722D01*
X145161000Y-96674201D01*
X145161000Y-95631000D01*
X145415000Y-95631000D01*
X145415000Y-96674201D01*
X145621330Y-96796722D01*
X145867123Y-96706853D01*
X146090660Y-96570759D01*
X146283351Y-96393670D01*
X146437792Y-96182392D01*
X146548047Y-95945044D01*
X146580716Y-95837329D01*
X146457374Y-95631000D01*
X145415000Y-95631000D01*
X145161000Y-95631000D01*
X144118626Y-95631000D01*
X143995284Y-95837329D01*
X138962850Y-95837329D01*
X139003000Y-95635486D01*
X139003000Y-95372514D01*
X138962851Y-95170671D01*
X143995284Y-95170671D01*
X144118626Y-95377000D01*
X145161000Y-95377000D01*
X145161000Y-94333799D01*
X145415000Y-94333799D01*
X145415000Y-95377000D01*
X146457374Y-95377000D01*
X146580716Y-95170671D01*
X146548047Y-95062956D01*
X146437792Y-94825608D01*
X146283351Y-94614330D01*
X146090660Y-94437241D01*
X145867123Y-94301147D01*
X145621330Y-94211278D01*
X145415000Y-94333799D01*
X145161000Y-94333799D01*
X144954670Y-94211278D01*
X144708877Y-94301147D01*
X144485340Y-94437241D01*
X144292649Y-94614330D01*
X144138208Y-94825608D01*
X144027953Y-95062956D01*
X143995284Y-95170671D01*
X138962851Y-95170671D01*
X138951696Y-95114595D01*
X138851061Y-94871641D01*
X138704962Y-94652987D01*
X138519013Y-94467038D01*
X138300359Y-94320939D01*
X138057405Y-94220304D01*
X137799486Y-94169000D01*
X137536514Y-94169000D01*
X137278595Y-94220304D01*
X137035641Y-94320939D01*
X136816987Y-94467038D01*
X136631038Y-94652987D01*
X136570225Y-94744000D01*
X135463775Y-94744000D01*
X135402962Y-94652987D01*
X135217013Y-94467038D01*
X134998359Y-94320939D01*
X134755405Y-94220304D01*
X134497486Y-94169000D01*
X134234514Y-94169000D01*
X133976595Y-94220304D01*
X133733641Y-94320939D01*
X133514987Y-94467038D01*
X133329038Y-94652987D01*
X133268225Y-94744000D01*
X132752322Y-94744000D01*
X132714999Y-94740324D01*
X132677676Y-94744000D01*
X132677667Y-94744000D01*
X132566014Y-94754997D01*
X132422753Y-94798454D01*
X132290723Y-94869026D01*
X132207083Y-94937668D01*
X132174999Y-94963999D01*
X132151201Y-94992997D01*
X131060998Y-96083201D01*
X131032000Y-96106999D01*
X131008202Y-96135997D01*
X131008201Y-96135998D01*
X130937026Y-96222724D01*
X130866454Y-96354754D01*
X130822998Y-96498015D01*
X130808324Y-96647000D01*
X130812001Y-96684333D01*
X130812000Y-114770678D01*
X130808324Y-114808000D01*
X130812000Y-114845322D01*
X130812000Y-114845332D01*
X130822997Y-114956985D01*
X130855459Y-115064000D01*
X130866454Y-115100246D01*
X130937026Y-115232276D01*
X130969785Y-115272192D01*
X131031999Y-115348001D01*
X131061003Y-115371804D01*
X132155605Y-116466406D01*
X131927335Y-116421000D01*
X131644665Y-116421000D01*
X131367426Y-116476147D01*
X131106273Y-116584320D01*
X130871241Y-116741363D01*
X130704661Y-116907943D01*
X130675502Y-116811820D01*
X130616537Y-116701506D01*
X130537185Y-116604815D01*
X130440494Y-116525463D01*
X130330180Y-116466498D01*
X130210482Y-116430188D01*
X130086000Y-116417928D01*
X128486000Y-116417928D01*
X128361518Y-116430188D01*
X128241820Y-116466498D01*
X128131506Y-116525463D01*
X128034815Y-116604815D01*
X127955463Y-116701506D01*
X127896498Y-116811820D01*
X127860188Y-116931518D01*
X127847928Y-117056000D01*
X127847928Y-118656000D01*
X127860188Y-118780482D01*
X127896498Y-118900180D01*
X127955463Y-119010494D01*
X128034815Y-119107185D01*
X128131506Y-119186537D01*
X128226751Y-119237447D01*
X126111588Y-121352610D01*
X126128000Y-121185978D01*
X126128000Y-120622021D01*
X126111215Y-120451600D01*
X126044885Y-120232940D01*
X125937171Y-120031421D01*
X125792212Y-119854788D01*
X125728000Y-119802091D01*
X125728000Y-117281801D01*
X127257003Y-115752799D01*
X127286001Y-115729001D01*
X127380974Y-115613276D01*
X127451546Y-115481247D01*
X127495003Y-115337986D01*
X127506000Y-115226333D01*
X127506000Y-115226325D01*
X127509676Y-115189000D01*
X127506000Y-115151675D01*
X127506000Y-106761775D01*
X127597013Y-106700962D01*
X127782962Y-106515013D01*
X127929061Y-106296359D01*
X128029696Y-106053405D01*
X128081000Y-105795486D01*
X128081000Y-105532514D01*
X128029696Y-105274595D01*
X127929061Y-105031641D01*
X127782962Y-104812987D01*
X127597013Y-104627038D01*
X127378359Y-104480939D01*
X127135405Y-104380304D01*
X126877486Y-104329000D01*
X126614514Y-104329000D01*
X126356595Y-104380304D01*
X126113641Y-104480939D01*
X125982000Y-104568898D01*
X125982000Y-101679102D01*
X126113641Y-101767061D01*
X126356595Y-101867696D01*
X126614514Y-101919000D01*
X126877486Y-101919000D01*
X127135405Y-101867696D01*
X127378359Y-101767061D01*
X127597013Y-101620962D01*
X127782962Y-101435013D01*
X127929061Y-101216359D01*
X128029696Y-100973405D01*
X128081000Y-100715486D01*
X128081000Y-100452514D01*
X128029696Y-100194595D01*
X127929061Y-99951641D01*
X127782962Y-99732987D01*
X127597013Y-99547038D01*
X127378359Y-99400939D01*
X127135405Y-99300304D01*
X126877486Y-99249000D01*
X126614514Y-99249000D01*
X126356595Y-99300304D01*
X126113641Y-99400939D01*
X125982000Y-99488898D01*
X125982000Y-97573323D01*
X125985676Y-97536000D01*
X125982000Y-97498677D01*
X125982000Y-97498667D01*
X125971003Y-97387014D01*
X125927546Y-97243753D01*
X125921762Y-97232932D01*
X125856974Y-97111723D01*
X125785799Y-97024997D01*
X125762001Y-96995999D01*
X125733004Y-96972202D01*
X124503645Y-95742844D01*
X124525000Y-95635486D01*
X124525000Y-95372514D01*
X124473696Y-95114595D01*
X124373061Y-94871641D01*
X124285102Y-94740000D01*
X125650898Y-94740000D01*
X125562939Y-94871641D01*
X125462304Y-95114595D01*
X125411000Y-95372514D01*
X125411000Y-95635486D01*
X125462304Y-95893405D01*
X125562939Y-96136359D01*
X125709038Y-96355013D01*
X125894987Y-96540962D01*
X126113641Y-96687061D01*
X126356595Y-96787696D01*
X126614514Y-96839000D01*
X126877486Y-96839000D01*
X127135405Y-96787696D01*
X127378359Y-96687061D01*
X127597013Y-96540962D01*
X127782962Y-96355013D01*
X127929061Y-96136359D01*
X128029696Y-95893405D01*
X128081000Y-95635486D01*
X128081000Y-95372514D01*
X128029696Y-95114595D01*
X127929061Y-94871641D01*
X127782962Y-94652987D01*
X127597013Y-94467038D01*
X127501314Y-94403095D01*
X127495003Y-94339014D01*
X127451546Y-94195753D01*
X127380974Y-94063724D01*
X127286001Y-93947999D01*
X127257002Y-93924200D01*
X126801803Y-93469002D01*
X126778001Y-93439999D01*
X126662276Y-93345026D01*
X126530247Y-93274454D01*
X126386986Y-93230997D01*
X126275333Y-93220000D01*
X126275322Y-93220000D01*
X126238000Y-93216324D01*
X126200678Y-93220000D01*
X122211322Y-93220000D01*
X122174000Y-93216324D01*
X122136677Y-93220000D01*
X122136667Y-93220000D01*
X122025014Y-93230997D01*
X121881753Y-93274454D01*
X121749723Y-93345026D01*
X121680966Y-93401454D01*
X121633999Y-93439999D01*
X121610201Y-93468997D01*
X120647002Y-94432196D01*
X120617999Y-94455999D01*
X120578758Y-94503815D01*
X120523026Y-94571724D01*
X120452911Y-94702899D01*
X120452454Y-94703754D01*
X120408997Y-94847015D01*
X120398000Y-94958668D01*
X120398000Y-94958678D01*
X120394324Y-94996000D01*
X120398000Y-95033323D01*
X120398001Y-101816668D01*
X120394324Y-101854000D01*
X120398001Y-101891333D01*
X120400449Y-101916182D01*
X120408998Y-102002985D01*
X120452454Y-102146246D01*
X120523026Y-102278276D01*
X120589273Y-102358997D01*
X120618000Y-102394001D01*
X120646998Y-102417799D01*
X121610200Y-103381002D01*
X121633999Y-103410001D01*
X121662997Y-103433799D01*
X121749723Y-103504974D01*
X121873735Y-103571260D01*
X121881753Y-103575546D01*
X122025014Y-103619003D01*
X122136667Y-103630000D01*
X122136677Y-103630000D01*
X122174000Y-103633676D01*
X122211322Y-103630000D01*
X122621199Y-103630000D01*
X123320198Y-104329000D01*
X123058514Y-104329000D01*
X122800595Y-104380304D01*
X122557641Y-104480939D01*
X122338987Y-104627038D01*
X122153038Y-104812987D01*
X122092225Y-104904000D01*
X120306323Y-104904000D01*
X120269000Y-104900324D01*
X120231677Y-104904000D01*
X120231667Y-104904000D01*
X120120014Y-104914997D01*
X119976753Y-104958454D01*
X119844724Y-105029026D01*
X119728999Y-105123999D01*
X119705201Y-105152997D01*
X116837003Y-108021196D01*
X116807999Y-108044999D01*
X116755474Y-108109001D01*
X116713026Y-108160724D01*
X116646057Y-108286014D01*
X116642454Y-108292754D01*
X116598997Y-108436015D01*
X116588000Y-108547668D01*
X116588000Y-108547678D01*
X116584324Y-108585000D01*
X116588000Y-108622323D01*
X116588001Y-111133928D01*
X115553000Y-111133928D01*
X115428518Y-111146188D01*
X115308820Y-111182498D01*
X115198506Y-111241463D01*
X115101815Y-111320815D01*
X115022463Y-111417506D01*
X114963498Y-111527820D01*
X114927188Y-111647518D01*
X114914928Y-111772000D01*
X114914928Y-113272000D01*
X114927188Y-113396482D01*
X114963498Y-113516180D01*
X115022463Y-113626494D01*
X115101815Y-113723185D01*
X115198506Y-113802537D01*
X115308820Y-113861502D01*
X115428518Y-113897812D01*
X115553000Y-113910072D01*
X116603000Y-113910072D01*
X116727482Y-113897812D01*
X116847180Y-113861502D01*
X116911902Y-113826907D01*
X117120601Y-113890215D01*
X117348000Y-113912612D01*
X117575400Y-113890215D01*
X117794060Y-113823885D01*
X117983001Y-113722894D01*
X118171941Y-113823885D01*
X118390601Y-113890215D01*
X118618000Y-113912612D01*
X118845400Y-113890215D01*
X119064060Y-113823885D01*
X119265579Y-113716171D01*
X119442212Y-113571212D01*
X119587171Y-113394579D01*
X119694885Y-113193059D01*
X119761215Y-112974399D01*
X119778000Y-112803978D01*
X119778000Y-112240021D01*
X119761215Y-112069600D01*
X119694885Y-111850940D01*
X119587171Y-111649421D01*
X119442212Y-111472788D01*
X119378000Y-111420091D01*
X119378000Y-109153801D01*
X119567802Y-108964000D01*
X123787678Y-108964000D01*
X123825000Y-108967676D01*
X123862322Y-108964000D01*
X123862333Y-108964000D01*
X123973986Y-108953003D01*
X124117247Y-108909546D01*
X124249276Y-108838974D01*
X124365001Y-108744001D01*
X124388803Y-108714998D01*
X124841000Y-108262801D01*
X125328000Y-108749802D01*
X125328000Y-111141828D01*
X125222000Y-111131388D01*
X124994600Y-111153785D01*
X124775940Y-111220115D01*
X124586999Y-111321106D01*
X124398059Y-111220115D01*
X124179399Y-111153785D01*
X123952000Y-111131388D01*
X123724600Y-111153785D01*
X123515902Y-111217093D01*
X123451180Y-111182498D01*
X123331482Y-111146188D01*
X123207000Y-111133928D01*
X122157000Y-111133928D01*
X122032518Y-111146188D01*
X121912820Y-111182498D01*
X121802506Y-111241463D01*
X121705815Y-111320815D01*
X121626463Y-111417506D01*
X121567498Y-111527820D01*
X121531188Y-111647518D01*
X121518928Y-111772000D01*
X121518928Y-113272000D01*
X121531188Y-113396482D01*
X121567498Y-113516180D01*
X121626463Y-113626494D01*
X121705815Y-113723185D01*
X121802506Y-113802537D01*
X121912820Y-113861502D01*
X122032518Y-113897812D01*
X122157000Y-113910072D01*
X123207000Y-113910072D01*
X123331482Y-113897812D01*
X123451180Y-113861502D01*
X123515902Y-113826907D01*
X123724601Y-113890215D01*
X123952000Y-113912612D01*
X124179400Y-113890215D01*
X124398060Y-113823885D01*
X124587001Y-113722894D01*
X124775941Y-113823885D01*
X124994601Y-113890215D01*
X125222000Y-113912612D01*
X125328001Y-113902172D01*
X125328001Y-114594296D01*
X123187003Y-116735296D01*
X123157999Y-116759099D01*
X123109649Y-116818014D01*
X123063026Y-116874824D01*
X122992455Y-117006853D01*
X122992454Y-117006854D01*
X122948997Y-117150115D01*
X122938000Y-117261768D01*
X122938000Y-117261778D01*
X122934324Y-117299100D01*
X122938000Y-117336423D01*
X122938001Y-119515928D01*
X121903000Y-119515928D01*
X121778518Y-119528188D01*
X121658820Y-119564498D01*
X121548506Y-119623463D01*
X121451815Y-119702815D01*
X121372463Y-119799506D01*
X121313498Y-119909820D01*
X121277188Y-120029518D01*
X121264928Y-120154000D01*
X121264928Y-121654000D01*
X121277188Y-121778482D01*
X121313498Y-121898180D01*
X121372463Y-122008494D01*
X121451815Y-122105185D01*
X121548506Y-122184537D01*
X121658820Y-122243502D01*
X121778518Y-122279812D01*
X121903000Y-122292072D01*
X122953000Y-122292072D01*
X123077482Y-122279812D01*
X123197180Y-122243502D01*
X123261902Y-122208907D01*
X123470601Y-122272215D01*
X123698000Y-122294612D01*
X123925400Y-122272215D01*
X124144060Y-122205885D01*
X124333000Y-122104894D01*
X124521941Y-122205885D01*
X124740601Y-122272215D01*
X124968000Y-122294612D01*
X125191610Y-122272588D01*
X124018199Y-123446000D01*
X121322322Y-123446000D01*
X121284999Y-123442324D01*
X121247676Y-123446000D01*
X121247667Y-123446000D01*
X121136014Y-123456997D01*
X120992753Y-123500454D01*
X120860724Y-123571026D01*
X120744999Y-123665999D01*
X120721201Y-123694997D01*
X119736891Y-124679307D01*
X119753000Y-124515752D01*
X119753000Y-124515751D01*
X119758491Y-124460000D01*
X119753000Y-124404249D01*
X119753000Y-121383480D01*
X119761215Y-121356399D01*
X119778000Y-121185978D01*
X119778000Y-120622021D01*
X119761215Y-120451600D01*
X119694885Y-120232940D01*
X119587171Y-120031421D01*
X119442212Y-119854788D01*
X119265578Y-119709829D01*
X119064059Y-119602115D01*
X118845399Y-119535785D01*
X118618000Y-119513388D01*
X118390600Y-119535785D01*
X118171940Y-119602115D01*
X117983000Y-119703106D01*
X117794059Y-119602115D01*
X117575399Y-119535785D01*
X117348000Y-119513388D01*
X117120600Y-119535785D01*
X116911902Y-119599093D01*
X116847180Y-119564498D01*
X116727482Y-119528188D01*
X116603000Y-119515928D01*
X115553000Y-119515928D01*
X115428518Y-119528188D01*
X115308820Y-119564498D01*
X115198506Y-119623463D01*
X115101815Y-119702815D01*
X115022463Y-119799506D01*
X114963498Y-119909820D01*
X114927188Y-120029518D01*
X114914928Y-120154000D01*
X114914928Y-121654000D01*
X114927188Y-121778482D01*
X114963498Y-121898180D01*
X115022463Y-122008494D01*
X115101815Y-122105185D01*
X115155200Y-122148997D01*
X114239199Y-123065000D01*
X110478317Y-123065000D01*
X110574574Y-123045853D01*
X110835727Y-122937680D01*
X111070759Y-122780637D01*
X111270637Y-122580759D01*
X111427680Y-122345727D01*
X111535853Y-122084574D01*
X111591000Y-121807335D01*
X111591000Y-121524665D01*
X111535853Y-121247426D01*
X111427680Y-120986273D01*
X111270637Y-120751241D01*
X111070759Y-120551363D01*
X110835727Y-120394320D01*
X110574574Y-120286147D01*
X110297335Y-120231000D01*
X110014665Y-120231000D01*
X109737426Y-120286147D01*
X109476273Y-120394320D01*
X109241241Y-120551363D01*
X109041363Y-120751241D01*
X108884320Y-120986273D01*
X108776147Y-121247426D01*
X108721000Y-121524665D01*
X108721000Y-121807335D01*
X108776147Y-122084574D01*
X108884320Y-122345727D01*
X109041363Y-122580759D01*
X109241241Y-122780637D01*
X109476273Y-122937680D01*
X109737426Y-123045853D01*
X109833683Y-123065000D01*
X107733322Y-123065000D01*
X107695999Y-123061324D01*
X107658676Y-123065000D01*
X107658667Y-123065000D01*
X107547014Y-123075997D01*
X107403753Y-123119454D01*
X107271724Y-123190026D01*
X107155999Y-123284999D01*
X107132201Y-123313997D01*
X105914998Y-124531201D01*
X105886000Y-124554999D01*
X105862202Y-124583997D01*
X105862201Y-124583998D01*
X105791026Y-124670724D01*
X105720454Y-124802754D01*
X105709361Y-124839324D01*
X105676998Y-124946014D01*
X105671681Y-125000001D01*
X105662324Y-125095000D01*
X105666001Y-125132332D01*
X105666001Y-125394225D01*
X105574987Y-125455038D01*
X105389038Y-125640987D01*
X105242939Y-125859641D01*
X105142304Y-126102595D01*
X105091000Y-126360514D01*
X105091000Y-126623486D01*
X105142304Y-126881405D01*
X105242939Y-127124359D01*
X105389038Y-127343013D01*
X105574987Y-127528962D01*
X105793641Y-127675061D01*
X106036595Y-127775696D01*
X106294514Y-127827000D01*
X106557486Y-127827000D01*
X106815405Y-127775696D01*
X107058359Y-127675061D01*
X107277013Y-127528962D01*
X107462962Y-127343013D01*
X107609061Y-127124359D01*
X107709696Y-126881405D01*
X107761000Y-126623486D01*
X107761000Y-126360514D01*
X107709696Y-126102595D01*
X107609061Y-125859641D01*
X107462962Y-125640987D01*
X107277013Y-125455038D01*
X107195337Y-125400464D01*
X108010802Y-124585000D01*
X111322199Y-124585000D01*
X110994998Y-124912201D01*
X110966000Y-124935999D01*
X110942202Y-124964997D01*
X110942201Y-124964998D01*
X110871026Y-125051724D01*
X110800454Y-125183754D01*
X110785834Y-125231953D01*
X110761038Y-125313698D01*
X110756998Y-125327015D01*
X110750687Y-125391094D01*
X110654987Y-125455038D01*
X110469038Y-125640987D01*
X110322939Y-125859641D01*
X110222304Y-126102595D01*
X110171000Y-126360514D01*
X110171000Y-126623486D01*
X110222304Y-126881405D01*
X110322939Y-127124359D01*
X110469038Y-127343013D01*
X110654987Y-127528962D01*
X110873641Y-127675061D01*
X111116595Y-127775696D01*
X111374514Y-127827000D01*
X111637486Y-127827000D01*
X111895405Y-127775696D01*
X112138359Y-127675061D01*
X112357013Y-127528962D01*
X112542962Y-127343013D01*
X112689061Y-127124359D01*
X112789696Y-126881405D01*
X112841000Y-126623486D01*
X112841000Y-126360514D01*
X112789696Y-126102595D01*
X112689061Y-125859641D01*
X112542962Y-125640987D01*
X112479388Y-125577413D01*
X112963802Y-125093000D01*
X115659678Y-125093000D01*
X115697000Y-125096676D01*
X115734322Y-125093000D01*
X115734333Y-125093000D01*
X115845986Y-125082003D01*
X115989247Y-125038546D01*
X116121276Y-124967974D01*
X116237001Y-124873001D01*
X116260804Y-124843997D01*
X117483000Y-123621802D01*
X117483000Y-123989868D01*
X116281442Y-125191427D01*
X116196595Y-125208304D01*
X115953641Y-125308939D01*
X115734987Y-125455038D01*
X115549038Y-125640987D01*
X115402939Y-125859641D01*
X115302304Y-126102595D01*
X115251000Y-126360514D01*
X115251000Y-126623486D01*
X115302304Y-126881405D01*
X115402939Y-127124359D01*
X115549038Y-127343013D01*
X115734987Y-127528962D01*
X115953641Y-127675061D01*
X116196595Y-127775696D01*
X116454514Y-127827000D01*
X116717486Y-127827000D01*
X116975405Y-127775696D01*
X117218359Y-127675061D01*
X117437013Y-127528962D01*
X117622962Y-127343013D01*
X117769061Y-127124359D01*
X117869696Y-126881405D01*
X117886573Y-126796558D01*
X118240152Y-126442979D01*
X118235324Y-126492000D01*
X118239001Y-126529332D01*
X118239000Y-127359196D01*
X113534998Y-132063199D01*
X113506000Y-132086997D01*
X113482202Y-132115995D01*
X113482201Y-132115996D01*
X113411026Y-132202722D01*
X113340454Y-132334752D01*
X113296998Y-132478013D01*
X113282324Y-132626998D01*
X113286001Y-132664330D01*
X113286000Y-135067198D01*
X112969199Y-135384000D01*
X111923642Y-135384000D01*
X112138359Y-135295061D01*
X112357013Y-135148962D01*
X112542962Y-134963013D01*
X112689061Y-134744359D01*
X112789696Y-134501405D01*
X112841000Y-134243486D01*
X112841000Y-133980514D01*
X112789696Y-133722595D01*
X112689061Y-133479641D01*
X112542962Y-133260987D01*
X112357013Y-133075038D01*
X112261314Y-133011095D01*
X112255003Y-132947014D01*
X112211546Y-132803753D01*
X112140974Y-132671724D01*
X112046001Y-132555999D01*
X112017004Y-132532202D01*
X109783804Y-130299003D01*
X109760001Y-130269999D01*
X109644276Y-130175026D01*
X109512247Y-130104454D01*
X109368986Y-130060997D01*
X109257333Y-130050000D01*
X109257322Y-130050000D01*
X109220000Y-130046324D01*
X109182678Y-130050000D01*
X99374802Y-130050000D01*
X96702804Y-127378003D01*
X96679001Y-127348999D01*
X96563276Y-127254026D01*
X96431247Y-127183454D01*
X96287986Y-127139997D01*
X96176333Y-127129000D01*
X96176322Y-127129000D01*
X96139000Y-127125324D01*
X96101678Y-127129000D01*
X93786802Y-127129000D01*
X93483132Y-126825330D01*
X99799278Y-126825330D01*
X99889147Y-127071123D01*
X100025241Y-127294660D01*
X100202330Y-127487351D01*
X100413608Y-127641792D01*
X100650956Y-127752047D01*
X100758671Y-127784716D01*
X100965000Y-127661374D01*
X100965000Y-126619000D01*
X101219000Y-126619000D01*
X101219000Y-127661374D01*
X101425329Y-127784716D01*
X101533044Y-127752047D01*
X101770392Y-127641792D01*
X101981670Y-127487351D01*
X102158759Y-127294660D01*
X102294853Y-127071123D01*
X102384722Y-126825330D01*
X102262201Y-126619000D01*
X101219000Y-126619000D01*
X100965000Y-126619000D01*
X99921799Y-126619000D01*
X99799278Y-126825330D01*
X93483132Y-126825330D01*
X92816472Y-126158670D01*
X99799278Y-126158670D01*
X99921799Y-126365000D01*
X100965000Y-126365000D01*
X100965000Y-125322626D01*
X101219000Y-125322626D01*
X101219000Y-126365000D01*
X102262201Y-126365000D01*
X102384722Y-126158670D01*
X102294853Y-125912877D01*
X102158759Y-125689340D01*
X101981670Y-125496649D01*
X101770392Y-125342208D01*
X101533044Y-125231953D01*
X101425329Y-125199284D01*
X101219000Y-125322626D01*
X100965000Y-125322626D01*
X100758671Y-125199284D01*
X100650956Y-125231953D01*
X100413608Y-125342208D01*
X100202330Y-125496649D01*
X100025241Y-125689340D01*
X99889147Y-125912877D01*
X99799278Y-126158670D01*
X92816472Y-126158670D01*
X91946000Y-125288199D01*
X91946000Y-121374000D01*
X92541928Y-121374000D01*
X92541928Y-122974000D01*
X92554188Y-123098482D01*
X92590498Y-123218180D01*
X92649463Y-123328494D01*
X92728815Y-123425185D01*
X92825506Y-123504537D01*
X92935820Y-123563502D01*
X93055518Y-123599812D01*
X93180000Y-123612072D01*
X94780000Y-123612072D01*
X94904482Y-123599812D01*
X95024180Y-123563502D01*
X95134494Y-123504537D01*
X95231185Y-123425185D01*
X95310537Y-123328494D01*
X95369502Y-123218180D01*
X95385117Y-123166702D01*
X95666903Y-123166702D01*
X95738486Y-123410671D01*
X95993996Y-123531571D01*
X96268184Y-123600300D01*
X96550512Y-123614217D01*
X96830130Y-123572787D01*
X97096292Y-123477603D01*
X97221514Y-123410671D01*
X97293097Y-123166702D01*
X96480000Y-122353605D01*
X95666903Y-123166702D01*
X95385117Y-123166702D01*
X95405812Y-123098482D01*
X95418072Y-122974000D01*
X95418072Y-122966785D01*
X95487298Y-122987097D01*
X96300395Y-122174000D01*
X96659605Y-122174000D01*
X97472702Y-122987097D01*
X97716671Y-122915514D01*
X97837571Y-122660004D01*
X97837897Y-122658702D01*
X104342903Y-122658702D01*
X104414486Y-122902671D01*
X104669996Y-123023571D01*
X104944184Y-123092300D01*
X105226512Y-123106217D01*
X105506130Y-123064787D01*
X105772292Y-122969603D01*
X105897514Y-122902671D01*
X105969097Y-122658702D01*
X105156000Y-121845605D01*
X104342903Y-122658702D01*
X97837897Y-122658702D01*
X97906300Y-122385816D01*
X97920217Y-122103488D01*
X97878787Y-121823870D01*
X97847547Y-121736512D01*
X103715783Y-121736512D01*
X103757213Y-122016130D01*
X103852397Y-122282292D01*
X103919329Y-122407514D01*
X104163298Y-122479097D01*
X104976395Y-121666000D01*
X105335605Y-121666000D01*
X106148702Y-122479097D01*
X106392671Y-122407514D01*
X106513571Y-122152004D01*
X106582300Y-121877816D01*
X106596217Y-121595488D01*
X106554787Y-121315870D01*
X106459603Y-121049708D01*
X106392671Y-120924486D01*
X106148702Y-120852903D01*
X105335605Y-121666000D01*
X104976395Y-121666000D01*
X104163298Y-120852903D01*
X103919329Y-120924486D01*
X103798429Y-121179996D01*
X103729700Y-121454184D01*
X103715783Y-121736512D01*
X97847547Y-121736512D01*
X97783603Y-121557708D01*
X97716671Y-121432486D01*
X97472702Y-121360903D01*
X96659605Y-122174000D01*
X96300395Y-122174000D01*
X95487298Y-121360903D01*
X95418072Y-121381215D01*
X95418072Y-121374000D01*
X95405812Y-121249518D01*
X95385118Y-121181298D01*
X95666903Y-121181298D01*
X96480000Y-121994395D01*
X97293097Y-121181298D01*
X97221514Y-120937329D01*
X96966004Y-120816429D01*
X96691816Y-120747700D01*
X96409488Y-120733783D01*
X96129870Y-120775213D01*
X95863708Y-120870397D01*
X95738486Y-120937329D01*
X95666903Y-121181298D01*
X95385118Y-121181298D01*
X95369502Y-121129820D01*
X95310537Y-121019506D01*
X95231185Y-120922815D01*
X95134494Y-120843463D01*
X95024180Y-120784498D01*
X94904482Y-120748188D01*
X94780000Y-120735928D01*
X93180000Y-120735928D01*
X93055518Y-120748188D01*
X92935820Y-120784498D01*
X92825506Y-120843463D01*
X92728815Y-120922815D01*
X92649463Y-121019506D01*
X92590498Y-121129820D01*
X92554188Y-121249518D01*
X92541928Y-121374000D01*
X91946000Y-121374000D01*
X91946000Y-120673298D01*
X104342903Y-120673298D01*
X105156000Y-121486395D01*
X105969097Y-120673298D01*
X105897514Y-120429329D01*
X105642004Y-120308429D01*
X105367816Y-120239700D01*
X105085488Y-120225783D01*
X104805870Y-120267213D01*
X104539708Y-120362397D01*
X104414486Y-120429329D01*
X104342903Y-120673298D01*
X91946000Y-120673298D01*
X91946000Y-118713039D01*
X102094096Y-118713039D01*
X102111633Y-118795818D01*
X102222285Y-119055646D01*
X102381500Y-119288895D01*
X102583161Y-119486601D01*
X102819517Y-119641166D01*
X103081486Y-119746650D01*
X103359000Y-119799000D01*
X103759000Y-119799000D01*
X103759000Y-118491000D01*
X104013000Y-118491000D01*
X104013000Y-119799000D01*
X104413000Y-119799000D01*
X104690514Y-119746650D01*
X104952483Y-119641166D01*
X105188839Y-119486601D01*
X105390500Y-119288895D01*
X105549715Y-119055646D01*
X105660367Y-118795818D01*
X105677904Y-118713039D01*
X105555915Y-118491000D01*
X104013000Y-118491000D01*
X103759000Y-118491000D01*
X102216085Y-118491000D01*
X102094096Y-118713039D01*
X91946000Y-118713039D01*
X91946000Y-114860506D01*
X92006589Y-114900990D01*
X92276842Y-115012932D01*
X92563740Y-115070000D01*
X92856260Y-115070000D01*
X93143158Y-115012932D01*
X93413411Y-114900990D01*
X93656632Y-114738475D01*
X93863475Y-114531632D01*
X93981100Y-114355594D01*
X94152412Y-114585269D01*
X94368645Y-114780178D01*
X94618748Y-114929157D01*
X94893109Y-115026481D01*
X95123000Y-114905814D01*
X95123000Y-113712000D01*
X95377000Y-113712000D01*
X95377000Y-114905814D01*
X95606891Y-115026481D01*
X95881252Y-114929157D01*
X96131355Y-114780178D01*
X96347588Y-114585269D01*
X96521641Y-114351920D01*
X96646825Y-114089099D01*
X96691476Y-113941890D01*
X96570155Y-113712000D01*
X95377000Y-113712000D01*
X95123000Y-113712000D01*
X95103000Y-113712000D01*
X95103000Y-113458000D01*
X95123000Y-113458000D01*
X95123000Y-113438000D01*
X95377000Y-113438000D01*
X95377000Y-113458000D01*
X96570155Y-113458000D01*
X96691476Y-113228110D01*
X96646825Y-113080901D01*
X96521641Y-112818080D01*
X96347588Y-112584731D01*
X96131355Y-112389822D01*
X96014466Y-112320195D01*
X96196632Y-112198475D01*
X96403475Y-111991632D01*
X96565990Y-111748411D01*
X96677932Y-111478158D01*
X96735000Y-111191260D01*
X96735000Y-110898740D01*
X96677932Y-110611842D01*
X96565990Y-110341589D01*
X96403475Y-110098368D01*
X96196632Y-109891525D01*
X96022240Y-109775000D01*
X96196632Y-109658475D01*
X96403475Y-109451632D01*
X96565990Y-109208411D01*
X96677932Y-108938158D01*
X96735000Y-108651260D01*
X96735000Y-108358740D01*
X96677932Y-108071842D01*
X96626635Y-107948000D01*
X98491199Y-107948000D01*
X100528200Y-109985002D01*
X100551999Y-110014001D01*
X100667724Y-110108974D01*
X100799753Y-110179546D01*
X100943014Y-110223003D01*
X101054667Y-110234000D01*
X101054676Y-110234000D01*
X101091999Y-110237676D01*
X101129322Y-110234000D01*
X102141136Y-110234000D01*
X102071764Y-110462691D01*
X102044057Y-110744000D01*
X102071764Y-111025309D01*
X102153818Y-111295808D01*
X102287068Y-111545101D01*
X102466392Y-111763608D01*
X102684899Y-111942932D01*
X102817858Y-112014000D01*
X102684899Y-112085068D01*
X102466392Y-112264392D01*
X102287068Y-112482899D01*
X102153818Y-112732192D01*
X102071764Y-113002691D01*
X102044057Y-113284000D01*
X102071764Y-113565309D01*
X102153818Y-113835808D01*
X102287068Y-114085101D01*
X102466392Y-114303608D01*
X102684899Y-114482932D01*
X102817858Y-114554000D01*
X102684899Y-114625068D01*
X102466392Y-114804392D01*
X102287068Y-115022899D01*
X102153818Y-115272192D01*
X102071764Y-115542691D01*
X102044057Y-115824000D01*
X102071764Y-116105309D01*
X102153818Y-116375808D01*
X102287068Y-116625101D01*
X102466392Y-116843608D01*
X102684899Y-117022932D01*
X102812741Y-117091265D01*
X102583161Y-117241399D01*
X102381500Y-117439105D01*
X102222285Y-117672354D01*
X102111633Y-117932182D01*
X102094096Y-118014961D01*
X102216085Y-118237000D01*
X103759000Y-118237000D01*
X103759000Y-118217000D01*
X104013000Y-118217000D01*
X104013000Y-118237000D01*
X105555915Y-118237000D01*
X105677904Y-118014961D01*
X105660367Y-117932182D01*
X105549715Y-117672354D01*
X105390500Y-117439105D01*
X105188839Y-117241399D01*
X104959259Y-117091265D01*
X105087101Y-117022932D01*
X105305608Y-116843608D01*
X105484932Y-116625101D01*
X105618182Y-116375808D01*
X105700236Y-116105309D01*
X105727943Y-115824000D01*
X105700236Y-115542691D01*
X105618182Y-115272192D01*
X105484932Y-115022899D01*
X105305608Y-114804392D01*
X105087101Y-114625068D01*
X104954142Y-114554000D01*
X105087101Y-114482932D01*
X105305608Y-114303608D01*
X105484932Y-114085101D01*
X105618182Y-113835808D01*
X105700236Y-113565309D01*
X105727943Y-113284000D01*
X105700236Y-113002691D01*
X105618182Y-112732192D01*
X105484932Y-112482899D01*
X105305608Y-112264392D01*
X105087101Y-112085068D01*
X104954142Y-112014000D01*
X105087101Y-111942932D01*
X105305608Y-111763608D01*
X105484932Y-111545101D01*
X105618182Y-111295808D01*
X105700236Y-111025309D01*
X105727943Y-110744000D01*
X105700236Y-110462691D01*
X105630864Y-110234000D01*
X107127199Y-110234000D01*
X107571000Y-110677802D01*
X107571001Y-112230668D01*
X107567324Y-112268000D01*
X107581998Y-112416985D01*
X107625454Y-112560246D01*
X107696026Y-112692276D01*
X107762273Y-112772997D01*
X107791000Y-112808001D01*
X107819998Y-112831799D01*
X108783201Y-113795003D01*
X108806999Y-113824001D01*
X108835997Y-113847799D01*
X108922723Y-113918974D01*
X108965596Y-113941890D01*
X109054753Y-113989546D01*
X109198014Y-114033003D01*
X109309667Y-114044000D01*
X109309677Y-114044000D01*
X109347000Y-114047676D01*
X109384322Y-114044000D01*
X109885099Y-114044000D01*
X109907068Y-114085101D01*
X110086392Y-114303608D01*
X110304899Y-114482932D01*
X110437858Y-114554000D01*
X110304899Y-114625068D01*
X110086392Y-114804392D01*
X109907068Y-115022899D01*
X109773818Y-115272192D01*
X109691764Y-115542691D01*
X109664057Y-115824000D01*
X109691764Y-116105309D01*
X109773818Y-116375808D01*
X109907068Y-116625101D01*
X110086392Y-116843608D01*
X110304899Y-117022932D01*
X110437858Y-117094000D01*
X110304899Y-117165068D01*
X110086392Y-117344392D01*
X109907068Y-117562899D01*
X109773818Y-117812192D01*
X109691764Y-118082691D01*
X109664057Y-118364000D01*
X109691764Y-118645309D01*
X109773818Y-118915808D01*
X109907068Y-119165101D01*
X110086392Y-119383608D01*
X110304899Y-119562932D01*
X110554192Y-119696182D01*
X110824691Y-119778236D01*
X111035508Y-119799000D01*
X111976492Y-119799000D01*
X112187309Y-119778236D01*
X112457808Y-119696182D01*
X112707101Y-119562932D01*
X112925608Y-119383608D01*
X113104932Y-119165101D01*
X113238182Y-118915808D01*
X113320236Y-118645309D01*
X113347943Y-118364000D01*
X113320236Y-118082691D01*
X113238182Y-117812192D01*
X113104932Y-117562899D01*
X112925608Y-117344392D01*
X112707101Y-117165068D01*
X112574142Y-117094000D01*
X112707101Y-117022932D01*
X112925608Y-116843608D01*
X113104932Y-116625101D01*
X113126901Y-116584000D01*
X113373678Y-116584000D01*
X113411000Y-116587676D01*
X113448322Y-116584000D01*
X113448333Y-116584000D01*
X113559986Y-116573003D01*
X113703247Y-116529546D01*
X113835276Y-116458974D01*
X113951001Y-116364001D01*
X113974804Y-116334997D01*
X114302997Y-116006804D01*
X114332001Y-115983001D01*
X114426974Y-115867276D01*
X114497546Y-115735247D01*
X114541003Y-115591986D01*
X114552000Y-115480333D01*
X114552000Y-115480324D01*
X114555676Y-115443001D01*
X114552000Y-115405678D01*
X114552000Y-106533975D01*
X114718987Y-106700962D01*
X114937641Y-106847061D01*
X115180595Y-106947696D01*
X115438514Y-106999000D01*
X115701486Y-106999000D01*
X115959405Y-106947696D01*
X116202359Y-106847061D01*
X116421013Y-106700962D01*
X116606962Y-106515013D01*
X116753061Y-106296359D01*
X116853696Y-106053405D01*
X116905000Y-105795486D01*
X116905000Y-105532514D01*
X116853696Y-105274595D01*
X116753061Y-105031641D01*
X116606962Y-104812987D01*
X116421013Y-104627038D01*
X116202359Y-104480939D01*
X115959405Y-104380304D01*
X115701486Y-104329000D01*
X115438514Y-104329000D01*
X115180595Y-104380304D01*
X114937641Y-104480939D01*
X114718987Y-104627038D01*
X114545666Y-104800359D01*
X114541003Y-104753014D01*
X114497546Y-104609753D01*
X114426974Y-104477724D01*
X114332001Y-104361999D01*
X114303003Y-104338202D01*
X113847803Y-103883002D01*
X113824001Y-103853999D01*
X113708276Y-103759026D01*
X113576247Y-103688454D01*
X113432986Y-103644997D01*
X113321333Y-103634000D01*
X113321322Y-103634000D01*
X113284000Y-103630324D01*
X113250993Y-103633575D01*
X113320236Y-103405309D01*
X113347943Y-103124000D01*
X113320236Y-102842691D01*
X113238182Y-102572192D01*
X113104932Y-102322899D01*
X112925608Y-102104392D01*
X112707101Y-101925068D01*
X112574142Y-101854000D01*
X112707101Y-101782932D01*
X112925608Y-101603608D01*
X113104932Y-101385101D01*
X113238182Y-101135808D01*
X113320236Y-100865309D01*
X113347943Y-100584000D01*
X113334993Y-100452514D01*
X114235000Y-100452514D01*
X114235000Y-100715486D01*
X114286304Y-100973405D01*
X114386939Y-101216359D01*
X114533038Y-101435013D01*
X114718987Y-101620962D01*
X114937641Y-101767061D01*
X115180595Y-101867696D01*
X115438514Y-101919000D01*
X115701486Y-101919000D01*
X115959405Y-101867696D01*
X116202359Y-101767061D01*
X116421013Y-101620962D01*
X116606962Y-101435013D01*
X116753061Y-101216359D01*
X116853696Y-100973405D01*
X116905000Y-100715486D01*
X116905000Y-100452514D01*
X116853696Y-100194595D01*
X116753061Y-99951641D01*
X116606962Y-99732987D01*
X116421013Y-99547038D01*
X116202359Y-99400939D01*
X115959405Y-99300304D01*
X115701486Y-99249000D01*
X115438514Y-99249000D01*
X115180595Y-99300304D01*
X114937641Y-99400939D01*
X114718987Y-99547038D01*
X114533038Y-99732987D01*
X114386939Y-99951641D01*
X114286304Y-100194595D01*
X114235000Y-100452514D01*
X113334993Y-100452514D01*
X113320236Y-100302691D01*
X113238182Y-100032192D01*
X113104932Y-99782899D01*
X112925608Y-99564392D01*
X112707101Y-99385068D01*
X112574142Y-99314000D01*
X112707101Y-99242932D01*
X112925608Y-99063608D01*
X113104932Y-98845101D01*
X113238182Y-98595808D01*
X113320236Y-98325309D01*
X113347943Y-98044000D01*
X113320236Y-97762691D01*
X113238182Y-97492192D01*
X113104932Y-97242899D01*
X112925608Y-97024392D01*
X112707101Y-96845068D01*
X112574142Y-96774000D01*
X112707101Y-96702932D01*
X112925608Y-96523608D01*
X113104932Y-96305101D01*
X113238182Y-96055808D01*
X113320236Y-95785309D01*
X113347943Y-95504000D01*
X113334993Y-95372514D01*
X114235000Y-95372514D01*
X114235000Y-95635486D01*
X114286304Y-95893405D01*
X114386939Y-96136359D01*
X114533038Y-96355013D01*
X114718987Y-96540962D01*
X114937641Y-96687061D01*
X115180595Y-96787696D01*
X115438514Y-96839000D01*
X115701486Y-96839000D01*
X115959405Y-96787696D01*
X116202359Y-96687061D01*
X116421013Y-96540962D01*
X116606962Y-96355013D01*
X116753061Y-96136359D01*
X116853696Y-95893405D01*
X116905000Y-95635486D01*
X116905000Y-95372514D01*
X116853696Y-95114595D01*
X116753061Y-94871641D01*
X116606962Y-94652987D01*
X116421013Y-94467038D01*
X116202359Y-94320939D01*
X115959405Y-94220304D01*
X115701486Y-94169000D01*
X115438514Y-94169000D01*
X115180595Y-94220304D01*
X114937641Y-94320939D01*
X114718987Y-94467038D01*
X114533038Y-94652987D01*
X114386939Y-94871641D01*
X114286304Y-95114595D01*
X114235000Y-95372514D01*
X113334993Y-95372514D01*
X113320236Y-95222691D01*
X113238182Y-94952192D01*
X113104932Y-94702899D01*
X112925608Y-94484392D01*
X112707101Y-94305068D01*
X112457808Y-94171818D01*
X112187309Y-94089764D01*
X111976492Y-94069000D01*
X111035508Y-94069000D01*
X110824691Y-94089764D01*
X110554192Y-94171818D01*
X110304899Y-94305068D01*
X110086392Y-94484392D01*
X109907068Y-94702899D01*
X109773818Y-94952192D01*
X109691764Y-95222691D01*
X109664057Y-95504000D01*
X109691764Y-95785309D01*
X109773818Y-96055808D01*
X109907068Y-96305101D01*
X110086392Y-96523608D01*
X110304899Y-96702932D01*
X110437858Y-96774000D01*
X110304899Y-96845068D01*
X110086392Y-97024392D01*
X109907068Y-97242899D01*
X109885099Y-97284000D01*
X109280802Y-97284000D01*
X108583000Y-96586199D01*
X108583000Y-95033323D01*
X108586676Y-94996000D01*
X108583000Y-94958677D01*
X108583000Y-94958667D01*
X108572003Y-94847014D01*
X108528546Y-94703753D01*
X108457974Y-94571724D01*
X108363001Y-94455999D01*
X108334004Y-94432202D01*
X107497803Y-93596002D01*
X107474001Y-93566999D01*
X107358276Y-93472026D01*
X107226247Y-93401454D01*
X107082986Y-93357997D01*
X106971333Y-93347000D01*
X106971322Y-93347000D01*
X106934000Y-93343324D01*
X106896678Y-93347000D01*
X91604322Y-93347000D01*
X91566999Y-93343324D01*
X91529676Y-93347000D01*
X91529667Y-93347000D01*
X91418014Y-93357997D01*
X91274753Y-93401454D01*
X91142724Y-93472026D01*
X91026999Y-93566999D01*
X91003196Y-93596003D01*
X90674998Y-93924201D01*
X90646000Y-93947999D01*
X90622202Y-93976997D01*
X90622201Y-93976998D01*
X90551026Y-94063724D01*
X90480454Y-94195754D01*
X90457251Y-94272247D01*
X90436998Y-94339014D01*
X90430570Y-94404276D01*
X90422324Y-94488000D01*
X90322000Y-94488000D01*
X90322000Y-93116000D01*
X147168000Y-93116000D01*
X147168001Y-137008000D01*
G37*
%TD.AperFunction*%
%TD*%
M02*
