G04 #@! TF.FileFunction,Copper,L1,Top,Signal*
%FSLAX46Y46*%
G04 Gerber Fmt 4.6, Leading zero omitted, Abs format (unit mm)*
G04 Created by KiCad (PCBNEW 4.0.5) date 02/22/17 12:47:00*
%MOMM*%
%LPD*%
G01*
G04 APERTURE LIST*
%ADD10C,0.150000*%
%ADD11C,0.250000*%
%ADD12C,1.600000*%
%ADD13O,1.600000X1.600000*%
%ADD14R,1.397000X1.397000*%
%ADD15C,1.397000*%
%ADD16C,1.422400*%
%ADD17R,8.000000X2.000000*%
%ADD18C,0.889000*%
%ADD19C,1.016000*%
%ADD20C,1.016000*%
%ADD21C,0.254000*%
%ADD22C,0.762000*%
G04 APERTURE END LIST*
D10*
D11*
X155932381Y-126367381D02*
X155932381Y-125367381D01*
X156265715Y-126081667D01*
X156599048Y-125367381D01*
X156599048Y-126367381D01*
X157456191Y-126319762D02*
X157360953Y-126367381D01*
X157170476Y-126367381D01*
X157075238Y-126319762D01*
X157027619Y-126224524D01*
X157027619Y-125843571D01*
X157075238Y-125748333D01*
X157170476Y-125700714D01*
X157360953Y-125700714D01*
X157456191Y-125748333D01*
X157503810Y-125843571D01*
X157503810Y-125938810D01*
X157027619Y-126034048D01*
X158075238Y-126367381D02*
X157980000Y-126319762D01*
X157932381Y-126224524D01*
X157932381Y-125367381D01*
X158599048Y-126367381D02*
X158503810Y-126319762D01*
X158456191Y-126272143D01*
X158408572Y-126176905D01*
X158408572Y-125891190D01*
X158456191Y-125795952D01*
X158503810Y-125748333D01*
X158599048Y-125700714D01*
X158741906Y-125700714D01*
X158837144Y-125748333D01*
X158884763Y-125795952D01*
X158932382Y-125891190D01*
X158932382Y-126176905D01*
X158884763Y-126272143D01*
X158837144Y-126319762D01*
X158741906Y-126367381D01*
X158599048Y-126367381D01*
X159789525Y-126367381D02*
X159789525Y-125367381D01*
X159789525Y-126319762D02*
X159694287Y-126367381D01*
X159503810Y-126367381D01*
X159408572Y-126319762D01*
X159360953Y-126272143D01*
X159313334Y-126176905D01*
X159313334Y-125891190D01*
X159360953Y-125795952D01*
X159408572Y-125748333D01*
X159503810Y-125700714D01*
X159694287Y-125700714D01*
X159789525Y-125748333D01*
X160265715Y-126367381D02*
X160265715Y-125700714D01*
X160265715Y-125367381D02*
X160218096Y-125415000D01*
X160265715Y-125462619D01*
X160313334Y-125415000D01*
X160265715Y-125367381D01*
X160265715Y-125462619D01*
X160741905Y-126367381D02*
X160741905Y-125367381D01*
X160837143Y-125986429D02*
X161122858Y-126367381D01*
X161122858Y-125700714D02*
X160741905Y-126081667D01*
X161503810Y-125462619D02*
X161551429Y-125415000D01*
X161646667Y-125367381D01*
X161884763Y-125367381D01*
X161980001Y-125415000D01*
X162027620Y-125462619D01*
X162075239Y-125557857D01*
X162075239Y-125653095D01*
X162027620Y-125795952D01*
X161456191Y-126367381D01*
X162075239Y-126367381D01*
X155980000Y-128117381D02*
X155980000Y-127117381D01*
X155980000Y-127498333D02*
X156075238Y-127450714D01*
X156265715Y-127450714D01*
X156360953Y-127498333D01*
X156408572Y-127545952D01*
X156456191Y-127641190D01*
X156456191Y-127926905D01*
X156408572Y-128022143D01*
X156360953Y-128069762D01*
X156265715Y-128117381D01*
X156075238Y-128117381D01*
X155980000Y-128069762D01*
X156789524Y-127450714D02*
X157027619Y-128117381D01*
X157265715Y-127450714D02*
X157027619Y-128117381D01*
X156932381Y-128355476D01*
X156884762Y-128403095D01*
X156789524Y-128450714D01*
X158313334Y-127450714D02*
X158837144Y-127450714D01*
X158313334Y-128117381D01*
X158837144Y-128117381D01*
X159408572Y-127117381D02*
X159503811Y-127117381D01*
X159599049Y-127165000D01*
X159646668Y-127212619D01*
X159694287Y-127307857D01*
X159741906Y-127498333D01*
X159741906Y-127736429D01*
X159694287Y-127926905D01*
X159646668Y-128022143D01*
X159599049Y-128069762D01*
X159503811Y-128117381D01*
X159408572Y-128117381D01*
X159313334Y-128069762D01*
X159265715Y-128022143D01*
X159218096Y-127926905D01*
X159170477Y-127736429D01*
X159170477Y-127498333D01*
X159218096Y-127307857D01*
X159265715Y-127212619D01*
X159313334Y-127165000D01*
X159408572Y-127117381D01*
X160360953Y-127117381D02*
X160456192Y-127117381D01*
X160551430Y-127165000D01*
X160599049Y-127212619D01*
X160646668Y-127307857D01*
X160694287Y-127498333D01*
X160694287Y-127736429D01*
X160646668Y-127926905D01*
X160599049Y-128022143D01*
X160551430Y-128069762D01*
X160456192Y-128117381D01*
X160360953Y-128117381D01*
X160265715Y-128069762D01*
X160218096Y-128022143D01*
X160170477Y-127926905D01*
X160122858Y-127736429D01*
X160122858Y-127498333D01*
X160170477Y-127307857D01*
X160218096Y-127212619D01*
X160265715Y-127165000D01*
X160360953Y-127117381D01*
X161122858Y-128117381D02*
X161122858Y-127450714D01*
X161122858Y-127545952D02*
X161170477Y-127498333D01*
X161265715Y-127450714D01*
X161408573Y-127450714D01*
X161503811Y-127498333D01*
X161551430Y-127593571D01*
X161551430Y-128117381D01*
X161551430Y-127593571D02*
X161599049Y-127498333D01*
X161694287Y-127450714D01*
X161837144Y-127450714D01*
X161932382Y-127498333D01*
X161980001Y-127593571D01*
X161980001Y-128117381D01*
D12*
X123190000Y-109220000D03*
D13*
X123190000Y-101600000D03*
D14*
X164550000Y-127000000D03*
D15*
X167090000Y-127000000D03*
X169630000Y-127000000D03*
X172170000Y-127000000D03*
X174710000Y-127000000D03*
D14*
X141000000Y-54960000D03*
D15*
X141000000Y-57500000D03*
X141000000Y-60040000D03*
D14*
X171730000Y-48500000D03*
D15*
X174270000Y-48500000D03*
D14*
X157930000Y-104100000D03*
D15*
X155390000Y-104100000D03*
X152850000Y-104100000D03*
X150310000Y-104100000D03*
X147770000Y-104100000D03*
X145230000Y-104100000D03*
X142690000Y-104100000D03*
X140150000Y-104100000D03*
X137610000Y-104100000D03*
X135070000Y-104100000D03*
X139810000Y-48500000D03*
X132190000Y-48500000D03*
X158310000Y-78500000D03*
X150690000Y-78500000D03*
X162690000Y-78500000D03*
X170310000Y-78500000D03*
X171300000Y-120310000D03*
X171300000Y-112690000D03*
X173600000Y-120310000D03*
X173600000Y-112690000D03*
X121600000Y-112590000D03*
X121600000Y-120210000D03*
X124100000Y-112590000D03*
X124100000Y-120210000D03*
X126600000Y-112590000D03*
X126600000Y-120210000D03*
X131600000Y-120210000D03*
X131600000Y-112590000D03*
X134100000Y-120210000D03*
X134100000Y-112590000D03*
X136600000Y-120210000D03*
X136600000Y-112590000D03*
X129100000Y-112590000D03*
X129100000Y-120210000D03*
D16*
X164960000Y-85000000D03*
X170040000Y-85000000D03*
D14*
X126190000Y-60810000D03*
D15*
X128730000Y-60810000D03*
X131270000Y-60810000D03*
X133810000Y-60810000D03*
X133810000Y-53190000D03*
X131270000Y-53190000D03*
X128730000Y-53190000D03*
X126190000Y-53190000D03*
D14*
X124990000Y-97620000D03*
D15*
X127530000Y-97620000D03*
X130070000Y-97620000D03*
X132610000Y-97620000D03*
X135150000Y-97620000D03*
X137690000Y-97620000D03*
X140230000Y-97620000D03*
X142770000Y-97620000D03*
X145310000Y-97620000D03*
X147850000Y-97620000D03*
X150390000Y-97620000D03*
X152930000Y-97620000D03*
X155470000Y-97620000D03*
X158010000Y-97620000D03*
X158010000Y-82380000D03*
X155470000Y-82380000D03*
X152930000Y-82380000D03*
X150390000Y-82380000D03*
X147850000Y-82380000D03*
X145310000Y-82380000D03*
X142770000Y-82380000D03*
X140230000Y-82380000D03*
X137690000Y-82380000D03*
X135150000Y-82380000D03*
X132610000Y-82380000D03*
X130070000Y-82380000D03*
X127530000Y-82380000D03*
X124990000Y-82380000D03*
D14*
X124610000Y-73810000D03*
D15*
X127150000Y-73810000D03*
X129690000Y-73810000D03*
X132230000Y-73810000D03*
X134770000Y-73810000D03*
X137310000Y-73810000D03*
X139850000Y-73810000D03*
X142390000Y-73810000D03*
X142390000Y-66190000D03*
X139850000Y-66190000D03*
X137310000Y-66190000D03*
X134770000Y-66190000D03*
X132230000Y-66190000D03*
X129690000Y-66190000D03*
X127150000Y-66190000D03*
X124610000Y-66190000D03*
D14*
X149580000Y-120210000D03*
D15*
X152120000Y-120210000D03*
X154660000Y-120210000D03*
X157200000Y-120210000D03*
X159740000Y-120210000D03*
X162280000Y-120210000D03*
X164820000Y-120210000D03*
X164820000Y-112590000D03*
X162280000Y-112590000D03*
X159740000Y-112590000D03*
X157200000Y-112590000D03*
X154660000Y-112590000D03*
X152120000Y-112590000D03*
X149580000Y-112590000D03*
D14*
X153380000Y-73810000D03*
D15*
X155920000Y-73810000D03*
X158460000Y-73810000D03*
X161000000Y-73810000D03*
X163540000Y-73810000D03*
X166080000Y-73810000D03*
X168620000Y-73810000D03*
X168620000Y-66190000D03*
X166080000Y-66190000D03*
X163540000Y-66190000D03*
X161000000Y-66190000D03*
X158460000Y-66190000D03*
X155920000Y-66190000D03*
X153380000Y-66190000D03*
D14*
X153380000Y-61310000D03*
D15*
X155920000Y-61310000D03*
X158460000Y-61310000D03*
X161000000Y-61310000D03*
X163540000Y-61310000D03*
X166080000Y-61310000D03*
X168620000Y-61310000D03*
X168620000Y-53690000D03*
X166080000Y-53690000D03*
X163540000Y-53690000D03*
X161000000Y-53690000D03*
X158460000Y-53690000D03*
X155920000Y-53690000D03*
X153380000Y-53690000D03*
X145700000Y-118940000D03*
X145700000Y-113860000D03*
X121500000Y-87460000D03*
X121500000Y-92540000D03*
X120500000Y-72540000D03*
X120500000Y-67460000D03*
X149500000Y-72540000D03*
X149500000Y-67460000D03*
X123500000Y-59540000D03*
X123500000Y-54460000D03*
X149500000Y-60040000D03*
X149500000Y-54960000D03*
X129040000Y-48500000D03*
X123960000Y-48500000D03*
X138500000Y-54960000D03*
X138500000Y-60040000D03*
X172500000Y-72540000D03*
X172500000Y-67460000D03*
D14*
X163230000Y-49000000D03*
D15*
X165770000Y-49000000D03*
D14*
X138600000Y-124730000D03*
D15*
X138600000Y-127270000D03*
D14*
X133600000Y-124730000D03*
D15*
X133600000Y-127270000D03*
D14*
X128270000Y-104140000D03*
D15*
X130810000Y-104140000D03*
D17*
X110860000Y-54500000D03*
X110860000Y-57020000D03*
X110860000Y-59540000D03*
X110860000Y-62060000D03*
X110860000Y-67100000D03*
X110860000Y-69620000D03*
X110860000Y-72140000D03*
X110860000Y-74660000D03*
X110860000Y-77180000D03*
X110860000Y-79700000D03*
X110860000Y-82220000D03*
X110860000Y-84740000D03*
X110860000Y-87260000D03*
X110860000Y-89780000D03*
X110860000Y-92300000D03*
X110860000Y-94820000D03*
X110860000Y-97340000D03*
X110860000Y-99860000D03*
X110860000Y-102380000D03*
X110860000Y-104900000D03*
X110860000Y-107420000D03*
X110860000Y-109940000D03*
X110860000Y-112460000D03*
X110860000Y-114980000D03*
X110860000Y-117500000D03*
X110860000Y-120020000D03*
X110860000Y-122540000D03*
X180450000Y-54500000D03*
X180450000Y-57020000D03*
X180450000Y-59540000D03*
X180450000Y-62060000D03*
X180450000Y-67100000D03*
X180450000Y-69620000D03*
X180450000Y-72140000D03*
X180450000Y-74660000D03*
X180450000Y-77180000D03*
X180450000Y-79700000D03*
X180450000Y-82220000D03*
X180450000Y-84740000D03*
X180450000Y-87260000D03*
X180450000Y-89780000D03*
X180450000Y-92300000D03*
X180450000Y-94820000D03*
X180450000Y-97340000D03*
X180450000Y-99860000D03*
X180450000Y-102380000D03*
X180450000Y-104900000D03*
X180450000Y-107420000D03*
X180450000Y-109940000D03*
X180450000Y-112460000D03*
X180450000Y-114980000D03*
X180450000Y-117500000D03*
X180450000Y-120020000D03*
X180450000Y-122540000D03*
D14*
X120650000Y-58520000D03*
D15*
X120650000Y-55980000D03*
D18*
X175639000Y-89020500D03*
X115718300Y-89063000D03*
X175697800Y-83905500D03*
X116429700Y-85073600D03*
X174587200Y-92916200D03*
X116769500Y-93509100D03*
X174607100Y-90838400D03*
X115825200Y-91716100D03*
X174179800Y-88487800D03*
X116522700Y-88228300D03*
X175242700Y-96253800D03*
X117623100Y-95955200D03*
X160802000Y-95736400D03*
X143853000Y-75680200D03*
X174545300Y-57039200D03*
X116814800Y-56448100D03*
X125995100Y-50775900D03*
X167276600Y-97905000D03*
X161683200Y-84751700D03*
X172243800Y-78145100D03*
X173323300Y-82461800D03*
X175716300Y-80893800D03*
X171974900Y-79691400D03*
X174976200Y-78923500D03*
X119668400Y-77907700D03*
X174150300Y-80300500D03*
X150539900Y-56951500D03*
X170387500Y-58645600D03*
D19*
X142633300Y-112532000D03*
X168607300Y-87483500D03*
X168622300Y-58543300D03*
X159595100Y-100290100D03*
D18*
X156239700Y-77914200D03*
X166253200Y-99935200D03*
X167054700Y-99075400D03*
X161923100Y-108825100D03*
X159740000Y-114115600D03*
X161635300Y-100218100D03*
X160300600Y-82100200D03*
X150593000Y-74594500D03*
D20*
X116054500Y-107420000D02*
X110860000Y-107420000D01*
X117164000Y-106310500D02*
X116054500Y-107420000D01*
X174578200Y-106310500D02*
X117164000Y-106310500D01*
X175687700Y-107420000D02*
X174578200Y-106310500D01*
X180450000Y-107420000D02*
X175687700Y-107420000D01*
X180450000Y-102380000D02*
X175687700Y-102380000D01*
X120870000Y-102380000D02*
X110860000Y-102380000D01*
X121682200Y-103192200D02*
X120870000Y-102380000D01*
X124683900Y-103192200D02*
X121682200Y-103192200D01*
X126473700Y-101402400D02*
X124683900Y-103192200D01*
X157709700Y-101402400D02*
X126473700Y-101402400D01*
X158687300Y-102380000D02*
X157709700Y-101402400D01*
X175687700Y-102380000D02*
X158687300Y-102380000D01*
D21*
X115241300Y-89540000D02*
X115241300Y-89780000D01*
X115718300Y-89063000D02*
X115241300Y-89540000D01*
X110860000Y-89780000D02*
X115241300Y-89780000D01*
X180450000Y-89780000D02*
X176068700Y-89780000D01*
X176068700Y-89450200D02*
X175639000Y-89020500D01*
X176068700Y-89780000D02*
X176068700Y-89450200D01*
X110860000Y-84740000D02*
X115241300Y-84740000D01*
X115574900Y-85073600D02*
X115241300Y-84740000D01*
X116429700Y-85073600D02*
X115574900Y-85073600D01*
X180450000Y-84740000D02*
X176068700Y-84740000D01*
X176068700Y-84276400D02*
X175697800Y-83905500D01*
X176068700Y-84740000D02*
X176068700Y-84276400D01*
X110860000Y-94820000D02*
X115241300Y-94820000D01*
X180450000Y-94820000D02*
X176068700Y-94820000D01*
X116552200Y-93509100D02*
X115241300Y-94820000D01*
X116769500Y-93509100D02*
X116552200Y-93509100D01*
X176068700Y-94397700D02*
X174587200Y-92916200D01*
X176068700Y-94820000D02*
X176068700Y-94397700D01*
X138909400Y-80489400D02*
X132230000Y-73810000D01*
X138909400Y-83054700D02*
X138909400Y-80489400D01*
X135302800Y-86661300D02*
X138909400Y-83054700D01*
X123987000Y-86661300D02*
X135302800Y-86661300D01*
X121853700Y-84528000D02*
X123987000Y-86661300D01*
X120447900Y-84528000D02*
X121853700Y-84528000D01*
X117870700Y-87105200D02*
X120447900Y-84528000D01*
X117870700Y-92407900D02*
X117870700Y-87105200D01*
X116769500Y-93509100D02*
X117870700Y-92407900D01*
X119381500Y-112460000D02*
X110860000Y-112460000D01*
X121159100Y-110682400D02*
X119381500Y-112460000D01*
X136667000Y-110682400D02*
X121159100Y-110682400D01*
X137897700Y-111913100D02*
X136667000Y-110682400D01*
X137897700Y-112670600D02*
X137897700Y-111913100D01*
X147808700Y-122581600D02*
X137897700Y-112670600D01*
X159282000Y-122581600D02*
X147808700Y-122581600D01*
X161010000Y-120853600D02*
X159282000Y-122581600D01*
X161010000Y-119647400D02*
X161010000Y-120853600D01*
X166821900Y-113835500D02*
X161010000Y-119647400D01*
X174693200Y-113835500D02*
X166821900Y-113835500D01*
X176068700Y-112460000D02*
X174693200Y-113835500D01*
X180450000Y-112460000D02*
X176068700Y-112460000D01*
X110860000Y-92300000D02*
X115241300Y-92300000D01*
X115825200Y-91716100D02*
X115241300Y-92300000D01*
X180450000Y-92300000D02*
X176068700Y-92300000D01*
X176068700Y-92300000D02*
X174607100Y-90838400D01*
X110860000Y-87260000D02*
X115241300Y-87260000D01*
X175407600Y-87260000D02*
X174179800Y-88487800D01*
X180450000Y-87260000D02*
X175407600Y-87260000D01*
X116209600Y-88228300D02*
X116522700Y-88228300D01*
X115241300Y-87260000D02*
X116209600Y-88228300D01*
X110860000Y-97340000D02*
X115241300Y-97340000D01*
X116759300Y-95822000D02*
X117489900Y-95822000D01*
X115241300Y-97340000D02*
X116759300Y-95822000D01*
X117489900Y-95822000D02*
X117623100Y-95955200D01*
X180450000Y-97340000D02*
X176068700Y-97340000D01*
X176068700Y-97079800D02*
X175242700Y-96253800D01*
X176068700Y-97340000D02*
X176068700Y-97079800D01*
X131312300Y-72187700D02*
X129690000Y-73810000D01*
X132806500Y-72187700D02*
X131312300Y-72187700D01*
X133500000Y-72881200D02*
X132806500Y-72187700D01*
X133500000Y-74119900D02*
X133500000Y-72881200D01*
X141471600Y-82091500D02*
X133500000Y-74119900D01*
X141471600Y-83064500D02*
X141471600Y-82091500D01*
X137326500Y-87209600D02*
X141471600Y-83064500D01*
X123816500Y-87209600D02*
X137326500Y-87209600D01*
X121693200Y-85086300D02*
X123816500Y-87209600D01*
X120645400Y-85086300D02*
X121693200Y-85086300D01*
X118379000Y-87352700D02*
X120645400Y-85086300D01*
X118379000Y-94932900D02*
X118379000Y-87352700D01*
X117489900Y-95822000D02*
X118379000Y-94932900D01*
X160802000Y-87712000D02*
X160802000Y-95736400D01*
X155470000Y-82380000D02*
X160802000Y-87712000D01*
X115241300Y-115386000D02*
X115241300Y-114980000D01*
X128375500Y-128520200D02*
X115241300Y-115386000D01*
X139255300Y-128520200D02*
X128375500Y-128520200D01*
X144065800Y-123709700D02*
X139255300Y-128520200D01*
X160679100Y-123709700D02*
X144065800Y-123709700D01*
X163550000Y-120838800D02*
X160679100Y-123709700D01*
X163550000Y-119539100D02*
X163550000Y-120838800D01*
X168109100Y-114980000D02*
X163550000Y-119539100D01*
X180450000Y-114980000D02*
X168109100Y-114980000D01*
X110860000Y-114980000D02*
X115241300Y-114980000D01*
X115561200Y-105219900D02*
X115241300Y-104900000D01*
X175748800Y-105219900D02*
X115561200Y-105219900D01*
X176068700Y-104900000D02*
X175748800Y-105219900D01*
X180450000Y-104900000D02*
X176068700Y-104900000D01*
X110860000Y-104900000D02*
X115241300Y-104900000D01*
X180450000Y-99860000D02*
X176068700Y-99860000D01*
X110860000Y-99860000D02*
X115241300Y-99860000D01*
X115241300Y-99860000D02*
X119093900Y-99860000D01*
X174659400Y-101269300D02*
X176068700Y-99860000D01*
X158870200Y-101269300D02*
X174659400Y-101269300D01*
X157460900Y-99860000D02*
X158870200Y-101269300D01*
X119093900Y-99860000D02*
X157460900Y-99860000D01*
X143853000Y-83318700D02*
X143853000Y-75680200D01*
X139413800Y-87757900D02*
X143853000Y-83318700D01*
X123616000Y-87757900D02*
X139413800Y-87757900D01*
X121623600Y-85765500D02*
X123616000Y-87757900D01*
X120742700Y-85765500D02*
X121623600Y-85765500D01*
X119093900Y-87414300D02*
X120742700Y-85765500D01*
X119093900Y-99860000D02*
X119093900Y-87414300D01*
D20*
X110860000Y-109940000D02*
X115622300Y-109940000D01*
X180450000Y-109940000D02*
X175687700Y-109940000D01*
X173342700Y-107595000D02*
X175687700Y-109940000D01*
X117967300Y-107595000D02*
X173342700Y-107595000D01*
X115622300Y-109940000D02*
X117967300Y-107595000D01*
D21*
X180450000Y-120020000D02*
X176068700Y-120020000D01*
X173439800Y-122648900D02*
X176068700Y-120020000D01*
X173439800Y-128119600D02*
X173439800Y-122648900D01*
X171970900Y-129588500D02*
X173439800Y-128119600D01*
X125320900Y-129588500D02*
X171970900Y-129588500D01*
X115752400Y-120020000D02*
X125320900Y-129588500D01*
X110860000Y-120020000D02*
X115752400Y-120020000D01*
X174564500Y-57020000D02*
X174545300Y-57039200D01*
X180450000Y-57020000D02*
X174564500Y-57020000D01*
X115813200Y-56448100D02*
X115241300Y-57020000D01*
X116814800Y-56448100D02*
X115813200Y-56448100D01*
X110860000Y-57020000D02*
X115241300Y-57020000D01*
X124610000Y-73810000D02*
X124610000Y-72730200D01*
X127429900Y-52210700D02*
X125995100Y-50775900D01*
X127429900Y-62382000D02*
X127429900Y-52210700D01*
X125689800Y-64122100D02*
X127429900Y-62382000D01*
X125689800Y-71650400D02*
X125689800Y-64122100D01*
X124610000Y-72730200D02*
X125689800Y-71650400D01*
X180450000Y-54500000D02*
X176068700Y-54500000D01*
X116396400Y-54500000D02*
X110860000Y-54500000D01*
X123495900Y-47400500D02*
X116396400Y-54500000D01*
X130153700Y-47400500D02*
X123495900Y-47400500D01*
X130690600Y-46863600D02*
X130153700Y-47400500D01*
X174216200Y-46863600D02*
X130690600Y-46863600D01*
X175575500Y-48222900D02*
X174216200Y-46863600D01*
X175575500Y-54006800D02*
X175575500Y-48222900D01*
X176068700Y-54500000D02*
X175575500Y-54006800D01*
X133500000Y-70000000D02*
X137310000Y-73810000D01*
X133500000Y-64768100D02*
X133500000Y-70000000D01*
X130153700Y-61421800D02*
X133500000Y-64768100D01*
X130153700Y-47400500D02*
X130153700Y-61421800D01*
X167276600Y-97905000D02*
X167276600Y-54784600D01*
X167174600Y-54784600D02*
X167276600Y-54784600D01*
X166080000Y-53690000D02*
X167174600Y-54784600D01*
X167525400Y-54784600D02*
X168620000Y-53690000D01*
X167276600Y-54784600D02*
X167525400Y-54784600D01*
X110860000Y-117500000D02*
X115241300Y-117500000D01*
X172567700Y-117500000D02*
X180450000Y-117500000D01*
X166010100Y-124057600D02*
X172567700Y-117500000D01*
X166010100Y-128140600D02*
X166010100Y-124057600D01*
X165290800Y-128859900D02*
X166010100Y-128140600D01*
X155218900Y-128859900D02*
X165290800Y-128859900D01*
X151741200Y-125382200D02*
X155218900Y-128859900D01*
X145038300Y-125382200D02*
X151741200Y-125382200D01*
X141358800Y-129061700D02*
X145038300Y-125382200D01*
X126803000Y-129061700D02*
X141358800Y-129061700D01*
X115241300Y-117500000D02*
X126803000Y-129061700D01*
X180450000Y-67100000D02*
X176068700Y-67100000D01*
X165303800Y-88372300D02*
X161683200Y-84751700D01*
X165303800Y-100155600D02*
X165303800Y-88372300D01*
X165909200Y-100761000D02*
X165303800Y-100155600D01*
X166595300Y-100761000D02*
X165909200Y-100761000D01*
X171149100Y-96207200D02*
X166595300Y-100761000D01*
X171149100Y-79349400D02*
X171149100Y-96207200D01*
X171390000Y-79108500D02*
X171149100Y-79349400D01*
X171390000Y-71778700D02*
X171390000Y-79108500D01*
X176068700Y-67100000D02*
X171390000Y-71778700D01*
X115241300Y-70126600D02*
X115241300Y-67100000D01*
X124990000Y-79875300D02*
X115241300Y-70126600D01*
X124990000Y-82380000D02*
X124990000Y-79875300D01*
X110860000Y-67100000D02*
X115241300Y-67100000D01*
X180450000Y-69620000D02*
X176068700Y-69620000D01*
X172243800Y-74757000D02*
X172243800Y-78145100D01*
X176068700Y-70932100D02*
X172243800Y-74757000D01*
X176068700Y-69620000D02*
X176068700Y-70932100D01*
X113887100Y-69620000D02*
X110860000Y-69620000D01*
X123460100Y-79193000D02*
X113887100Y-69620000D01*
X123460100Y-82470100D02*
X123460100Y-79193000D01*
X124989700Y-83999700D02*
X123460100Y-82470100D01*
X125910300Y-83999700D02*
X124989700Y-83999700D01*
X127530000Y-82380000D02*
X125910300Y-83999700D01*
X180450000Y-72140000D02*
X176068700Y-72140000D01*
X173323300Y-74885400D02*
X173323300Y-82461800D01*
X176068700Y-72140000D02*
X173323300Y-74885400D01*
X110860000Y-72140000D02*
X115241300Y-72140000D01*
X127861900Y-84588100D02*
X130070000Y-82380000D01*
X124859100Y-84588100D02*
X127861900Y-84588100D01*
X122708400Y-82437400D02*
X124859100Y-84588100D01*
X122708400Y-79607100D02*
X122708400Y-82437400D01*
X115241300Y-72140000D02*
X122708400Y-79607100D01*
X176068700Y-80541400D02*
X175716300Y-80893800D01*
X176068700Y-79700000D02*
X176068700Y-80541400D01*
X180450000Y-79700000D02*
X176068700Y-79700000D01*
X129385300Y-85604700D02*
X132610000Y-82380000D01*
X124408200Y-85604700D02*
X129385300Y-85604700D01*
X118503500Y-79700000D02*
X124408200Y-85604700D01*
X110860000Y-79700000D02*
X118503500Y-79700000D01*
X180450000Y-82220000D02*
X176068700Y-82220000D01*
X171974900Y-82343600D02*
X171974900Y-79691400D01*
X172936200Y-83304900D02*
X171974900Y-82343600D01*
X174983800Y-83304900D02*
X172936200Y-83304900D01*
X176068700Y-82220000D02*
X174983800Y-83304900D01*
X131387000Y-86143000D02*
X135150000Y-82380000D01*
X124187700Y-86143000D02*
X131387000Y-86143000D01*
X120264700Y-82220000D02*
X124187700Y-86143000D01*
X110860000Y-82220000D02*
X120264700Y-82220000D01*
X110860000Y-77180000D02*
X115241300Y-77180000D01*
X180450000Y-77180000D02*
X176068700Y-77180000D01*
X176068700Y-77831000D02*
X174976200Y-78923500D01*
X176068700Y-77180000D02*
X176068700Y-77831000D01*
X136190000Y-80880000D02*
X137690000Y-82380000D01*
X132063900Y-80880000D02*
X136190000Y-80880000D01*
X131340000Y-81603900D02*
X132063900Y-80880000D01*
X131340000Y-82866900D02*
X131340000Y-81603900D01*
X129110500Y-85096400D02*
X131340000Y-82866900D01*
X124618700Y-85096400D02*
X129110500Y-85096400D01*
X116702300Y-77180000D02*
X124618700Y-85096400D01*
X115241300Y-77180000D02*
X116702300Y-77180000D01*
X116420700Y-74660000D02*
X110860000Y-74660000D01*
X119668400Y-77907700D02*
X116420700Y-74660000D01*
X180450000Y-74660000D02*
X176068700Y-74660000D01*
X174150300Y-76578400D02*
X174150300Y-80300500D01*
X176068700Y-74660000D02*
X174150300Y-76578400D01*
X136570000Y-74911900D02*
X138389700Y-74911900D01*
X136040000Y-74381900D02*
X136570000Y-74911900D01*
X136040000Y-73275200D02*
X136040000Y-74381900D01*
X134433600Y-71668800D02*
X136040000Y-73275200D01*
X129930700Y-71668800D02*
X134433600Y-71668800D01*
X128420000Y-73179500D02*
X129930700Y-71668800D01*
X128420000Y-74434200D02*
X128420000Y-73179500D01*
X127711700Y-75142500D02*
X128420000Y-74434200D01*
X121262600Y-75142500D02*
X127711700Y-75142500D01*
X119144600Y-73024500D02*
X121262600Y-75142500D01*
X119144600Y-62368300D02*
X119144600Y-73024500D01*
X121729900Y-59783000D02*
X119144600Y-62368300D01*
X121729900Y-57636900D02*
X121729900Y-59783000D01*
X121522800Y-57429800D02*
X121729900Y-57636900D01*
X118418000Y-57429800D02*
X121522800Y-57429800D01*
X116307800Y-59540000D02*
X118418000Y-57429800D01*
X110860000Y-59540000D02*
X116307800Y-59540000D01*
X142770000Y-79292200D02*
X142770000Y-82380000D01*
X138389700Y-74911900D02*
X142770000Y-79292200D01*
X145592400Y-61899000D02*
X150539900Y-56951500D01*
X145592400Y-66377000D02*
X145592400Y-61899000D01*
X138580000Y-73389400D02*
X145592400Y-66377000D01*
X138580000Y-74721600D02*
X138580000Y-73389400D01*
X138389700Y-74911900D02*
X138580000Y-74721600D01*
X175174300Y-58645600D02*
X176068700Y-59540000D01*
X170387500Y-58645600D02*
X175174300Y-58645600D01*
X180450000Y-59540000D02*
X176068700Y-59540000D01*
X110860000Y-62060000D02*
X115241300Y-62060000D01*
X118781300Y-58520000D02*
X120650000Y-58520000D01*
X115241300Y-62060000D02*
X118781300Y-58520000D01*
D20*
X142633300Y-115873300D02*
X145700000Y-118940000D01*
X142633300Y-112532000D02*
X142633300Y-115873300D01*
X135684600Y-95614600D02*
X137690000Y-97620000D01*
X122471500Y-95614600D02*
X135684600Y-95614600D01*
X120037200Y-93180300D02*
X122471500Y-95614600D01*
X120037200Y-88922800D02*
X120037200Y-93180300D01*
X121500000Y-87460000D02*
X120037200Y-88922800D01*
X148029700Y-61510300D02*
X148029700Y-71069700D01*
X149500000Y-60040000D02*
X148029700Y-61510300D01*
X148029700Y-71069700D02*
X149500000Y-72540000D01*
X164820000Y-125269200D02*
X164550000Y-125539200D01*
X164820000Y-120210000D02*
X164820000Y-125269200D01*
X164550000Y-127000000D02*
X164550000Y-125539200D01*
X145289400Y-73810000D02*
X148029700Y-71069700D01*
X142390000Y-73810000D02*
X145289400Y-73810000D01*
X134580000Y-60040000D02*
X133810000Y-60810000D01*
X138500000Y-60040000D02*
X134580000Y-60040000D01*
X141000000Y-60040000D02*
X138500000Y-60040000D01*
X168566400Y-87442600D02*
X168607300Y-87483500D01*
X168566400Y-73863600D02*
X168566400Y-87442600D01*
X168620000Y-73810000D02*
X168566400Y-73863600D01*
X168620000Y-58545600D02*
X168622300Y-58543300D01*
X168620000Y-61310000D02*
X168620000Y-58545600D01*
X174270000Y-52895600D02*
X174270000Y-48500000D01*
X168622300Y-58543300D02*
X174270000Y-52895600D01*
X123500000Y-56764000D02*
X123500000Y-59540000D01*
X122029300Y-55293300D02*
X123500000Y-56764000D01*
X122029300Y-50430700D02*
X122029300Y-55293300D01*
X123960000Y-48500000D02*
X122029300Y-50430700D01*
X122796800Y-70243200D02*
X120500000Y-72540000D01*
X122796800Y-60243200D02*
X122796800Y-70243200D01*
X123500000Y-59540000D02*
X122796800Y-60243200D01*
X151059300Y-121689300D02*
X149580000Y-120210000D01*
X155720700Y-121689300D02*
X151059300Y-121689300D01*
X157200000Y-120210000D02*
X155720700Y-121689300D01*
X152930000Y-81687700D02*
X152930000Y-82380000D01*
X152161400Y-80919100D02*
X152930000Y-81687700D01*
X145700000Y-113784200D02*
X145700000Y-113860000D01*
X141135800Y-109220000D02*
X145700000Y-113784200D01*
X123190000Y-109220000D02*
X141135800Y-109220000D01*
X149580000Y-113860000D02*
X145700000Y-113860000D01*
X149580000Y-112590000D02*
X149580000Y-113860000D01*
X149580000Y-113860000D02*
X149580000Y-120210000D01*
X149310900Y-80919100D02*
X147850000Y-82380000D01*
X152161400Y-80919100D02*
X149310900Y-80919100D01*
X137690000Y-92540000D02*
X121500000Y-92540000D01*
X147850000Y-82380000D02*
X137690000Y-92540000D01*
X152161400Y-77557400D02*
X152161400Y-80919100D01*
X151905200Y-77301200D02*
X152161400Y-77557400D01*
X151905200Y-69246400D02*
X151905200Y-77301200D01*
X151114400Y-68455600D02*
X151905200Y-69246400D01*
X150495600Y-68455600D02*
X151114400Y-68455600D01*
X149500000Y-67460000D02*
X150495600Y-68455600D01*
X151114400Y-68455600D02*
X153380000Y-66190000D01*
X153380000Y-53690000D02*
X151679700Y-55390300D01*
X149930300Y-55390300D02*
X149500000Y-54960000D01*
X151679700Y-55390300D02*
X149930300Y-55390300D01*
X155820000Y-63750000D02*
X154581700Y-64988300D01*
X161100000Y-63750000D02*
X155820000Y-63750000D01*
X163540000Y-61310000D02*
X161100000Y-63750000D01*
X154581700Y-64988300D02*
X153380000Y-66190000D01*
D22*
X151679700Y-56384600D02*
X151679700Y-55390300D01*
X154581700Y-64988300D02*
X151746700Y-62153400D01*
X151746700Y-62153400D02*
X151746700Y-56451600D01*
X151746700Y-56451600D02*
X151679700Y-56384600D01*
D20*
X133642800Y-102672800D02*
X135070000Y-104100000D01*
X129737200Y-102672800D02*
X133642800Y-102672800D01*
X128270000Y-104140000D02*
X129737200Y-102672800D01*
X159595100Y-89045100D02*
X159595100Y-100290100D01*
X152930000Y-82380000D02*
X159595100Y-89045100D01*
D21*
X157230200Y-76923700D02*
X156239700Y-77914200D01*
X157230200Y-69959800D02*
X157230200Y-76923700D01*
X161000000Y-66190000D02*
X157230200Y-69959800D01*
X162277500Y-78087500D02*
X162690000Y-78500000D01*
X162277500Y-67452500D02*
X162277500Y-78087500D01*
X163540000Y-66190000D02*
X162277500Y-67452500D01*
X133600000Y-124730000D02*
X133600000Y-124190100D01*
X129619900Y-120210000D02*
X129100000Y-120210000D01*
X133600000Y-124190100D02*
X129619900Y-120210000D01*
X135250800Y-111240800D02*
X136600000Y-112590000D01*
X133564100Y-111240800D02*
X135250800Y-111240800D01*
X132879900Y-111925000D02*
X133564100Y-111240800D01*
X132879900Y-113021100D02*
X132879900Y-111925000D01*
X135185900Y-115327100D02*
X132879900Y-113021100D01*
X135185900Y-122604200D02*
X135185900Y-115327100D01*
X133600000Y-124190100D02*
X135185900Y-122604200D01*
X138600000Y-117090000D02*
X138600000Y-124730000D01*
X134100000Y-112590000D02*
X138600000Y-117090000D01*
X137080000Y-55000000D02*
X138500000Y-55000000D01*
X131270000Y-60810000D02*
X137080000Y-55000000D01*
X138500000Y-54960000D02*
X138500000Y-55000000D01*
X138500000Y-55000000D02*
X141000000Y-57500000D01*
X135120000Y-53190000D02*
X133810000Y-53190000D01*
X139810000Y-48500000D02*
X135120000Y-53190000D01*
X163230000Y-49000000D02*
X162150200Y-49000000D01*
X160529900Y-47379700D02*
X162150200Y-49000000D01*
X140930300Y-47379700D02*
X160529900Y-47379700D01*
X139810000Y-48500000D02*
X140930300Y-47379700D01*
X170150200Y-49000000D02*
X170650200Y-48500000D01*
X165770000Y-49000000D02*
X170150200Y-49000000D01*
X171730000Y-48500000D02*
X170650200Y-48500000D01*
X171300000Y-125330000D02*
X169630000Y-127000000D01*
X171300000Y-120310000D02*
X171300000Y-125330000D01*
X172170000Y-121740000D02*
X172170000Y-127000000D01*
X173600000Y-120310000D02*
X172170000Y-121740000D01*
X145231400Y-51808400D02*
X142079800Y-54960000D01*
X160705000Y-51808400D02*
X145231400Y-51808400D01*
X162270000Y-53373400D02*
X160705000Y-51808400D01*
X162270000Y-56238600D02*
X162270000Y-53373400D01*
X164810000Y-58778600D02*
X162270000Y-56238600D01*
X164810000Y-76591400D02*
X164810000Y-58778600D01*
X166203100Y-77984500D02*
X164810000Y-76591400D01*
X166203100Y-99885100D02*
X166203100Y-77984500D01*
X166253200Y-99935200D02*
X166203100Y-99885100D01*
X141000000Y-54960000D02*
X142079800Y-54960000D01*
X155920000Y-66190000D02*
X158460000Y-66190000D01*
X155880700Y-78753200D02*
X158056800Y-78753200D01*
X154692100Y-77564600D02*
X155880700Y-78753200D01*
X154692100Y-67417900D02*
X154692100Y-77564600D01*
X155920000Y-66190000D02*
X154692100Y-67417900D01*
X158056800Y-78753200D02*
X158310000Y-78500000D01*
X163885900Y-83925900D02*
X164960000Y-85000000D01*
X160958500Y-83925900D02*
X163885900Y-83925900D01*
X159474800Y-82442200D02*
X160958500Y-83925900D01*
X159474800Y-80171200D02*
X159474800Y-82442200D01*
X158056800Y-78753200D02*
X159474800Y-80171200D01*
X170310000Y-67880000D02*
X170310000Y-78500000D01*
X168620000Y-66190000D02*
X170310000Y-67880000D01*
X170310000Y-84730000D02*
X170040000Y-85000000D01*
X170310000Y-78500000D02*
X170310000Y-84730000D01*
X158470000Y-112278200D02*
X161923100Y-108825100D01*
X158470000Y-116400000D02*
X158470000Y-112278200D01*
X154660000Y-120210000D02*
X158470000Y-116400000D01*
X170040000Y-96309500D02*
X170040000Y-85000000D01*
X167274100Y-99075400D02*
X170040000Y-96309500D01*
X167054700Y-99075400D02*
X167274100Y-99075400D01*
X132781300Y-118891300D02*
X134100000Y-120210000D01*
X131213100Y-118891300D02*
X132781300Y-118891300D01*
X125350000Y-113028200D02*
X131213100Y-118891300D01*
X125350000Y-112003000D02*
X125350000Y-113028200D01*
X124587800Y-111240800D02*
X125350000Y-112003000D01*
X122949200Y-111240800D02*
X124587800Y-111240800D01*
X121600000Y-112590000D02*
X122949200Y-111240800D01*
X131600000Y-120090000D02*
X131600000Y-120210000D01*
X124100000Y-112590000D02*
X131600000Y-120090000D01*
X161635300Y-86005300D02*
X161635300Y-100218100D01*
X158010000Y-82380000D02*
X161635300Y-86005300D01*
X159740000Y-120210000D02*
X159740000Y-114115600D01*
X160300600Y-75650600D02*
X160300600Y-82100200D01*
X158460000Y-73810000D02*
X160300600Y-75650600D01*
X145310000Y-79877500D02*
X145310000Y-82380000D01*
X150593000Y-74594500D02*
X145310000Y-79877500D01*
X159719800Y-52409800D02*
X161000000Y-53690000D01*
X150229500Y-52409800D02*
X159719800Y-52409800D01*
X141364700Y-61274600D02*
X150229500Y-52409800D01*
X139685400Y-61274600D02*
X141364700Y-61274600D01*
X134770000Y-66190000D02*
X139685400Y-61274600D01*
X155920000Y-53690000D02*
X155920000Y-61310000D01*
M02*
