M48
;DRILL file {KiCad 4.0.5} date 02/22/17 12:47:46
;FORMAT={-:-/ absolute / inch / decimal}
FMAT,2
INCH,TZ
T1C0.025
T2C0.030
T3C0.031
T4C0.032
%
G90
G05
M72
T1
X4.5558Y-3.5064
X4.56Y-3.6109
X4.5838Y-3.3494
X4.5875Y-3.4736
X4.5972Y-3.6815
X4.599Y-2.2224
X4.6308Y-3.7778
X4.7114Y-3.0672
X4.9604Y-1.9991
X5.6635Y-2.9795
X5.9268Y-2.2422
X5.9289Y-2.9368
X6.1512Y-3.0675
X6.289Y-4.4927
X6.311Y-3.2323
X6.3308Y-3.7691
X6.3636Y-3.9456
X6.3655Y-3.3367
X6.3749Y-4.2845
X6.5454Y-3.9345
X6.577Y-3.9006
X6.5857Y-3.8545
X6.7082Y-2.3089
X6.7707Y-3.1375
X6.7813Y-3.0766
X6.8238Y-3.2465
X6.8563Y-3.1614
X6.8575Y-3.4838
X6.8719Y-2.2456
X6.8735Y-3.6581
X6.8743Y-3.5763
X6.8888Y-3.1072
X6.8993Y-3.7895
X6.9149Y-3.5047
X6.9172Y-3.3034
X6.918Y-3.1848
T2
X5.6155Y-4.4304
X6.2833Y-3.9484
X6.4945Y-3.3465
X6.6381Y-3.4442
X6.6387Y-2.3049
X6.6945Y-3.3465
T3
X4.85Y-4.
X4.85Y-4.3
T4
X4.7441Y-2.6559
X4.7441Y-2.8559
X4.75Y-2.2039
X4.75Y-2.3039
X4.7835Y-3.4433
X4.7835Y-3.6433
X4.7874Y-4.4327
X4.7874Y-4.7327
X4.8622Y-2.1441
X4.8622Y-2.3441
X4.8803Y-1.9094
X4.8858Y-4.4327
X4.8858Y-4.7327
X4.9059Y-2.6059
X4.9059Y-2.9059
X4.9209Y-3.2433
X4.9209Y-3.8433
X4.9681Y-2.0941
X4.9681Y-2.3941
X4.9843Y-4.4327
X4.9843Y-4.7327
X5.0059Y-2.6059
X5.0059Y-2.9059
X5.0209Y-3.2433
X5.0209Y-3.8433
X5.05Y-4.1
X5.0681Y-2.0941
X5.0681Y-2.3941
X5.0803Y-1.9094
X5.0827Y-4.4327
X5.0827Y-4.7327
X5.1059Y-2.6059
X5.1059Y-2.9059
X5.1209Y-3.2433
X5.1209Y-3.8433
X5.15Y-4.1
X5.1681Y-2.0941
X5.1681Y-2.3941
X5.1811Y-4.4327
X5.1811Y-4.7327
X5.2043Y-1.9094
X5.2059Y-2.6059
X5.2059Y-2.9059
X5.2209Y-3.2433
X5.2209Y-3.8433
X5.2598Y-4.9106
X5.2598Y-5.0106
X5.2681Y-2.0941
X5.2681Y-2.3941
X5.2795Y-4.4327
X5.2795Y-4.7327
X5.3059Y-2.6059
X5.3059Y-2.9059
X5.3177Y-4.0984
X5.3209Y-3.2433
X5.3209Y-3.8433
X5.378Y-4.4327
X5.378Y-4.7327
X5.4059Y-2.6059
X5.4059Y-2.9059
X5.4177Y-4.0984
X5.4209Y-3.2433
X5.4209Y-3.8433
X5.4528Y-2.1638
X5.4528Y-2.3638
X5.4567Y-4.9106
X5.4567Y-5.0106
X5.5043Y-1.9094
X5.5059Y-2.6059
X5.5059Y-2.9059
X5.5177Y-4.0984
X5.5209Y-3.2433
X5.5209Y-3.8433
X5.5512Y-2.1638
X5.5512Y-2.2638
X5.5512Y-2.3638
X5.6059Y-2.6059
X5.6059Y-2.9059
X5.6177Y-4.0984
X5.6209Y-3.2433
X5.6209Y-3.8433
X5.7177Y-4.0984
X5.7209Y-3.2433
X5.7209Y-3.8433
X5.7362Y-4.4827
X5.7362Y-4.6827
X5.8177Y-4.0984
X5.8209Y-3.2433
X5.8209Y-3.8433
X5.8858Y-2.1638
X5.8858Y-2.3638
X5.8858Y-2.6559
X5.8858Y-2.8559
X5.889Y-4.4327
X5.889Y-4.7327
X5.9177Y-4.0984
X5.9209Y-3.2433
X5.9209Y-3.8433
X5.9327Y-3.0906
X5.989Y-4.4327
X5.989Y-4.7327
X6.0177Y-4.0984
X6.0209Y-3.2433
X6.0209Y-3.8433
X6.0386Y-2.1138
X6.0386Y-2.4138
X6.0386Y-2.6059
X6.0386Y-2.9059
X6.089Y-4.4327
X6.089Y-4.7327
X6.1177Y-4.0984
X6.1209Y-3.2433
X6.1209Y-3.8433
X6.1386Y-2.1138
X6.1386Y-2.4138
X6.1386Y-2.6059
X6.1386Y-2.9059
X6.189Y-4.4327
X6.189Y-4.7327
X6.2177Y-4.0984
X6.2209Y-3.2433
X6.2209Y-3.8433
X6.2327Y-3.0906
X6.2386Y-2.1138
X6.2386Y-2.4138
X6.2386Y-2.6059
X6.2386Y-2.9059
X6.289Y-4.4327
X6.289Y-4.7327
X6.3386Y-2.1138
X6.3386Y-2.4138
X6.3386Y-2.6059
X6.3386Y-2.9059
X6.389Y-4.4327
X6.389Y-4.7327
X6.4051Y-3.0906
X6.4264Y-1.9291
X6.4386Y-2.1138
X6.4386Y-2.4138
X6.4386Y-2.6059
X6.4386Y-2.9059
X6.4783Y-5.
X6.489Y-4.4327
X6.489Y-4.7327
X6.5264Y-1.9291
X6.5386Y-2.1138
X6.5386Y-2.4138
X6.5386Y-2.6059
X6.5386Y-2.9059
X6.5783Y-5.
X6.6386Y-2.1138
X6.6386Y-2.4138
X6.6386Y-2.6059
X6.6386Y-2.9059
X6.6783Y-5.
X6.7051Y-3.0906
X6.7441Y-4.4366
X6.7441Y-4.7366
X6.761Y-1.9094
X6.7783Y-5.
X6.7913Y-2.6559
X6.7913Y-2.8559
X6.8346Y-4.4366
X6.8346Y-4.7366
X6.861Y-1.9094
X6.8783Y-5.
T0
M30
