G04 #@! TF.FileFunction,Copper,L2,Bot,Signal*
%FSLAX46Y46*%
G04 Gerber Fmt 4.6, Leading zero omitted, Abs format (unit mm)*
G04 Created by KiCad (PCBNEW 4.0.5) date 02/22/17 12:47:01*
%MOMM*%
%LPD*%
G01*
G04 APERTURE LIST*
%ADD10C,0.150000*%
%ADD11C,0.250000*%
%ADD12C,1.600000*%
%ADD13O,1.600000X1.600000*%
%ADD14R,1.397000X1.397000*%
%ADD15C,1.397000*%
%ADD16C,1.422400*%
%ADD17R,8.000000X2.000000*%
%ADD18C,0.889000*%
%ADD19C,1.016000*%
%ADD20C,1.016000*%
%ADD21C,0.254000*%
G04 APERTURE END LIST*
D10*
D11*
X162027619Y-126367381D02*
X162027619Y-125367381D01*
X161694285Y-126081667D01*
X161360952Y-125367381D01*
X161360952Y-126367381D01*
X160503809Y-126319762D02*
X160599047Y-126367381D01*
X160789524Y-126367381D01*
X160884762Y-126319762D01*
X160932381Y-126224524D01*
X160932381Y-125843571D01*
X160884762Y-125748333D01*
X160789524Y-125700714D01*
X160599047Y-125700714D01*
X160503809Y-125748333D01*
X160456190Y-125843571D01*
X160456190Y-125938810D01*
X160932381Y-126034048D01*
X159884762Y-126367381D02*
X159980000Y-126319762D01*
X160027619Y-126224524D01*
X160027619Y-125367381D01*
X159360952Y-126367381D02*
X159456190Y-126319762D01*
X159503809Y-126272143D01*
X159551428Y-126176905D01*
X159551428Y-125891190D01*
X159503809Y-125795952D01*
X159456190Y-125748333D01*
X159360952Y-125700714D01*
X159218094Y-125700714D01*
X159122856Y-125748333D01*
X159075237Y-125795952D01*
X159027618Y-125891190D01*
X159027618Y-126176905D01*
X159075237Y-126272143D01*
X159122856Y-126319762D01*
X159218094Y-126367381D01*
X159360952Y-126367381D01*
X158170475Y-126367381D02*
X158170475Y-125367381D01*
X158170475Y-126319762D02*
X158265713Y-126367381D01*
X158456190Y-126367381D01*
X158551428Y-126319762D01*
X158599047Y-126272143D01*
X158646666Y-126176905D01*
X158646666Y-125891190D01*
X158599047Y-125795952D01*
X158551428Y-125748333D01*
X158456190Y-125700714D01*
X158265713Y-125700714D01*
X158170475Y-125748333D01*
X157694285Y-126367381D02*
X157694285Y-125700714D01*
X157694285Y-125367381D02*
X157741904Y-125415000D01*
X157694285Y-125462619D01*
X157646666Y-125415000D01*
X157694285Y-125367381D01*
X157694285Y-125462619D01*
X157218095Y-126367381D02*
X157218095Y-125367381D01*
X157122857Y-125986429D02*
X156837142Y-126367381D01*
X156837142Y-125700714D02*
X157218095Y-126081667D01*
X156456190Y-125462619D02*
X156408571Y-125415000D01*
X156313333Y-125367381D01*
X156075237Y-125367381D01*
X155979999Y-125415000D01*
X155932380Y-125462619D01*
X155884761Y-125557857D01*
X155884761Y-125653095D01*
X155932380Y-125795952D01*
X156503809Y-126367381D01*
X155884761Y-126367381D01*
X161980000Y-128117381D02*
X161980000Y-127117381D01*
X161980000Y-127498333D02*
X161884762Y-127450714D01*
X161694285Y-127450714D01*
X161599047Y-127498333D01*
X161551428Y-127545952D01*
X161503809Y-127641190D01*
X161503809Y-127926905D01*
X161551428Y-128022143D01*
X161599047Y-128069762D01*
X161694285Y-128117381D01*
X161884762Y-128117381D01*
X161980000Y-128069762D01*
X161170476Y-127450714D02*
X160932381Y-128117381D01*
X160694285Y-127450714D02*
X160932381Y-128117381D01*
X161027619Y-128355476D01*
X161075238Y-128403095D01*
X161170476Y-128450714D01*
X159646666Y-127450714D02*
X159122856Y-127450714D01*
X159646666Y-128117381D01*
X159122856Y-128117381D01*
X158551428Y-127117381D02*
X158456189Y-127117381D01*
X158360951Y-127165000D01*
X158313332Y-127212619D01*
X158265713Y-127307857D01*
X158218094Y-127498333D01*
X158218094Y-127736429D01*
X158265713Y-127926905D01*
X158313332Y-128022143D01*
X158360951Y-128069762D01*
X158456189Y-128117381D01*
X158551428Y-128117381D01*
X158646666Y-128069762D01*
X158694285Y-128022143D01*
X158741904Y-127926905D01*
X158789523Y-127736429D01*
X158789523Y-127498333D01*
X158741904Y-127307857D01*
X158694285Y-127212619D01*
X158646666Y-127165000D01*
X158551428Y-127117381D01*
X157599047Y-127117381D02*
X157503808Y-127117381D01*
X157408570Y-127165000D01*
X157360951Y-127212619D01*
X157313332Y-127307857D01*
X157265713Y-127498333D01*
X157265713Y-127736429D01*
X157313332Y-127926905D01*
X157360951Y-128022143D01*
X157408570Y-128069762D01*
X157503808Y-128117381D01*
X157599047Y-128117381D01*
X157694285Y-128069762D01*
X157741904Y-128022143D01*
X157789523Y-127926905D01*
X157837142Y-127736429D01*
X157837142Y-127498333D01*
X157789523Y-127307857D01*
X157741904Y-127212619D01*
X157694285Y-127165000D01*
X157599047Y-127117381D01*
X156837142Y-128117381D02*
X156837142Y-127450714D01*
X156837142Y-127545952D02*
X156789523Y-127498333D01*
X156694285Y-127450714D01*
X156551427Y-127450714D01*
X156456189Y-127498333D01*
X156408570Y-127593571D01*
X156408570Y-128117381D01*
X156408570Y-127593571D02*
X156360951Y-127498333D01*
X156265713Y-127450714D01*
X156122856Y-127450714D01*
X156027618Y-127498333D01*
X155979999Y-127593571D01*
X155979999Y-128117381D01*
D12*
X123190000Y-109220000D03*
D13*
X123190000Y-101600000D03*
D14*
X164550000Y-127000000D03*
D15*
X167090000Y-127000000D03*
X169630000Y-127000000D03*
X172170000Y-127000000D03*
X174710000Y-127000000D03*
D14*
X141000000Y-54960000D03*
D15*
X141000000Y-57500000D03*
X141000000Y-60040000D03*
D14*
X171730000Y-48500000D03*
D15*
X174270000Y-48500000D03*
D14*
X157930000Y-104100000D03*
D15*
X155390000Y-104100000D03*
X152850000Y-104100000D03*
X150310000Y-104100000D03*
X147770000Y-104100000D03*
X145230000Y-104100000D03*
X142690000Y-104100000D03*
X140150000Y-104100000D03*
X137610000Y-104100000D03*
X135070000Y-104100000D03*
X139810000Y-48500000D03*
X132190000Y-48500000D03*
X158310000Y-78500000D03*
X150690000Y-78500000D03*
X162690000Y-78500000D03*
X170310000Y-78500000D03*
X171300000Y-120310000D03*
X171300000Y-112690000D03*
X173600000Y-120310000D03*
X173600000Y-112690000D03*
X121600000Y-112590000D03*
X121600000Y-120210000D03*
X124100000Y-112590000D03*
X124100000Y-120210000D03*
X126600000Y-112590000D03*
X126600000Y-120210000D03*
X131600000Y-120210000D03*
X131600000Y-112590000D03*
X134100000Y-120210000D03*
X134100000Y-112590000D03*
X136600000Y-120210000D03*
X136600000Y-112590000D03*
X129100000Y-112590000D03*
X129100000Y-120210000D03*
D16*
X164960000Y-85000000D03*
X170040000Y-85000000D03*
D14*
X126190000Y-60810000D03*
D15*
X128730000Y-60810000D03*
X131270000Y-60810000D03*
X133810000Y-60810000D03*
X133810000Y-53190000D03*
X131270000Y-53190000D03*
X128730000Y-53190000D03*
X126190000Y-53190000D03*
D14*
X124990000Y-97620000D03*
D15*
X127530000Y-97620000D03*
X130070000Y-97620000D03*
X132610000Y-97620000D03*
X135150000Y-97620000D03*
X137690000Y-97620000D03*
X140230000Y-97620000D03*
X142770000Y-97620000D03*
X145310000Y-97620000D03*
X147850000Y-97620000D03*
X150390000Y-97620000D03*
X152930000Y-97620000D03*
X155470000Y-97620000D03*
X158010000Y-97620000D03*
X158010000Y-82380000D03*
X155470000Y-82380000D03*
X152930000Y-82380000D03*
X150390000Y-82380000D03*
X147850000Y-82380000D03*
X145310000Y-82380000D03*
X142770000Y-82380000D03*
X140230000Y-82380000D03*
X137690000Y-82380000D03*
X135150000Y-82380000D03*
X132610000Y-82380000D03*
X130070000Y-82380000D03*
X127530000Y-82380000D03*
X124990000Y-82380000D03*
D14*
X124610000Y-73810000D03*
D15*
X127150000Y-73810000D03*
X129690000Y-73810000D03*
X132230000Y-73810000D03*
X134770000Y-73810000D03*
X137310000Y-73810000D03*
X139850000Y-73810000D03*
X142390000Y-73810000D03*
X142390000Y-66190000D03*
X139850000Y-66190000D03*
X137310000Y-66190000D03*
X134770000Y-66190000D03*
X132230000Y-66190000D03*
X129690000Y-66190000D03*
X127150000Y-66190000D03*
X124610000Y-66190000D03*
D14*
X149580000Y-120210000D03*
D15*
X152120000Y-120210000D03*
X154660000Y-120210000D03*
X157200000Y-120210000D03*
X159740000Y-120210000D03*
X162280000Y-120210000D03*
X164820000Y-120210000D03*
X164820000Y-112590000D03*
X162280000Y-112590000D03*
X159740000Y-112590000D03*
X157200000Y-112590000D03*
X154660000Y-112590000D03*
X152120000Y-112590000D03*
X149580000Y-112590000D03*
D14*
X153380000Y-73810000D03*
D15*
X155920000Y-73810000D03*
X158460000Y-73810000D03*
X161000000Y-73810000D03*
X163540000Y-73810000D03*
X166080000Y-73810000D03*
X168620000Y-73810000D03*
X168620000Y-66190000D03*
X166080000Y-66190000D03*
X163540000Y-66190000D03*
X161000000Y-66190000D03*
X158460000Y-66190000D03*
X155920000Y-66190000D03*
X153380000Y-66190000D03*
D14*
X153380000Y-61310000D03*
D15*
X155920000Y-61310000D03*
X158460000Y-61310000D03*
X161000000Y-61310000D03*
X163540000Y-61310000D03*
X166080000Y-61310000D03*
X168620000Y-61310000D03*
X168620000Y-53690000D03*
X166080000Y-53690000D03*
X163540000Y-53690000D03*
X161000000Y-53690000D03*
X158460000Y-53690000D03*
X155920000Y-53690000D03*
X153380000Y-53690000D03*
X145700000Y-118940000D03*
X145700000Y-113860000D03*
X121500000Y-87460000D03*
X121500000Y-92540000D03*
X120500000Y-72540000D03*
X120500000Y-67460000D03*
X149500000Y-72540000D03*
X149500000Y-67460000D03*
X123500000Y-59540000D03*
X123500000Y-54460000D03*
X149500000Y-60040000D03*
X149500000Y-54960000D03*
X129040000Y-48500000D03*
X123960000Y-48500000D03*
X138500000Y-54960000D03*
X138500000Y-60040000D03*
X172500000Y-72540000D03*
X172500000Y-67460000D03*
D14*
X163230000Y-49000000D03*
D15*
X165770000Y-49000000D03*
D14*
X138600000Y-124730000D03*
D15*
X138600000Y-127270000D03*
D14*
X133600000Y-124730000D03*
D15*
X133600000Y-127270000D03*
D14*
X128270000Y-104140000D03*
D15*
X130810000Y-104140000D03*
D17*
X110860000Y-54500000D03*
X110860000Y-57020000D03*
X110860000Y-59540000D03*
X110860000Y-62060000D03*
X110860000Y-67100000D03*
X110860000Y-69620000D03*
X110860000Y-72140000D03*
X110860000Y-74660000D03*
X110860000Y-77180000D03*
X110860000Y-79700000D03*
X110860000Y-82220000D03*
X110880000Y-84740000D03*
X110860000Y-87260000D03*
X110860000Y-89780000D03*
X110860000Y-92300000D03*
X110860000Y-94820000D03*
X110860000Y-97340000D03*
X110860000Y-99860000D03*
X110860000Y-102380000D03*
X110860000Y-104900000D03*
X110860000Y-107420000D03*
X110860000Y-109940000D03*
X110860000Y-112460000D03*
X110860000Y-114980000D03*
X110860000Y-117500000D03*
X110860000Y-120020000D03*
X110860000Y-122540000D03*
X180450000Y-54500000D03*
X180450000Y-57020000D03*
X180450000Y-59540000D03*
X180450000Y-62060000D03*
X180450000Y-67100000D03*
X180450000Y-69620000D03*
X180450000Y-72140000D03*
X180450000Y-74660000D03*
X180450000Y-77180000D03*
X180450000Y-79700000D03*
X180450000Y-82220000D03*
X180470000Y-84740000D03*
X180450000Y-87260000D03*
X180450000Y-89780000D03*
X180450000Y-92300000D03*
X180450000Y-94820000D03*
X180450000Y-97340000D03*
X180450000Y-99860000D03*
X180450000Y-102380000D03*
X180450000Y-104900000D03*
X180450000Y-107420000D03*
X180450000Y-109940000D03*
X180450000Y-112460000D03*
X180450000Y-114980000D03*
X180450000Y-117500000D03*
X180450000Y-120020000D03*
X180450000Y-122540000D03*
D14*
X120650000Y-58520000D03*
D15*
X120650000Y-55980000D03*
D18*
X175639000Y-89020500D03*
X115718300Y-89063000D03*
X175697800Y-83905500D03*
X116429700Y-85073600D03*
X174587200Y-92916200D03*
X116769500Y-93509100D03*
X174607100Y-90838400D03*
X115825200Y-91716100D03*
X174179800Y-88487800D03*
X116522700Y-88228300D03*
X175242700Y-96253800D03*
X117623100Y-95955200D03*
X160802000Y-95736400D03*
X143853000Y-75680200D03*
X174545300Y-57039200D03*
X116814800Y-56448100D03*
X125995100Y-50775900D03*
X167276600Y-97905000D03*
X161683200Y-84751700D03*
X172243800Y-78145100D03*
X173323300Y-82461800D03*
X175716300Y-80893800D03*
X171974900Y-79691400D03*
X174976200Y-78923500D03*
X119668400Y-77907700D03*
X174150300Y-80300500D03*
X150539900Y-56951500D03*
X170387500Y-58645600D03*
D19*
X142633300Y-112532000D03*
X168607300Y-87483500D03*
X168622300Y-58543300D03*
X159595100Y-100290100D03*
D18*
X156239700Y-77914200D03*
X166253200Y-99935200D03*
X167054700Y-99075400D03*
X161923100Y-108825100D03*
X159740000Y-114115600D03*
X161635300Y-100218100D03*
X160300600Y-82100200D03*
X150593000Y-74594500D03*
D20*
X115833200Y-62270900D02*
X115622300Y-62060000D01*
X149878500Y-62270900D02*
X115833200Y-62270900D01*
X152300300Y-59849100D02*
X149878500Y-62270900D01*
X169884300Y-59849100D02*
X152300300Y-59849100D01*
X172095200Y-62060000D02*
X169884300Y-59849100D01*
X180450000Y-62060000D02*
X172095200Y-62060000D01*
X110860000Y-62060000D02*
X115622300Y-62060000D01*
D21*
X115241300Y-117500000D02*
X176068700Y-117500000D01*
X110860000Y-117500000D02*
X115241300Y-117500000D01*
X180450000Y-117500000D02*
X176068700Y-117500000D01*
X180450000Y-99860000D02*
X176068700Y-99860000D01*
X110860000Y-99860000D02*
X115241300Y-99860000D01*
X171732600Y-95523900D02*
X176068700Y-99860000D01*
X166932800Y-95523900D02*
X171732600Y-95523900D01*
X165589400Y-94180500D02*
X166932800Y-95523900D01*
X123804500Y-94180500D02*
X165589400Y-94180500D01*
X118125100Y-99859900D02*
X123804500Y-94180500D01*
X115241300Y-99859900D02*
X118125100Y-99859900D01*
X115241300Y-99860000D02*
X115241300Y-99859900D01*
X118281500Y-72140000D02*
X110860000Y-72140000D01*
X119952000Y-73810500D02*
X118281500Y-72140000D01*
X120925600Y-73810500D02*
X119952000Y-73810500D01*
X123618700Y-71117400D02*
X120925600Y-73810500D01*
X144107600Y-71117400D02*
X123618700Y-71117400D01*
X148429600Y-75439400D02*
X144107600Y-71117400D01*
X172769300Y-75439400D02*
X148429600Y-75439400D01*
X176068700Y-72140000D02*
X172769300Y-75439400D01*
X180450000Y-72140000D02*
X176068700Y-72140000D01*
X175315100Y-89344400D02*
X175639000Y-89020500D01*
X115999700Y-89344400D02*
X175315100Y-89344400D01*
X115718300Y-89063000D02*
X115999700Y-89344400D01*
X164416000Y-83905500D02*
X175697800Y-83905500D01*
X162235700Y-86085800D02*
X164416000Y-83905500D01*
X129251700Y-86085800D02*
X162235700Y-86085800D01*
X128751500Y-85585600D02*
X129251700Y-86085800D01*
X116941700Y-85585600D02*
X128751500Y-85585600D01*
X116429700Y-85073600D02*
X116941700Y-85585600D01*
X170531500Y-92916200D02*
X174587200Y-92916200D01*
X169046000Y-91430700D02*
X170531500Y-92916200D01*
X118847900Y-91430700D02*
X169046000Y-91430700D01*
X116769500Y-93509100D02*
X118847900Y-91430700D01*
X180470000Y-84740000D02*
X176088700Y-84740000D01*
X110880000Y-84740000D02*
X115261300Y-84740000D01*
X115261300Y-85124000D02*
X115261300Y-84740000D01*
X116269300Y-86132000D02*
X115261300Y-85124000D01*
X128579100Y-86132000D02*
X116269300Y-86132000D01*
X129041200Y-86594100D02*
X128579100Y-86132000D01*
X173109300Y-86594100D02*
X129041200Y-86594100D01*
X174963400Y-84740000D02*
X173109300Y-86594100D01*
X176088700Y-84740000D02*
X174963400Y-84740000D01*
X174166000Y-90397300D02*
X174607100Y-90838400D01*
X117144000Y-90397300D02*
X174166000Y-90397300D01*
X115825200Y-91716100D02*
X117144000Y-90397300D01*
X116869300Y-88574900D02*
X116522700Y-88228300D01*
X174092700Y-88574900D02*
X116869300Y-88574900D01*
X174179800Y-88487800D02*
X174092700Y-88574900D01*
X173898100Y-94909200D02*
X175242700Y-96253800D01*
X167036900Y-94909200D02*
X173898100Y-94909200D01*
X165769900Y-93642200D02*
X167036900Y-94909200D01*
X123623900Y-93642200D02*
X165769900Y-93642200D01*
X121310900Y-95955200D02*
X123623900Y-93642200D01*
X117623100Y-95955200D02*
X121310900Y-95955200D01*
X159787700Y-94722100D02*
X160802000Y-95736400D01*
X124090600Y-94722100D02*
X159787700Y-94722100D01*
X116432700Y-102380000D02*
X124090600Y-94722100D01*
X110860000Y-102380000D02*
X116432700Y-102380000D01*
X174402600Y-102380000D02*
X180450000Y-102380000D01*
X168054800Y-96032200D02*
X174402600Y-102380000D01*
X161097800Y-96032200D02*
X168054800Y-96032200D01*
X160802000Y-95736400D02*
X161097800Y-96032200D01*
X180450000Y-114980000D02*
X176068700Y-114980000D01*
X110860000Y-114980000D02*
X115241300Y-114980000D01*
X175046200Y-116002500D02*
X176068700Y-114980000D01*
X116263800Y-116002500D02*
X175046200Y-116002500D01*
X115241300Y-114980000D02*
X116263800Y-116002500D01*
X139652600Y-75680200D02*
X143853000Y-75680200D01*
X138546600Y-74574200D02*
X139652600Y-75680200D01*
X138546600Y-72977000D02*
X138546600Y-74574200D01*
X137759500Y-72189900D02*
X138546600Y-72977000D01*
X128770100Y-72189900D02*
X137759500Y-72189900D01*
X127150000Y-73810000D02*
X128770100Y-72189900D01*
X115519400Y-92578100D02*
X115241300Y-92300000D01*
X116532600Y-92578100D02*
X115519400Y-92578100D01*
X118205000Y-90905700D02*
X116532600Y-92578100D01*
X171591100Y-90905700D02*
X118205000Y-90905700D01*
X172349800Y-91664400D02*
X171591100Y-90905700D01*
X175433100Y-91664400D02*
X172349800Y-91664400D01*
X176068700Y-92300000D02*
X175433100Y-91664400D01*
X180450000Y-92300000D02*
X176068700Y-92300000D01*
X110860000Y-92300000D02*
X115241300Y-92300000D01*
X180450000Y-74660000D02*
X176068700Y-74660000D01*
X174780900Y-75947800D02*
X176068700Y-74660000D01*
X148091600Y-75947800D02*
X174780900Y-75947800D01*
X143813900Y-71670100D02*
X148091600Y-75947800D01*
X123823700Y-71670100D02*
X143813900Y-71670100D01*
X120833800Y-74660000D02*
X123823700Y-71670100D01*
X110860000Y-74660000D02*
X120833800Y-74660000D01*
X180450000Y-77180000D02*
X176068700Y-77180000D01*
X110860000Y-77180000D02*
X115241300Y-77180000D01*
X137479000Y-76519000D02*
X134770000Y-73810000D01*
X175407700Y-76519000D02*
X137479000Y-76519000D01*
X176068700Y-77180000D02*
X175407700Y-76519000D01*
X116362700Y-76058600D02*
X115241300Y-77180000D01*
X132521400Y-76058600D02*
X116362700Y-76058600D01*
X134770000Y-73810000D02*
X132521400Y-76058600D01*
X115241300Y-122540000D02*
X176068700Y-122540000D01*
X110860000Y-122540000D02*
X115241300Y-122540000D01*
X180450000Y-122540000D02*
X176068700Y-122540000D01*
X180450000Y-57020000D02*
X176068700Y-57020000D01*
X110860000Y-57020000D02*
X115241300Y-57020000D01*
X115241300Y-56323800D02*
X115241300Y-57020000D01*
X119963300Y-51601800D02*
X115241300Y-56323800D01*
X170650500Y-51601800D02*
X119963300Y-51601800D01*
X176068700Y-57020000D02*
X170650500Y-51601800D01*
X121152800Y-52110100D02*
X116814800Y-56448100D01*
X169616200Y-52110100D02*
X121152800Y-52110100D01*
X174545300Y-57039200D02*
X169616200Y-52110100D01*
X180450000Y-54500000D02*
X176068700Y-54500000D01*
X119464100Y-50775900D02*
X125995100Y-50775900D01*
X115740000Y-54500000D02*
X119464100Y-50775900D01*
X110860000Y-54500000D02*
X115740000Y-54500000D01*
X125995100Y-49997000D02*
X125995100Y-50775900D01*
X128582300Y-47409800D02*
X125995100Y-49997000D01*
X153071000Y-47409800D02*
X128582300Y-47409800D01*
X155741000Y-50079800D02*
X153071000Y-47409800D01*
X171648500Y-50079800D02*
X155741000Y-50079800D01*
X176068700Y-54500000D02*
X171648500Y-50079800D01*
X180450000Y-79700000D02*
X176068700Y-79700000D01*
X110860000Y-79700000D02*
X115241300Y-79700000D01*
X117866100Y-77075200D02*
X115241300Y-79700000D01*
X174295800Y-77075200D02*
X117866100Y-77075200D01*
X176068700Y-78848100D02*
X174295800Y-77075200D01*
X176068700Y-79700000D02*
X176068700Y-78848100D01*
X180450000Y-82220000D02*
X176068700Y-82220000D01*
X174942200Y-83346500D02*
X176068700Y-82220000D01*
X164256200Y-83346500D02*
X174942200Y-83346500D01*
X162025200Y-85577500D02*
X164256200Y-83346500D01*
X129462200Y-85577500D02*
X162025200Y-85577500D01*
X128909000Y-85024300D02*
X129462200Y-85577500D01*
X123062000Y-85024300D02*
X128909000Y-85024300D01*
X120257700Y-82220000D02*
X123062000Y-85024300D01*
X110860000Y-82220000D02*
X120257700Y-82220000D01*
X116138700Y-112460000D02*
X110860000Y-112460000D01*
X119172800Y-115494100D02*
X116138700Y-112460000D01*
X173097500Y-115494100D02*
X119172800Y-115494100D01*
X176068700Y-112522900D02*
X173097500Y-115494100D01*
X176068700Y-112460000D02*
X176068700Y-112522900D01*
X180450000Y-112460000D02*
X176068700Y-112460000D01*
X180450000Y-109940000D02*
X176195800Y-109940000D01*
X176195800Y-109940000D02*
X176068800Y-109940000D01*
X168737000Y-99365400D02*
X167276600Y-97905000D01*
X168737000Y-102608200D02*
X168737000Y-99365400D01*
X176068800Y-109940000D02*
X168737000Y-102608200D01*
X116014000Y-109940000D02*
X110860000Y-109940000D01*
X121059700Y-114985700D02*
X116014000Y-109940000D01*
X172886900Y-114985700D02*
X121059700Y-114985700D01*
X175300000Y-112572600D02*
X172886900Y-114985700D01*
X175300000Y-110708800D02*
X175300000Y-112572600D01*
X176068800Y-109940000D02*
X175300000Y-110708800D01*
X180450000Y-107420000D02*
X176068700Y-107420000D01*
X110860000Y-107420000D02*
X115241300Y-107420000D01*
X115241300Y-106083900D02*
X115241300Y-107420000D01*
X121611600Y-99713600D02*
X115241300Y-106083900D01*
X121611600Y-98764800D02*
X121611600Y-99713600D01*
X124559000Y-95817400D02*
X121611600Y-98764800D01*
X158996400Y-95817400D02*
X124559000Y-95817400D01*
X160249500Y-97070500D02*
X158996400Y-95817400D01*
X167619000Y-97070500D02*
X160249500Y-97070500D01*
X168102400Y-97553900D02*
X167619000Y-97070500D01*
X168102400Y-97759400D02*
X168102400Y-97553900D01*
X176068700Y-105725700D02*
X168102400Y-97759400D01*
X176068700Y-107420000D02*
X176068700Y-105725700D01*
X180450000Y-104900000D02*
X176068700Y-104900000D01*
X110860000Y-104900000D02*
X115241300Y-104900000D01*
X176068700Y-104801400D02*
X176068700Y-104900000D01*
X167829500Y-96562200D02*
X176068700Y-104801400D01*
X160460000Y-96562200D02*
X167829500Y-96562200D01*
X159195400Y-95297600D02*
X160460000Y-96562200D01*
X124344100Y-95297600D02*
X159195400Y-95297600D01*
X115241300Y-104400400D02*
X124344100Y-95297600D01*
X115241300Y-104900000D02*
X115241300Y-104400400D01*
X117211100Y-121989800D02*
X115241300Y-120020000D01*
X174098900Y-121989800D02*
X117211100Y-121989800D01*
X176068700Y-120020000D02*
X174098900Y-121989800D01*
X180450000Y-120020000D02*
X176068700Y-120020000D01*
X110860000Y-120020000D02*
X115241300Y-120020000D01*
X161410700Y-85024200D02*
X161683200Y-84751700D01*
X129627700Y-85024200D02*
X161410700Y-85024200D01*
X129119400Y-84515900D02*
X129627700Y-85024200D01*
X127125900Y-84515900D02*
X129119400Y-84515900D01*
X124990000Y-82380000D02*
X127125900Y-84515900D01*
X170804200Y-79584700D02*
X172243800Y-78145100D01*
X130325300Y-79584700D02*
X170804200Y-79584700D01*
X127530000Y-82380000D02*
X130325300Y-79584700D01*
X162784200Y-82461800D02*
X173323300Y-82461800D01*
X160730200Y-84515800D02*
X162784200Y-82461800D01*
X132205800Y-84515800D02*
X160730200Y-84515800D01*
X130070000Y-82380000D02*
X132205800Y-84515800D01*
X134237400Y-84007400D02*
X132610000Y-82380000D01*
X159774100Y-84007400D02*
X134237400Y-84007400D01*
X162145500Y-81636000D02*
X159774100Y-84007400D01*
X174974100Y-81636000D02*
X162145500Y-81636000D01*
X175716300Y-80893800D02*
X174974100Y-81636000D01*
X171573200Y-80093100D02*
X171974900Y-79691400D01*
X137436900Y-80093100D02*
X171573200Y-80093100D01*
X135150000Y-82380000D02*
X137436900Y-80093100D01*
X139464400Y-80605600D02*
X137690000Y-82380000D01*
X172228800Y-80605600D02*
X139464400Y-80605600D01*
X173910900Y-78923500D02*
X172228800Y-80605600D01*
X174976200Y-78923500D02*
X173910900Y-78923500D01*
X122685100Y-77907700D02*
X119668400Y-77907700D01*
X126260000Y-81482600D02*
X122685100Y-77907700D01*
X126260000Y-82777800D02*
X126260000Y-81482600D01*
X127117600Y-83635400D02*
X126260000Y-82777800D01*
X128154500Y-83635400D02*
X127117600Y-83635400D01*
X128729100Y-83060800D02*
X128154500Y-83635400D01*
X128729100Y-81983800D02*
X128729100Y-83060800D01*
X129703400Y-81009500D02*
X128729100Y-81983800D01*
X133048600Y-81009500D02*
X129703400Y-81009500D01*
X133867000Y-81827900D02*
X133048600Y-81009500D01*
X133867000Y-82884800D02*
X133867000Y-81827900D01*
X134447100Y-83464900D02*
X133867000Y-82884800D01*
X139145100Y-83464900D02*
X134447100Y-83464900D01*
X140230000Y-82380000D02*
X139145100Y-83464900D01*
X173336900Y-81113900D02*
X174150300Y-80300500D01*
X141496100Y-81113900D02*
X173336900Y-81113900D01*
X140230000Y-82380000D02*
X141496100Y-81113900D01*
X168693400Y-56951500D02*
X170387500Y-58645600D01*
X150539900Y-56951500D02*
X168693400Y-56951500D01*
X180450000Y-97340000D02*
X176068700Y-97340000D01*
X110860000Y-97340000D02*
X115241300Y-97340000D01*
X176068700Y-95880300D02*
X176068700Y-97340000D01*
X174589200Y-94400800D02*
X176068700Y-95880300D01*
X167247300Y-94400800D02*
X174589200Y-94400800D01*
X165979100Y-93132600D02*
X167247300Y-94400800D01*
X123414500Y-93132600D02*
X165979100Y-93132600D01*
X121560800Y-94986300D02*
X123414500Y-93132600D01*
X117371400Y-94986300D02*
X121560800Y-94986300D01*
X115241300Y-97116400D02*
X117371400Y-94986300D01*
X115241300Y-97340000D02*
X115241300Y-97116400D01*
X115634400Y-94426900D02*
X115241300Y-94820000D01*
X121401200Y-94426900D02*
X115634400Y-94426900D01*
X123203900Y-92624200D02*
X121401200Y-94426900D01*
X166548900Y-92624200D02*
X123203900Y-92624200D01*
X167668300Y-93743600D02*
X166548900Y-92624200D01*
X174992300Y-93743600D02*
X167668300Y-93743600D01*
X176068700Y-94820000D02*
X174992300Y-93743600D01*
X180450000Y-94820000D02*
X176068700Y-94820000D01*
X110860000Y-94820000D02*
X115241300Y-94820000D01*
X115350200Y-89888900D02*
X115241300Y-89780000D01*
X175959800Y-89888900D02*
X115350200Y-89888900D01*
X176068700Y-89780000D02*
X175959800Y-89888900D01*
X180450000Y-89780000D02*
X176068700Y-89780000D01*
X110860000Y-89780000D02*
X115241300Y-89780000D01*
D20*
X176870000Y-69620000D02*
X176870000Y-67100000D01*
X174410000Y-68020000D02*
X174410000Y-67100000D01*
X168620000Y-73810000D02*
X174410000Y-68020000D01*
X176870000Y-67100000D02*
X174410000Y-67100000D01*
X174410000Y-67100000D02*
X168620000Y-61310000D01*
X137690000Y-104020000D02*
X137610000Y-104100000D01*
X137690000Y-97620000D02*
X137690000Y-104020000D01*
X132237500Y-105567500D02*
X136142500Y-105567500D01*
X130810000Y-104140000D02*
X132237500Y-105567500D01*
X136142500Y-105567500D02*
X137610000Y-104100000D01*
X142633300Y-112058300D02*
X142633300Y-112532000D01*
X136142500Y-105567500D02*
X142633300Y-112058300D01*
X115622300Y-68421800D02*
X115622300Y-67100000D01*
X115620000Y-69600000D02*
X115622300Y-68421800D01*
X113380000Y-69620000D02*
X115620000Y-69600000D01*
X117580000Y-69620000D02*
X113380000Y-69620000D01*
X120500000Y-72540000D02*
X117580000Y-69620000D01*
X113380000Y-69620000D02*
X110860000Y-69620000D01*
X110860000Y-67100000D02*
X115622300Y-67100000D01*
X127269100Y-59349100D02*
X128730000Y-60810000D01*
X123690900Y-59349100D02*
X127269100Y-59349100D01*
X123500000Y-59540000D02*
X123690900Y-59349100D01*
X124100000Y-120210000D02*
X121600000Y-120210000D01*
X180450000Y-87260000D02*
X175687700Y-87260000D01*
X173477500Y-87483500D02*
X168607300Y-87483500D01*
X173701000Y-87260000D02*
X173477500Y-87483500D01*
X175687700Y-87260000D02*
X173701000Y-87260000D01*
X130190900Y-59349100D02*
X128730000Y-60810000D01*
X132349100Y-59349100D02*
X130190900Y-59349100D01*
X133810000Y-60810000D02*
X132349100Y-59349100D01*
X145890900Y-118749100D02*
X145700000Y-118940000D01*
X163359100Y-118749100D02*
X145890900Y-118749100D01*
X164820000Y-120210000D02*
X163359100Y-118749100D01*
X141000000Y-60040000D02*
X149500000Y-60040000D01*
X150996700Y-58543300D02*
X168622300Y-58543300D01*
X149500000Y-60040000D02*
X150996700Y-58543300D01*
X121523500Y-87483500D02*
X168607300Y-87483500D01*
X121500000Y-87460000D02*
X121523500Y-87483500D01*
X121061400Y-87021400D02*
X121500000Y-87460000D01*
X115860900Y-87021400D02*
X121061400Y-87021400D01*
X115622300Y-87260000D02*
X115860900Y-87021400D01*
X110860000Y-87260000D02*
X115622300Y-87260000D01*
X128076300Y-118733700D02*
X126600000Y-120210000D01*
X145493700Y-118733700D02*
X128076300Y-118733700D01*
X145700000Y-118940000D02*
X145493700Y-118733700D01*
X126600000Y-120210000D02*
X124100000Y-120210000D01*
X166080000Y-61310000D02*
X163540000Y-61310000D01*
X147742500Y-53202500D02*
X149500000Y-54960000D01*
X137437000Y-53202500D02*
X147742500Y-53202500D01*
X135638600Y-55000900D02*
X137437000Y-53202500D01*
X133080900Y-55000900D02*
X135638600Y-55000900D01*
X131270000Y-53190000D02*
X133080900Y-55000900D01*
X180450000Y-59540000D02*
X175687700Y-59540000D01*
X126809200Y-105600800D02*
X126809200Y-104140000D01*
X123190000Y-109220000D02*
X126809200Y-105600800D01*
X128270000Y-104140000D02*
X126809200Y-104140000D01*
X124073900Y-55033900D02*
X123500000Y-54460000D01*
X129426100Y-55033900D02*
X124073900Y-55033900D01*
X131270000Y-53190000D02*
X129426100Y-55033900D01*
X110860000Y-59540000D02*
X115622300Y-59540000D01*
X126070900Y-64729100D02*
X124610000Y-66190000D01*
X146769100Y-64729100D02*
X126070900Y-64729100D01*
X149500000Y-67460000D02*
X146769100Y-64729100D01*
X121770000Y-66190000D02*
X120500000Y-67460000D01*
X124610000Y-66190000D02*
X121770000Y-66190000D01*
X175339500Y-59540000D02*
X175687700Y-59540000D01*
X171660400Y-55860900D02*
X175339500Y-59540000D01*
X155550900Y-55860900D02*
X171660400Y-55860900D01*
X153380000Y-53690000D02*
X155550900Y-55860900D01*
X120074100Y-54460000D02*
X123500000Y-54460000D01*
X118021600Y-56512500D02*
X120074100Y-54460000D01*
X118021600Y-57140700D02*
X118021600Y-56512500D01*
X115622300Y-59540000D02*
X118021600Y-57140700D01*
X159595100Y-104921400D02*
X159595100Y-100290100D01*
X156091200Y-108425300D02*
X159595100Y-104921400D01*
X153744700Y-108425300D02*
X156091200Y-108425300D01*
X149580000Y-112590000D02*
X153744700Y-108425300D01*
D21*
X151275800Y-77914200D02*
X150690000Y-78500000D01*
X156239700Y-77914200D02*
X151275800Y-77914200D01*
X167350000Y-72540000D02*
X161000000Y-66190000D01*
X167350000Y-74393900D02*
X167350000Y-72540000D01*
X167879100Y-74923000D02*
X167350000Y-74393900D01*
X170117000Y-74923000D02*
X167879100Y-74923000D01*
X172500000Y-72540000D02*
X170117000Y-74923000D01*
X163540000Y-66190000D02*
X166080000Y-66190000D01*
X167350000Y-67460000D02*
X166080000Y-66190000D01*
X172500000Y-67460000D02*
X167350000Y-67460000D01*
X134679900Y-126190100D02*
X133600000Y-127270000D01*
X143000300Y-126190100D02*
X134679900Y-126190100D01*
X144892600Y-124297800D02*
X143000300Y-126190100D01*
X172007800Y-124297800D02*
X144892600Y-124297800D01*
X174710000Y-127000000D02*
X172007800Y-124297800D01*
X134100000Y-112590000D02*
X131600000Y-112590000D01*
X164976100Y-124886100D02*
X167090000Y-127000000D01*
X146498600Y-124886100D02*
X164976100Y-124886100D01*
X144114700Y-127270000D02*
X146498600Y-124886100D01*
X138600000Y-127270000D02*
X144114700Y-127270000D01*
X129040000Y-48500000D02*
X132190000Y-48500000D01*
D20*
X126090000Y-101600000D02*
X130070000Y-97620000D01*
X123190000Y-101600000D02*
X126090000Y-101600000D01*
D21*
X158010000Y-102940200D02*
X157930000Y-103020200D01*
X158010000Y-97620000D02*
X158010000Y-102940200D01*
X157930000Y-104100000D02*
X157930000Y-103020200D01*
X155390000Y-97700000D02*
X155390000Y-104100000D01*
X155470000Y-97620000D02*
X155390000Y-97700000D01*
X152850000Y-97700000D02*
X152850000Y-104100000D01*
X152930000Y-97620000D02*
X152850000Y-97700000D01*
X150310000Y-97700000D02*
X150310000Y-104100000D01*
X150390000Y-97620000D02*
X150310000Y-97700000D01*
X147770000Y-97700000D02*
X147770000Y-104100000D01*
X147850000Y-97620000D02*
X147770000Y-97700000D01*
X145230000Y-97700000D02*
X145230000Y-104100000D01*
X145310000Y-97620000D02*
X145230000Y-97700000D01*
X142690000Y-97700000D02*
X142690000Y-104100000D01*
X142770000Y-97620000D02*
X142690000Y-97700000D01*
X140150000Y-97700000D02*
X140150000Y-104100000D01*
X140230000Y-97620000D02*
X140150000Y-97700000D01*
X120963500Y-56293500D02*
X120650000Y-55980000D01*
X138911700Y-56293500D02*
X120963500Y-56293500D01*
X139920200Y-55285000D02*
X138911700Y-56293500D01*
X139920200Y-54960000D02*
X139920200Y-55285000D01*
X141000000Y-54960000D02*
X139920200Y-54960000D01*
X173600000Y-112690000D02*
X171300000Y-112690000D01*
X166253200Y-107643200D02*
X166253200Y-99935200D01*
X171300000Y-112690000D02*
X166253200Y-107643200D01*
X161923100Y-103028800D02*
X161923100Y-108825100D01*
X165876500Y-99075400D02*
X161923100Y-103028800D01*
X167054700Y-99075400D02*
X165876500Y-99075400D01*
X136600000Y-120210000D02*
X134100000Y-120210000D01*
X121023000Y-112013000D02*
X121600000Y-112590000D01*
X121023000Y-101486300D02*
X121023000Y-112013000D01*
X122689500Y-99819800D02*
X121023000Y-101486300D01*
X124990000Y-99819800D02*
X122689500Y-99819800D01*
X124990000Y-97620000D02*
X124990000Y-99819800D01*
X121727900Y-110217900D02*
X124100000Y-112590000D01*
X121727900Y-107928800D02*
X121727900Y-110217900D01*
X132036700Y-97620000D02*
X121727900Y-107928800D01*
X132610000Y-97620000D02*
X132036700Y-97620000D01*
X129590200Y-112099800D02*
X129100000Y-112590000D01*
X129590200Y-103179800D02*
X129590200Y-112099800D01*
X135150000Y-97620000D02*
X129590200Y-103179800D01*
X129100000Y-112590000D02*
X126600000Y-112590000D01*
X159841500Y-114115600D02*
X159740000Y-114115600D01*
X161078700Y-112878400D02*
X159841500Y-114115600D01*
X161078700Y-100774700D02*
X161078700Y-112878400D01*
X161635300Y-100218100D02*
X161078700Y-100774700D01*
X151508900Y-83498900D02*
X150390000Y-82380000D01*
X158901900Y-83498900D02*
X151508900Y-83498900D01*
X160300600Y-82100200D02*
X158901900Y-83498900D01*
X150888400Y-74889900D02*
X150593000Y-74594500D01*
X165000100Y-74889900D02*
X150888400Y-74889900D01*
X166080000Y-73810000D02*
X165000100Y-74889900D01*
X157279800Y-72450200D02*
X155920000Y-73810000D01*
X159640200Y-72450200D02*
X157279800Y-72450200D01*
X161000000Y-73810000D02*
X159640200Y-72450200D01*
X142383500Y-68723500D02*
X139850000Y-66190000D01*
X150833500Y-68723500D02*
X142383500Y-68723500D01*
X155920000Y-73810000D02*
X150833500Y-68723500D01*
X138242900Y-66190000D02*
X137310000Y-66190000D01*
X142422700Y-70369800D02*
X138242900Y-66190000D01*
X149000000Y-70369800D02*
X142422700Y-70369800D01*
X152440200Y-73810000D02*
X149000000Y-70369800D01*
X153380000Y-73810000D02*
X152440200Y-73810000D01*
X157190000Y-67460000D02*
X163540000Y-73810000D01*
X157190000Y-65599900D02*
X157190000Y-67460000D01*
X154229900Y-62639800D02*
X157190000Y-65599900D01*
X153380000Y-62639800D02*
X154229900Y-62639800D01*
X153380000Y-61310000D02*
X153380000Y-62639800D01*
X158460000Y-61310000D02*
X155920000Y-61310000D01*
X162328500Y-54901500D02*
X163540000Y-53690000D01*
X159671500Y-54901500D02*
X162328500Y-54901500D01*
X158460000Y-53690000D02*
X159671500Y-54901500D01*
X153371800Y-121461800D02*
X152120000Y-120210000D01*
X161028200Y-121461800D02*
X153371800Y-121461800D01*
X162280000Y-120210000D02*
X161028200Y-121461800D01*
M02*
