M48
; DRILL file {KiCad (5.1.9)-1} date 05/20/21 14:53:25
; FORMAT={-:-/ absolute / inch / decimal}
; #@! TF.CreationDate,2021-05-20T14:53:25+02:00
; #@! TF.GenerationSoftware,Kicad,Pcbnew,(5.1.9)-1
; #@! TF.FileFunction,Plated,1,2,PTH
FMAT,2
INCH
T1C0.0276
T2C0.0315
T3C0.0394
T4C0.1260
%
G90
G05
T1
X4.45Y-3.4
X4.45Y-3.7
X4.54Y-3.4
X4.54Y-3.7
X4.63Y-3.4
X4.63Y-3.7
T2
X3.2Y-3.555
X3.2984Y-3.555
X3.465Y-3.4431
X3.465Y-3.64
X3.6Y-3.385
X3.6Y-3.685
X3.625Y-2.26
X3.625Y-2.36
X3.625Y-2.46
X3.625Y-2.56
X3.625Y-2.66
X3.625Y-2.76
X3.625Y-2.86
X3.625Y-2.96
X3.625Y-3.06
X3.7Y-3.385
X3.7Y-3.685
X3.78Y-2.26
X3.78Y-2.36
X3.78Y-2.46
X3.78Y-2.56
X3.78Y-2.66
X3.78Y-2.76
X3.78Y-2.86
X3.78Y-2.96
X3.8Y-3.385
X3.8Y-3.685
X3.9Y-3.385
X3.9Y-3.685
X4.0Y-3.385
X4.0Y-3.685
X4.08Y-2.26
X4.08Y-2.36
X4.08Y-2.46
X4.08Y-2.56
X4.08Y-2.66
X4.08Y-2.76
X4.08Y-2.86
X4.08Y-2.96
X4.1Y-3.385
X4.1Y-3.685
X4.2Y-3.385
X4.2Y-3.685
X4.23Y-2.275
X4.23Y-2.375
X4.23Y-2.475
X4.23Y-2.575
X4.23Y-2.675
X4.23Y-2.775
X4.23Y-2.875
X4.23Y-2.975
X4.23Y-3.075
X4.23Y-3.175
X4.2831Y-2.145
X4.345Y-3.4
X4.345Y-3.7
X4.48Y-2.145
X4.53Y-2.275
X4.53Y-2.375
X4.53Y-2.475
X4.53Y-2.575
X4.53Y-2.675
X4.53Y-2.775
X4.53Y-2.875
X4.53Y-2.975
X4.53Y-3.075
X4.53Y-3.175
X4.71Y-2.985
X4.75Y-2.48
X4.75Y-2.6721
X4.8084Y-2.985
X4.995Y-2.3966
X4.995Y-2.495
X4.995Y-2.6566
X4.995Y-2.755
T3
X3.24Y-2.45
X3.24Y-2.55
X3.24Y-2.65
X3.24Y-2.75
X3.24Y-2.85
X3.24Y-2.95
X3.24Y-3.05
X3.24Y-3.15
X3.24Y-3.25
X3.34Y-2.45
X3.34Y-2.55
X3.34Y-2.65
X3.34Y-2.75
X3.34Y-2.85
X3.34Y-2.95
X3.34Y-3.05
X3.34Y-3.15
X3.34Y-3.25
X4.79Y-3.2
X4.79Y-3.3
X4.79Y-3.4
X4.79Y-3.5
X4.79Y-3.6
X4.79Y-3.7
T4
X3.215Y-2.19
X5.055Y-2.19
T0
M30
