G04 #@! TF.GenerationSoftware,KiCad,Pcbnew,6.0.11+dfsg-1*
G04 #@! TF.CreationDate,2025-03-28T14:55:45+01:00*
G04 #@! TF.ProjectId,Melodik2,4d656c6f-6469-46b3-922e-6b696361645f,2.0*
G04 #@! TF.SameCoordinates,Original*
G04 #@! TF.FileFunction,Legend,Top*
G04 #@! TF.FilePolarity,Positive*
%FSLAX46Y46*%
G04 Gerber Fmt 4.6, Leading zero omitted, Abs format (unit mm)*
G04 Created by KiCad (PCBNEW 6.0.11+dfsg-1) date 2025-03-28 14:55:45*
%MOMM*%
%LPD*%
G01*
G04 APERTURE LIST*
%ADD10C,0.150000*%
%ADD11C,0.200000*%
%ADD12C,0.500000*%
%ADD13C,0.120000*%
%ADD14C,1.600000*%
%ADD15O,1.600000X1.600000*%
%ADD16R,1.600000X1.600000*%
%ADD17R,8.000000X2.000000*%
%ADD18R,1.700000X1.700000*%
%ADD19O,1.700000X1.700000*%
%ADD20C,1.500000*%
G04 APERTURE END LIST*
D10*
X120660000Y-53920000D02*
X120660000Y-64220000D01*
X119410000Y-64470000D02*
X119410000Y-63970000D01*
X119210000Y-64220000D02*
X119410000Y-64470000D01*
X119410000Y-63970000D02*
X119210000Y-64220000D01*
X120660000Y-64220000D02*
X119210000Y-64220000D01*
X153852380Y-107420000D02*
X152852380Y-107420000D01*
X152852380Y-106753333D02*
X152852380Y-106562857D01*
X152900000Y-106467619D01*
X152995238Y-106372380D01*
X153185714Y-106324761D01*
X153519047Y-106324761D01*
X153709523Y-106372380D01*
X153804761Y-106467619D01*
X153852380Y-106562857D01*
X153852380Y-106753333D01*
X153804761Y-106848571D01*
X153709523Y-106943809D01*
X153519047Y-106991428D01*
X153185714Y-106991428D01*
X152995238Y-106943809D01*
X152900000Y-106848571D01*
X152852380Y-106753333D01*
X152947619Y-105943809D02*
X152900000Y-105896190D01*
X152852380Y-105800952D01*
X152852380Y-105562857D01*
X152900000Y-105467619D01*
X152947619Y-105420000D01*
X153042857Y-105372380D01*
X153138095Y-105372380D01*
X153280952Y-105420000D01*
X153852380Y-105991428D01*
X153852380Y-105372380D01*
X148852380Y-107420000D02*
X147852380Y-107420000D01*
X147852380Y-106753333D02*
X147852380Y-106562857D01*
X147900000Y-106467619D01*
X147995238Y-106372380D01*
X148185714Y-106324761D01*
X148519047Y-106324761D01*
X148709523Y-106372380D01*
X148804761Y-106467619D01*
X148852380Y-106562857D01*
X148852380Y-106753333D01*
X148804761Y-106848571D01*
X148709523Y-106943809D01*
X148519047Y-106991428D01*
X148185714Y-106991428D01*
X147995238Y-106943809D01*
X147900000Y-106848571D01*
X147852380Y-106753333D01*
X148185714Y-105467619D02*
X148852380Y-105467619D01*
X147804761Y-105705714D02*
X148519047Y-105943809D01*
X148519047Y-105324761D01*
X146252380Y-107420000D02*
X145252380Y-107420000D01*
X145252380Y-106753333D02*
X145252380Y-106562857D01*
X145300000Y-106467619D01*
X145395238Y-106372380D01*
X145585714Y-106324761D01*
X145919047Y-106324761D01*
X146109523Y-106372380D01*
X146204761Y-106467619D01*
X146252380Y-106562857D01*
X146252380Y-106753333D01*
X146204761Y-106848571D01*
X146109523Y-106943809D01*
X145919047Y-106991428D01*
X145585714Y-106991428D01*
X145395238Y-106943809D01*
X145300000Y-106848571D01*
X145252380Y-106753333D01*
X145252380Y-105420000D02*
X145252380Y-105896190D01*
X145728571Y-105943809D01*
X145680952Y-105896190D01*
X145633333Y-105800952D01*
X145633333Y-105562857D01*
X145680952Y-105467619D01*
X145728571Y-105420000D01*
X145823809Y-105372380D01*
X146061904Y-105372380D01*
X146157142Y-105420000D01*
X146204761Y-105467619D01*
X146252380Y-105562857D01*
X146252380Y-105800952D01*
X146204761Y-105896190D01*
X146157142Y-105943809D01*
X171545714Y-129122380D02*
X171069523Y-129122380D01*
X171069523Y-128122380D01*
X172069523Y-128122380D02*
X172260000Y-128122380D01*
X172355238Y-128170000D01*
X172450476Y-128265238D01*
X172498095Y-128455714D01*
X172498095Y-128789047D01*
X172450476Y-128979523D01*
X172355238Y-129074761D01*
X172260000Y-129122380D01*
X172069523Y-129122380D01*
X171974285Y-129074761D01*
X171879047Y-128979523D01*
X171831428Y-128789047D01*
X171831428Y-128455714D01*
X171879047Y-128265238D01*
X171974285Y-128170000D01*
X172069523Y-128122380D01*
X156402380Y-107420000D02*
X155402380Y-107420000D01*
X155402380Y-106753333D02*
X155402380Y-106562857D01*
X155450000Y-106467619D01*
X155545238Y-106372380D01*
X155735714Y-106324761D01*
X156069047Y-106324761D01*
X156259523Y-106372380D01*
X156354761Y-106467619D01*
X156402380Y-106562857D01*
X156402380Y-106753333D01*
X156354761Y-106848571D01*
X156259523Y-106943809D01*
X156069047Y-106991428D01*
X155735714Y-106991428D01*
X155545238Y-106943809D01*
X155450000Y-106848571D01*
X155402380Y-106753333D01*
X156402380Y-105372380D02*
X156402380Y-105943809D01*
X156402380Y-105658095D02*
X155402380Y-105658095D01*
X155545238Y-105753333D01*
X155640476Y-105848571D01*
X155688095Y-105943809D01*
X151402380Y-107420000D02*
X150402380Y-107420000D01*
X150402380Y-106753333D02*
X150402380Y-106562857D01*
X150450000Y-106467619D01*
X150545238Y-106372380D01*
X150735714Y-106324761D01*
X151069047Y-106324761D01*
X151259523Y-106372380D01*
X151354761Y-106467619D01*
X151402380Y-106562857D01*
X151402380Y-106753333D01*
X151354761Y-106848571D01*
X151259523Y-106943809D01*
X151069047Y-106991428D01*
X150735714Y-106991428D01*
X150545238Y-106943809D01*
X150450000Y-106848571D01*
X150402380Y-106753333D01*
X150402380Y-105991428D02*
X150402380Y-105372380D01*
X150783333Y-105705714D01*
X150783333Y-105562857D01*
X150830952Y-105467619D01*
X150878571Y-105420000D01*
X150973809Y-105372380D01*
X151211904Y-105372380D01*
X151307142Y-105420000D01*
X151354761Y-105467619D01*
X151402380Y-105562857D01*
X151402380Y-105848571D01*
X151354761Y-105943809D01*
X151307142Y-105991428D01*
D11*
X170252380Y-101372380D02*
X169585714Y-101372380D01*
X169776190Y-101372380D02*
X169680952Y-101324761D01*
X169633333Y-101277142D01*
X169585714Y-101181904D01*
X169585714Y-101086666D01*
X170204761Y-100372380D02*
X170252380Y-100467619D01*
X170252380Y-100658095D01*
X170204761Y-100753333D01*
X170109523Y-100800952D01*
X169728571Y-100800952D01*
X169633333Y-100753333D01*
X169585714Y-100658095D01*
X169585714Y-100467619D01*
X169633333Y-100372380D01*
X169728571Y-100324761D01*
X169823809Y-100324761D01*
X169919047Y-100800952D01*
X169585714Y-99991428D02*
X170252380Y-99753333D01*
X169585714Y-99515238D01*
X169347619Y-98420000D02*
X169300000Y-98372380D01*
X169252380Y-98277142D01*
X169252380Y-98039047D01*
X169300000Y-97943809D01*
X169347619Y-97896190D01*
X169442857Y-97848571D01*
X169538095Y-97848571D01*
X169680952Y-97896190D01*
X170252380Y-98467619D01*
X170252380Y-97848571D01*
X170157142Y-97420000D02*
X170204761Y-97372380D01*
X170252380Y-97420000D01*
X170204761Y-97467619D01*
X170157142Y-97420000D01*
X170252380Y-97420000D01*
X169252380Y-96753333D02*
X169252380Y-96658095D01*
X169300000Y-96562857D01*
X169347619Y-96515238D01*
X169442857Y-96467619D01*
X169633333Y-96420000D01*
X169871428Y-96420000D01*
X170061904Y-96467619D01*
X170157142Y-96515238D01*
X170204761Y-96562857D01*
X170252380Y-96658095D01*
X170252380Y-96753333D01*
X170204761Y-96848571D01*
X170157142Y-96896190D01*
X170061904Y-96943809D01*
X169871428Y-96991428D01*
X169633333Y-96991428D01*
X169442857Y-96943809D01*
X169347619Y-96896190D01*
X169300000Y-96848571D01*
X169252380Y-96753333D01*
D10*
X143702380Y-107420000D02*
X142702380Y-107420000D01*
X142702380Y-106753333D02*
X142702380Y-106562857D01*
X142750000Y-106467619D01*
X142845238Y-106372380D01*
X143035714Y-106324761D01*
X143369047Y-106324761D01*
X143559523Y-106372380D01*
X143654761Y-106467619D01*
X143702380Y-106562857D01*
X143702380Y-106753333D01*
X143654761Y-106848571D01*
X143559523Y-106943809D01*
X143369047Y-106991428D01*
X143035714Y-106991428D01*
X142845238Y-106943809D01*
X142750000Y-106848571D01*
X142702380Y-106753333D01*
X142702380Y-105467619D02*
X142702380Y-105658095D01*
X142750000Y-105753333D01*
X142797619Y-105800952D01*
X142940476Y-105896190D01*
X143130952Y-105943809D01*
X143511904Y-105943809D01*
X143607142Y-105896190D01*
X143654761Y-105848571D01*
X143702380Y-105753333D01*
X143702380Y-105562857D01*
X143654761Y-105467619D01*
X143607142Y-105420000D01*
X143511904Y-105372380D01*
X143273809Y-105372380D01*
X143178571Y-105420000D01*
X143130952Y-105467619D01*
X143083333Y-105562857D01*
X143083333Y-105753333D01*
X143130952Y-105848571D01*
X143178571Y-105896190D01*
X143273809Y-105943809D01*
X169519523Y-129122380D02*
X169186190Y-128646190D01*
X168948095Y-129122380D02*
X168948095Y-128122380D01*
X169329047Y-128122380D01*
X169424285Y-128170000D01*
X169471904Y-128217619D01*
X169519523Y-128312857D01*
X169519523Y-128455714D01*
X169471904Y-128550952D01*
X169424285Y-128598571D01*
X169329047Y-128646190D01*
X168948095Y-128646190D01*
X162648095Y-128220000D02*
X162552857Y-128172380D01*
X162410000Y-128172380D01*
X162267142Y-128220000D01*
X162171904Y-128315238D01*
X162124285Y-128410476D01*
X162076666Y-128600952D01*
X162076666Y-128743809D01*
X162124285Y-128934285D01*
X162171904Y-129029523D01*
X162267142Y-129124761D01*
X162410000Y-129172380D01*
X162505238Y-129172380D01*
X162648095Y-129124761D01*
X162695714Y-129077142D01*
X162695714Y-128743809D01*
X162505238Y-128743809D01*
X163124285Y-129172380D02*
X163124285Y-128172380D01*
X163695714Y-129172380D01*
X163695714Y-128172380D01*
X164171904Y-129172380D02*
X164171904Y-128172380D01*
X164410000Y-128172380D01*
X164552857Y-128220000D01*
X164648095Y-128315238D01*
X164695714Y-128410476D01*
X164743333Y-128600952D01*
X164743333Y-128743809D01*
X164695714Y-128934285D01*
X164648095Y-129029523D01*
X164552857Y-129124761D01*
X164410000Y-129172380D01*
X164171904Y-129172380D01*
X166395714Y-129122380D02*
X166062380Y-128646190D01*
X165824285Y-129122380D02*
X165824285Y-128122380D01*
X166205238Y-128122380D01*
X166300476Y-128170000D01*
X166348095Y-128217619D01*
X166395714Y-128312857D01*
X166395714Y-128455714D01*
X166348095Y-128550952D01*
X166300476Y-128598571D01*
X166205238Y-128646190D01*
X165824285Y-128646190D01*
X167014761Y-128122380D02*
X167205238Y-128122380D01*
X167300476Y-128170000D01*
X167395714Y-128265238D01*
X167443333Y-128455714D01*
X167443333Y-128789047D01*
X167395714Y-128979523D01*
X167300476Y-129074761D01*
X167205238Y-129122380D01*
X167014761Y-129122380D01*
X166919523Y-129074761D01*
X166824285Y-128979523D01*
X166776666Y-128789047D01*
X166776666Y-128455714D01*
X166824285Y-128265238D01*
X166919523Y-128170000D01*
X167014761Y-128122380D01*
X117067142Y-65050952D02*
X117114761Y-65098571D01*
X117162380Y-65241428D01*
X117162380Y-65336666D01*
X117114761Y-65479523D01*
X117019523Y-65574761D01*
X116924285Y-65622380D01*
X116733809Y-65670000D01*
X116590952Y-65670000D01*
X116400476Y-65622380D01*
X116305238Y-65574761D01*
X116210000Y-65479523D01*
X116162380Y-65336666D01*
X116162380Y-65241428D01*
X116210000Y-65098571D01*
X116257619Y-65050952D01*
X117162380Y-64146190D02*
X117162380Y-64622380D01*
X116162380Y-64622380D01*
X116162380Y-63622380D02*
X116162380Y-63431904D01*
X116210000Y-63336666D01*
X116305238Y-63241428D01*
X116495714Y-63193809D01*
X116829047Y-63193809D01*
X117019523Y-63241428D01*
X117114761Y-63336666D01*
X117162380Y-63431904D01*
X117162380Y-63622380D01*
X117114761Y-63717619D01*
X117019523Y-63812857D01*
X116829047Y-63860476D01*
X116495714Y-63860476D01*
X116305238Y-63812857D01*
X116210000Y-63717619D01*
X116162380Y-63622380D01*
X117114761Y-62812857D02*
X117162380Y-62670000D01*
X117162380Y-62431904D01*
X117114761Y-62336666D01*
X117067142Y-62289047D01*
X116971904Y-62241428D01*
X116876666Y-62241428D01*
X116781428Y-62289047D01*
X116733809Y-62336666D01*
X116686190Y-62431904D01*
X116638571Y-62622380D01*
X116590952Y-62717619D01*
X116543333Y-62765238D01*
X116448095Y-62812857D01*
X116352857Y-62812857D01*
X116257619Y-62765238D01*
X116210000Y-62717619D01*
X116162380Y-62622380D01*
X116162380Y-62384285D01*
X116210000Y-62241428D01*
X116638571Y-61812857D02*
X116638571Y-61479523D01*
X117162380Y-61336666D02*
X117162380Y-61812857D01*
X116162380Y-61812857D01*
X116162380Y-61336666D01*
X117162380Y-60908095D02*
X116162380Y-60908095D01*
X116162380Y-60670000D01*
X116210000Y-60527142D01*
X116305238Y-60431904D01*
X116400476Y-60384285D01*
X116590952Y-60336666D01*
X116733809Y-60336666D01*
X116924285Y-60384285D01*
X117019523Y-60431904D01*
X117114761Y-60527142D01*
X117162380Y-60670000D01*
X117162380Y-60908095D01*
X117067142Y-59908095D02*
X117114761Y-59860476D01*
X117162380Y-59908095D01*
X117114761Y-59955714D01*
X117067142Y-59908095D01*
X117162380Y-59908095D01*
X116543333Y-59908095D02*
X116590952Y-59860476D01*
X116638571Y-59908095D01*
X116590952Y-59955714D01*
X116543333Y-59908095D01*
X116638571Y-59908095D01*
X117162380Y-58670000D02*
X116162380Y-58670000D01*
X117162380Y-58098571D02*
X116590952Y-58527142D01*
X116162380Y-58098571D02*
X116733809Y-58670000D01*
X117162380Y-57527142D02*
X117114761Y-57622380D01*
X117067142Y-57670000D01*
X116971904Y-57717619D01*
X116686190Y-57717619D01*
X116590952Y-57670000D01*
X116543333Y-57622380D01*
X116495714Y-57527142D01*
X116495714Y-57384285D01*
X116543333Y-57289047D01*
X116590952Y-57241428D01*
X116686190Y-57193809D01*
X116971904Y-57193809D01*
X117067142Y-57241428D01*
X117114761Y-57289047D01*
X117162380Y-57384285D01*
X117162380Y-57527142D01*
X117162380Y-56765238D02*
X116495714Y-56765238D01*
X116590952Y-56765238D02*
X116543333Y-56717619D01*
X116495714Y-56622380D01*
X116495714Y-56479523D01*
X116543333Y-56384285D01*
X116638571Y-56336666D01*
X117162380Y-56336666D01*
X116638571Y-56336666D02*
X116543333Y-56289047D01*
X116495714Y-56193809D01*
X116495714Y-56050952D01*
X116543333Y-55955714D01*
X116638571Y-55908095D01*
X117162380Y-55908095D01*
X116495714Y-55431904D02*
X117495714Y-55431904D01*
X116543333Y-55431904D02*
X116495714Y-55336666D01*
X116495714Y-55146190D01*
X116543333Y-55050952D01*
X116590952Y-55003333D01*
X116686190Y-54955714D01*
X116971904Y-54955714D01*
X117067142Y-55003333D01*
X117114761Y-55050952D01*
X117162380Y-55146190D01*
X117162380Y-55336666D01*
X117114761Y-55431904D01*
X117162380Y-54098571D02*
X116638571Y-54098571D01*
X116543333Y-54146190D01*
X116495714Y-54241428D01*
X116495714Y-54431904D01*
X116543333Y-54527142D01*
X117114761Y-54098571D02*
X117162380Y-54193809D01*
X117162380Y-54431904D01*
X117114761Y-54527142D01*
X117019523Y-54574761D01*
X116924285Y-54574761D01*
X116829047Y-54527142D01*
X116781428Y-54431904D01*
X116781428Y-54193809D01*
X116733809Y-54098571D01*
X117162380Y-53622380D02*
X116162380Y-53622380D01*
X116781428Y-53527142D02*
X117162380Y-53241428D01*
X116495714Y-53241428D02*
X116876666Y-53622380D01*
X116495714Y-52955714D02*
X116495714Y-52574761D01*
X116162380Y-52812857D02*
X117019523Y-52812857D01*
X117114761Y-52765238D01*
X117162380Y-52670000D01*
X117162380Y-52574761D01*
D11*
X168452380Y-109500000D02*
X167452380Y-109500000D01*
X167833333Y-109500000D02*
X167785714Y-109404761D01*
X167785714Y-109214285D01*
X167833333Y-109119047D01*
X167880952Y-109071428D01*
X167976190Y-109023809D01*
X168261904Y-109023809D01*
X168357142Y-109071428D01*
X168404761Y-109119047D01*
X168452380Y-109214285D01*
X168452380Y-109404761D01*
X168404761Y-109500000D01*
X167785714Y-108690476D02*
X168452380Y-108452380D01*
X167785714Y-108214285D02*
X168452380Y-108452380D01*
X168690476Y-108547619D01*
X168738095Y-108595238D01*
X168785714Y-108690476D01*
X167785714Y-107166666D02*
X167785714Y-106642857D01*
X168452380Y-107166666D01*
X168452380Y-106642857D01*
X167452380Y-106071428D02*
X167452380Y-105976190D01*
X167500000Y-105880952D01*
X167547619Y-105833333D01*
X167642857Y-105785714D01*
X167833333Y-105738095D01*
X168071428Y-105738095D01*
X168261904Y-105785714D01*
X168357142Y-105833333D01*
X168404761Y-105880952D01*
X168452380Y-105976190D01*
X168452380Y-106071428D01*
X168404761Y-106166666D01*
X168357142Y-106214285D01*
X168261904Y-106261904D01*
X168071428Y-106309523D01*
X167833333Y-106309523D01*
X167642857Y-106261904D01*
X167547619Y-106214285D01*
X167500000Y-106166666D01*
X167452380Y-106071428D01*
X167452380Y-105119047D02*
X167452380Y-105023809D01*
X167500000Y-104928571D01*
X167547619Y-104880952D01*
X167642857Y-104833333D01*
X167833333Y-104785714D01*
X168071428Y-104785714D01*
X168261904Y-104833333D01*
X168357142Y-104880952D01*
X168404761Y-104928571D01*
X168452380Y-105023809D01*
X168452380Y-105119047D01*
X168404761Y-105214285D01*
X168357142Y-105261904D01*
X168261904Y-105309523D01*
X168071428Y-105357142D01*
X167833333Y-105357142D01*
X167642857Y-105309523D01*
X167547619Y-105261904D01*
X167500000Y-105214285D01*
X167452380Y-105119047D01*
X168452380Y-104357142D02*
X167785714Y-104357142D01*
X167880952Y-104357142D02*
X167833333Y-104309523D01*
X167785714Y-104214285D01*
X167785714Y-104071428D01*
X167833333Y-103976190D01*
X167928571Y-103928571D01*
X168452380Y-103928571D01*
X167928571Y-103928571D02*
X167833333Y-103880952D01*
X167785714Y-103785714D01*
X167785714Y-103642857D01*
X167833333Y-103547619D01*
X167928571Y-103500000D01*
X168452380Y-103500000D01*
X167404761Y-102309523D02*
X168690476Y-103166666D01*
X168404761Y-102023809D02*
X168452380Y-101880952D01*
X168452380Y-101642857D01*
X168404761Y-101547619D01*
X168357142Y-101500000D01*
X168261904Y-101452380D01*
X168166666Y-101452380D01*
X168071428Y-101500000D01*
X168023809Y-101547619D01*
X167976190Y-101642857D01*
X167928571Y-101833333D01*
X167880952Y-101928571D01*
X167833333Y-101976190D01*
X167738095Y-102023809D01*
X167642857Y-102023809D01*
X167547619Y-101976190D01*
X167500000Y-101928571D01*
X167452380Y-101833333D01*
X167452380Y-101595238D01*
X167500000Y-101452380D01*
X168452380Y-101023809D02*
X167785714Y-101023809D01*
X167452380Y-101023809D02*
X167500000Y-101071428D01*
X167547619Y-101023809D01*
X167500000Y-100976190D01*
X167452380Y-101023809D01*
X167547619Y-101023809D01*
X167785714Y-100547619D02*
X168452380Y-100547619D01*
X167880952Y-100547619D02*
X167833333Y-100500000D01*
X167785714Y-100404761D01*
X167785714Y-100261904D01*
X167833333Y-100166666D01*
X167928571Y-100119047D01*
X168452380Y-100119047D01*
X168452380Y-99642857D02*
X167452380Y-99642857D01*
X167452380Y-99404761D01*
X167500000Y-99261904D01*
X167595238Y-99166666D01*
X167690476Y-99119047D01*
X167880952Y-99071428D01*
X168023809Y-99071428D01*
X168214285Y-99119047D01*
X168309523Y-99166666D01*
X168404761Y-99261904D01*
X168452380Y-99404761D01*
X168452380Y-99642857D01*
X168452380Y-98642857D02*
X167785714Y-98642857D01*
X167452380Y-98642857D02*
X167500000Y-98690476D01*
X167547619Y-98642857D01*
X167500000Y-98595238D01*
X167452380Y-98642857D01*
X167547619Y-98642857D01*
X168452380Y-98166666D02*
X167452380Y-98166666D01*
X168452380Y-97595238D02*
X167880952Y-98023809D01*
X167452380Y-97595238D02*
X168023809Y-98166666D01*
X168166666Y-97214285D02*
X168166666Y-96738095D01*
X168452380Y-97309523D02*
X167452380Y-96976190D01*
X168452380Y-96642857D01*
X167452380Y-96452380D02*
X167452380Y-95880952D01*
X168452380Y-96166666D02*
X167452380Y-96166666D01*
X167452380Y-94595238D02*
X167452380Y-94500000D01*
X167500000Y-94404761D01*
X167547619Y-94357142D01*
X167642857Y-94309523D01*
X167833333Y-94261904D01*
X168071428Y-94261904D01*
X168261904Y-94309523D01*
X168357142Y-94357142D01*
X168404761Y-94404761D01*
X168452380Y-94500000D01*
X168452380Y-94595238D01*
X168404761Y-94690476D01*
X168357142Y-94738095D01*
X168261904Y-94785714D01*
X168071428Y-94833333D01*
X167833333Y-94833333D01*
X167642857Y-94785714D01*
X167547619Y-94738095D01*
X167500000Y-94690476D01*
X167452380Y-94595238D01*
X167452380Y-93928571D02*
X167452380Y-93309523D01*
X167833333Y-93642857D01*
X167833333Y-93500000D01*
X167880952Y-93404761D01*
X167928571Y-93357142D01*
X168023809Y-93309523D01*
X168261904Y-93309523D01*
X168357142Y-93357142D01*
X168404761Y-93404761D01*
X168452380Y-93500000D01*
X168452380Y-93785714D01*
X168404761Y-93880952D01*
X168357142Y-93928571D01*
X167404761Y-92166666D02*
X168690476Y-93023809D01*
X167547619Y-91880952D02*
X167500000Y-91833333D01*
X167452380Y-91738095D01*
X167452380Y-91500000D01*
X167500000Y-91404761D01*
X167547619Y-91357142D01*
X167642857Y-91309523D01*
X167738095Y-91309523D01*
X167880952Y-91357142D01*
X168452380Y-91928571D01*
X168452380Y-91309523D01*
X167452380Y-90690476D02*
X167452380Y-90595238D01*
X167500000Y-90500000D01*
X167547619Y-90452380D01*
X167642857Y-90404761D01*
X167833333Y-90357142D01*
X168071428Y-90357142D01*
X168261904Y-90404761D01*
X168357142Y-90452380D01*
X168404761Y-90500000D01*
X168452380Y-90595238D01*
X168452380Y-90690476D01*
X168404761Y-90785714D01*
X168357142Y-90833333D01*
X168261904Y-90880952D01*
X168071428Y-90928571D01*
X167833333Y-90928571D01*
X167642857Y-90880952D01*
X167547619Y-90833333D01*
X167500000Y-90785714D01*
X167452380Y-90690476D01*
X167547619Y-89976190D02*
X167500000Y-89928571D01*
X167452380Y-89833333D01*
X167452380Y-89595238D01*
X167500000Y-89500000D01*
X167547619Y-89452380D01*
X167642857Y-89404761D01*
X167738095Y-89404761D01*
X167880952Y-89452380D01*
X168452380Y-90023809D01*
X168452380Y-89404761D01*
X167452380Y-88500000D02*
X167452380Y-88976190D01*
X167928571Y-89023809D01*
X167880952Y-88976190D01*
X167833333Y-88880952D01*
X167833333Y-88642857D01*
X167880952Y-88547619D01*
X167928571Y-88500000D01*
X168023809Y-88452380D01*
X168261904Y-88452380D01*
X168357142Y-88500000D01*
X168404761Y-88547619D01*
X168452380Y-88642857D01*
X168452380Y-88880952D01*
X168404761Y-88976190D01*
X168357142Y-89023809D01*
D10*
X141202380Y-107420000D02*
X140202380Y-107420000D01*
X140202380Y-106753333D02*
X140202380Y-106562857D01*
X140250000Y-106467619D01*
X140345238Y-106372380D01*
X140535714Y-106324761D01*
X140869047Y-106324761D01*
X141059523Y-106372380D01*
X141154761Y-106467619D01*
X141202380Y-106562857D01*
X141202380Y-106753333D01*
X141154761Y-106848571D01*
X141059523Y-106943809D01*
X140869047Y-106991428D01*
X140535714Y-106991428D01*
X140345238Y-106943809D01*
X140250000Y-106848571D01*
X140202380Y-106753333D01*
X140202380Y-105991428D02*
X140202380Y-105324761D01*
X141202380Y-105753333D01*
X158952380Y-107420000D02*
X157952380Y-107420000D01*
X157952380Y-106753333D02*
X157952380Y-106562857D01*
X158000000Y-106467619D01*
X158095238Y-106372380D01*
X158285714Y-106324761D01*
X158619047Y-106324761D01*
X158809523Y-106372380D01*
X158904761Y-106467619D01*
X158952380Y-106562857D01*
X158952380Y-106753333D01*
X158904761Y-106848571D01*
X158809523Y-106943809D01*
X158619047Y-106991428D01*
X158285714Y-106991428D01*
X158095238Y-106943809D01*
X158000000Y-106848571D01*
X157952380Y-106753333D01*
X157952380Y-105705714D02*
X157952380Y-105610476D01*
X158000000Y-105515238D01*
X158047619Y-105467619D01*
X158142857Y-105420000D01*
X158333333Y-105372380D01*
X158571428Y-105372380D01*
X158761904Y-105420000D01*
X158857142Y-105467619D01*
X158904761Y-105515238D01*
X158952380Y-105610476D01*
X158952380Y-105705714D01*
X158904761Y-105800952D01*
X158857142Y-105848571D01*
X158761904Y-105896190D01*
X158571428Y-105943809D01*
X158333333Y-105943809D01*
X158142857Y-105896190D01*
X158047619Y-105848571D01*
X158000000Y-105800952D01*
X157952380Y-105705714D01*
X135102380Y-107803333D02*
X136102380Y-107470000D01*
X135102380Y-107136666D01*
X136007142Y-106231904D02*
X136054761Y-106279523D01*
X136102380Y-106422380D01*
X136102380Y-106517619D01*
X136054761Y-106660476D01*
X135959523Y-106755714D01*
X135864285Y-106803333D01*
X135673809Y-106850952D01*
X135530952Y-106850952D01*
X135340476Y-106803333D01*
X135245238Y-106755714D01*
X135150000Y-106660476D01*
X135102380Y-106517619D01*
X135102380Y-106422380D01*
X135150000Y-106279523D01*
X135197619Y-106231904D01*
X136007142Y-105231904D02*
X136054761Y-105279523D01*
X136102380Y-105422380D01*
X136102380Y-105517619D01*
X136054761Y-105660476D01*
X135959523Y-105755714D01*
X135864285Y-105803333D01*
X135673809Y-105850952D01*
X135530952Y-105850952D01*
X135340476Y-105803333D01*
X135245238Y-105755714D01*
X135150000Y-105660476D01*
X135102380Y-105517619D01*
X135102380Y-105422380D01*
X135150000Y-105279523D01*
X135197619Y-105231904D01*
X117712380Y-65362857D02*
X117712380Y-65172380D01*
X117760000Y-65077142D01*
X117855238Y-64981904D01*
X118045714Y-64934285D01*
X118379047Y-64934285D01*
X118569523Y-64981904D01*
X118664761Y-65077142D01*
X118712380Y-65172380D01*
X118712380Y-65362857D01*
X118664761Y-65458095D01*
X118569523Y-65553333D01*
X118379047Y-65600952D01*
X118045714Y-65600952D01*
X117855238Y-65553333D01*
X117760000Y-65458095D01*
X117712380Y-65362857D01*
X118712380Y-64505714D02*
X117712380Y-64505714D01*
X117712380Y-64124761D01*
X117760000Y-64029523D01*
X117807619Y-63981904D01*
X117902857Y-63934285D01*
X118045714Y-63934285D01*
X118140952Y-63981904D01*
X118188571Y-64029523D01*
X118236190Y-64124761D01*
X118236190Y-64505714D01*
X118188571Y-63505714D02*
X118188571Y-63172380D01*
X118712380Y-63029523D02*
X118712380Y-63505714D01*
X117712380Y-63505714D01*
X117712380Y-63029523D01*
X118712380Y-62600952D02*
X117712380Y-62600952D01*
X118712380Y-62029523D01*
X117712380Y-62029523D01*
X118617142Y-61553333D02*
X118664761Y-61505714D01*
X118712380Y-61553333D01*
X118664761Y-61600952D01*
X118617142Y-61553333D01*
X118712380Y-61553333D01*
X118093333Y-61553333D02*
X118140952Y-61505714D01*
X118188571Y-61553333D01*
X118140952Y-61600952D01*
X118093333Y-61553333D01*
X118188571Y-61553333D01*
X118712380Y-59886666D02*
X118188571Y-59886666D01*
X118093333Y-59934285D01*
X118045714Y-60029523D01*
X118045714Y-60220000D01*
X118093333Y-60315238D01*
X118664761Y-59886666D02*
X118712380Y-59981904D01*
X118712380Y-60220000D01*
X118664761Y-60315238D01*
X118569523Y-60362857D01*
X118474285Y-60362857D01*
X118379047Y-60315238D01*
X118331428Y-60220000D01*
X118331428Y-59981904D01*
X118283809Y-59886666D01*
X118045714Y-59410476D02*
X118712380Y-59410476D01*
X118140952Y-59410476D02*
X118093333Y-59362857D01*
X118045714Y-59267619D01*
X118045714Y-59124761D01*
X118093333Y-59029523D01*
X118188571Y-58981904D01*
X118712380Y-58981904D01*
X118045714Y-58600952D02*
X118712380Y-58362857D01*
X118045714Y-58124761D02*
X118712380Y-58362857D01*
X118950476Y-58458095D01*
X118998095Y-58505714D01*
X119045714Y-58600952D01*
X118712380Y-56839047D02*
X118664761Y-56934285D01*
X118617142Y-56981904D01*
X118521904Y-57029523D01*
X118236190Y-57029523D01*
X118140952Y-56981904D01*
X118093333Y-56934285D01*
X118045714Y-56839047D01*
X118045714Y-56696190D01*
X118093333Y-56600952D01*
X118140952Y-56553333D01*
X118236190Y-56505714D01*
X118521904Y-56505714D01*
X118617142Y-56553333D01*
X118664761Y-56600952D01*
X118712380Y-56696190D01*
X118712380Y-56839047D01*
X118045714Y-56220000D02*
X118045714Y-55839047D01*
X117712380Y-56077142D02*
X118569523Y-56077142D01*
X118664761Y-56029523D01*
X118712380Y-55934285D01*
X118712380Y-55839047D01*
X118712380Y-55505714D02*
X117712380Y-55505714D01*
X118712380Y-55077142D02*
X118188571Y-55077142D01*
X118093333Y-55124761D01*
X118045714Y-55220000D01*
X118045714Y-55362857D01*
X118093333Y-55458095D01*
X118140952Y-55505714D01*
X118664761Y-54220000D02*
X118712380Y-54315238D01*
X118712380Y-54505714D01*
X118664761Y-54600952D01*
X118569523Y-54648571D01*
X118188571Y-54648571D01*
X118093333Y-54600952D01*
X118045714Y-54505714D01*
X118045714Y-54315238D01*
X118093333Y-54220000D01*
X118188571Y-54172380D01*
X118283809Y-54172380D01*
X118379047Y-54648571D01*
X118712380Y-53743809D02*
X118045714Y-53743809D01*
X118236190Y-53743809D02*
X118140952Y-53696190D01*
X118093333Y-53648571D01*
X118045714Y-53553333D01*
X118045714Y-53458095D01*
X118664761Y-51934285D02*
X118712380Y-52029523D01*
X118712380Y-52220000D01*
X118664761Y-52315238D01*
X118617142Y-52362857D01*
X118521904Y-52410476D01*
X118236190Y-52410476D01*
X118140952Y-52362857D01*
X118093333Y-52315238D01*
X118045714Y-52220000D01*
X118045714Y-52029523D01*
X118093333Y-51934285D01*
X118712380Y-51362857D02*
X118664761Y-51458095D01*
X118617142Y-51505714D01*
X118521904Y-51553333D01*
X118236190Y-51553333D01*
X118140952Y-51505714D01*
X118093333Y-51458095D01*
X118045714Y-51362857D01*
X118045714Y-51220000D01*
X118093333Y-51124761D01*
X118140952Y-51077142D01*
X118236190Y-51029523D01*
X118521904Y-51029523D01*
X118617142Y-51077142D01*
X118664761Y-51124761D01*
X118712380Y-51220000D01*
X118712380Y-51362857D01*
X118712380Y-50600952D02*
X118045714Y-50600952D01*
X118140952Y-50600952D02*
X118093333Y-50553333D01*
X118045714Y-50458095D01*
X118045714Y-50315238D01*
X118093333Y-50220000D01*
X118188571Y-50172380D01*
X118712380Y-50172380D01*
X118188571Y-50172380D02*
X118093333Y-50124761D01*
X118045714Y-50029523D01*
X118045714Y-49886666D01*
X118093333Y-49791428D01*
X118188571Y-49743809D01*
X118712380Y-49743809D01*
X118045714Y-49267619D02*
X119045714Y-49267619D01*
X118093333Y-49267619D02*
X118045714Y-49172380D01*
X118045714Y-48981904D01*
X118093333Y-48886666D01*
X118140952Y-48839047D01*
X118236190Y-48791428D01*
X118521904Y-48791428D01*
X118617142Y-48839047D01*
X118664761Y-48886666D01*
X118712380Y-48981904D01*
X118712380Y-49172380D01*
X118664761Y-49267619D01*
X118045714Y-47934285D02*
X118712380Y-47934285D01*
X118045714Y-48362857D02*
X118569523Y-48362857D01*
X118664761Y-48315238D01*
X118712380Y-48220000D01*
X118712380Y-48077142D01*
X118664761Y-47981904D01*
X118617142Y-47934285D01*
X118045714Y-47600952D02*
X118045714Y-47220000D01*
X117712380Y-47458095D02*
X118569523Y-47458095D01*
X118664761Y-47410476D01*
X118712380Y-47315238D01*
X118712380Y-47220000D01*
X118664761Y-46505714D02*
X118712380Y-46600952D01*
X118712380Y-46791428D01*
X118664761Y-46886666D01*
X118569523Y-46934285D01*
X118188571Y-46934285D01*
X118093333Y-46886666D01*
X118045714Y-46791428D01*
X118045714Y-46600952D01*
X118093333Y-46505714D01*
X118188571Y-46458095D01*
X118283809Y-46458095D01*
X118379047Y-46934285D01*
X118712380Y-46029523D02*
X118045714Y-46029523D01*
X118236190Y-46029523D02*
X118140952Y-45981904D01*
X118093333Y-45934285D01*
X118045714Y-45839047D01*
X118045714Y-45743809D01*
X137700000Y-107281904D02*
X137652380Y-107377142D01*
X137652380Y-107520000D01*
X137700000Y-107662857D01*
X137795238Y-107758095D01*
X137890476Y-107805714D01*
X138080952Y-107853333D01*
X138223809Y-107853333D01*
X138414285Y-107805714D01*
X138509523Y-107758095D01*
X138604761Y-107662857D01*
X138652380Y-107520000D01*
X138652380Y-107424761D01*
X138604761Y-107281904D01*
X138557142Y-107234285D01*
X138223809Y-107234285D01*
X138223809Y-107424761D01*
X138652380Y-106805714D02*
X137652380Y-106805714D01*
X138652380Y-106234285D01*
X137652380Y-106234285D01*
X138652380Y-105758095D02*
X137652380Y-105758095D01*
X137652380Y-105520000D01*
X137700000Y-105377142D01*
X137795238Y-105281904D01*
X137890476Y-105234285D01*
X138080952Y-105186666D01*
X138223809Y-105186666D01*
X138414285Y-105234285D01*
X138509523Y-105281904D01*
X138604761Y-105377142D01*
X138652380Y-105520000D01*
X138652380Y-105758095D01*
D12*
X166657142Y-109305714D02*
X163657142Y-109305714D01*
X165800000Y-108305714D01*
X163657142Y-107305714D01*
X166657142Y-107305714D01*
X166514285Y-104734285D02*
X166657142Y-105020000D01*
X166657142Y-105591428D01*
X166514285Y-105877142D01*
X166228571Y-106020000D01*
X165085714Y-106020000D01*
X164800000Y-105877142D01*
X164657142Y-105591428D01*
X164657142Y-105020000D01*
X164800000Y-104734285D01*
X165085714Y-104591428D01*
X165371428Y-104591428D01*
X165657142Y-106020000D01*
X166657142Y-102877142D02*
X166514285Y-103162857D01*
X166228571Y-103305714D01*
X163657142Y-103305714D01*
X166657142Y-101305714D02*
X166514285Y-101591428D01*
X166371428Y-101734285D01*
X166085714Y-101877142D01*
X165228571Y-101877142D01*
X164942857Y-101734285D01*
X164800000Y-101591428D01*
X164657142Y-101305714D01*
X164657142Y-100877142D01*
X164800000Y-100591428D01*
X164942857Y-100448571D01*
X165228571Y-100305714D01*
X166085714Y-100305714D01*
X166371428Y-100448571D01*
X166514285Y-100591428D01*
X166657142Y-100877142D01*
X166657142Y-101305714D01*
X166657142Y-97734285D02*
X163657142Y-97734285D01*
X166514285Y-97734285D02*
X166657142Y-98020000D01*
X166657142Y-98591428D01*
X166514285Y-98877142D01*
X166371428Y-99020000D01*
X166085714Y-99162857D01*
X165228571Y-99162857D01*
X164942857Y-99020000D01*
X164800000Y-98877142D01*
X164657142Y-98591428D01*
X164657142Y-98020000D01*
X164800000Y-97734285D01*
X166657142Y-96305714D02*
X164657142Y-96305714D01*
X163657142Y-96305714D02*
X163800000Y-96448571D01*
X163942857Y-96305714D01*
X163800000Y-96162857D01*
X163657142Y-96305714D01*
X163942857Y-96305714D01*
X166657142Y-94877142D02*
X163657142Y-94877142D01*
X165514285Y-94591428D02*
X166657142Y-93734285D01*
X164657142Y-93734285D02*
X165800000Y-94877142D01*
X163942857Y-90305714D02*
X163800000Y-90162857D01*
X163657142Y-89877142D01*
X163657142Y-89162857D01*
X163800000Y-88877142D01*
X163942857Y-88734285D01*
X164228571Y-88591428D01*
X164514285Y-88591428D01*
X164942857Y-88734285D01*
X166657142Y-90448571D01*
X166657142Y-88591428D01*
D10*
X174569523Y-129072380D02*
X174093333Y-129072380D01*
X174093333Y-128072380D01*
X139517142Y-46322380D02*
X139183809Y-45846190D01*
X138945714Y-46322380D02*
X138945714Y-45322380D01*
X139326666Y-45322380D01*
X139421904Y-45370000D01*
X139469523Y-45417619D01*
X139517142Y-45512857D01*
X139517142Y-45655714D01*
X139469523Y-45750952D01*
X139421904Y-45798571D01*
X139326666Y-45846190D01*
X138945714Y-45846190D01*
X140469523Y-46322380D02*
X139898095Y-46322380D01*
X140183809Y-46322380D02*
X140183809Y-45322380D01*
X140088571Y-45465238D01*
X139993333Y-45560476D01*
X139898095Y-45608095D01*
X140850476Y-45417619D02*
X140898095Y-45370000D01*
X140993333Y-45322380D01*
X141231428Y-45322380D01*
X141326666Y-45370000D01*
X141374285Y-45417619D01*
X141421904Y-45512857D01*
X141421904Y-45608095D01*
X141374285Y-45750952D01*
X140802857Y-46322380D01*
X141421904Y-46322380D01*
X120862380Y-121526666D02*
X120386190Y-121860000D01*
X120862380Y-122098095D02*
X119862380Y-122098095D01*
X119862380Y-121717142D01*
X119910000Y-121621904D01*
X119957619Y-121574285D01*
X120052857Y-121526666D01*
X120195714Y-121526666D01*
X120290952Y-121574285D01*
X120338571Y-121621904D01*
X120386190Y-121717142D01*
X120386190Y-122098095D01*
X119862380Y-121193333D02*
X119862380Y-120574285D01*
X120243333Y-120907619D01*
X120243333Y-120764761D01*
X120290952Y-120669523D01*
X120338571Y-120621904D01*
X120433809Y-120574285D01*
X120671904Y-120574285D01*
X120767142Y-120621904D01*
X120814761Y-120669523D01*
X120862380Y-120764761D01*
X120862380Y-121050476D01*
X120814761Y-121145714D01*
X120767142Y-121193333D01*
X156552380Y-59661904D02*
X157361904Y-59661904D01*
X157457142Y-59614285D01*
X157504761Y-59566666D01*
X157552380Y-59471428D01*
X157552380Y-59280952D01*
X157504761Y-59185714D01*
X157457142Y-59138095D01*
X157361904Y-59090476D01*
X156552380Y-59090476D01*
X156552380Y-58709523D02*
X156552380Y-58090476D01*
X156933333Y-58423809D01*
X156933333Y-58280952D01*
X156980952Y-58185714D01*
X157028571Y-58138095D01*
X157123809Y-58090476D01*
X157361904Y-58090476D01*
X157457142Y-58138095D01*
X157504761Y-58185714D01*
X157552380Y-58280952D01*
X157552380Y-58566666D01*
X157504761Y-58661904D01*
X157457142Y-58709523D01*
X121857142Y-90442857D02*
X121904761Y-90490476D01*
X121952380Y-90633333D01*
X121952380Y-90728571D01*
X121904761Y-90871428D01*
X121809523Y-90966666D01*
X121714285Y-91014285D01*
X121523809Y-91061904D01*
X121380952Y-91061904D01*
X121190476Y-91014285D01*
X121095238Y-90966666D01*
X121000000Y-90871428D01*
X120952380Y-90728571D01*
X120952380Y-90633333D01*
X121000000Y-90490476D01*
X121047619Y-90442857D01*
X121952380Y-89490476D02*
X121952380Y-90061904D01*
X121952380Y-89776190D02*
X120952380Y-89776190D01*
X121095238Y-89871428D01*
X121190476Y-89966666D01*
X121238095Y-90061904D01*
X120952380Y-88871428D02*
X120952380Y-88776190D01*
X121000000Y-88680952D01*
X121047619Y-88633333D01*
X121142857Y-88585714D01*
X121333333Y-88538095D01*
X121571428Y-88538095D01*
X121761904Y-88585714D01*
X121857142Y-88633333D01*
X121904761Y-88680952D01*
X121952380Y-88776190D01*
X121952380Y-88871428D01*
X121904761Y-88966666D01*
X121857142Y-89014285D01*
X121761904Y-89061904D01*
X121571428Y-89109523D01*
X121333333Y-89109523D01*
X121142857Y-89061904D01*
X121047619Y-89014285D01*
X121000000Y-88966666D01*
X120952380Y-88871428D01*
X125327380Y-72761904D02*
X126136904Y-72761904D01*
X126232142Y-72714285D01*
X126279761Y-72666666D01*
X126327380Y-72571428D01*
X126327380Y-72380952D01*
X126279761Y-72285714D01*
X126232142Y-72238095D01*
X126136904Y-72190476D01*
X125327380Y-72190476D01*
X125422619Y-71761904D02*
X125375000Y-71714285D01*
X125327380Y-71619047D01*
X125327380Y-71380952D01*
X125375000Y-71285714D01*
X125422619Y-71238095D01*
X125517857Y-71190476D01*
X125613095Y-71190476D01*
X125755952Y-71238095D01*
X126327380Y-71809523D01*
X126327380Y-71190476D01*
X159583333Y-78257142D02*
X159535714Y-78304761D01*
X159392857Y-78352380D01*
X159297619Y-78352380D01*
X159154761Y-78304761D01*
X159059523Y-78209523D01*
X159011904Y-78114285D01*
X158964285Y-77923809D01*
X158964285Y-77780952D01*
X159011904Y-77590476D01*
X159059523Y-77495238D01*
X159154761Y-77400000D01*
X159297619Y-77352380D01*
X159392857Y-77352380D01*
X159535714Y-77400000D01*
X159583333Y-77447619D01*
X160535714Y-78352380D02*
X159964285Y-78352380D01*
X160250000Y-78352380D02*
X160250000Y-77352380D01*
X160154761Y-77495238D01*
X160059523Y-77590476D01*
X159964285Y-77638095D01*
X150583333Y-76152380D02*
X150250000Y-75676190D01*
X150011904Y-76152380D02*
X150011904Y-75152380D01*
X150392857Y-75152380D01*
X150488095Y-75200000D01*
X150535714Y-75247619D01*
X150583333Y-75342857D01*
X150583333Y-75485714D01*
X150535714Y-75580952D01*
X150488095Y-75628571D01*
X150392857Y-75676190D01*
X150011904Y-75676190D01*
X151535714Y-76152380D02*
X150964285Y-76152380D01*
X151250000Y-76152380D02*
X151250000Y-75152380D01*
X151154761Y-75295238D01*
X151059523Y-75390476D01*
X150964285Y-75438095D01*
X133912380Y-121636666D02*
X133436190Y-121970000D01*
X133912380Y-122208095D02*
X132912380Y-122208095D01*
X132912380Y-121827142D01*
X132960000Y-121731904D01*
X133007619Y-121684285D01*
X133102857Y-121636666D01*
X133245714Y-121636666D01*
X133340952Y-121684285D01*
X133388571Y-121731904D01*
X133436190Y-121827142D01*
X133436190Y-122208095D01*
X132912380Y-121303333D02*
X132912380Y-120636666D01*
X133912380Y-121065238D01*
X124567142Y-59312857D02*
X124614761Y-59360476D01*
X124662380Y-59503333D01*
X124662380Y-59598571D01*
X124614761Y-59741428D01*
X124519523Y-59836666D01*
X124424285Y-59884285D01*
X124233809Y-59931904D01*
X124090952Y-59931904D01*
X123900476Y-59884285D01*
X123805238Y-59836666D01*
X123710000Y-59741428D01*
X123662380Y-59598571D01*
X123662380Y-59503333D01*
X123710000Y-59360476D01*
X123757619Y-59312857D01*
X124662380Y-58360476D02*
X124662380Y-58931904D01*
X124662380Y-58646190D02*
X123662380Y-58646190D01*
X123805238Y-58741428D01*
X123900476Y-58836666D01*
X123948095Y-58931904D01*
X123757619Y-57979523D02*
X123710000Y-57931904D01*
X123662380Y-57836666D01*
X123662380Y-57598571D01*
X123710000Y-57503333D01*
X123757619Y-57455714D01*
X123852857Y-57408095D01*
X123948095Y-57408095D01*
X124090952Y-57455714D01*
X124662380Y-58027142D01*
X124662380Y-57408095D01*
X124172380Y-121566666D02*
X123696190Y-121900000D01*
X124172380Y-122138095D02*
X123172380Y-122138095D01*
X123172380Y-121757142D01*
X123220000Y-121661904D01*
X123267619Y-121614285D01*
X123362857Y-121566666D01*
X123505714Y-121566666D01*
X123600952Y-121614285D01*
X123648571Y-121661904D01*
X123696190Y-121757142D01*
X123696190Y-122138095D01*
X123505714Y-120709523D02*
X124172380Y-120709523D01*
X123124761Y-120947619D02*
X123839047Y-121185714D01*
X123839047Y-120566666D01*
X137262380Y-121636666D02*
X136786190Y-121970000D01*
X137262380Y-122208095D02*
X136262380Y-122208095D01*
X136262380Y-121827142D01*
X136310000Y-121731904D01*
X136357619Y-121684285D01*
X136452857Y-121636666D01*
X136595714Y-121636666D01*
X136690952Y-121684285D01*
X136738571Y-121731904D01*
X136786190Y-121827142D01*
X136786190Y-122208095D01*
X136690952Y-121065238D02*
X136643333Y-121160476D01*
X136595714Y-121208095D01*
X136500476Y-121255714D01*
X136452857Y-121255714D01*
X136357619Y-121208095D01*
X136310000Y-121160476D01*
X136262380Y-121065238D01*
X136262380Y-120874761D01*
X136310000Y-120779523D01*
X136357619Y-120731904D01*
X136452857Y-120684285D01*
X136500476Y-120684285D01*
X136595714Y-120731904D01*
X136643333Y-120779523D01*
X136690952Y-120874761D01*
X136690952Y-121065238D01*
X136738571Y-121160476D01*
X136786190Y-121208095D01*
X136881428Y-121255714D01*
X137071904Y-121255714D01*
X137167142Y-121208095D01*
X137214761Y-121160476D01*
X137262380Y-121065238D01*
X137262380Y-120874761D01*
X137214761Y-120779523D01*
X137167142Y-120731904D01*
X137071904Y-120684285D01*
X136881428Y-120684285D01*
X136786190Y-120731904D01*
X136738571Y-120779523D01*
X136690952Y-120874761D01*
X161282380Y-104238095D02*
X160282380Y-104238095D01*
X160282380Y-103857142D01*
X160330000Y-103761904D01*
X160377619Y-103714285D01*
X160472857Y-103666666D01*
X160615714Y-103666666D01*
X160710952Y-103714285D01*
X160758571Y-103761904D01*
X160806190Y-103857142D01*
X160806190Y-104238095D01*
X160282380Y-103333333D02*
X160282380Y-102714285D01*
X160663333Y-103047619D01*
X160663333Y-102904761D01*
X160710952Y-102809523D01*
X160758571Y-102761904D01*
X160853809Y-102714285D01*
X161091904Y-102714285D01*
X161187142Y-102761904D01*
X161234761Y-102809523D01*
X161282380Y-102904761D01*
X161282380Y-103190476D01*
X161234761Y-103285714D01*
X161187142Y-103333333D01*
X160600476Y-80822380D02*
X161267142Y-81822380D01*
X161267142Y-80822380D02*
X160600476Y-81822380D01*
X162171904Y-81822380D02*
X161600476Y-81822380D01*
X161886190Y-81822380D02*
X161886190Y-80822380D01*
X161790952Y-80965238D01*
X161695714Y-81060476D01*
X161600476Y-81108095D01*
X168543333Y-76252380D02*
X168210000Y-75776190D01*
X167971904Y-76252380D02*
X167971904Y-75252380D01*
X168352857Y-75252380D01*
X168448095Y-75300000D01*
X168495714Y-75347619D01*
X168543333Y-75442857D01*
X168543333Y-75585714D01*
X168495714Y-75680952D01*
X168448095Y-75728571D01*
X168352857Y-75776190D01*
X167971904Y-75776190D01*
X168924285Y-75347619D02*
X168971904Y-75300000D01*
X169067142Y-75252380D01*
X169305238Y-75252380D01*
X169400476Y-75300000D01*
X169448095Y-75347619D01*
X169495714Y-75442857D01*
X169495714Y-75538095D01*
X169448095Y-75680952D01*
X168876666Y-76252380D01*
X169495714Y-76252380D01*
X130562380Y-121636666D02*
X130086190Y-121970000D01*
X130562380Y-122208095D02*
X129562380Y-122208095D01*
X129562380Y-121827142D01*
X129610000Y-121731904D01*
X129657619Y-121684285D01*
X129752857Y-121636666D01*
X129895714Y-121636666D01*
X129990952Y-121684285D01*
X130038571Y-121731904D01*
X130086190Y-121827142D01*
X130086190Y-122208095D01*
X129562380Y-120779523D02*
X129562380Y-120970000D01*
X129610000Y-121065238D01*
X129657619Y-121112857D01*
X129800476Y-121208095D01*
X129990952Y-121255714D01*
X130371904Y-121255714D01*
X130467142Y-121208095D01*
X130514761Y-121160476D01*
X130562380Y-121065238D01*
X130562380Y-120874761D01*
X130514761Y-120779523D01*
X130467142Y-120731904D01*
X130371904Y-120684285D01*
X130133809Y-120684285D01*
X130038571Y-120731904D01*
X129990952Y-120779523D01*
X129943333Y-120874761D01*
X129943333Y-121065238D01*
X129990952Y-121160476D01*
X130038571Y-121208095D01*
X130133809Y-121255714D01*
X128162380Y-59381904D02*
X128971904Y-59381904D01*
X129067142Y-59334285D01*
X129114761Y-59286666D01*
X129162380Y-59191428D01*
X129162380Y-59000952D01*
X129114761Y-58905714D01*
X129067142Y-58858095D01*
X128971904Y-58810476D01*
X128162380Y-58810476D01*
X128162380Y-57905714D02*
X128162380Y-58096190D01*
X128210000Y-58191428D01*
X128257619Y-58239047D01*
X128400476Y-58334285D01*
X128590952Y-58381904D01*
X128971904Y-58381904D01*
X129067142Y-58334285D01*
X129114761Y-58286666D01*
X129162380Y-58191428D01*
X129162380Y-58000952D01*
X129114761Y-57905714D01*
X129067142Y-57858095D01*
X128971904Y-57810476D01*
X128733809Y-57810476D01*
X128638571Y-57858095D01*
X128590952Y-57905714D01*
X128543333Y-58000952D01*
X128543333Y-58191428D01*
X128590952Y-58286666D01*
X128638571Y-58334285D01*
X128733809Y-58381904D01*
X164093333Y-46287142D02*
X164045714Y-46334761D01*
X163902857Y-46382380D01*
X163807619Y-46382380D01*
X163664761Y-46334761D01*
X163569523Y-46239523D01*
X163521904Y-46144285D01*
X163474285Y-45953809D01*
X163474285Y-45810952D01*
X163521904Y-45620476D01*
X163569523Y-45525238D01*
X163664761Y-45430000D01*
X163807619Y-45382380D01*
X163902857Y-45382380D01*
X164045714Y-45430000D01*
X164093333Y-45477619D01*
X164998095Y-45382380D02*
X164521904Y-45382380D01*
X164474285Y-45858571D01*
X164521904Y-45810952D01*
X164617142Y-45763333D01*
X164855238Y-45763333D01*
X164950476Y-45810952D01*
X164998095Y-45858571D01*
X165045714Y-45953809D01*
X165045714Y-46191904D01*
X164998095Y-46287142D01*
X164950476Y-46334761D01*
X164855238Y-46382380D01*
X164617142Y-46382380D01*
X164521904Y-46334761D01*
X164474285Y-46287142D01*
X175462380Y-50408095D02*
X174462380Y-50408095D01*
X174462380Y-50027142D01*
X174510000Y-49931904D01*
X174557619Y-49884285D01*
X174652857Y-49836666D01*
X174795714Y-49836666D01*
X174890952Y-49884285D01*
X174938571Y-49931904D01*
X174986190Y-50027142D01*
X174986190Y-50408095D01*
X174462380Y-48931904D02*
X174462380Y-49408095D01*
X174938571Y-49455714D01*
X174890952Y-49408095D01*
X174843333Y-49312857D01*
X174843333Y-49074761D01*
X174890952Y-48979523D01*
X174938571Y-48931904D01*
X175033809Y-48884285D01*
X175271904Y-48884285D01*
X175367142Y-48931904D01*
X175414761Y-48979523D01*
X175462380Y-49074761D01*
X175462380Y-49312857D01*
X175414761Y-49408095D01*
X175367142Y-49455714D01*
X140612380Y-121586666D02*
X140136190Y-121920000D01*
X140612380Y-122158095D02*
X139612380Y-122158095D01*
X139612380Y-121777142D01*
X139660000Y-121681904D01*
X139707619Y-121634285D01*
X139802857Y-121586666D01*
X139945714Y-121586666D01*
X140040952Y-121634285D01*
X140088571Y-121681904D01*
X140136190Y-121777142D01*
X140136190Y-122158095D01*
X140612380Y-121110476D02*
X140612380Y-120920000D01*
X140564761Y-120824761D01*
X140517142Y-120777142D01*
X140374285Y-120681904D01*
X140183809Y-120634285D01*
X139802857Y-120634285D01*
X139707619Y-120681904D01*
X139660000Y-120729523D01*
X139612380Y-120824761D01*
X139612380Y-121015238D01*
X139660000Y-121110476D01*
X139707619Y-121158095D01*
X139802857Y-121205714D01*
X140040952Y-121205714D01*
X140136190Y-121158095D01*
X140183809Y-121110476D01*
X140231428Y-121015238D01*
X140231428Y-120824761D01*
X140183809Y-120729523D01*
X140136190Y-120681904D01*
X140040952Y-120634285D01*
X152257142Y-69766666D02*
X152304761Y-69814285D01*
X152352380Y-69957142D01*
X152352380Y-70052380D01*
X152304761Y-70195238D01*
X152209523Y-70290476D01*
X152114285Y-70338095D01*
X151923809Y-70385714D01*
X151780952Y-70385714D01*
X151590476Y-70338095D01*
X151495238Y-70290476D01*
X151400000Y-70195238D01*
X151352380Y-70052380D01*
X151352380Y-69957142D01*
X151400000Y-69814285D01*
X151447619Y-69766666D01*
X151780952Y-69195238D02*
X151733333Y-69290476D01*
X151685714Y-69338095D01*
X151590476Y-69385714D01*
X151542857Y-69385714D01*
X151447619Y-69338095D01*
X151400000Y-69290476D01*
X151352380Y-69195238D01*
X151352380Y-69004761D01*
X151400000Y-68909523D01*
X151447619Y-68861904D01*
X151542857Y-68814285D01*
X151590476Y-68814285D01*
X151685714Y-68861904D01*
X151733333Y-68909523D01*
X151780952Y-69004761D01*
X151780952Y-69195238D01*
X151828571Y-69290476D01*
X151876190Y-69338095D01*
X151971428Y-69385714D01*
X152161904Y-69385714D01*
X152257142Y-69338095D01*
X152304761Y-69290476D01*
X152352380Y-69195238D01*
X152352380Y-69004761D01*
X152304761Y-68909523D01*
X152257142Y-68861904D01*
X152161904Y-68814285D01*
X151971428Y-68814285D01*
X151876190Y-68861904D01*
X151828571Y-68909523D01*
X151780952Y-69004761D01*
X170472380Y-121462857D02*
X169996190Y-121796190D01*
X170472380Y-122034285D02*
X169472380Y-122034285D01*
X169472380Y-121653333D01*
X169520000Y-121558095D01*
X169567619Y-121510476D01*
X169662857Y-121462857D01*
X169805714Y-121462857D01*
X169900952Y-121510476D01*
X169948571Y-121558095D01*
X169996190Y-121653333D01*
X169996190Y-122034285D01*
X170472380Y-120510476D02*
X170472380Y-121081904D01*
X170472380Y-120796190D02*
X169472380Y-120796190D01*
X169615238Y-120891428D01*
X169710476Y-120986666D01*
X169758095Y-121081904D01*
X170472380Y-119558095D02*
X170472380Y-120129523D01*
X170472380Y-119843809D02*
X169472380Y-119843809D01*
X169615238Y-119939047D01*
X169710476Y-120034285D01*
X169758095Y-120129523D01*
X122152380Y-102516666D02*
X122152380Y-102992857D01*
X121152380Y-102992857D01*
X122152380Y-101659523D02*
X122152380Y-102230952D01*
X122152380Y-101945238D02*
X121152380Y-101945238D01*
X121295238Y-102040476D01*
X121390476Y-102135714D01*
X121438095Y-102230952D01*
X121262380Y-47943095D02*
X120262380Y-47943095D01*
X120262380Y-47562142D01*
X120310000Y-47466904D01*
X120357619Y-47419285D01*
X120452857Y-47371666D01*
X120595714Y-47371666D01*
X120690952Y-47419285D01*
X120738571Y-47466904D01*
X120786190Y-47562142D01*
X120786190Y-47943095D01*
X120262380Y-46514523D02*
X120262380Y-46705000D01*
X120310000Y-46800238D01*
X120357619Y-46847857D01*
X120500476Y-46943095D01*
X120690952Y-46990714D01*
X121071904Y-46990714D01*
X121167142Y-46943095D01*
X121214761Y-46895476D01*
X121262380Y-46800238D01*
X121262380Y-46609761D01*
X121214761Y-46514523D01*
X121167142Y-46466904D01*
X121071904Y-46419285D01*
X120833809Y-46419285D01*
X120738571Y-46466904D01*
X120690952Y-46514523D01*
X120643333Y-46609761D01*
X120643333Y-46800238D01*
X120690952Y-46895476D01*
X120738571Y-46943095D01*
X120833809Y-46990714D01*
X156452380Y-70361904D02*
X157261904Y-70361904D01*
X157357142Y-70314285D01*
X157404761Y-70266666D01*
X157452380Y-70171428D01*
X157452380Y-69980952D01*
X157404761Y-69885714D01*
X157357142Y-69838095D01*
X157261904Y-69790476D01*
X156452380Y-69790476D01*
X156785714Y-68885714D02*
X157452380Y-68885714D01*
X156404761Y-69123809D02*
X157119047Y-69361904D01*
X157119047Y-68742857D01*
X175951904Y-126522380D02*
X175951904Y-125522380D01*
X176332857Y-125522380D01*
X176428095Y-125570000D01*
X176475714Y-125617619D01*
X176523333Y-125712857D01*
X176523333Y-125855714D01*
X176475714Y-125950952D01*
X176428095Y-125998571D01*
X176332857Y-126046190D01*
X175951904Y-126046190D01*
X177380476Y-125855714D02*
X177380476Y-126522380D01*
X177142380Y-125474761D02*
X176904285Y-126189047D01*
X177523333Y-126189047D01*
X127322380Y-121526666D02*
X126846190Y-121860000D01*
X127322380Y-122098095D02*
X126322380Y-122098095D01*
X126322380Y-121717142D01*
X126370000Y-121621904D01*
X126417619Y-121574285D01*
X126512857Y-121526666D01*
X126655714Y-121526666D01*
X126750952Y-121574285D01*
X126798571Y-121621904D01*
X126846190Y-121717142D01*
X126846190Y-122098095D01*
X126322380Y-120621904D02*
X126322380Y-121098095D01*
X126798571Y-121145714D01*
X126750952Y-121098095D01*
X126703333Y-121002857D01*
X126703333Y-120764761D01*
X126750952Y-120669523D01*
X126798571Y-120621904D01*
X126893809Y-120574285D01*
X127131904Y-120574285D01*
X127227142Y-120621904D01*
X127274761Y-120669523D01*
X127322380Y-120764761D01*
X127322380Y-121002857D01*
X127274761Y-121098095D01*
X127227142Y-121145714D01*
X143707142Y-125921566D02*
X143754761Y-125969185D01*
X143802380Y-126112042D01*
X143802380Y-126207280D01*
X143754761Y-126350138D01*
X143659523Y-126445376D01*
X143564285Y-126492995D01*
X143373809Y-126540614D01*
X143230952Y-126540614D01*
X143040476Y-126492995D01*
X142945238Y-126445376D01*
X142850000Y-126350138D01*
X142802380Y-126207280D01*
X142802380Y-126112042D01*
X142850000Y-125969185D01*
X142897619Y-125921566D01*
X142802380Y-125588233D02*
X142802380Y-124969185D01*
X143183333Y-125302519D01*
X143183333Y-125159661D01*
X143230952Y-125064423D01*
X143278571Y-125016804D01*
X143373809Y-124969185D01*
X143611904Y-124969185D01*
X143707142Y-125016804D01*
X143754761Y-125064423D01*
X143802380Y-125159661D01*
X143802380Y-125445376D01*
X143754761Y-125540614D01*
X143707142Y-125588233D01*
X125602380Y-90061904D02*
X126411904Y-90061904D01*
X126507142Y-90014285D01*
X126554761Y-89966666D01*
X126602380Y-89871428D01*
X126602380Y-89680952D01*
X126554761Y-89585714D01*
X126507142Y-89538095D01*
X126411904Y-89490476D01*
X125602380Y-89490476D01*
X126602380Y-88490476D02*
X126602380Y-89061904D01*
X126602380Y-88776190D02*
X125602380Y-88776190D01*
X125745238Y-88871428D01*
X125840476Y-88966666D01*
X125888095Y-89061904D01*
X145852380Y-64725238D02*
X145376190Y-65058571D01*
X145852380Y-65296666D02*
X144852380Y-65296666D01*
X144852380Y-64915714D01*
X144900000Y-64820476D01*
X144947619Y-64772857D01*
X145042857Y-64725238D01*
X145185714Y-64725238D01*
X145280952Y-64772857D01*
X145328571Y-64820476D01*
X145376190Y-64915714D01*
X145376190Y-65296666D01*
X144852380Y-64439523D02*
X145852380Y-64106190D01*
X144852380Y-63772857D01*
X145852380Y-62915714D02*
X145852380Y-63487142D01*
X145852380Y-63201428D02*
X144852380Y-63201428D01*
X144995238Y-63296666D01*
X145090476Y-63391904D01*
X145138095Y-63487142D01*
X129743333Y-48477142D02*
X129695714Y-48524761D01*
X129552857Y-48572380D01*
X129457619Y-48572380D01*
X129314761Y-48524761D01*
X129219523Y-48429523D01*
X129171904Y-48334285D01*
X129124285Y-48143809D01*
X129124285Y-48000952D01*
X129171904Y-47810476D01*
X129219523Y-47715238D01*
X129314761Y-47620000D01*
X129457619Y-47572380D01*
X129552857Y-47572380D01*
X129695714Y-47620000D01*
X129743333Y-47667619D01*
X130600476Y-47572380D02*
X130410000Y-47572380D01*
X130314761Y-47620000D01*
X130267142Y-47667619D01*
X130171904Y-47810476D01*
X130124285Y-48000952D01*
X130124285Y-48381904D01*
X130171904Y-48477142D01*
X130219523Y-48524761D01*
X130314761Y-48572380D01*
X130505238Y-48572380D01*
X130600476Y-48524761D01*
X130648095Y-48477142D01*
X130695714Y-48381904D01*
X130695714Y-48143809D01*
X130648095Y-48048571D01*
X130600476Y-48000952D01*
X130505238Y-47953333D01*
X130314761Y-47953333D01*
X130219523Y-48000952D01*
X130171904Y-48048571D01*
X130124285Y-48143809D01*
X173712380Y-121572857D02*
X173236190Y-121906190D01*
X173712380Y-122144285D02*
X172712380Y-122144285D01*
X172712380Y-121763333D01*
X172760000Y-121668095D01*
X172807619Y-121620476D01*
X172902857Y-121572857D01*
X173045714Y-121572857D01*
X173140952Y-121620476D01*
X173188571Y-121668095D01*
X173236190Y-121763333D01*
X173236190Y-122144285D01*
X173712380Y-120620476D02*
X173712380Y-121191904D01*
X173712380Y-120906190D02*
X172712380Y-120906190D01*
X172855238Y-121001428D01*
X172950476Y-121096666D01*
X172998095Y-121191904D01*
X172712380Y-120001428D02*
X172712380Y-119906190D01*
X172760000Y-119810952D01*
X172807619Y-119763333D01*
X172902857Y-119715714D01*
X173093333Y-119668095D01*
X173331428Y-119668095D01*
X173521904Y-119715714D01*
X173617142Y-119763333D01*
X173664761Y-119810952D01*
X173712380Y-119906190D01*
X173712380Y-120001428D01*
X173664761Y-120096666D01*
X173617142Y-120144285D01*
X173521904Y-120191904D01*
X173331428Y-120239523D01*
X173093333Y-120239523D01*
X172902857Y-120191904D01*
X172807619Y-120144285D01*
X172760000Y-120096666D01*
X172712380Y-120001428D01*
X121557142Y-72166666D02*
X121604761Y-72214285D01*
X121652380Y-72357142D01*
X121652380Y-72452380D01*
X121604761Y-72595238D01*
X121509523Y-72690476D01*
X121414285Y-72738095D01*
X121223809Y-72785714D01*
X121080952Y-72785714D01*
X120890476Y-72738095D01*
X120795238Y-72690476D01*
X120700000Y-72595238D01*
X120652380Y-72452380D01*
X120652380Y-72357142D01*
X120700000Y-72214285D01*
X120747619Y-72166666D01*
X121652380Y-71690476D02*
X121652380Y-71500000D01*
X121604761Y-71404761D01*
X121557142Y-71357142D01*
X121414285Y-71261904D01*
X121223809Y-71214285D01*
X120842857Y-71214285D01*
X120747619Y-71261904D01*
X120700000Y-71309523D01*
X120652380Y-71404761D01*
X120652380Y-71595238D01*
X120700000Y-71690476D01*
X120747619Y-71738095D01*
X120842857Y-71785714D01*
X121080952Y-71785714D01*
X121176190Y-71738095D01*
X121223809Y-71690476D01*
X121271428Y-71595238D01*
X121271428Y-71404761D01*
X121223809Y-71309523D01*
X121176190Y-71261904D01*
X121080952Y-71214285D01*
X145267142Y-117012857D02*
X145314761Y-117060476D01*
X145362380Y-117203333D01*
X145362380Y-117298571D01*
X145314761Y-117441428D01*
X145219523Y-117536666D01*
X145124285Y-117584285D01*
X144933809Y-117631904D01*
X144790952Y-117631904D01*
X144600476Y-117584285D01*
X144505238Y-117536666D01*
X144410000Y-117441428D01*
X144362380Y-117298571D01*
X144362380Y-117203333D01*
X144410000Y-117060476D01*
X144457619Y-117012857D01*
X145362380Y-116060476D02*
X145362380Y-116631904D01*
X145362380Y-116346190D02*
X144362380Y-116346190D01*
X144505238Y-116441428D01*
X144600476Y-116536666D01*
X144648095Y-116631904D01*
X145362380Y-115108095D02*
X145362380Y-115679523D01*
X145362380Y-115393809D02*
X144362380Y-115393809D01*
X144505238Y-115489047D01*
X144600476Y-115584285D01*
X144648095Y-115679523D01*
X152257142Y-59066666D02*
X152304761Y-59114285D01*
X152352380Y-59257142D01*
X152352380Y-59352380D01*
X152304761Y-59495238D01*
X152209523Y-59590476D01*
X152114285Y-59638095D01*
X151923809Y-59685714D01*
X151780952Y-59685714D01*
X151590476Y-59638095D01*
X151495238Y-59590476D01*
X151400000Y-59495238D01*
X151352380Y-59352380D01*
X151352380Y-59257142D01*
X151400000Y-59114285D01*
X151447619Y-59066666D01*
X151352380Y-58733333D02*
X151352380Y-58066666D01*
X152352380Y-58495238D01*
X148862380Y-117121904D02*
X149671904Y-117121904D01*
X149767142Y-117074285D01*
X149814761Y-117026666D01*
X149862380Y-116931428D01*
X149862380Y-116740952D01*
X149814761Y-116645714D01*
X149767142Y-116598095D01*
X149671904Y-116550476D01*
X148862380Y-116550476D01*
X148862380Y-115598095D02*
X148862380Y-116074285D01*
X149338571Y-116121904D01*
X149290952Y-116074285D01*
X149243333Y-115979047D01*
X149243333Y-115740952D01*
X149290952Y-115645714D01*
X149338571Y-115598095D01*
X149433809Y-115550476D01*
X149671904Y-115550476D01*
X149767142Y-115598095D01*
X149814761Y-115645714D01*
X149862380Y-115740952D01*
X149862380Y-115979047D01*
X149814761Y-116074285D01*
X149767142Y-116121904D01*
X140717142Y-59036666D02*
X140764761Y-59084285D01*
X140812380Y-59227142D01*
X140812380Y-59322380D01*
X140764761Y-59465238D01*
X140669523Y-59560476D01*
X140574285Y-59608095D01*
X140383809Y-59655714D01*
X140240952Y-59655714D01*
X140050476Y-59608095D01*
X139955238Y-59560476D01*
X139860000Y-59465238D01*
X139812380Y-59322380D01*
X139812380Y-59227142D01*
X139860000Y-59084285D01*
X139907619Y-59036666D01*
X140145714Y-58179523D02*
X140812380Y-58179523D01*
X139764761Y-58417619D02*
X140479047Y-58655714D01*
X140479047Y-58036666D01*
X123317142Y-108614810D02*
X123364761Y-108662429D01*
X123412380Y-108805286D01*
X123412380Y-108900524D01*
X123364761Y-109043381D01*
X123269523Y-109138619D01*
X123174285Y-109186238D01*
X122983809Y-109233857D01*
X122840952Y-109233857D01*
X122650476Y-109186238D01*
X122555238Y-109138619D01*
X122460000Y-109043381D01*
X122412380Y-108900524D01*
X122412380Y-108805286D01*
X122460000Y-108662429D01*
X122507619Y-108614810D01*
X123412380Y-107662429D02*
X123412380Y-108233857D01*
X123412380Y-107948143D02*
X122412380Y-107948143D01*
X122555238Y-108043381D01*
X122650476Y-108138619D01*
X122698095Y-108233857D01*
X122412380Y-107329095D02*
X122412380Y-106710048D01*
X122793333Y-107043381D01*
X122793333Y-106900524D01*
X122840952Y-106805286D01*
X122888571Y-106757667D01*
X122983809Y-106710048D01*
X123221904Y-106710048D01*
X123317142Y-106757667D01*
X123364761Y-106805286D01*
X123412380Y-106900524D01*
X123412380Y-107186238D01*
X123364761Y-107281476D01*
X123317142Y-107329095D01*
X138993333Y-54422380D02*
X138517142Y-54422380D01*
X138517142Y-53422380D01*
X139279047Y-53517619D02*
X139326666Y-53470000D01*
X139421904Y-53422380D01*
X139660000Y-53422380D01*
X139755238Y-53470000D01*
X139802857Y-53517619D01*
X139850476Y-53612857D01*
X139850476Y-53708095D01*
X139802857Y-53850952D01*
X139231428Y-54422380D01*
X139850476Y-54422380D01*
X132457142Y-125916466D02*
X132504761Y-125964085D01*
X132552380Y-126106942D01*
X132552380Y-126202180D01*
X132504761Y-126345038D01*
X132409523Y-126440276D01*
X132314285Y-126487895D01*
X132123809Y-126535514D01*
X131980952Y-126535514D01*
X131790476Y-126487895D01*
X131695238Y-126440276D01*
X131600000Y-126345038D01*
X131552380Y-126202180D01*
X131552380Y-126106942D01*
X131600000Y-125964085D01*
X131647619Y-125916466D01*
X131647619Y-125535514D02*
X131600000Y-125487895D01*
X131552380Y-125392657D01*
X131552380Y-125154561D01*
X131600000Y-125059323D01*
X131647619Y-125011704D01*
X131742857Y-124964085D01*
X131838095Y-124964085D01*
X131980952Y-125011704D01*
X132552380Y-125583133D01*
X132552380Y-124964085D01*
D13*
X136990000Y-46750000D02*
X136990000Y-47080000D01*
X143530000Y-47080000D02*
X143530000Y-46750000D01*
X143530000Y-46750000D02*
X136990000Y-46750000D01*
X143530000Y-49160000D02*
X143530000Y-49490000D01*
X136990000Y-49490000D02*
X136990000Y-49160000D01*
X143530000Y-49490000D02*
X136990000Y-49490000D01*
X121680000Y-118630000D02*
X121350000Y-118630000D01*
X121350000Y-112090000D02*
X121680000Y-112090000D01*
X118940000Y-118630000D02*
X119270000Y-118630000D01*
X121680000Y-112090000D02*
X121680000Y-118630000D01*
X118940000Y-112090000D02*
X118940000Y-118630000D01*
X119270000Y-112090000D02*
X118940000Y-112090000D01*
X172095000Y-56240000D02*
X154195000Y-56240000D01*
X154195000Y-59890000D02*
X154195000Y-61540000D01*
X154195000Y-61540000D02*
X172095000Y-61540000D01*
X154195000Y-56240000D02*
X154195000Y-57890000D01*
X172095000Y-61540000D02*
X172095000Y-56240000D01*
X154195000Y-59890000D02*
G75*
G03*
X154195000Y-57890000I0J1000000D01*
G01*
X122555000Y-87180000D02*
X122870000Y-87180000D01*
X120130000Y-92420000D02*
X120130000Y-87180000D01*
X120130000Y-92420000D02*
X120445000Y-92420000D01*
X122555000Y-92420000D02*
X122870000Y-92420000D01*
X122870000Y-92420000D02*
X122870000Y-87180000D01*
X120130000Y-87180000D02*
X120445000Y-87180000D01*
X143785000Y-74690000D02*
X143785000Y-69390000D01*
X123345000Y-74690000D02*
X143785000Y-74690000D01*
X143785000Y-69390000D02*
X123345000Y-69390000D01*
X123345000Y-69390000D02*
X123345000Y-71040000D01*
X123345000Y-73040000D02*
X123345000Y-74690000D01*
X123345000Y-73040000D02*
G75*
G03*
X123345000Y-71040000I0J1000000D01*
G01*
X157180000Y-76530000D02*
X157180000Y-76845000D01*
X157180000Y-79270000D02*
X162420000Y-79270000D01*
X162420000Y-78955000D02*
X162420000Y-79270000D01*
X162420000Y-76530000D02*
X162420000Y-76845000D01*
X157180000Y-78955000D02*
X157180000Y-79270000D01*
X157180000Y-76530000D02*
X162420000Y-76530000D01*
X147530000Y-76860000D02*
X147530000Y-76530000D01*
X147530000Y-76530000D02*
X154070000Y-76530000D01*
X154070000Y-79270000D02*
X154070000Y-78940000D01*
X154070000Y-76530000D02*
X154070000Y-76860000D01*
X147530000Y-78940000D02*
X147530000Y-79270000D01*
X147530000Y-79270000D02*
X154070000Y-79270000D01*
X134830000Y-112100000D02*
X134500000Y-112100000D01*
X132420000Y-118640000D02*
X132090000Y-118640000D01*
X132090000Y-118640000D02*
X132090000Y-112100000D01*
X134500000Y-118640000D02*
X134830000Y-118640000D01*
X132090000Y-112100000D02*
X132420000Y-112100000D01*
X134830000Y-118640000D02*
X134830000Y-112100000D01*
X125580000Y-61290000D02*
X125265000Y-61290000D01*
X123155000Y-61290000D02*
X122840000Y-61290000D01*
X125580000Y-56050000D02*
X125580000Y-61290000D01*
X125580000Y-56050000D02*
X125265000Y-56050000D01*
X122840000Y-56050000D02*
X122840000Y-61290000D01*
X123155000Y-56050000D02*
X122840000Y-56050000D01*
X124980000Y-118630000D02*
X124650000Y-118630000D01*
X122240000Y-118630000D02*
X122570000Y-118630000D01*
X122240000Y-112090000D02*
X122240000Y-118630000D01*
X124980000Y-112090000D02*
X124980000Y-118630000D01*
X124650000Y-112090000D02*
X124980000Y-112090000D01*
X122570000Y-112090000D02*
X122240000Y-112090000D01*
X135720000Y-112100000D02*
X135390000Y-112100000D01*
X137800000Y-112100000D02*
X138130000Y-112100000D01*
X138130000Y-112100000D02*
X138130000Y-118640000D01*
X135390000Y-118640000D02*
X135720000Y-118640000D01*
X138130000Y-118640000D02*
X137800000Y-118640000D01*
X135390000Y-112100000D02*
X135390000Y-118640000D01*
X134310000Y-102170000D02*
X134310000Y-104830000D01*
X158500000Y-102170000D02*
X159830000Y-102170000D01*
X157230000Y-102170000D02*
X157230000Y-104830000D01*
X157230000Y-102170000D02*
X134310000Y-102170000D01*
X159830000Y-102170000D02*
X159830000Y-103500000D01*
X157230000Y-104830000D02*
X134310000Y-104830000D01*
X164775000Y-85395000D02*
X171025000Y-85395000D01*
X164775000Y-80345000D02*
X171025000Y-80345000D01*
X164775000Y-80345000D02*
G75*
G03*
X164775000Y-85395000I0J-2525000D01*
G01*
X171025000Y-85395000D02*
G75*
G03*
X171025000Y-80345000I0J2525000D01*
G01*
X165440000Y-76860000D02*
X165440000Y-76530000D01*
X171980000Y-79270000D02*
X171980000Y-78940000D01*
X165440000Y-78940000D02*
X165440000Y-79270000D01*
X165440000Y-79270000D02*
X171980000Y-79270000D01*
X165440000Y-76530000D02*
X171980000Y-76530000D01*
X171980000Y-76530000D02*
X171980000Y-76860000D01*
X131530000Y-112100000D02*
X131530000Y-118640000D01*
X128790000Y-118640000D02*
X129120000Y-118640000D01*
X131530000Y-118640000D02*
X131200000Y-118640000D01*
X131200000Y-112100000D02*
X131530000Y-112100000D01*
X129120000Y-112100000D02*
X128790000Y-112100000D01*
X128790000Y-112100000D02*
X128790000Y-118640000D01*
X126430000Y-56060000D02*
X126430000Y-57710000D01*
X126430000Y-61360000D02*
X136710000Y-61360000D01*
X136710000Y-61360000D02*
X136710000Y-56060000D01*
X136710000Y-56060000D02*
X126430000Y-56060000D01*
X126430000Y-59710000D02*
X126430000Y-61360000D01*
X126430000Y-59710000D02*
G75*
G03*
X126430000Y-57710000I0J1000000D01*
G01*
X161745700Y-50310000D02*
X161745700Y-53091000D01*
X162745700Y-45990000D02*
X162745700Y-48230000D01*
X160624700Y-45202000D02*
X160624700Y-53338000D01*
X164185700Y-47924000D02*
X164185700Y-50616000D01*
X162705700Y-50310000D02*
X162705700Y-52579000D01*
X161185700Y-45285000D02*
X161185700Y-48230000D01*
X162465700Y-50310000D02*
X162465700Y-52739000D01*
X164345700Y-48502000D02*
X164345700Y-50038000D01*
X161025700Y-45253000D02*
X161025700Y-53287000D01*
X160304700Y-45190000D02*
X160304700Y-53350000D01*
X161705700Y-50310000D02*
X161705700Y-53105000D01*
X163425700Y-46619000D02*
X163425700Y-51921000D01*
X162905700Y-50310000D02*
X162905700Y-52426000D01*
X162985700Y-46180000D02*
X162985700Y-48230000D01*
X161985700Y-50310000D02*
X161985700Y-52992000D01*
X161545700Y-50310000D02*
X161545700Y-53159000D01*
X160864700Y-45228000D02*
X160864700Y-53312000D01*
X156295002Y-46555000D02*
X156295002Y-47355000D01*
X162385700Y-45753000D02*
X162385700Y-48230000D01*
X163985700Y-47457000D02*
X163985700Y-51083000D01*
X163105700Y-46287000D02*
X163105700Y-48230000D01*
X160904700Y-45233000D02*
X160904700Y-53307000D01*
X162385700Y-50310000D02*
X162385700Y-52787000D01*
X160824700Y-45222000D02*
X160824700Y-53318000D01*
X161785700Y-50310000D02*
X161785700Y-53075000D01*
X162305700Y-50310000D02*
X162305700Y-52832000D01*
X162185700Y-45643000D02*
X162185700Y-48230000D01*
X161545700Y-45381000D02*
X161545700Y-48230000D01*
X160744700Y-45213000D02*
X160744700Y-53327000D01*
X163825700Y-47168000D02*
X163825700Y-51372000D01*
X160704700Y-45209000D02*
X160704700Y-53331000D01*
X163105700Y-50310000D02*
X163105700Y-52253000D01*
X164145700Y-47817000D02*
X164145700Y-50723000D01*
X163025700Y-46215000D02*
X163025700Y-48230000D01*
X160464700Y-45193000D02*
X160464700Y-53347000D01*
X161505700Y-50310000D02*
X161505700Y-53172000D01*
X164385700Y-48737000D02*
X164385700Y-49803000D01*
X162545700Y-50310000D02*
X162545700Y-52688000D01*
X162905700Y-46114000D02*
X162905700Y-48230000D01*
X162225700Y-45664000D02*
X162225700Y-48230000D01*
X162745700Y-50310000D02*
X162745700Y-52550000D01*
X162345700Y-50310000D02*
X162345700Y-52810000D01*
X161465700Y-45356000D02*
X161465700Y-48230000D01*
X161385700Y-50310000D02*
X161385700Y-53206000D01*
X160344700Y-45190000D02*
X160344700Y-53350000D01*
X163185700Y-50310000D02*
X163185700Y-52177000D01*
X162825700Y-46050000D02*
X162825700Y-48230000D01*
X160544700Y-45196000D02*
X160544700Y-53344000D01*
X161905700Y-45513000D02*
X161905700Y-48230000D01*
X161265700Y-45303000D02*
X161265700Y-48230000D01*
X163345700Y-46529000D02*
X163345700Y-52011000D01*
X162625700Y-45905000D02*
X162625700Y-48230000D01*
X160984700Y-45246000D02*
X160984700Y-53294000D01*
X161665700Y-45420000D02*
X161665700Y-48230000D01*
X161905700Y-50310000D02*
X161905700Y-53027000D01*
X162505700Y-50310000D02*
X162505700Y-52714000D01*
X155895002Y-46955000D02*
X156695002Y-46955000D01*
X161305700Y-50310000D02*
X161305700Y-53227000D01*
X162025700Y-50310000D02*
X162025700Y-52974000D01*
X161185700Y-50310000D02*
X161185700Y-53255000D01*
X161625700Y-50310000D02*
X161625700Y-53133000D01*
X161505700Y-45368000D02*
X161505700Y-48230000D01*
X162105700Y-50310000D02*
X162105700Y-52936000D01*
X162065700Y-50310000D02*
X162065700Y-52956000D01*
X163545700Y-46765000D02*
X163545700Y-51775000D01*
X161665700Y-50310000D02*
X161665700Y-53120000D01*
X164225700Y-48041000D02*
X164225700Y-50499000D01*
X162945700Y-50310000D02*
X162945700Y-52394000D01*
X163465700Y-46666000D02*
X163465700Y-51874000D01*
X163785700Y-47104000D02*
X163785700Y-51436000D01*
X161945700Y-50310000D02*
X161945700Y-53010000D01*
X160384700Y-45190000D02*
X160384700Y-53350000D01*
X161345700Y-50310000D02*
X161345700Y-53217000D01*
X162625700Y-50310000D02*
X162625700Y-52635000D01*
X162865700Y-50310000D02*
X162865700Y-52459000D01*
X162585700Y-45878000D02*
X162585700Y-48230000D01*
X160504700Y-45194000D02*
X160504700Y-53346000D01*
X161705700Y-45435000D02*
X161705700Y-48230000D01*
X162665700Y-45932000D02*
X162665700Y-48230000D01*
X161825700Y-45480000D02*
X161825700Y-48230000D01*
X162825700Y-50310000D02*
X162825700Y-52490000D01*
X162145700Y-50310000D02*
X162145700Y-52917000D01*
X162345700Y-45730000D02*
X162345700Y-48230000D01*
X162785700Y-46020000D02*
X162785700Y-48230000D01*
X164025700Y-47539000D02*
X164025700Y-51001000D01*
X161385700Y-45334000D02*
X161385700Y-48230000D01*
X163865700Y-47236000D02*
X163865700Y-51304000D01*
X163225700Y-50310000D02*
X163225700Y-52137000D01*
X164105700Y-47718000D02*
X164105700Y-50822000D01*
X162185700Y-50310000D02*
X162185700Y-52897000D01*
X163185700Y-46363000D02*
X163185700Y-48230000D01*
X161585700Y-50310000D02*
X161585700Y-53147000D01*
X162785700Y-50310000D02*
X162785700Y-52520000D01*
X163585700Y-46816000D02*
X163585700Y-51724000D01*
X160944700Y-45240000D02*
X160944700Y-53300000D01*
X163225700Y-46403000D02*
X163225700Y-48230000D01*
X163065700Y-50310000D02*
X163065700Y-52289000D01*
X162265700Y-50310000D02*
X162265700Y-52854000D01*
X161785700Y-45465000D02*
X161785700Y-48230000D01*
X161585700Y-45393000D02*
X161585700Y-48230000D01*
X161865700Y-50310000D02*
X161865700Y-53044000D01*
X163905700Y-47306000D02*
X163905700Y-51234000D01*
X162025700Y-45566000D02*
X162025700Y-48230000D01*
X162865700Y-46081000D02*
X162865700Y-48230000D01*
X163145700Y-46325000D02*
X163145700Y-48230000D01*
X161865700Y-45496000D02*
X161865700Y-48230000D01*
X163305700Y-46486000D02*
X163305700Y-52054000D01*
X161745700Y-45449000D02*
X161745700Y-48230000D01*
X161825700Y-50310000D02*
X161825700Y-53060000D01*
X160424700Y-45191000D02*
X160424700Y-53349000D01*
X160584700Y-45199000D02*
X160584700Y-53341000D01*
X162265700Y-45686000D02*
X162265700Y-48230000D01*
X163745700Y-47042000D02*
X163745700Y-51498000D01*
X162665700Y-50310000D02*
X162665700Y-52608000D01*
X161065700Y-45260000D02*
X161065700Y-53280000D01*
X160664700Y-45205000D02*
X160664700Y-53335000D01*
X163505700Y-46714000D02*
X163505700Y-51826000D01*
X161105700Y-45268000D02*
X161105700Y-53272000D01*
X163265700Y-46444000D02*
X163265700Y-52096000D01*
X163145700Y-50310000D02*
X163145700Y-52215000D01*
X162505700Y-45826000D02*
X162505700Y-48230000D01*
X161265700Y-50310000D02*
X161265700Y-53237000D01*
X162585700Y-50310000D02*
X162585700Y-52662000D01*
X164265700Y-48172000D02*
X164265700Y-50368000D01*
X163025700Y-50310000D02*
X163025700Y-52325000D01*
X161345700Y-45323000D02*
X161345700Y-48230000D01*
X162425700Y-45777000D02*
X162425700Y-48230000D01*
X162945700Y-46146000D02*
X162945700Y-48230000D01*
X162225700Y-50310000D02*
X162225700Y-52876000D01*
X164305700Y-48322000D02*
X164305700Y-50218000D01*
X162065700Y-45584000D02*
X162065700Y-48230000D01*
X162105700Y-45604000D02*
X162105700Y-48230000D01*
X162305700Y-45708000D02*
X162305700Y-48230000D01*
X162465700Y-45801000D02*
X162465700Y-48230000D01*
X162705700Y-45961000D02*
X162705700Y-48230000D01*
X164065700Y-47625000D02*
X164065700Y-50915000D01*
X161465700Y-50310000D02*
X161465700Y-53184000D01*
X161145700Y-45276000D02*
X161145700Y-53264000D01*
X163385700Y-46573000D02*
X163385700Y-51967000D01*
X162425700Y-50310000D02*
X162425700Y-52763000D01*
X161945700Y-45530000D02*
X161945700Y-48230000D01*
X161425700Y-45345000D02*
X161425700Y-48230000D01*
X161425700Y-50310000D02*
X161425700Y-53195000D01*
X161305700Y-45313000D02*
X161305700Y-48230000D01*
X161985700Y-45548000D02*
X161985700Y-48230000D01*
X163705700Y-46983000D02*
X163705700Y-51557000D01*
X163065700Y-46251000D02*
X163065700Y-48230000D01*
X162985700Y-50310000D02*
X162985700Y-52360000D01*
X163665700Y-46925000D02*
X163665700Y-51615000D01*
X161625700Y-45407000D02*
X161625700Y-48230000D01*
X162145700Y-45623000D02*
X162145700Y-48230000D01*
X162545700Y-45852000D02*
X162545700Y-48230000D01*
X163945700Y-47380000D02*
X163945700Y-51160000D01*
X161225700Y-50310000D02*
X161225700Y-53246000D01*
X161225700Y-45294000D02*
X161225700Y-48230000D01*
X160784700Y-45218000D02*
X160784700Y-53322000D01*
X163625700Y-46870000D02*
X163625700Y-51670000D01*
X164424700Y-49270000D02*
G75*
G03*
X164424700Y-49270000I-4120000J0D01*
G01*
X168530000Y-51000000D02*
X168530000Y-49670000D01*
X171130000Y-51000000D02*
X171130000Y-48340000D01*
X169860000Y-51000000D02*
X168530000Y-51000000D01*
X171130000Y-51000000D02*
X173730000Y-51000000D01*
X171130000Y-48340000D02*
X173730000Y-48340000D01*
X173730000Y-51000000D02*
X173730000Y-48340000D01*
X141430000Y-118640000D02*
X141100000Y-118640000D01*
X138690000Y-112100000D02*
X138690000Y-118640000D01*
X138690000Y-118640000D02*
X139020000Y-118640000D01*
X141100000Y-112100000D02*
X141430000Y-112100000D01*
X139020000Y-112100000D02*
X138690000Y-112100000D01*
X141430000Y-112100000D02*
X141430000Y-118640000D01*
X153270000Y-72220000D02*
X152955000Y-72220000D01*
X150845000Y-72220000D02*
X150530000Y-72220000D01*
X153270000Y-66980000D02*
X152955000Y-66980000D01*
X150845000Y-66980000D02*
X150530000Y-66980000D01*
X153270000Y-66980000D02*
X153270000Y-72220000D01*
X150530000Y-66980000D02*
X150530000Y-72220000D01*
X168590000Y-117630000D02*
X168590000Y-111090000D01*
X171330000Y-117630000D02*
X171330000Y-111090000D01*
X168590000Y-111090000D02*
X168920000Y-111090000D01*
X168920000Y-117630000D02*
X168590000Y-117630000D01*
X171000000Y-117630000D02*
X171330000Y-117630000D01*
X171330000Y-111090000D02*
X171000000Y-111090000D01*
X118130000Y-99230000D02*
X118130000Y-105770000D01*
X120870000Y-99230000D02*
X118130000Y-99230000D01*
X120870000Y-105770000D02*
X120870000Y-99230000D01*
X119500000Y-98460000D02*
X119500000Y-99230000D01*
X118130000Y-105770000D02*
X120870000Y-105770000D01*
X119500000Y-106540000D02*
X119500000Y-105770000D01*
X119480000Y-50805000D02*
X119480000Y-53405000D01*
X119480000Y-48205000D02*
X120810000Y-48205000D01*
X119480000Y-53405000D02*
X122140000Y-53405000D01*
X119480000Y-49535000D02*
X119480000Y-48205000D01*
X119480000Y-50805000D02*
X122140000Y-50805000D01*
X122140000Y-50805000D02*
X122140000Y-53405000D01*
X154195000Y-66940000D02*
X154195000Y-68590000D01*
X172095000Y-66940000D02*
X154195000Y-66940000D01*
X172095000Y-72240000D02*
X172095000Y-66940000D01*
X154195000Y-72240000D02*
X172095000Y-72240000D01*
X154195000Y-70590000D02*
X154195000Y-72240000D01*
X154195000Y-70590000D02*
G75*
G03*
X154195000Y-68590000I0J1000000D01*
G01*
X162710000Y-127350000D02*
X162710000Y-126020000D01*
X164040000Y-127350000D02*
X162710000Y-127350000D01*
X165310000Y-127350000D02*
X175530000Y-127350000D01*
X165310000Y-127350000D02*
X165310000Y-124690000D01*
X175530000Y-127350000D02*
X175530000Y-124690000D01*
X165310000Y-124690000D02*
X175530000Y-124690000D01*
X128230000Y-112100000D02*
X128230000Y-118640000D01*
X127900000Y-112100000D02*
X128230000Y-112100000D01*
X125490000Y-118640000D02*
X125820000Y-118640000D01*
X125820000Y-112100000D02*
X125490000Y-112100000D01*
X125490000Y-112100000D02*
X125490000Y-118640000D01*
X128230000Y-118640000D02*
X127900000Y-118640000D01*
X141965000Y-126795900D02*
X140640000Y-126795900D01*
X141325000Y-123200125D02*
X140825000Y-123200125D01*
X138560000Y-127355900D02*
X137565000Y-127355900D01*
X138560000Y-126274900D02*
X137072000Y-126274900D01*
X141571000Y-127435900D02*
X140640000Y-127435900D01*
X138560000Y-126074900D02*
X137039000Y-126074900D01*
X141929000Y-126875900D02*
X140640000Y-126875900D01*
X141100000Y-127875900D02*
X140640000Y-127875900D01*
X138560000Y-126795900D02*
X137235000Y-126795900D01*
X141343000Y-127675900D02*
X140640000Y-127675900D01*
X138560000Y-127395900D02*
X137596000Y-127395900D01*
X142120000Y-126314900D02*
X140640000Y-126314900D01*
X140698000Y-128115900D02*
X138502000Y-128115900D01*
X142180000Y-125754900D02*
X137020000Y-125754900D01*
X140118000Y-128315900D02*
X139082000Y-128315900D01*
X138560000Y-127755900D02*
X137947000Y-127755900D01*
X138560000Y-127835900D02*
X138046000Y-127835900D01*
X138560000Y-127715900D02*
X137901000Y-127715900D01*
X138560000Y-126234900D02*
X137064000Y-126234900D01*
X142068000Y-126515900D02*
X140640000Y-126515900D01*
X142173000Y-125954900D02*
X137027000Y-125954900D01*
X141501000Y-127515900D02*
X140640000Y-127515900D01*
X142101000Y-126394900D02*
X140640000Y-126394900D01*
X138560000Y-126755900D02*
X137218000Y-126755900D01*
X138560000Y-126955900D02*
X137310000Y-126955900D01*
X138560000Y-127435900D02*
X137629000Y-127435900D01*
X138560000Y-127195900D02*
X137451000Y-127195900D01*
X141824000Y-127075900D02*
X140640000Y-127075900D01*
X138560000Y-126354900D02*
X137089000Y-126354900D01*
X142176000Y-125914900D02*
X137024000Y-125914900D01*
X142028000Y-126635900D02*
X140640000Y-126635900D01*
X141464000Y-127555900D02*
X140640000Y-127555900D01*
X138560000Y-127035900D02*
X137353000Y-127035900D01*
X141775000Y-127155900D02*
X140640000Y-127155900D01*
X141695000Y-127275900D02*
X140640000Y-127275900D01*
X141847000Y-127035900D02*
X140640000Y-127035900D01*
X138560000Y-126114900D02*
X137044000Y-126114900D01*
X142179000Y-125834900D02*
X137021000Y-125834900D01*
X139884000Y-128355900D02*
X139316000Y-128355900D01*
X140778000Y-128075900D02*
X138422000Y-128075900D01*
X138560000Y-126314900D02*
X137080000Y-126314900D01*
X140611000Y-128155900D02*
X138589000Y-128155900D01*
X138560000Y-127515900D02*
X137699000Y-127515900D01*
X141665000Y-127315900D02*
X140640000Y-127315900D01*
X142161000Y-126074900D02*
X140640000Y-126074900D01*
X141749000Y-127195900D02*
X140640000Y-127195900D01*
X142080000Y-126475900D02*
X140640000Y-126475900D01*
X141800000Y-127115900D02*
X140640000Y-127115900D01*
X140277000Y-128275900D02*
X138923000Y-128275900D01*
X138560000Y-126434900D02*
X137109000Y-126434900D01*
X138560000Y-127595900D02*
X137774000Y-127595900D01*
X142042000Y-126595900D02*
X140640000Y-126595900D01*
X138560000Y-127155900D02*
X137425000Y-127155900D01*
X138560000Y-127075900D02*
X137376000Y-127075900D01*
X138560000Y-126715900D02*
X137202000Y-126715900D01*
X141426000Y-127595900D02*
X140640000Y-127595900D01*
X138560000Y-127115900D02*
X137400000Y-127115900D01*
X140405000Y-128235900D02*
X138795000Y-128235900D01*
X138560000Y-127235900D02*
X137478000Y-127235900D01*
X138560000Y-126194900D02*
X137057000Y-126194900D01*
X140515000Y-128195900D02*
X138685000Y-128195900D01*
X141982000Y-126755900D02*
X140640000Y-126755900D01*
X138560000Y-127675900D02*
X137857000Y-127675900D01*
X138560000Y-127635900D02*
X137815000Y-127635900D01*
X142014000Y-126675900D02*
X140640000Y-126675900D01*
X138560000Y-127995900D02*
X138281000Y-127995900D01*
X141604000Y-127395900D02*
X140640000Y-127395900D01*
X141253000Y-127755900D02*
X140640000Y-127755900D01*
X142156000Y-126114900D02*
X140640000Y-126114900D01*
X138560000Y-125994900D02*
X137031000Y-125994900D01*
X138560000Y-127475900D02*
X137663000Y-127475900D01*
X141385000Y-127635900D02*
X140640000Y-127635900D01*
X141998000Y-126715900D02*
X140640000Y-126715900D01*
X141868000Y-126995900D02*
X140640000Y-126995900D01*
X138560000Y-127955900D02*
X138217000Y-127955900D01*
X138560000Y-127555900D02*
X137736000Y-127555900D01*
X141948000Y-126835900D02*
X140640000Y-126835900D01*
X138560000Y-126915900D02*
X137290000Y-126915900D01*
X138560000Y-126154900D02*
X137050000Y-126154900D01*
X142143000Y-126194900D02*
X140640000Y-126194900D01*
X138560000Y-126875900D02*
X137271000Y-126875900D01*
X142150000Y-126154900D02*
X140640000Y-126154900D01*
X141722000Y-127235900D02*
X140640000Y-127235900D01*
X140983000Y-127955900D02*
X140640000Y-127955900D01*
X141890000Y-126955900D02*
X140640000Y-126955900D01*
X138560000Y-126475900D02*
X137120000Y-126475900D01*
X141043000Y-127915900D02*
X140640000Y-127915900D01*
X138560000Y-126555900D02*
X137145000Y-126555900D01*
X138560000Y-126515900D02*
X137132000Y-126515900D01*
X140851000Y-128035900D02*
X140640000Y-128035900D01*
X142136000Y-126234900D02*
X140640000Y-126234900D01*
X142165000Y-126034900D02*
X140640000Y-126034900D01*
X138560000Y-126675900D02*
X137186000Y-126675900D01*
X138560000Y-127315900D02*
X137535000Y-127315900D01*
X142091000Y-126434900D02*
X140640000Y-126434900D01*
X138560000Y-127275900D02*
X137505000Y-127275900D01*
X142180000Y-125794900D02*
X137020000Y-125794900D01*
X142128000Y-126274900D02*
X140640000Y-126274900D01*
X141205000Y-127795900D02*
X140640000Y-127795900D01*
X138560000Y-126635900D02*
X137172000Y-126635900D01*
X141910000Y-126915900D02*
X140640000Y-126915900D01*
X142178000Y-125874900D02*
X137022000Y-125874900D01*
X141299000Y-127715900D02*
X140640000Y-127715900D01*
X138560000Y-126034900D02*
X137035000Y-126034900D01*
X138560000Y-126595900D02*
X137158000Y-126595900D01*
X142169000Y-125994900D02*
X140640000Y-125994900D01*
X138560000Y-127795900D02*
X137995000Y-127795900D01*
X138560000Y-127915900D02*
X138157000Y-127915900D01*
X141154000Y-127835900D02*
X140640000Y-127835900D01*
X138560000Y-127875900D02*
X138100000Y-127875900D01*
X138560000Y-126394900D02*
X137099000Y-126394900D01*
X142111000Y-126354900D02*
X140640000Y-126354900D01*
X138560000Y-126995900D02*
X137332000Y-126995900D01*
X140919000Y-127995900D02*
X140640000Y-127995900D01*
X141075000Y-122950125D02*
X141075000Y-123450125D01*
X138560000Y-128035900D02*
X138349000Y-128035900D01*
X138560000Y-126835900D02*
X137252000Y-126835900D01*
X141537000Y-127475900D02*
X140640000Y-127475900D01*
X142055000Y-126555900D02*
X140640000Y-126555900D01*
X141635000Y-127355900D02*
X140640000Y-127355900D01*
X142220000Y-125754900D02*
G75*
G03*
X142220000Y-125754900I-2620000J0D01*
G01*
X124170000Y-95965000D02*
X159850000Y-95965000D01*
X159850000Y-95965000D02*
X159850000Y-83045000D01*
X159850000Y-83045000D02*
X124170000Y-83045000D01*
X124170000Y-83045000D02*
X124170000Y-88505000D01*
X124170000Y-90505000D02*
X124170000Y-95965000D01*
X124170000Y-90505000D02*
G75*
G03*
X124170000Y-88505000I0J1000000D01*
G01*
X144070000Y-56275000D02*
X144070000Y-54945000D01*
X146730000Y-57545000D02*
X146730000Y-62685000D01*
X144070000Y-57545000D02*
X146730000Y-57545000D01*
X144070000Y-57545000D02*
X144070000Y-62685000D01*
X144070000Y-62685000D02*
X146730000Y-62685000D01*
X144070000Y-54945000D02*
X145400000Y-54945000D01*
X127290000Y-47065000D02*
X127290000Y-46750000D01*
X132530000Y-46750000D02*
X127290000Y-46750000D01*
X127290000Y-49490000D02*
X127290000Y-49175000D01*
X132530000Y-49490000D02*
X132530000Y-49175000D01*
X132530000Y-47065000D02*
X132530000Y-46750000D01*
X132530000Y-49490000D02*
X127290000Y-49490000D01*
X174300000Y-117640000D02*
X174630000Y-117640000D01*
X171890000Y-111100000D02*
X172220000Y-111100000D01*
X174630000Y-111100000D02*
X174300000Y-111100000D01*
X174630000Y-117640000D02*
X174630000Y-111100000D01*
X172220000Y-117640000D02*
X171890000Y-117640000D01*
X171890000Y-117640000D02*
X171890000Y-111100000D01*
X122570000Y-74620000D02*
X122255000Y-74620000D01*
X122570000Y-69380000D02*
X122570000Y-74620000D01*
X119830000Y-69380000D02*
X119830000Y-74620000D01*
X122570000Y-69380000D02*
X122255000Y-69380000D01*
X120145000Y-74620000D02*
X119830000Y-74620000D01*
X120145000Y-69380000D02*
X119830000Y-69380000D01*
X146330000Y-113700000D02*
X146330000Y-118940000D01*
X143905000Y-118940000D02*
X143590000Y-118940000D01*
X146330000Y-118940000D02*
X146015000Y-118940000D01*
X143590000Y-113700000D02*
X143590000Y-118940000D01*
X146330000Y-113700000D02*
X146015000Y-113700000D01*
X143905000Y-113700000D02*
X143590000Y-113700000D01*
X150845000Y-61520000D02*
X150530000Y-61520000D01*
X150530000Y-56280000D02*
X150530000Y-61520000D01*
X153270000Y-56280000D02*
X152955000Y-56280000D01*
X150845000Y-56280000D02*
X150530000Y-56280000D01*
X153270000Y-56280000D02*
X153270000Y-61520000D01*
X153270000Y-61520000D02*
X152955000Y-61520000D01*
X164905000Y-113710000D02*
X147005000Y-113710000D01*
X147005000Y-113710000D02*
X147005000Y-115360000D01*
X147005000Y-117360000D02*
X147005000Y-119010000D01*
X164905000Y-119010000D02*
X164905000Y-113710000D01*
X147005000Y-119010000D02*
X164905000Y-119010000D01*
X147005000Y-117360000D02*
G75*
G03*
X147005000Y-115360000I0J1000000D01*
G01*
X138990000Y-56250000D02*
X138990000Y-61490000D01*
X141730000Y-61490000D02*
X141415000Y-61490000D01*
X141730000Y-56250000D02*
X141415000Y-56250000D01*
X141730000Y-56250000D02*
X141730000Y-61490000D01*
X139305000Y-56250000D02*
X138990000Y-56250000D01*
X139305000Y-61490000D02*
X138990000Y-61490000D01*
X131087000Y-104574000D02*
X122933000Y-104574000D01*
X125970000Y-107135000D02*
X123955000Y-107135000D01*
X125970000Y-105135000D02*
X122993000Y-105135000D01*
X125970000Y-106455000D02*
X123470000Y-106455000D01*
X130935000Y-105535000D02*
X128050000Y-105535000D01*
X130899000Y-105655000D02*
X128050000Y-105655000D01*
X129614000Y-107575000D02*
X124406000Y-107575000D01*
X131004000Y-105255000D02*
X128050000Y-105255000D01*
X125970000Y-106695000D02*
X123618000Y-106695000D01*
X130550000Y-106455000D02*
X128050000Y-106455000D01*
X128239000Y-108335000D02*
X125781000Y-108335000D01*
X131027000Y-105135000D02*
X128050000Y-105135000D01*
X130454000Y-106615000D02*
X128050000Y-106615000D01*
X125970000Y-105375000D02*
X123043000Y-105375000D01*
X125970000Y-105735000D02*
X123147000Y-105735000D01*
X128900000Y-108055000D02*
X125120000Y-108055000D01*
X125970000Y-105935000D02*
X123220000Y-105935000D01*
X125970000Y-105535000D02*
X123085000Y-105535000D01*
X125970000Y-105255000D02*
X123016000Y-105255000D01*
X131081000Y-104694000D02*
X122939000Y-104694000D01*
X125970000Y-105215000D02*
X123008000Y-105215000D01*
X128356000Y-108295000D02*
X125664000Y-108295000D01*
X131052000Y-104974000D02*
X122968000Y-104974000D01*
X131058000Y-104934000D02*
X122962000Y-104934000D01*
X130815000Y-105895000D02*
X128050000Y-105895000D01*
X130572000Y-106415000D02*
X128050000Y-106415000D01*
X130714000Y-106135000D02*
X128050000Y-106135000D01*
X125970000Y-106535000D02*
X123517000Y-106535000D01*
X130594000Y-106375000D02*
X128050000Y-106375000D01*
X131084000Y-104654000D02*
X122936000Y-104654000D01*
X130767000Y-106015000D02*
X128050000Y-106015000D01*
X130732000Y-106095000D02*
X128050000Y-106095000D01*
X128108000Y-108375000D02*
X125912000Y-108375000D01*
X130230000Y-106935000D02*
X128050000Y-106935000D01*
X125970000Y-106015000D02*
X123253000Y-106015000D01*
X129836000Y-107375000D02*
X124184000Y-107375000D01*
X131067000Y-104854000D02*
X122953000Y-104854000D01*
X130527000Y-106495000D02*
X128050000Y-106495000D01*
X129794000Y-107415000D02*
X124226000Y-107415000D01*
X130946000Y-105495000D02*
X128050000Y-105495000D01*
X130029000Y-107175000D02*
X128050000Y-107175000D01*
X125970000Y-106095000D02*
X123288000Y-106095000D01*
X130995000Y-105295000D02*
X128050000Y-105295000D01*
X130887000Y-105695000D02*
X128050000Y-105695000D01*
X125970000Y-105775000D02*
X123160000Y-105775000D01*
X131034000Y-105094000D02*
X122986000Y-105094000D01*
X125970000Y-105815000D02*
X123175000Y-105815000D01*
X125970000Y-105695000D02*
X123133000Y-105695000D01*
X130750000Y-106055000D02*
X128050000Y-106055000D01*
X130831000Y-105855000D02*
X128050000Y-105855000D01*
X125970000Y-105975000D02*
X123236000Y-105975000D01*
X130199000Y-106975000D02*
X128050000Y-106975000D01*
X130957000Y-105455000D02*
X128050000Y-105455000D01*
X129325000Y-100004302D02*
X129325000Y-100804302D01*
X130637000Y-106295000D02*
X128050000Y-106295000D01*
X130924000Y-105575000D02*
X128050000Y-105575000D01*
X130479000Y-106575000D02*
X128050000Y-106575000D01*
X131090000Y-104454000D02*
X122930000Y-104454000D01*
X125970000Y-106735000D02*
X123645000Y-106735000D01*
X125970000Y-105895000D02*
X123205000Y-105895000D01*
X128655000Y-108175000D02*
X125365000Y-108175000D01*
X125970000Y-106895000D02*
X123760000Y-106895000D01*
X125970000Y-106215000D02*
X123344000Y-106215000D01*
X128974000Y-108015000D02*
X125046000Y-108015000D01*
X130676000Y-106215000D02*
X128050000Y-106215000D01*
X130860000Y-105775000D02*
X128050000Y-105775000D01*
X131071000Y-104814000D02*
X122949000Y-104814000D01*
X131075000Y-104774000D02*
X122945000Y-104774000D01*
X127958000Y-108415000D02*
X126062000Y-108415000D01*
X125970000Y-106615000D02*
X123566000Y-106615000D01*
X130800000Y-105935000D02*
X128050000Y-105935000D01*
X130912000Y-105615000D02*
X128050000Y-105615000D01*
X129566000Y-107615000D02*
X124454000Y-107615000D01*
X130100000Y-107095000D02*
X128050000Y-107095000D01*
X131090000Y-104414000D02*
X122930000Y-104414000D01*
X125970000Y-106175000D02*
X123324000Y-106175000D01*
X129515000Y-107655000D02*
X124505000Y-107655000D01*
X125970000Y-105175000D02*
X123000000Y-105175000D01*
X129176000Y-107895000D02*
X124844000Y-107895000D01*
X125970000Y-105295000D02*
X123025000Y-105295000D01*
X125970000Y-105415000D02*
X123053000Y-105415000D01*
X129955000Y-107255000D02*
X124065000Y-107255000D01*
X130428000Y-106655000D02*
X128050000Y-106655000D01*
X129238000Y-107855000D02*
X124782000Y-107855000D01*
X130065000Y-107135000D02*
X128050000Y-107135000D01*
X130375000Y-106735000D02*
X128050000Y-106735000D01*
X125970000Y-105495000D02*
X123074000Y-105495000D01*
X130290000Y-106855000D02*
X128050000Y-106855000D01*
X131040000Y-105054000D02*
X122980000Y-105054000D01*
X125970000Y-106495000D02*
X123493000Y-106495000D01*
X130503000Y-106535000D02*
X128050000Y-106535000D01*
X130134000Y-107055000D02*
X128050000Y-107055000D01*
X131062000Y-104894000D02*
X122958000Y-104894000D01*
X127543000Y-108495000D02*
X126477000Y-108495000D01*
X125970000Y-106135000D02*
X123306000Y-106135000D01*
X125970000Y-106335000D02*
X123404000Y-106335000D01*
X125970000Y-106255000D02*
X123363000Y-106255000D01*
X125970000Y-106415000D02*
X123448000Y-106415000D01*
X125970000Y-105615000D02*
X123108000Y-105615000D01*
X125970000Y-106055000D02*
X123270000Y-106055000D01*
X129725000Y-100404302D02*
X128925000Y-100404302D01*
X129877000Y-107335000D02*
X124143000Y-107335000D01*
X129112000Y-107935000D02*
X124908000Y-107935000D01*
X125970000Y-105575000D02*
X123096000Y-105575000D01*
X125970000Y-105655000D02*
X123121000Y-105655000D01*
X128823000Y-108095000D02*
X125197000Y-108095000D01*
X130319000Y-106815000D02*
X128050000Y-106815000D01*
X128562000Y-108215000D02*
X125458000Y-108215000D01*
X128741000Y-108135000D02*
X125279000Y-108135000D01*
X127778000Y-108455000D02*
X126242000Y-108455000D01*
X125970000Y-106855000D02*
X123730000Y-106855000D01*
X125970000Y-107175000D02*
X123991000Y-107175000D01*
X129917000Y-107295000D02*
X124103000Y-107295000D01*
X131012000Y-105215000D02*
X128050000Y-105215000D01*
X131047000Y-105014000D02*
X122973000Y-105014000D01*
X125970000Y-105855000D02*
X123189000Y-105855000D01*
X125970000Y-107015000D02*
X123854000Y-107015000D01*
X125970000Y-106935000D02*
X123790000Y-106935000D01*
X125970000Y-106575000D02*
X123541000Y-106575000D01*
X125970000Y-106295000D02*
X123383000Y-106295000D01*
X129464000Y-107695000D02*
X124556000Y-107695000D01*
X125970000Y-106815000D02*
X123701000Y-106815000D01*
X125970000Y-107095000D02*
X123920000Y-107095000D01*
X130166000Y-107015000D02*
X128050000Y-107015000D01*
X130260000Y-106895000D02*
X128050000Y-106895000D01*
X131089000Y-104534000D02*
X122931000Y-104534000D01*
X129707000Y-107495000D02*
X124313000Y-107495000D01*
X129751000Y-107455000D02*
X124269000Y-107455000D01*
X129355000Y-107775000D02*
X124665000Y-107775000D01*
X130616000Y-106335000D02*
X128050000Y-106335000D01*
X125970000Y-107055000D02*
X123886000Y-107055000D01*
X130845000Y-105815000D02*
X128050000Y-105815000D01*
X125970000Y-106775000D02*
X123672000Y-106775000D01*
X130784000Y-105975000D02*
X128050000Y-105975000D01*
X130986000Y-105335000D02*
X128050000Y-105335000D01*
X130873000Y-105735000D02*
X128050000Y-105735000D01*
X129044000Y-107975000D02*
X124976000Y-107975000D01*
X131086000Y-104614000D02*
X122934000Y-104614000D01*
X129661000Y-107535000D02*
X124359000Y-107535000D01*
X130967000Y-105415000D02*
X128050000Y-105415000D01*
X125970000Y-105335000D02*
X123034000Y-105335000D01*
X129993000Y-107215000D02*
X124027000Y-107215000D01*
X131020000Y-105175000D02*
X128050000Y-105175000D01*
X125970000Y-106975000D02*
X123821000Y-106975000D01*
X125970000Y-106655000D02*
X123592000Y-106655000D01*
X130402000Y-106695000D02*
X128050000Y-106695000D01*
X129297000Y-107815000D02*
X124723000Y-107815000D01*
X130348000Y-106775000D02*
X128050000Y-106775000D01*
X130977000Y-105375000D02*
X128050000Y-105375000D01*
X130696000Y-106175000D02*
X128050000Y-106175000D01*
X129410000Y-107735000D02*
X124610000Y-107735000D01*
X131090000Y-104494000D02*
X122930000Y-104494000D01*
X125970000Y-105455000D02*
X123063000Y-105455000D01*
X125970000Y-106375000D02*
X123426000Y-106375000D01*
X130657000Y-106255000D02*
X128050000Y-106255000D01*
X128463000Y-108255000D02*
X125557000Y-108255000D01*
X131078000Y-104734000D02*
X122942000Y-104734000D01*
X131130000Y-104414000D02*
G75*
G03*
X131130000Y-104414000I-4120000J0D01*
G01*
X142280000Y-53040000D02*
X142280000Y-50300000D01*
X135740000Y-53040000D02*
X142280000Y-53040000D01*
X143050000Y-51670000D02*
X142280000Y-51670000D01*
X134970000Y-51670000D02*
X135740000Y-51670000D01*
X135740000Y-50300000D02*
X135740000Y-53040000D01*
X142280000Y-50300000D02*
X135740000Y-50300000D01*
X127310000Y-127910800D02*
X126907000Y-127910800D01*
X130287000Y-127470800D02*
X129390000Y-127470800D01*
X130792000Y-126590800D02*
X129390000Y-126590800D01*
X127310000Y-127550800D02*
X126486000Y-127550800D01*
X127310000Y-126710800D02*
X125952000Y-126710800D01*
X129528000Y-128070800D02*
X127172000Y-128070800D01*
X130550000Y-127110800D02*
X129390000Y-127110800D01*
X127310000Y-126389800D02*
X125849000Y-126389800D01*
X130003000Y-127750800D02*
X129390000Y-127750800D01*
X130445000Y-127270800D02*
X129390000Y-127270800D01*
X127310000Y-126470800D02*
X125870000Y-126470800D01*
X130525000Y-127150800D02*
X129390000Y-127150800D01*
X130778000Y-126630800D02*
X129390000Y-126630800D01*
X127310000Y-126189800D02*
X125807000Y-126189800D01*
X130919000Y-125989800D02*
X129390000Y-125989800D01*
X130900000Y-126149800D02*
X129390000Y-126149800D01*
X130915000Y-126029800D02*
X129390000Y-126029800D01*
X129669000Y-127990800D02*
X129390000Y-127990800D01*
X130176000Y-127590800D02*
X129390000Y-127590800D01*
X127310000Y-126630800D02*
X125922000Y-126630800D01*
X129793000Y-127910800D02*
X129390000Y-127910800D01*
X129850000Y-127870800D02*
X129390000Y-127870800D01*
X127310000Y-127510800D02*
X126449000Y-127510800D01*
X130574000Y-127070800D02*
X129390000Y-127070800D01*
X130886000Y-126229800D02*
X129390000Y-126229800D01*
X127310000Y-127950800D02*
X126967000Y-127950800D01*
X130698000Y-126830800D02*
X129390000Y-126830800D01*
X127310000Y-127790800D02*
X126745000Y-127790800D01*
X129155000Y-128230800D02*
X127545000Y-128230800D01*
X129825000Y-122945025D02*
X129825000Y-123445025D01*
X130841000Y-126429800D02*
X129390000Y-126429800D01*
X129904000Y-127830800D02*
X129390000Y-127830800D01*
X130928000Y-125869800D02*
X125772000Y-125869800D01*
X127310000Y-127150800D02*
X126175000Y-127150800D01*
X129361000Y-128150800D02*
X127339000Y-128150800D01*
X127310000Y-126830800D02*
X126002000Y-126830800D01*
X130861000Y-126349800D02*
X129390000Y-126349800D01*
X127310000Y-126269800D02*
X125822000Y-126269800D01*
X130135000Y-127630800D02*
X129390000Y-127630800D01*
X130640000Y-126950800D02*
X129390000Y-126950800D01*
X127310000Y-126990800D02*
X126082000Y-126990800D01*
X127310000Y-126550800D02*
X125895000Y-126550800D01*
X130715000Y-126790800D02*
X129390000Y-126790800D01*
X130926000Y-125909800D02*
X125774000Y-125909800D01*
X127310000Y-126910800D02*
X126040000Y-126910800D01*
X130597000Y-127030800D02*
X129390000Y-127030800D01*
X130499000Y-127190800D02*
X129390000Y-127190800D01*
X130911000Y-126069800D02*
X129390000Y-126069800D01*
X127310000Y-126870800D02*
X126021000Y-126870800D01*
X130818000Y-126510800D02*
X129390000Y-126510800D01*
X127310000Y-127270800D02*
X126255000Y-127270800D01*
X130870000Y-126309800D02*
X129390000Y-126309800D01*
X129448000Y-128110800D02*
X127252000Y-128110800D01*
X127310000Y-126750800D02*
X125968000Y-126750800D01*
X130660000Y-126910800D02*
X129390000Y-126910800D01*
X127310000Y-127230800D02*
X126228000Y-127230800D01*
X127310000Y-127070800D02*
X126126000Y-127070800D01*
X127310000Y-127030800D02*
X126103000Y-127030800D01*
X127310000Y-125989800D02*
X125781000Y-125989800D01*
X130618000Y-126990800D02*
X129390000Y-126990800D01*
X127310000Y-126510800D02*
X125882000Y-126510800D01*
X130764000Y-126670800D02*
X129390000Y-126670800D01*
X127310000Y-127110800D02*
X126150000Y-127110800D01*
X129601000Y-128030800D02*
X129390000Y-128030800D01*
X127310000Y-126069800D02*
X125789000Y-126069800D01*
X130214000Y-127550800D02*
X129390000Y-127550800D01*
X127310000Y-127350800D02*
X126315000Y-127350800D01*
X127310000Y-126790800D02*
X125985000Y-126790800D01*
X127310000Y-126590800D02*
X125908000Y-126590800D01*
X130878000Y-126269800D02*
X129390000Y-126269800D01*
X127310000Y-127470800D02*
X126413000Y-127470800D01*
X127310000Y-127430800D02*
X126379000Y-127430800D01*
X127310000Y-126149800D02*
X125800000Y-126149800D01*
X130049000Y-127710800D02*
X129390000Y-127710800D01*
X130075000Y-123195025D02*
X129575000Y-123195025D01*
X127310000Y-126950800D02*
X126060000Y-126950800D01*
X127310000Y-127990800D02*
X127031000Y-127990800D01*
X129955000Y-127790800D02*
X129390000Y-127790800D01*
X127310000Y-126670800D02*
X125936000Y-126670800D01*
X127310000Y-128030800D02*
X127099000Y-128030800D01*
X130472000Y-127230800D02*
X129390000Y-127230800D01*
X130385000Y-127350800D02*
X129390000Y-127350800D01*
X127310000Y-127630800D02*
X126565000Y-127630800D01*
X130251000Y-127510800D02*
X129390000Y-127510800D01*
X127310000Y-127390800D02*
X126346000Y-127390800D01*
X127310000Y-127310800D02*
X126285000Y-127310800D01*
X127310000Y-126349800D02*
X125839000Y-126349800D01*
X127310000Y-126309800D02*
X125830000Y-126309800D01*
X129733000Y-127950800D02*
X129390000Y-127950800D01*
X130415000Y-127310800D02*
X129390000Y-127310800D01*
X130732000Y-126750800D02*
X129390000Y-126750800D01*
X130923000Y-125949800D02*
X125777000Y-125949800D01*
X127310000Y-127870800D02*
X126850000Y-127870800D01*
X127310000Y-126429800D02*
X125859000Y-126429800D01*
X130929000Y-125829800D02*
X125771000Y-125829800D01*
X127310000Y-127670800D02*
X126607000Y-127670800D01*
X130679000Y-126870800D02*
X129390000Y-126870800D01*
X127310000Y-127710800D02*
X126651000Y-127710800D01*
X127310000Y-127750800D02*
X126697000Y-127750800D01*
X127310000Y-127830800D02*
X126796000Y-127830800D01*
X127310000Y-126029800D02*
X125785000Y-126029800D01*
X127310000Y-127190800D02*
X126201000Y-127190800D01*
X127310000Y-127590800D02*
X126524000Y-127590800D01*
X130748000Y-126710800D02*
X129390000Y-126710800D01*
X130851000Y-126389800D02*
X129390000Y-126389800D01*
X130354000Y-127390800D02*
X129390000Y-127390800D01*
X130830000Y-126470800D02*
X129390000Y-126470800D01*
X128634000Y-128350800D02*
X128066000Y-128350800D01*
X129027000Y-128270800D02*
X127673000Y-128270800D01*
X130805000Y-126550800D02*
X129390000Y-126550800D01*
X129265000Y-128190800D02*
X127435000Y-128190800D01*
X130930000Y-125749800D02*
X125770000Y-125749800D01*
X130893000Y-126189800D02*
X129390000Y-126189800D01*
X127310000Y-126109800D02*
X125794000Y-126109800D01*
X128868000Y-128310800D02*
X127832000Y-128310800D01*
X127310000Y-126229800D02*
X125814000Y-126229800D01*
X130093000Y-127670800D02*
X129390000Y-127670800D01*
X130321000Y-127430800D02*
X129390000Y-127430800D01*
X130930000Y-125789800D02*
X125770000Y-125789800D01*
X130906000Y-126109800D02*
X129390000Y-126109800D01*
X130970000Y-125749800D02*
G75*
G03*
X130970000Y-125749800I-2620000J0D01*
G01*
%LPC*%
D14*
X144070000Y-48120000D03*
D15*
X136450000Y-48120000D03*
D14*
X120310000Y-111550000D03*
D15*
X120310000Y-119170000D03*
D16*
X155525000Y-62700000D03*
D15*
X158065000Y-62700000D03*
X160605000Y-62700000D03*
X163145000Y-62700000D03*
X165685000Y-62700000D03*
X168225000Y-62700000D03*
X170765000Y-62700000D03*
X170765000Y-55080000D03*
X168225000Y-55080000D03*
X165685000Y-55080000D03*
X163145000Y-55080000D03*
X160605000Y-55080000D03*
X158065000Y-55080000D03*
X155525000Y-55080000D03*
D14*
X121500000Y-92300000D03*
X121500000Y-87300000D03*
D16*
X124675000Y-75850000D03*
D15*
X127215000Y-75850000D03*
X129755000Y-75850000D03*
X132295000Y-75850000D03*
X134835000Y-75850000D03*
X137375000Y-75850000D03*
X139915000Y-75850000D03*
X142455000Y-75850000D03*
X142455000Y-68230000D03*
X139915000Y-68230000D03*
X137375000Y-68230000D03*
X134835000Y-68230000D03*
X132295000Y-68230000D03*
X129755000Y-68230000D03*
X127215000Y-68230000D03*
X124675000Y-68230000D03*
D14*
X157300000Y-77900000D03*
X162300000Y-77900000D03*
X146990000Y-77900000D03*
D15*
X154610000Y-77900000D03*
D14*
X133460000Y-119180000D03*
D15*
X133460000Y-111560000D03*
D14*
X124210000Y-56170000D03*
X124210000Y-61170000D03*
X123610000Y-111550000D03*
D15*
X123610000Y-119170000D03*
D17*
X111180000Y-53510000D03*
X111180000Y-56030000D03*
X111180000Y-58550000D03*
X111180000Y-61070000D03*
X111180000Y-66110000D03*
X111180000Y-68630000D03*
X111180000Y-71150000D03*
X111180000Y-73670000D03*
X111180000Y-76190000D03*
X111180000Y-78710000D03*
X111180000Y-81230000D03*
X111180000Y-83750000D03*
X111180000Y-86270000D03*
X111180000Y-88790000D03*
X111180000Y-91310000D03*
X111180000Y-93830000D03*
X111180000Y-96350000D03*
X111180000Y-98870000D03*
X111180000Y-101390000D03*
X111180000Y-103910000D03*
X111180000Y-106430000D03*
X111180000Y-108950000D03*
X111180000Y-111470000D03*
X111180000Y-113990000D03*
X111180000Y-116510000D03*
X111180000Y-119030000D03*
X111180000Y-121550000D03*
D14*
X136760000Y-111560000D03*
D15*
X136760000Y-119180000D03*
D18*
X158500000Y-103500000D03*
D19*
X155960000Y-103500000D03*
X153420000Y-103500000D03*
X150880000Y-103500000D03*
X148340000Y-103500000D03*
X145800000Y-103500000D03*
X143260000Y-103500000D03*
X140720000Y-103500000D03*
X138180000Y-103500000D03*
X135640000Y-103500000D03*
D20*
X165460000Y-82870000D03*
X170340000Y-82870000D03*
D14*
X164900000Y-77900000D03*
D15*
X172520000Y-77900000D03*
D14*
X130160000Y-111560000D03*
D15*
X130160000Y-119180000D03*
D16*
X127760000Y-62520000D03*
D15*
X130300000Y-62520000D03*
X132840000Y-62520000D03*
X135380000Y-62520000D03*
X135380000Y-54900000D03*
X132840000Y-54900000D03*
X130300000Y-54900000D03*
X127760000Y-54900000D03*
D16*
X158404700Y-49270000D03*
D14*
X162204700Y-49270000D03*
D18*
X169860000Y-49670000D03*
D19*
X172400000Y-49670000D03*
D14*
X140060000Y-111560000D03*
D15*
X140060000Y-119180000D03*
D14*
X151900000Y-67100000D03*
X151900000Y-72100000D03*
X169960000Y-118170000D03*
D15*
X169960000Y-110550000D03*
D14*
X119500000Y-107580000D03*
D15*
X119500000Y-97420000D03*
D18*
X120810000Y-49535000D03*
D19*
X120810000Y-52075000D03*
D16*
X155525000Y-73400000D03*
D15*
X158065000Y-73400000D03*
X160605000Y-73400000D03*
X163145000Y-73400000D03*
X165685000Y-73400000D03*
X168225000Y-73400000D03*
X170765000Y-73400000D03*
X170765000Y-65780000D03*
X168225000Y-65780000D03*
X165685000Y-65780000D03*
X163145000Y-65780000D03*
X160605000Y-65780000D03*
X158065000Y-65780000D03*
X155525000Y-65780000D03*
D18*
X164040000Y-126020000D03*
D19*
X166580000Y-126020000D03*
X169120000Y-126020000D03*
X171660000Y-126020000D03*
X174200000Y-126020000D03*
D14*
X126860000Y-111560000D03*
D15*
X126860000Y-119180000D03*
D16*
X139600000Y-124504900D03*
D14*
X139600000Y-127004900D03*
D16*
X125500000Y-97125000D03*
D15*
X128040000Y-97125000D03*
X130580000Y-97125000D03*
X133120000Y-97125000D03*
X135660000Y-97125000D03*
X138200000Y-97125000D03*
X140740000Y-97125000D03*
X143280000Y-97125000D03*
X145820000Y-97125000D03*
X148360000Y-97125000D03*
X150900000Y-97125000D03*
X153440000Y-97125000D03*
X155980000Y-97125000D03*
X158520000Y-97125000D03*
X158520000Y-81885000D03*
X155980000Y-81885000D03*
X153440000Y-81885000D03*
X150900000Y-81885000D03*
X148360000Y-81885000D03*
X145820000Y-81885000D03*
X143280000Y-81885000D03*
X140740000Y-81885000D03*
X138200000Y-81885000D03*
X135660000Y-81885000D03*
X133120000Y-81885000D03*
X130580000Y-81885000D03*
X128040000Y-81885000D03*
X125500000Y-81885000D03*
D17*
X180700000Y-53530000D03*
X180700000Y-56050000D03*
X180700000Y-58570000D03*
X180700000Y-61090000D03*
X180700000Y-66130000D03*
X180700000Y-68650000D03*
X180700000Y-71170000D03*
X180700000Y-73690000D03*
X180700000Y-76210000D03*
X180700000Y-78730000D03*
X180700000Y-81250000D03*
X180700000Y-83770000D03*
X180700000Y-86290000D03*
X180700000Y-88810000D03*
X180700000Y-91330000D03*
X180700000Y-93850000D03*
X180700000Y-96370000D03*
X180700000Y-98890000D03*
X180700000Y-101410000D03*
X180700000Y-103930000D03*
X180700000Y-106450000D03*
X180700000Y-108970000D03*
X180700000Y-111490000D03*
X180700000Y-114010000D03*
X180700000Y-116530000D03*
X180700000Y-119050000D03*
X180700000Y-121570000D03*
D18*
X145400000Y-56275000D03*
D19*
X145400000Y-58815000D03*
X145400000Y-61355000D03*
D14*
X132410000Y-48120000D03*
X127410000Y-48120000D03*
X173260000Y-118180000D03*
D15*
X173260000Y-110560000D03*
D14*
X121200000Y-69500000D03*
X121200000Y-74500000D03*
X144960000Y-113820000D03*
X144960000Y-118820000D03*
X151900000Y-56400000D03*
X151900000Y-61400000D03*
D16*
X148335000Y-120170000D03*
D15*
X150875000Y-120170000D03*
X153415000Y-120170000D03*
X155955000Y-120170000D03*
X158495000Y-120170000D03*
X161035000Y-120170000D03*
X163575000Y-120170000D03*
X163575000Y-112550000D03*
X161035000Y-112550000D03*
X158495000Y-112550000D03*
X155955000Y-112550000D03*
X153415000Y-112550000D03*
X150875000Y-112550000D03*
X148335000Y-112550000D03*
D14*
X140360000Y-56370000D03*
X140360000Y-61370000D03*
D16*
X127010000Y-102664000D03*
D14*
X127010000Y-106164000D03*
X133930000Y-51670000D03*
D15*
X144090000Y-51670000D03*
D16*
X128350000Y-124499800D03*
D14*
X128350000Y-126999800D03*
M02*
