G04 #@! TF.GenerationSoftware,KiCad,Pcbnew,6.0.11+dfsg-1*
G04 #@! TF.CreationDate,2025-03-28T14:55:45+01:00*
G04 #@! TF.ProjectId,Melodik2,4d656c6f-6469-46b3-922e-6b696361645f,2.0*
G04 #@! TF.SameCoordinates,Original*
G04 #@! TF.FileFunction,Copper,L2,Bot*
G04 #@! TF.FilePolarity,Positive*
%FSLAX46Y46*%
G04 Gerber Fmt 4.6, Leading zero omitted, Abs format (unit mm)*
G04 Created by KiCad (PCBNEW 6.0.11+dfsg-1) date 2025-03-28 14:55:45*
%MOMM*%
%LPD*%
G01*
G04 APERTURE LIST*
%ADD10C,0.250000*%
G04 #@! TA.AperFunction,NonConductor*
%ADD11C,0.250000*%
G04 #@! TD*
G04 #@! TA.AperFunction,ComponentPad*
%ADD12C,1.600000*%
G04 #@! TD*
G04 #@! TA.AperFunction,ComponentPad*
%ADD13O,1.600000X1.600000*%
G04 #@! TD*
G04 #@! TA.AperFunction,ComponentPad*
%ADD14R,1.600000X1.600000*%
G04 #@! TD*
G04 #@! TA.AperFunction,SMDPad,CuDef*
%ADD15R,8.000000X2.000000*%
G04 #@! TD*
G04 #@! TA.AperFunction,ComponentPad*
%ADD16R,1.700000X1.700000*%
G04 #@! TD*
G04 #@! TA.AperFunction,ComponentPad*
%ADD17O,1.700000X1.700000*%
G04 #@! TD*
G04 #@! TA.AperFunction,ComponentPad*
%ADD18C,1.500000*%
G04 #@! TD*
G04 #@! TA.AperFunction,ViaPad*
%ADD19C,0.700000*%
G04 #@! TD*
G04 #@! TA.AperFunction,ViaPad*
%ADD20C,1.000000*%
G04 #@! TD*
G04 #@! TA.AperFunction,Conductor*
%ADD21C,0.250000*%
G04 #@! TD*
G04 #@! TA.AperFunction,Conductor*
%ADD22C,1.000000*%
G04 #@! TD*
G04 APERTURE END LIST*
D10*
D11*
X160557619Y-126067380D02*
X160557619Y-125067380D01*
X160224285Y-125781666D01*
X159890952Y-125067380D01*
X159890952Y-126067380D01*
X159033809Y-126019761D02*
X159129047Y-126067380D01*
X159319523Y-126067380D01*
X159414761Y-126019761D01*
X159462380Y-125924523D01*
X159462380Y-125543571D01*
X159414761Y-125448333D01*
X159319523Y-125400714D01*
X159129047Y-125400714D01*
X159033809Y-125448333D01*
X158986190Y-125543571D01*
X158986190Y-125638809D01*
X159462380Y-125734047D01*
X158414761Y-126067380D02*
X158510000Y-126019761D01*
X158557619Y-125924523D01*
X158557619Y-125067380D01*
X157890952Y-126067380D02*
X157986190Y-126019761D01*
X158033809Y-125972142D01*
X158081428Y-125876904D01*
X158081428Y-125591190D01*
X158033809Y-125495952D01*
X157986190Y-125448333D01*
X157890952Y-125400714D01*
X157748095Y-125400714D01*
X157652857Y-125448333D01*
X157605238Y-125495952D01*
X157557619Y-125591190D01*
X157557619Y-125876904D01*
X157605238Y-125972142D01*
X157652857Y-126019761D01*
X157748095Y-126067380D01*
X157890952Y-126067380D01*
X156700476Y-126067380D02*
X156700476Y-125067380D01*
X156700476Y-126019761D02*
X156795714Y-126067380D01*
X156986190Y-126067380D01*
X157081428Y-126019761D01*
X157129047Y-125972142D01*
X157176666Y-125876904D01*
X157176666Y-125591190D01*
X157129047Y-125495952D01*
X157081428Y-125448333D01*
X156986190Y-125400714D01*
X156795714Y-125400714D01*
X156700476Y-125448333D01*
X156224285Y-126067380D02*
X156224285Y-125400714D01*
X156224285Y-125067380D02*
X156271904Y-125115000D01*
X156224285Y-125162619D01*
X156176666Y-125115000D01*
X156224285Y-125067380D01*
X156224285Y-125162619D01*
X155748095Y-126067380D02*
X155748095Y-125067380D01*
X155652857Y-125686428D02*
X155367142Y-126067380D01*
X155367142Y-125400714D02*
X155748095Y-125781666D01*
X154986190Y-125162619D02*
X154938571Y-125115000D01*
X154843333Y-125067380D01*
X154605238Y-125067380D01*
X154510000Y-125115000D01*
X154462380Y-125162619D01*
X154414761Y-125257857D01*
X154414761Y-125353095D01*
X154462380Y-125495952D01*
X155033809Y-126067380D01*
X154414761Y-126067380D01*
X160510000Y-127677380D02*
X160510000Y-126677380D01*
X160510000Y-127058333D02*
X160414761Y-127010714D01*
X160224285Y-127010714D01*
X160129047Y-127058333D01*
X160081428Y-127105952D01*
X160033809Y-127201190D01*
X160033809Y-127486904D01*
X160081428Y-127582142D01*
X160129047Y-127629761D01*
X160224285Y-127677380D01*
X160414761Y-127677380D01*
X160510000Y-127629761D01*
X159700476Y-127010714D02*
X159462380Y-127677380D01*
X159224285Y-127010714D02*
X159462380Y-127677380D01*
X159557619Y-127915476D01*
X159605238Y-127963095D01*
X159700476Y-128010714D01*
X158176666Y-127010714D02*
X157652857Y-127010714D01*
X158176666Y-127677380D01*
X157652857Y-127677380D01*
X157081428Y-126677380D02*
X156986190Y-126677380D01*
X156890952Y-126725000D01*
X156843333Y-126772619D01*
X156795714Y-126867857D01*
X156748095Y-127058333D01*
X156748095Y-127296428D01*
X156795714Y-127486904D01*
X156843333Y-127582142D01*
X156890952Y-127629761D01*
X156986190Y-127677380D01*
X157081428Y-127677380D01*
X157176666Y-127629761D01*
X157224285Y-127582142D01*
X157271904Y-127486904D01*
X157319523Y-127296428D01*
X157319523Y-127058333D01*
X157271904Y-126867857D01*
X157224285Y-126772619D01*
X157176666Y-126725000D01*
X157081428Y-126677380D01*
X156129047Y-126677380D02*
X156033809Y-126677380D01*
X155938571Y-126725000D01*
X155890952Y-126772619D01*
X155843333Y-126867857D01*
X155795714Y-127058333D01*
X155795714Y-127296428D01*
X155843333Y-127486904D01*
X155890952Y-127582142D01*
X155938571Y-127629761D01*
X156033809Y-127677380D01*
X156129047Y-127677380D01*
X156224285Y-127629761D01*
X156271904Y-127582142D01*
X156319523Y-127486904D01*
X156367142Y-127296428D01*
X156367142Y-127058333D01*
X156319523Y-126867857D01*
X156271904Y-126772619D01*
X156224285Y-126725000D01*
X156129047Y-126677380D01*
X155367142Y-127677380D02*
X155367142Y-127010714D01*
X155367142Y-127105952D02*
X155319523Y-127058333D01*
X155224285Y-127010714D01*
X155081428Y-127010714D01*
X154986190Y-127058333D01*
X154938571Y-127153571D01*
X154938571Y-127677380D01*
X154938571Y-127153571D02*
X154890952Y-127058333D01*
X154795714Y-127010714D01*
X154652857Y-127010714D01*
X154557619Y-127058333D01*
X154510000Y-127153571D01*
X154510000Y-127677380D01*
D12*
X144070000Y-48120000D03*
D13*
X136450000Y-48120000D03*
D12*
X120310000Y-111550000D03*
D13*
X120310000Y-119170000D03*
D14*
X155525000Y-62700000D03*
D13*
X158065000Y-62700000D03*
X160605000Y-62700000D03*
X163145000Y-62700000D03*
X165685000Y-62700000D03*
X168225000Y-62700000D03*
X170765000Y-62700000D03*
X170765000Y-55080000D03*
X168225000Y-55080000D03*
X165685000Y-55080000D03*
X163145000Y-55080000D03*
X160605000Y-55080000D03*
X158065000Y-55080000D03*
X155525000Y-55080000D03*
D12*
X121500000Y-92300000D03*
X121500000Y-87300000D03*
D14*
X124675000Y-75850000D03*
D13*
X127215000Y-75850000D03*
X129755000Y-75850000D03*
X132295000Y-75850000D03*
X134835000Y-75850000D03*
X137375000Y-75850000D03*
X139915000Y-75850000D03*
X142455000Y-75850000D03*
X142455000Y-68230000D03*
X139915000Y-68230000D03*
X137375000Y-68230000D03*
X134835000Y-68230000D03*
X132295000Y-68230000D03*
X129755000Y-68230000D03*
X127215000Y-68230000D03*
X124675000Y-68230000D03*
D12*
X157300000Y-77900000D03*
X162300000Y-77900000D03*
X146990000Y-77900000D03*
D13*
X154610000Y-77900000D03*
D12*
X133460000Y-119180000D03*
D13*
X133460000Y-111560000D03*
D12*
X124210000Y-56170000D03*
X124210000Y-61170000D03*
X123610000Y-111550000D03*
D13*
X123610000Y-119170000D03*
D15*
X111180000Y-53510000D03*
X111180000Y-56030000D03*
X111180000Y-58550000D03*
X111180000Y-61070000D03*
X111180000Y-66110000D03*
X111180000Y-68630000D03*
X111180000Y-71150000D03*
X111180000Y-73670000D03*
X111180000Y-76190000D03*
X111180000Y-78710000D03*
X111180000Y-81230000D03*
X111200000Y-83750000D03*
X111180000Y-86270000D03*
X111180000Y-88790000D03*
X111180000Y-91310000D03*
X111180000Y-93830000D03*
X111180000Y-96350000D03*
X111180000Y-98870000D03*
X111180000Y-101390000D03*
X111180000Y-103910000D03*
X111180000Y-106430000D03*
X111180000Y-108950000D03*
X111180000Y-111470000D03*
X111180000Y-113990000D03*
X111180000Y-116510000D03*
X111180000Y-119030000D03*
X111180000Y-121550000D03*
D12*
X136760000Y-111560000D03*
D13*
X136760000Y-119180000D03*
D16*
X158500000Y-103500000D03*
D17*
X155960000Y-103500000D03*
X153420000Y-103500000D03*
X150880000Y-103500000D03*
X148340000Y-103500000D03*
X145800000Y-103500000D03*
X143260000Y-103500000D03*
X140720000Y-103500000D03*
X138180000Y-103500000D03*
X135640000Y-103500000D03*
D18*
X165460000Y-82870000D03*
X170340000Y-82870000D03*
D12*
X164900000Y-77900000D03*
D13*
X172520000Y-77900000D03*
D12*
X130160000Y-111560000D03*
D13*
X130160000Y-119180000D03*
D14*
X127760000Y-62520000D03*
D13*
X130300000Y-62520000D03*
X132840000Y-62520000D03*
X135380000Y-62520000D03*
X135380000Y-54900000D03*
X132840000Y-54900000D03*
X130300000Y-54900000D03*
X127760000Y-54900000D03*
D14*
X158404700Y-49270000D03*
D12*
X162204700Y-49270000D03*
D16*
X169860000Y-49670000D03*
D17*
X172400000Y-49670000D03*
D12*
X140060000Y-111560000D03*
D13*
X140060000Y-119180000D03*
D12*
X151900000Y-67100000D03*
X151900000Y-72100000D03*
X169960000Y-118170000D03*
D13*
X169960000Y-110550000D03*
D12*
X119500000Y-107580000D03*
D13*
X119500000Y-97420000D03*
D16*
X120810000Y-49535000D03*
D17*
X120810000Y-52075000D03*
D14*
X155525000Y-73400000D03*
D13*
X158065000Y-73400000D03*
X160605000Y-73400000D03*
X163145000Y-73400000D03*
X165685000Y-73400000D03*
X168225000Y-73400000D03*
X170765000Y-73400000D03*
X170765000Y-65780000D03*
X168225000Y-65780000D03*
X165685000Y-65780000D03*
X163145000Y-65780000D03*
X160605000Y-65780000D03*
X158065000Y-65780000D03*
X155525000Y-65780000D03*
D16*
X164040000Y-126020000D03*
D17*
X166580000Y-126020000D03*
X169120000Y-126020000D03*
X171660000Y-126020000D03*
X174200000Y-126020000D03*
D12*
X126860000Y-111560000D03*
D13*
X126860000Y-119180000D03*
D14*
X139600000Y-124504900D03*
D12*
X139600000Y-127004900D03*
D14*
X125500000Y-97125000D03*
D13*
X128040000Y-97125000D03*
X130580000Y-97125000D03*
X133120000Y-97125000D03*
X135660000Y-97125000D03*
X138200000Y-97125000D03*
X140740000Y-97125000D03*
X143280000Y-97125000D03*
X145820000Y-97125000D03*
X148360000Y-97125000D03*
X150900000Y-97125000D03*
X153440000Y-97125000D03*
X155980000Y-97125000D03*
X158520000Y-97125000D03*
X158520000Y-81885000D03*
X155980000Y-81885000D03*
X153440000Y-81885000D03*
X150900000Y-81885000D03*
X148360000Y-81885000D03*
X145820000Y-81885000D03*
X143280000Y-81885000D03*
X140740000Y-81885000D03*
X138200000Y-81885000D03*
X135660000Y-81885000D03*
X133120000Y-81885000D03*
X130580000Y-81885000D03*
X128040000Y-81885000D03*
X125500000Y-81885000D03*
D15*
X180700000Y-53530000D03*
X180700000Y-56050000D03*
X180700000Y-58570000D03*
X180700000Y-61090000D03*
X180700000Y-66130000D03*
X180700000Y-68650000D03*
X180700000Y-71170000D03*
X180700000Y-73690000D03*
X180700000Y-76210000D03*
X180700000Y-78730000D03*
X180700000Y-81250000D03*
X180720000Y-83770000D03*
X180700000Y-86290000D03*
X180700000Y-88810000D03*
X180700000Y-91330000D03*
X180700000Y-93850000D03*
X180700000Y-96370000D03*
X180700000Y-98890000D03*
X180700000Y-101410000D03*
X180700000Y-103930000D03*
X180700000Y-106450000D03*
X180700000Y-108970000D03*
X180700000Y-111490000D03*
X180700000Y-114010000D03*
X180700000Y-116530000D03*
X180700000Y-119050000D03*
X180700000Y-121570000D03*
D16*
X145400000Y-56275000D03*
D17*
X145400000Y-58815000D03*
X145400000Y-61355000D03*
D12*
X132410000Y-48120000D03*
X127410000Y-48120000D03*
X173260000Y-118180000D03*
D13*
X173260000Y-110560000D03*
D12*
X121200000Y-69500000D03*
X121200000Y-74500000D03*
X144960000Y-113820000D03*
X144960000Y-118820000D03*
X151900000Y-56400000D03*
X151900000Y-61400000D03*
D14*
X148335000Y-120170000D03*
D13*
X150875000Y-120170000D03*
X153415000Y-120170000D03*
X155955000Y-120170000D03*
X158495000Y-120170000D03*
X161035000Y-120170000D03*
X163575000Y-120170000D03*
X163575000Y-112550000D03*
X161035000Y-112550000D03*
X158495000Y-112550000D03*
X155955000Y-112550000D03*
X153415000Y-112550000D03*
X150875000Y-112550000D03*
X148335000Y-112550000D03*
D12*
X140360000Y-56370000D03*
X140360000Y-61370000D03*
D14*
X127010000Y-102664000D03*
D12*
X127010000Y-106164000D03*
X133930000Y-51670000D03*
D13*
X144090000Y-51670000D03*
D14*
X128350000Y-124499800D03*
D12*
X128350000Y-126999800D03*
D19*
X120428300Y-112953500D03*
X176085400Y-110794300D03*
X175583500Y-104892000D03*
X116441300Y-103579500D03*
X176163500Y-90084700D03*
X115739400Y-90058200D03*
X174327000Y-88675700D03*
X115745000Y-88453300D03*
X174962400Y-87956000D03*
X117076000Y-87893000D03*
X174745300Y-86797500D03*
X115754600Y-84850500D03*
X176133400Y-93719300D03*
X136854800Y-91523000D03*
X124626500Y-91072900D03*
X116101000Y-93145900D03*
X176118600Y-96796600D03*
X115732200Y-96899500D03*
X166602400Y-83774300D03*
X168813200Y-98678400D03*
X162993100Y-95329300D03*
X159931500Y-98160100D03*
X123779700Y-50370100D03*
X173427100Y-52464200D03*
X155568000Y-67644200D03*
X153364200Y-72340700D03*
X158802500Y-105150000D03*
X168906200Y-101379000D03*
X160635900Y-78045800D03*
X170320200Y-102511100D03*
X135580900Y-114206200D03*
D20*
X118270200Y-92300000D03*
X168798400Y-58570000D03*
X168844100Y-94271500D03*
X168844100Y-86384600D03*
D19*
X139614900Y-78688000D03*
X115737100Y-73726900D03*
X175795000Y-74672900D03*
X115889300Y-76630200D03*
X175873100Y-76889500D03*
X135660000Y-84470800D03*
X115772600Y-81230000D03*
X175722900Y-79521400D03*
X132796700Y-83795700D03*
X117349900Y-81701200D03*
X173263200Y-86790200D03*
X133379900Y-86624500D03*
X117590900Y-80350900D03*
X116566300Y-79675800D03*
X139307900Y-84022900D03*
X133713100Y-65571600D03*
X173140800Y-66713500D03*
X169780500Y-101777700D03*
X124960200Y-49189800D03*
X175230700Y-55834300D03*
X132728400Y-50827800D03*
X134910500Y-79123700D03*
D20*
X121049900Y-94825600D03*
X173188000Y-92282000D03*
X173561600Y-106450000D03*
X141219400Y-107683500D03*
X139347100Y-109205700D03*
X117887600Y-108238000D03*
D21*
X130800000Y-49900000D02*
X129654700Y-51045300D01*
X122650400Y-50850400D02*
X119849600Y-50850400D01*
X122845300Y-51045300D02*
X122650400Y-50850400D01*
X129654700Y-51045300D02*
X122845300Y-51045300D01*
X119849600Y-50850400D02*
X118900000Y-51800000D01*
X146100000Y-49900000D02*
X130800000Y-49900000D01*
X147978700Y-51778700D02*
X146100000Y-49900000D01*
X171378700Y-51778700D02*
X147978700Y-51778700D01*
X173100000Y-53500000D02*
X171378700Y-51778700D01*
X116670000Y-56030000D02*
X111180000Y-56030000D01*
X175905700Y-55005700D02*
X174400000Y-53500000D01*
X175905700Y-55705700D02*
X175905700Y-55005700D01*
X174400000Y-53500000D02*
X173100000Y-53500000D01*
X176250000Y-56050000D02*
X175905700Y-55705700D01*
X180700000Y-56050000D02*
X176250000Y-56050000D01*
X118900000Y-51800000D02*
X118900000Y-53800000D01*
X118900000Y-53800000D02*
X116670000Y-56030000D01*
X180700000Y-88810000D02*
X175590000Y-88810000D01*
X175590000Y-88810000D02*
X175030000Y-89370000D01*
X175030000Y-89370000D02*
X111760000Y-89370000D01*
X111760000Y-89370000D02*
X111180000Y-88790000D01*
X180700000Y-93850000D02*
X177350000Y-93850000D01*
X177350000Y-93850000D02*
X174347900Y-90847900D01*
X174347900Y-90847900D02*
X126745700Y-90847900D01*
X126745700Y-90847900D02*
X123763600Y-93830000D01*
X123763600Y-93830000D02*
X111180000Y-93830000D01*
X180700000Y-91330000D02*
X176130000Y-91330000D01*
X176130000Y-91330000D02*
X175197700Y-90397700D01*
X175197700Y-90397700D02*
X116417400Y-90397700D01*
X116417400Y-90397700D02*
X115505100Y-91310000D01*
X115505100Y-91310000D02*
X111180000Y-91310000D01*
X176118600Y-96796600D02*
X168703400Y-96796600D01*
X166657600Y-98842400D02*
X159658900Y-98842400D01*
X168703400Y-96796600D02*
X166657600Y-98842400D01*
X159594600Y-98778100D02*
X117610800Y-98778100D01*
X159658900Y-98842400D02*
X159594600Y-98778100D01*
X117610800Y-98778100D02*
X115732200Y-96899500D01*
X180700000Y-98890000D02*
X176374900Y-98890000D01*
X166855204Y-99292500D02*
X159472400Y-99292500D01*
X159472400Y-99292500D02*
X159408100Y-99228200D01*
X176374900Y-98890000D02*
X175488200Y-98003300D01*
X175488200Y-98003300D02*
X168144404Y-98003300D01*
X168144404Y-98003300D02*
X166855204Y-99292500D01*
X159408100Y-99228200D02*
X115863300Y-99228200D01*
X115863300Y-99228200D02*
X115505100Y-98870000D01*
X115505100Y-98870000D02*
X111180000Y-98870000D01*
X180700000Y-108970000D02*
X175870000Y-108970000D01*
X170812600Y-101777800D02*
X169780500Y-101777800D01*
X175870000Y-108970000D02*
X175100000Y-108200000D01*
X175100000Y-108200000D02*
X175100000Y-106065200D01*
X175100000Y-106065200D02*
X170812600Y-101777800D01*
X169780500Y-101777800D02*
X169780500Y-101777700D01*
X180700000Y-114010000D02*
X175490000Y-114010000D01*
X175490000Y-114010000D02*
X173500000Y-116000000D01*
X173500000Y-116000000D02*
X120100000Y-116000000D01*
X120100000Y-116000000D02*
X118090000Y-113990000D01*
X118090000Y-113990000D02*
X111180000Y-113990000D01*
X180700000Y-111490000D02*
X176374900Y-111490000D01*
X176374900Y-111490000D02*
X172364900Y-115500000D01*
X172364900Y-115500000D02*
X121300000Y-115500000D01*
X121300000Y-115500000D02*
X117270000Y-111470000D01*
X117270000Y-111470000D02*
X111180000Y-111470000D01*
X176085400Y-110794300D02*
X171829700Y-115050000D01*
X171829700Y-115050000D02*
X122524800Y-115050000D01*
X122524800Y-115050000D02*
X120428300Y-112953500D01*
X180700000Y-116530000D02*
X176374900Y-116530000D01*
X176374900Y-116530000D02*
X176294900Y-116450000D01*
X176294900Y-116450000D02*
X111240000Y-116450000D01*
X111240000Y-116450000D02*
X111180000Y-116510000D01*
X180700000Y-119050000D02*
X176374900Y-119050000D01*
X176374900Y-119050000D02*
X174224900Y-116900000D01*
X174224900Y-116900000D02*
X120120000Y-116900000D01*
X120120000Y-116900000D02*
X117990000Y-119030000D01*
X117990000Y-119030000D02*
X111180000Y-119030000D01*
X139600000Y-127004900D02*
X141380400Y-128785300D01*
X167414700Y-128785300D02*
X169120000Y-127080000D01*
X141380400Y-128785300D02*
X167414700Y-128785300D01*
X169120000Y-127080000D02*
X169120000Y-126020000D01*
X128350000Y-126999800D02*
X130585600Y-129235400D01*
X130585600Y-129235400D02*
X172064600Y-129235400D01*
X172064600Y-129235400D02*
X174200000Y-127100000D01*
X174200000Y-127100000D02*
X174200000Y-126020000D01*
X161035000Y-120170000D02*
X161035000Y-119235000D01*
X161035000Y-119235000D02*
X160400000Y-118600000D01*
X160400000Y-118600000D02*
X151500000Y-118600000D01*
X151500000Y-118600000D02*
X150875000Y-119225000D01*
X150875000Y-119225000D02*
X150875000Y-120170000D01*
D22*
X148335000Y-120170000D02*
X150065000Y-121900000D01*
X150065000Y-121900000D02*
X154225000Y-121900000D01*
X154225000Y-121900000D02*
X155955000Y-120170000D01*
X163575000Y-120170000D02*
X160645000Y-123100000D01*
X160645000Y-123100000D02*
X148609200Y-123100000D01*
X148609200Y-123100000D02*
X144960000Y-119450800D01*
X144960000Y-119450800D02*
X144960000Y-118820000D01*
D21*
X180700000Y-121570000D02*
X176374900Y-121570000D01*
X173969700Y-123975200D02*
X144171300Y-123975200D01*
X176374900Y-121570000D02*
X173969700Y-123975200D01*
X144171300Y-123975200D02*
X143296100Y-123100000D01*
X119830300Y-123100000D02*
X118280300Y-121550000D01*
X143296100Y-123100000D02*
X119830300Y-123100000D01*
X118280300Y-121550000D02*
X111180000Y-121550000D01*
X130160000Y-119180000D02*
X131285100Y-119180000D01*
X131285100Y-119180000D02*
X133105100Y-121000000D01*
X133105100Y-121000000D02*
X137114900Y-121000000D01*
X137114900Y-121000000D02*
X138934900Y-119180000D01*
X138934900Y-119180000D02*
X140060000Y-119180000D01*
X169780500Y-101777700D02*
X169780500Y-101298500D01*
X169780500Y-101298500D02*
X169185900Y-100703900D01*
X169185900Y-100703900D02*
X168626700Y-100703900D01*
X168626700Y-100703900D02*
X167773200Y-101557400D01*
X167773200Y-101557400D02*
X158554300Y-101557400D01*
X158554300Y-101557400D02*
X158486700Y-101489800D01*
X158486700Y-101489800D02*
X123310200Y-101489800D01*
X123310200Y-101489800D02*
X115850000Y-108950000D01*
X115850000Y-108950000D02*
X111180000Y-108950000D01*
X111180000Y-96350000D02*
X111708700Y-95821300D01*
X111708700Y-95821300D02*
X137278700Y-95821300D01*
X137278700Y-95821300D02*
X139800000Y-93300000D01*
X139800000Y-93300000D02*
X174122700Y-93300000D01*
X174122700Y-93300000D02*
X177192700Y-96370000D01*
X177192700Y-96370000D02*
X180700000Y-96370000D01*
X130580000Y-97125000D02*
X129376900Y-98328100D01*
X129376900Y-98328100D02*
X121533200Y-98328100D01*
X121533200Y-98328100D02*
X120625100Y-97420000D01*
X120625100Y-97420000D02*
X119500000Y-97420000D01*
X135580900Y-114206200D02*
X133460000Y-112085300D01*
X133460000Y-112085300D02*
X133460000Y-111560000D01*
X136760000Y-111560000D02*
X135425000Y-110225000D01*
X135425000Y-110225000D02*
X121635000Y-110225000D01*
X121635000Y-110225000D02*
X120310000Y-111550000D01*
D22*
X139347100Y-109205700D02*
X139152800Y-109400000D01*
X139152800Y-109400000D02*
X118600000Y-109400000D01*
X118600000Y-109400000D02*
X117887600Y-108687600D01*
X117887600Y-108687600D02*
X117887600Y-108238000D01*
X144960000Y-113121300D02*
X135640000Y-103801300D01*
X135640000Y-103801300D02*
X135640000Y-103500000D01*
D21*
X180700000Y-103930000D02*
X174874600Y-103930000D01*
X174874600Y-103930000D02*
X170298200Y-99353600D01*
X170298200Y-99353600D02*
X168067100Y-99353600D01*
X168067100Y-99353600D02*
X167213600Y-100207100D01*
X167213600Y-100207100D02*
X159113800Y-100207100D01*
X118771600Y-100128400D02*
X114990000Y-103910000D01*
X159113800Y-100207100D02*
X159035100Y-100128400D01*
X159035100Y-100128400D02*
X118771600Y-100128400D01*
X114990000Y-103910000D02*
X111180000Y-103910000D01*
D22*
X121500000Y-87300000D02*
X121033600Y-86833600D01*
X121033600Y-86833600D02*
X116443700Y-86833600D01*
X116443700Y-86833600D02*
X115880100Y-86270000D01*
X115880100Y-86270000D02*
X111180000Y-86270000D01*
D21*
X180700000Y-81250000D02*
X175093004Y-81250000D01*
X134196800Y-85850000D02*
X133846100Y-85499300D01*
X133846100Y-85499300D02*
X132880400Y-85499300D01*
X175093004Y-81250000D02*
X171243004Y-85100000D01*
X132880400Y-85499300D02*
X132267600Y-84886500D01*
X132267600Y-84886500D02*
X118386500Y-84886500D01*
X171243004Y-85100000D02*
X168073800Y-85100000D01*
X167323800Y-85850000D02*
X134196800Y-85850000D01*
X118386500Y-84886500D02*
X114730000Y-81230000D01*
X168073800Y-85100000D02*
X167323800Y-85850000D01*
X114730000Y-81230000D02*
X111180000Y-81230000D01*
X128040000Y-81885000D02*
X126550100Y-80395100D01*
X126550100Y-80395100D02*
X121658704Y-80395100D01*
X121658704Y-80395100D02*
X120939404Y-79675800D01*
X120939404Y-79675800D02*
X116566300Y-79675800D01*
X139028300Y-83347800D02*
X139587600Y-83347800D01*
X138576100Y-83800000D02*
X139028300Y-83347800D01*
X136900000Y-83800000D02*
X138576100Y-83800000D01*
X136400000Y-83300000D02*
X136900000Y-83800000D01*
X134390000Y-82590000D02*
X135100000Y-83300000D01*
X134390000Y-80790000D02*
X134390000Y-82590000D01*
X139587600Y-83347800D02*
X141639800Y-85400000D01*
X141639800Y-85400000D02*
X167137404Y-85400000D01*
X167887404Y-84650000D02*
X171056608Y-84650000D01*
X121694700Y-79794700D02*
X133394700Y-79794700D01*
X133394700Y-79794700D02*
X134390000Y-80790000D01*
X135100000Y-83300000D02*
X136400000Y-83300000D01*
X167137404Y-85400000D02*
X167887404Y-84650000D01*
X120610000Y-78710000D02*
X121694700Y-79794700D01*
X111180000Y-78710000D02*
X120610000Y-78710000D01*
X171056608Y-84650000D02*
X175510108Y-80196500D01*
X175510108Y-80196500D02*
X176002600Y-80196500D01*
X176002600Y-80196500D02*
X176398000Y-79801100D01*
X176398000Y-79801100D02*
X176398000Y-78902000D01*
X176398000Y-78902000D02*
X176570000Y-78730000D01*
X176570000Y-78730000D02*
X180700000Y-78730000D01*
X180700000Y-71170000D02*
X174621300Y-71170000D01*
X174621300Y-71170000D02*
X169522900Y-76268400D01*
X169522900Y-76268400D02*
X144887800Y-76268400D01*
X122399992Y-77300000D02*
X121519292Y-76419300D01*
X144887800Y-76268400D02*
X143856200Y-77300000D01*
X143856200Y-77300000D02*
X122399992Y-77300000D01*
X121519292Y-76419300D02*
X121199892Y-76419300D01*
X121199892Y-76419300D02*
X115930592Y-71150000D01*
X115930592Y-71150000D02*
X111180000Y-71150000D01*
X111180000Y-73670000D02*
X111858700Y-72991300D01*
X122263596Y-77800000D02*
X144217600Y-77800000D01*
X111858700Y-72991300D02*
X117135496Y-72991300D01*
X117135496Y-72991300D02*
X121013496Y-76869300D01*
X121013496Y-76869300D02*
X121332896Y-76869300D01*
X121332896Y-76869300D02*
X122263596Y-77800000D01*
X144217600Y-77800000D02*
X145299000Y-76718600D01*
X145299000Y-76718600D02*
X170200400Y-76718600D01*
X170200400Y-76718600D02*
X173228900Y-73690100D01*
X173228900Y-73690100D02*
X176374900Y-73690100D01*
X176374900Y-73690100D02*
X176374900Y-73690000D01*
X176374900Y-73690000D02*
X180700000Y-73690000D01*
D22*
X151900000Y-72100000D02*
X151900000Y-73600000D01*
X151900000Y-73600000D02*
X153743400Y-75443400D01*
X153743400Y-75443400D02*
X168721600Y-75443400D01*
X168721600Y-75443400D02*
X170765000Y-73400000D01*
X143205100Y-75850000D02*
X140955100Y-73600000D01*
X140955100Y-73600000D02*
X121938700Y-73600000D01*
X121938700Y-73600000D02*
X121200000Y-74338700D01*
D21*
X130580000Y-81885000D02*
X129402500Y-83062500D01*
X120302500Y-83062500D02*
X117590900Y-80350900D01*
X129402500Y-83062500D02*
X120302500Y-83062500D01*
X127581900Y-81885000D02*
X128966900Y-80500000D01*
X135380405Y-83795800D02*
X136195800Y-83795800D01*
X128966900Y-80500000D02*
X131100000Y-80500000D01*
X131100000Y-80500000D02*
X131900000Y-81300000D01*
X131900000Y-81300000D02*
X131900000Y-82500000D01*
X131900000Y-82500000D02*
X132500000Y-83100000D01*
X132500000Y-83100000D02*
X134148100Y-83100000D01*
X134148100Y-83100000D02*
X134848100Y-83800000D01*
X134848100Y-83800000D02*
X135376205Y-83800000D01*
X135376205Y-83800000D02*
X135380405Y-83795800D01*
X136195800Y-83795800D02*
X136700000Y-84300000D01*
X136700000Y-84300000D02*
X139030800Y-84300000D01*
X139030800Y-84300000D02*
X139307900Y-84022900D01*
X175722900Y-79521400D02*
X175548812Y-79521400D01*
X175548812Y-79521400D02*
X170870212Y-84200000D01*
X170870212Y-84200000D02*
X167700000Y-84200000D01*
X167700000Y-84200000D02*
X166950000Y-84950000D01*
X135685000Y-81885000D02*
X135660000Y-81885000D01*
X166950000Y-84950000D02*
X141826400Y-84950000D01*
X141826400Y-84950000D02*
X139774100Y-82897700D01*
X139774100Y-82897700D02*
X138841800Y-82897700D01*
X138841800Y-82897700D02*
X138439500Y-83300000D01*
X138439500Y-83300000D02*
X137100000Y-83300000D01*
X137100000Y-83300000D02*
X135685000Y-81885000D01*
X115889300Y-76630200D02*
X117478600Y-78219500D01*
X134176700Y-79344600D02*
X135232100Y-80400000D01*
X117478600Y-78219500D02*
X120769400Y-78219500D01*
X121894500Y-79344600D02*
X134176700Y-79344600D01*
X120769400Y-78219500D02*
X121894500Y-79344600D01*
X135232100Y-80400000D02*
X136715000Y-80400000D01*
X136715000Y-80400000D02*
X138200000Y-81885000D01*
X138200000Y-81885000D02*
X139647900Y-80437100D01*
X139647900Y-80437100D02*
X168391600Y-80437100D01*
X168391600Y-80437100D02*
X172100300Y-76728400D01*
X172100300Y-76728400D02*
X175712000Y-76728400D01*
X175712000Y-76728400D02*
X175873100Y-76889500D01*
X180720000Y-83770000D02*
X173209400Y-83770000D01*
X173209400Y-83770000D02*
X171419800Y-85559600D01*
X171419800Y-85559600D02*
X168250800Y-85559600D01*
X168250800Y-85559600D02*
X167510400Y-86300000D01*
X132693900Y-85949400D02*
X132081100Y-85336600D01*
X167510400Y-86300000D02*
X134010200Y-86300000D01*
X134010200Y-86300000D02*
X133659600Y-85949400D01*
X115608900Y-83750000D02*
X111200000Y-83750000D01*
X133659600Y-85949400D02*
X132693900Y-85949400D01*
X132081100Y-85336600D02*
X117195500Y-85336600D01*
X117195500Y-85336600D02*
X115608900Y-83750000D01*
D22*
X180700000Y-86290000D02*
X175999900Y-86290000D01*
X175999900Y-86290000D02*
X175450000Y-85740100D01*
X175450000Y-85740100D02*
X172659900Y-85740100D01*
X172659900Y-85740100D02*
X172000900Y-86399100D01*
X172000900Y-86399100D02*
X168858600Y-86399100D01*
X168858600Y-86399100D02*
X168844100Y-86384600D01*
D21*
X133379900Y-86624500D02*
X133979500Y-87224100D01*
X133979500Y-87224100D02*
X172829300Y-87224100D01*
X172829300Y-87224100D02*
X173263200Y-86790200D01*
X174745300Y-86797500D02*
X174037000Y-87505800D01*
X174037000Y-87505800D02*
X173400000Y-87505800D01*
X173400000Y-87505800D02*
X173231600Y-87674200D01*
X173231600Y-87674200D02*
X133474900Y-87674200D01*
X133474900Y-87674200D02*
X131809100Y-86008400D01*
X131809100Y-86008400D02*
X116912500Y-86008400D01*
X116912500Y-86008400D02*
X115754600Y-84850500D01*
X174962400Y-87956000D02*
X173644000Y-87956000D01*
X173644000Y-87956000D02*
X173143500Y-88456500D01*
X173143500Y-88456500D02*
X117639500Y-88456500D01*
X117639500Y-88456500D02*
X117076000Y-87893000D01*
D22*
X153440000Y-81885000D02*
X151650000Y-83675000D01*
X151650000Y-83675000D02*
X150150000Y-83675000D01*
X150150000Y-83675000D02*
X148360000Y-81885000D01*
D21*
X145820000Y-81885000D02*
X145820000Y-82920000D01*
X145820000Y-82920000D02*
X147400000Y-84500000D01*
X147400000Y-84500000D02*
X165876700Y-84500000D01*
X165876700Y-84500000D02*
X166602400Y-83774300D01*
X165685000Y-73400000D02*
X165685000Y-72485000D01*
X165685000Y-72485000D02*
X163000000Y-69800000D01*
X163000000Y-69800000D02*
X157723800Y-69800000D01*
X157723800Y-69800000D02*
X155568000Y-67644200D01*
X163145000Y-73400000D02*
X161945000Y-74600000D01*
X161945000Y-74600000D02*
X159600000Y-74600000D01*
X158627600Y-73627600D02*
X158627600Y-73400000D01*
X159600000Y-74600000D02*
X158627600Y-73627600D01*
X134835000Y-68230000D02*
X134835000Y-68935000D01*
X136684300Y-70784300D02*
X152584300Y-70784300D01*
X134835000Y-68935000D02*
X136684300Y-70784300D01*
X152584300Y-70784300D02*
X153364100Y-71564100D01*
X153364100Y-71564100D02*
X153364100Y-72340700D01*
X153364100Y-72340700D02*
X153364200Y-72340700D01*
X155525000Y-73400000D02*
X155525000Y-72725000D01*
X155525000Y-72725000D02*
X152975300Y-70175300D01*
X152975300Y-70175300D02*
X138575300Y-70175300D01*
X138575300Y-70175300D02*
X137375000Y-68975000D01*
X137375000Y-68975000D02*
X137375000Y-68230000D01*
X158627600Y-73400000D02*
X154827600Y-69600000D01*
X154827600Y-69600000D02*
X140500000Y-69600000D01*
X140500000Y-69600000D02*
X139915000Y-69015000D01*
X139915000Y-69015000D02*
X139915000Y-68230000D01*
D22*
X180700000Y-68650000D02*
X176150000Y-68650000D01*
X176150000Y-68650000D02*
X174014900Y-68650000D01*
X176086000Y-68586000D02*
X176150000Y-68650000D01*
X176086000Y-66130000D02*
X176086000Y-68586000D01*
X180700000Y-66130000D02*
X176086000Y-66130000D01*
X176086000Y-66130000D02*
X172656000Y-62700000D01*
X172656000Y-62700000D02*
X170765000Y-62700000D01*
D21*
X133713100Y-65571600D02*
X151667500Y-65571600D01*
X151667500Y-65571600D02*
X153039100Y-64200000D01*
X156800000Y-64900000D02*
X156800000Y-66500000D01*
X153039100Y-64200000D02*
X156100000Y-64200000D01*
X156800000Y-66500000D02*
X157600000Y-67300000D01*
X172554300Y-67300000D02*
X173140800Y-66713500D01*
X156100000Y-64200000D02*
X156800000Y-64900000D01*
X157600000Y-67300000D02*
X172554300Y-67300000D01*
D22*
X111180000Y-61070000D02*
X117508100Y-61070000D01*
X172262156Y-61000000D02*
X180610000Y-61000000D01*
X117508100Y-61070000D02*
X120738100Y-64300000D01*
X120738100Y-64300000D02*
X151586187Y-64300000D01*
X154825000Y-60400000D02*
X171662156Y-60400000D01*
X171662156Y-60400000D02*
X172262156Y-61000000D01*
X151586187Y-64300000D02*
X153700000Y-62186187D01*
X153700000Y-62186187D02*
X153700000Y-61525000D01*
X180610000Y-61000000D02*
X180700000Y-61090000D01*
X153700000Y-61525000D02*
X154825000Y-60400000D01*
D21*
X140360000Y-56825400D02*
X138574600Y-56825400D01*
X138574600Y-56825400D02*
X132880000Y-62520000D01*
X132880000Y-62520000D02*
X132840000Y-62520000D01*
X160605000Y-55080000D02*
X160605000Y-55405000D01*
X164700000Y-56600000D02*
X165685000Y-55615000D01*
X165685000Y-55615000D02*
X165685000Y-55080000D01*
X160605000Y-55405000D02*
X161800000Y-56600000D01*
X161800000Y-56600000D02*
X164700000Y-56600000D01*
X132728400Y-50827800D02*
X133206200Y-50350000D01*
X133206200Y-50350000D02*
X145663400Y-50350000D01*
X145663400Y-50350000D02*
X148239100Y-52925700D01*
X148239100Y-52925700D02*
X171525700Y-52925700D01*
X171525700Y-52925700D02*
X174434300Y-55834300D01*
X174434300Y-55834300D02*
X175230700Y-55834300D01*
X123779700Y-50204200D02*
X127182100Y-50204200D01*
X127986300Y-49400000D02*
X146402500Y-49400000D01*
X127182100Y-50204200D02*
X127986300Y-49400000D01*
X146402500Y-49400000D02*
X148202500Y-51200000D01*
X148202500Y-51200000D02*
X172162900Y-51200000D01*
X172162900Y-51200000D02*
X173427100Y-52464200D01*
X124789300Y-48332300D02*
X124257000Y-47800000D01*
X124257000Y-47800000D02*
X119500000Y-47800000D01*
X119500000Y-47800000D02*
X117914200Y-49385800D01*
X117914200Y-49385800D02*
X117914200Y-52130000D01*
X117914200Y-52130000D02*
X116534200Y-53510000D01*
X116534200Y-53510000D02*
X111180000Y-53510000D01*
X119442300Y-100578500D02*
X116441300Y-103579500D01*
X158848600Y-100578500D02*
X119442300Y-100578500D01*
X158927300Y-100657200D02*
X158848600Y-100578500D01*
X167400100Y-100657200D02*
X158927300Y-100657200D01*
X168253600Y-99803700D02*
X167400100Y-100657200D01*
X170111700Y-99803700D02*
X168253600Y-99803700D01*
X175200000Y-104892000D02*
X170111700Y-99803700D01*
X175583500Y-104892000D02*
X175200000Y-104892000D01*
X115850000Y-89947600D02*
X115739400Y-90058200D01*
X176026400Y-89947600D02*
X115850000Y-89947600D01*
X176163500Y-90084700D02*
X176026400Y-89947600D01*
X116211500Y-88919800D02*
X115745000Y-88453300D01*
X174082900Y-88919800D02*
X116211500Y-88919800D01*
X174327000Y-88675700D02*
X174082900Y-88919800D01*
X173849100Y-91435000D02*
X176133400Y-93719300D01*
X136942800Y-91435000D02*
X173849100Y-91435000D01*
X136854800Y-91523000D02*
X136942800Y-91435000D01*
X118174000Y-91072900D02*
X124626500Y-91072900D01*
X116101000Y-93145900D02*
X118174000Y-91072900D01*
X111180000Y-101390000D02*
X115505100Y-101390000D01*
X180700000Y-101410000D02*
X176374900Y-101410000D01*
X168813200Y-98678400D02*
X168813200Y-98903500D01*
X173868400Y-98903500D02*
X168813200Y-98903500D01*
X176374900Y-101410000D02*
X173868400Y-98903500D01*
X117216800Y-99678300D02*
X115505100Y-101390000D01*
X159221600Y-99678300D02*
X117216800Y-99678300D01*
X159285900Y-99742600D02*
X159221600Y-99678300D01*
X167041500Y-99742600D02*
X159285900Y-99742600D01*
X167880600Y-98903500D02*
X167041500Y-99742600D01*
X168813200Y-98903500D02*
X167880600Y-98903500D01*
X160162300Y-98160100D02*
X162993100Y-95329300D01*
X159931500Y-98160100D02*
X160162300Y-98160100D01*
X126860000Y-111560000D02*
X130160000Y-111560000D01*
X140060000Y-111560000D02*
X136760000Y-111560000D01*
X120810000Y-49535000D02*
X121985100Y-49535000D01*
X123779700Y-50370100D02*
X123779700Y-50204200D01*
X123110500Y-49535000D02*
X121985100Y-49535000D01*
X123779700Y-50204200D02*
X123110500Y-49535000D01*
X160605000Y-62700000D02*
X158065000Y-62700000D01*
X158065000Y-73400000D02*
X158627600Y-73400000D01*
X172520000Y-77900000D02*
X172520000Y-79025100D01*
X172520000Y-80690000D02*
X172520000Y-79025100D01*
X170340000Y-82870000D02*
X172520000Y-80690000D01*
X165135200Y-105150000D02*
X158802500Y-105150000D01*
X168906200Y-101379000D02*
X165135200Y-105150000D01*
X158065000Y-65780000D02*
X160605000Y-65780000D01*
X159638500Y-79043200D02*
X160635900Y-78045800D01*
X148133200Y-79043200D02*
X159638500Y-79043200D01*
X146990000Y-77900000D02*
X148133200Y-79043200D01*
X145400000Y-56275000D02*
X144224900Y-56275000D01*
X120810000Y-52075000D02*
X121985100Y-52075000D01*
X170097700Y-110550000D02*
X170010100Y-110550000D01*
X169960000Y-110550000D02*
X170010100Y-110550000D01*
X123234800Y-53324700D02*
X121985100Y-52075000D01*
X141274600Y-53324700D02*
X123234800Y-53324700D01*
X144224900Y-56275000D02*
X141274600Y-53324700D01*
X170097700Y-110550000D02*
X171085100Y-110550000D01*
X171095100Y-110560000D02*
X171085100Y-110550000D01*
X173260000Y-110560000D02*
X171095100Y-110560000D01*
X173260000Y-110560000D02*
X173260000Y-109434900D01*
X170821700Y-102511100D02*
X170320200Y-102511100D01*
X174416600Y-106106000D02*
X170821700Y-102511100D01*
X174416600Y-108278300D02*
X174416600Y-106106000D01*
X173260000Y-109434900D02*
X174416600Y-108278300D01*
X132410000Y-48120000D02*
X136450000Y-48120000D01*
X162604700Y-49670000D02*
X162204700Y-49270000D01*
X169860000Y-49670000D02*
X162604700Y-49670000D01*
X158404700Y-49270000D02*
X157279600Y-49270000D01*
X145979900Y-48120000D02*
X144070000Y-48120000D01*
X148388800Y-50528900D02*
X145979900Y-48120000D01*
X156020700Y-50528900D02*
X148388800Y-50528900D01*
X157279600Y-49270000D02*
X156020700Y-50528900D01*
X140360000Y-56370000D02*
X140360000Y-56825400D01*
X142349600Y-58815000D02*
X140360000Y-56825400D01*
X145400000Y-58815000D02*
X142349600Y-58815000D01*
X165685000Y-65780000D02*
X168225000Y-65780000D01*
X164900000Y-77900000D02*
X162300000Y-77900000D01*
X154610000Y-77900000D02*
X157300000Y-77900000D01*
D22*
X133253900Y-102664000D02*
X134089900Y-103500000D01*
X127010000Y-102664000D02*
X133253900Y-102664000D01*
X135640000Y-103500000D02*
X134089900Y-103500000D01*
X120593900Y-107580000D02*
X125509900Y-102664000D01*
X119500000Y-107580000D02*
X120593900Y-107580000D01*
X127010000Y-102664000D02*
X125509900Y-102664000D01*
X121830000Y-58550000D02*
X124210000Y-56170000D01*
X111180000Y-58550000D02*
X121830000Y-58550000D01*
X168225000Y-62700000D02*
X165685000Y-62700000D01*
X121500000Y-92300000D02*
X118270200Y-92300000D01*
X148335000Y-112550000D02*
X146834900Y-112550000D01*
X146263600Y-113121300D02*
X146834900Y-112550000D01*
X144960000Y-113121300D02*
X146263600Y-113121300D01*
X144960000Y-113820000D02*
X144960000Y-113121300D01*
X126202200Y-66702800D02*
X124675000Y-68230000D01*
X151900000Y-66702800D02*
X126202200Y-66702800D01*
X151900000Y-66702800D02*
X151900000Y-67100000D01*
X121904900Y-69500000D02*
X123174900Y-68230000D01*
X121200000Y-69500000D02*
X121904900Y-69500000D01*
X124675000Y-68230000D02*
X123174900Y-68230000D01*
X144090000Y-51670000D02*
X145590100Y-51670000D01*
X150320100Y-56400000D02*
X151900000Y-56400000D01*
X145590100Y-51670000D02*
X150320100Y-56400000D01*
X180700000Y-58570000D02*
X175999900Y-58570000D01*
X152822800Y-65780000D02*
X155525000Y-65780000D01*
X151900000Y-66702800D02*
X152822800Y-65780000D01*
X159015000Y-58570000D02*
X155525000Y-55080000D01*
X168798400Y-58570000D02*
X159015000Y-58570000D01*
X175999900Y-58570000D02*
X168798400Y-58570000D01*
X145400000Y-61355000D02*
X143849900Y-61355000D01*
X146995100Y-61400000D02*
X146950100Y-61355000D01*
X151900000Y-61400000D02*
X146995100Y-61400000D01*
X145400000Y-61355000D02*
X146950100Y-61355000D01*
X143834900Y-61370000D02*
X140360000Y-61370000D01*
X143849900Y-61355000D02*
X143834900Y-61370000D01*
X138030100Y-61370000D02*
X136880100Y-62520000D01*
X140360000Y-61370000D02*
X138030100Y-61370000D01*
X135380000Y-62520000D02*
X136880100Y-62520000D01*
X115880100Y-68630000D02*
X115880100Y-66110000D01*
X111180000Y-66110000D02*
X115880100Y-66110000D01*
X111180000Y-68630000D02*
X115580100Y-68630000D01*
X115580100Y-68630000D02*
X115880100Y-68630000D01*
X123610000Y-119170000D02*
X120310000Y-119170000D01*
X147705100Y-72100000D02*
X151900000Y-72100000D01*
X143955100Y-75850000D02*
X147705100Y-72100000D01*
X125120100Y-119180000D02*
X125110100Y-119170000D01*
X126860000Y-119180000D02*
X125120100Y-119180000D01*
X123610000Y-119170000D02*
X125110100Y-119170000D01*
X142455000Y-75850000D02*
X143205100Y-75850000D01*
X143205100Y-75850000D02*
X143955100Y-75850000D01*
X121200000Y-74500000D02*
X121200000Y-74338700D01*
X121200000Y-73949900D02*
X115880100Y-68630000D01*
X121200000Y-74338700D02*
X121200000Y-73949900D01*
X174014900Y-68650000D02*
X170765000Y-71899900D01*
X170765000Y-73400000D02*
X170765000Y-71899900D01*
X168844100Y-94271600D02*
X168844100Y-94271500D01*
X141053400Y-94271600D02*
X168844100Y-94271600D01*
X138200000Y-97125000D02*
X141053400Y-94271600D01*
D21*
X172882800Y-74672900D02*
X175795000Y-74672900D01*
X168018800Y-79536900D02*
X172882800Y-74672900D01*
X140463800Y-79536900D02*
X168018800Y-79536900D01*
X139614900Y-78688000D02*
X140463800Y-79536900D01*
X139296500Y-78369600D02*
X139614900Y-78688000D01*
X122196800Y-78369600D02*
X139296500Y-78369600D01*
X121146500Y-77319300D02*
X122196800Y-78369600D01*
X120827100Y-77319300D02*
X121146500Y-77319300D01*
X117234700Y-73726900D02*
X120827100Y-77319300D01*
X115737100Y-73726900D02*
X117234700Y-73726900D01*
X132488500Y-84470800D02*
X135660000Y-84470800D01*
X132454100Y-84436400D02*
X132488500Y-84470800D01*
X118979000Y-84436400D02*
X132454100Y-84436400D01*
X115772600Y-81230000D02*
X118979000Y-84436400D01*
X119444400Y-83795700D02*
X117349900Y-81701200D01*
X132796700Y-83795700D02*
X119444400Y-83795700D01*
X128040000Y-81885000D02*
X127581900Y-81885000D01*
X116357400Y-106430000D02*
X111180000Y-106430000D01*
X121747600Y-101039800D02*
X116357400Y-106430000D01*
X158673300Y-101039800D02*
X121747600Y-101039800D01*
X158740800Y-101107300D02*
X158673300Y-101039800D01*
X167586700Y-101107300D02*
X158740800Y-101107300D01*
X168440200Y-100253800D02*
X167586700Y-101107300D01*
X169925200Y-100253800D02*
X168440200Y-100253800D01*
X176121400Y-106450000D02*
X169925200Y-100253800D01*
X180700000Y-106450000D02*
X176121400Y-106450000D01*
X168225000Y-55080000D02*
X170765000Y-55080000D01*
X180700000Y-53530000D02*
X176374900Y-53530000D01*
X124789300Y-49018900D02*
X124960200Y-49189800D01*
X124789300Y-48332300D02*
X124789300Y-49018900D01*
X126554900Y-46566700D02*
X124789300Y-48332300D01*
X170992200Y-46566700D02*
X126554900Y-46566700D01*
X174178500Y-49753000D02*
X170992200Y-46566700D01*
X174178500Y-51333600D02*
X174178500Y-49753000D01*
X176374900Y-53530000D02*
X174178500Y-51333600D01*
X171982200Y-76210000D02*
X180700000Y-76210000D01*
X168205200Y-79987000D02*
X171982200Y-76210000D01*
X139882100Y-79987000D02*
X168205200Y-79987000D01*
X139018800Y-79123700D02*
X139882100Y-79987000D01*
X134910500Y-79123700D02*
X139018800Y-79123700D01*
X134681300Y-78894500D02*
X134910500Y-79123700D01*
X122081000Y-78894500D02*
X134681300Y-78894500D01*
X120955900Y-77769400D02*
X122081000Y-78894500D01*
X120640600Y-77769400D02*
X120955900Y-77769400D01*
X118791000Y-75919800D02*
X120640600Y-77769400D01*
X111450200Y-75919800D02*
X118791000Y-75919800D01*
X111180000Y-76190000D02*
X111450200Y-75919800D01*
D22*
X138582200Y-92282000D02*
X173188000Y-92282000D01*
X136038600Y-94825600D02*
X138582200Y-92282000D01*
X121049900Y-94825600D02*
X136038600Y-94825600D01*
X142452900Y-106450000D02*
X141219400Y-107683500D01*
X173561600Y-106450000D02*
X142452900Y-106450000D01*
M02*
