G04 #@! TF.GenerationSoftware,KiCad,Pcbnew,6.0.11+dfsg-1*
G04 #@! TF.CreationDate,2025-03-28T14:55:45+01:00*
G04 #@! TF.ProjectId,Melodik2,4d656c6f-6469-46b3-922e-6b696361645f,2.0*
G04 #@! TF.SameCoordinates,Original*
G04 #@! TF.FileFunction,Copper,L1,Top*
G04 #@! TF.FilePolarity,Positive*
%FSLAX46Y46*%
G04 Gerber Fmt 4.6, Leading zero omitted, Abs format (unit mm)*
G04 Created by KiCad (PCBNEW 6.0.11+dfsg-1) date 2025-03-28 14:55:45*
%MOMM*%
%LPD*%
G01*
G04 APERTURE LIST*
%ADD10C,0.250000*%
G04 #@! TA.AperFunction,NonConductor*
%ADD11C,0.250000*%
G04 #@! TD*
G04 #@! TA.AperFunction,ComponentPad*
%ADD12C,1.600000*%
G04 #@! TD*
G04 #@! TA.AperFunction,ComponentPad*
%ADD13O,1.600000X1.600000*%
G04 #@! TD*
G04 #@! TA.AperFunction,ComponentPad*
%ADD14R,1.600000X1.600000*%
G04 #@! TD*
G04 #@! TA.AperFunction,SMDPad,CuDef*
%ADD15R,8.000000X2.000000*%
G04 #@! TD*
G04 #@! TA.AperFunction,ComponentPad*
%ADD16R,1.700000X1.700000*%
G04 #@! TD*
G04 #@! TA.AperFunction,ComponentPad*
%ADD17O,1.700000X1.700000*%
G04 #@! TD*
G04 #@! TA.AperFunction,ComponentPad*
%ADD18C,1.500000*%
G04 #@! TD*
G04 #@! TA.AperFunction,ViaPad*
%ADD19C,0.700000*%
G04 #@! TD*
G04 #@! TA.AperFunction,ViaPad*
%ADD20C,1.000000*%
G04 #@! TD*
G04 #@! TA.AperFunction,Conductor*
%ADD21C,1.000000*%
G04 #@! TD*
G04 #@! TA.AperFunction,Conductor*
%ADD22C,0.250000*%
G04 #@! TD*
G04 APERTURE END LIST*
D10*
D11*
X154462380Y-126067380D02*
X154462380Y-125067380D01*
X154795714Y-125781666D01*
X155129047Y-125067380D01*
X155129047Y-126067380D01*
X155986190Y-126019761D02*
X155890952Y-126067380D01*
X155700476Y-126067380D01*
X155605238Y-126019761D01*
X155557619Y-125924523D01*
X155557619Y-125543571D01*
X155605238Y-125448333D01*
X155700476Y-125400714D01*
X155890952Y-125400714D01*
X155986190Y-125448333D01*
X156033809Y-125543571D01*
X156033809Y-125638809D01*
X155557619Y-125734047D01*
X156605238Y-126067380D02*
X156510000Y-126019761D01*
X156462380Y-125924523D01*
X156462380Y-125067380D01*
X157129047Y-126067380D02*
X157033809Y-126019761D01*
X156986190Y-125972142D01*
X156938571Y-125876904D01*
X156938571Y-125591190D01*
X156986190Y-125495952D01*
X157033809Y-125448333D01*
X157129047Y-125400714D01*
X157271904Y-125400714D01*
X157367142Y-125448333D01*
X157414761Y-125495952D01*
X157462380Y-125591190D01*
X157462380Y-125876904D01*
X157414761Y-125972142D01*
X157367142Y-126019761D01*
X157271904Y-126067380D01*
X157129047Y-126067380D01*
X158319523Y-126067380D02*
X158319523Y-125067380D01*
X158319523Y-126019761D02*
X158224285Y-126067380D01*
X158033809Y-126067380D01*
X157938571Y-126019761D01*
X157890952Y-125972142D01*
X157843333Y-125876904D01*
X157843333Y-125591190D01*
X157890952Y-125495952D01*
X157938571Y-125448333D01*
X158033809Y-125400714D01*
X158224285Y-125400714D01*
X158319523Y-125448333D01*
X158795714Y-126067380D02*
X158795714Y-125400714D01*
X158795714Y-125067380D02*
X158748095Y-125115000D01*
X158795714Y-125162619D01*
X158843333Y-125115000D01*
X158795714Y-125067380D01*
X158795714Y-125162619D01*
X159271904Y-126067380D02*
X159271904Y-125067380D01*
X159367142Y-125686428D02*
X159652857Y-126067380D01*
X159652857Y-125400714D02*
X159271904Y-125781666D01*
X160033809Y-125162619D02*
X160081428Y-125115000D01*
X160176666Y-125067380D01*
X160414761Y-125067380D01*
X160510000Y-125115000D01*
X160557619Y-125162619D01*
X160605238Y-125257857D01*
X160605238Y-125353095D01*
X160557619Y-125495952D01*
X159986190Y-126067380D01*
X160605238Y-126067380D01*
X154510000Y-127677380D02*
X154510000Y-126677380D01*
X154510000Y-127058333D02*
X154605238Y-127010714D01*
X154795714Y-127010714D01*
X154890952Y-127058333D01*
X154938571Y-127105952D01*
X154986190Y-127201190D01*
X154986190Y-127486904D01*
X154938571Y-127582142D01*
X154890952Y-127629761D01*
X154795714Y-127677380D01*
X154605238Y-127677380D01*
X154510000Y-127629761D01*
X155319523Y-127010714D02*
X155557619Y-127677380D01*
X155795714Y-127010714D02*
X155557619Y-127677380D01*
X155462380Y-127915476D01*
X155414761Y-127963095D01*
X155319523Y-128010714D01*
X156843333Y-127010714D02*
X157367142Y-127010714D01*
X156843333Y-127677380D01*
X157367142Y-127677380D01*
X157938571Y-126677380D02*
X158033809Y-126677380D01*
X158129047Y-126725000D01*
X158176666Y-126772619D01*
X158224285Y-126867857D01*
X158271904Y-127058333D01*
X158271904Y-127296428D01*
X158224285Y-127486904D01*
X158176666Y-127582142D01*
X158129047Y-127629761D01*
X158033809Y-127677380D01*
X157938571Y-127677380D01*
X157843333Y-127629761D01*
X157795714Y-127582142D01*
X157748095Y-127486904D01*
X157700476Y-127296428D01*
X157700476Y-127058333D01*
X157748095Y-126867857D01*
X157795714Y-126772619D01*
X157843333Y-126725000D01*
X157938571Y-126677380D01*
X158890952Y-126677380D02*
X158986190Y-126677380D01*
X159081428Y-126725000D01*
X159129047Y-126772619D01*
X159176666Y-126867857D01*
X159224285Y-127058333D01*
X159224285Y-127296428D01*
X159176666Y-127486904D01*
X159129047Y-127582142D01*
X159081428Y-127629761D01*
X158986190Y-127677380D01*
X158890952Y-127677380D01*
X158795714Y-127629761D01*
X158748095Y-127582142D01*
X158700476Y-127486904D01*
X158652857Y-127296428D01*
X158652857Y-127058333D01*
X158700476Y-126867857D01*
X158748095Y-126772619D01*
X158795714Y-126725000D01*
X158890952Y-126677380D01*
X159652857Y-127677380D02*
X159652857Y-127010714D01*
X159652857Y-127105952D02*
X159700476Y-127058333D01*
X159795714Y-127010714D01*
X159938571Y-127010714D01*
X160033809Y-127058333D01*
X160081428Y-127153571D01*
X160081428Y-127677380D01*
X160081428Y-127153571D02*
X160129047Y-127058333D01*
X160224285Y-127010714D01*
X160367142Y-127010714D01*
X160462380Y-127058333D01*
X160510000Y-127153571D01*
X160510000Y-127677380D01*
D12*
X144070000Y-48120000D03*
D13*
X136450000Y-48120000D03*
D12*
X120310000Y-111550000D03*
D13*
X120310000Y-119170000D03*
D14*
X155525000Y-62700000D03*
D13*
X158065000Y-62700000D03*
X160605000Y-62700000D03*
X163145000Y-62700000D03*
X165685000Y-62700000D03*
X168225000Y-62700000D03*
X170765000Y-62700000D03*
X170765000Y-55080000D03*
X168225000Y-55080000D03*
X165685000Y-55080000D03*
X163145000Y-55080000D03*
X160605000Y-55080000D03*
X158065000Y-55080000D03*
X155525000Y-55080000D03*
D12*
X121500000Y-92300000D03*
X121500000Y-87300000D03*
D14*
X124675000Y-75850000D03*
D13*
X127215000Y-75850000D03*
X129755000Y-75850000D03*
X132295000Y-75850000D03*
X134835000Y-75850000D03*
X137375000Y-75850000D03*
X139915000Y-75850000D03*
X142455000Y-75850000D03*
X142455000Y-68230000D03*
X139915000Y-68230000D03*
X137375000Y-68230000D03*
X134835000Y-68230000D03*
X132295000Y-68230000D03*
X129755000Y-68230000D03*
X127215000Y-68230000D03*
X124675000Y-68230000D03*
D12*
X157300000Y-77900000D03*
X162300000Y-77900000D03*
X146990000Y-77900000D03*
D13*
X154610000Y-77900000D03*
D12*
X133460000Y-119180000D03*
D13*
X133460000Y-111560000D03*
D12*
X124210000Y-56170000D03*
X124210000Y-61170000D03*
X123610000Y-111550000D03*
D13*
X123610000Y-119170000D03*
D15*
X111180000Y-53510000D03*
X111180000Y-56030000D03*
X111180000Y-58550000D03*
X111180000Y-61070000D03*
X111180000Y-66110000D03*
X111180000Y-68630000D03*
X111180000Y-71150000D03*
X111180000Y-73670000D03*
X111180000Y-76190000D03*
X111180000Y-78710000D03*
X111180000Y-81230000D03*
X111180000Y-83750000D03*
X111180000Y-86270000D03*
X111180000Y-88790000D03*
X111180000Y-91310000D03*
X111180000Y-93830000D03*
X111180000Y-96350000D03*
X111180000Y-98870000D03*
X111180000Y-101390000D03*
X111180000Y-103910000D03*
X111180000Y-106430000D03*
X111180000Y-108950000D03*
X111180000Y-111470000D03*
X111180000Y-113990000D03*
X111180000Y-116510000D03*
X111180000Y-119030000D03*
X111180000Y-121550000D03*
D12*
X136760000Y-111560000D03*
D13*
X136760000Y-119180000D03*
D16*
X158500000Y-103500000D03*
D17*
X155960000Y-103500000D03*
X153420000Y-103500000D03*
X150880000Y-103500000D03*
X148340000Y-103500000D03*
X145800000Y-103500000D03*
X143260000Y-103500000D03*
X140720000Y-103500000D03*
X138180000Y-103500000D03*
X135640000Y-103500000D03*
D18*
X165460000Y-82870000D03*
X170340000Y-82870000D03*
D12*
X164900000Y-77900000D03*
D13*
X172520000Y-77900000D03*
D12*
X130160000Y-111560000D03*
D13*
X130160000Y-119180000D03*
D14*
X127760000Y-62520000D03*
D13*
X130300000Y-62520000D03*
X132840000Y-62520000D03*
X135380000Y-62520000D03*
X135380000Y-54900000D03*
X132840000Y-54900000D03*
X130300000Y-54900000D03*
X127760000Y-54900000D03*
D14*
X158404700Y-49270000D03*
D12*
X162204700Y-49270000D03*
D16*
X169860000Y-49670000D03*
D17*
X172400000Y-49670000D03*
D12*
X140060000Y-111560000D03*
D13*
X140060000Y-119180000D03*
D12*
X151900000Y-67100000D03*
X151900000Y-72100000D03*
X169960000Y-118170000D03*
D13*
X169960000Y-110550000D03*
D12*
X119500000Y-107580000D03*
D13*
X119500000Y-97420000D03*
D16*
X120810000Y-49535000D03*
D17*
X120810000Y-52075000D03*
D14*
X155525000Y-73400000D03*
D13*
X158065000Y-73400000D03*
X160605000Y-73400000D03*
X163145000Y-73400000D03*
X165685000Y-73400000D03*
X168225000Y-73400000D03*
X170765000Y-73400000D03*
X170765000Y-65780000D03*
X168225000Y-65780000D03*
X165685000Y-65780000D03*
X163145000Y-65780000D03*
X160605000Y-65780000D03*
X158065000Y-65780000D03*
X155525000Y-65780000D03*
D16*
X164040000Y-126020000D03*
D17*
X166580000Y-126020000D03*
X169120000Y-126020000D03*
X171660000Y-126020000D03*
X174200000Y-126020000D03*
D12*
X126860000Y-111560000D03*
D13*
X126860000Y-119180000D03*
D14*
X139600000Y-124504900D03*
D12*
X139600000Y-127004900D03*
D14*
X125500000Y-97125000D03*
D13*
X128040000Y-97125000D03*
X130580000Y-97125000D03*
X133120000Y-97125000D03*
X135660000Y-97125000D03*
X138200000Y-97125000D03*
X140740000Y-97125000D03*
X143280000Y-97125000D03*
X145820000Y-97125000D03*
X148360000Y-97125000D03*
X150900000Y-97125000D03*
X153440000Y-97125000D03*
X155980000Y-97125000D03*
X158520000Y-97125000D03*
X158520000Y-81885000D03*
X155980000Y-81885000D03*
X153440000Y-81885000D03*
X150900000Y-81885000D03*
X148360000Y-81885000D03*
X145820000Y-81885000D03*
X143280000Y-81885000D03*
X140740000Y-81885000D03*
X138200000Y-81885000D03*
X135660000Y-81885000D03*
X133120000Y-81885000D03*
X130580000Y-81885000D03*
X128040000Y-81885000D03*
X125500000Y-81885000D03*
D15*
X180700000Y-53530000D03*
X180700000Y-56050000D03*
X180700000Y-58570000D03*
X180700000Y-61090000D03*
X180700000Y-66130000D03*
X180700000Y-68650000D03*
X180700000Y-71170000D03*
X180700000Y-73690000D03*
X180700000Y-76210000D03*
X180700000Y-78730000D03*
X180700000Y-81250000D03*
X180700000Y-83770000D03*
X180700000Y-86290000D03*
X180700000Y-88810000D03*
X180700000Y-91330000D03*
X180700000Y-93850000D03*
X180700000Y-96370000D03*
X180700000Y-98890000D03*
X180700000Y-101410000D03*
X180700000Y-103930000D03*
X180700000Y-106450000D03*
X180700000Y-108970000D03*
X180700000Y-111490000D03*
X180700000Y-114010000D03*
X180700000Y-116530000D03*
X180700000Y-119050000D03*
X180700000Y-121570000D03*
D16*
X145400000Y-56275000D03*
D17*
X145400000Y-58815000D03*
X145400000Y-61355000D03*
D12*
X132410000Y-48120000D03*
X127410000Y-48120000D03*
X173260000Y-118180000D03*
D13*
X173260000Y-110560000D03*
D12*
X121200000Y-69500000D03*
X121200000Y-74500000D03*
X144960000Y-113820000D03*
X144960000Y-118820000D03*
X151900000Y-56400000D03*
X151900000Y-61400000D03*
D14*
X148335000Y-120170000D03*
D13*
X150875000Y-120170000D03*
X153415000Y-120170000D03*
X155955000Y-120170000D03*
X158495000Y-120170000D03*
X161035000Y-120170000D03*
X163575000Y-120170000D03*
X163575000Y-112550000D03*
X161035000Y-112550000D03*
X158495000Y-112550000D03*
X155955000Y-112550000D03*
X153415000Y-112550000D03*
X150875000Y-112550000D03*
X148335000Y-112550000D03*
D12*
X140360000Y-56370000D03*
X140360000Y-61370000D03*
D14*
X127010000Y-102664000D03*
D12*
X127010000Y-106164000D03*
X133930000Y-51670000D03*
D13*
X144090000Y-51670000D03*
D14*
X128350000Y-124499800D03*
D12*
X128350000Y-126999800D03*
D19*
X120428300Y-112953500D03*
X176085400Y-110794300D03*
X175583500Y-104892000D03*
X116441300Y-103579500D03*
X176163500Y-90084700D03*
X115739400Y-90058200D03*
X174327000Y-88675700D03*
X115745000Y-88453300D03*
X174962400Y-87956000D03*
X117076000Y-87893000D03*
X174745300Y-86797500D03*
X115754600Y-84850500D03*
X176133400Y-93719300D03*
X136854800Y-91523000D03*
X124626500Y-91072900D03*
X116101000Y-93145900D03*
X176118600Y-96796600D03*
X115732200Y-96899500D03*
X166602400Y-83774300D03*
X168813200Y-98678400D03*
X162993100Y-95329300D03*
X159931500Y-98160100D03*
X123779700Y-50370100D03*
X173427100Y-52464200D03*
X155568000Y-67644200D03*
X153364200Y-72340700D03*
X158802500Y-105150000D03*
X168906200Y-101379000D03*
X160635900Y-78045800D03*
X170320200Y-102511100D03*
X135580900Y-114206200D03*
D20*
X118270200Y-92300000D03*
X168798400Y-58570000D03*
X168844100Y-94271500D03*
X168844100Y-86384600D03*
D19*
X139614900Y-78688000D03*
X115737100Y-73726900D03*
X175795000Y-74672900D03*
X115889300Y-76630200D03*
X175873100Y-76889500D03*
X135660000Y-84470800D03*
X115772600Y-81230000D03*
X175722900Y-79521400D03*
X132796700Y-83795700D03*
X117349900Y-81701200D03*
X173263200Y-86790200D03*
X133379900Y-86624500D03*
X117590900Y-80350900D03*
X116566300Y-79675800D03*
X139307900Y-84022900D03*
X133713100Y-65571600D03*
X173140800Y-66713500D03*
X169780500Y-101777700D03*
X124960200Y-49189800D03*
X175230700Y-55834300D03*
X132728400Y-50827800D03*
X134910500Y-79123700D03*
D20*
X121049900Y-94825600D03*
X173188000Y-92282000D03*
X173561600Y-106450000D03*
X141219400Y-107683500D03*
X139347100Y-109205700D03*
X117887600Y-108238000D03*
D21*
X139347100Y-109205700D02*
X139347100Y-108552900D01*
X139347100Y-108552900D02*
X140216500Y-107683500D01*
X140216500Y-107683500D02*
X141219400Y-107683500D01*
D22*
X116566300Y-79675800D02*
X116566300Y-80281000D01*
X117311300Y-81026000D02*
X117870600Y-81026000D01*
X116566300Y-80281000D02*
X117311300Y-81026000D01*
X117870600Y-81026000D02*
X118265900Y-80630700D01*
X118265900Y-80630700D02*
X118265900Y-80071305D01*
X118265900Y-80071305D02*
X118000000Y-79805405D01*
X118000000Y-79805405D02*
X118000000Y-71124900D01*
X118000000Y-71124900D02*
X115505100Y-68630000D01*
X115505100Y-68630000D02*
X111180000Y-68630000D01*
X119114600Y-91512608D02*
X121372208Y-89255000D01*
X119114600Y-92691600D02*
X119114600Y-91512608D01*
X121372208Y-89255000D02*
X121545000Y-89255000D01*
X118637800Y-93168400D02*
X119114600Y-92691600D01*
X117962900Y-93168400D02*
X118637800Y-93168400D01*
X117433300Y-92638800D02*
X117962900Y-93168400D01*
X117433300Y-88645700D02*
X117433300Y-92638800D01*
X118715900Y-87363100D02*
X117433300Y-88645700D01*
X118715900Y-79884909D02*
X118715900Y-87363100D01*
X118500000Y-79669009D02*
X118715900Y-79884909D01*
X118500000Y-69104900D02*
X118500000Y-79669009D01*
X115505100Y-66110000D02*
X118500000Y-69104900D01*
X111180000Y-66110000D02*
X115505100Y-66110000D01*
X121545000Y-89255000D02*
X125500000Y-85300000D01*
X125500000Y-85300000D02*
X125500000Y-81885000D01*
D21*
X118270200Y-92300000D02*
X118270200Y-88975700D01*
X119540900Y-79543183D02*
X119400000Y-79402283D01*
X118270200Y-88975700D02*
X119540900Y-87705000D01*
X119400000Y-71300000D02*
X121200000Y-69500000D01*
X119540900Y-87705000D02*
X119540900Y-79543183D01*
X119400000Y-79402283D02*
X119400000Y-71300000D01*
D22*
X117590900Y-80350900D02*
X117400000Y-80160000D01*
X117400000Y-73044900D02*
X115505100Y-71150000D01*
X117400000Y-80160000D02*
X117400000Y-73044900D01*
X115505100Y-71150000D02*
X111180000Y-71150000D01*
D21*
X135380000Y-62520000D02*
X135380000Y-63220000D01*
X135380000Y-63220000D02*
X134300000Y-64300000D01*
X134300000Y-64300000D02*
X131300000Y-64300000D01*
X131300000Y-64300000D02*
X130300000Y-63300000D01*
X130300000Y-63300000D02*
X130300000Y-62520000D01*
X151900000Y-56400000D02*
X153220000Y-55080000D01*
X153220000Y-55080000D02*
X155525000Y-55080000D01*
D22*
X180700000Y-53530000D02*
X176374900Y-53530000D01*
X176374900Y-53530000D02*
X176134800Y-53289900D01*
X176134800Y-53289900D02*
X176134800Y-50034800D01*
X176134800Y-50034800D02*
X171900000Y-45800000D01*
X136218900Y-45800000D02*
X135061800Y-46957100D01*
X171900000Y-45800000D02*
X136218900Y-45800000D01*
X125500000Y-81885000D02*
X125500000Y-80759900D01*
X132328400Y-65571600D02*
X133713100Y-65571600D01*
X125500000Y-80759900D02*
X126000000Y-80259900D01*
X126000000Y-80259900D02*
X126000000Y-74300000D01*
X126000000Y-74300000D02*
X131000000Y-69300000D01*
X131000000Y-69300000D02*
X131000000Y-66900000D01*
X131000000Y-66900000D02*
X132328400Y-65571600D01*
X127215000Y-75850000D02*
X127250000Y-75850000D01*
X131000000Y-75100000D02*
X131000000Y-79527100D01*
X127250000Y-75850000D02*
X128800000Y-74300000D01*
X128800000Y-74300000D02*
X130200000Y-74300000D01*
X130200000Y-74300000D02*
X131000000Y-75100000D01*
X131000000Y-79527100D02*
X129300000Y-81227100D01*
X129300000Y-81227100D02*
X129300000Y-82903900D01*
X129300000Y-82903900D02*
X122048900Y-90155000D01*
X180700000Y-58570000D02*
X176374900Y-58570000D01*
X176374900Y-58570000D02*
X174102200Y-56297300D01*
X174102200Y-56297300D02*
X174102200Y-49102200D01*
X174102200Y-49102200D02*
X173100000Y-48100000D01*
X173100000Y-48100000D02*
X168000000Y-48100000D01*
X168000000Y-48100000D02*
X163900000Y-52200000D01*
X163900000Y-52200000D02*
X146200000Y-52200000D01*
X146200000Y-52200000D02*
X143900000Y-54500000D01*
X143900000Y-54500000D02*
X143900000Y-76363500D01*
X143900000Y-76363500D02*
X143280000Y-76983500D01*
X125700000Y-46800000D02*
X123000000Y-49500000D01*
X133640700Y-66598800D02*
X136900000Y-63339500D01*
X123000000Y-49500000D02*
X123000000Y-53300000D01*
X128000000Y-46800000D02*
X125700000Y-46800000D01*
X131570000Y-50370000D02*
X128000000Y-46800000D01*
X131570000Y-56170000D02*
X131570000Y-50370000D01*
X136900000Y-61500000D02*
X131570000Y-56170000D01*
X136900000Y-63339500D02*
X136900000Y-61500000D01*
X136100000Y-77100000D02*
X136100000Y-74797900D01*
X117750000Y-58550000D02*
X111180000Y-58550000D01*
X133640700Y-72338600D02*
X133640700Y-66598800D01*
X136100000Y-74797900D02*
X133640700Y-72338600D01*
X136600000Y-77600000D02*
X136100000Y-77100000D01*
X142663500Y-77600000D02*
X136600000Y-77600000D01*
X143280000Y-76983500D02*
X142663500Y-77600000D01*
X123000000Y-53300000D02*
X117750000Y-58550000D01*
X145400000Y-56275000D02*
X147300000Y-58175000D01*
X147300000Y-58175000D02*
X147300000Y-75673800D01*
X147300000Y-75673800D02*
X145500000Y-77473800D01*
X145500000Y-77473800D02*
X145500000Y-78710900D01*
X145500000Y-78710900D02*
X147100000Y-80310900D01*
X147100000Y-80310900D02*
X147100000Y-83800000D01*
X147100000Y-83800000D02*
X153969500Y-90669500D01*
X153969500Y-90669500D02*
X159169500Y-90669500D01*
X159169500Y-90669500D02*
X162318100Y-93818100D01*
X162318100Y-93818100D02*
X162318100Y-95745600D01*
X162318100Y-95745600D02*
X169083600Y-102511100D01*
X169083600Y-102511100D02*
X170320200Y-102511100D01*
D21*
X151900000Y-72100000D02*
X153500000Y-70500000D01*
X153500000Y-70500000D02*
X153500000Y-67166726D01*
X153500000Y-67166726D02*
X153475000Y-67141726D01*
X153475000Y-67141726D02*
X153475000Y-64358274D01*
X153475000Y-64358274D02*
X153500000Y-64333274D01*
X153500000Y-64333274D02*
X153500000Y-63000000D01*
X153500000Y-63000000D02*
X151900000Y-61400000D01*
D22*
X155568000Y-67644200D02*
X155144200Y-67644200D01*
X155144200Y-67644200D02*
X154300000Y-66800000D01*
X154300000Y-66800000D02*
X154300000Y-64700000D01*
X154300000Y-64700000D02*
X155525000Y-63475000D01*
X155525000Y-63475000D02*
X155525000Y-62700000D01*
D21*
X151900000Y-67100000D02*
X149900000Y-65100000D01*
X149900000Y-65100000D02*
X149900000Y-58400000D01*
X149900000Y-58400000D02*
X151900000Y-56400000D01*
D22*
X153364200Y-72340700D02*
X156795000Y-68909900D01*
X159335000Y-63565000D02*
X159335000Y-60015100D01*
X159335000Y-60015100D02*
X163145000Y-56205100D01*
X156795000Y-68909900D02*
X156795000Y-65005000D01*
X156795000Y-65005000D02*
X157704800Y-64095200D01*
X158804800Y-64095200D02*
X159335000Y-63565000D01*
X157704800Y-64095200D02*
X158804800Y-64095200D01*
X163145000Y-56205100D02*
X163145000Y-55080000D01*
X154610000Y-77900000D02*
X154610000Y-76774900D01*
X154610000Y-76774900D02*
X156800000Y-74584900D01*
X156800000Y-74584900D02*
X156800000Y-71335800D01*
X156800000Y-71335800D02*
X159371800Y-68764000D01*
X159371800Y-68764000D02*
X159371800Y-64928200D01*
X159371800Y-64928200D02*
X159900000Y-64400000D01*
X159900000Y-64400000D02*
X161765000Y-64400000D01*
X161765000Y-64400000D02*
X163145000Y-65780000D01*
X170900000Y-79907500D02*
X171683200Y-80690700D01*
X168225000Y-56205100D02*
X167000000Y-57430100D01*
X172070000Y-75760500D02*
X170900000Y-76930500D01*
X170900000Y-76930500D02*
X170900000Y-79907500D01*
X172070000Y-72228600D02*
X172070000Y-75760500D01*
X169500000Y-69658600D02*
X172070000Y-72228600D01*
X167000000Y-57430100D02*
X167000000Y-63400000D01*
X169500000Y-64800000D02*
X169500000Y-69658600D01*
X171683200Y-80690700D02*
X171683200Y-90663908D01*
X171683200Y-90663908D02*
X170230700Y-92116408D01*
X167695200Y-64095200D02*
X168795200Y-64095200D01*
X167000000Y-63400000D02*
X167695200Y-64095200D01*
X168795200Y-64095200D02*
X169500000Y-64800000D01*
X170230700Y-92116408D02*
X170230700Y-101327500D01*
X168225000Y-55080000D02*
X168225000Y-56205100D01*
X170230700Y-101327500D02*
X169780500Y-101777700D01*
X155980000Y-81885000D02*
X157465000Y-80400000D01*
X159819250Y-80400000D02*
X165342300Y-85923050D01*
X157465000Y-80400000D02*
X159819250Y-80400000D01*
X165342300Y-85923050D02*
X165342300Y-95207500D01*
X165342300Y-95207500D02*
X168813200Y-98678400D01*
X133944200Y-79403300D02*
X134540900Y-80000000D01*
X134540900Y-80000000D02*
X136000000Y-80000000D01*
X136000000Y-80000000D02*
X136900000Y-80900000D01*
X136900000Y-80900000D02*
X136900000Y-91477800D01*
X136900000Y-91477800D02*
X136854800Y-91523000D01*
X159100000Y-91400000D02*
X146685000Y-91400000D01*
X146685000Y-91400000D02*
X139307900Y-84022900D01*
X161868100Y-94168100D02*
X159100000Y-91400000D01*
X161868100Y-95932300D02*
X161868100Y-94168100D01*
X169122300Y-103186500D02*
X161868100Y-95932300D01*
X170599700Y-103186500D02*
X169122300Y-103186500D01*
X170995400Y-102790800D02*
X170599700Y-103186500D01*
X172133200Y-90850304D02*
X170995400Y-91988104D01*
X172133200Y-80266800D02*
X172133200Y-90850304D01*
X173778800Y-71246100D02*
X173778800Y-78621200D01*
X176374900Y-68650000D02*
X173778800Y-71246100D01*
X170995400Y-91988104D02*
X170995400Y-102790800D01*
X173778800Y-78621200D02*
X172133200Y-80266800D01*
X180700000Y-68650000D02*
X176374900Y-68650000D01*
X168225000Y-73400000D02*
X168225000Y-74525100D01*
X168225000Y-74525100D02*
X166800000Y-75950100D01*
X166800000Y-75950100D02*
X166800000Y-83576700D01*
X166800000Y-83576700D02*
X166602400Y-83774300D01*
X160605000Y-65780000D02*
X160605000Y-66905100D01*
X160605000Y-66905100D02*
X161900000Y-68200100D01*
X161900000Y-75900000D02*
X160635900Y-77164100D01*
X160635900Y-77164100D02*
X160635900Y-78045800D01*
X161900000Y-68200100D02*
X161900000Y-75900000D01*
X165685000Y-65780000D02*
X165685000Y-66905100D01*
X164400000Y-77400000D02*
X164900000Y-77900000D01*
X165685000Y-66905100D02*
X164400000Y-68190100D01*
X164400000Y-68190100D02*
X164400000Y-77400000D01*
X150900000Y-81885000D02*
X150900000Y-81700000D01*
X150900000Y-81700000D02*
X152600000Y-80000000D01*
X152600000Y-80000000D02*
X154900000Y-80000000D01*
X154900000Y-80000000D02*
X155955000Y-78945000D01*
X155955000Y-78945000D02*
X155955000Y-76945000D01*
X155955000Y-76945000D02*
X157400000Y-75500000D01*
X157400000Y-75500000D02*
X158505000Y-75500000D01*
X158505000Y-75500000D02*
X160605000Y-73400000D01*
D21*
X148360000Y-81885000D02*
X148360000Y-80384900D01*
X148360000Y-80384900D02*
X148900000Y-79844900D01*
X148900000Y-79844900D02*
X148900000Y-70100000D01*
X148900000Y-70100000D02*
X151900000Y-67100000D01*
D22*
X140740000Y-81885000D02*
X139614900Y-80759900D01*
X139614900Y-80759900D02*
X139614900Y-78688000D01*
X133944200Y-79403300D02*
X133296700Y-79403300D01*
X133296700Y-79403300D02*
X131850000Y-80850000D01*
X131850000Y-80850000D02*
X131850000Y-83849400D01*
X131850000Y-83849400D02*
X124626500Y-91072900D01*
X115732200Y-96899500D02*
X119564700Y-93067000D01*
X121795000Y-89705000D02*
X126773500Y-84726500D01*
X119564700Y-93067000D02*
X119564700Y-91698904D01*
X129755000Y-76975100D02*
X129755000Y-75850000D01*
X119564700Y-91698904D02*
X121558604Y-89705000D01*
X121558604Y-89705000D02*
X121795000Y-89705000D01*
X126773500Y-84726500D02*
X126773500Y-79956600D01*
X126773500Y-79956600D02*
X129755000Y-76975100D01*
X122048900Y-90155000D02*
X121745000Y-90155000D01*
X121745000Y-90155000D02*
X120224600Y-91675400D01*
X120224600Y-91675400D02*
X120224600Y-94150500D01*
X120224600Y-94150500D02*
X115505100Y-98870000D01*
X115505100Y-98870000D02*
X111180000Y-98870000D01*
X175278100Y-97793200D02*
X176374900Y-98890000D01*
X176374900Y-98890000D02*
X180700000Y-98890000D01*
X172819700Y-91436900D02*
X173542700Y-91436900D01*
X173542700Y-91436900D02*
X175278100Y-93172300D01*
X175278100Y-93172300D02*
X175278100Y-97793200D01*
X171961400Y-103098000D02*
X171961400Y-92295200D01*
X168645600Y-104110100D02*
X170949300Y-104110100D01*
X170949300Y-104110100D02*
X171961400Y-103098000D01*
X160968100Y-94768100D02*
X160968100Y-96432600D01*
X159200000Y-93000000D02*
X160968100Y-94768100D01*
X171961400Y-92295200D02*
X172819700Y-91436900D01*
X160968100Y-96432600D02*
X168645600Y-104110100D01*
X124893900Y-93000000D02*
X159200000Y-93000000D01*
X122048900Y-90155000D02*
X124893900Y-93000000D01*
X171445500Y-92174400D02*
X172583300Y-91036600D01*
X171445500Y-102977300D02*
X171445500Y-92174400D01*
X168837200Y-103649500D02*
X170773300Y-103649500D01*
X161418100Y-96230400D02*
X168837200Y-103649500D01*
X170773300Y-103649500D02*
X171445500Y-102977300D01*
X161418100Y-94518100D02*
X161418100Y-96230400D01*
X172583300Y-91036600D02*
X172583300Y-80777700D01*
X172583300Y-80777700D02*
X174679000Y-78682000D01*
X124758400Y-92228000D02*
X159128000Y-92228000D01*
X176374900Y-71170000D02*
X180700000Y-71170000D01*
X123910600Y-91380200D02*
X124758400Y-92228000D01*
X123910600Y-90702500D02*
X123910600Y-91380200D01*
X130580000Y-84033100D02*
X123910600Y-90702500D01*
X159128000Y-92228000D02*
X161418100Y-94518100D01*
X130580000Y-81885000D02*
X130580000Y-84033100D01*
X174679000Y-78682000D02*
X174679000Y-72865900D01*
X174679000Y-72865900D02*
X176374900Y-71170000D01*
D21*
X111180000Y-108950000D02*
X115880100Y-108950000D01*
X172321400Y-108970000D02*
X180700000Y-108970000D01*
X115880100Y-108950000D02*
X116392500Y-109462400D01*
X116392500Y-109462400D02*
X120437600Y-109462400D01*
X120437600Y-109462400D02*
X121612800Y-108287200D01*
X121612800Y-108287200D02*
X121612800Y-101811600D01*
X159200000Y-95200000D02*
X160143100Y-96143100D01*
X121612800Y-101811600D02*
X123800000Y-99624400D01*
X160143100Y-96143100D02*
X160143100Y-96791700D01*
X123800000Y-99624400D02*
X123800000Y-96000000D01*
X123800000Y-96000000D02*
X124600000Y-95200000D01*
X124600000Y-95200000D02*
X159200000Y-95200000D01*
X160143100Y-96791700D02*
X172321400Y-108970000D01*
X121500000Y-92300000D02*
X122500000Y-93300000D01*
X122500000Y-93300000D02*
X122500000Y-99000000D01*
X122500000Y-99000000D02*
X119500000Y-102000000D01*
X119500000Y-102000000D02*
X119500000Y-107580000D01*
X111180000Y-101390000D02*
X118110000Y-101390000D01*
X121200000Y-98300000D02*
X121200000Y-94975700D01*
X118110000Y-101390000D02*
X121200000Y-98300000D01*
X121200000Y-94975700D02*
X121049900Y-94825600D01*
D22*
X133120000Y-97125000D02*
X133120000Y-99480000D01*
X123610000Y-106690000D02*
X123610000Y-111550000D01*
X133120000Y-99480000D02*
X128200000Y-104400000D01*
X128200000Y-104400000D02*
X125900000Y-104400000D01*
X125900000Y-104400000D02*
X123610000Y-106690000D01*
X111180000Y-119030000D02*
X117353400Y-119030000D01*
X171400000Y-119700000D02*
X171400000Y-117900000D01*
X117353400Y-119030000D02*
X127544700Y-129221300D01*
X167850000Y-127550000D02*
X167850000Y-123250000D01*
X167850000Y-123250000D02*
X171400000Y-119700000D01*
X174024900Y-116700000D02*
X176374900Y-119050000D01*
X127544700Y-129221300D02*
X166178700Y-129221300D01*
X166178700Y-129221300D02*
X167850000Y-127550000D01*
X171400000Y-117900000D02*
X172600000Y-116700000D01*
X172600000Y-116700000D02*
X174024900Y-116700000D01*
X176374900Y-119050000D02*
X180700000Y-119050000D01*
X180700000Y-116530000D02*
X180670000Y-116500000D01*
X180670000Y-116500000D02*
X175400000Y-116500000D01*
X169300000Y-115900000D02*
X165300000Y-119900000D01*
X175400000Y-116500000D02*
X174800000Y-115900000D01*
X174800000Y-115900000D02*
X169300000Y-115900000D01*
X165300000Y-119900000D02*
X165300000Y-127500000D01*
X165300000Y-127500000D02*
X164028800Y-128771200D01*
X164028800Y-128771200D02*
X128119600Y-128771200D01*
X128119600Y-128771200D02*
X115858400Y-116510000D01*
X115858400Y-116510000D02*
X111180000Y-116510000D01*
X158495000Y-120170000D02*
X158495000Y-119044900D01*
X158495000Y-119044900D02*
X159800000Y-117739900D01*
X159800000Y-117739900D02*
X159800000Y-98291600D01*
X159800000Y-98291600D02*
X159931500Y-98160100D01*
X111180000Y-111470000D02*
X117670000Y-111470000D01*
X117670000Y-111470000D02*
X119153500Y-112953500D01*
X119153500Y-112953500D02*
X120428300Y-112953500D01*
D21*
X138180000Y-103500000D02*
X138180000Y-105050100D01*
X138180000Y-105050100D02*
X137600000Y-105630100D01*
X138410000Y-110210000D02*
X138410000Y-112270000D01*
X137600000Y-105630100D02*
X137600000Y-109400000D01*
X137600000Y-109400000D02*
X138410000Y-110210000D01*
X138410000Y-112270000D02*
X138410000Y-112390000D01*
X138410000Y-112390000D02*
X137500000Y-113300000D01*
X136159625Y-113300000D02*
X136015825Y-113156200D01*
X137500000Y-113300000D02*
X136159625Y-113300000D01*
X136015825Y-113156200D02*
X135145975Y-113156200D01*
X135145975Y-113156200D02*
X135002175Y-113300000D01*
X135002175Y-113300000D02*
X128865000Y-113300000D01*
X128865000Y-113300000D02*
X128625200Y-113060200D01*
D22*
X153415000Y-120170000D02*
X153415000Y-119044900D01*
X153415000Y-119044900D02*
X154700000Y-117759900D01*
X154700000Y-117759900D02*
X154700000Y-109252500D01*
X154700000Y-109252500D02*
X158802500Y-105150000D01*
X180700000Y-114010000D02*
X166590000Y-114010000D01*
X162305000Y-118295000D02*
X162305000Y-122095000D01*
X122100000Y-121700000D02*
X122100000Y-117800000D01*
X122100000Y-117800000D02*
X118290000Y-113990000D01*
X166590000Y-114010000D02*
X162305000Y-118295000D01*
X162305000Y-122095000D02*
X160237900Y-124162100D01*
X160237900Y-124162100D02*
X143748000Y-124162100D01*
X143748000Y-124162100D02*
X142110100Y-125800000D01*
X142110100Y-125800000D02*
X126200000Y-125800000D01*
X126200000Y-125800000D02*
X122100000Y-121700000D01*
X118290000Y-113990000D02*
X111180000Y-113990000D01*
X123610000Y-111550000D02*
X123610000Y-116810000D01*
X123610000Y-116810000D02*
X125200000Y-118400000D01*
X125200000Y-118400000D02*
X125200000Y-119600000D01*
X125200000Y-119600000D02*
X126300000Y-120700000D01*
X126300000Y-120700000D02*
X127400000Y-120700000D01*
X127400000Y-120700000D02*
X128400000Y-119700000D01*
X128400000Y-119700000D02*
X128400000Y-118700000D01*
X131880000Y-117600000D02*
X133460000Y-119180000D01*
X128400000Y-118700000D02*
X129500000Y-117600000D01*
X129500000Y-117600000D02*
X131880000Y-117600000D01*
X111180000Y-121550000D02*
X118750000Y-121550000D01*
X118750000Y-121550000D02*
X126871400Y-129671400D01*
X171128600Y-129671400D02*
X172930000Y-127870000D01*
X172930000Y-127870000D02*
X172930000Y-125014900D01*
X172930000Y-125014900D02*
X176374900Y-121570000D01*
X176374900Y-121570000D02*
X180700000Y-121570000D01*
X126871400Y-129671400D02*
X171128600Y-129671400D01*
X175795000Y-74672900D02*
X175795000Y-74105000D01*
X176210000Y-73690000D02*
X180700000Y-73690000D01*
X175795000Y-74105000D02*
X176210000Y-73690000D01*
X175873100Y-76889500D02*
X175873100Y-76626900D01*
X175873100Y-76626900D02*
X176290000Y-76210000D01*
X176290000Y-76210000D02*
X180700000Y-76210000D01*
X175722900Y-79521400D02*
X175722900Y-80622900D01*
X175722900Y-80622900D02*
X176350000Y-81250000D01*
X176350000Y-81250000D02*
X180700000Y-81250000D01*
X180700000Y-83770000D02*
X176330000Y-83770000D01*
X176330000Y-83770000D02*
X174745300Y-85354700D01*
X174745300Y-85354700D02*
X174745300Y-86797500D01*
X180700000Y-91330000D02*
X176530000Y-91330000D01*
X176530000Y-91330000D02*
X176163500Y-90963500D01*
X176163500Y-90963500D02*
X176163500Y-90084700D01*
X180700000Y-96370000D02*
X176545200Y-96370000D01*
X176545200Y-96370000D02*
X176118600Y-96796600D01*
X180700000Y-103930000D02*
X176270000Y-103930000D01*
X176270000Y-103930000D02*
X175583500Y-104616500D01*
X175583500Y-104616500D02*
X175583500Y-104892000D01*
X176085400Y-110794300D02*
X176085400Y-111285400D01*
X176085400Y-111285400D02*
X176290000Y-111490000D01*
X176290000Y-111490000D02*
X180700000Y-111490000D01*
X115732200Y-96899500D02*
X115182700Y-96350000D01*
X115182700Y-96350000D02*
X111180000Y-96350000D01*
X116101000Y-93145900D02*
X116101000Y-93499000D01*
X115770000Y-93830000D02*
X111180000Y-93830000D01*
X116101000Y-93499000D02*
X115770000Y-93830000D01*
X115739400Y-90058200D02*
X115739400Y-90960600D01*
X115739400Y-90960600D02*
X115390000Y-91310000D01*
X115390000Y-91310000D02*
X111180000Y-91310000D01*
X115745000Y-88453300D02*
X115408300Y-88790000D01*
X115408300Y-88790000D02*
X111180000Y-88790000D01*
X117076000Y-87893000D02*
X117076000Y-87676000D01*
X117076000Y-87676000D02*
X115670000Y-86270000D01*
X115670000Y-86270000D02*
X111180000Y-86270000D01*
X115754600Y-84850500D02*
X115754600Y-83999500D01*
X115754600Y-83999500D02*
X115505100Y-83750000D01*
X115505100Y-83750000D02*
X111180000Y-83750000D01*
X111180000Y-78710000D02*
X115610000Y-78710000D01*
X115610000Y-78710000D02*
X115891300Y-78991300D01*
X115891300Y-78991300D02*
X115891300Y-80242600D01*
X115891300Y-80242600D02*
X117349900Y-81701200D01*
X137375000Y-75850000D02*
X137375000Y-74724900D01*
X137375000Y-74724900D02*
X136211600Y-73561500D01*
X136211600Y-73561500D02*
X136211600Y-65488400D01*
X136211600Y-65488400D02*
X137500000Y-64200000D01*
X135200000Y-52581200D02*
X135200000Y-47095300D01*
X137500000Y-64200000D02*
X137500000Y-60600000D01*
X137500000Y-60600000D02*
X134100000Y-57200000D01*
X134100000Y-57200000D02*
X134100000Y-53681200D01*
X134100000Y-53681200D02*
X135200000Y-52581200D01*
X135200000Y-47095300D02*
X135061800Y-46957100D01*
X111180000Y-56030000D02*
X119070000Y-56030000D01*
X122400000Y-52700000D02*
X122400000Y-49200000D01*
X119070000Y-56030000D02*
X122400000Y-52700000D01*
X125300000Y-46300000D02*
X128400000Y-46300000D01*
X128400000Y-46300000D02*
X132728400Y-50628400D01*
X122400000Y-49200000D02*
X125300000Y-46300000D01*
X132728400Y-50628400D02*
X132728400Y-50827800D01*
X124960200Y-49189800D02*
X125344100Y-49573700D01*
X125344100Y-49573700D02*
X125344100Y-57955900D01*
X122700000Y-72749900D02*
X124675000Y-74724900D01*
X125344100Y-57955900D02*
X122700000Y-60600000D01*
X122700000Y-60600000D02*
X122700000Y-72749900D01*
X124675000Y-74724900D02*
X124675000Y-75850000D01*
X111180000Y-61070000D02*
X116430000Y-61070000D01*
X116430000Y-61070000D02*
X123779700Y-53720300D01*
X123779700Y-53720300D02*
X123779700Y-50370100D01*
X135061800Y-46957100D02*
X133904700Y-45800000D01*
X133904700Y-45800000D02*
X121800000Y-45800000D01*
X118080800Y-51918200D02*
X116489000Y-53510000D01*
X116489000Y-53510000D02*
X111180000Y-53510000D01*
X121800000Y-45800000D02*
X118080800Y-49519200D01*
X118080800Y-49519200D02*
X118080800Y-51918200D01*
X115835600Y-103579500D02*
X115505100Y-103910000D01*
X116441300Y-103579500D02*
X115835600Y-103579500D01*
X111180000Y-103910000D02*
X115505100Y-103910000D01*
X174461300Y-88810000D02*
X174327000Y-88675700D01*
X180700000Y-88810000D02*
X174461300Y-88810000D01*
X180700000Y-86290000D02*
X176374900Y-86290000D01*
X174962400Y-87702500D02*
X174962400Y-87956000D01*
X176374900Y-86290000D02*
X174962400Y-87702500D01*
X132840000Y-52760000D02*
X132840000Y-54900000D01*
X133930000Y-51670000D02*
X132840000Y-52760000D01*
X166580000Y-121550000D02*
X169960000Y-118170000D01*
X166580000Y-126020000D02*
X166580000Y-121550000D01*
X173260000Y-123244900D02*
X171660000Y-124844900D01*
X173260000Y-118180000D02*
X173260000Y-123244900D01*
X171660000Y-126020000D02*
X171660000Y-124844900D01*
X176264100Y-93850000D02*
X176133400Y-93719300D01*
X180700000Y-93850000D02*
X176264100Y-93850000D01*
X132295000Y-75850000D02*
X132295000Y-76975100D01*
X133944200Y-78624300D02*
X133944200Y-79403300D01*
X132295000Y-76975100D02*
X133944200Y-78624300D01*
X158520000Y-81885000D02*
X158520000Y-83010100D01*
X162993100Y-87483200D02*
X162993100Y-95329300D01*
X158520000Y-83010100D02*
X162993100Y-87483200D01*
X130160000Y-103750100D02*
X130160000Y-111560000D01*
X135660000Y-98250100D02*
X130160000Y-103750100D01*
X135660000Y-97125000D02*
X135660000Y-98250100D01*
X125500000Y-97125000D02*
X125500000Y-98250100D01*
X125500000Y-99939700D02*
X125500000Y-98250100D01*
X122725300Y-102714400D02*
X125500000Y-99939700D01*
X122725300Y-109134700D02*
X122725300Y-102714400D01*
X120310000Y-111550000D02*
X122725300Y-109134700D01*
X173427100Y-58142200D02*
X176374900Y-61090000D01*
X173427100Y-52464200D02*
X173427100Y-58142200D01*
X180700000Y-61090000D02*
X176374900Y-61090000D01*
X158065000Y-55080000D02*
X158065000Y-62700000D01*
X170765000Y-65780000D02*
X170765000Y-66905100D01*
X169669300Y-100615900D02*
X168906200Y-101379000D01*
X169669300Y-83540700D02*
X169669300Y-100615900D01*
X170340000Y-82870000D02*
X169669300Y-83540700D01*
X172520000Y-68660100D02*
X172520000Y-76774900D01*
X170765000Y-66905100D02*
X172520000Y-68660100D01*
X172520000Y-77900000D02*
X172520000Y-76774900D01*
X160635900Y-78045900D02*
X160635900Y-78045800D01*
X165460000Y-82870000D02*
X160635900Y-78045900D01*
X140720000Y-98270100D02*
X140720000Y-103500000D01*
X140740000Y-98250100D02*
X140720000Y-98270100D01*
X140740000Y-97125000D02*
X140740000Y-98250100D01*
X143260000Y-98270100D02*
X143260000Y-103500000D01*
X143280000Y-98250100D02*
X143260000Y-98270100D01*
X143280000Y-97125000D02*
X143280000Y-98250100D01*
X145800000Y-98270100D02*
X145800000Y-103500000D01*
X145820000Y-98250100D02*
X145800000Y-98270100D01*
X145820000Y-97125000D02*
X145820000Y-98250100D01*
X148340000Y-98270100D02*
X148340000Y-103500000D01*
X148360000Y-98250100D02*
X148340000Y-98270100D01*
X148360000Y-97125000D02*
X148360000Y-98250100D01*
X150880000Y-98270100D02*
X150880000Y-103500000D01*
X150900000Y-98250100D02*
X150880000Y-98270100D01*
X150900000Y-97125000D02*
X150900000Y-98250100D01*
X153420000Y-98270100D02*
X153420000Y-103500000D01*
X153440000Y-98250100D02*
X153420000Y-98270100D01*
X153440000Y-97125000D02*
X153440000Y-98250100D01*
X155960000Y-98270100D02*
X155960000Y-103500000D01*
X155980000Y-98250100D02*
X155960000Y-98270100D01*
X155980000Y-97125000D02*
X155980000Y-98250100D01*
X158520000Y-102304900D02*
X158500000Y-102324900D01*
X158520000Y-97125000D02*
X158520000Y-102304900D01*
X158500000Y-103500000D02*
X158500000Y-102324900D01*
X143285100Y-48120000D02*
X144070000Y-48120000D01*
X136505100Y-54900000D02*
X143285100Y-48120000D01*
X135380000Y-54900000D02*
X136505100Y-54900000D01*
X139600000Y-124504900D02*
X139600000Y-123379800D01*
X136760000Y-120539800D02*
X136760000Y-119180000D01*
X139600000Y-123379800D02*
X136760000Y-120539800D01*
X136760000Y-115385300D02*
X135580900Y-114206200D01*
X136760000Y-119180000D02*
X136760000Y-115385300D01*
X130160000Y-121564700D02*
X130160000Y-119180000D01*
X128350000Y-123374700D02*
X130160000Y-121564700D01*
X128350000Y-124499800D02*
X128350000Y-123374700D01*
D21*
X148335000Y-112550000D02*
X148335000Y-120170000D01*
X121200000Y-59180000D02*
X121200000Y-69500000D01*
X124210000Y-56170000D02*
X121200000Y-59180000D01*
X168225000Y-62700000D02*
X168225000Y-61199900D01*
X168798400Y-60626500D02*
X168798400Y-58570000D01*
X168225000Y-61199900D02*
X168798400Y-60626500D01*
X126860000Y-119180000D02*
X126860000Y-117679900D01*
X163575000Y-124004900D02*
X164040000Y-124469900D01*
X163575000Y-120170000D02*
X163575000Y-124004900D01*
X164040000Y-126020000D02*
X164040000Y-124469900D01*
X121200000Y-87000000D02*
X121500000Y-87300000D01*
X121200000Y-74500000D02*
X121200000Y-87000000D01*
X138180000Y-98645100D02*
X138180000Y-103500000D01*
X138200000Y-98625100D02*
X138180000Y-98645100D01*
X138200000Y-97125000D02*
X138200000Y-98625100D01*
X170765000Y-62700000D02*
X170765000Y-61199900D01*
X144960000Y-118820000D02*
X138410000Y-112270000D01*
X128625200Y-115914700D02*
X128625200Y-113060200D01*
X126860000Y-117679900D02*
X128625200Y-115914700D01*
X128625200Y-107779200D02*
X127010000Y-106164000D01*
X128625200Y-113060200D02*
X128625200Y-107779200D01*
X130300000Y-62520000D02*
X130300000Y-61019900D01*
X128566700Y-59286600D02*
X130300000Y-61019900D01*
X126248600Y-59286600D02*
X128566700Y-59286600D01*
X126248600Y-49281400D02*
X126248600Y-59286600D01*
X127410000Y-48120000D02*
X126248600Y-49281400D01*
X124365200Y-61170000D02*
X124210000Y-61170000D01*
X126248600Y-59286600D02*
X124365200Y-61170000D01*
X168844100Y-76821000D02*
X170765000Y-74900100D01*
X168844100Y-86384600D02*
X168844100Y-76821000D01*
X170765000Y-73400000D02*
X170765000Y-74900100D01*
X168844100Y-94271500D02*
X168844100Y-86384600D01*
X172377000Y-59587900D02*
X170765000Y-61199900D01*
X172377000Y-51243100D02*
X172377000Y-59587900D01*
X172400000Y-51220100D02*
X172377000Y-51243100D01*
X172400000Y-49670000D02*
X172400000Y-51220100D01*
D22*
X143280000Y-81885000D02*
X143280000Y-80759900D01*
X143280000Y-76983500D02*
X143280000Y-80759900D01*
X111180000Y-73670000D02*
X115505100Y-73670000D01*
X115562000Y-73726900D02*
X115505100Y-73670000D01*
X115737100Y-73726900D02*
X115562000Y-73726900D01*
X111180000Y-76190000D02*
X115505100Y-76190000D01*
X115889300Y-76574200D02*
X115889300Y-76630200D01*
X115505100Y-76190000D02*
X115889300Y-76574200D01*
X115772600Y-81230000D02*
X111180000Y-81230000D01*
X135660000Y-81885000D02*
X135660000Y-84470800D01*
X133120000Y-81885000D02*
X133120000Y-83010100D01*
X132796700Y-83333400D02*
X132796700Y-83795700D01*
X133120000Y-83010100D02*
X132796700Y-83333400D01*
X132796700Y-86041300D02*
X132796700Y-83795700D01*
X133379900Y-86624500D02*
X132796700Y-86041300D01*
X173263200Y-80987400D02*
X173263200Y-86790200D01*
X175520600Y-78730000D02*
X173263200Y-80987400D01*
X180700000Y-78730000D02*
X175520600Y-78730000D01*
X175791400Y-66713500D02*
X176374900Y-66130000D01*
X173140800Y-66713500D02*
X175791400Y-66713500D01*
X180700000Y-66130000D02*
X176374900Y-66130000D01*
X175446400Y-56050000D02*
X175230700Y-55834300D01*
X180700000Y-56050000D02*
X175446400Y-56050000D01*
X134910500Y-77050600D02*
X134835000Y-76975100D01*
X134910500Y-79123700D02*
X134910500Y-77050600D01*
X134835000Y-75850000D02*
X134835000Y-76975100D01*
D21*
X180700000Y-101410000D02*
X175999900Y-101410000D01*
X173188000Y-98598100D02*
X173188000Y-92282000D01*
X175999900Y-101410000D02*
X173188000Y-98598100D01*
X116079600Y-106430000D02*
X111180000Y-106430000D01*
X117887600Y-108238000D02*
X116079600Y-106430000D01*
X180700000Y-106450000D02*
X173561600Y-106450000D01*
M02*
