M48
; DRILL file {KiCad 6.0.11+dfsg-1} date Fri 28 Mar 2025 02:56:15 PM CET
; FORMAT={-:-/ absolute / metric / decimal}
; #@! TF.CreationDate,2025-03-28T14:56:15+01:00
; #@! TF.GenerationSoftware,Kicad,Pcbnew,6.0.11+dfsg-1
; #@! TF.FileFunction,Plated,1,2,PTH
FMAT,2
METRIC
; #@! TA.AperFunction,Plated,PTH,ViaDrill
T1C0.350
; #@! TA.AperFunction,Plated,PTH,ViaDrill
T2C0.500
; #@! TA.AperFunction,Plated,PTH,ComponentDrill
T3C0.800
; #@! TA.AperFunction,Plated,PTH,ComponentDrill
T4C1.000
%
G90
G05
T1
X115.732Y-96.899
X115.737Y-73.727
X115.739Y-90.058
X115.745Y-88.453
X115.755Y-84.85
X115.773Y-81.23
X115.889Y-76.63
X116.101Y-93.146
X116.441Y-103.579
X116.566Y-79.676
X117.076Y-87.893
X117.35Y-81.701
X117.591Y-80.351
X120.428Y-112.953
X123.78Y-50.37
X124.626Y-91.073
X124.96Y-49.19
X132.728Y-50.828
X132.797Y-83.796
X133.38Y-86.624
X133.713Y-65.572
X134.91Y-79.124
X135.581Y-114.206
X135.66Y-84.471
X136.855Y-91.523
X139.308Y-84.023
X139.615Y-78.688
X153.364Y-72.341
X155.568Y-67.644
X158.802Y-105.15
X159.931Y-98.16
X160.636Y-78.046
X162.993Y-95.329
X166.602Y-83.774
X168.813Y-98.678
X168.906Y-101.379
X169.78Y-101.778
X170.32Y-102.511
X173.141Y-66.713
X173.263Y-86.79
X173.427Y-52.464
X174.327Y-88.676
X174.745Y-86.797
X174.962Y-87.956
X175.231Y-55.834
X175.583Y-104.892
X175.723Y-79.521
X175.795Y-74.673
X175.873Y-76.889
X176.085Y-110.794
X176.119Y-96.797
X176.133Y-93.719
X176.163Y-90.085
T2
X117.888Y-108.238
X118.27Y-92.3
X121.05Y-94.826
X139.347Y-109.206
X141.219Y-107.683
X168.798Y-58.57
X168.844Y-86.385
X168.844Y-94.271
X173.188Y-92.282
X173.562Y-106.45
T3
X119.5Y-97.42
X119.5Y-107.58
X120.31Y-111.55
X120.31Y-119.17
X121.2Y-69.5
X121.2Y-74.5
X121.5Y-87.3
X121.5Y-92.3
X123.61Y-111.55
X123.61Y-119.17
X124.21Y-56.17
X124.21Y-61.17
X124.675Y-68.23
X124.675Y-75.85
X125.5Y-81.885
X125.5Y-97.125
X126.86Y-111.56
X126.86Y-119.18
X127.01Y-102.664
X127.01Y-106.164
X127.215Y-68.23
X127.215Y-75.85
X127.41Y-48.12
X127.76Y-54.9
X127.76Y-62.52
X128.04Y-81.885
X128.04Y-97.125
X128.35Y-124.5
X128.35Y-127.0
X129.755Y-68.23
X129.755Y-75.85
X130.16Y-111.56
X130.16Y-119.18
X130.3Y-54.9
X130.3Y-62.52
X130.58Y-81.885
X130.58Y-97.125
X132.295Y-68.23
X132.295Y-75.85
X132.41Y-48.12
X132.84Y-54.9
X132.84Y-62.52
X133.12Y-81.885
X133.12Y-97.125
X133.46Y-111.56
X133.46Y-119.18
X133.93Y-51.67
X134.835Y-68.23
X134.835Y-75.85
X135.38Y-54.9
X135.38Y-62.52
X135.66Y-81.885
X135.66Y-97.125
X136.45Y-48.12
X136.76Y-111.56
X136.76Y-119.18
X137.375Y-68.23
X137.375Y-75.85
X138.2Y-81.885
X138.2Y-97.125
X139.6Y-124.505
X139.6Y-127.005
X139.915Y-68.23
X139.915Y-75.85
X140.06Y-111.56
X140.06Y-119.18
X140.36Y-56.37
X140.36Y-61.37
X140.74Y-81.885
X140.74Y-97.125
X142.455Y-68.23
X142.455Y-75.85
X143.28Y-81.885
X143.28Y-97.125
X144.07Y-48.12
X144.09Y-51.67
X144.96Y-113.82
X144.96Y-118.82
X145.82Y-81.885
X145.82Y-97.125
X146.99Y-77.9
X148.335Y-112.55
X148.335Y-120.17
X148.36Y-81.885
X148.36Y-97.125
X150.875Y-112.55
X150.875Y-120.17
X150.9Y-81.885
X150.9Y-97.125
X151.9Y-56.4
X151.9Y-61.4
X151.9Y-67.1
X151.9Y-72.1
X153.415Y-112.55
X153.415Y-120.17
X153.44Y-81.885
X153.44Y-97.125
X154.61Y-77.9
X155.525Y-55.08
X155.525Y-62.7
X155.525Y-65.78
X155.525Y-73.4
X155.955Y-112.55
X155.955Y-120.17
X155.98Y-81.885
X155.98Y-97.125
X157.3Y-77.9
X158.065Y-55.08
X158.065Y-62.7
X158.065Y-65.78
X158.065Y-73.4
X158.405Y-49.27
X158.495Y-112.55
X158.495Y-120.17
X158.52Y-81.885
X158.52Y-97.125
X160.605Y-55.08
X160.605Y-62.7
X160.605Y-65.78
X160.605Y-73.4
X161.035Y-112.55
X161.035Y-120.17
X162.205Y-49.27
X162.3Y-77.9
X163.145Y-55.08
X163.145Y-62.7
X163.145Y-65.78
X163.145Y-73.4
X163.575Y-112.55
X163.575Y-120.17
X164.9Y-77.9
X165.46Y-82.87
X165.685Y-55.08
X165.685Y-62.7
X165.685Y-65.78
X165.685Y-73.4
X168.225Y-55.08
X168.225Y-62.7
X168.225Y-65.78
X168.225Y-73.4
X169.96Y-110.55
X169.96Y-118.17
X170.34Y-82.87
X170.765Y-55.08
X170.765Y-62.7
X170.765Y-65.78
X170.765Y-73.4
X172.52Y-77.9
X173.26Y-110.56
X173.26Y-118.18
T4
X120.81Y-49.535
X120.81Y-52.075
X135.64Y-103.5
X138.18Y-103.5
X140.72Y-103.5
X143.26Y-103.5
X145.4Y-56.275
X145.4Y-58.815
X145.4Y-61.355
X145.8Y-103.5
X148.34Y-103.5
X150.88Y-103.5
X153.42Y-103.5
X155.96Y-103.5
X158.5Y-103.5
X164.04Y-126.02
X166.58Y-126.02
X169.12Y-126.02
X169.86Y-49.67
X171.66Y-126.02
X172.4Y-49.67
X174.2Y-126.02
T0
M30
