G04 #@! TF.GenerationSoftware,KiCad,Pcbnew,6.0.11+dfsg-1*
G04 #@! TF.CreationDate,2025-04-29T08:55:15+02:00*
G04 #@! TF.ProjectId,zx-cherry-keyboard,7a782d63-6865-4727-9279-2d6b6579626f,1.1*
G04 #@! TF.SameCoordinates,Original*
G04 #@! TF.FileFunction,Paste,Bot*
G04 #@! TF.FilePolarity,Positive*
%FSLAX46Y46*%
G04 Gerber Fmt 4.6, Leading zero omitted, Abs format (unit mm)*
G04 Created by KiCad (PCBNEW 6.0.11+dfsg-1) date 2025-04-29 08:55:15*
%MOMM*%
%LPD*%
G01*
G04 APERTURE LIST*
G04 Aperture macros list*
%AMRoundRect*
0 Rectangle with rounded corners*
0 $1 Rounding radius*
0 $2 $3 $4 $5 $6 $7 $8 $9 X,Y pos of 4 corners*
0 Add a 4 corners polygon primitive as box body*
4,1,4,$2,$3,$4,$5,$6,$7,$8,$9,$2,$3,0*
0 Add four circle primitives for the rounded corners*
1,1,$1+$1,$2,$3*
1,1,$1+$1,$4,$5*
1,1,$1+$1,$6,$7*
1,1,$1+$1,$8,$9*
0 Add four rect primitives between the rounded corners*
20,1,$1+$1,$2,$3,$4,$5,0*
20,1,$1+$1,$4,$5,$6,$7,0*
20,1,$1+$1,$6,$7,$8,$9,0*
20,1,$1+$1,$8,$9,$2,$3,0*%
G04 Aperture macros list end*
%ADD10RoundRect,0.250000X0.400000X0.625000X-0.400000X0.625000X-0.400000X-0.625000X0.400000X-0.625000X0*%
%ADD11RoundRect,0.150000X-0.150000X0.837500X-0.150000X-0.837500X0.150000X-0.837500X0.150000X0.837500X0*%
%ADD12RoundRect,0.150000X-0.587500X-0.150000X0.587500X-0.150000X0.587500X0.150000X-0.587500X0.150000X0*%
%ADD13RoundRect,0.150000X0.587500X0.150000X-0.587500X0.150000X-0.587500X-0.150000X0.587500X-0.150000X0*%
%ADD14RoundRect,0.150000X-0.837500X-0.150000X0.837500X-0.150000X0.837500X0.150000X-0.837500X0.150000X0*%
%ADD15RoundRect,0.250000X1.100000X-0.412500X1.100000X0.412500X-1.100000X0.412500X-1.100000X-0.412500X0*%
%ADD16RoundRect,0.150000X0.150000X-0.587500X0.150000X0.587500X-0.150000X0.587500X-0.150000X-0.587500X0*%
%ADD17RoundRect,0.250000X-0.412500X-1.100000X0.412500X-1.100000X0.412500X1.100000X-0.412500X1.100000X0*%
G04 APERTURE END LIST*
D10*
X247550000Y-193920000D03*
X244450000Y-193920000D03*
X181120000Y-193270000D03*
X178020000Y-193270000D03*
D11*
X253190000Y-181287500D03*
X254460000Y-181287500D03*
X255730000Y-181287500D03*
X257000000Y-181287500D03*
X258270000Y-181287500D03*
X259540000Y-181287500D03*
X260810000Y-181287500D03*
X260810000Y-188212500D03*
X259540000Y-188212500D03*
X258270000Y-188212500D03*
X257000000Y-188212500D03*
X255730000Y-188212500D03*
X254460000Y-188212500D03*
X253190000Y-188212500D03*
D12*
X276562500Y-179450000D03*
X276562500Y-177550000D03*
X278437500Y-178500000D03*
D10*
X263050000Y-176200000D03*
X259950000Y-176200000D03*
X263050000Y-193920000D03*
X259950000Y-193920000D03*
D13*
X164187500Y-178300000D03*
X164187500Y-180200000D03*
X162312500Y-179250000D03*
X231950000Y-176050000D03*
X231950000Y-177950000D03*
X230075000Y-177000000D03*
D10*
X203300000Y-176300000D03*
X200200000Y-176300000D03*
X196050000Y-176310000D03*
X192950000Y-176310000D03*
X181240000Y-176310000D03*
X178140000Y-176310000D03*
X339350000Y-157800000D03*
X336250000Y-157800000D03*
X196050000Y-193250000D03*
X192950000Y-193250000D03*
D12*
X276542500Y-187500000D03*
X276542500Y-185600000D03*
X278417500Y-186550000D03*
X82542500Y-119010000D03*
X82542500Y-117110000D03*
X84417500Y-118060000D03*
X82562500Y-153450000D03*
X82562500Y-151550000D03*
X84437500Y-152500000D03*
D10*
X203300000Y-193250000D03*
X200200000Y-193250000D03*
D12*
X207812500Y-185450000D03*
X207812500Y-183550000D03*
X209687500Y-184500000D03*
X82572500Y-171450000D03*
X82572500Y-169550000D03*
X84447500Y-170500000D03*
D10*
X255550000Y-176200000D03*
X252450000Y-176200000D03*
D14*
X334337500Y-152110000D03*
X334337500Y-150840000D03*
X334337500Y-149570000D03*
X334337500Y-148300000D03*
X334337500Y-147030000D03*
X334337500Y-145760000D03*
X334337500Y-144490000D03*
X341262500Y-144490000D03*
X341262500Y-145760000D03*
X341262500Y-147030000D03*
X341262500Y-148300000D03*
X341262500Y-149570000D03*
X341262500Y-150840000D03*
X341262500Y-152110000D03*
D10*
X247550000Y-176250000D03*
X244450000Y-176250000D03*
D12*
X207812500Y-177910000D03*
X207812500Y-176010000D03*
X209687500Y-176960000D03*
X82625000Y-159450000D03*
X82625000Y-157550000D03*
X84500000Y-158500000D03*
D10*
X239570000Y-193940000D03*
X236470000Y-193940000D03*
X255550000Y-193920000D03*
X252450000Y-193920000D03*
D11*
X193440000Y-181257500D03*
X194710000Y-181257500D03*
X195980000Y-181257500D03*
X197250000Y-181257500D03*
X198520000Y-181257500D03*
X199790000Y-181257500D03*
X201060000Y-181257500D03*
X201060000Y-188182500D03*
X199790000Y-188182500D03*
X198520000Y-188182500D03*
X197250000Y-188182500D03*
X195980000Y-188182500D03*
X194710000Y-188182500D03*
X193440000Y-188182500D03*
X178720000Y-181257500D03*
X179990000Y-181257500D03*
X181260000Y-181257500D03*
X182530000Y-181257500D03*
X183800000Y-181257500D03*
X185070000Y-181257500D03*
X186340000Y-181257500D03*
X186340000Y-188182500D03*
X185070000Y-188182500D03*
X183800000Y-188182500D03*
X182530000Y-188182500D03*
X181260000Y-188182500D03*
X179990000Y-188182500D03*
X178720000Y-188182500D03*
D10*
X188550000Y-193250000D03*
X185450000Y-193250000D03*
D13*
X231937500Y-183550000D03*
X231937500Y-185450000D03*
X230062500Y-184500000D03*
D10*
X239490000Y-176190000D03*
X236390000Y-176190000D03*
D15*
X173250000Y-184062500D03*
X173250000Y-180937500D03*
D16*
X338580000Y-164980000D03*
X336680000Y-164980000D03*
X337630000Y-163105000D03*
D11*
X236940000Y-181287500D03*
X238210000Y-181287500D03*
X239480000Y-181287500D03*
X240750000Y-181287500D03*
X242020000Y-181287500D03*
X243290000Y-181287500D03*
X244560000Y-181287500D03*
X244560000Y-188212500D03*
X243290000Y-188212500D03*
X242020000Y-188212500D03*
X240750000Y-188212500D03*
X239480000Y-188212500D03*
X238210000Y-188212500D03*
X236940000Y-188212500D03*
D10*
X188550000Y-176330000D03*
X185450000Y-176330000D03*
D13*
X164230000Y-184550000D03*
X164230000Y-186450000D03*
X162355000Y-185500000D03*
D12*
X82562500Y-112950000D03*
X82562500Y-111050000D03*
X84437500Y-112000000D03*
D17*
X335937500Y-138500000D03*
X339062500Y-138500000D03*
D12*
X82625000Y-165450000D03*
X82625000Y-163550000D03*
X84500000Y-164500000D03*
M02*
