G04 #@! TF.GenerationSoftware,KiCad,Pcbnew,6.0.11+dfsg-1*
G04 #@! TF.CreationDate,2025-04-29T08:55:15+02:00*
G04 #@! TF.ProjectId,zx-cherry-keyboard,7a782d63-6865-4727-9279-2d6b6579626f,1.1*
G04 #@! TF.SameCoordinates,Original*
G04 #@! TF.FileFunction,Soldermask,Top*
G04 #@! TF.FilePolarity,Negative*
%FSLAX46Y46*%
G04 Gerber Fmt 4.6, Leading zero omitted, Abs format (unit mm)*
G04 Created by KiCad (PCBNEW 6.0.11+dfsg-1) date 2025-04-29 08:55:15*
%MOMM*%
%LPD*%
G01*
G04 APERTURE LIST*
%ADD10C,1.700000*%
%ADD11C,4.000000*%
%ADD12C,2.200000*%
%ADD13C,3.050000*%
%ADD14R,1.700000X1.700000*%
%ADD15O,1.700000X1.700000*%
G04 APERTURE END LIST*
D10*
X212710000Y-105560000D03*
D11*
X207630000Y-105560000D03*
D10*
X202550000Y-105560000D03*
D12*
X210170000Y-100480000D03*
X203820000Y-103020000D03*
D10*
X188090000Y-124760000D03*
D11*
X193170000Y-124760000D03*
D10*
X198250000Y-124760000D03*
D12*
X195710000Y-119680000D03*
X189360000Y-122220000D03*
D10*
X328570000Y-163150000D03*
X318410000Y-163150000D03*
D11*
X323490000Y-163150000D03*
D12*
X326030000Y-158070000D03*
X319680000Y-160610000D03*
D10*
X320820000Y-105530000D03*
D11*
X325900000Y-105530000D03*
D10*
X330980000Y-105530000D03*
D12*
X328440000Y-100450000D03*
X322090000Y-102990000D03*
D10*
X116070000Y-182380000D03*
X105910000Y-182380000D03*
D11*
X110990000Y-182380000D03*
D12*
X113530000Y-177300000D03*
X107180000Y-179840000D03*
D10*
X203060000Y-143940000D03*
D11*
X197980000Y-143940000D03*
D10*
X192900000Y-143940000D03*
D12*
X200520000Y-138860000D03*
X194170000Y-141400000D03*
D10*
X125350000Y-105560000D03*
X135510000Y-105560000D03*
D11*
X130430000Y-105560000D03*
D12*
X132970000Y-100480000D03*
X126620000Y-103020000D03*
D10*
X173500000Y-143940000D03*
D11*
X178580000Y-143940000D03*
D10*
X183660000Y-143940000D03*
D12*
X181120000Y-138860000D03*
X174770000Y-141400000D03*
D11*
X173830000Y-124760000D03*
D10*
X168750000Y-124760000D03*
X178910000Y-124760000D03*
D12*
X176370000Y-119680000D03*
X170020000Y-122220000D03*
D11*
X163980000Y-163160000D03*
D10*
X158900000Y-163160000D03*
X169060000Y-163160000D03*
D12*
X166520000Y-158080000D03*
X160170000Y-160620000D03*
D10*
X145060000Y-143960000D03*
D11*
X139980000Y-143960000D03*
D10*
X134900000Y-143960000D03*
D12*
X142520000Y-138880000D03*
X136170000Y-141420000D03*
D10*
X284650000Y-124760000D03*
X294810000Y-124760000D03*
D11*
X289730000Y-124760000D03*
D12*
X292270000Y-119680000D03*
X285920000Y-122220000D03*
D10*
X275020000Y-163150000D03*
D11*
X280100000Y-163150000D03*
D10*
X285180000Y-163150000D03*
D12*
X282640000Y-158070000D03*
X276290000Y-160610000D03*
D10*
X212300000Y-143940000D03*
X222460000Y-143940000D03*
D11*
X217380000Y-143940000D03*
D12*
X219920000Y-138860000D03*
X213570000Y-141400000D03*
D10*
X326210000Y-143930000D03*
D11*
X321130000Y-143930000D03*
D10*
X316050000Y-143930000D03*
D12*
X323670000Y-138850000D03*
X317320000Y-141390000D03*
D13*
X169880000Y-175360000D03*
D11*
X169880000Y-190600000D03*
X269880000Y-190600000D03*
D10*
X214800000Y-182360000D03*
X224960000Y-182360000D03*
D11*
X219880000Y-182360000D03*
D13*
X269880000Y-175360000D03*
D12*
X222420000Y-177280000D03*
X216070000Y-179820000D03*
D11*
X115930000Y-124760000D03*
D10*
X121010000Y-124760000D03*
X110850000Y-124760000D03*
D12*
X118470000Y-119680000D03*
X112120000Y-122220000D03*
D11*
X284930000Y-105560000D03*
D10*
X290010000Y-105560000D03*
X279850000Y-105560000D03*
D12*
X287470000Y-100480000D03*
X281120000Y-103020000D03*
D10*
X303950000Y-124760000D03*
D11*
X309030000Y-124760000D03*
D10*
X314110000Y-124760000D03*
D12*
X311570000Y-119680000D03*
X305220000Y-122220000D03*
D10*
X159610000Y-124760000D03*
D11*
X154530000Y-124760000D03*
D10*
X149450000Y-124760000D03*
D12*
X157070000Y-119680000D03*
X150720000Y-122220000D03*
D11*
X304230000Y-105560000D03*
D10*
X299150000Y-105560000D03*
X309310000Y-105560000D03*
D12*
X306770000Y-100480000D03*
X300420000Y-103020000D03*
D10*
X164360000Y-143940000D03*
D11*
X159280000Y-143940000D03*
D10*
X154200000Y-143940000D03*
D12*
X161820000Y-138860000D03*
X155470000Y-141400000D03*
D10*
X261160000Y-143940000D03*
D11*
X256080000Y-143940000D03*
D10*
X251000000Y-143940000D03*
D12*
X258620000Y-138860000D03*
X252270000Y-141400000D03*
D10*
X144600000Y-182360000D03*
X154760000Y-182360000D03*
D11*
X149680000Y-182360000D03*
D12*
X152220000Y-177280000D03*
X145870000Y-179820000D03*
D10*
X96800000Y-182350000D03*
D11*
X91720000Y-182350000D03*
D10*
X86640000Y-182350000D03*
D12*
X94260000Y-177270000D03*
X87910000Y-179810000D03*
D10*
X101560000Y-143950000D03*
D11*
X96480000Y-143950000D03*
D10*
X91400000Y-143950000D03*
D12*
X99020000Y-138870000D03*
X92670000Y-141410000D03*
D11*
X135230000Y-124760000D03*
D10*
X130150000Y-124760000D03*
X140310000Y-124760000D03*
D12*
X137770000Y-119680000D03*
X131420000Y-122220000D03*
D10*
X251410000Y-105560000D03*
X241250000Y-105560000D03*
D11*
X246330000Y-105560000D03*
D12*
X248870000Y-100480000D03*
X242520000Y-103020000D03*
D11*
X289680000Y-182370000D03*
D10*
X294760000Y-182370000D03*
X284600000Y-182370000D03*
D12*
X292220000Y-177290000D03*
X285870000Y-179830000D03*
D11*
X241480000Y-163160000D03*
D10*
X236400000Y-163160000D03*
X246560000Y-163160000D03*
D12*
X244020000Y-158080000D03*
X237670000Y-160620000D03*
D10*
X154810000Y-105560000D03*
X144650000Y-105560000D03*
D11*
X149730000Y-105560000D03*
D12*
X152270000Y-100480000D03*
X145920000Y-103020000D03*
D10*
X265350000Y-124760000D03*
X275510000Y-124760000D03*
D11*
X270430000Y-124760000D03*
D12*
X272970000Y-119680000D03*
X266620000Y-122220000D03*
D10*
X130400000Y-163180000D03*
X120240000Y-163180000D03*
D11*
X125320000Y-163180000D03*
D12*
X127860000Y-158100000D03*
X121510000Y-160640000D03*
D11*
X111070000Y-105580000D03*
D10*
X116150000Y-105580000D03*
X105990000Y-105580000D03*
D12*
X113610000Y-100500000D03*
X107260000Y-103040000D03*
D10*
X178300000Y-163160000D03*
D11*
X183380000Y-163160000D03*
D10*
X188460000Y-163160000D03*
D12*
X185920000Y-158080000D03*
X179570000Y-160620000D03*
D10*
X299790000Y-143940000D03*
D11*
X294710000Y-143940000D03*
D10*
X289630000Y-143940000D03*
D12*
X297250000Y-138860000D03*
X290900000Y-141400000D03*
D11*
X144670000Y-163140000D03*
D10*
X149750000Y-163140000D03*
X139590000Y-163140000D03*
D12*
X147210000Y-158060000D03*
X140860000Y-160600000D03*
D11*
X169030000Y-105560000D03*
D10*
X174110000Y-105560000D03*
X163950000Y-105560000D03*
D12*
X171570000Y-100480000D03*
X165220000Y-103020000D03*
D10*
X256210000Y-124760000D03*
X246050000Y-124760000D03*
D11*
X251130000Y-124760000D03*
D12*
X253670000Y-119680000D03*
X247320000Y-122220000D03*
D10*
X270710000Y-105560000D03*
X260550000Y-105560000D03*
D11*
X265630000Y-105560000D03*
D12*
X268170000Y-100480000D03*
X261820000Y-103020000D03*
D11*
X91730000Y-105560000D03*
D10*
X86650000Y-105560000D03*
X96810000Y-105560000D03*
D12*
X94270000Y-100480000D03*
X87920000Y-103020000D03*
D10*
X207450000Y-124760000D03*
D11*
X212530000Y-124760000D03*
D10*
X217610000Y-124760000D03*
D12*
X215070000Y-119680000D03*
X208720000Y-122220000D03*
D10*
X232110000Y-105560000D03*
X221950000Y-105560000D03*
D11*
X227030000Y-105560000D03*
D12*
X229570000Y-100480000D03*
X223220000Y-103020000D03*
D10*
X270330000Y-143940000D03*
X280490000Y-143940000D03*
D11*
X275410000Y-143940000D03*
D12*
X277950000Y-138860000D03*
X271600000Y-141400000D03*
D10*
X103940000Y-163160000D03*
X93780000Y-163160000D03*
D11*
X98860000Y-163160000D03*
D12*
X101400000Y-158080000D03*
X95050000Y-160620000D03*
D10*
X323200000Y-124760000D03*
D11*
X328280000Y-124760000D03*
D10*
X333360000Y-124760000D03*
D12*
X330820000Y-119680000D03*
X324470000Y-122220000D03*
D10*
X231640000Y-143940000D03*
X241800000Y-143940000D03*
D11*
X236720000Y-143940000D03*
D12*
X239260000Y-138860000D03*
X232910000Y-141400000D03*
D10*
X227160000Y-163160000D03*
X217000000Y-163160000D03*
D11*
X222080000Y-163160000D03*
D12*
X224620000Y-158080000D03*
X218270000Y-160620000D03*
D11*
X120620000Y-143960000D03*
D10*
X125700000Y-143960000D03*
X115540000Y-143960000D03*
D12*
X123160000Y-138880000D03*
X116810000Y-141420000D03*
D10*
X323200000Y-182370000D03*
D11*
X328280000Y-182370000D03*
D10*
X333360000Y-182370000D03*
D12*
X330820000Y-177290000D03*
X324470000Y-179830000D03*
D11*
X260790000Y-163160000D03*
D10*
X265870000Y-163160000D03*
X255710000Y-163160000D03*
D12*
X263330000Y-158080000D03*
X256980000Y-160620000D03*
D11*
X308970000Y-182370000D03*
D10*
X303890000Y-182370000D03*
X314050000Y-182370000D03*
D12*
X311510000Y-177290000D03*
X305160000Y-179830000D03*
D10*
X226750000Y-124760000D03*
X236910000Y-124760000D03*
D11*
X231830000Y-124760000D03*
D12*
X234370000Y-119680000D03*
X228020000Y-122220000D03*
D10*
X304480000Y-163150000D03*
X294320000Y-163150000D03*
D11*
X299400000Y-163150000D03*
D12*
X301940000Y-158070000D03*
X295590000Y-160610000D03*
D11*
X94130000Y-124760000D03*
D10*
X89050000Y-124760000D03*
X99210000Y-124760000D03*
D12*
X96670000Y-119680000D03*
X90320000Y-122220000D03*
D10*
X207800000Y-163160000D03*
X197640000Y-163160000D03*
D11*
X202720000Y-163160000D03*
D12*
X205260000Y-158080000D03*
X198910000Y-160620000D03*
D11*
X188330000Y-105560000D03*
D10*
X193410000Y-105560000D03*
X183250000Y-105560000D03*
D12*
X190870000Y-100480000D03*
X184520000Y-103020000D03*
D10*
X125200000Y-182360000D03*
D11*
X130280000Y-182360000D03*
D10*
X135360000Y-182360000D03*
D12*
X132820000Y-177280000D03*
X126470000Y-179820000D03*
D14*
X78000000Y-109950000D03*
D15*
X78000000Y-112490000D03*
X78000000Y-115030000D03*
X78000000Y-117570000D03*
X78000000Y-120110000D03*
D14*
X77875000Y-158335000D03*
D15*
X77875000Y-160875000D03*
X77875000Y-163415000D03*
X77875000Y-165955000D03*
X77875000Y-168495000D03*
X77875000Y-171035000D03*
X77875000Y-173575000D03*
X77875000Y-176115000D03*
M02*
