M48
; DRILL file {KiCad 6.0.11+dfsg-1} date Tue 29 Apr 2025 08:56:10 AM CEST
; FORMAT={-:-/ absolute / metric / decimal}
; #@! TF.CreationDate,2025-04-29T08:56:10+02:00
; #@! TF.GenerationSoftware,Kicad,Pcbnew,6.0.11+dfsg-1
; #@! TF.FileFunction,Plated,1,2,PTH
FMAT,2
METRIC
; #@! TA.AperFunction,Plated,PTH,ViaDrill
T1C0.400
; #@! TA.AperFunction,Plated,PTH,ComponentDrill
T2C1.000
; #@! TA.AperFunction,Plated,PTH,ComponentDrill
T3C1.500
%
G90
G05
T1
X94.1Y-128.9
X98.9Y-167.5
X111.0Y-190.0
X120.6Y-148.2
X124.9Y-131.9
X125.3Y-167.5
X130.1Y-118.5
X139.6Y-182.4
X143.718Y-156.805
X144.7Y-167.5
X145.9Y-99.0
X149.8Y-110.0
X155.4Y-159.3
X155.5Y-137.5
X160.008Y-172.11
X165.153Y-185.543
X165.2Y-99.0
X165.3Y-181.6
X165.978Y-179.596
X169.1Y-110.0
X169.481Y-187.296
X174.5Y-175.4
X174.8Y-137.5
X175.3Y-186.4
X175.3Y-188.6
X175.3Y-191.9
X178.14Y-178.729
X179.0Y-110.0
X180.982Y-186.588
X181.043Y-189.8
X181.083Y-174.762
X181.7Y-99.0
X182.051Y-185.328
X183.346Y-182.938
X186.057Y-183.839
X186.714Y-175.684
X187.328Y-181.843
X188.4Y-110.0
X188.966Y-187.346
X189.33Y-183.975
X191.307Y-184.668
X191.4Y-188.5
X194.2Y-138.9
X194.57Y-184.598
X195.985Y-191.6
X196.636Y-177.972
X199.36Y-185.85
X201.994Y-188.15
X205.5Y-191.8
X205.7Y-181.7
X208.502Y-186.588
X210.429Y-183.571
X217.7Y-100.5
X217.9Y-169.0
X217.9Y-174.1
X224.174Y-135.556
X224.826Y-136.483
X227.0Y-110.0
X230.7Y-169.0
X231.615Y-180.708
X233.447Y-183.289
X235.3Y-181.1
X237.343Y-183.088
X237.449Y-186.666
X237.973Y-176.801
X239.396Y-186.506
X239.603Y-183.835
X241.5Y-169.0
X245.5Y-179.0
X246.666Y-184.879
X248.986Y-174.451
X252.5Y-178.635
X253.418Y-185.35
X254.974Y-185.857
X255.865Y-178.635
X256.846Y-176.392
X257.0Y-157.1
X259.032Y-178.635
X261.867Y-187.221
X264.2Y-182.4
X265.9Y-175.5
X272.6Y-182.4
X274.837Y-178.386
X276.3Y-157.1
X276.6Y-182.4
X279.9Y-182.4
X280.356Y-172.566
X280.826Y-171.617
X281.1Y-98.6
X283.2Y-172.6
X290.6Y-164.2
X290.627Y-166.31
X304.2Y-110.0
X304.9Y-195.7
X334.2Y-154.029
X335.441Y-180.182
X337.653Y-160.7
T2
X77.875Y-158.335
X77.875Y-160.875
X77.875Y-163.415
X77.875Y-165.955
X77.875Y-168.495
X77.875Y-171.035
X77.875Y-173.575
X77.875Y-176.115
X78.0Y-109.95
X78.0Y-112.49
X78.0Y-115.03
X78.0Y-117.57
X78.0Y-120.11
T3
X87.91Y-179.81
X87.92Y-103.02
X90.32Y-122.22
X92.67Y-141.41
X94.26Y-177.27
X94.27Y-100.48
X95.05Y-160.62
X96.67Y-119.68
X99.02Y-138.87
X101.4Y-158.08
X107.18Y-179.84
X107.26Y-103.04
X112.12Y-122.22
X113.53Y-177.3
X113.61Y-100.5
X116.81Y-141.42
X118.47Y-119.68
X121.51Y-160.64
X123.16Y-138.88
X126.47Y-179.82
X126.62Y-103.02
X127.86Y-158.1
X131.42Y-122.22
X132.82Y-177.28
X132.97Y-100.48
X136.17Y-141.42
X137.77Y-119.68
X140.86Y-160.6
X142.52Y-138.88
X145.87Y-179.82
X145.92Y-103.02
X147.21Y-158.06
X150.72Y-122.22
X152.22Y-177.28
X152.27Y-100.48
X155.47Y-141.4
X157.07Y-119.68
X160.17Y-160.62
X161.82Y-138.86
X165.22Y-103.02
X166.52Y-158.08
X170.02Y-122.22
X171.57Y-100.48
X174.77Y-141.4
X176.37Y-119.68
X179.57Y-160.62
X181.12Y-138.86
X184.52Y-103.02
X185.92Y-158.08
X189.36Y-122.22
X190.87Y-100.48
X194.17Y-141.4
X195.71Y-119.68
X198.91Y-160.62
X200.52Y-138.86
X203.82Y-103.02
X205.26Y-158.08
X208.72Y-122.22
X210.17Y-100.48
X213.57Y-141.4
X215.07Y-119.68
X216.07Y-179.82
X218.27Y-160.62
X219.92Y-138.86
X222.42Y-177.28
X223.22Y-103.02
X224.62Y-158.08
X228.02Y-122.22
X229.57Y-100.48
X232.91Y-141.4
X234.37Y-119.68
X237.67Y-160.62
X239.26Y-138.86
X242.52Y-103.02
X244.02Y-158.08
X247.32Y-122.22
X248.87Y-100.48
X252.27Y-141.4
X253.67Y-119.68
X256.98Y-160.62
X258.62Y-138.86
X261.82Y-103.02
X263.33Y-158.08
X266.62Y-122.22
X268.17Y-100.48
X271.6Y-141.4
X272.97Y-119.68
X276.29Y-160.61
X277.95Y-138.86
X281.12Y-103.02
X282.64Y-158.07
X285.87Y-179.83
X285.92Y-122.22
X287.47Y-100.48
X290.9Y-141.4
X292.22Y-177.29
X292.27Y-119.68
X295.59Y-160.61
X297.25Y-138.86
X300.42Y-103.02
X301.94Y-158.07
X305.16Y-179.83
X305.22Y-122.22
X306.77Y-100.48
X311.51Y-177.29
X311.57Y-119.68
X317.32Y-141.39
X319.68Y-160.61
X322.09Y-102.99
X323.67Y-138.85
X324.47Y-122.22
X324.47Y-179.83
X326.03Y-158.07
X328.44Y-100.45
X330.82Y-119.68
X330.82Y-177.29
T0
M30
