M48
; DRILL file {KiCad 6.0.11+dfsg-1} date Tue 29 Apr 2025 08:56:10 AM CEST
; FORMAT={-:-/ absolute / metric / decimal}
; #@! TF.CreationDate,2025-04-29T08:56:10+02:00
; #@! TF.GenerationSoftware,Kicad,Pcbnew,6.0.11+dfsg-1
; #@! TF.FileFunction,NonPlated,1,2,NPTH
FMAT,2
METRIC
; #@! TA.AperFunction,NonPlated,NPTH,ComponentDrill
T1C1.700
; #@! TA.AperFunction,NonPlated,NPTH,ComponentDrill
T2C3.050
; #@! TA.AperFunction,NonPlated,NPTH,ComponentDrill
T3C4.000
%
G90
G05
T1
X86.64Y-182.35
X86.65Y-105.56
X89.05Y-124.76
X91.4Y-143.95
X93.78Y-163.16
X96.8Y-182.35
X96.81Y-105.56
X99.21Y-124.76
X101.56Y-143.95
X103.94Y-163.16
X105.91Y-182.38
X105.99Y-105.58
X110.85Y-124.76
X115.54Y-143.96
X116.07Y-182.38
X116.15Y-105.58
X120.24Y-163.18
X121.01Y-124.76
X125.2Y-182.36
X125.35Y-105.56
X125.7Y-143.96
X130.15Y-124.76
X130.4Y-163.18
X134.9Y-143.96
X135.36Y-182.36
X135.51Y-105.56
X139.59Y-163.14
X140.31Y-124.76
X144.6Y-182.36
X144.65Y-105.56
X145.06Y-143.96
X149.45Y-124.76
X149.75Y-163.14
X154.2Y-143.94
X154.76Y-182.36
X154.81Y-105.56
X158.9Y-163.16
X159.61Y-124.76
X163.95Y-105.56
X164.36Y-143.94
X168.75Y-124.76
X169.06Y-163.16
X173.5Y-143.94
X174.11Y-105.56
X178.3Y-163.16
X178.91Y-124.76
X183.25Y-105.56
X183.66Y-143.94
X188.09Y-124.76
X188.46Y-163.16
X192.9Y-143.94
X193.41Y-105.56
X197.64Y-163.16
X198.25Y-124.76
X202.55Y-105.56
X203.06Y-143.94
X207.45Y-124.76
X207.8Y-163.16
X212.3Y-143.94
X212.71Y-105.56
X214.8Y-182.36
X217.0Y-163.16
X217.61Y-124.76
X221.95Y-105.56
X222.46Y-143.94
X224.96Y-182.36
X226.75Y-124.76
X227.16Y-163.16
X231.64Y-143.94
X232.11Y-105.56
X236.4Y-163.16
X236.91Y-124.76
X241.25Y-105.56
X241.8Y-143.94
X246.05Y-124.76
X246.56Y-163.16
X251.0Y-143.94
X251.41Y-105.56
X255.71Y-163.16
X256.21Y-124.76
X260.55Y-105.56
X261.16Y-143.94
X265.35Y-124.76
X265.87Y-163.16
X270.33Y-143.94
X270.71Y-105.56
X275.02Y-163.15
X275.51Y-124.76
X279.85Y-105.56
X280.49Y-143.94
X284.6Y-182.37
X284.65Y-124.76
X285.18Y-163.15
X289.63Y-143.94
X290.01Y-105.56
X294.32Y-163.15
X294.76Y-182.37
X294.81Y-124.76
X299.15Y-105.56
X299.79Y-143.94
X303.89Y-182.37
X303.95Y-124.76
X304.48Y-163.15
X309.31Y-105.56
X314.05Y-182.37
X314.11Y-124.76
X316.05Y-143.93
X318.41Y-163.15
X320.82Y-105.53
X323.2Y-124.76
X323.2Y-182.37
X326.21Y-143.93
X328.57Y-163.15
X330.98Y-105.53
X333.36Y-124.76
X333.36Y-182.37
T2
X169.88Y-175.36
X269.88Y-175.36
T3
X91.72Y-182.35
X91.73Y-105.56
X94.13Y-124.76
X96.48Y-143.95
X98.86Y-163.16
X110.99Y-182.38
X111.07Y-105.58
X115.93Y-124.76
X120.62Y-143.96
X125.32Y-163.18
X130.28Y-182.36
X130.43Y-105.56
X135.23Y-124.76
X139.98Y-143.96
X144.67Y-163.14
X149.68Y-182.36
X149.73Y-105.56
X154.53Y-124.76
X159.28Y-143.94
X163.98Y-163.16
X169.03Y-105.56
X169.88Y-190.6
X173.83Y-124.76
X178.58Y-143.94
X183.38Y-163.16
X188.33Y-105.56
X193.17Y-124.76
X197.98Y-143.94
X202.72Y-163.16
X207.63Y-105.56
X212.53Y-124.76
X217.38Y-143.94
X219.88Y-182.36
X222.08Y-163.16
X227.03Y-105.56
X231.83Y-124.76
X236.72Y-143.94
X241.48Y-163.16
X246.33Y-105.56
X251.13Y-124.76
X256.08Y-143.94
X260.79Y-163.16
X265.63Y-105.56
X269.88Y-190.6
X270.43Y-124.76
X275.41Y-143.94
X280.1Y-163.15
X284.93Y-105.56
X289.68Y-182.37
X289.73Y-124.76
X294.71Y-143.94
X299.4Y-163.15
X304.23Y-105.56
X308.97Y-182.37
X309.03Y-124.76
X321.13Y-143.93
X323.49Y-163.15
X325.9Y-105.53
X328.28Y-124.76
X328.28Y-182.37
T0
M30
