%FSLAX34Y34*%
%MOMM*%
%LNCOPPER_BOTTOM*%
G71*
G01*
%ADD10C,1.400*%
%ADD11C,1.400*%
%ADD12C,1.500*%
%ADD13C,0.800*%
%ADD14C,1.700*%
%ADD15C,0.300*%
%ADD16C,1.500*%
%ADD17C,1.200*%
%ADD18C,1.300*%
%ADD19R,1.800X6.000*%
%ADD20C,1.500*%
%ADD21C,1.600*%
%ADD22C,1.500*%
%ADD23C,1.000*%
%ADD24C,1.100*%
%ADD25C,0.900*%
%ADD26C,0.400*%
%ADD27C,1.400*%
%ADD28C,1.600*%
%ADD29C,2.400*%
%ADD30C,1.800*%
%ADD31C,2.500*%
%ADD32C,1.900*%
%ADD33C,2.000*%
%ADD34C,0.600*%
%ADD35C,1.900*%
%ADD36C,0.238*%
%ADD37C,0.620*%
%ADD38C,0.318*%
%ADD39C,1.800*%
%ADD40C,2.600*%
%ADD41C,2.000*%
%ADD42C,3.000*%
%ADD43C,1.700*%
%ADD44C,2.200*%
%ADD45C,4.900*%
%ADD46C,3.500*%
%ADD47C,0.200*%
%ADD48C,0.500*%
%LPD*%
G36*
X1747290Y1116525D02*
X1747290Y1102525D01*
X1733290Y1102525D01*
X1733290Y1116525D01*
X1747290Y1116525D01*
G37*
X1740290Y1084125D02*
G54D10*
D03*
X1740290Y1058725D02*
G54D10*
D03*
X1740290Y1033325D02*
G54D10*
D03*
X1740290Y1007925D02*
G54D10*
D03*
X1740290Y982525D02*
G54D10*
D03*
X1740290Y957125D02*
G54D10*
D03*
X1740290Y931725D02*
G54D10*
D03*
X1740290Y906325D02*
G54D10*
D03*
X1740290Y880925D02*
G54D10*
D03*
X1740290Y855525D02*
G54D10*
D03*
X1740290Y830125D02*
G54D10*
D03*
X1740290Y804725D02*
G54D10*
D03*
X1740290Y779325D02*
G54D10*
D03*
X1740290Y753925D02*
G54D10*
D03*
X1740290Y728525D02*
G54D10*
D03*
X1740290Y703126D02*
G54D10*
D03*
X1740290Y677725D02*
G54D10*
D03*
X1740290Y652325D02*
G54D10*
D03*
X1740290Y626925D02*
G54D10*
D03*
X1892690Y626925D02*
G54D10*
D03*
X1892690Y652325D02*
G54D10*
D03*
X1892690Y677725D02*
G54D10*
D03*
X1892690Y703125D02*
G54D10*
D03*
X1892690Y728525D02*
G54D10*
D03*
X1892690Y753926D02*
G54D10*
D03*
X1892690Y779325D02*
G54D10*
D03*
X1892690Y804725D02*
G54D10*
D03*
X1892690Y830125D02*
G54D10*
D03*
X1892690Y855525D02*
G54D10*
D03*
X1892690Y880925D02*
G54D10*
D03*
X1892690Y906325D02*
G54D10*
D03*
X1892690Y931725D02*
G54D10*
D03*
X1892690Y957125D02*
G54D10*
D03*
X1892690Y982525D02*
G54D10*
D03*
X1892690Y1007925D02*
G54D10*
D03*
X1892690Y1033325D02*
G54D10*
D03*
X1892690Y1058725D02*
G54D10*
D03*
X1892690Y1084125D02*
G54D10*
D03*
X1892690Y1109525D02*
G54D10*
D03*
G36*
X1532163Y1117224D02*
X1532163Y1103224D01*
X1518163Y1103224D01*
X1518163Y1117224D01*
X1532163Y1117224D01*
G37*
X1525163Y1084824D02*
G54D10*
D03*
X1525163Y1059424D02*
G54D10*
D03*
X1525163Y1034024D02*
G54D10*
D03*
X1525163Y1008624D02*
G54D10*
D03*
X1525163Y983224D02*
G54D10*
D03*
X1525163Y957824D02*
G54D10*
D03*
X1525163Y932424D02*
G54D10*
D03*
X1525163Y907024D02*
G54D10*
D03*
X1525163Y881624D02*
G54D10*
D03*
X1525163Y856224D02*
G54D10*
D03*
X1525163Y830824D02*
G54D10*
D03*
X1525163Y805424D02*
G54D10*
D03*
X1525163Y780024D02*
G54D10*
D03*
X1525163Y754624D02*
G54D10*
D03*
X1525163Y729224D02*
G54D10*
D03*
X1525163Y703824D02*
G54D10*
D03*
X1525163Y678424D02*
G54D10*
D03*
X1525163Y653024D02*
G54D10*
D03*
X1525163Y627624D02*
G54D10*
D03*
X1677563Y627624D02*
G54D10*
D03*
X1677563Y653024D02*
G54D10*
D03*
X1677563Y678424D02*
G54D10*
D03*
X1677563Y703824D02*
G54D10*
D03*
X1677563Y729224D02*
G54D10*
D03*
X1677563Y754624D02*
G54D10*
D03*
X1677563Y780024D02*
G54D10*
D03*
X1677563Y805424D02*
G54D10*
D03*
X1677563Y830824D02*
G54D10*
D03*
X1677563Y856224D02*
G54D10*
D03*
X1677563Y881624D02*
G54D10*
D03*
X1677563Y907024D02*
G54D10*
D03*
X1677563Y932424D02*
G54D10*
D03*
X1677563Y957824D02*
G54D10*
D03*
X1677563Y983224D02*
G54D10*
D03*
X1677563Y1008624D02*
G54D10*
D03*
X1677563Y1034024D02*
G54D10*
D03*
X1677563Y1059424D02*
G54D10*
D03*
X1677563Y1084824D02*
G54D10*
D03*
X1677563Y1110224D02*
G54D10*
D03*
G36*
X1051010Y913666D02*
X1051010Y899666D01*
X1037010Y899666D01*
X1037010Y913666D01*
X1051010Y913666D01*
G37*
X1044010Y881266D02*
G54D10*
D03*
X1044010Y855866D02*
G54D10*
D03*
X1044010Y830466D02*
G54D10*
D03*
X1044010Y805066D02*
G54D10*
D03*
X1044010Y779666D02*
G54D10*
D03*
X1044010Y754266D02*
G54D10*
D03*
X1044010Y728866D02*
G54D10*
D03*
X1044010Y703466D02*
G54D10*
D03*
X1044010Y678066D02*
G54D10*
D03*
X1044010Y652666D02*
G54D10*
D03*
X1044010Y627266D02*
G54D10*
D03*
X1044010Y601866D02*
G54D10*
D03*
X1044010Y576466D02*
G54D10*
D03*
X1044010Y551066D02*
G54D10*
D03*
X1044010Y525666D02*
G54D10*
D03*
X1044010Y500266D02*
G54D10*
D03*
X1044010Y474866D02*
G54D10*
D03*
X1044010Y449466D02*
G54D10*
D03*
X1044010Y424066D02*
G54D10*
D03*
X1044010Y398666D02*
G54D10*
D03*
X1044010Y373266D02*
G54D10*
D03*
X1044010Y347866D02*
G54D10*
D03*
X1044010Y322466D02*
G54D10*
D03*
X1196410Y322466D02*
G54D10*
D03*
X1196410Y347866D02*
G54D10*
D03*
X1196410Y373266D02*
G54D10*
D03*
X1196410Y398666D02*
G54D10*
D03*
X1196410Y424066D02*
G54D10*
D03*
X1196410Y449466D02*
G54D10*
D03*
X1196410Y474866D02*
G54D10*
D03*
X1196410Y500266D02*
G54D10*
D03*
X1196410Y525666D02*
G54D10*
D03*
X1196410Y551066D02*
G54D10*
D03*
X1196410Y576466D02*
G54D10*
D03*
X1196410Y601866D02*
G54D10*
D03*
X1196410Y627266D02*
G54D10*
D03*
X1196410Y652666D02*
G54D10*
D03*
X1196410Y678066D02*
G54D10*
D03*
X1196410Y703466D02*
G54D10*
D03*
X1196410Y728866D02*
G54D10*
D03*
X1196410Y754266D02*
G54D10*
D03*
X1196410Y779666D02*
G54D10*
D03*
X1196410Y805066D02*
G54D10*
D03*
X1196410Y830466D02*
G54D10*
D03*
X1196410Y855866D02*
G54D10*
D03*
X1196410Y881266D02*
G54D10*
D03*
X1196410Y906666D02*
G54D10*
D03*
G36*
X1948512Y1116662D02*
X1948512Y1102662D01*
X1934512Y1102662D01*
X1934512Y1116662D01*
X1948512Y1116662D01*
G37*
X1941512Y1084262D02*
G54D10*
D03*
X1941512Y1058862D02*
G54D10*
D03*
X1941512Y1033462D02*
G54D10*
D03*
X1941512Y1008062D02*
G54D10*
D03*
X1941512Y982662D02*
G54D10*
D03*
X1941512Y957262D02*
G54D10*
D03*
X1941512Y931862D02*
G54D10*
D03*
X1941512Y906462D02*
G54D10*
D03*
X1941512Y881062D02*
G54D10*
D03*
X1941512Y855662D02*
G54D10*
D03*
X1941512Y830262D02*
G54D10*
D03*
X1941512Y804862D02*
G54D10*
D03*
X1941512Y779462D02*
G54D10*
D03*
X2093912Y779462D02*
G54D10*
D03*
X2093912Y804862D02*
G54D10*
D03*
X2093912Y830262D02*
G54D10*
D03*
X2093912Y855662D02*
G54D10*
D03*
X2093912Y881062D02*
G54D10*
D03*
X2093912Y906462D02*
G54D10*
D03*
X2093912Y931862D02*
G54D10*
D03*
X2093912Y957262D02*
G54D10*
D03*
X2093912Y982662D02*
G54D10*
D03*
X2093912Y1008062D02*
G54D10*
D03*
X2093912Y1033462D02*
G54D10*
D03*
X2093912Y1058862D02*
G54D10*
D03*
X2093912Y1084262D02*
G54D10*
D03*
X2093912Y1109662D02*
G54D10*
D03*
G36*
X1988200Y388000D02*
X1988200Y374000D01*
X1974200Y374000D01*
X1974200Y388000D01*
X1988200Y388000D01*
G37*
X1981200Y355600D02*
G54D10*
D03*
X1981200Y330200D02*
G54D10*
D03*
X1981200Y304800D02*
G54D10*
D03*
X1981200Y279400D02*
G54D10*
D03*
X1981200Y254000D02*
G54D10*
D03*
X1981200Y228600D02*
G54D10*
D03*
X1981200Y203200D02*
G54D10*
D03*
X1981200Y177800D02*
G54D10*
D03*
X1981200Y152400D02*
G54D10*
D03*
X1981200Y127000D02*
G54D10*
D03*
X1981200Y101600D02*
G54D10*
D03*
X1981200Y76200D02*
G54D10*
D03*
X1981200Y50800D02*
G54D10*
D03*
X2133600Y50800D02*
G54D10*
D03*
X2133600Y76200D02*
G54D10*
D03*
X2133600Y101600D02*
G54D10*
D03*
X2133600Y127000D02*
G54D10*
D03*
X2133600Y152400D02*
G54D10*
D03*
X2133600Y177800D02*
G54D10*
D03*
X2133600Y203200D02*
G54D10*
D03*
X2133600Y228600D02*
G54D10*
D03*
X2133600Y254000D02*
G54D10*
D03*
X2133600Y279400D02*
G54D10*
D03*
X2133600Y304800D02*
G54D10*
D03*
X2133600Y330200D02*
G54D10*
D03*
X2133600Y355600D02*
G54D10*
D03*
X2133600Y381000D02*
G54D10*
D03*
G36*
X216550Y297512D02*
X216550Y283512D01*
X202550Y283512D01*
X202550Y297512D01*
X216550Y297512D01*
G37*
X209550Y265112D02*
G54D10*
D03*
X209550Y239712D02*
G54D10*
D03*
X209550Y214312D02*
G54D10*
D03*
X209550Y188912D02*
G54D10*
D03*
X209550Y163512D02*
G54D10*
D03*
X209550Y138112D02*
G54D10*
D03*
X209550Y112712D02*
G54D10*
D03*
X285750Y112712D02*
G54D10*
D03*
X285750Y138112D02*
G54D10*
D03*
X285750Y163512D02*
G54D10*
D03*
X285750Y188912D02*
G54D10*
D03*
X285750Y214312D02*
G54D10*
D03*
X285750Y239712D02*
G54D10*
D03*
X285750Y265112D02*
G54D10*
D03*
X285750Y290512D02*
G54D10*
D03*
G36*
X343550Y297512D02*
X343550Y283512D01*
X329550Y283512D01*
X329550Y297512D01*
X343550Y297512D01*
G37*
X336550Y265112D02*
G54D10*
D03*
X336550Y239712D02*
G54D10*
D03*
X336550Y214312D02*
G54D10*
D03*
X336550Y188912D02*
G54D10*
D03*
X336550Y163512D02*
G54D10*
D03*
X336550Y138112D02*
G54D10*
D03*
X336550Y112712D02*
G54D10*
D03*
X412750Y112712D02*
G54D10*
D03*
X412750Y138112D02*
G54D10*
D03*
X412750Y163512D02*
G54D10*
D03*
X412750Y188912D02*
G54D10*
D03*
X412750Y214312D02*
G54D10*
D03*
X412750Y239712D02*
G54D10*
D03*
X412750Y265112D02*
G54D10*
D03*
X412750Y290512D02*
G54D10*
D03*
G36*
X468962Y272112D02*
X468962Y258112D01*
X454962Y258112D01*
X454962Y272112D01*
X468962Y272112D01*
G37*
X461962Y239712D02*
G54D10*
D03*
X461962Y214312D02*
G54D10*
D03*
X461962Y188912D02*
G54D10*
D03*
X461962Y163512D02*
G54D10*
D03*
X461962Y138112D02*
G54D10*
D03*
X461962Y112712D02*
G54D10*
D03*
X461962Y87312D02*
G54D10*
D03*
X538162Y87312D02*
G54D10*
D03*
X538162Y112712D02*
G54D10*
D03*
X538162Y138112D02*
G54D10*
D03*
X538162Y163512D02*
G54D10*
D03*
X538162Y188912D02*
G54D10*
D03*
X538162Y214312D02*
G54D10*
D03*
X538162Y239712D02*
G54D10*
D03*
X538162Y265112D02*
G54D10*
D03*
G36*
X595962Y272112D02*
X595962Y258112D01*
X581962Y258112D01*
X581962Y272112D01*
X595962Y272112D01*
G37*
X588962Y239712D02*
G54D10*
D03*
X588962Y214312D02*
G54D10*
D03*
X588962Y188912D02*
G54D10*
D03*
X588962Y163512D02*
G54D10*
D03*
X588962Y138112D02*
G54D10*
D03*
X588962Y112712D02*
G54D10*
D03*
X588962Y87312D02*
G54D10*
D03*
X665162Y87312D02*
G54D10*
D03*
X665162Y112712D02*
G54D10*
D03*
X665162Y138112D02*
G54D10*
D03*
X665162Y163512D02*
G54D10*
D03*
X665162Y188912D02*
G54D10*
D03*
X665162Y214312D02*
G54D10*
D03*
X665162Y239712D02*
G54D10*
D03*
X665162Y265112D02*
G54D10*
D03*
G36*
X721375Y272112D02*
X721375Y258112D01*
X707375Y258112D01*
X707375Y272112D01*
X721375Y272112D01*
G37*
X714375Y239712D02*
G54D10*
D03*
X714375Y214312D02*
G54D10*
D03*
X714375Y188912D02*
G54D10*
D03*
X714375Y163512D02*
G54D10*
D03*
X714375Y138112D02*
G54D10*
D03*
X714375Y112712D02*
G54D10*
D03*
X714375Y87312D02*
G54D10*
D03*
X790575Y87312D02*
G54D10*
D03*
X790575Y112712D02*
G54D10*
D03*
X790575Y138112D02*
G54D10*
D03*
X790575Y163512D02*
G54D10*
D03*
X790575Y188912D02*
G54D10*
D03*
X790575Y214312D02*
G54D10*
D03*
X790575Y239712D02*
G54D10*
D03*
X790575Y265112D02*
G54D10*
D03*
G36*
X848375Y272112D02*
X848375Y258112D01*
X834375Y258112D01*
X834375Y272112D01*
X848375Y272112D01*
G37*
X841375Y239712D02*
G54D10*
D03*
X841375Y214312D02*
G54D10*
D03*
X841375Y188912D02*
G54D10*
D03*
X841375Y163512D02*
G54D10*
D03*
X841375Y138112D02*
G54D10*
D03*
X841375Y112712D02*
G54D10*
D03*
X841375Y87312D02*
G54D10*
D03*
X917575Y87312D02*
G54D10*
D03*
X917575Y112712D02*
G54D10*
D03*
X917575Y138112D02*
G54D10*
D03*
X917575Y163512D02*
G54D10*
D03*
X917575Y188912D02*
G54D10*
D03*
X917575Y214312D02*
G54D10*
D03*
X917575Y239712D02*
G54D10*
D03*
X917575Y265112D02*
G54D10*
D03*
G36*
X975375Y272112D02*
X975375Y258112D01*
X961375Y258112D01*
X961375Y272112D01*
X975375Y272112D01*
G37*
X968375Y239712D02*
G54D10*
D03*
X968375Y214312D02*
G54D10*
D03*
X968375Y188912D02*
G54D10*
D03*
X968375Y163512D02*
G54D10*
D03*
X968375Y138112D02*
G54D10*
D03*
X968375Y112712D02*
G54D10*
D03*
X968375Y87312D02*
G54D10*
D03*
X1044575Y87312D02*
G54D10*
D03*
X1044575Y112712D02*
G54D10*
D03*
X1044575Y138112D02*
G54D10*
D03*
X1044575Y163512D02*
G54D10*
D03*
X1044575Y188912D02*
G54D10*
D03*
X1044575Y214312D02*
G54D10*
D03*
X1044575Y239712D02*
G54D10*
D03*
X1044575Y265112D02*
G54D10*
D03*
G36*
X1102375Y272112D02*
X1102375Y258112D01*
X1088375Y258112D01*
X1088375Y272112D01*
X1102375Y272112D01*
G37*
X1095375Y239712D02*
G54D10*
D03*
X1095375Y214312D02*
G54D10*
D03*
X1095375Y188912D02*
G54D10*
D03*
X1095375Y163512D02*
G54D10*
D03*
X1095375Y138112D02*
G54D10*
D03*
X1095375Y112712D02*
G54D10*
D03*
X1095375Y87312D02*
G54D10*
D03*
X1171575Y87312D02*
G54D10*
D03*
X1171575Y112712D02*
G54D10*
D03*
X1171575Y138112D02*
G54D10*
D03*
X1171575Y163512D02*
G54D10*
D03*
X1171575Y188912D02*
G54D10*
D03*
X1171575Y214312D02*
G54D10*
D03*
X1171575Y239712D02*
G54D10*
D03*
X1171575Y265112D02*
G54D10*
D03*
G36*
X1229375Y272112D02*
X1229375Y258112D01*
X1215375Y258112D01*
X1215375Y272112D01*
X1229375Y272112D01*
G37*
X1222375Y239712D02*
G54D10*
D03*
X1222375Y214312D02*
G54D10*
D03*
X1222375Y188912D02*
G54D10*
D03*
X1222375Y163512D02*
G54D10*
D03*
X1222375Y138112D02*
G54D10*
D03*
X1222375Y112712D02*
G54D10*
D03*
X1222375Y87312D02*
G54D10*
D03*
X1298575Y87312D02*
G54D10*
D03*
X1298575Y112712D02*
G54D10*
D03*
X1298575Y138112D02*
G54D10*
D03*
X1298575Y163512D02*
G54D10*
D03*
X1298575Y188912D02*
G54D10*
D03*
X1298575Y214312D02*
G54D10*
D03*
X1298575Y239712D02*
G54D10*
D03*
X1298575Y265112D02*
G54D10*
D03*
G36*
X1356375Y272112D02*
X1356375Y258112D01*
X1342375Y258112D01*
X1342375Y272112D01*
X1356375Y272112D01*
G37*
X1349375Y239712D02*
G54D10*
D03*
X1349375Y214312D02*
G54D10*
D03*
X1349375Y188912D02*
G54D10*
D03*
X1349375Y163512D02*
G54D10*
D03*
X1349375Y138112D02*
G54D10*
D03*
X1349375Y112712D02*
G54D10*
D03*
X1349375Y87312D02*
G54D10*
D03*
X1425575Y87312D02*
G54D10*
D03*
X1425575Y112712D02*
G54D10*
D03*
X1425575Y138112D02*
G54D10*
D03*
X1425575Y163512D02*
G54D10*
D03*
X1425575Y188912D02*
G54D10*
D03*
X1425575Y214312D02*
G54D10*
D03*
X1425575Y239712D02*
G54D10*
D03*
X1425575Y265112D02*
G54D10*
D03*
G36*
X1483375Y272112D02*
X1483375Y258112D01*
X1469375Y258112D01*
X1469375Y272112D01*
X1483375Y272112D01*
G37*
X1476375Y239712D02*
G54D10*
D03*
X1476375Y214312D02*
G54D10*
D03*
X1476375Y188912D02*
G54D10*
D03*
X1476375Y163512D02*
G54D10*
D03*
X1476375Y138112D02*
G54D10*
D03*
X1476375Y112712D02*
G54D10*
D03*
X1476375Y87312D02*
G54D10*
D03*
X1552575Y87312D02*
G54D10*
D03*
X1552575Y112712D02*
G54D10*
D03*
X1552575Y138112D02*
G54D10*
D03*
X1552575Y163512D02*
G54D10*
D03*
X1552575Y188912D02*
G54D10*
D03*
X1552575Y214312D02*
G54D10*
D03*
X1552575Y239712D02*
G54D10*
D03*
X1552575Y265112D02*
G54D10*
D03*
G36*
X1608788Y272112D02*
X1608788Y258112D01*
X1594788Y258112D01*
X1594788Y272112D01*
X1608788Y272112D01*
G37*
X1601788Y239712D02*
G54D10*
D03*
X1601788Y214312D02*
G54D10*
D03*
X1601788Y188912D02*
G54D10*
D03*
X1601788Y163512D02*
G54D10*
D03*
X1601788Y138112D02*
G54D10*
D03*
X1601788Y112712D02*
G54D10*
D03*
X1601788Y87312D02*
G54D10*
D03*
X1677988Y87312D02*
G54D10*
D03*
X1677988Y112712D02*
G54D10*
D03*
X1677988Y138112D02*
G54D10*
D03*
X1677988Y163512D02*
G54D10*
D03*
X1677988Y188912D02*
G54D10*
D03*
X1677988Y214312D02*
G54D10*
D03*
X1677988Y239712D02*
G54D10*
D03*
X1677988Y265112D02*
G54D10*
D03*
G36*
X1735788Y272112D02*
X1735788Y258112D01*
X1721788Y258112D01*
X1721788Y272112D01*
X1735788Y272112D01*
G37*
X1728788Y239712D02*
G54D10*
D03*
X1728788Y214312D02*
G54D10*
D03*
X1728788Y188912D02*
G54D10*
D03*
X1728788Y163512D02*
G54D10*
D03*
X1728788Y138112D02*
G54D10*
D03*
X1728788Y112712D02*
G54D10*
D03*
X1728788Y87312D02*
G54D10*
D03*
X1804988Y87312D02*
G54D10*
D03*
X1804988Y112712D02*
G54D10*
D03*
X1804988Y138112D02*
G54D10*
D03*
X1804988Y163512D02*
G54D10*
D03*
X1804988Y188912D02*
G54D10*
D03*
X1804988Y214312D02*
G54D10*
D03*
X1804988Y239712D02*
G54D10*
D03*
X1804988Y265112D02*
G54D10*
D03*
G36*
X1861200Y272112D02*
X1861200Y258112D01*
X1847200Y258112D01*
X1847200Y272112D01*
X1861200Y272112D01*
G37*
X1854200Y239712D02*
G54D10*
D03*
X1854200Y214312D02*
G54D10*
D03*
X1854200Y188912D02*
G54D10*
D03*
X1854200Y163512D02*
G54D10*
D03*
X1854200Y138112D02*
G54D10*
D03*
X1854200Y112712D02*
G54D10*
D03*
X1854200Y87312D02*
G54D10*
D03*
X1930400Y87312D02*
G54D10*
D03*
X1930400Y112712D02*
G54D10*
D03*
X1930400Y138112D02*
G54D10*
D03*
X1930400Y163512D02*
G54D10*
D03*
X1930400Y188912D02*
G54D10*
D03*
X1930400Y214312D02*
G54D10*
D03*
X1930400Y239712D02*
G54D10*
D03*
X1930400Y265112D02*
G54D10*
D03*
G36*
X2291412Y388000D02*
X2291412Y374000D01*
X2277412Y374000D01*
X2277412Y388000D01*
X2291412Y388000D01*
G37*
X2284412Y355600D02*
G54D10*
D03*
X2284412Y330200D02*
G54D10*
D03*
X2284412Y304800D02*
G54D10*
D03*
X2284412Y279400D02*
G54D10*
D03*
X2284412Y254000D02*
G54D10*
D03*
X2284412Y228600D02*
G54D10*
D03*
X2360612Y228600D02*
G54D10*
D03*
X2360612Y254000D02*
G54D10*
D03*
X2360612Y279400D02*
G54D10*
D03*
X2360612Y304800D02*
G54D10*
D03*
X2360612Y330200D02*
G54D10*
D03*
X2360612Y355600D02*
G54D10*
D03*
X2360612Y381000D02*
G54D10*
D03*
G36*
X2418412Y388000D02*
X2418412Y374000D01*
X2404412Y374000D01*
X2404412Y388000D01*
X2418412Y388000D01*
G37*
X2411412Y355600D02*
G54D10*
D03*
X2411412Y330200D02*
G54D10*
D03*
X2411412Y304800D02*
G54D10*
D03*
X2411412Y279400D02*
G54D10*
D03*
X2411412Y254000D02*
G54D10*
D03*
X2411412Y228600D02*
G54D10*
D03*
X2487612Y228600D02*
G54D10*
D03*
X2487612Y254000D02*
G54D10*
D03*
X2487612Y279400D02*
G54D10*
D03*
X2487612Y304800D02*
G54D10*
D03*
X2487612Y330200D02*
G54D10*
D03*
X2487612Y355600D02*
G54D10*
D03*
X2487612Y381000D02*
G54D10*
D03*
G36*
X1608788Y534050D02*
X1608788Y520050D01*
X1594788Y520050D01*
X1594788Y534050D01*
X1608788Y534050D01*
G37*
X1601788Y501650D02*
G54D10*
D03*
X1601788Y476250D02*
G54D10*
D03*
X1601788Y450850D02*
G54D10*
D03*
X1601788Y425450D02*
G54D10*
D03*
X1601788Y400050D02*
G54D10*
D03*
X1601788Y374650D02*
G54D10*
D03*
X1601788Y349250D02*
G54D10*
D03*
X1677988Y349250D02*
G54D10*
D03*
X1677988Y374650D02*
G54D10*
D03*
X1677988Y400050D02*
G54D10*
D03*
X1677988Y425450D02*
G54D10*
D03*
X1677988Y450850D02*
G54D10*
D03*
X1677988Y476250D02*
G54D10*
D03*
X1677988Y501650D02*
G54D10*
D03*
X1677988Y527050D02*
G54D10*
D03*
G36*
X1735788Y534050D02*
X1735788Y520050D01*
X1721788Y520050D01*
X1721788Y534050D01*
X1735788Y534050D01*
G37*
X1728788Y501650D02*
G54D10*
D03*
X1728788Y476250D02*
G54D10*
D03*
X1728788Y450850D02*
G54D10*
D03*
X1728788Y425450D02*
G54D10*
D03*
X1728788Y400050D02*
G54D10*
D03*
X1728788Y374650D02*
G54D10*
D03*
X1728788Y349250D02*
G54D10*
D03*
X1804988Y349250D02*
G54D10*
D03*
X1804988Y374650D02*
G54D10*
D03*
X1804988Y400050D02*
G54D10*
D03*
X1804988Y425450D02*
G54D10*
D03*
X1804988Y450850D02*
G54D10*
D03*
X1804988Y476250D02*
G54D10*
D03*
X1804988Y501650D02*
G54D10*
D03*
X1804988Y527050D02*
G54D10*
D03*
G36*
X1862788Y534050D02*
X1862788Y520050D01*
X1848788Y520050D01*
X1848788Y534050D01*
X1862788Y534050D01*
G37*
X1855788Y501650D02*
G54D10*
D03*
X1855788Y476250D02*
G54D10*
D03*
X1855788Y450850D02*
G54D10*
D03*
X1855788Y425450D02*
G54D10*
D03*
X1855788Y400050D02*
G54D10*
D03*
X1855788Y374650D02*
G54D10*
D03*
X1855788Y349250D02*
G54D10*
D03*
X1931988Y349250D02*
G54D10*
D03*
X1931988Y374650D02*
G54D10*
D03*
X1931988Y400050D02*
G54D10*
D03*
X1931988Y425450D02*
G54D10*
D03*
X1931988Y450850D02*
G54D10*
D03*
X1931988Y476250D02*
G54D10*
D03*
X1931988Y501650D02*
G54D10*
D03*
X1931988Y527050D02*
G54D10*
D03*
G36*
X2266012Y794400D02*
X2266012Y780400D01*
X2252012Y780400D01*
X2252012Y794400D01*
X2266012Y794400D01*
G37*
X2259012Y762000D02*
G54D10*
D03*
X2259012Y736600D02*
G54D10*
D03*
X2259012Y711200D02*
G54D10*
D03*
X2259012Y685800D02*
G54D10*
D03*
X2259012Y660400D02*
G54D10*
D03*
X2259012Y635000D02*
G54D10*
D03*
X2259012Y609600D02*
G54D10*
D03*
X2335212Y609600D02*
G54D10*
D03*
X2335212Y635000D02*
G54D10*
D03*
X2335212Y660400D02*
G54D10*
D03*
X2335212Y685800D02*
G54D10*
D03*
X2335212Y711200D02*
G54D10*
D03*
X2335212Y736600D02*
G54D10*
D03*
X2335212Y762000D02*
G54D10*
D03*
X2335212Y787400D02*
G54D10*
D03*
G36*
X2139012Y862662D02*
X2139012Y848662D01*
X2125012Y848662D01*
X2125012Y862662D01*
X2139012Y862662D01*
G37*
X2132012Y830262D02*
G54D10*
D03*
X2132012Y804862D02*
G54D10*
D03*
X2132012Y779462D02*
G54D10*
D03*
X2132012Y754062D02*
G54D10*
D03*
X2132012Y728662D02*
G54D10*
D03*
X2132012Y703262D02*
G54D10*
D03*
X2132012Y677862D02*
G54D10*
D03*
X2132012Y652462D02*
G54D10*
D03*
X2132012Y627062D02*
G54D10*
D03*
X2208212Y627062D02*
G54D10*
D03*
X2208212Y652462D02*
G54D10*
D03*
X2208212Y677862D02*
G54D10*
D03*
X2208212Y703262D02*
G54D10*
D03*
X2208212Y728662D02*
G54D10*
D03*
X2208212Y754062D02*
G54D10*
D03*
X2208212Y779462D02*
G54D10*
D03*
X2208212Y804862D02*
G54D10*
D03*
X2208212Y830262D02*
G54D10*
D03*
X2208212Y855662D02*
G54D10*
D03*
G36*
X1405588Y786462D02*
X1405588Y772462D01*
X1391588Y772462D01*
X1391588Y786462D01*
X1405588Y786462D01*
G37*
X1398588Y754062D02*
G54D10*
D03*
X1398588Y728662D02*
G54D10*
D03*
X1398588Y703262D02*
G54D10*
D03*
X1398588Y677862D02*
G54D10*
D03*
X1398588Y652462D02*
G54D10*
D03*
X1398588Y627062D02*
G54D10*
D03*
X1474788Y627062D02*
G54D10*
D03*
X1474788Y652462D02*
G54D10*
D03*
X1474788Y677862D02*
G54D10*
D03*
X1474788Y703262D02*
G54D10*
D03*
X1474788Y728662D02*
G54D10*
D03*
X1474788Y754062D02*
G54D10*
D03*
X1474788Y779462D02*
G54D10*
D03*
G36*
X1049988Y1115075D02*
X1049988Y1101075D01*
X1035988Y1101075D01*
X1035988Y1115075D01*
X1049988Y1115075D01*
G37*
X1042988Y1082675D02*
G54D11*
D03*
X1042988Y1057275D02*
G54D11*
D03*
X1042988Y1031875D02*
G54D11*
D03*
X1042988Y1006475D02*
G54D11*
D03*
X1042988Y981075D02*
G54D11*
D03*
X1042988Y955675D02*
G54D11*
D03*
X1119188Y955675D02*
G54D11*
D03*
X1119188Y981075D02*
G54D11*
D03*
X1119188Y1006475D02*
G54D11*
D03*
X1119188Y1031875D02*
G54D11*
D03*
X1119188Y1057275D02*
G54D11*
D03*
X1119188Y1082675D02*
G54D11*
D03*
X1119188Y1108075D02*
G54D11*
D03*
G36*
X759475Y913462D02*
X759475Y899462D01*
X745475Y899462D01*
X745475Y913462D01*
X759475Y913462D01*
G37*
X752475Y881062D02*
G54D10*
D03*
X752475Y855662D02*
G54D10*
D03*
X752475Y830262D02*
G54D10*
D03*
X752475Y804862D02*
G54D10*
D03*
X752475Y779462D02*
G54D10*
D03*
X752475Y754062D02*
G54D10*
D03*
X752475Y728662D02*
G54D10*
D03*
X752475Y703262D02*
G54D10*
D03*
X828675Y703262D02*
G54D10*
D03*
X828675Y728662D02*
G54D10*
D03*
X828675Y754062D02*
G54D10*
D03*
X828675Y779462D02*
G54D10*
D03*
X828675Y804862D02*
G54D10*
D03*
X828675Y830262D02*
G54D10*
D03*
X828675Y855662D02*
G54D10*
D03*
X828675Y881062D02*
G54D10*
D03*
X828675Y906462D02*
G54D10*
D03*
X993775Y1095375D02*
G54D12*
D03*
X993775Y968375D02*
G54D12*
D03*
X942975Y1095375D02*
G54D12*
D03*
X942975Y968375D02*
G54D12*
D03*
X1019175Y1095375D02*
G54D12*
D03*
X1019175Y968375D02*
G54D12*
D03*
X968375Y1095375D02*
G54D12*
D03*
X968375Y968375D02*
G54D12*
D03*
X1087438Y963612D02*
G54D13*
D03*
X1296988Y1109662D02*
G54D12*
D03*
X1296988Y982662D02*
G54D12*
D03*
X1333500Y1109662D02*
G54D14*
D03*
X1333500Y982662D02*
G54D14*
D03*
X1226325Y1127125D02*
G54D12*
D03*
X1177925Y1127125D02*
G54D12*
D03*
X1042988Y1146175D02*
G54D13*
D03*
G54D15*
X1042988Y1146175D02*
X1042988Y1108075D01*
G54D15*
X1087438Y963612D02*
X1081088Y957262D01*
X1081088Y930275D01*
X1057275Y906462D01*
X1044213Y906462D01*
X1044010Y906666D01*
X1277937Y1146175D02*
G54D11*
D03*
G54D15*
X1042988Y1082675D02*
X993775Y1033462D01*
X993775Y968375D01*
G54D15*
X1042988Y1031875D02*
X1042988Y1006475D01*
X1195387Y966788D02*
G54D11*
D03*
X1141413Y1020762D02*
G54D16*
D03*
X1260475Y1020762D02*
G54D16*
D03*
G54D15*
X1044010Y881266D02*
X1044371Y881266D01*
X1114425Y811212D01*
X1114425Y735012D01*
X1120775Y728662D01*
X1120775Y317500D01*
X1143000Y295275D01*
X1143000Y241300D01*
X1143000Y241300D02*
G54D13*
D03*
X1125538Y887412D02*
G54D13*
D03*
G54D15*
X1125538Y887412D02*
X1157288Y855662D01*
X1157288Y652462D01*
X1146175Y641350D01*
X1146175Y569912D01*
X1157288Y558800D01*
X1157288Y520700D01*
X1139825Y503238D01*
X1139825Y481012D01*
X1150938Y469900D01*
X1150938Y455612D01*
X1133475Y438150D01*
X1133475Y328612D01*
X1163638Y298450D01*
X1216025Y298450D01*
X1241425Y273050D01*
X1241425Y69850D01*
X1254125Y57150D01*
X1817688Y57150D01*
X1822450Y52388D01*
X1881188Y52388D01*
X1885950Y57150D01*
X1885950Y69850D01*
X1911350Y95250D01*
X1911350Y151400D01*
X1911350Y151400D02*
G54D13*
D03*
X2044700Y139700D02*
G54D13*
D03*
G54D15*
X2044700Y139700D02*
X2044700Y71438D01*
X2070100Y46038D01*
X2128838Y46038D01*
X2133600Y50800D01*
G54D15*
X1044010Y830466D02*
X1044371Y830466D01*
X1108075Y766762D01*
X1108075Y728662D01*
X1114425Y722312D01*
X1114425Y311150D01*
X1130300Y295275D01*
X1130300Y206375D01*
X1139825Y196850D01*
X1139825Y157162D01*
X1144588Y152400D01*
X1144588Y152400D02*
G54D13*
D03*
G54D15*
X1044010Y805066D02*
X1044371Y805066D01*
X1101725Y747712D01*
X1101725Y722312D01*
X1108075Y715962D01*
X1108075Y304800D01*
X1123950Y288925D01*
X1123950Y201612D01*
X1133475Y192088D01*
X1133475Y150812D01*
X1095375Y112712D01*
G54D15*
X1044010Y779666D02*
X1044371Y779666D01*
X1095375Y728662D01*
X1095375Y717550D01*
X1101725Y711200D01*
X1101725Y298450D01*
X1117600Y282575D01*
X1117600Y195262D01*
X1127125Y185738D01*
X1127125Y169862D01*
X1095375Y138112D01*
G54D15*
X1044010Y754266D02*
X1044371Y754266D01*
X1095375Y703262D01*
X1095375Y293688D01*
X1111250Y277812D01*
X1111250Y179388D01*
X1114425Y176212D01*
X1114425Y176212D02*
G54D13*
D03*
G54D15*
X1044010Y728866D02*
X1044371Y728866D01*
X1089025Y684212D01*
X1089025Y292100D01*
X1079500Y282575D01*
X1039812Y282575D01*
X1028700Y271462D01*
X1028700Y153988D01*
X1044575Y138112D01*
G54D15*
X1044010Y703466D02*
X1044371Y703466D01*
X1082675Y665162D01*
X1082675Y298450D01*
X1073150Y288925D01*
X1036638Y288925D01*
X1022350Y274638D01*
X1022350Y134938D01*
X1044575Y112712D01*
G54D15*
X1044010Y678066D02*
X1044371Y678066D01*
X1076325Y646112D01*
X1076325Y303212D01*
X1068388Y295275D01*
X1028700Y295275D01*
X1006475Y273050D01*
X1006475Y203200D01*
X1006475Y203200D02*
G54D13*
D03*
X1063625Y588962D02*
G54D13*
D03*
G54D15*
X1044010Y652666D02*
X1044371Y652666D01*
X1063625Y633412D01*
X1063625Y588962D01*
X1069975Y582612D01*
X1069975Y311150D01*
X1060450Y301625D01*
X1022350Y301625D01*
X990600Y269875D01*
X990600Y141288D01*
X1044575Y87312D01*
X2182812Y571500D02*
G54D13*
D03*
X2195512Y590550D02*
G54D12*
D03*
X2195512Y463550D02*
G54D12*
D03*
G54D15*
X2182812Y571500D02*
X2195512Y558800D01*
X2195512Y463550D01*
X2259012Y571500D02*
G54D13*
D03*
G54D15*
X2259012Y571500D02*
X2263775Y576262D01*
X2263775Y593725D01*
X2276475Y606425D01*
X2276475Y693738D01*
X2259012Y711200D01*
X1347788Y728662D02*
G54D12*
D03*
X1220788Y728662D02*
G54D12*
D03*
X1347788Y754062D02*
G54D12*
D03*
X1220788Y754062D02*
G54D12*
D03*
X1347788Y804862D02*
G54D12*
D03*
X1220788Y804862D02*
G54D12*
D03*
X1347788Y830262D02*
G54D12*
D03*
X1220788Y830262D02*
G54D12*
D03*
X1347788Y855662D02*
G54D12*
D03*
X1220788Y855662D02*
G54D12*
D03*
X1347788Y881062D02*
G54D12*
D03*
X1220788Y881062D02*
G54D12*
D03*
X1347788Y906462D02*
G54D12*
D03*
X1220788Y906462D02*
G54D12*
D03*
X1560512Y798512D02*
G54D13*
D03*
X1557338Y677862D02*
G54D13*
D03*
G54D15*
X1560512Y798512D02*
X1566862Y792162D01*
X1566862Y773112D01*
X1547812Y754062D01*
X1547812Y687388D01*
X1557338Y677862D01*
X1316038Y639762D02*
G54D13*
D03*
G54D15*
X1347787Y754062D02*
X1331912Y738188D01*
X1331912Y708025D01*
X1316038Y692150D01*
X1316038Y639762D01*
X1368425Y722312D02*
G54D13*
D03*
G54D15*
X1347788Y804862D02*
X1368425Y784225D01*
X1368425Y722312D01*
X1379538Y798512D02*
G54D13*
D03*
G54D15*
X1347788Y830262D02*
X1379538Y798512D01*
X1316038Y950912D02*
G54D13*
D03*
G54D15*
X1347788Y881062D02*
X1316038Y912812D01*
X1316038Y950912D01*
X1328738Y1020762D02*
G54D13*
D03*
G54D15*
X1347788Y906462D02*
X1328738Y925512D01*
X1328738Y963612D01*
X1319212Y973138D01*
X1319212Y1011238D01*
X1328738Y1020762D01*
X1296988Y500062D02*
G54D13*
D03*
G54D15*
X1296988Y500062D02*
X1309688Y512762D01*
X1309688Y557212D01*
X1316038Y563562D01*
X1316038Y614362D01*
X1303338Y627062D01*
X1303338Y708025D01*
X1325562Y730250D01*
X1325562Y782638D01*
X1296988Y811212D01*
X1296988Y950912D01*
X1277938Y969962D01*
X1277938Y995362D01*
X1295400Y1014412D01*
X1295400Y1014412D02*
G54D13*
D03*
X1316038Y614362D02*
G54D13*
D03*
G54D15*
X1892690Y626925D02*
X1892690Y631435D01*
X1857375Y666750D01*
X1857375Y685800D01*
X1874838Y703262D01*
X1874838Y741950D01*
X1874838Y741950D02*
G54D13*
D03*
X2068512Y747712D02*
G54D12*
D03*
X1941512Y747712D02*
G54D12*
D03*
X1985962Y771525D02*
G54D13*
D03*
G54D15*
X1985962Y771525D02*
X1989138Y774700D01*
X1989138Y828675D01*
X1976438Y841375D01*
X1976438Y968375D01*
X1989138Y981075D01*
X1989138Y1009650D01*
X1976438Y1022350D01*
X1976438Y1055688D01*
X1992312Y1071562D01*
X1992312Y1092200D01*
X1979612Y1104900D01*
X1979612Y1211262D01*
X1985962Y1217612D01*
X1985962Y1217612D02*
G54D13*
D03*
X1144588Y525462D02*
G54D13*
D03*
G54D15*
X1144588Y525462D02*
X1139825Y530225D01*
X1139825Y660400D01*
X1144588Y665162D01*
X1144588Y665162D02*
G54D13*
D03*
X1870075Y677862D02*
G54D13*
D03*
G54D15*
X1870075Y677862D02*
X1870075Y674940D01*
X1892690Y652325D01*
X1974850Y665162D02*
G54D13*
D03*
G54D15*
X1974850Y665162D02*
X1985962Y676275D01*
X1985962Y706438D01*
X1970088Y722312D01*
X1970088Y746125D01*
X1979612Y755650D01*
X1993900Y755650D01*
X2005012Y766762D01*
X2005012Y795338D01*
X1995488Y804862D01*
X1995488Y835025D01*
X1982788Y847725D01*
X1982788Y957262D01*
X1995488Y969962D01*
X1995488Y1012825D01*
X1982788Y1025525D01*
X1982788Y1050925D01*
X1998662Y1066800D01*
X1998662Y1096962D01*
X1985962Y1109662D01*
X1985962Y1198562D01*
X2005012Y1217612D01*
X2005012Y1217612D02*
G54D13*
D03*
G54D15*
X1474788Y677862D02*
X1474788Y652462D01*
G54D15*
X1474788Y627062D02*
X1449388Y652462D01*
X1449388Y811212D01*
X1443038Y817562D01*
X1443038Y836612D01*
X1466850Y860425D01*
X1466850Y950912D01*
X1444625Y973138D01*
X1444625Y990600D01*
X1462088Y1008062D01*
X1462088Y1052512D01*
X1455738Y1058862D01*
X1455738Y1058862D02*
G54D13*
D03*
G54D15*
X1474788Y627062D02*
X1468438Y620712D01*
X1468438Y506412D01*
X1479550Y495300D01*
X1479550Y461962D01*
X1479550Y461962D02*
G54D13*
D03*
G54D15*
X1728788Y476250D02*
X1743075Y461962D01*
X1743075Y417512D01*
X1747838Y412750D01*
X1760538Y412750D01*
X1768475Y404812D01*
X1768475Y392112D01*
X1763712Y387350D01*
X1757362Y387350D01*
X1749425Y379412D01*
X1749425Y336550D01*
X1698625Y285750D01*
X1670050Y285750D01*
X1660525Y276225D01*
X1660525Y210138D01*
X1652588Y202200D01*
X1652588Y202200D02*
G54D13*
D03*
X1139825Y461962D02*
G54D13*
D03*
G54D15*
X1139825Y461962D02*
X1133475Y468312D01*
X1133475Y717550D01*
X1138238Y722312D01*
X1138238Y855662D01*
X1093788Y900112D01*
X1093788Y944562D01*
X1093788Y944562D02*
G54D13*
D03*
X1430338Y1109662D02*
G54D12*
D03*
X1430338Y982662D02*
G54D12*
D03*
G54D15*
X1044010Y474866D02*
X1044371Y474866D01*
X1063625Y455612D01*
X1063625Y317500D01*
X1054100Y307975D01*
X1016000Y307975D01*
X984250Y276225D01*
X984250Y230188D01*
X968375Y214312D01*
X1152525Y177800D02*
G54D13*
D03*
G54D15*
X1152525Y177800D02*
X1152525Y179388D01*
X1155700Y182562D01*
X1155700Y295275D01*
X1127125Y323850D01*
X1127125Y741362D01*
X1127125Y741362D02*
G54D13*
D03*
X355600Y252412D02*
G54D13*
D03*
G54D15*
X355600Y252412D02*
X366712Y263525D01*
X366712Y455612D01*
X366712Y455612D02*
G54D13*
D03*
X917575Y525462D02*
G54D13*
D03*
G54D15*
X917575Y525462D02*
X925338Y533225D01*
X925338Y620888D01*
X917575Y628650D01*
X917575Y628650D02*
G54D13*
D03*
X1258888Y652462D02*
G54D13*
D03*
G54D15*
X1258888Y652462D02*
X1243012Y636588D01*
X1243012Y522288D01*
X1220788Y500062D01*
X1347788Y500062D02*
G54D12*
D03*
X1220788Y500062D02*
G54D12*
D03*
X1347788Y474662D02*
G54D12*
D03*
X1220788Y474662D02*
G54D12*
D03*
X1347788Y449262D02*
G54D12*
D03*
X1220788Y449262D02*
G54D12*
D03*
X1347788Y423862D02*
G54D12*
D03*
X1220788Y423862D02*
G54D12*
D03*
X1347788Y398462D02*
G54D12*
D03*
X1220788Y398462D02*
G54D12*
D03*
X1347788Y373062D02*
G54D12*
D03*
X1220788Y373062D02*
G54D12*
D03*
X1347788Y347662D02*
G54D12*
D03*
X1220788Y347662D02*
G54D12*
D03*
X1347788Y322262D02*
G54D12*
D03*
X1220788Y322262D02*
G54D12*
D03*
G54D15*
X412750Y239712D02*
X392112Y260350D01*
X392112Y298450D01*
X400050Y306388D01*
X419100Y306388D01*
X430212Y317500D01*
X430212Y349250D01*
X392112Y387350D01*
X392112Y461962D01*
X392112Y461962D02*
G54D13*
D03*
G54D15*
X665162Y214312D02*
X644525Y234950D01*
X644525Y279400D01*
X669925Y304800D01*
X669925Y304800D02*
G54D13*
D03*
X1260475Y303212D02*
G54D13*
D03*
G54D15*
X1260475Y303212D02*
X1260475Y312738D01*
X1244600Y328612D01*
X1244600Y400050D01*
X1220788Y423862D01*
X1255712Y458788D01*
X1255712Y528638D01*
X1265238Y538162D01*
X1265238Y538162D02*
G54D13*
D03*
G54D15*
X538162Y214312D02*
X512762Y239712D01*
X512762Y349250D01*
X522288Y358775D01*
X534988Y358775D01*
X546100Y369888D01*
X546100Y439738D01*
X555625Y449262D01*
X555625Y449262D02*
G54D13*
D03*
X1152525Y436562D02*
G54D13*
D03*
G54D15*
X1152525Y436562D02*
X1157288Y441325D01*
X1157288Y469900D01*
X1169988Y482600D01*
X1169988Y575444D01*
X1196410Y601866D01*
G54D15*
X790575Y214312D02*
X774700Y230188D01*
X774700Y271462D01*
X795338Y292100D01*
X795338Y292100D02*
G54D13*
D03*
X1241425Y311150D02*
G54D13*
D03*
G54D15*
X1241425Y311150D02*
X1236662Y315912D01*
X1236662Y382587D01*
X1220788Y398462D01*
X1177925Y385762D02*
G54D13*
D03*
G54D15*
X1177925Y385762D02*
X1177925Y456381D01*
X1196410Y474866D01*
G54D15*
X917575Y214312D02*
X898525Y233362D01*
X898525Y336550D01*
X885825Y349250D01*
X885825Y430212D01*
X885825Y430212D02*
G54D13*
D03*
G54D15*
X1196410Y398666D02*
X1196410Y397440D01*
X1220788Y373062D01*
G54D15*
X968375Y239712D02*
X909638Y298450D01*
X909638Y373062D01*
X909638Y373062D02*
G54D13*
D03*
G54D15*
X1196410Y373266D02*
X1196410Y372040D01*
X1220788Y347662D01*
X1260475Y190500D02*
G54D13*
D03*
G54D15*
X1260475Y190500D02*
X1260475Y266700D01*
X1220788Y306388D01*
X1220788Y322262D01*
X1519238Y249237D02*
G54D13*
D03*
G54D15*
X1519238Y249237D02*
X1519238Y266700D01*
X1535112Y282575D01*
X1535112Y377825D01*
X1573212Y415925D01*
X1573212Y514350D01*
X1566862Y520700D01*
X1566862Y520700D02*
G54D13*
D03*
G54D15*
X1566862Y520700D02*
X1566862Y533400D01*
X1597025Y563562D01*
X1597025Y622300D01*
X1609725Y635000D01*
X1609725Y823912D01*
X1631950Y846138D01*
X1631950Y879475D01*
X1651000Y898525D01*
X1651000Y931262D01*
X1677563Y957824D01*
G54D15*
X1804988Y188912D02*
X1779588Y188912D01*
X1765300Y203200D01*
X1765300Y292100D01*
X1787525Y314325D01*
X1787525Y433388D01*
X1804988Y450850D01*
X1649412Y461962D02*
G54D13*
D03*
G54D15*
X1649412Y461962D02*
X1641475Y469900D01*
X1641475Y585788D01*
X1654175Y598488D01*
X1654175Y756637D01*
X1677563Y780024D01*
G54D15*
X1476375Y188912D02*
X1498600Y188912D01*
X1519238Y209550D01*
X1519238Y228600D01*
X1504950Y242888D01*
X1504950Y265112D01*
X1528762Y288925D01*
X1528762Y384175D01*
X1565275Y420688D01*
X1565275Y442912D01*
X1557338Y450850D01*
X1557338Y450850D02*
G54D13*
D03*
G54D15*
X1557338Y450850D02*
X1550988Y457200D01*
X1550988Y528638D01*
X1590675Y568325D01*
X1590675Y631825D01*
X1585912Y636588D01*
X1585912Y730250D01*
X1579562Y736600D01*
X1579562Y736600D02*
G54D13*
D03*
G54D15*
X1474788Y728662D02*
X1458912Y744538D01*
X1458912Y823912D01*
X1458912Y823912D02*
G54D13*
D03*
X1498600Y830262D02*
G54D12*
D03*
X1371600Y830262D02*
G54D12*
D03*
X1633538Y163512D02*
G54D13*
D03*
G54D15*
X1633538Y163512D02*
X1624012Y173038D01*
X1624012Y420688D01*
X1628775Y425450D01*
X1628775Y425450D02*
G54D13*
D03*
G54D15*
X1628775Y425450D02*
X1622425Y431800D01*
X1622425Y598488D01*
X1635125Y611188D01*
X1635125Y801688D01*
X1657350Y823912D01*
X1657350Y836012D01*
X1677563Y856224D01*
X1652588Y138112D02*
G54D13*
D03*
G54D15*
X1652588Y138112D02*
X1652588Y171450D01*
X1630362Y193675D01*
X1630362Y388938D01*
X1641475Y400050D01*
X1641475Y400050D02*
G54D13*
D03*
G54D15*
X1641475Y400050D02*
X1641475Y436562D01*
X1628775Y449262D01*
X1628775Y593725D01*
X1641475Y606425D01*
X1641475Y794737D01*
X1677563Y830824D01*
G54D15*
X1425575Y112712D02*
X1404938Y133350D01*
X1404938Y277812D01*
X1436688Y309562D01*
X1436688Y436562D01*
X1436688Y436562D02*
G54D13*
D03*
X1649412Y374650D02*
G54D13*
D03*
G54D15*
X1649412Y374650D02*
X1654175Y379412D01*
X1654175Y434975D01*
X1635125Y454025D01*
X1635125Y588962D01*
X1647825Y601662D01*
X1647825Y775687D01*
X1677563Y805424D01*
G54D15*
X1677988Y87312D02*
X1708150Y117475D01*
X1708150Y198438D01*
X1714500Y204788D01*
X1714500Y227012D01*
X1708150Y233362D01*
X1708150Y280988D01*
X1755775Y328612D01*
X1755775Y368300D01*
X1762125Y374650D01*
X1762125Y374650D02*
G54D13*
D03*
G54D15*
X1677988Y349250D02*
X1660525Y366712D01*
X1660525Y474662D01*
X1647825Y487362D01*
X1647825Y581025D01*
X1660525Y593725D01*
X1660525Y737586D01*
X1677563Y754624D01*
G54D15*
X1476375Y163512D02*
X1497012Y163512D01*
X1535112Y201612D01*
X1535112Y273050D01*
X1541462Y279400D01*
X1541462Y365125D01*
X1571625Y395288D01*
X1571625Y395288D02*
G54D13*
D03*
G54D15*
X1571625Y395288D02*
X1579562Y403225D01*
X1579562Y534988D01*
X1603375Y558800D01*
X1603375Y615950D01*
X1616075Y628650D01*
X1616075Y820738D01*
X1638300Y842962D01*
X1638300Y876300D01*
X1657350Y895350D01*
X1657350Y912212D01*
X1677563Y932424D01*
G54D15*
X1601788Y138112D02*
X1617662Y153988D01*
X1617662Y384175D01*
X1601788Y400050D01*
X1601788Y403225D01*
X1616075Y417512D01*
X1616075Y604838D01*
X1628775Y617538D01*
X1628775Y808038D01*
X1651000Y830262D01*
X1651000Y855062D01*
X1677563Y881624D01*
G54D15*
X1601788Y112712D02*
X1582738Y131762D01*
X1582738Y198438D01*
X1589088Y204788D01*
X1589088Y230188D01*
X1582738Y236538D01*
X1582738Y355600D01*
X1601788Y374650D01*
X1585912Y390525D01*
X1585912Y531812D01*
X1609725Y555625D01*
X1609725Y609600D01*
X1622425Y622300D01*
X1622425Y814388D01*
X1644650Y836612D01*
X1644650Y874112D01*
X1677563Y907024D01*
G54D15*
X1298575Y214312D02*
X1277938Y234950D01*
X1277938Y304800D01*
X1303338Y330200D01*
X1303338Y373062D01*
X1303338Y373062D02*
G54D13*
D03*
X1500188Y373062D02*
G54D12*
D03*
X1373188Y373062D02*
G54D12*
D03*
X1500188Y347662D02*
G54D12*
D03*
X1373188Y347662D02*
G54D12*
D03*
X1500188Y322262D02*
G54D12*
D03*
X1373188Y322262D02*
G54D12*
D03*
X1500188Y398462D02*
G54D12*
D03*
X1373188Y398462D02*
G54D12*
D03*
X1500188Y423862D02*
G54D12*
D03*
X1373188Y423862D02*
G54D12*
D03*
X1500188Y449262D02*
G54D12*
D03*
X1373188Y449262D02*
G54D12*
D03*
X1500188Y474662D02*
G54D12*
D03*
X1373188Y474662D02*
G54D12*
D03*
X1500188Y500062D02*
G54D12*
D03*
X1373188Y500062D02*
G54D12*
D03*
G54D15*
X1298575Y214312D02*
X1279525Y195262D01*
X1279525Y76200D01*
X1285875Y69850D01*
X1744662Y69850D01*
X1758950Y84138D01*
X1758950Y296862D01*
X1781175Y319088D01*
X1781175Y400050D01*
X1755775Y425450D01*
X1755775Y425450D02*
G54D13*
D03*
G54D15*
X1755775Y425450D02*
X1755775Y538162D01*
X1768475Y550862D01*
X1768475Y762000D01*
X1762125Y768350D01*
X1762125Y808290D01*
X1740290Y830125D01*
X1831975Y806450D02*
G54D13*
D03*
G54D15*
X1831975Y806450D02*
X1831975Y808038D01*
X1825625Y814388D01*
X1825625Y898525D01*
X1822450Y901700D01*
X1811338Y901700D01*
X1806575Y906462D01*
X1806575Y952500D01*
X1771650Y987425D01*
X1771650Y1171575D01*
X1751012Y1192212D01*
X1751012Y1208088D01*
X1735138Y1223962D01*
X1735138Y1223962D02*
G54D13*
D03*
G54D15*
X1349375Y239712D02*
X1365250Y255588D01*
X1365250Y274638D01*
X1371600Y280988D01*
X1392238Y280988D01*
X1423988Y312738D01*
X1423988Y341312D01*
X1423988Y341312D02*
G54D13*
D03*
G54D15*
X1423988Y341312D02*
X1423988Y398462D01*
X1423988Y398462D02*
G54D13*
D03*
X1768475Y527050D02*
G54D13*
D03*
G54D15*
X1768475Y527050D02*
X1774825Y533400D01*
X1774825Y765175D01*
X1768475Y771525D01*
X1768475Y822325D01*
X1755775Y835025D01*
X1755775Y890840D01*
X1740290Y906325D01*
X1844675Y920750D02*
G54D13*
D03*
X1838325Y862012D02*
G54D13*
D03*
G54D15*
X1838325Y862012D02*
X1849438Y873125D01*
X1849438Y915988D01*
X1844675Y920750D01*
X1831975Y933450D01*
X1831975Y954088D01*
X1825625Y960438D01*
X1825625Y969962D01*
X1790700Y1004888D01*
X1790700Y1130300D01*
X1801812Y1141412D01*
X1801812Y1206500D01*
X1790700Y1217612D01*
X1790700Y1223962D01*
X1790700Y1223962D02*
G54D13*
D03*
X1943100Y292100D02*
G54D13*
D03*
G54D15*
X1943100Y292100D02*
X1912938Y322262D01*
X1912938Y381000D01*
X1931988Y400050D01*
X1776412Y444500D02*
G54D13*
D03*
G54D15*
X1776412Y444500D02*
X1784350Y452438D01*
X1784350Y473075D01*
X1768475Y488950D01*
X1768475Y501650D01*
X1787525Y520700D01*
X1787525Y779462D01*
X1787525Y779462D02*
G54D13*
D03*
G54D15*
X1787525Y779462D02*
X1781175Y785812D01*
X1781175Y854075D01*
X1768475Y866775D01*
X1768475Y927100D01*
X1768475Y927100D02*
G54D13*
D03*
X1844675Y952500D02*
G54D13*
D03*
G54D15*
X1844675Y952500D02*
X1831975Y965200D01*
X1831975Y1008062D01*
X1825625Y1014412D01*
X1811338Y1014412D01*
X1803400Y1022350D01*
X1803400Y1116012D01*
X1816100Y1128712D01*
X1816100Y1223962D01*
X1816100Y1223962D02*
G54D13*
D03*
X2103438Y754062D02*
G54D13*
D03*
G54D15*
X2103438Y754062D02*
X2103438Y769938D01*
X2093912Y779462D01*
G54D15*
X1476375Y239712D02*
X1455738Y260350D01*
X1455738Y309562D01*
X1455738Y309562D02*
G54D13*
D03*
G54D15*
X1455738Y309562D02*
X1455738Y406400D01*
X1462088Y412750D01*
X1462088Y412750D02*
G54D13*
D03*
X1898650Y285750D02*
G54D13*
D03*
G54D15*
X1898650Y285750D02*
X1903412Y290512D01*
X1903412Y388938D01*
X1916112Y401638D01*
X1916112Y434975D01*
X1931988Y450850D01*
X1768475Y469900D02*
G54D13*
D03*
G54D15*
X1768475Y469900D02*
X1762125Y476250D01*
X1762125Y506412D01*
X1781175Y525462D01*
X1781175Y768350D01*
X1774825Y774700D01*
X1774825Y838200D01*
X1768475Y844550D01*
X1768475Y844550D02*
G54D13*
D03*
G54D15*
X1768475Y844550D02*
X1762125Y850900D01*
X1762125Y898525D01*
X1755775Y904875D01*
X1755775Y941640D01*
X1740290Y957125D01*
X1844675Y976312D02*
G54D13*
D03*
G54D15*
X1844675Y976312D02*
X1839912Y981075D01*
X1839912Y1016000D01*
X1833562Y1022350D01*
X1816100Y1022350D01*
X1809750Y1028700D01*
X1809750Y1111250D01*
X1841500Y1143000D01*
X1841500Y1223962D01*
X1841500Y1223962D02*
G54D13*
D03*
X1506538Y222250D02*
G54D13*
D03*
G54D15*
X1506538Y222250D02*
X1493838Y234950D01*
X1493838Y293688D01*
X1468438Y319088D01*
X1468438Y360362D01*
X1468438Y360362D02*
G54D13*
D03*
G54D15*
X1468438Y360362D02*
X1468438Y398462D01*
X1474788Y404812D01*
X1474788Y430212D01*
X1455738Y449262D01*
X1455738Y449262D02*
G54D13*
D03*
X1892300Y311150D02*
G54D13*
D03*
X1905000Y247650D02*
G54D13*
D03*
G54D15*
X1905000Y247650D02*
X1884362Y268288D01*
X1884362Y303212D01*
X1892300Y311150D01*
X1892300Y390525D01*
X1908175Y406400D01*
X1908175Y452438D01*
X1931988Y476250D01*
X1892300Y198438D02*
G54D13*
D03*
X1898650Y223838D02*
G54D13*
D03*
G54D15*
X1892300Y198438D02*
X1892300Y217488D01*
X1898650Y223838D01*
G54D15*
X1804988Y214312D02*
X1817688Y227012D01*
X1817688Y271462D01*
X1804988Y284162D01*
X1804988Y292100D01*
X1825625Y312738D01*
X1825625Y498475D01*
X1838325Y511175D01*
X1838325Y533400D01*
X1830388Y541338D01*
X1814512Y541338D01*
X1809750Y546100D01*
X1809750Y584200D01*
X1820862Y595312D01*
X1820862Y619125D01*
X1793875Y646112D01*
X1793875Y757238D01*
X1800225Y763588D01*
X1800225Y788988D01*
X1787525Y801688D01*
X1787525Y874712D01*
X1781175Y881062D01*
X1781175Y881062D02*
G54D13*
D03*
X1819275Y912812D02*
G54D13*
D03*
G54D15*
X1819275Y912812D02*
X1819275Y941388D01*
X1812925Y947738D01*
X1812925Y960438D01*
X1778000Y995362D01*
X1778000Y1211262D01*
X1765300Y1223962D01*
X1765300Y1223962D02*
G54D13*
D03*
G54D15*
X1930400Y214312D02*
X1909762Y234950D01*
X1900238Y234950D01*
X1878012Y257175D01*
X1878012Y387350D01*
X1901825Y411162D01*
X1901825Y460375D01*
X1876425Y485775D01*
X1876425Y530225D01*
X1860550Y546100D01*
X1833562Y546100D01*
X1822450Y557212D01*
X1822450Y557212D02*
G54D13*
D03*
G54D15*
X1822450Y557212D02*
X1827212Y561975D01*
X1827212Y623888D01*
X1800225Y650875D01*
X1800225Y752475D01*
X1806575Y758825D01*
X1806575Y804862D01*
X1800225Y811212D01*
X1800225Y811212D02*
G54D13*
D03*
G54D15*
X1800225Y811212D02*
X1793875Y817562D01*
X1793875Y889000D01*
X1781175Y901700D01*
X1781175Y931862D01*
X1768475Y944562D01*
X1768475Y944562D02*
G54D13*
D03*
X1423988Y887412D02*
G54D13*
D03*
G54D15*
X1423988Y887412D02*
X1441450Y904875D01*
X1441450Y957262D01*
X1431925Y966788D01*
X1420812Y966788D01*
X1412875Y974725D01*
X1412875Y1116012D01*
X1403350Y1125538D01*
X1374775Y1125538D01*
X1354138Y1146175D01*
X1354138Y1209675D01*
X1354138Y1209675D02*
G54D13*
D03*
X1296988Y474662D02*
G54D13*
D03*
G54D15*
X1296988Y474662D02*
X1296988Y390525D01*
X1292225Y385762D01*
X1292225Y328612D01*
X1271588Y307975D01*
X1271588Y71438D01*
X1279525Y63500D01*
X1804988Y63500D01*
X1816100Y74612D01*
X1816100Y101600D01*
X1819275Y104775D01*
X1819275Y200025D01*
X1804988Y214312D01*
X1782762Y493712D02*
G54D13*
D03*
X1398588Y482600D02*
G54D13*
D03*
G54D15*
X1398588Y482600D02*
X1398588Y373062D01*
X1373188Y347662D01*
G54D15*
X1804988Y476250D02*
X1800225Y476250D01*
X1782762Y493712D01*
X1878012Y427038D02*
G54D13*
D03*
G54D15*
X1878012Y427038D02*
X1878012Y428625D01*
X1855788Y450850D01*
G54D15*
X1728788Y501650D02*
X1743075Y515938D01*
X1743075Y547688D01*
X1755775Y560388D01*
X1755775Y738440D01*
X1740290Y753925D01*
X1812925Y717550D02*
G54D13*
D03*
G54D15*
X1812925Y717550D02*
X1812925Y747712D01*
X1831975Y766762D01*
X1831975Y784225D01*
X1819275Y796925D01*
X1819275Y855662D01*
X1812925Y862012D01*
X1812925Y862012D02*
G54D13*
D03*
G54D15*
X1812925Y862012D02*
X1819275Y868362D01*
X1819275Y892175D01*
X1816100Y895350D01*
X1808162Y895350D01*
X1800225Y903288D01*
X1800225Y947738D01*
X1765300Y982662D01*
X1765300Y1166812D01*
X1744662Y1187450D01*
X1744662Y1203325D01*
X1736725Y1211262D01*
X1714500Y1211262D01*
X1708150Y1217612D01*
X1708150Y1217612D02*
G54D13*
D03*
X1744662Y487362D02*
G54D13*
D03*
X1882775Y442912D02*
G54D13*
D03*
G54D15*
X1882775Y442912D02*
X1882775Y449262D01*
X1855788Y476250D01*
X1417638Y476250D02*
G54D13*
D03*
G54D15*
X1417638Y476250D02*
X1404938Y463550D01*
X1404938Y354012D01*
X1373188Y322262D01*
G54D15*
X1744662Y487362D02*
X1749425Y492125D01*
X1749425Y542925D01*
X1762125Y555625D01*
X1762125Y757490D01*
X1740290Y779325D01*
X1819275Y774700D02*
G54D13*
D03*
G54D15*
X1819275Y774700D02*
X1812925Y781050D01*
X1812925Y823912D01*
X1800225Y836612D01*
X1800225Y874712D01*
X1806575Y881062D01*
X1806575Y881062D02*
G54D13*
D03*
G54D15*
X1806575Y881062D02*
X1806575Y887412D01*
X1793875Y900112D01*
X1793875Y942975D01*
X1758950Y977900D01*
X1758950Y1162050D01*
X1738312Y1182688D01*
X1738312Y1198562D01*
X1731962Y1204912D01*
X1701800Y1204912D01*
X1689100Y1217612D01*
X1689100Y1217612D02*
G54D13*
D03*
G54D17*
X1500188Y500062D02*
X1500188Y474662D01*
X1500188Y449262D01*
X1500188Y423862D01*
X1500188Y398462D01*
X1500188Y373062D01*
X1500188Y347662D01*
X1500188Y322262D01*
X184150Y239712D02*
G54D12*
D03*
X184150Y112712D02*
G54D12*
D03*
X311150Y239712D02*
G54D12*
D03*
X311150Y112712D02*
G54D12*
D03*
X436562Y214312D02*
G54D12*
D03*
X436562Y87312D02*
G54D12*
D03*
X563562Y214312D02*
G54D12*
D03*
X563562Y87312D02*
G54D12*
D03*
X690562Y214312D02*
G54D12*
D03*
X690562Y87312D02*
G54D12*
D03*
X817562Y214312D02*
G54D12*
D03*
X817562Y87312D02*
G54D12*
D03*
X942975Y214312D02*
G54D12*
D03*
X942975Y87312D02*
G54D12*
D03*
X1069975Y214312D02*
G54D12*
D03*
X1069975Y87312D02*
G54D12*
D03*
X1196975Y214312D02*
G54D12*
D03*
X1196975Y87312D02*
G54D12*
D03*
X1323975Y214312D02*
G54D12*
D03*
X1323975Y87312D02*
G54D12*
D03*
X1450975Y214312D02*
G54D12*
D03*
X1450975Y87312D02*
G54D12*
D03*
X1577975Y214312D02*
G54D12*
D03*
X1577975Y87312D02*
G54D12*
D03*
X1703388Y214312D02*
G54D12*
D03*
X1703388Y87312D02*
G54D12*
D03*
X1830388Y214312D02*
G54D12*
D03*
X1830388Y87312D02*
G54D12*
D03*
X1955800Y330200D02*
G54D12*
D03*
X1955800Y203200D02*
G54D12*
D03*
X1955800Y177800D02*
G54D12*
D03*
X1955800Y50800D02*
G54D12*
D03*
X241300Y309562D02*
G54D11*
D03*
X379412Y296863D02*
G54D11*
D03*
X758824Y265112D02*
G54D11*
D03*
X879474Y285750D02*
G54D11*
D03*
X1387474Y265112D02*
G54D11*
D03*
X1831974Y265112D02*
G54D11*
D03*
X2417762Y90488D02*
G54D11*
D03*
X2011362Y330200D02*
G54D11*
D03*
X1768474Y349250D02*
G54D11*
D03*
X1703388Y476250D02*
G54D12*
D03*
X1703388Y349250D02*
G54D12*
D03*
X1550988Y550862D02*
G54D11*
D03*
X1550988Y423862D02*
G54D11*
D03*
X1941512Y1141412D02*
G54D11*
D03*
G54D18*
X1941512Y1141412D02*
X1941512Y1109662D01*
X1976438Y1077912D02*
G54D13*
D03*
X1974850Y690562D02*
G54D13*
D03*
G54D15*
X1976438Y1077912D02*
X1974850Y1077912D01*
X1970088Y1073150D01*
X1970088Y1017588D01*
X1982788Y1004888D01*
X1982788Y990600D01*
X1970088Y977900D01*
X1970088Y835025D01*
X1982788Y822325D01*
X1982788Y790575D01*
X1970088Y777875D01*
X1970088Y758825D01*
X1963738Y752475D01*
X1963738Y701675D01*
X1974850Y690562D01*
X2068512Y590550D02*
G54D12*
D03*
X2068512Y463550D02*
G54D12*
D03*
X1543049Y1265238D02*
G54D19*
D03*
X1568449Y1265238D02*
G54D19*
D03*
X1593849Y1265238D02*
G54D19*
D03*
X1619249Y1265238D02*
G54D19*
D03*
X1670049Y1265238D02*
G54D19*
D03*
X1695449Y1265238D02*
G54D19*
D03*
X1720849Y1265238D02*
G54D19*
D03*
X1746249Y1265238D02*
G54D19*
D03*
X1771649Y1265238D02*
G54D19*
D03*
X1797049Y1265238D02*
G54D19*
D03*
X1822449Y1265238D02*
G54D19*
D03*
X1847849Y1265238D02*
G54D19*
D03*
X1873249Y1265238D02*
G54D19*
D03*
X1898649Y1265238D02*
G54D19*
D03*
X1924049Y1265238D02*
G54D19*
D03*
X1949449Y1265238D02*
G54D19*
D03*
X1974849Y1265238D02*
G54D19*
D03*
X2000249Y1265238D02*
G54D19*
D03*
X2025649Y1265238D02*
G54D19*
D03*
X2051049Y1265238D02*
G54D19*
D03*
X2076449Y1265238D02*
G54D19*
D03*
X2101849Y1265238D02*
G54D19*
D03*
X2127249Y1265238D02*
G54D19*
D03*
X2152649Y1265238D02*
G54D19*
D03*
X2178049Y1265238D02*
G54D19*
D03*
X2203449Y1265238D02*
G54D19*
D03*
X2228849Y1265238D02*
G54D19*
D03*
X1565275Y1103312D02*
G54D13*
D03*
G54D15*
X1565275Y1103312D02*
X1558925Y1109662D01*
X1558925Y1133475D01*
X1549400Y1143000D01*
X1549400Y1198562D01*
X1568450Y1217612D01*
X1568450Y1238250D01*
G54D15*
X1565275Y1103312D02*
X1565275Y1101725D01*
X1571625Y1095375D01*
X1571625Y1062038D01*
X1565275Y1055688D01*
X1565275Y984250D01*
X1539875Y958850D01*
X1539875Y693137D01*
X1525163Y678424D01*
X2033588Y1014412D02*
G54D13*
D03*
G54D15*
X2033588Y1014412D02*
X2027238Y1020762D01*
X2027238Y1106488D01*
X2036762Y1116012D01*
X2036762Y1162050D01*
X2062162Y1187450D01*
X2062162Y1219200D01*
X2051050Y1230312D01*
X2051050Y1238250D01*
G54D15*
X1941512Y1058862D02*
X1918227Y1058862D01*
X1892690Y1033325D01*
X2038350Y990600D02*
G54D13*
D03*
X2232025Y1009650D02*
G54D13*
D03*
G54D15*
X2232025Y1009650D02*
X2232025Y985838D01*
X2263775Y954088D01*
X2263775Y847725D01*
X2247900Y831850D01*
X2247900Y819150D01*
X2282825Y784225D01*
X2282825Y603250D01*
X2270125Y590550D01*
X2270125Y565150D01*
X2257425Y552450D01*
X2257425Y525462D01*
X2246312Y514350D01*
X2246312Y514350D02*
G54D13*
D03*
X1892300Y527050D02*
G54D13*
D03*
G54D15*
X1892300Y527050D02*
X1866900Y552450D01*
X1855788Y552450D01*
X1841500Y566738D01*
X1841500Y641350D01*
X1841500Y641350D02*
G54D13*
D03*
G54D15*
X2038350Y990600D02*
X2046288Y998538D01*
X2046288Y1022350D01*
X2033588Y1035050D01*
X2033588Y1101725D01*
X2043112Y1111250D01*
X2043112Y1155700D01*
X2076450Y1189038D01*
X2076450Y1238250D01*
G54D15*
X1941512Y1033462D02*
X1918227Y1033462D01*
X1892690Y1007925D01*
X2046288Y965200D02*
G54D13*
D03*
G54D15*
X2046288Y965200D02*
X2052638Y971550D01*
X2052638Y1027112D01*
X2039938Y1039812D01*
X2039938Y1092200D01*
X2049462Y1101725D01*
X2049462Y1147762D01*
X2101850Y1200150D01*
X2101850Y1238250D01*
G54D15*
X1941512Y1008062D02*
X1918227Y1008062D01*
X1892690Y982525D01*
X1890576Y982525D01*
X1868488Y960438D01*
X1868488Y855662D01*
X1862138Y849312D01*
X1862138Y784225D01*
X1843088Y765175D01*
X1843088Y738188D01*
X1830388Y725488D01*
X1830388Y692150D01*
X1830388Y692150D02*
G54D13*
D03*
X2049462Y931862D02*
G54D13*
D03*
G54D15*
X2049462Y931862D02*
X2058988Y941388D01*
X2058988Y1033462D01*
X2046288Y1046162D01*
X2046288Y1087438D01*
X2055812Y1096962D01*
X2055812Y1141412D01*
X2120900Y1206500D01*
X2120900Y1231900D01*
X2128838Y1239838D01*
G54D15*
X1941512Y982662D02*
X1918227Y982662D01*
X1892690Y957125D01*
X1890575Y957125D01*
X1874838Y941388D01*
X1874838Y850900D01*
X1868488Y844550D01*
X1868488Y776288D01*
X1849438Y757238D01*
X1849438Y715962D01*
X1844675Y711200D01*
X1844675Y711200D02*
G54D13*
D03*
G54D15*
X1941512Y957262D02*
X1918227Y957262D01*
X1892690Y931725D01*
X1558925Y855662D02*
G54D13*
D03*
G54D15*
X1558925Y855662D02*
X1558925Y856059D01*
X1553369Y861616D01*
X1553369Y948928D01*
X1577578Y973138D01*
X1577578Y1028700D01*
X1584325Y1035447D01*
X1584325Y1110456D01*
X1588294Y1114425D01*
X1588294Y1171178D01*
X1587897Y1171575D01*
X1587897Y1171575D02*
G54D13*
D03*
X1828403Y1179909D02*
G54D13*
D03*
G54D15*
X1941512Y931862D02*
X1918227Y931862D01*
X1892690Y906325D01*
X1819275Y1001712D02*
G54D13*
D03*
G54D15*
X1819275Y1001712D02*
X1811338Y1001712D01*
X1797050Y1016000D01*
X1797050Y1123950D01*
X1808162Y1135062D01*
X1808162Y1212850D01*
X1803400Y1217612D01*
X1803400Y1225550D01*
X1797050Y1231900D01*
X1797050Y1238250D01*
G54D15*
X1822450Y1238250D02*
X1822450Y1231900D01*
X1828800Y1225550D01*
X1828800Y1180306D01*
X1828403Y1179909D01*
G54D15*
X1941512Y906462D02*
X1918227Y906462D01*
X1892690Y880925D01*
X2122488Y881062D02*
G54D13*
D03*
G54D15*
X2122488Y881062D02*
X2114550Y873125D01*
X2114550Y822325D01*
X2132012Y804862D01*
X1838325Y881062D02*
G54D13*
D03*
G54D15*
X1838325Y881062D02*
X1838325Y884238D01*
X1831975Y890588D01*
X1831975Y919162D01*
X1825625Y925512D01*
X1825625Y949325D01*
X1819275Y955675D01*
X1819275Y965200D01*
X1784350Y1000125D01*
X1784350Y1135062D01*
X1790700Y1141412D01*
X1790700Y1198562D01*
X1790700Y1198562D02*
G54D13*
D03*
G54D15*
X1771650Y1239838D02*
X1771650Y1231900D01*
X1776412Y1227138D01*
X1776412Y1222375D01*
X1790700Y1208088D01*
X1790700Y1198562D01*
X1511300Y1192212D02*
G54D13*
D03*
G54D15*
X1511300Y1192212D02*
X1511300Y1117600D01*
X1504950Y1111250D01*
X1504950Y1028837D01*
X1525163Y1008624D01*
G54D15*
X1941512Y881062D02*
X1918227Y881062D01*
X1892690Y855525D01*
X1888988Y855525D01*
X1874838Y841375D01*
X1874838Y773112D01*
X1857375Y755650D01*
X1857375Y703262D01*
X1844675Y690562D01*
X1844675Y657225D01*
X1858962Y642938D01*
X1858962Y596900D01*
X1865312Y590550D01*
X1865312Y590550D02*
G54D13*
D03*
X1525587Y582612D02*
G54D12*
D03*
X1500187Y582612D02*
G54D12*
D03*
X1550987Y582612D02*
G54D12*
D03*
G54D15*
X1525587Y582612D02*
X1543050Y600075D01*
X1543050Y646112D01*
X1573212Y676275D01*
X1573212Y709612D01*
X1560512Y722312D01*
X1560512Y749300D01*
X1579562Y768350D01*
X1579562Y852488D01*
X1589088Y862012D01*
X1589088Y906462D01*
X1603375Y920750D01*
X1603375Y985838D01*
X1619250Y1001712D01*
X1619250Y1057275D01*
X1604962Y1071562D01*
X1604962Y1071562D02*
G54D13*
D03*
G54D15*
X1604962Y1071562D02*
X1609725Y1076325D01*
X1609725Y1119188D01*
X1600200Y1128712D01*
X1600200Y1198562D01*
X1606550Y1204912D01*
X1606550Y1204912D02*
G54D13*
D03*
X1765300Y1204912D02*
G54D13*
D03*
G54D15*
X1746250Y1238250D02*
X1746250Y1223962D01*
X1765300Y1204912D01*
G54D15*
X1892690Y1058725D02*
X1890576Y1058725D01*
X1871662Y1039812D01*
X1871662Y1011238D01*
X1868488Y1008062D01*
X1868488Y1008062D02*
G54D13*
D03*
X2163762Y958850D02*
G54D13*
D03*
X2157412Y1033462D02*
G54D13*
D03*
G54D15*
X2163762Y958850D02*
X2163762Y1027112D01*
X2157412Y1033462D01*
G54D15*
X2157412Y1033462D02*
X2157412Y1093788D01*
X2187575Y1123950D01*
X2187575Y1223962D01*
X2187575Y1223962D02*
G54D13*
D03*
G54D15*
X2163762Y958850D02*
X2163762Y895350D01*
X2160588Y892175D01*
X2160588Y852488D01*
X2171700Y841375D01*
X2171700Y806450D01*
X2146300Y781050D01*
X2146300Y617538D01*
X2119312Y590550D01*
X2119312Y590550D02*
G54D12*
D03*
X2119312Y463550D02*
G54D12*
D03*
X2174875Y1008062D02*
G54D13*
D03*
G54D15*
X2174875Y1008062D02*
X2174875Y1096962D01*
X2200275Y1122362D01*
X2200275Y1228725D01*
X2203450Y1231900D01*
X2203450Y1238250D01*
X2159000Y690562D02*
G54D13*
D03*
G54D15*
X2174875Y1008062D02*
X2174875Y893762D01*
X2166938Y885825D01*
X2166938Y860425D01*
X2178050Y849312D01*
X2178050Y801688D01*
X2154238Y777875D01*
X2154238Y695325D01*
X2159000Y690562D01*
X2043112Y590550D02*
G54D12*
D03*
X2043112Y463550D02*
G54D12*
D03*
X1597025Y1103312D02*
G54D13*
D03*
G54D15*
X1597025Y1103312D02*
X1590675Y1096962D01*
X1590675Y1030288D01*
X1584325Y1023938D01*
X1584325Y946150D01*
X1570038Y931862D01*
X1570038Y931862D02*
G54D13*
D03*
X2189162Y1039812D02*
G54D13*
D03*
G54D15*
X2189162Y1039812D02*
X2182812Y1046162D01*
X2182812Y1093788D01*
X2212975Y1123950D01*
X2212975Y1223962D01*
X2212975Y1223962D02*
G54D13*
D03*
G54D15*
X2189162Y1039812D02*
X2189162Y1004888D01*
X2181225Y996950D01*
X2181225Y939800D01*
X2189162Y931862D01*
X2189162Y931862D02*
G54D13*
D03*
G54D15*
X1892690Y1109525D02*
X1890576Y1109525D01*
X1852612Y1071562D01*
X1852612Y1025525D01*
X1846262Y1019175D01*
X1846262Y995362D01*
X1855788Y985838D01*
X1855788Y862012D01*
X1838325Y844550D01*
X1838325Y820738D01*
X1846262Y812800D01*
X1846262Y788988D01*
X1844675Y787400D01*
X1844675Y787400D02*
G54D13*
D03*
G54D15*
X2093912Y1084262D02*
X2081212Y1071562D01*
X2062162Y1071562D01*
X2052638Y1062038D01*
X2052638Y1050925D01*
X2065338Y1038225D01*
X2065338Y768350D01*
X2027238Y730250D01*
X2027238Y708025D01*
X2039938Y695325D01*
X2039938Y661988D01*
X2009775Y631825D01*
X1976438Y631825D01*
X1957388Y612775D01*
X1957388Y566738D01*
X1985962Y538162D01*
X1985962Y493712D01*
X1966912Y474662D01*
X1966912Y419100D01*
X1973262Y412750D01*
X1973262Y412750D02*
G54D13*
D03*
X2119312Y1008062D02*
G54D13*
D03*
G54D15*
X2093912Y1058862D02*
X2095500Y1058862D01*
X2119312Y1035050D01*
X2119312Y1008062D01*
X1995488Y1033462D02*
G54D13*
D03*
X1558925Y1071562D02*
G54D13*
D03*
G54D15*
X1558925Y1071562D02*
X1552575Y1077912D01*
X1552575Y1127125D01*
X1543050Y1136650D01*
X1543050Y1217612D01*
X1543050Y1217612D02*
G54D13*
D03*
G54D15*
X1995488Y1033462D02*
X2001838Y1027112D01*
X2001838Y973138D01*
X2011362Y963612D01*
X2011362Y920750D01*
X1995488Y904875D01*
X1995488Y860425D01*
X2024062Y831850D01*
X2024062Y811212D01*
X2017712Y804862D01*
X2017712Y758825D01*
X1995488Y736600D01*
X1995488Y650875D01*
X1998662Y647700D01*
X1998662Y647700D02*
G54D13*
D03*
X2093912Y590550D02*
G54D12*
D03*
X2093912Y463550D02*
G54D12*
D03*
X2017712Y590550D02*
G54D12*
D03*
X2017712Y463550D02*
G54D12*
D03*
X1993900Y590550D02*
G54D12*
D03*
X1993900Y463550D02*
G54D12*
D03*
X2144712Y590550D02*
G54D12*
D03*
X2144712Y463550D02*
G54D12*
D03*
X2170112Y590550D02*
G54D12*
D03*
X2170112Y463550D02*
G54D12*
D03*
G54D15*
X2093912Y982662D02*
X2092325Y982662D01*
X2078038Y968375D01*
X2078038Y774700D01*
X2090738Y762000D01*
X2090738Y630238D01*
X2084388Y623888D01*
X2084388Y614362D01*
X2076450Y606425D01*
X2009775Y606425D01*
X1993900Y590550D01*
X2193925Y990600D02*
G54D13*
D03*
G54D15*
X2193925Y990600D02*
X2200275Y996950D01*
X2200275Y1052512D01*
X2193925Y1058862D01*
X2193925Y1058862D02*
G54D13*
D03*
X1576388Y1122362D02*
G54D13*
D03*
G54D15*
X1576388Y1122362D02*
X1576388Y1119188D01*
X1577975Y1117600D01*
X1577975Y1050925D01*
X1571625Y1044575D01*
X1571625Y979488D01*
X1546225Y954088D01*
X1546225Y787400D01*
X1554162Y779462D01*
X1554162Y779462D02*
G54D13*
D03*
G54D15*
X2228850Y1238250D02*
X2228850Y1127125D01*
X2193925Y1092200D01*
X2193925Y1058862D01*
X1812925Y660400D02*
G54D13*
D03*
X1995488Y925512D02*
G54D13*
D03*
G54D15*
X1995488Y925512D02*
X1989138Y919162D01*
X1989138Y855662D01*
X2008188Y836612D01*
X2008188Y817562D01*
X2008188Y817562D02*
G54D13*
D03*
G54D15*
X2008188Y817562D02*
X2008188Y812800D01*
X2011362Y809625D01*
X2011362Y763588D01*
X1982788Y735012D01*
X1982788Y735012D02*
G54D13*
D03*
X2068512Y722312D02*
G54D12*
D03*
X1941512Y722312D02*
G54D12*
D03*
X2178050Y869950D02*
G54D13*
D03*
G54D15*
X2178050Y869950D02*
X2181225Y869950D01*
X2184400Y866775D01*
X2184400Y795338D01*
X2160588Y771525D01*
X2160588Y715962D01*
X2173288Y703262D01*
X2173288Y619125D01*
X2144712Y590550D01*
X1552575Y1020762D02*
G54D13*
D03*
G54D15*
X1552575Y1020762D02*
X1546225Y1027112D01*
X1546225Y1120775D01*
X1530350Y1136650D01*
X1530350Y1219200D01*
X1543050Y1231900D01*
X1543050Y1238250D01*
X1841500Y1033462D02*
G54D13*
D03*
G54D15*
X1841500Y1033462D02*
X1841500Y1081088D01*
X1885950Y1125538D01*
X1900238Y1125538D01*
X1909762Y1116012D01*
X1909762Y1084262D01*
X1922462Y1071562D01*
X1922462Y1071562D02*
G54D13*
D03*
X2062162Y1084262D02*
G54D13*
D03*
G54D15*
X2062162Y1084262D02*
X2062162Y1117600D01*
X2074862Y1130300D01*
X2120900Y1130300D01*
X2138362Y1112838D01*
X2138362Y1065212D01*
X2128838Y1055688D01*
X2128838Y1020762D01*
X2138362Y1011238D01*
X2138362Y963612D01*
X2119312Y944562D01*
X2119312Y904875D01*
X2136775Y887412D01*
X2136775Y860425D01*
X2132012Y855662D01*
X2195512Y881062D02*
G54D13*
D03*
G54D15*
X2195512Y881062D02*
X2193925Y881062D01*
X2190750Y877888D01*
X2190750Y790575D01*
X2166938Y766762D01*
X2166938Y720725D01*
X2179638Y708025D01*
X2179638Y600075D01*
X2170112Y590550D01*
X1549400Y995362D02*
G54D13*
D03*
G54D15*
X1549400Y995362D02*
X1539875Y1004888D01*
X1539875Y1116012D01*
X1524000Y1131888D01*
X1524000Y1212850D01*
X1519238Y1217612D01*
X1519238Y1217612D02*
G54D13*
D03*
G54D15*
X1196410Y703466D02*
X1196410Y702697D01*
X1169988Y676275D01*
X1169988Y612775D01*
X1158875Y601662D01*
X1158875Y601662D02*
G54D13*
D03*
X2297112Y546100D02*
G54D12*
D03*
X2297112Y419100D02*
G54D12*
D03*
G54D15*
X2297112Y419100D02*
X2278062Y438150D01*
X2278062Y482600D01*
X2263775Y496888D01*
X2239962Y496888D01*
X2233612Y503238D01*
X2233612Y541338D01*
X2238375Y546100D01*
X2238375Y546100D02*
G54D13*
D03*
X1885950Y558800D02*
G54D13*
D03*
X1739900Y565150D02*
G54D13*
D03*
G54D15*
X1739900Y565150D02*
X1739900Y626536D01*
X1740290Y626925D01*
G54D15*
X1885950Y557212D02*
X1885950Y585788D01*
X1893888Y593725D01*
X1914525Y593725D01*
X1924050Y603250D01*
X1924050Y755650D01*
X1931988Y763588D01*
X1946275Y763588D01*
X1957388Y774700D01*
X1957388Y798512D01*
X1963738Y804862D01*
X1963738Y804862D02*
G54D13*
D03*
G54D15*
X1963738Y804862D02*
X1963738Y806450D01*
X1957388Y812800D01*
X1957388Y1101725D01*
X1960562Y1104900D01*
X1960562Y1217612D01*
X1960562Y1217612D02*
G54D13*
D03*
X2151062Y817562D02*
G54D13*
D03*
G54D15*
X2132012Y779462D02*
X2151062Y798512D01*
X2151062Y817562D01*
X2146300Y912812D02*
G54D13*
D03*
X2162175Y1223962D02*
G54D13*
D03*
X2136775Y1223962D02*
G54D13*
D03*
G54D15*
X2152650Y1238250D02*
X2152650Y1235075D01*
X2149475Y1231900D01*
X2149475Y1211262D01*
X2144712Y1206500D01*
X2144712Y1128712D01*
X2151062Y1122362D01*
X2151062Y1052512D01*
X2141538Y1042988D01*
X2141538Y1030288D01*
X2151062Y1020762D01*
X2151062Y917575D01*
X2146300Y912812D01*
X2373312Y912812D02*
G54D13*
D03*
G54D15*
X2373312Y912812D02*
X2373312Y798512D01*
X2365375Y790575D01*
X2365375Y695325D01*
X2378075Y682625D01*
X2378075Y630238D01*
X2384425Y623888D01*
X2384425Y528638D01*
X2378075Y522288D01*
X2378075Y488950D01*
X2346325Y457200D01*
X2346325Y430212D01*
X2316162Y400050D01*
X2316162Y368300D01*
X2322512Y361950D01*
X2322512Y323850D01*
X2316162Y317500D01*
X2316162Y317500D02*
G54D13*
D03*
X1260475Y385762D02*
G54D13*
D03*
G54D15*
X1260475Y385762D02*
X1271588Y396875D01*
X1271588Y512762D01*
X1271588Y512762D02*
G54D13*
D03*
X1347788Y525462D02*
G54D12*
D03*
X1220788Y525462D02*
G54D12*
D03*
X1298575Y531812D02*
G54D13*
D03*
G54D15*
X1298575Y531812D02*
X1298575Y534988D01*
X1296988Y536575D01*
X1296988Y728662D01*
X1309688Y741362D01*
X1309688Y741362D02*
G54D13*
D03*
G54D15*
X2093912Y931862D02*
X2108200Y917575D01*
X2108200Y785812D01*
X2116138Y777875D01*
X2116138Y631825D01*
X2100262Y615950D01*
X2100262Y615950D02*
G54D13*
D03*
X1968500Y993775D02*
G54D13*
D03*
G54D15*
X1968500Y993775D02*
X1963738Y989012D01*
X1963738Y828675D01*
X1976438Y815975D01*
X1976438Y793750D01*
X1963738Y781050D01*
X1963738Y763588D01*
X1957388Y757238D01*
X1957388Y660400D01*
X1974850Y642938D01*
X1974850Y642938D02*
G54D13*
D03*
X1373188Y677862D02*
G54D13*
D03*
G54D15*
X1373188Y677862D02*
X1379538Y684212D01*
X1379538Y760412D01*
X1398588Y779462D01*
X1176338Y766762D02*
G54D13*
D03*
G54D15*
X1176338Y766762D02*
X1176338Y810394D01*
X1196410Y830466D01*
G54D15*
X1968500Y993775D02*
X1963738Y998538D01*
X1963738Y1089025D01*
X1973262Y1098550D01*
X1973262Y1223962D01*
X1966912Y1230312D01*
X1954212Y1230312D01*
X1941512Y1217612D01*
X1941512Y1217612D02*
G54D13*
D03*
G54D15*
X1941512Y1217612D02*
X1935162Y1211262D01*
X1916112Y1211262D01*
X1903412Y1223962D01*
X1892300Y1223962D01*
X1884362Y1216025D01*
X1884362Y1206500D01*
X1916112Y1174750D01*
X1916112Y1139825D01*
X1908175Y1131888D01*
X1878012Y1131888D01*
X1820862Y1074738D01*
X1820862Y1039812D01*
X1820862Y1039812D02*
G54D13*
D03*
X1455738Y936625D02*
G54D13*
D03*
G54D15*
X1455738Y936625D02*
X1455738Y892175D01*
X1430338Y866775D01*
X1430338Y823912D01*
X1430338Y823912D02*
G54D13*
D03*
X1423988Y582612D02*
G54D11*
D03*
X1398588Y582612D02*
G54D11*
D03*
X1449388Y582612D02*
G54D11*
D03*
X1500188Y804862D02*
G54D12*
D03*
X1500188Y677862D02*
G54D12*
D03*
G54D15*
X1430338Y823912D02*
X1430338Y817562D01*
X1443038Y804862D01*
X1443038Y588962D01*
X1449388Y582612D01*
X1500188Y550862D02*
G54D12*
D03*
X1373188Y550862D02*
G54D12*
D03*
X1500188Y525462D02*
G54D12*
D03*
X1373188Y525462D02*
G54D12*
D03*
X1525588Y550862D02*
G54D12*
D03*
X1525588Y423862D02*
G54D12*
D03*
X1347788Y627062D02*
G54D12*
D03*
X1220788Y627062D02*
G54D12*
D03*
G54D15*
X1373188Y550862D02*
X1373188Y525462D01*
G54D15*
X1500188Y525462D02*
X1500188Y550862D01*
X1525588Y550862D01*
X1541462Y566738D01*
X1555750Y566738D01*
X1565275Y576262D01*
X1565275Y593725D01*
X1549400Y609600D01*
X1549400Y641350D01*
X1579562Y671512D01*
X1579562Y715962D01*
X1566862Y728662D01*
X1566862Y744538D01*
X1585912Y763588D01*
X1585912Y847725D01*
X1600200Y862012D01*
X1600200Y900112D01*
X1600200Y900112D02*
G54D13*
D03*
X1638300Y906462D02*
G54D13*
D03*
G54D15*
X1638300Y906462D02*
X1638300Y938212D01*
X1657350Y957262D01*
X1657350Y1117600D01*
X1670050Y1130300D01*
X1670050Y1190212D01*
X1678400Y1198562D01*
X1678400Y1220962D01*
X1687750Y1230312D01*
X1716088Y1230312D01*
X1720850Y1235075D01*
X1720850Y1238250D01*
X1169988Y906462D02*
G54D13*
D03*
G54D15*
X1196410Y881266D02*
X1195184Y881266D01*
X1169988Y906462D01*
G54D15*
X1196410Y678066D02*
X1195591Y678066D01*
X1176338Y658812D01*
X1176338Y596900D01*
X1163638Y584200D01*
X1163638Y506412D01*
X1150938Y493712D01*
X1150938Y493712D02*
G54D13*
D03*
X1558925Y703262D02*
G54D13*
D03*
G54D15*
X1558925Y703262D02*
X1554162Y708025D01*
X1554162Y752475D01*
X1573212Y771525D01*
X1573212Y858838D01*
X1582738Y868362D01*
X1582738Y914400D01*
X1597025Y928688D01*
X1597025Y1000125D01*
X1604962Y1008062D01*
X1604962Y1008062D02*
G54D13*
D03*
X1449388Y1020762D02*
G54D13*
D03*
G54D15*
X1449388Y1020762D02*
X1449388Y1046212D01*
X1430338Y1065262D01*
X1430338Y1109662D01*
X1460500Y1109662D02*
G54D12*
D03*
X1460500Y982662D02*
G54D12*
D03*
G54D15*
X1430338Y1109662D02*
X1460500Y1109662D01*
X1462088Y1109662D01*
X1473200Y1120775D01*
X1473200Y1143000D01*
X1485900Y1155700D01*
X1485900Y1184275D01*
X1485900Y1184275D02*
G54D13*
D03*
X1852612Y1185862D02*
G54D13*
D03*
X1858962Y1223962D02*
G54D13*
D03*
G54D15*
X1852612Y1185862D02*
X1858962Y1192212D01*
X1858962Y1223962D01*
X2068512Y620712D02*
G54D12*
D03*
X1941512Y620712D02*
G54D12*
D03*
G54D15*
X2068512Y620712D02*
X2084388Y636588D01*
X2084388Y754062D01*
X2071688Y766762D01*
X2071688Y987425D01*
X2078038Y993775D01*
X2078038Y1049338D01*
X2068512Y1058862D01*
X2068512Y1058862D02*
G54D13*
D03*
X1922462Y1096962D02*
G54D13*
D03*
G54D15*
X1922462Y1096962D02*
X1922462Y1181100D01*
X1897062Y1206500D01*
X1897062Y1209675D01*
X1897062Y1209675D02*
G54D13*
D03*
G54D15*
X1740290Y677725D02*
X1740290Y679060D01*
X1724025Y695325D01*
X1724025Y720725D01*
X1695450Y749300D01*
X1695450Y806450D01*
X1712912Y823912D01*
X1712912Y839788D01*
X1708150Y844550D01*
X1708150Y1098550D01*
X1703388Y1103312D01*
X1703388Y1103312D02*
G54D13*
D03*
X1828800Y1103312D02*
G54D13*
D03*
G54D15*
X1828800Y1103312D02*
X1863725Y1138238D01*
X1905000Y1138238D01*
X1909762Y1143000D01*
X1909762Y1168400D01*
X1878012Y1200150D01*
X1878012Y1220788D01*
X1887538Y1230312D01*
X1916112Y1230312D01*
X1922462Y1223962D01*
X1922462Y1223962D02*
G54D13*
D03*
X1830388Y749300D02*
G54D13*
D03*
G54D15*
X1812925Y660400D02*
X1812925Y695325D01*
X1824038Y706438D01*
X1824038Y742950D01*
X1830388Y749300D01*
X1714500Y774700D02*
G54D13*
D03*
G54D15*
X1714500Y774700D02*
X1720850Y781050D01*
X1720850Y811212D01*
X1727200Y817562D01*
X1727200Y844550D01*
X1720850Y850900D01*
X1720850Y1111250D01*
X1731962Y1122362D01*
X1731962Y1187450D01*
X1727200Y1192212D01*
X1727200Y1192212D02*
G54D13*
D03*
X2176462Y1155700D02*
G54D13*
D03*
G54D15*
X2178050Y1238250D02*
X2178050Y1233488D01*
X2176462Y1231900D01*
X2176462Y1155700D01*
X2027238Y677862D02*
G54D13*
D03*
X2068512Y646112D02*
G54D12*
D03*
X1941512Y646112D02*
G54D12*
D03*
G54D15*
X2027238Y677862D02*
X2027238Y681038D01*
X2020888Y687388D01*
X2020888Y736600D01*
X2058988Y774700D01*
X2058988Y892175D01*
X2033588Y917575D01*
X2033588Y973138D01*
X2020888Y985838D01*
X2020888Y1114425D01*
X2030412Y1123950D01*
X2030412Y1166812D01*
X2049462Y1185862D01*
X2049462Y1211262D01*
X2043112Y1217612D01*
X2043112Y1217612D02*
G54D13*
D03*
X2068512Y671512D02*
G54D12*
D03*
X1941512Y671512D02*
G54D12*
D03*
X2068512Y696912D02*
G54D12*
D03*
X1941512Y696912D02*
G54D12*
D03*
X2008188Y728662D02*
G54D13*
D03*
G54D15*
X2008188Y728662D02*
X2012950Y733425D01*
X2012950Y741362D01*
X2024062Y752475D01*
X2024062Y793750D01*
X2046288Y815975D01*
X2046288Y877888D01*
X2020888Y903288D01*
X2020888Y966788D01*
X2008188Y979488D01*
X2008188Y1101725D01*
X1992312Y1117600D01*
X1992312Y1185862D01*
X2017712Y1211262D01*
X2017712Y1223962D01*
X2011362Y1230312D01*
X2003425Y1230312D01*
X2000250Y1233488D01*
X2000250Y1238250D01*
X2036762Y771525D02*
G54D13*
D03*
G54D15*
X2036762Y771525D02*
X2052638Y787400D01*
X2052638Y884238D01*
X2027238Y909638D01*
X2027238Y969962D01*
X2014538Y982662D01*
X2014538Y1106488D01*
X1998662Y1122362D01*
X1998662Y1177925D01*
X2025650Y1204912D01*
X2025650Y1238250D01*
G54D15*
X1892690Y753926D02*
X1868350Y753926D01*
X1863725Y749300D01*
X1863725Y700088D01*
X1851025Y687388D01*
X1851025Y663575D01*
X1866900Y647700D01*
X1866900Y615950D01*
X1879600Y603250D01*
X1879600Y579438D01*
X1865312Y565150D01*
X1865312Y565150D02*
G54D13*
D03*
X1905166Y577449D02*
G54D20*
D03*
X1701966Y577450D02*
G54D20*
D03*
X1930400Y577453D02*
G54D21*
D03*
X1676400Y577453D02*
G54D21*
D03*
G54D15*
X1905166Y577449D02*
X1930400Y577453D01*
G54D15*
X1905166Y577449D02*
X1905166Y520866D01*
X1892300Y508000D01*
X1825625Y527050D02*
G54D13*
D03*
X1892300Y508000D02*
G54D13*
D03*
G54D15*
X1855788Y527050D02*
X1870075Y512762D01*
X1870075Y479425D01*
X1895475Y454025D01*
X1895475Y417512D01*
X1871662Y393700D01*
X1871662Y198438D01*
X1898650Y171450D01*
X1898650Y114300D01*
X1898650Y114300D02*
G54D13*
D03*
X2108200Y58738D02*
G54D13*
D03*
G54D15*
X2133600Y76200D02*
X2125662Y76200D01*
X2108200Y58738D01*
X2157412Y836612D02*
G54D13*
D03*
G54D15*
X2157412Y836612D02*
X2157412Y838200D01*
X2154238Y841375D01*
X2154238Y884238D01*
X2132012Y906462D01*
X2132012Y938212D01*
X2144712Y950912D01*
X2144712Y1016000D01*
X2135188Y1025525D01*
X2135188Y1049338D01*
X2144712Y1058862D01*
X2144712Y1117600D01*
X2130425Y1131888D01*
X2130425Y1217612D01*
X2136775Y1223962D01*
X1708150Y798512D02*
G54D13*
D03*
G54D15*
X1708150Y798512D02*
X1708150Y809625D01*
X1719262Y820738D01*
X1719262Y842962D01*
X1714500Y847725D01*
X1714500Y1116012D01*
X1722438Y1123950D01*
X1722438Y1146175D01*
X1682750Y1185862D01*
X1682750Y1185862D02*
G54D13*
D03*
X2157412Y1147762D02*
G54D13*
D03*
G54D15*
X2162175Y1223962D02*
X2162175Y1152525D01*
X2157412Y1147762D01*
X1373188Y1063625D02*
G54D13*
D03*
G54D15*
X1373188Y1063625D02*
X1352550Y1084262D01*
X1328738Y1084262D01*
X1312862Y1068388D01*
X1312862Y973138D01*
X1303338Y963612D01*
X1303338Y823912D01*
X1347788Y779462D01*
X1347788Y779462D02*
G54D12*
D03*
X1220788Y779462D02*
G54D12*
D03*
G54D15*
X1220788Y779462D02*
X1220788Y778644D01*
X1196410Y754266D01*
G54D15*
X1677563Y703824D02*
X1679013Y703824D01*
X1692275Y690562D01*
X1692275Y615950D01*
X1658938Y582612D01*
X1658938Y546100D01*
X1658938Y546100D02*
G54D13*
D03*
G54D15*
X1677563Y729224D02*
X1702826Y729224D01*
X1717675Y714375D01*
X1717675Y681038D01*
X1724025Y674688D01*
X1724025Y555625D01*
X1708150Y539750D01*
X1708150Y495300D01*
X1716088Y487362D01*
X1716088Y465138D01*
X1701800Y450850D01*
X1701800Y368300D01*
X1690688Y357188D01*
X1690688Y342900D01*
X1636712Y288925D01*
X1636712Y238125D01*
X1646238Y228600D01*
X1646238Y228600D02*
G54D13*
D03*
X1778000Y217488D02*
G54D13*
D03*
G54D15*
X1778000Y217488D02*
X1778000Y280988D01*
X1819275Y322262D01*
X1819275Y520700D01*
X1825625Y527050D01*
X1398588Y1109662D02*
G54D12*
D03*
X1398588Y982662D02*
G54D12*
D03*
X1354138Y1008062D02*
G54D13*
D03*
X1498600Y855662D02*
G54D12*
D03*
X1371600Y855662D02*
G54D12*
D03*
X1498600Y881062D02*
G54D12*
D03*
X1371600Y881062D02*
G54D12*
D03*
G54D15*
X1354138Y1008062D02*
X1349375Y1003300D01*
X1349375Y950912D01*
X1366838Y933450D01*
X1366838Y885825D01*
X1371600Y881062D01*
X1371600Y855662D01*
X1371600Y830262D01*
X1604962Y1033462D02*
G54D13*
D03*
G54D15*
X1604962Y1033462D02*
X1604962Y1028700D01*
X1590675Y1014412D01*
X1590675Y935038D01*
X1570038Y914400D01*
X1570038Y881062D01*
X1570038Y881062D02*
G54D13*
D03*
X2008188Y868362D02*
G54D13*
D03*
X2008188Y900112D02*
G54D13*
D03*
G54D15*
X2008188Y868362D02*
X2008188Y900112D01*
X2233612Y927100D02*
G54D13*
D03*
G54D15*
X2233612Y927100D02*
X2251075Y909638D01*
X2251075Y854075D01*
X2233612Y836612D01*
X2233612Y804862D01*
X2208212Y779462D01*
X1851025Y836612D02*
G54D13*
D03*
G54D15*
X1851025Y836612D02*
X1851025Y847725D01*
X1862138Y858838D01*
X1862138Y992188D01*
X1852612Y1001712D01*
X1852612Y1016000D01*
X1865312Y1028700D01*
X1865312Y1065212D01*
X1865312Y1065212D02*
G54D13*
D03*
X2246312Y944562D02*
G54D13*
D03*
G54D15*
X2246312Y944562D02*
X2257425Y933450D01*
X2257425Y850900D01*
X2239962Y833438D01*
X2239962Y785812D01*
X2208212Y754062D01*
X2052638Y735012D02*
G54D13*
D03*
X2039938Y715962D02*
G54D13*
D03*
G54D15*
X2052638Y735012D02*
X2052638Y620712D01*
X2044700Y612775D01*
X1993900Y612775D01*
X1978025Y596900D01*
X1978025Y579438D01*
X2017712Y539750D01*
X2017712Y495300D01*
X2017712Y495300D02*
G54D13*
D03*
G54D15*
X2039938Y715962D02*
X2046288Y709612D01*
X2046288Y625475D01*
X2039938Y619125D01*
X1989138Y619125D01*
X1970088Y600075D01*
X1970088Y574675D01*
X1998662Y546100D01*
X1998662Y495300D01*
X2011362Y482600D01*
X2055812Y482600D01*
X2055812Y482600D02*
G54D13*
D03*
X1836738Y463550D02*
G54D13*
D03*
G54D15*
X1836738Y463550D02*
X1836738Y444500D01*
X1855788Y425450D01*
X2033588Y633412D02*
G54D13*
D03*
G54D15*
X2033588Y633412D02*
X2025650Y625475D01*
X1982788Y625475D01*
X1963738Y606425D01*
X1963738Y569912D01*
X1992312Y541338D01*
X1992312Y488950D01*
X1976438Y473075D01*
X1976438Y455612D01*
X1985962Y446088D01*
X1985962Y407988D01*
X1962150Y384175D01*
X1962150Y361950D01*
X1955800Y355600D01*
X1955800Y355600D02*
G54D13*
D03*
X2371725Y609600D02*
G54D13*
D03*
G54D15*
X2371725Y609600D02*
X2371725Y603250D01*
X2346325Y577850D01*
X2346325Y498475D01*
X2325688Y477838D01*
X2297112Y477838D01*
X2297112Y477838D02*
G54D13*
D03*
X2220925Y463555D02*
G54D12*
D03*
X2220925Y590555D02*
G54D12*
D03*
X2246325Y463555D02*
G54D12*
D03*
X2246325Y590555D02*
G54D12*
D03*
X2178050Y754062D02*
G54D13*
D03*
X2178050Y728662D02*
G54D13*
D03*
G54D15*
X2178050Y754062D02*
X2192338Y739775D01*
X2192338Y620712D01*
X2198688Y614362D01*
X2222517Y614362D01*
X2246325Y590555D01*
X2246318Y590555D01*
X2227262Y571500D01*
X2227262Y496888D01*
X2233612Y490538D01*
X2257425Y490538D01*
X2271712Y476250D01*
X2271712Y419100D01*
X2309812Y381000D01*
X2309812Y355600D01*
X2309812Y355600D02*
G54D13*
D03*
X2095500Y349250D02*
G54D13*
D03*
G54D15*
X2095500Y349250D02*
X2106612Y338138D01*
X2106612Y153988D01*
X2133600Y127000D01*
G54D15*
X2178050Y728662D02*
X2185988Y720725D01*
X2185988Y612775D01*
X2190750Y608012D01*
X2203467Y608012D01*
X2220925Y590555D01*
X2220925Y490525D01*
X2227262Y484188D01*
X2251075Y484188D01*
X2263775Y471488D01*
X2263775Y392112D01*
X2259012Y387350D01*
X2259012Y387350D02*
G54D13*
D03*
X2112962Y368300D02*
G54D13*
D03*
G54D15*
X2112962Y368300D02*
X2112962Y198438D01*
X2133600Y177800D01*
X1404938Y525462D02*
G54D13*
D03*
G54D15*
X1404938Y525462D02*
X1404938Y542925D01*
X1373188Y574675D01*
X1373188Y652462D01*
X1398588Y677862D01*
G54D15*
X1398588Y652462D02*
X1397000Y652462D01*
X1379538Y635000D01*
X1379538Y579438D01*
X1436688Y522288D01*
X1436688Y463550D01*
X1411288Y438150D01*
X1411288Y323850D01*
X1385888Y298450D01*
X1512888Y298450D02*
G54D12*
D03*
X1385888Y298450D02*
G54D12*
D03*
X1822450Y285750D02*
G54D13*
D03*
X1838325Y361950D02*
G54D13*
D03*
G54D15*
X1838325Y361950D02*
X1838325Y301625D01*
X1822450Y285750D01*
G54D15*
X1954212Y400050D02*
X1954212Y371475D01*
X1931988Y349250D01*
X1954212Y400050D02*
G54D12*
D03*
X1954212Y527050D02*
G54D12*
D03*
G54D15*
X1954212Y527050D02*
X1954212Y523875D01*
X1931988Y501650D01*
X1752600Y400050D02*
G54D13*
D03*
G54D15*
X1752600Y400050D02*
X1743075Y390525D01*
X1743075Y341312D01*
X1693862Y292100D01*
X1660525Y292100D01*
X1647825Y279400D01*
X1647825Y279400D02*
G54D13*
D03*
X1266825Y330200D02*
G54D13*
D03*
G54D15*
X1266825Y330200D02*
X1284288Y347662D01*
X1284288Y639762D01*
X1284288Y639762D02*
G54D13*
D03*
G54D15*
X1981200Y381000D02*
X1998662Y398462D01*
X1998662Y411162D01*
X2009775Y422275D01*
X2219325Y422275D01*
X2239962Y401638D01*
X2239962Y381000D01*
X2244725Y376238D01*
X2259012Y376238D01*
X2268538Y366712D01*
X2268538Y209550D01*
X2239962Y180975D01*
X2239962Y165100D01*
X2246312Y158750D01*
X2246312Y158750D02*
G54D13*
D03*
X2182812Y177800D02*
G54D12*
D03*
X2182812Y50800D02*
G54D12*
D03*
X2082800Y317500D02*
G54D13*
D03*
G54D15*
X2082800Y317500D02*
X2076450Y323850D01*
X2076450Y371475D01*
X2108200Y403225D01*
X2160588Y403225D01*
X2182812Y381000D01*
X2182812Y381000D02*
G54D12*
D03*
X2182812Y254000D02*
G54D12*
D03*
X2157412Y381000D02*
G54D12*
D03*
X2157412Y254000D02*
G54D12*
D03*
X2093912Y285750D02*
G54D13*
D03*
G54D15*
X2093912Y285750D02*
X2093912Y325438D01*
X2082800Y336550D01*
X2082800Y363538D01*
X2116138Y396875D01*
X2141538Y396875D01*
X2157412Y381000D01*
X2070100Y241300D02*
G54D13*
D03*
G54D15*
X2070100Y241300D02*
X2070100Y376238D01*
X2103438Y409575D01*
X2206625Y409575D01*
X2227262Y388938D01*
X2227262Y357188D01*
X2262188Y322262D01*
X2262188Y250825D01*
X2252662Y241300D01*
X2252662Y241300D02*
G54D13*
D03*
X2403475Y190500D02*
G54D13*
D03*
X2435225Y228600D02*
G54D13*
D03*
G54D15*
X2403475Y190500D02*
X2435225Y222250D01*
X2435225Y228600D01*
X2006600Y261938D02*
G54D13*
D03*
G54D15*
X1981200Y177800D02*
X2006600Y203200D01*
X2006600Y261938D01*
X2025650Y293688D02*
G54D13*
D03*
G54D15*
X1981200Y152400D02*
X2012950Y184150D01*
X2012950Y241300D01*
X2025650Y254000D01*
X2025650Y293688D01*
X2259012Y177800D02*
G54D12*
D03*
X2259012Y50800D02*
G54D12*
D03*
G54D15*
X2259012Y177800D02*
X2303462Y222250D01*
X2303462Y336550D01*
X2284412Y355600D01*
X2284412Y177800D02*
G54D12*
D03*
X2284412Y50800D02*
G54D12*
D03*
X2309812Y177800D02*
G54D12*
D03*
X2309812Y50800D02*
G54D12*
D03*
X2335212Y177800D02*
G54D12*
D03*
X2335212Y50800D02*
G54D12*
D03*
G54D15*
X2284412Y177800D02*
X2316162Y209550D01*
X2316162Y279400D01*
X2316162Y279400D02*
G54D13*
D03*
G54D15*
X2309812Y177800D02*
X2328862Y196850D01*
X2328862Y298450D01*
X2360612Y330200D01*
X2360612Y355600D01*
G54D15*
X2284412Y304800D02*
X2284412Y279400D01*
G54D15*
X2335212Y177800D02*
X2335212Y228600D01*
X2360612Y254000D01*
X2360612Y279400D01*
X2208212Y381000D02*
G54D12*
D03*
X2208212Y254000D02*
G54D12*
D03*
X2209800Y177800D02*
G54D12*
D03*
X2209800Y50800D02*
G54D12*
D03*
X2189162Y304800D02*
G54D13*
D03*
G54D15*
X2189162Y304800D02*
X2189162Y273050D01*
X2208212Y254000D01*
X2208212Y211138D01*
X2227262Y192088D01*
X2227262Y158750D01*
X2209800Y141288D01*
X2209800Y50800D01*
X2233612Y330200D02*
G54D12*
D03*
X2233612Y304800D02*
G54D12*
D03*
X2233612Y279400D02*
G54D12*
D03*
X2159000Y177800D02*
G54D12*
D03*
X2159000Y50800D02*
G54D12*
D03*
G54D15*
X2233612Y330200D02*
X2252662Y311150D01*
X2252662Y273050D01*
X2239962Y260350D01*
X2239962Y234950D01*
X2252662Y222250D01*
X2252662Y204788D01*
X2233612Y185738D01*
X2233612Y146050D01*
X2227262Y139700D01*
X2227262Y139700D02*
G54D13*
D03*
X1879600Y139700D02*
G54D13*
D03*
G54D15*
X1879600Y139700D02*
X1879600Y95250D01*
X1849438Y65088D01*
X1843088Y65088D01*
X1841500Y63500D01*
X1841500Y63500D02*
G54D13*
D03*
X500062Y63500D02*
G54D13*
D03*
G54D15*
X500062Y63500D02*
X500062Y349250D01*
X530225Y379412D01*
X328612Y379412D02*
G54D12*
D03*
X531812Y379412D02*
G54D12*
D03*
X504825Y449262D02*
G54D13*
D03*
G54D15*
X531812Y379412D02*
X531812Y417512D01*
X504825Y444500D01*
X504825Y449262D01*
X835025Y474662D02*
G54D13*
D03*
G54D15*
X835025Y474662D02*
X835025Y501650D01*
X815975Y520700D01*
X815975Y614362D01*
X822325Y620712D01*
X822325Y665162D01*
X815975Y671512D01*
X815975Y671512D02*
G54D13*
D03*
X966788Y677862D02*
G54D13*
D03*
X966788Y766762D02*
G54D12*
D03*
X966788Y639762D02*
G54D12*
D03*
G54D15*
X966788Y677862D02*
X966788Y639762D01*
G54D17*
X2133600Y152400D02*
X2136775Y152400D01*
X2159000Y130175D01*
X2159000Y50800D01*
G54D17*
X2133600Y101600D02*
X2159000Y101600D01*
G36*
X2133600Y101600D02*
X2133600Y104775D01*
X2159000Y130175D01*
X2159000Y76200D01*
X2157412Y74612D01*
X2157412Y77788D01*
X2133600Y101600D01*
G37*
G54D15*
X2133600Y101600D02*
X2133600Y104775D01*
X2159000Y130175D01*
X2159000Y76200D01*
X2157412Y74612D01*
X2157412Y77788D01*
X2133600Y101600D01*
X2239962Y209550D02*
G54D11*
D03*
G54D17*
X2208212Y381000D02*
X2208212Y296862D01*
X2225675Y279400D01*
X2233612Y279400D01*
G54D17*
X2225675Y279400D02*
X2225675Y223838D01*
X2239962Y209550D01*
X2011362Y400050D02*
G54D11*
D03*
X2049462Y400050D02*
G54D11*
D03*
X2043112Y254000D02*
G54D11*
D03*
G54D17*
X2011362Y400050D02*
X2011362Y330200D01*
G54D17*
X2049462Y400050D02*
X2049462Y260350D01*
X2043112Y254000D01*
G36*
X2047875Y333375D02*
X2038350Y323850D01*
X2038350Y258762D01*
X2043112Y254000D01*
X2049462Y260350D01*
X2049462Y331788D01*
X2047875Y333375D01*
G37*
G54D15*
X2047875Y333375D02*
X2038350Y323850D01*
X2038350Y258762D01*
X2043112Y254000D01*
X2049462Y260350D01*
X2049462Y331788D01*
X2047875Y333375D01*
G54D17*
X1930400Y265112D02*
X1947862Y265112D01*
X1958975Y254000D01*
X1981200Y254000D01*
G36*
X1930400Y265112D02*
X1930400Y268288D01*
X1935162Y273050D01*
X1966912Y273050D01*
X1979612Y260350D01*
X1979612Y255588D01*
X1981200Y254000D01*
X1981200Y252412D01*
X1965325Y236538D01*
X1965325Y117475D01*
X1943100Y117475D01*
X1943100Y249238D01*
X1931988Y260350D01*
X1931988Y263525D01*
X1930400Y265112D01*
G37*
G54D15*
X1930400Y265112D02*
X1930400Y268288D01*
X1935162Y273050D01*
X1966912Y273050D01*
X1979612Y260350D01*
X1979612Y255588D01*
X1981200Y254000D01*
X1981200Y252412D01*
X1965325Y236538D01*
X1965325Y117475D01*
X1943100Y117475D01*
X1943100Y249238D01*
X1931988Y260350D01*
X1931988Y263525D01*
X1930400Y265112D01*
G54D22*
X1831974Y265112D02*
X1831974Y215900D01*
X1830388Y214312D01*
G54D17*
X1768474Y349250D02*
X1768474Y323850D01*
X1746250Y301625D01*
X1746250Y104775D01*
X1728788Y87312D01*
G54D22*
X1855788Y349250D02*
X1855788Y298450D01*
X1831975Y274638D01*
X1831974Y265112D01*
G36*
X1830388Y214312D02*
X1830388Y211138D01*
X1827212Y207962D01*
X1827212Y115888D01*
X1838325Y115888D01*
X1838325Y212724D01*
X1831974Y215900D01*
X1830388Y214312D01*
G37*
G54D15*
X1830388Y214312D02*
X1830388Y211138D01*
X1827212Y207962D01*
X1827212Y115888D01*
X1838325Y115888D01*
X1838325Y212724D01*
X1831974Y215900D01*
X1830388Y214312D01*
G54D18*
X1677988Y265112D02*
X1682750Y265112D01*
X1695450Y252412D01*
X1695450Y222250D01*
X1703388Y214312D01*
G54D18*
X1552575Y265112D02*
X1557338Y265112D01*
X1570038Y252412D01*
X1570038Y222250D01*
X1577975Y214312D01*
G54D17*
X1425575Y265112D02*
X1428750Y265112D01*
X1450975Y242888D01*
X1450975Y214312D01*
G54D17*
X1171575Y265112D02*
X1193800Y265112D01*
X1196975Y261938D01*
X1196975Y214312D01*
G54D17*
X1044575Y265112D02*
X1066800Y265112D01*
X1069975Y261938D01*
X1069975Y214312D01*
G54D17*
X917575Y265112D02*
X923925Y265112D01*
X942975Y246062D01*
X942975Y214312D01*
G54D17*
X790575Y265112D02*
X811212Y265112D01*
X817562Y258762D01*
X817562Y214312D01*
G54D17*
X665162Y265112D02*
X685800Y265112D01*
X690562Y260350D01*
X690562Y214312D01*
G54D17*
X538162Y265112D02*
X557212Y265112D01*
X563562Y258762D01*
X563562Y214312D01*
G54D17*
X412750Y290512D02*
X431800Y290512D01*
X436562Y285750D01*
X436562Y214312D01*
G54D17*
X285750Y290512D02*
X307975Y290512D01*
X311150Y287338D01*
X311150Y239712D01*
G36*
X1690688Y227012D02*
X1701800Y227012D01*
X1708150Y220662D01*
X1708150Y209550D01*
X1701800Y203200D01*
X1701800Y123825D01*
X1690688Y123825D01*
X1690688Y227012D01*
G37*
G54D15*
X1690688Y227012D02*
X1701800Y227012D01*
X1708150Y220662D01*
X1708150Y209550D01*
X1701800Y203200D01*
X1701800Y123825D01*
X1690688Y123825D01*
X1690688Y227012D01*
G36*
X1565275Y227012D02*
X1576388Y227012D01*
X1582738Y220662D01*
X1582738Y209550D01*
X1576388Y203200D01*
X1576388Y115888D01*
X1565275Y115888D01*
X1565275Y227012D01*
G37*
G54D15*
X1565275Y227012D02*
X1576388Y227012D01*
X1582738Y220662D01*
X1582738Y209550D01*
X1576388Y203200D01*
X1576388Y115888D01*
X1565275Y115888D01*
X1565275Y227012D01*
G36*
X1438275Y261938D02*
X1438275Y115888D01*
X1458912Y115888D01*
X1458912Y241300D01*
X1438275Y261938D01*
G37*
G54D15*
X1438275Y261938D02*
X1438275Y115888D01*
X1458912Y115888D01*
X1458912Y241300D01*
X1438275Y261938D01*
G36*
X1171575Y265112D02*
X1171575Y260350D01*
X1184275Y247650D01*
X1184275Y115888D01*
X1206500Y115888D01*
X1206500Y268288D01*
X1201738Y273050D01*
X1179512Y273050D01*
X1171575Y265112D01*
G37*
G54D15*
X1171575Y265112D02*
X1171575Y260350D01*
X1184275Y247650D01*
X1184275Y115888D01*
X1206500Y115888D01*
X1206500Y268288D01*
X1201738Y273050D01*
X1179512Y273050D01*
X1171575Y265112D01*
G36*
X1044575Y265112D02*
X1044575Y260350D01*
X1057275Y247650D01*
X1057275Y115888D01*
X1079500Y115888D01*
X1079500Y268288D01*
X1074738Y273050D01*
X1052512Y273050D01*
X1044575Y265112D01*
G37*
G54D15*
X1044575Y265112D02*
X1044575Y260350D01*
X1057275Y247650D01*
X1057275Y115888D01*
X1079500Y115888D01*
X1079500Y268288D01*
X1074738Y273050D01*
X1052512Y273050D01*
X1044575Y265112D01*
G36*
X917575Y265112D02*
X917575Y263525D01*
X930275Y250825D01*
X930275Y115888D01*
X952500Y115888D01*
X952500Y244475D01*
X927100Y269875D01*
X922338Y269875D01*
X917575Y265112D01*
G37*
G54D15*
X917575Y265112D02*
X917575Y263525D01*
X930275Y250825D01*
X930275Y115888D01*
X952500Y115888D01*
X952500Y244475D01*
X927100Y269875D01*
X922338Y269875D01*
X917575Y265112D01*
G36*
X790575Y265112D02*
X790575Y263525D01*
X803275Y250825D01*
X803275Y115888D01*
X827088Y115888D01*
X827088Y255588D01*
X812800Y269875D01*
X795338Y269875D01*
X790575Y265112D01*
G37*
G54D15*
X790575Y265112D02*
X790575Y263525D01*
X803275Y250825D01*
X803275Y115888D01*
X827088Y115888D01*
X827088Y255588D01*
X812800Y269875D01*
X795338Y269875D01*
X790575Y265112D01*
G36*
X665162Y265112D02*
X665162Y260350D01*
X677862Y247650D01*
X677862Y114300D01*
X700088Y114300D01*
X700088Y265112D01*
X693738Y271462D01*
X668338Y271462D01*
X666750Y269875D01*
X666750Y266700D01*
X665162Y265112D01*
G37*
G54D15*
X665162Y265112D02*
X665162Y260350D01*
X677862Y247650D01*
X677862Y114300D01*
X700088Y114300D01*
X700088Y265112D01*
X693738Y271462D01*
X668338Y271462D01*
X666750Y269875D01*
X666750Y266700D01*
X665162Y265112D01*
G36*
X412750Y290512D02*
X412750Y285750D01*
X423862Y274638D01*
X423862Y115888D01*
X446088Y115888D01*
X446088Y293688D01*
X442912Y296862D01*
X415925Y296862D01*
X414338Y295275D01*
X414338Y292100D01*
X412750Y290512D01*
G37*
G54D15*
X412750Y290512D02*
X412750Y285750D01*
X423862Y274638D01*
X423862Y115888D01*
X446088Y115888D01*
X446088Y293688D01*
X442912Y296862D01*
X415925Y296862D01*
X414338Y295275D01*
X414338Y292100D01*
X412750Y290512D01*
X1905000Y609600D02*
G54D11*
D03*
X1806574Y615950D02*
G54D11*
D03*
X1701800Y603250D02*
G54D11*
D03*
X1597024Y647700D02*
G54D11*
D03*
X1562100Y627062D02*
G54D11*
D03*
X1512887Y601662D02*
G54D11*
D03*
X1954212Y439738D02*
G54D11*
D03*
X2328862Y381000D02*
G54D11*
D03*
G54D18*
X1892690Y830125D02*
X1897200Y830125D01*
X1922462Y804862D01*
X1922462Y790575D01*
X1933575Y779462D01*
X1941512Y779462D01*
G54D18*
X1905000Y609600D02*
X1909762Y614362D01*
X1909762Y766762D01*
X1927225Y784225D01*
G36*
X1905000Y766835D02*
X1909762Y766762D01*
X1920875Y766762D01*
X1939925Y785812D01*
X1939925Y788988D01*
X1927225Y800100D01*
X1927225Y801688D01*
X1905000Y823912D01*
X1905000Y766835D01*
G37*
G54D15*
X1905000Y766835D02*
X1909762Y766762D01*
X1920875Y766762D01*
X1939925Y785812D01*
X1939925Y788988D01*
X1927225Y800100D01*
X1927225Y801688D01*
X1905000Y823912D01*
X1905000Y766835D01*
X1701800Y830262D02*
G54D12*
D03*
X1701800Y703262D02*
G54D12*
D03*
G54D18*
X1701800Y703262D02*
X1701800Y698500D01*
X1704975Y695325D01*
X1704975Y606426D01*
X1701800Y603250D01*
X1701800Y577616D01*
X1701966Y577450D01*
X1699812Y577450D01*
X1695450Y573088D01*
X1695450Y484188D01*
X1703388Y476250D01*
G54D18*
X1677988Y527050D02*
X1695450Y527050D01*
G36*
X1677988Y527050D02*
X1677988Y533400D01*
X1692275Y547688D01*
X1692275Y506412D01*
X1689100Y506412D01*
X1676400Y519112D01*
X1676400Y525462D01*
X1677988Y527050D01*
G37*
G54D15*
X1677988Y527050D02*
X1677988Y533400D01*
X1692275Y547688D01*
X1692275Y506412D01*
X1689100Y506412D01*
X1676400Y519112D01*
X1676400Y525462D01*
X1677988Y527050D01*
G54D18*
X1597024Y647700D02*
X1597024Y833437D01*
X1619250Y855662D01*
X1619250Y966788D01*
X1643062Y990600D01*
X1643062Y1122362D01*
X1655762Y1135062D01*
X1655762Y1193800D01*
X1665288Y1203325D01*
X1665288Y1227138D01*
X1670050Y1231900D01*
X1670050Y1239838D01*
G54D18*
X1695450Y1246188D02*
X1676400Y1246188D01*
X1670050Y1239838D01*
X1708150Y1128712D02*
G54D11*
D03*
X1574800Y1141412D02*
G54D11*
D03*
X1474787Y1090612D02*
G54D11*
D03*
G54D18*
X1701800Y830262D02*
X1695450Y836612D01*
X1695450Y1092337D01*
X1677563Y1110224D01*
X1677563Y1110825D01*
X1695450Y1128712D01*
X1708150Y1128712D01*
X1622424Y1103312D02*
G54D11*
D03*
X1619250Y1141412D02*
G54D12*
D03*
X1492250Y1141412D02*
G54D12*
D03*
G54D18*
X1622424Y1103312D02*
X1622424Y1138238D01*
X1619250Y1141412D01*
X1277937Y1090612D02*
G54D11*
D03*
G54D18*
X1277937Y1146175D02*
X1277937Y1090612D01*
G54D23*
X1804988Y527050D02*
X1798638Y533400D01*
X1798638Y608013D01*
X1806574Y615950D01*
G36*
X1806575Y615950D02*
X1811338Y611188D01*
X1811338Y601662D01*
X1798638Y588962D01*
X1798638Y608013D01*
X1806575Y615950D01*
G37*
G54D15*
X1806575Y615950D02*
X1811338Y611188D01*
X1811338Y601662D01*
X1798638Y588962D01*
X1798638Y608013D01*
X1806575Y615950D01*
G54D24*
X1941512Y696912D02*
X1941512Y671512D01*
X1941512Y646112D01*
X1941512Y620712D01*
X1941512Y619125D01*
X1946275Y614362D01*
X1946275Y560388D01*
X1933575Y547688D01*
X1933575Y528638D01*
X1931988Y527050D01*
G54D18*
X1954212Y439738D02*
X1954212Y485774D01*
X1971675Y503238D01*
X1971675Y534988D01*
X1946275Y560388D01*
G36*
X1931988Y527050D02*
X1928812Y527050D01*
X1924050Y531812D01*
X1924050Y547688D01*
X1941512Y565150D01*
X1960562Y546100D01*
X1960562Y542338D01*
X1945450Y542338D01*
X1933575Y528638D01*
X1935162Y530225D01*
X1931988Y527050D01*
G37*
G54D25*
X1931988Y527050D02*
X1928812Y527050D01*
X1924050Y531812D01*
X1924050Y547688D01*
X1941512Y565150D01*
X1960562Y546100D01*
X1960562Y542338D01*
X1945450Y542338D01*
X1933575Y528638D01*
X1935162Y530225D01*
X1931988Y527050D01*
G36*
X1941512Y620712D02*
X1939925Y620712D01*
X1937162Y615950D01*
X1937162Y597488D01*
X1944688Y588962D01*
X1944688Y617537D01*
X1941512Y620712D01*
G37*
G54D18*
X1941512Y620712D02*
X1939925Y620712D01*
X1937162Y615950D01*
X1937162Y597488D01*
X1944688Y588962D01*
X1944688Y617537D01*
X1941512Y620712D01*
X1390650Y925512D02*
G54D11*
D03*
X1498600Y919162D02*
G54D11*
D03*
X1498600Y982662D02*
G54D11*
D03*
G54D18*
X1398588Y582612D02*
X1398588Y627062D01*
X1430338Y658812D01*
X1430338Y790575D01*
X1404938Y815975D01*
X1404938Y911224D01*
X1390650Y925512D01*
X1898650Y1150938D02*
G54D11*
D03*
G54D26*
X1873250Y1238250D02*
X1873250Y1231900D01*
X1871662Y1230312D01*
X1871662Y1177924D01*
X1898650Y1150938D01*
G36*
X1871662Y1184275D02*
X1900238Y1155700D01*
X1900238Y1152526D01*
X1898650Y1150938D01*
X1897062Y1150938D01*
X1893888Y1147762D01*
X1871662Y1171575D01*
X1871662Y1184275D01*
G37*
G54D15*
X1871662Y1184275D02*
X1900238Y1155700D01*
X1900238Y1152526D01*
X1898650Y1150938D01*
X1897062Y1150938D01*
X1893888Y1147762D01*
X1871662Y1171575D01*
X1871662Y1184275D01*
X1479550Y963612D02*
G54D11*
D03*
G54D18*
X1562100Y627062D02*
X1577975Y611188D01*
X1577975Y571500D01*
X1558925Y552450D01*
X1552575Y552450D01*
X1550988Y550862D01*
X1271587Y922338D02*
G54D11*
D03*
G54D18*
X1474787Y1090612D02*
X1474787Y1004888D01*
X1479550Y1000125D01*
X1479550Y963612D01*
X1479550Y874713D01*
X1498600Y855662D01*
X1473200Y830262D01*
X1473200Y781050D01*
X1474788Y779462D01*
X1477962Y779462D01*
X1498600Y758825D01*
X1498600Y679450D01*
X1500188Y677862D01*
X1500188Y614362D01*
X1512887Y601662D01*
X1490662Y601662D01*
X1479550Y590550D01*
X1479550Y520700D01*
X1500188Y500062D01*
G36*
X1474788Y879475D02*
X1474788Y842962D01*
X1468438Y836612D01*
X1468438Y823912D01*
X1477962Y823912D01*
X1477962Y833438D01*
X1490662Y846138D01*
X1490662Y863600D01*
X1474788Y879475D01*
G37*
G54D15*
X1474788Y879475D02*
X1474788Y842962D01*
X1468438Y836612D01*
X1468438Y823912D01*
X1477962Y823912D01*
X1477962Y833438D01*
X1490662Y846138D01*
X1490662Y863600D01*
X1474788Y879475D01*
G36*
X1495425Y620712D02*
X1474788Y600075D01*
X1474788Y585788D01*
X1484312Y585788D01*
X1484312Y588962D01*
X1508125Y612775D01*
X1503362Y612775D01*
X1495425Y620712D01*
G37*
G54D15*
X1495425Y620712D02*
X1474788Y600075D01*
X1474788Y585788D01*
X1484312Y585788D01*
X1484312Y588962D01*
X1508125Y612775D01*
X1503362Y612775D01*
X1495425Y620712D01*
G54D18*
X1593850Y1238250D02*
X1593850Y1219200D01*
X1562100Y1187450D01*
X1562100Y1154112D01*
X1574800Y1141412D01*
G36*
X1592262Y1211262D02*
X1592262Y1201738D01*
X1573212Y1182688D01*
X1573212Y1149350D01*
X1566862Y1149350D01*
X1562100Y1154112D01*
X1562100Y1190625D01*
X1587500Y1216025D01*
X1592262Y1211262D01*
G37*
G54D15*
X1592262Y1211262D02*
X1592262Y1201738D01*
X1573212Y1182688D01*
X1573212Y1149350D01*
X1566862Y1149350D01*
X1562100Y1154112D01*
X1562100Y1190625D01*
X1587500Y1216025D01*
X1592262Y1211262D01*
X1638300Y1158875D02*
G54D11*
D03*
G54D18*
X1619250Y1238250D02*
X1619250Y1214438D01*
X1638300Y1195388D01*
X1638300Y1158875D01*
G36*
X1620838Y1206500D02*
X1620838Y1168400D01*
X1630362Y1158875D01*
X1638300Y1158875D01*
X1638300Y1189038D01*
X1620838Y1206500D01*
G37*
G54D15*
X1620838Y1206500D02*
X1620838Y1168400D01*
X1630362Y1158875D01*
X1638300Y1158875D01*
X1638300Y1189038D01*
X1620838Y1206500D01*
G54D18*
X1498600Y881062D02*
X1498600Y919162D01*
X1498600Y982662D01*
X1498600Y1011238D01*
X1492250Y1017588D01*
X1492250Y1141412D01*
X2119312Y1109662D02*
G54D12*
D03*
X2119312Y982662D02*
G54D12*
D03*
X2208212Y1079500D02*
G54D11*
D03*
X2225674Y1090612D02*
G54D11*
D03*
X2517774Y1111250D02*
G54D11*
D03*
G54D18*
X1271587Y922338D02*
X1227138Y966788D01*
X1195387Y966788D01*
X1195387Y907689D01*
X1196410Y906666D01*
X1195387Y931862D02*
G54D11*
D03*
X1408112Y1185862D02*
G54D11*
D03*
X1452562Y1185862D02*
G54D11*
D03*
X1408112Y1139825D02*
G54D11*
D03*
X1452562Y1139825D02*
G54D11*
D03*
X1430338Y1139825D02*
G54D11*
D03*
X1392238Y1162050D02*
G54D11*
D03*
X1468438Y1162050D02*
G54D11*
D03*
X588962Y520700D02*
G54D11*
D03*
X544512Y520700D02*
G54D11*
D03*
X588962Y566738D02*
G54D11*
D03*
X544512Y566738D02*
G54D11*
D03*
X566738Y566738D02*
G54D11*
D03*
X604838Y544512D02*
G54D11*
D03*
X528638Y544512D02*
G54D11*
D03*
X481012Y520700D02*
G54D11*
D03*
X436562Y520700D02*
G54D11*
D03*
X481012Y566738D02*
G54D11*
D03*
X436562Y566738D02*
G54D11*
D03*
X458788Y566738D02*
G54D11*
D03*
X496888Y544512D02*
G54D11*
D03*
X420688Y544512D02*
G54D11*
D03*
X1347788Y677862D02*
G54D12*
D03*
X1220788Y677862D02*
G54D12*
D03*
X1347788Y576262D02*
G54D12*
D03*
X1220788Y576262D02*
G54D12*
D03*
X1220797Y550860D02*
G54D12*
D03*
X1347796Y550860D02*
G54D12*
D03*
X1347788Y703262D02*
G54D12*
D03*
X1220788Y703262D02*
G54D12*
D03*
X1347788Y652462D02*
G54D12*
D03*
X1220788Y652462D02*
G54D12*
D03*
X1347788Y601662D02*
G54D12*
D03*
X1220788Y601662D02*
G54D12*
D03*
X1347788Y931862D02*
G54D12*
D03*
X1220788Y931862D02*
G54D12*
D03*
X1422400Y950912D02*
G54D12*
D03*
X1397000Y950912D02*
G54D12*
D03*
X1371600Y950912D02*
G54D12*
D03*
X1371600Y1109662D02*
G54D12*
D03*
X1371600Y982662D02*
G54D12*
D03*
G54D15*
X1398588Y728662D02*
X1417638Y747712D01*
X1417638Y784225D01*
X1392238Y809625D01*
X1392238Y893762D01*
X1373188Y912812D01*
X1373188Y949325D01*
X1371600Y950912D01*
G54D18*
X1347788Y576262D02*
X1347796Y550860D01*
X1343022Y550860D01*
X1322388Y530225D01*
X1322388Y215900D01*
X1323975Y214312D01*
G36*
X1317625Y330200D02*
X1290638Y303212D01*
X1290638Y273050D01*
X1298575Y265112D01*
X1298575Y261938D01*
X1311275Y249238D01*
X1311275Y115888D01*
X1333500Y115888D01*
X1333500Y292100D01*
X1322388Y303212D01*
X1322388Y325438D01*
X1317625Y330200D01*
G37*
G54D15*
X1317625Y330200D02*
X1290638Y303212D01*
X1290638Y273050D01*
X1298575Y265112D01*
X1298575Y261938D01*
X1311275Y249238D01*
X1311275Y115888D01*
X1333500Y115888D01*
X1333500Y292100D01*
X1322388Y303212D01*
X1322388Y325438D01*
X1317625Y330200D01*
X531594Y442864D02*
G54D12*
D03*
X328394Y442864D02*
G54D12*
D03*
G54D15*
X1220788Y601662D02*
X1220788Y600844D01*
X1196410Y576466D01*
X1196410Y551066D01*
G54D15*
X1196410Y576466D02*
X1195591Y576466D01*
X1176338Y557212D01*
X1176338Y474662D01*
X1163638Y461962D01*
X1163638Y317500D01*
X1163638Y317500D02*
G54D13*
D03*
X379412Y342900D02*
G54D13*
D03*
G54D15*
X379412Y342900D02*
X379412Y466725D01*
X373062Y473075D01*
X358604Y473075D01*
X328394Y442864D01*
X992188Y766762D02*
G54D12*
D03*
X992188Y639762D02*
G54D12*
D03*
G54D15*
X1347787Y703262D02*
X1328738Y684212D01*
X1328738Y620712D01*
X1347788Y601662D01*
G54D15*
X1347788Y677862D02*
X1347788Y652462D01*
X1254125Y677862D02*
G54D13*
D03*
G54D15*
X1254125Y677862D02*
X1254125Y673100D01*
X1236662Y655638D01*
X1236662Y592137D01*
X1220788Y576262D01*
X1220788Y550869D01*
X1220797Y550860D01*
X1017588Y549275D02*
G54D13*
D03*
X1017588Y804862D02*
G54D11*
D03*
X1017588Y476250D02*
G54D11*
D03*
G54D15*
X1017588Y476250D02*
X1017588Y549275D01*
X1025525Y557212D01*
X1025525Y796925D01*
X1017588Y804862D01*
X1239838Y842962D02*
G54D13*
D03*
G54D15*
X1220788Y931862D02*
X1220788Y930275D01*
X1239838Y911225D01*
X1239838Y842962D01*
X1239838Y671512D01*
X1220788Y652462D01*
X146050Y561975D02*
G54D13*
D03*
G36*
X73075Y560338D02*
X111075Y560338D01*
X111075Y522338D01*
X73075Y522338D01*
X73075Y560338D01*
G37*
G36*
X73075Y465088D02*
X111075Y465088D01*
X111075Y427088D01*
X73075Y427088D01*
X73075Y465088D01*
G37*
G36*
X30212Y465088D02*
X68212Y465088D01*
X68212Y427088D01*
X30212Y427088D01*
X30212Y465088D01*
G37*
G36*
X73075Y414288D02*
X111075Y414288D01*
X111075Y376288D01*
X73075Y376288D01*
X73075Y414288D01*
G37*
G36*
X73075Y319038D02*
X111075Y319038D01*
X111075Y281038D01*
X73075Y281038D01*
X73075Y319038D01*
G37*
G36*
X30212Y319038D02*
X68212Y319038D01*
X68212Y281038D01*
X30212Y281038D01*
X30212Y319038D01*
G37*
G54D15*
X146050Y561975D02*
X144462Y561975D01*
X131762Y549275D01*
X131762Y339725D01*
X92075Y300038D01*
X968375Y557212D02*
G54D13*
D03*
G54D15*
X992188Y639762D02*
X992188Y595312D01*
X968375Y571500D01*
X968375Y557212D01*
G54D15*
X1220788Y474662D02*
X1249362Y503238D01*
X1249362Y604838D01*
X1258888Y614362D01*
X1258888Y614362D02*
G54D13*
D03*
X2549525Y692150D02*
G54D11*
D03*
X2524125Y692150D02*
G54D11*
D03*
X2574925Y692150D02*
G54D11*
D03*
X2517719Y755333D02*
G54D11*
D03*
X2517719Y780732D02*
G54D11*
D03*
X2517719Y729933D02*
G54D11*
D03*
X2233612Y855662D02*
G54D12*
D03*
X2233612Y728662D02*
G54D12*
D03*
G54D27*
X2233612Y728662D02*
X2233612Y635000D01*
X2259012Y609600D01*
X1144588Y906462D02*
G54D13*
D03*
G54D15*
X1196410Y855866D02*
X1195184Y855866D01*
X1144588Y906462D01*
X930275Y930275D02*
G54D12*
D03*
X930275Y803275D02*
G54D12*
D03*
X904875Y930275D02*
G54D12*
D03*
X904875Y803275D02*
G54D12*
D03*
X879475Y930275D02*
G54D12*
D03*
X879475Y803275D02*
G54D12*
D03*
X854075Y930275D02*
G54D12*
D03*
X854075Y803275D02*
G54D12*
D03*
G54D15*
X930275Y930275D02*
X914400Y946150D01*
X895350Y946150D01*
X879475Y930275D01*
G54D15*
X904875Y930275D02*
X885825Y911225D01*
X873125Y911225D01*
X854075Y930275D01*
X854075Y779462D02*
G54D12*
D03*
X854075Y652462D02*
G54D12*
D03*
X879475Y779462D02*
G54D12*
D03*
X879475Y652462D02*
G54D12*
D03*
G54D15*
X854075Y803275D02*
X854075Y779462D01*
G54D15*
X879475Y803275D02*
X879475Y779462D01*
G54D15*
X828675Y779462D02*
X879475Y728662D01*
X879475Y652462D01*
G54D15*
X828675Y754062D02*
X866775Y715962D01*
X866775Y665162D01*
X854075Y652462D01*
X2043112Y438150D02*
G54D28*
D03*
X2068512Y438150D02*
G54D28*
D03*
X2093912Y438150D02*
G54D28*
D03*
X2119312Y438150D02*
G54D28*
D03*
X2144712Y438150D02*
G54D28*
D03*
X2170112Y438150D02*
G54D28*
D03*
X2195512Y438150D02*
G54D28*
D03*
X2220912Y438150D02*
G54D28*
D03*
X669925Y538162D02*
G54D28*
D03*
X696912Y538162D02*
G54D28*
D03*
X722312Y538162D02*
G54D28*
D03*
X747712Y538162D02*
G54D28*
D03*
X773112Y538162D02*
G54D28*
D03*
X733425Y398462D02*
G54D12*
D03*
X606425Y398462D02*
G54D12*
D03*
X733425Y373062D02*
G54D12*
D03*
X606425Y373062D02*
G54D12*
D03*
X942975Y373062D02*
G54D12*
D03*
X815975Y373062D02*
G54D12*
D03*
X942975Y322262D02*
G54D12*
D03*
X815975Y322262D02*
G54D12*
D03*
X942975Y347662D02*
G54D12*
D03*
X815975Y347662D02*
G54D12*
D03*
G54D15*
X773112Y538162D02*
X771525Y538162D01*
X747712Y514350D01*
X735012Y514350D01*
X714375Y493712D01*
X714375Y417512D01*
X733425Y398462D01*
X701675Y469900D02*
G54D13*
D03*
G54D15*
X747712Y538162D02*
X701675Y492125D01*
X701675Y469900D01*
X701675Y404812D01*
X733425Y373062D01*
X688975Y342900D02*
G54D13*
D03*
G54D15*
X669925Y538162D02*
X669925Y361950D01*
X688975Y342900D01*
X904875Y550862D02*
G54D13*
D03*
X879475Y550862D02*
G54D13*
D03*
X942975Y436562D02*
G54D13*
D03*
G54D15*
X904875Y550862D02*
X904875Y474662D01*
X942975Y436562D01*
X942975Y373062D01*
G54D15*
X879475Y550862D02*
X881062Y550862D01*
X896938Y534988D01*
X896938Y450850D01*
X925512Y422275D01*
X925512Y365125D01*
X942975Y347662D01*
X785812Y360362D02*
G54D13*
D03*
X815975Y930275D02*
G54D13*
D03*
G54D15*
X785812Y360362D02*
X785812Y369888D01*
X803275Y387350D01*
X803275Y455612D01*
X784225Y474662D01*
X784225Y488950D01*
X809625Y514350D01*
X809625Y565150D01*
X787400Y587375D01*
X787400Y717550D01*
X806450Y736600D01*
X806450Y833438D01*
X828675Y855662D01*
X809625Y874712D01*
X809625Y923925D01*
X815975Y930275D01*
X815975Y1095375D02*
G54D12*
D03*
X815975Y968375D02*
G54D12*
D03*
X839788Y1193075D02*
G54D29*
D03*
X839788Y1142275D02*
G54D29*
D03*
X866775Y1167675D02*
G54D29*
D03*
X915988Y1142275D02*
G54D29*
D03*
X915988Y1193075D02*
G54D29*
D03*
X890588Y1267688D02*
G54D29*
D03*
X939800Y1267688D02*
G54D29*
D03*
X968375Y1167675D02*
G54D29*
D03*
X992188Y1193075D02*
G54D29*
D03*
X992188Y1142275D02*
G54D29*
D03*
X765176Y1095375D02*
G54D12*
D03*
X765176Y968376D02*
G54D12*
D03*
X1373188Y1247775D02*
G54D12*
D03*
X1246188Y1247775D02*
G54D12*
D03*
X720725Y957262D02*
G54D12*
D03*
X720725Y830262D02*
G54D12*
D03*
X720725Y804862D02*
G54D12*
D03*
X720725Y677862D02*
G54D12*
D03*
G54D15*
X720725Y830262D02*
X720725Y804862D01*
X720725Y760412D01*
X752475Y728662D01*
X695325Y881062D02*
G54D12*
D03*
X695325Y754062D02*
G54D12*
D03*
G54D15*
X695325Y881062D02*
X720725Y855662D01*
X720725Y830262D01*
X454025Y703262D02*
G54D12*
D03*
X327025Y703262D02*
G54D12*
D03*
X454025Y676275D02*
G54D12*
D03*
X327025Y676275D02*
G54D12*
D03*
G36*
X335188Y645738D02*
X335188Y631738D01*
X321188Y631738D01*
X321188Y645738D01*
X335188Y645738D01*
G37*
X328188Y613338D02*
G54D10*
D03*
X328188Y587938D02*
G54D10*
D03*
X328188Y562538D02*
G54D10*
D03*
X404388Y562538D02*
G54D10*
D03*
X404388Y587938D02*
G54D10*
D03*
X404388Y613338D02*
G54D10*
D03*
X404388Y638738D02*
G54D10*
D03*
G54D15*
X327025Y703262D02*
X327025Y676275D01*
X330200Y676275D01*
X347662Y658812D01*
X347662Y582012D01*
X328188Y562538D01*
X1373188Y1273175D02*
G54D12*
D03*
X1246188Y1273175D02*
G54D12*
D03*
G54D15*
X1373188Y1273175D02*
X1373188Y1247775D01*
X1341438Y1216025D01*
X1341438Y1135062D01*
X1352550Y1123950D01*
X1352550Y1104900D01*
X1385888Y1071562D01*
X1385888Y1017588D01*
X1357312Y989012D01*
X1357312Y973138D01*
X1363662Y966788D01*
X1381125Y966788D01*
X1397000Y950912D01*
G54D15*
X815975Y1095375D02*
X866775Y1146175D01*
X866775Y1167575D01*
X866775Y360362D02*
G54D13*
D03*
X1284288Y715962D02*
G54D13*
D03*
X892175Y696912D02*
G54D13*
D03*
X866775Y900112D02*
G54D13*
D03*
X866775Y1095375D02*
G54D12*
D03*
X866775Y968375D02*
G54D12*
D03*
X504834Y676272D02*
G54D12*
D03*
X631834Y676272D02*
G54D12*
D03*
X504834Y727072D02*
G54D12*
D03*
X631834Y727072D02*
G54D12*
D03*
X504834Y777872D02*
G54D12*
D03*
X631834Y777872D02*
G54D12*
D03*
X504834Y803272D02*
G54D12*
D03*
X631834Y803272D02*
G54D12*
D03*
X504834Y752472D02*
G54D12*
D03*
X631834Y752472D02*
G54D12*
D03*
X504834Y701672D02*
G54D12*
D03*
X631834Y701672D02*
G54D12*
D03*
G54D15*
X866775Y360362D02*
X873125Y366712D01*
X873125Y436562D01*
X885825Y449262D01*
X885825Y508000D01*
X866775Y527050D01*
X866775Y588962D01*
X879475Y601662D01*
X879475Y622300D01*
X898525Y641350D01*
X898525Y690562D01*
X892175Y696912D01*
X898525Y703262D01*
X898525Y776288D01*
X909638Y787400D01*
X936625Y787400D01*
X947738Y798512D01*
X947738Y819150D01*
X866775Y900112D01*
G54D15*
X504828Y676272D02*
X485775Y695325D01*
X485775Y708013D01*
X504834Y727072D01*
X504834Y727084D01*
X519112Y741362D01*
X519112Y763594D01*
X504834Y777872D01*
G54D15*
X866775Y1095375D02*
X897525Y1126125D01*
X951325Y1126125D01*
X992188Y1166988D01*
X992188Y1192975D01*
X631825Y879475D02*
G54D12*
D03*
X504825Y879475D02*
G54D12*
D03*
X631825Y854075D02*
G54D12*
D03*
X504825Y854075D02*
G54D12*
D03*
X631825Y828675D02*
G54D12*
D03*
X504825Y828675D02*
G54D12*
D03*
G54D15*
X631825Y879475D02*
X614362Y862012D01*
X614362Y820744D01*
X631834Y803272D01*
X631834Y777872D01*
G54D15*
X631825Y854075D02*
X657225Y828675D01*
X657225Y727063D01*
X631834Y701672D01*
G54D15*
X631825Y828675D02*
X650875Y809625D01*
X650875Y771513D01*
X631834Y752472D01*
X631834Y727072D01*
X525462Y792162D02*
G54D13*
D03*
X892175Y1095375D02*
G54D12*
D03*
X892175Y968375D02*
G54D12*
D03*
G54D15*
X752475Y906462D02*
X798512Y952500D01*
X876300Y952500D01*
X892175Y968375D01*
G54D15*
X892175Y1095375D02*
X915575Y1118775D01*
X968788Y1118775D01*
X992188Y1142175D01*
X841375Y1095375D02*
G54D12*
D03*
X841375Y968375D02*
G54D12*
D03*
X790575Y1095375D02*
G54D12*
D03*
X790575Y968375D02*
G54D12*
D03*
X765175Y423862D02*
G54D13*
D03*
X784225Y417512D02*
G54D13*
D03*
X777875Y398462D02*
G54D13*
D03*
G54D15*
X752475Y906462D02*
X781050Y877888D01*
X781050Y581025D01*
X803275Y558800D01*
X803275Y520700D01*
X777875Y495300D01*
X777875Y469900D01*
X796925Y450850D01*
X796925Y412750D01*
X782638Y398462D01*
X777875Y398462D01*
G54D15*
X784225Y417512D02*
X784225Y450850D01*
X771525Y463550D01*
X771525Y501650D01*
X796925Y527050D01*
X796925Y552450D01*
X774700Y574675D01*
X774700Y833438D01*
X752475Y855662D01*
G54D15*
X504834Y701672D02*
X504834Y701684D01*
X525462Y722312D01*
X525462Y792162D01*
G54D15*
X752475Y855662D02*
X733425Y874712D01*
X733425Y911225D01*
X790575Y968375D01*
G54D15*
X765175Y423862D02*
X765175Y506412D01*
X790575Y531812D01*
X790575Y547688D01*
X768350Y569912D01*
X768350Y788988D01*
X752475Y804862D01*
G54D15*
X752475Y804862D02*
X750888Y804862D01*
X736600Y819150D01*
X736600Y855662D01*
X727075Y865188D01*
X727075Y925512D01*
X746125Y944562D01*
X746125Y973138D01*
X762000Y989012D01*
X820738Y989012D01*
X841375Y968375D01*
G54D15*
X841375Y1095375D02*
X888175Y1142175D01*
X915988Y1142175D01*
X803275Y614362D02*
G54D13*
D03*
X803275Y646112D02*
G54D13*
D03*
X793750Y754062D02*
G54D13*
D03*
X1019175Y347662D02*
G54D12*
D03*
X327034Y752472D02*
G54D12*
D03*
X454034Y752472D02*
G54D12*
D03*
X454025Y777875D02*
G54D12*
D03*
X327025Y777875D02*
G54D12*
D03*
X454025Y803275D02*
G54D12*
D03*
X327025Y803275D02*
G54D12*
D03*
X367306Y833301D02*
G54D12*
D03*
X367306Y858701D02*
G54D12*
D03*
X367306Y884101D02*
G54D12*
D03*
X316506Y833301D02*
G54D12*
D03*
X316506Y858701D02*
G54D12*
D03*
X316506Y884101D02*
G54D12*
D03*
X284026Y815381D02*
G54D12*
D03*
X284026Y789981D02*
G54D12*
D03*
X284026Y764581D02*
G54D12*
D03*
X303212Y747712D02*
G54D12*
D03*
X303212Y620712D02*
G54D12*
D03*
G54D15*
X327034Y752472D02*
X327034Y777866D01*
X327025Y777875D01*
X360362Y777875D02*
G54D13*
D03*
G54D15*
X360362Y777875D02*
X360362Y782638D01*
X354012Y788988D01*
X354012Y817562D01*
X347662Y823912D01*
X347662Y846138D01*
X358775Y857250D01*
X365856Y857250D01*
X367306Y858701D01*
G54D15*
X793750Y754062D02*
X793750Y928688D01*
X811212Y946150D01*
X881062Y946150D01*
X889000Y954088D01*
X901700Y954088D01*
X911225Y963612D01*
X911225Y1089025D01*
X932625Y1110425D01*
X994538Y1110425D01*
X1023938Y1139825D01*
X1023938Y1165225D01*
X1023938Y1165225D02*
G54D13*
D03*
X1397000Y1223962D02*
G54D13*
D03*
G54D15*
X1397000Y1223962D02*
X1408112Y1212850D01*
X1408112Y1185862D01*
X1408112Y1184275D01*
X1452562Y1139825D01*
G54D15*
X284026Y815381D02*
X284026Y789981D01*
G54D15*
X367306Y833301D02*
X367306Y832843D01*
X382588Y817562D01*
X439737Y817562D01*
X454025Y803275D01*
G54D15*
X303212Y747712D02*
X303212Y823912D01*
X296862Y830262D01*
X296862Y864456D01*
X316506Y884101D01*
X454025Y911225D02*
G54D12*
D03*
X327025Y911225D02*
G54D12*
D03*
X346075Y739775D02*
G54D13*
D03*
X479425Y752475D02*
G54D12*
D03*
X479425Y625475D02*
G54D12*
D03*
G54D15*
X346075Y739775D02*
X346075Y811212D01*
X339725Y817562D01*
X339725Y856519D01*
X367306Y884101D01*
X354149Y884101D01*
X327025Y911225D01*
X411162Y955675D02*
G54D12*
D03*
X284162Y955675D02*
G54D12*
D03*
X471488Y936625D02*
G54D30*
D03*
X674688Y936625D02*
G54D30*
D03*
X1246197Y1223960D02*
G54D12*
D03*
X1373196Y1223960D02*
G54D12*
D03*
X1246197Y1171572D02*
G54D12*
D03*
X1373196Y1171572D02*
G54D12*
D03*
X1373192Y1196984D02*
G54D12*
D03*
X1246192Y1196984D02*
G54D12*
D03*
X1195388Y1190625D02*
G54D12*
D03*
X1068388Y1190625D02*
G54D12*
D03*
X1195388Y1217612D02*
G54D12*
D03*
X1068388Y1217612D02*
G54D12*
D03*
X1131888Y1165225D02*
G54D11*
D03*
X1106488Y1165225D02*
G54D11*
D03*
X1157288Y1165225D02*
G54D11*
D03*
G54D15*
X1408112Y1139825D02*
X1387475Y1139825D01*
X1373188Y1154112D01*
X1373188Y1171563D01*
X1373196Y1171572D01*
G54D15*
X1373196Y1223960D02*
X1373192Y1196984D01*
G54D15*
X1246197Y1171572D02*
X1246192Y1196984D01*
G54D15*
X1246197Y1223960D02*
X1236660Y1223960D01*
X1203325Y1190625D01*
X1195388Y1190625D01*
G54D15*
X1106488Y1165225D02*
X1122362Y1149350D01*
X1169988Y1149350D01*
X1173162Y1152525D01*
X1173162Y1195388D01*
X1195388Y1217612D01*
G54D15*
X1068388Y1217612D02*
X864425Y1217612D01*
X839788Y1192975D01*
X790575Y1247775D02*
G54D12*
D03*
X790575Y1120775D02*
G54D12*
D03*
X765175Y1247775D02*
G54D12*
D03*
X765175Y1120775D02*
G54D12*
D03*
X293688Y1222375D02*
G54D31*
D03*
X293688Y1192212D02*
G54D31*
D03*
X293688Y1162050D02*
G54D31*
D03*
X282575Y1254125D02*
G54D32*
D03*
G54D15*
X293688Y1192212D02*
X292100Y1192212D01*
X276225Y1208088D01*
X276225Y1247775D01*
X282575Y1254125D01*
X1265238Y1260475D02*
G54D13*
D03*
G54D15*
X1265238Y1260475D02*
X1265238Y1039812D01*
X1271588Y1033462D01*
X1271588Y957262D01*
X1284288Y944562D01*
X1284288Y715962D01*
X1041400Y1258888D02*
G54D33*
D03*
X1219200Y1258888D02*
G54D33*
D03*
X601662Y600075D02*
G54D12*
D03*
X474662Y600075D02*
G54D12*
D03*
G54D34*
X474662Y600075D02*
X474662Y604838D01*
X477838Y608012D01*
X477838Y623888D01*
X479425Y625475D01*
X754062Y600075D02*
G54D12*
D03*
X627062Y600075D02*
G54D12*
D03*
X754062Y652462D02*
G54D12*
D03*
X627062Y652462D02*
G54D12*
D03*
X754062Y625475D02*
G54D12*
D03*
X627062Y625475D02*
G54D12*
D03*
G54D15*
X803275Y646112D02*
X793750Y655638D01*
X793750Y712788D01*
X812800Y731838D01*
X812800Y814388D01*
X828675Y830262D01*
G54D15*
X588962Y566738D02*
X581025Y574675D01*
X581025Y612775D01*
X593725Y625475D01*
X627062Y625475D01*
G54D15*
X828675Y703262D02*
X801688Y676275D01*
X801688Y666750D01*
X815975Y652462D01*
X815975Y627062D01*
X803275Y614362D01*
X304800Y385762D02*
G54D12*
D03*
X177800Y385762D02*
G54D12*
D03*
X304800Y411162D02*
G54D12*
D03*
X177800Y411162D02*
G54D12*
D03*
G54D15*
X304800Y411162D02*
X307975Y411162D01*
X328612Y390525D01*
X328612Y379412D01*
X487362Y449262D02*
G54D13*
D03*
X504825Y423862D02*
G54D13*
D03*
X157162Y538162D02*
G54D13*
D03*
X354012Y544512D02*
G54D13*
D03*
X322262Y536575D02*
G54D13*
D03*
G54D15*
X157162Y538162D02*
X157162Y431800D01*
X177800Y411162D01*
X177800Y385762D01*
X304800Y434975D02*
G54D12*
D03*
X177800Y434975D02*
G54D12*
D03*
X304800Y461962D02*
G54D12*
D03*
X177800Y461962D02*
G54D12*
D03*
G54D15*
X304800Y460375D02*
X322262Y477838D01*
X322262Y536575D01*
G54D15*
X304800Y434975D02*
X304800Y442912D01*
X334962Y473075D01*
X334962Y525462D01*
X354012Y544512D01*
G54D15*
X481012Y565150D02*
X481012Y568325D01*
X436562Y612775D01*
X405412Y612775D01*
X404388Y611750D01*
G54D15*
X436562Y566738D02*
X454025Y549275D01*
X454025Y482600D01*
X487362Y449262D01*
X304800Y574675D02*
G54D12*
D03*
X177800Y574675D02*
G54D12*
D03*
X304800Y549275D02*
G54D12*
D03*
X177800Y549275D02*
G54D12*
D03*
G54D15*
X177800Y461962D02*
X177800Y482600D01*
X195262Y500062D01*
X195262Y514350D01*
X177800Y531812D01*
X177800Y549275D01*
X177800Y574675D01*
X63500Y160338D02*
G54D35*
D03*
X63500Y130175D02*
G54D35*
D03*
X63500Y100012D02*
G54D35*
D03*
X104775Y144462D02*
G54D35*
D03*
X104775Y114300D02*
G54D35*
D03*
X104775Y84138D02*
G54D35*
D03*
X2669560Y105154D02*
G54D35*
D03*
X2639398Y105154D02*
G54D35*
D03*
X2609235Y105154D02*
G54D35*
D03*
X2653685Y63880D02*
G54D35*
D03*
X2623522Y63880D02*
G54D35*
D03*
X2593360Y63880D02*
G54D35*
D03*
G54D36*
X2726571Y21550D02*
X2725571Y19883D01*
X2723571Y19050D01*
X2721571Y19050D01*
X2719571Y19883D01*
X2718571Y21550D01*
X2718571Y23217D01*
X2719571Y24883D01*
X2721571Y25717D01*
X2723571Y25717D01*
X2725571Y26550D01*
X2726571Y28217D01*
X2726571Y29883D01*
X2725571Y31550D01*
X2723571Y32383D01*
X2721571Y32383D01*
X2719571Y31550D01*
X2718571Y29883D01*
G54D36*
X2713904Y19050D02*
X2713904Y26550D01*
G54D36*
X2713904Y29050D02*
X2713904Y29050D01*
G54D36*
X2709237Y19050D02*
X2709237Y26550D01*
G54D36*
X2709237Y24883D02*
X2708237Y26050D01*
X2706237Y26550D01*
X2704237Y26050D01*
X2703237Y24883D01*
X2703237Y19050D01*
G54D36*
X2698570Y19050D02*
X2698570Y32383D01*
X2693570Y32383D01*
X2691570Y31550D01*
X2690570Y29883D01*
X2690570Y21550D01*
X2691570Y19883D01*
X2693570Y19050D01*
X2698570Y19050D01*
G54D36*
X2685903Y19050D02*
X2685903Y26550D01*
G54D36*
X2685903Y29050D02*
X2685903Y29050D01*
G54D36*
X2681236Y19050D02*
X2681236Y32383D01*
G54D36*
X2681236Y23217D02*
X2673236Y32383D01*
G54D36*
X2678236Y25717D02*
X2673236Y19050D01*
G54D36*
X2668569Y19050D02*
X2663569Y32383D01*
X2658569Y19050D01*
G54D36*
X2666569Y24050D02*
X2660569Y24050D01*
G54D36*
X2649902Y19050D02*
X2649902Y32383D01*
G54D36*
X2653902Y32383D02*
X2645902Y32383D01*
G54D36*
X294912Y19248D02*
X288912Y19248D01*
X294912Y11748D01*
X288912Y11748D01*
G54D36*
X276245Y22581D02*
X276245Y14248D01*
X277245Y12581D01*
X279245Y11748D01*
X281245Y11748D01*
X283245Y12581D01*
X284245Y14248D01*
X284245Y22581D01*
X283245Y24248D01*
X281245Y25081D01*
X279245Y25081D01*
X277245Y24248D01*
X276245Y22581D01*
G54D36*
X263578Y22581D02*
X263578Y14248D01*
X264578Y12581D01*
X266578Y11748D01*
X268578Y11748D01*
X270578Y12581D01*
X271578Y14248D01*
X271578Y22581D01*
X270578Y24248D01*
X268578Y25081D01*
X266578Y25081D01*
X264578Y24248D01*
X263578Y22581D01*
G54D36*
X258911Y11748D02*
X258911Y19248D01*
G54D36*
X258911Y17914D02*
X256911Y19248D01*
X254911Y18748D01*
X253911Y17581D01*
X253911Y11748D01*
G54D36*
X253911Y17914D02*
X251911Y19248D01*
X249911Y18748D01*
X248911Y17581D01*
X248911Y11748D01*
G54D36*
X231377Y22581D02*
X231377Y14248D01*
X232377Y12581D01*
X234377Y11748D01*
X236377Y11748D01*
X238377Y12581D01*
X239377Y14248D01*
X239377Y22581D01*
X238377Y24248D01*
X236377Y25081D01*
X234377Y25081D01*
X232377Y24248D01*
X231377Y22581D01*
G54D36*
X220710Y11748D02*
X220710Y25081D01*
X226710Y16748D01*
X226710Y15081D01*
X218710Y15081D01*
G54D36*
X214043Y11748D02*
X206043Y25081D01*
G54D36*
X193376Y11748D02*
X201376Y11748D01*
X201376Y12581D01*
X200376Y14248D01*
X194376Y19248D01*
X193376Y20914D01*
X193376Y22581D01*
X194376Y24248D01*
X196376Y25081D01*
X198376Y25081D01*
X200376Y24248D01*
X201376Y22581D01*
G54D36*
X180709Y22581D02*
X180709Y14248D01*
X181709Y12581D01*
X183709Y11748D01*
X185709Y11748D01*
X187709Y12581D01*
X188709Y14248D01*
X188709Y22581D01*
X187709Y24248D01*
X185709Y25081D01*
X183709Y25081D01*
X181709Y24248D01*
X180709Y22581D01*
G54D36*
X168042Y11748D02*
X176042Y11748D01*
X176042Y12581D01*
X175042Y14248D01*
X169042Y19248D01*
X168042Y20914D01*
X168042Y22581D01*
X169042Y24248D01*
X171042Y25081D01*
X173042Y25081D01*
X175042Y24248D01*
X176042Y22581D01*
G54D36*
X155375Y25081D02*
X163375Y25081D01*
X163375Y19248D01*
X162375Y19248D01*
X160375Y20081D01*
X158375Y20081D01*
X156375Y19248D01*
X155375Y17581D01*
X155375Y14248D01*
X156375Y12581D01*
X158375Y11748D01*
X160375Y11748D01*
X162375Y12581D01*
X163375Y14248D01*
X177800Y506412D02*
G54D12*
D03*
X304800Y506412D02*
G54D12*
D03*
X500062Y487362D02*
G54D12*
D03*
X373062Y487362D02*
G54D12*
D03*
X304800Y347662D02*
G54D12*
D03*
X177800Y347662D02*
G54D12*
D03*
X633412Y330200D02*
G54D12*
D03*
X760412Y330200D02*
G54D12*
D03*
X735012Y442912D02*
G54D12*
D03*
X608012Y442912D02*
G54D12*
D03*
X809406Y487314D02*
G54D12*
D03*
X606206Y487314D02*
G54D12*
D03*
X722312Y317500D02*
G54D13*
D03*
X758825Y292100D02*
G54D13*
D03*
G54D15*
X722312Y317500D02*
X723900Y317500D01*
X730250Y311150D01*
X730250Y65088D01*
X750888Y44450D01*
X1806575Y44450D01*
X1811338Y39688D01*
X1892300Y39688D01*
X1898650Y46038D01*
X1898650Y57150D01*
X1905000Y63500D01*
X1939925Y63500D01*
X1958975Y82550D01*
X1958975Y82550D02*
G54D13*
D03*
X2095500Y82550D02*
G54D13*
D03*
X2087562Y241300D02*
G54D13*
D03*
X2076450Y103188D02*
G54D13*
D03*
X1879600Y173038D02*
G54D13*
D03*
X1866900Y63500D02*
G54D13*
D03*
G54D15*
X2095500Y82550D02*
X2095500Y103188D01*
X2081212Y117475D01*
X2081212Y234950D01*
X2087562Y241300D01*
X2254250Y355600D02*
G54D13*
D03*
G54D15*
X504825Y423862D02*
X481012Y400050D01*
X481012Y50800D01*
X481012Y50800D02*
G54D13*
D03*
G54D15*
X1866900Y63500D02*
X1885950Y82550D01*
X1885950Y122238D01*
X1892300Y128588D01*
X1892300Y160338D01*
X1879600Y173038D01*
X2424112Y190500D02*
G54D13*
D03*
X2443162Y266700D02*
G54D13*
D03*
G54D15*
X2424112Y190500D02*
X2447925Y214312D01*
X2447925Y261938D01*
X2443162Y266700D01*
X1955800Y103188D02*
G54D13*
D03*
G54D15*
X2254250Y355600D02*
X2252662Y355600D01*
X2233612Y374650D01*
X2233612Y393700D01*
X2211388Y415925D01*
X2090738Y415925D01*
X2063750Y388938D01*
X2063750Y255588D01*
X2055812Y247650D01*
X2055812Y123825D01*
X2076450Y103188D01*
G54D15*
X1955800Y103188D02*
X1954188Y103188D01*
X1946300Y95300D01*
X1946300Y80988D01*
X1936750Y71438D01*
X1898650Y71438D01*
X1892300Y65088D01*
X1892300Y50800D01*
X1887538Y46038D01*
X1816100Y46038D01*
X1811338Y50800D01*
X760412Y50800D01*
X736600Y74612D01*
X736600Y269875D01*
X758825Y292100D01*
X2398712Y50800D02*
G54D13*
D03*
X2379662Y101600D02*
G54D13*
D03*
X2449512Y355600D02*
G54D13*
D03*
G54D15*
X2398712Y50800D02*
X2398712Y98425D01*
X2433638Y133350D01*
X2433638Y177800D01*
X2454275Y198438D01*
X2454275Y350838D01*
X2449512Y355600D01*
X531812Y334962D02*
G54D12*
D03*
X404812Y334962D02*
G54D12*
D03*
X2360612Y177800D02*
G54D12*
D03*
X2360612Y50800D02*
G54D12*
D03*
G54D15*
X2379662Y101600D02*
X2386012Y107950D01*
X2386012Y279400D01*
X2360612Y304800D01*
G54D15*
X2360612Y50800D02*
X2330450Y20638D01*
X1922462Y20638D01*
X1916112Y14288D01*
X1781175Y14288D01*
X1774825Y20638D01*
X455612Y20638D01*
X449262Y14288D01*
X385762Y14288D01*
X336550Y63500D01*
X98425Y63500D01*
X84138Y77788D01*
X84138Y139700D01*
X63500Y160338D01*
G54D15*
X2360612Y228600D02*
X2378075Y211138D01*
X2378075Y133350D01*
X2359025Y114300D01*
X2359025Y84138D01*
X2379662Y63500D01*
X2379662Y26988D01*
X2392362Y14288D01*
X2604093Y14288D01*
X2653685Y63880D01*
X2625725Y330200D02*
G54D13*
D03*
X2651125Y349250D02*
G54D13*
D03*
G54D15*
X2136775Y525462D02*
X2136775Y508000D01*
G54D15*
X2100262Y517525D02*
X2100262Y506412D01*
X2128838Y506412D01*
X2128838Y549275D01*
X2106612Y549275D01*
X2100262Y542925D01*
X2100262Y538162D01*
X2108200Y530225D01*
X2128838Y530225D01*
G54D15*
X2111375Y522288D02*
X2114550Y525462D01*
X2119312Y525462D01*
X2122488Y522288D01*
X2122488Y515938D01*
X2119312Y512762D01*
X2114550Y512762D01*
X2111375Y515938D01*
G54D15*
X2092325Y525462D02*
X2092325Y508000D01*
X2085975Y508000D01*
X2082800Y511175D01*
X2082800Y515938D01*
X2084388Y517525D01*
X2092325Y517525D01*
G54D15*
X2092325Y525462D02*
X2085975Y525462D01*
X2084388Y523875D01*
X2084388Y520700D01*
X2087562Y517525D01*
G54D34*
X592138Y1108075D02*
X560388Y1108075D01*
X560388Y1116012D01*
X592138Y1116012D01*
X592138Y1123950D01*
X560388Y1123950D01*
G54D34*
X552450Y1108075D02*
X552450Y1123950D01*
G54D37*
X544512Y1108075D02*
X544512Y1123950D01*
X512762Y1123950D01*
X512762Y1108075D01*
G54D37*
X473075Y1108075D02*
X504825Y1108075D01*
X504825Y1123950D01*
X473075Y1123950D01*
G54D37*
X465138Y1108075D02*
X465138Y1131888D01*
G54D37*
X457200Y1123950D02*
X427038Y1123950D01*
X427038Y1108075D01*
X457200Y1108075D01*
X457200Y1116012D01*
X427038Y1116012D01*
G54D37*
X419100Y1123950D02*
X419100Y1108075D01*
G54D37*
X411162Y1108075D02*
X411162Y1123950D01*
X381000Y1123950D01*
G54D15*
G75*
G01X554038Y1131888D02*
G03X554038Y1131888I-1588J0D01*
G01*
G54D15*
G75*
G01X420688Y1131888D02*
G03X420688Y1131888I-1588J0D01*
G01*
G54D38*
X598488Y1090611D02*
X591821Y1097278D01*
X591821Y1079500D01*
G54D38*
X574932Y1079500D02*
X585598Y1079500D01*
X585598Y1080611D01*
X584265Y1082833D01*
X576265Y1089500D01*
X574932Y1091722D01*
X574932Y1093944D01*
X576265Y1096167D01*
X578932Y1097278D01*
X581598Y1097278D01*
X584265Y1096167D01*
X585598Y1093944D01*
G54D38*
X562043Y1088389D02*
X564710Y1088389D01*
X567376Y1089500D01*
X568710Y1091722D01*
X568710Y1093944D01*
X567376Y1096167D01*
X564710Y1097278D01*
X562043Y1097278D01*
X559376Y1096167D01*
X558043Y1093944D01*
X558043Y1091722D01*
X559376Y1089500D01*
X562043Y1088389D01*
X559376Y1087278D01*
X558043Y1085056D01*
X558043Y1082833D01*
X559376Y1080611D01*
X562043Y1079500D01*
X564710Y1079500D01*
X567376Y1080611D01*
X568710Y1082833D01*
X568710Y1085056D01*
X567376Y1087278D01*
X564710Y1088389D01*
G54D38*
X551820Y1079500D02*
X551820Y1097278D01*
G54D38*
X551820Y1085056D02*
X541154Y1097278D01*
G54D38*
X547820Y1088389D02*
X541154Y1079500D01*
G54D38*
X508976Y1082833D02*
X507642Y1080611D01*
X504976Y1079500D01*
X502309Y1079500D01*
X499642Y1080611D01*
X498309Y1082833D01*
X498309Y1085056D01*
X499642Y1087278D01*
X502309Y1088389D01*
X504976Y1088389D01*
X507642Y1089500D01*
X508976Y1091722D01*
X508976Y1093944D01*
X507642Y1096167D01*
X504976Y1097278D01*
X502309Y1097278D01*
X499642Y1096167D01*
X498309Y1093944D01*
G54D38*
X492086Y1079500D02*
X492086Y1097278D01*
X485420Y1097278D01*
X482753Y1096167D01*
X481420Y1093944D01*
X481420Y1091722D01*
X482753Y1089500D01*
X485420Y1088389D01*
X492086Y1088389D01*
G54D38*
X465864Y1079500D02*
X475198Y1079500D01*
X475198Y1097278D01*
X465864Y1097278D01*
G54D38*
X475198Y1088389D02*
X465864Y1088389D01*
G54D38*
X448976Y1082833D02*
X450309Y1080611D01*
X452976Y1079500D01*
X455642Y1079500D01*
X458309Y1080611D01*
X459642Y1082833D01*
X459642Y1093944D01*
X458309Y1096167D01*
X455642Y1097278D01*
X452976Y1097278D01*
X450309Y1096167D01*
X448976Y1093944D01*
G54D38*
X437420Y1079500D02*
X437420Y1097278D01*
G54D38*
X442754Y1097278D02*
X432087Y1097278D01*
G54D38*
X420531Y1088389D02*
X416531Y1086167D01*
X415198Y1083944D01*
X415198Y1079500D01*
G54D38*
X425864Y1079500D02*
X425864Y1097278D01*
X419198Y1097278D01*
X416531Y1096167D01*
X415198Y1093944D01*
X415198Y1091722D01*
X416531Y1089500D01*
X419198Y1088389D01*
X425864Y1088389D01*
G54D38*
X408976Y1097278D02*
X408976Y1082833D01*
X407642Y1080611D01*
X404976Y1079500D01*
X402309Y1079500D01*
X399642Y1080611D01*
X398309Y1082833D01*
X398309Y1097278D01*
G54D38*
X392086Y1079500D02*
X392086Y1097278D01*
X385420Y1086167D01*
X378753Y1097278D01*
X378753Y1079500D01*
G54D38*
X574675Y1063624D02*
X570230Y1070290D01*
X570230Y1052512D01*
G54D38*
X564009Y1055846D02*
X563120Y1053624D01*
X561342Y1052512D01*
X559564Y1052512D01*
X557787Y1053624D01*
X556898Y1055846D01*
X556898Y1061401D01*
X556898Y1062512D01*
X559564Y1060290D01*
X561342Y1060290D01*
X563120Y1061401D01*
X564009Y1063624D01*
X564009Y1066957D01*
X563120Y1069179D01*
X561342Y1070290D01*
X559564Y1070290D01*
X557787Y1069179D01*
X556898Y1066957D01*
X556898Y1061401D01*
G54D38*
X546232Y1061401D02*
X548009Y1061401D01*
X549787Y1062512D01*
X550676Y1064735D01*
X550676Y1066957D01*
X549787Y1069179D01*
X548009Y1070290D01*
X546232Y1070290D01*
X544454Y1069179D01*
X543565Y1066957D01*
X543565Y1064735D01*
X544454Y1062512D01*
X546232Y1061401D01*
X544454Y1060290D01*
X543565Y1058068D01*
X543565Y1055846D01*
X544454Y1053624D01*
X546232Y1052512D01*
X548009Y1052512D01*
X549787Y1053624D01*
X550676Y1055846D01*
X550676Y1058068D01*
X549787Y1060290D01*
X548009Y1061401D01*
G54D38*
X530232Y1070290D02*
X537343Y1070290D01*
X537343Y1062512D01*
X536454Y1062512D01*
X534676Y1063624D01*
X532898Y1063624D01*
X531121Y1062512D01*
X530232Y1060290D01*
X530232Y1055846D01*
X531121Y1053624D01*
X532898Y1052512D01*
X534676Y1052512D01*
X536454Y1053624D01*
X537343Y1055846D01*
G54D38*
X504810Y1070290D02*
X500366Y1052512D01*
X495921Y1070290D01*
G54D38*
X483477Y1052512D02*
X489699Y1052512D01*
X489699Y1070290D01*
X483477Y1070290D01*
G54D38*
X489699Y1061401D02*
X483477Y1061401D01*
G54D38*
X473700Y1061401D02*
X471033Y1059179D01*
X470144Y1056957D01*
X470144Y1052512D01*
G54D38*
X477255Y1052512D02*
X477255Y1070290D01*
X472810Y1070290D01*
X471033Y1069179D01*
X470144Y1066957D01*
X470144Y1064735D01*
X471033Y1062512D01*
X472810Y1061401D01*
X477255Y1061401D01*
G54D38*
X463922Y1055846D02*
X463033Y1053624D01*
X461255Y1052512D01*
X459478Y1052512D01*
X457700Y1053624D01*
X456811Y1055846D01*
X456811Y1058068D01*
X457700Y1060290D01*
X459478Y1061401D01*
X461255Y1061401D01*
X463033Y1062512D01*
X463922Y1064735D01*
X463922Y1066957D01*
X463033Y1069179D01*
X461255Y1070290D01*
X459478Y1070290D01*
X457700Y1069179D01*
X456811Y1066957D01*
G54D38*
X450589Y1052512D02*
X450589Y1070290D01*
G54D38*
X437256Y1066957D02*
X437256Y1055846D01*
X438145Y1053624D01*
X439922Y1052512D01*
X441700Y1052512D01*
X443478Y1053624D01*
X444367Y1055846D01*
X444367Y1066957D01*
X443478Y1069179D01*
X441700Y1070290D01*
X439922Y1070290D01*
X438145Y1069179D01*
X437256Y1066957D01*
G54D38*
X431034Y1052512D02*
X431034Y1070290D01*
X423923Y1052512D01*
X423923Y1070290D01*
G54D38*
X391390Y1066957D02*
X392279Y1069179D01*
X394056Y1070290D01*
X395834Y1070290D01*
X397612Y1069179D01*
X398501Y1066957D01*
X398501Y1061401D01*
X398501Y1060290D01*
X395834Y1062512D01*
X394056Y1062512D01*
X392279Y1061401D01*
X391390Y1059179D01*
X391390Y1055846D01*
X392279Y1053624D01*
X394056Y1052512D01*
X395834Y1052512D01*
X397612Y1053624D01*
X398501Y1055846D01*
X398501Y1061401D01*
G54D38*
X385168Y1070290D02*
X385168Y1055846D01*
X384279Y1053624D01*
X382501Y1052512D01*
X380724Y1052512D01*
X378946Y1053624D01*
X378057Y1055846D01*
X378057Y1070290D01*
G54D15*
G75*
G01X603250Y1060450D02*
G03X603250Y1060450I-11112J0D01*
G01*
G54D38*
X590868Y1065021D02*
X592646Y1065688D01*
X594424Y1065021D01*
X595312Y1062799D01*
X595312Y1058354D01*
X594424Y1056132D01*
X592646Y1055688D01*
X590868Y1056132D01*
G54D15*
X2652712Y595312D02*
X2652712Y620712D01*
X2640012Y620712D01*
X2635250Y615950D01*
X2635250Y611188D01*
X2638425Y608012D01*
X2652712Y608012D01*
G54D15*
X2600325Y615950D02*
X2605088Y620712D01*
X2616200Y620712D01*
X2619375Y615950D01*
X2619375Y598488D01*
X2616200Y595312D01*
X2605088Y595312D01*
X2600325Y600075D01*
G54D15*
X2586038Y595312D02*
X2586038Y620712D01*
X2574925Y620712D01*
X2570162Y615950D01*
X2570162Y611188D01*
X2573338Y608012D01*
X2586038Y608012D01*
G54D15*
X2552700Y619125D02*
X2541000Y619125D01*
X2538412Y616538D01*
X2538412Y611188D01*
X2541588Y608012D01*
X2555875Y608012D01*
X2559050Y604838D01*
X2559050Y600075D01*
X2554288Y595312D01*
X2543175Y595312D01*
X1284288Y1058862D02*
G54D39*
D03*
X1335088Y1058862D02*
G54D39*
D03*
G54D15*
X1284288Y1058862D02*
X1284288Y1060450D01*
X1333500Y1109662D01*
G54D15*
X1333500Y982662D02*
X1341438Y990600D01*
X1341438Y1052512D01*
X1335088Y1058862D01*
G54D15*
X2609235Y105154D02*
X2609235Y105390D01*
X2593975Y120650D01*
X2593975Y160338D01*
X2632075Y198438D01*
X2632075Y323850D01*
X2625725Y330200D01*
G54D15*
X2639398Y105154D02*
X2634398Y108802D01*
X2625725Y117475D01*
X2625725Y155575D01*
X2638425Y168275D01*
X2638425Y336550D01*
X2651125Y349250D01*
X2543187Y387355D02*
G54D29*
D03*
X2543187Y514355D02*
G54D29*
D03*
X2330450Y573087D02*
G54D29*
D03*
X2330450Y446087D02*
G54D29*
D03*
X2365375Y573087D02*
G54D29*
D03*
X2365375Y446087D02*
G54D29*
D03*
X2505087Y539755D02*
G54D29*
D03*
X2505087Y666755D02*
G54D29*
D03*
X2461711Y450918D02*
G54D12*
D03*
X2461711Y654119D02*
G54D12*
D03*
X2409723Y654285D02*
G54D12*
D03*
X2409723Y451085D02*
G54D12*
D03*
X2513012Y381000D02*
G54D12*
D03*
X2513012Y254000D02*
G54D12*
D03*
X2708275Y255587D02*
G54D12*
D03*
X2581275Y255587D02*
G54D12*
D03*
X2466975Y1047750D02*
G54D12*
D03*
X2466975Y920750D02*
G54D12*
D03*
X2492375Y1047750D02*
G54D12*
D03*
X2492375Y920750D02*
G54D12*
D03*
X2492375Y1276350D02*
G54D12*
D03*
X2492375Y1149350D02*
G54D12*
D03*
X2517775Y1149350D02*
G54D12*
D03*
X2517775Y1022350D02*
G54D12*
D03*
X2568575Y666750D02*
G54D12*
D03*
X2568575Y539750D02*
G54D12*
D03*
X2593975Y666750D02*
G54D12*
D03*
X2593975Y539750D02*
G54D12*
D03*
X2619375Y666750D02*
G54D12*
D03*
X2619375Y539750D02*
G54D12*
D03*
X2644775Y666750D02*
G54D12*
D03*
X2644775Y539750D02*
G54D12*
D03*
X2670175Y666750D02*
G54D12*
D03*
X2670175Y539750D02*
G54D12*
D03*
X853973Y603485D02*
G54D12*
D03*
X853973Y400285D02*
G54D12*
D03*
X904875Y603250D02*
G54D40*
D03*
X904875Y400050D02*
G54D40*
D03*
X942975Y603250D02*
G54D12*
D03*
X942975Y476250D02*
G54D12*
D03*
X968375Y603250D02*
G54D12*
D03*
X968375Y476250D02*
G54D12*
D03*
X2525712Y184150D02*
G54D12*
D03*
X2728912Y184150D02*
G54D12*
D03*
X2715711Y463618D02*
G54D12*
D03*
X2715711Y666819D02*
G54D12*
D03*
X2658561Y312806D02*
G54D12*
D03*
X2658561Y516006D02*
G54D12*
D03*
X2561724Y719206D02*
G54D12*
D03*
X2561724Y922406D02*
G54D12*
D03*
X2561724Y946218D02*
G54D12*
D03*
X2561724Y1149419D02*
G54D12*
D03*
X2708275Y279400D02*
G54D12*
D03*
X2581275Y279400D02*
G54D12*
D03*
X2708280Y228609D02*
G54D12*
D03*
X2581280Y228609D02*
G54D12*
D03*
X2713727Y323850D02*
G54D41*
D03*
X2713727Y349250D02*
G54D41*
D03*
X2713727Y374650D02*
G54D41*
D03*
X2393950Y793750D02*
G54D42*
D03*
X2393950Y755650D02*
G54D42*
D03*
X2393950Y704850D02*
G54D42*
D03*
X2479675Y793750D02*
G54D42*
D03*
X2479675Y755650D02*
G54D42*
D03*
X2479675Y704850D02*
G54D42*
D03*
X2530475Y1276350D02*
G54D43*
D03*
X2530475Y1187450D02*
G54D43*
D03*
X2568575Y1276350D02*
G54D43*
D03*
X2568575Y1187450D02*
G54D43*
D03*
X2270125Y1054100D02*
G54D44*
D03*
X2320925Y1054100D02*
G54D44*
D03*
X2270125Y977900D02*
G54D44*
D03*
X2320925Y977900D02*
G54D44*
D03*
X2270125Y825500D02*
G54D44*
D03*
X2320925Y825500D02*
G54D44*
D03*
X2270125Y1204912D02*
G54D44*
D03*
X2320925Y1204912D02*
G54D44*
D03*
X2409825Y1250950D02*
G54D45*
D03*
X2409825Y1190625D02*
G54D45*
D03*
X2363788Y1222375D02*
G54D45*
D03*
X328612Y1116012D02*
G54D46*
D03*
X717550Y1117600D02*
G54D46*
D03*
X282575Y1082675D02*
G54D32*
D03*
X282575Y1031875D02*
G54D32*
D03*
X638175Y917575D02*
G54D11*
D03*
G54D27*
X2225675Y1090612D02*
X2241550Y1074738D01*
X2241550Y1035050D01*
X2273300Y1003300D01*
X2273300Y981075D01*
X2270125Y977900D01*
X2270125Y969962D01*
X2276475Y962025D01*
X2276475Y835025D01*
X2270125Y825500D01*
X2359025Y679450D02*
G54D11*
D03*
G36*
X2330450Y573087D02*
X2330450Y585788D01*
X2346325Y601662D01*
X2346325Y747712D01*
X2338388Y755650D01*
X2338388Y758825D01*
X2335212Y762000D01*
X2346325Y762000D01*
X2359025Y749300D01*
X2359025Y690562D01*
X2370138Y679450D01*
X2370138Y633412D01*
X2359025Y622300D01*
X2359025Y601662D01*
X2357438Y600075D01*
X2355850Y598488D01*
X2330450Y573087D01*
G37*
G54D15*
X2330450Y573087D02*
X2330450Y585788D01*
X2346325Y601662D01*
X2346325Y747712D01*
X2338388Y755650D01*
X2338388Y758825D01*
X2335212Y762000D01*
X2346325Y762000D01*
X2359025Y749300D01*
X2359025Y690562D01*
X2370138Y679450D01*
X2370138Y633412D01*
X2359025Y622300D01*
X2359025Y601662D01*
X2357438Y600075D01*
X2355850Y598488D01*
X2330450Y573087D01*
X2600325Y209550D02*
G54D11*
D03*
G54D17*
X2581275Y279400D02*
X2590800Y279400D01*
X2617788Y252412D01*
X2617788Y214312D01*
X2613025Y209550D01*
X2600325Y209550D01*
G54D17*
X2669560Y105154D02*
X2669560Y135910D01*
X2682875Y149225D01*
X2682875Y203204D01*
X2708280Y228609D01*
X2697153Y228609D01*
X2682875Y242888D01*
X2682875Y298450D01*
X2689225Y304800D01*
X2689225Y330200D01*
X2705688Y350249D01*
X2714726Y350249D01*
X2705688Y350249D01*
X2689225Y366712D01*
X2689225Y481012D01*
X2714625Y506412D01*
X2714625Y631825D01*
X2679700Y666750D01*
X2670175Y666750D01*
G36*
X2682875Y242888D02*
X2682875Y203204D01*
X2708280Y228609D01*
X2697153Y228609D01*
X2682875Y242888D01*
G37*
G54D17*
X2682875Y242888D02*
X2682875Y203204D01*
X2708280Y228609D01*
X2697153Y228609D01*
X2682875Y242888D01*
G36*
X2689225Y330200D02*
X2689225Y366712D01*
X2705688Y350249D01*
X2714726Y350249D01*
X2709274Y350249D01*
X2689225Y330200D01*
G37*
G54D17*
X2689225Y330200D02*
X2689225Y366712D01*
X2705688Y350249D01*
X2714726Y350249D01*
X2709274Y350249D01*
X2689225Y330200D01*
G36*
X1387474Y265112D02*
X1377950Y265112D01*
X1374775Y261938D01*
X1374775Y255588D01*
X1362075Y242888D01*
X1362075Y77788D01*
X1408112Y77788D01*
X1408112Y115888D01*
X1398588Y125412D01*
X1398588Y261938D01*
X1395412Y265112D01*
X1387474Y265112D01*
G37*
G54D47*
X1387474Y265112D02*
X1377950Y265112D01*
X1374775Y261938D01*
X1374775Y255588D01*
X1362075Y242888D01*
X1362075Y77788D01*
X1408112Y77788D01*
X1408112Y115888D01*
X1398588Y125412D01*
X1398588Y261938D01*
X1395412Y265112D01*
X1387474Y265112D01*
G36*
X879474Y285750D02*
X874712Y285750D01*
X873125Y284162D01*
X873125Y77788D01*
X903288Y77788D01*
X903288Y215900D01*
X890588Y228600D01*
X890588Y282575D01*
X887412Y285750D01*
X879474Y285750D01*
G37*
G54D47*
X879474Y285750D02*
X874712Y285750D01*
X873125Y284162D01*
X873125Y77788D01*
X903288Y77788D01*
X903288Y215900D01*
X890588Y228600D01*
X890588Y282575D01*
X887412Y285750D01*
X879474Y285750D01*
G36*
X758824Y265112D02*
X750888Y265112D01*
X742950Y257175D01*
X742950Y77788D01*
X776288Y77788D01*
X776288Y214312D01*
X766762Y223838D01*
X766762Y265112D01*
X758824Y265112D01*
G37*
G54D47*
X758824Y265112D02*
X750888Y265112D01*
X742950Y257175D01*
X742950Y77788D01*
X776288Y77788D01*
X776288Y214312D01*
X766762Y223838D01*
X766762Y265112D01*
X758824Y265112D01*
G36*
X538162Y265112D02*
X538162Y260350D01*
X549275Y249238D01*
X549275Y114300D01*
X574675Y114300D01*
X574675Y273050D01*
X581025Y279400D01*
X596900Y279400D01*
X601662Y274638D01*
X601662Y71438D01*
X631825Y71438D01*
X631825Y201612D01*
X612775Y220662D01*
X612775Y287338D01*
X590550Y309562D01*
X576262Y309562D01*
X569912Y315912D01*
X569912Y339725D01*
X573088Y342900D01*
X655638Y342900D01*
X661988Y349250D01*
X661988Y358775D01*
X554038Y357188D01*
X549275Y354012D01*
X549275Y317500D01*
X530225Y298450D01*
X530225Y268288D01*
X534988Y268288D01*
X538162Y265112D01*
G37*
G54D47*
X538162Y265112D02*
X538162Y260350D01*
X549275Y249238D01*
X549275Y114300D01*
X574675Y114300D01*
X574675Y273050D01*
X581025Y279400D01*
X596900Y279400D01*
X601662Y274638D01*
X601662Y71438D01*
X631825Y71438D01*
X631825Y201612D01*
X612775Y220662D01*
X612775Y287338D01*
X590550Y309562D01*
X576262Y309562D01*
X569912Y315912D01*
X569912Y339725D01*
X573088Y342900D01*
X655638Y342900D01*
X661988Y349250D01*
X661988Y358775D01*
X554038Y357188D01*
X549275Y354012D01*
X549275Y317500D01*
X530225Y298450D01*
X530225Y268288D01*
X534988Y268288D01*
X538162Y265112D01*
X561975Y361950D02*
G54D11*
D03*
X422275Y419100D02*
G54D11*
D03*
X217488Y603250D02*
G54D28*
D03*
X266700Y549275D02*
G54D28*
D03*
X225425Y493712D02*
G54D28*
D03*
X354012Y506412D02*
G54D11*
D03*
X144462Y506412D02*
G54D11*
D03*
X409575Y703262D02*
G54D11*
D03*
X676275Y1222375D02*
G54D11*
D03*
X327025Y955675D02*
G54D11*
D03*
X434975Y741362D02*
G54D11*
D03*
X669925Y584200D02*
G54D11*
D03*
X828675Y584200D02*
G54D11*
D03*
X657225Y493712D02*
G54D11*
D03*
X735012Y493712D02*
G54D11*
D03*
X871538Y493712D02*
G54D11*
D03*
X992188Y476250D02*
G54D11*
D03*
X1012825Y735012D02*
G54D11*
D03*
X954088Y919162D02*
G54D11*
D03*
X1017588Y931862D02*
G54D11*
D03*
X973138Y938212D02*
G54D11*
D03*
X979488Y804862D02*
G54D11*
D03*
X979488Y873125D02*
G54D11*
D03*
X947738Y754062D02*
G54D11*
D03*
X582612Y323850D02*
G54D11*
D03*
X2619375Y279400D02*
G54D11*
D03*
X2670175Y331788D02*
G54D11*
D03*
X2581275Y312738D02*
G54D11*
D03*
X2613025Y387350D02*
G54D11*
D03*
X2638425Y436562D02*
G54D11*
D03*
X2487612Y423862D02*
G54D11*
D03*
X2574925Y457200D02*
G54D11*
D03*
X2638425Y476250D02*
G54D11*
D03*
X2278062Y508000D02*
G54D11*
D03*
X2316162Y488950D02*
G54D11*
D03*
X2365375Y528638D02*
G54D11*
D03*
X2403475Y565150D02*
G54D11*
D03*
X2462212Y528638D02*
G54D11*
D03*
X2479675Y584200D02*
G54D11*
D03*
X2443162Y615950D02*
G54D11*
D03*
X2695575Y615950D02*
G54D11*
D03*
X2555875Y819150D02*
G54D11*
D03*
X2517775Y973138D02*
G54D11*
D03*
X2536825Y998538D02*
G54D11*
D03*
X2586038Y1047750D02*
G54D11*
D03*
X2568575Y1111250D02*
G54D11*
D03*
X2346325Y1122362D02*
G54D11*
D03*
X2295525Y1143000D02*
G54D11*
D03*
X633412Y1044575D02*
G54D11*
D03*
X814388Y1044575D02*
G54D11*
D03*
G36*
X379412Y296862D02*
X373062Y290512D01*
X373062Y250825D01*
X350838Y228600D01*
X350838Y96838D01*
X396875Y96838D01*
X396875Y242888D01*
X385762Y254000D01*
X385762Y292100D01*
X384176Y292100D01*
X379412Y296862D01*
G37*
G54D47*
X379412Y296862D02*
X373062Y290512D01*
X373062Y250825D01*
X350838Y228600D01*
X350838Y96838D01*
X396875Y96838D01*
X396875Y242888D01*
X385762Y254000D01*
X385762Y292100D01*
X384176Y292100D01*
X379412Y296862D01*
G36*
X328188Y638738D02*
X328188Y640925D01*
X333375Y646112D01*
X333375Y661988D01*
X331788Y663575D01*
X312738Y663575D01*
X312738Y682625D01*
X292100Y682625D01*
X282575Y673100D01*
X282575Y635000D01*
X266700Y619125D01*
X188912Y619125D01*
X188912Y531812D01*
X203200Y517525D01*
X203200Y496888D01*
X195262Y488950D01*
X195262Y331788D01*
X220662Y306388D01*
X220662Y96838D01*
X269875Y96838D01*
X269875Y274638D01*
X285750Y290512D01*
X285750Y285750D01*
X296862Y274638D01*
X296862Y139700D01*
X320675Y139700D01*
X320675Y311150D01*
X315912Y315912D01*
X298450Y315912D01*
X282575Y331788D01*
X282575Y468312D01*
X277812Y473075D01*
X277812Y509588D01*
X269875Y517525D01*
X269875Y565150D01*
X309562Y604838D01*
X309562Y620112D01*
X328188Y638738D01*
G37*
G54D47*
X328188Y638738D02*
X328188Y640925D01*
X333375Y646112D01*
X333375Y661988D01*
X331788Y663575D01*
X312738Y663575D01*
X312738Y682625D01*
X292100Y682625D01*
X282575Y673100D01*
X282575Y635000D01*
X266700Y619125D01*
X188912Y619125D01*
X188912Y531812D01*
X203200Y517525D01*
X203200Y496888D01*
X195262Y488950D01*
X195262Y331788D01*
X220662Y306388D01*
X220662Y96838D01*
X269875Y96838D01*
X269875Y274638D01*
X285750Y290512D01*
X285750Y285750D01*
X296862Y274638D01*
X296862Y139700D01*
X320675Y139700D01*
X320675Y311150D01*
X315912Y315912D01*
X298450Y315912D01*
X282575Y331788D01*
X282575Y468312D01*
X277812Y473075D01*
X277812Y509588D01*
X269875Y517525D01*
X269875Y565150D01*
X309562Y604838D01*
X309562Y620112D01*
X328188Y638738D01*
G54D47*
G75*
G01X334962Y1116012D02*
G03X334962Y1116012I-6350J0D01*
G01*
G54D23*
G75*
G01X357188Y1116012D02*
G03X357188Y1116012I-28576J0D01*
G01*
G54D23*
G75*
G01X746125Y1117600D02*
G03X746125Y1117600I-28575J0D01*
G01*
G54D48*
X328612Y1144588D02*
X328612Y1116012D01*
X328612Y1087438D01*
G54D48*
X717550Y1146175D02*
X717550Y1117600D01*
X717550Y1089025D01*
X719138Y1087438D01*
G36*
X765175Y1120775D02*
X765175Y1125538D01*
X725488Y1165225D01*
X725488Y1266825D01*
X315912Y1266825D01*
X315912Y1143000D01*
X339725Y1143000D01*
X358775Y1123950D01*
X358775Y1117600D01*
X365125Y1117600D01*
X365125Y1138238D01*
X608012Y1138238D01*
X608012Y1116012D01*
X688975Y1116012D01*
X690562Y1114425D01*
X690562Y1130300D01*
X704850Y1144588D01*
X728662Y1144588D01*
X747712Y1125538D01*
X747712Y1119188D01*
X744538Y1116012D01*
X760412Y1116012D01*
X765175Y1120775D01*
G37*
G54D47*
X765175Y1120775D02*
X765175Y1125538D01*
X725488Y1165225D01*
X725488Y1266825D01*
X315912Y1266825D01*
X315912Y1143000D01*
X339725Y1143000D01*
X358775Y1123950D01*
X358775Y1117600D01*
X365125Y1117600D01*
X365125Y1138238D01*
X608012Y1138238D01*
X608012Y1116012D01*
X688975Y1116012D01*
X690562Y1114425D01*
X690562Y1130300D01*
X704850Y1144588D01*
X728662Y1144588D01*
X747712Y1125538D01*
X747712Y1119188D01*
X744538Y1116012D01*
X760412Y1116012D01*
X765175Y1120775D01*
G36*
X420688Y544512D02*
X420688Y546100D01*
X415925Y550862D01*
X395288Y550862D01*
X390525Y555625D01*
X390525Y658812D01*
X398462Y666750D01*
X412750Y666750D01*
X415925Y669925D01*
X415925Y744538D01*
X438150Y766762D01*
X479425Y766762D01*
X490538Y777875D01*
X490538Y887412D01*
X498475Y895350D01*
X498475Y922338D01*
X452438Y922338D01*
X452438Y952500D01*
X498475Y952500D01*
X498475Y1038225D01*
X365125Y1038225D01*
X365125Y1117600D01*
X358775Y1117600D01*
X358775Y1109662D01*
X338138Y1089025D01*
X322262Y1089025D01*
X322262Y977900D01*
X330200Y969962D01*
X346075Y969962D01*
X346075Y925512D01*
X384175Y887412D01*
X449262Y887412D01*
X468312Y868362D01*
X468312Y796925D01*
X463550Y792162D01*
X433388Y792162D01*
X433388Y809625D01*
X388938Y809625D01*
X373062Y793750D01*
X373062Y720725D01*
X354012Y701675D01*
X354012Y569912D01*
X365125Y558800D01*
X365125Y517525D01*
X404812Y477838D01*
X404812Y396875D01*
X436562Y365125D01*
X436562Y306388D01*
X471488Y306388D01*
X471488Y449262D01*
X447675Y473075D01*
X447675Y488950D01*
X422275Y514350D01*
X422275Y542925D01*
X420688Y544512D01*
G37*
G54D47*
X420688Y544512D02*
X420688Y546100D01*
X415925Y550862D01*
X395288Y550862D01*
X390525Y555625D01*
X390525Y658812D01*
X398462Y666750D01*
X412750Y666750D01*
X415925Y669925D01*
X415925Y744538D01*
X438150Y766762D01*
X479425Y766762D01*
X490538Y777875D01*
X490538Y887412D01*
X498475Y895350D01*
X498475Y922338D01*
X452438Y922338D01*
X452438Y952500D01*
X498475Y952500D01*
X498475Y1038225D01*
X365125Y1038225D01*
X365125Y1117600D01*
X358775Y1117600D01*
X358775Y1109662D01*
X338138Y1089025D01*
X322262Y1089025D01*
X322262Y977900D01*
X330200Y969962D01*
X346075Y969962D01*
X346075Y925512D01*
X384175Y887412D01*
X449262Y887412D01*
X468312Y868362D01*
X468312Y796925D01*
X463550Y792162D01*
X433388Y792162D01*
X433388Y809625D01*
X388938Y809625D01*
X373062Y793750D01*
X373062Y720725D01*
X354012Y701675D01*
X354012Y569912D01*
X365125Y558800D01*
X365125Y517525D01*
X404812Y477838D01*
X404812Y396875D01*
X436562Y365125D01*
X436562Y306388D01*
X471488Y306388D01*
X471488Y449262D01*
X447675Y473075D01*
X447675Y488950D01*
X422275Y514350D01*
X422275Y542925D01*
X420688Y544512D01*
G54D17*
X853973Y400285D02*
X853973Y439636D01*
X871538Y457200D01*
X871538Y493712D01*
G36*
X947738Y754062D02*
X947738Y755650D01*
X950912Y760412D01*
X954088Y760412D01*
X960438Y754062D01*
X973138Y754062D01*
X1016000Y711200D01*
X1016000Y584200D01*
X1003300Y571500D01*
X1003300Y468312D01*
X1023938Y447675D01*
X1023938Y328612D01*
X981075Y285750D01*
X955675Y285750D01*
X955675Y444500D01*
X979488Y468312D01*
X979488Y565150D01*
X1004888Y590550D01*
X1004888Y647700D01*
X981075Y671512D01*
X981075Y684212D01*
X968375Y696912D01*
X968375Y723900D01*
X946150Y746125D01*
X946150Y752475D01*
X947738Y754062D01*
G37*
G54D47*
X947738Y754062D02*
X947738Y755650D01*
X950912Y760412D01*
X954088Y760412D01*
X960438Y754062D01*
X973138Y754062D01*
X1016000Y711200D01*
X1016000Y584200D01*
X1003300Y571500D01*
X1003300Y468312D01*
X1023938Y447675D01*
X1023938Y328612D01*
X981075Y285750D01*
X955675Y285750D01*
X955675Y444500D01*
X979488Y468312D01*
X979488Y565150D01*
X1004888Y590550D01*
X1004888Y647700D01*
X981075Y671512D01*
X981075Y684212D01*
X968375Y696912D01*
X968375Y723900D01*
X946150Y746125D01*
X946150Y752475D01*
X947738Y754062D01*
G54D17*
X1041400Y1258888D02*
X1104900Y1258888D01*
X1125538Y1279525D01*
X1239837Y1279525D01*
X1246188Y1273175D01*
G54D17*
X1068388Y1190625D02*
X1069975Y1190625D01*
X1087438Y1208088D01*
X1087438Y1241425D01*
X1104900Y1258888D01*
G36*
X49212Y446088D02*
X49212Y436562D01*
X39688Y427038D01*
X39688Y309562D01*
X49212Y300038D01*
X61912Y312738D01*
X61912Y433388D01*
X49212Y446088D01*
G37*
G54D47*
X49212Y446088D02*
X49212Y436562D01*
X39688Y427038D01*
X39688Y309562D01*
X49212Y300038D01*
X61912Y312738D01*
X61912Y433388D01*
X49212Y446088D01*
G36*
X500062Y487362D02*
X517525Y487362D01*
X525462Y495300D01*
X525462Y530225D01*
X531812Y536575D01*
X539750Y536575D01*
X547688Y544512D01*
X547688Y592138D01*
X601662Y646112D01*
X622300Y646112D01*
X622300Y647700D01*
X627062Y652462D01*
X627062Y654050D01*
X622300Y658812D01*
X614362Y658812D01*
X609600Y663575D01*
X609600Y801688D01*
X606425Y804862D01*
X606425Y881062D01*
X625475Y900112D01*
X644525Y900112D01*
X644525Y1116012D01*
X608012Y1116012D01*
X608012Y1038225D01*
X498475Y1038225D01*
X498475Y895350D01*
X514350Y895350D01*
X523875Y885825D01*
X523875Y820738D01*
X536575Y808038D01*
X536575Y784225D01*
X531812Y779462D01*
X531812Y673100D01*
X523875Y665162D01*
X476250Y665162D01*
X458788Y682625D01*
X458788Y681037D01*
X454025Y676275D01*
X449262Y676275D01*
X446088Y673100D01*
X446088Y652462D01*
X454025Y644525D01*
X485775Y644525D01*
X493712Y636588D01*
X493712Y604838D01*
X487362Y598488D01*
X487362Y585788D01*
X493712Y579438D01*
X493712Y550862D01*
X473075Y530225D01*
X473075Y488950D01*
X477838Y484188D01*
X496888Y484188D01*
X500062Y487362D01*
G37*
G54D47*
X500062Y487362D02*
X517525Y487362D01*
X525462Y495300D01*
X525462Y530225D01*
X531812Y536575D01*
X539750Y536575D01*
X547688Y544512D01*
X547688Y592138D01*
X601662Y646112D01*
X622300Y646112D01*
X622300Y647700D01*
X627062Y652462D01*
X627062Y654050D01*
X622300Y658812D01*
X614362Y658812D01*
X609600Y663575D01*
X609600Y801688D01*
X606425Y804862D01*
X606425Y881062D01*
X625475Y900112D01*
X644525Y900112D01*
X644525Y1116012D01*
X608012Y1116012D01*
X608012Y1038225D01*
X498475Y1038225D01*
X498475Y895350D01*
X514350Y895350D01*
X523875Y885825D01*
X523875Y820738D01*
X536575Y808038D01*
X536575Y784225D01*
X531812Y779462D01*
X531812Y673100D01*
X523875Y665162D01*
X476250Y665162D01*
X458788Y682625D01*
X458788Y681037D01*
X454025Y676275D01*
X449262Y676275D01*
X446088Y673100D01*
X446088Y652462D01*
X454025Y644525D01*
X485775Y644525D01*
X493712Y636588D01*
X493712Y604838D01*
X487362Y598488D01*
X487362Y585788D01*
X493712Y579438D01*
X493712Y550862D01*
X473075Y530225D01*
X473075Y488950D01*
X477838Y484188D01*
X496888Y484188D01*
X500062Y487362D01*
G36*
X752475Y703262D02*
X752475Y708025D01*
X720725Y739775D01*
X685800Y739775D01*
X679450Y746125D01*
X679450Y766762D01*
X685800Y773112D01*
X704850Y773112D01*
X704850Y855662D01*
X695325Y865188D01*
X684212Y865188D01*
X676275Y873125D01*
X676275Y884238D01*
X673100Y887412D01*
X673100Y935038D01*
X674688Y936625D01*
X693738Y936625D01*
X700088Y942975D01*
X700088Y962025D01*
X708025Y969962D01*
X733425Y969962D01*
X758825Y995362D01*
X901700Y995362D01*
X901700Y1076325D01*
X762000Y1076325D01*
X750888Y1087438D01*
X750888Y1106488D01*
X765175Y1120775D01*
X749300Y1120775D01*
X747712Y1119188D01*
X747712Y1109662D01*
X728662Y1090612D01*
X704850Y1090612D01*
X693738Y1101725D01*
X693738Y1108075D01*
X685800Y1116012D01*
X644525Y1116012D01*
X644525Y858838D01*
X663575Y839788D01*
X663575Y723900D01*
X646112Y706438D01*
X646112Y673100D01*
X631825Y658812D01*
X631825Y657225D01*
X627062Y652462D01*
X627062Y650875D01*
X631825Y646112D01*
X639762Y646112D01*
X644525Y641350D01*
X644525Y612775D01*
X638175Y606425D01*
X627062Y606425D01*
X601662Y581025D01*
X601662Y515938D01*
X593725Y508000D01*
X574675Y508000D01*
X569912Y503238D01*
X569912Y442912D01*
X557212Y430212D01*
X557212Y366712D01*
X561975Y361950D01*
X563562Y361950D01*
X568325Y357188D01*
X660400Y357188D01*
X661988Y358775D01*
X592138Y358775D01*
X592138Y404812D01*
X600075Y412750D01*
X614362Y412750D01*
X620712Y406400D01*
X620712Y360362D01*
X660400Y360362D01*
X661988Y358775D01*
X661988Y468312D01*
X636588Y493712D01*
X636588Y555625D01*
X655638Y574675D01*
X655638Y590550D01*
X661988Y596900D01*
X731838Y596900D01*
X731838Y674688D01*
X752475Y695325D01*
X752475Y703262D01*
G37*
G54D47*
X752475Y703262D02*
X752475Y708025D01*
X720725Y739775D01*
X685800Y739775D01*
X679450Y746125D01*
X679450Y766762D01*
X685800Y773112D01*
X704850Y773112D01*
X704850Y855662D01*
X695325Y865188D01*
X684212Y865188D01*
X676275Y873125D01*
X676275Y884238D01*
X673100Y887412D01*
X673100Y935038D01*
X674688Y936625D01*
X693738Y936625D01*
X700088Y942975D01*
X700088Y962025D01*
X708025Y969962D01*
X733425Y969962D01*
X758825Y995362D01*
X901700Y995362D01*
X901700Y1076325D01*
X762000Y1076325D01*
X750888Y1087438D01*
X750888Y1106488D01*
X765175Y1120775D01*
X749300Y1120775D01*
X747712Y1119188D01*
X747712Y1109662D01*
X728662Y1090612D01*
X704850Y1090612D01*
X693738Y1101725D01*
X693738Y1108075D01*
X685800Y1116012D01*
X644525Y1116012D01*
X644525Y858838D01*
X663575Y839788D01*
X663575Y723900D01*
X646112Y706438D01*
X646112Y673100D01*
X631825Y658812D01*
X631825Y657225D01*
X627062Y652462D01*
X627062Y650875D01*
X631825Y646112D01*
X639762Y646112D01*
X644525Y641350D01*
X644525Y612775D01*
X638175Y606425D01*
X627062Y606425D01*
X601662Y581025D01*
X601662Y515938D01*
X593725Y508000D01*
X574675Y508000D01*
X569912Y503238D01*
X569912Y442912D01*
X557212Y430212D01*
X557212Y366712D01*
X561975Y361950D01*
X563562Y361950D01*
X568325Y357188D01*
X660400Y357188D01*
X661988Y358775D01*
X592138Y358775D01*
X592138Y404812D01*
X600075Y412750D01*
X614362Y412750D01*
X620712Y406400D01*
X620712Y360362D01*
X660400Y360362D01*
X661988Y358775D01*
X661988Y468312D01*
X636588Y493712D01*
X636588Y555625D01*
X655638Y574675D01*
X655638Y590550D01*
X661988Y596900D01*
X731838Y596900D01*
X731838Y674688D01*
X752475Y695325D01*
X752475Y703262D01*
G36*
X2208212Y1079500D02*
X2208212Y1076324D01*
X2205038Y1073150D01*
X2206625Y1071562D01*
X2206625Y874712D01*
X2200275Y868362D01*
X2200275Y854075D01*
X2230438Y854075D01*
X2238375Y862012D01*
X2238375Y893762D01*
X2219325Y912812D01*
X2219325Y1071562D01*
X2214562Y1076325D01*
X2211387Y1076325D01*
X2208212Y1079500D01*
G37*
G54D47*
X2208212Y1079500D02*
X2208212Y1076324D01*
X2205038Y1073150D01*
X2206625Y1071562D01*
X2206625Y874712D01*
X2200275Y868362D01*
X2200275Y854075D01*
X2230438Y854075D01*
X2238375Y862012D01*
X2238375Y893762D01*
X2219325Y912812D01*
X2219325Y1071562D01*
X2214562Y1076325D01*
X2211387Y1076325D01*
X2208212Y1079500D01*
G54D17*
X2417762Y90488D02*
X2451100Y123825D01*
X2451100Y173038D01*
X2466975Y188912D01*
X2466975Y360362D01*
X2487612Y381000D01*
X2487612Y423862D01*
X2447925Y423862D01*
X2435225Y436562D01*
X2435225Y471488D01*
X2481262Y517525D01*
X2481262Y554038D01*
X2525712Y598488D01*
X2525712Y690562D01*
X2524125Y692150D01*
X2524125Y695325D01*
X2547938Y719138D01*
X2561655Y719138D01*
X2561724Y719206D01*
X2561724Y719639D01*
X2555875Y725488D01*
X2555875Y819150D01*
G36*
X2561724Y719206D02*
X2540068Y719206D01*
X2540000Y719138D01*
X2555875Y735012D01*
X2555875Y725055D01*
X2561724Y719206D01*
G37*
G54D47*
X2561724Y719206D02*
X2540068Y719206D01*
X2540000Y719138D01*
X2555875Y735012D01*
X2555875Y725055D01*
X2561724Y719206D01*
G54D17*
X2568575Y539750D02*
X2517775Y590550D01*
G36*
X2538412Y569912D02*
X2538412Y590550D01*
X2532062Y596900D01*
X2524125Y596900D01*
X2500312Y573088D01*
X2498725Y573088D01*
X2495550Y569912D01*
X2538412Y569912D01*
G37*
G54D47*
X2538412Y569912D02*
X2538412Y590550D01*
X2532062Y596900D01*
X2524125Y596900D01*
X2500312Y573088D01*
X2498725Y573088D01*
X2495550Y569912D01*
X2538412Y569912D01*
G36*
X184150Y112712D02*
X149225Y112712D01*
X139700Y122238D01*
X139700Y223838D01*
X152400Y236538D01*
X152400Y269875D01*
X139700Y282575D01*
X139700Y501650D01*
X144462Y506412D01*
X150812Y500062D01*
X150812Y415925D01*
X161925Y404812D01*
X161925Y328612D01*
X168275Y322262D01*
X168275Y220662D01*
X188912Y200025D01*
X188912Y117475D01*
X184150Y112712D01*
G37*
G54D26*
X184150Y112712D02*
X149225Y112712D01*
X139700Y122238D01*
X139700Y223838D01*
X152400Y236538D01*
X152400Y269875D01*
X139700Y282575D01*
X139700Y501650D01*
X144462Y506412D01*
X150812Y500062D01*
X150812Y415925D01*
X161925Y404812D01*
X161925Y328612D01*
X168275Y322262D01*
X168275Y220662D01*
X188912Y200025D01*
X188912Y117475D01*
X184150Y112712D01*
G54D17*
X373062Y487362D02*
X354012Y506412D01*
G54D17*
X304800Y574675D02*
X285750Y555625D01*
X285750Y525462D01*
X304800Y506412D01*
G54D17*
X404388Y638738D02*
X405375Y638738D01*
X430212Y663575D01*
X430212Y736600D01*
X434975Y741362D01*
G54D17*
X504825Y879475D02*
X504825Y854075D01*
X504825Y828675D01*
G54D17*
X327025Y955675D02*
X284162Y955675D01*
X284162Y1030288D01*
X282575Y1031875D01*
G54D17*
X1019175Y1095375D02*
X923925Y1000125D01*
X923925Y957262D01*
X930275Y950912D01*
X944562Y950912D01*
X954088Y941388D01*
X954088Y919162D01*
G54D17*
X968375Y603250D02*
X947738Y623888D01*
X947738Y719138D01*
X930275Y736600D01*
X930275Y765175D01*
X938212Y773112D01*
X944562Y773112D01*
X962025Y790575D01*
X962025Y833438D01*
X954088Y841375D01*
X954088Y919162D01*
G54D17*
X853973Y603485D02*
X853973Y463448D01*
X815975Y425450D01*
X815975Y373062D01*
X815975Y347662D01*
X815975Y322262D01*
X858838Y279400D01*
X858838Y104775D01*
X841375Y87312D01*
G54D17*
X2715711Y463618D02*
X2715711Y376634D01*
X2714726Y375649D01*
G36*
X2714726Y375649D02*
X2715213Y375649D01*
X2728912Y361950D01*
X2728912Y306388D01*
X2709862Y287338D01*
X2709862Y280987D01*
X2708275Y279400D01*
X2708275Y276225D01*
X2714625Y269875D01*
X2738438Y269875D01*
X2743200Y274638D01*
X2743200Y373062D01*
X2733675Y382588D01*
X2724150Y382588D01*
X2720975Y385762D01*
X2720975Y381898D01*
X2714726Y375649D01*
G37*
G54D47*
X2714726Y375649D02*
X2715213Y375649D01*
X2728912Y361950D01*
X2728912Y306388D01*
X2709862Y287338D01*
X2709862Y280987D01*
X2708275Y279400D01*
X2708275Y276225D01*
X2714625Y269875D01*
X2738438Y269875D01*
X2743200Y274638D01*
X2743200Y373062D01*
X2733675Y382588D01*
X2724150Y382588D01*
X2720975Y385762D01*
X2720975Y381898D01*
X2714726Y375649D01*
G54D17*
X2530475Y1187450D02*
X2530475Y1184275D01*
X2536825Y1177925D01*
X2536825Y1130300D01*
X2517774Y1111250D01*
X2517775Y1022350D01*
X2517775Y973138D01*
X2517775Y831850D01*
X2479675Y793750D01*
X2476500Y793750D01*
X2443162Y760412D01*
X2443162Y617538D01*
X2443162Y615950D01*
G54D17*
X2695575Y615950D02*
X2695575Y517525D01*
X2670175Y492125D01*
X2670175Y331788D01*
G54D17*
X2536825Y998538D02*
X2536825Y1106488D01*
X2562225Y1131888D01*
X2562225Y1148917D01*
X2561724Y1149419D01*
X2562294Y1149419D01*
X2586038Y1173162D01*
X2586038Y1258888D01*
X2568575Y1276350D01*
G54D17*
X2320925Y977900D02*
X2320925Y825500D01*
G54D17*
X2270125Y1054100D02*
X2270125Y1204912D01*
G54D17*
X2320925Y1054100D02*
X2320925Y1204912D01*
G36*
X2409825Y1190625D02*
X2409825Y1200150D01*
X2433638Y1223962D01*
X2568575Y1223962D01*
X2573338Y1219200D01*
X2573338Y1192212D01*
X2568575Y1187450D01*
X2555875Y1187450D01*
X2541588Y1201738D01*
X2516188Y1201738D01*
X2495550Y1181100D01*
X2495550Y1152525D01*
X2492375Y1149350D01*
X2486025Y1143000D01*
X2457450Y1143000D01*
X2409825Y1190625D01*
G37*
G54D47*
X2409825Y1190625D02*
X2409825Y1200150D01*
X2433638Y1223962D01*
X2568575Y1223962D01*
X2573338Y1219200D01*
X2573338Y1192212D01*
X2568575Y1187450D01*
X2555875Y1187450D01*
X2541588Y1201738D01*
X2516188Y1201738D01*
X2495550Y1181100D01*
X2495550Y1152525D01*
X2492375Y1149350D01*
X2486025Y1143000D01*
X2457450Y1143000D01*
X2409825Y1190625D01*
G36*
X2320925Y1204912D02*
X2320925Y1208088D01*
X2328862Y1216025D01*
X2357438Y1216025D01*
X2363788Y1222375D01*
X2339975Y1216025D01*
X2339975Y1246188D01*
X2376488Y1282700D01*
X2535238Y1282700D01*
X2535238Y1244600D01*
X2528888Y1238250D01*
X2413000Y1238250D01*
X2384425Y1209675D01*
X2376488Y1209675D01*
X2366962Y1200150D01*
X2325688Y1200150D01*
X2320925Y1204912D01*
G37*
G54D47*
X2320925Y1204912D02*
X2320925Y1208088D01*
X2328862Y1216025D01*
X2357438Y1216025D01*
X2363788Y1222375D01*
X2339975Y1216025D01*
X2339975Y1246188D01*
X2376488Y1282700D01*
X2535238Y1282700D01*
X2535238Y1244600D01*
X2528888Y1238250D01*
X2413000Y1238250D01*
X2384425Y1209675D01*
X2376488Y1209675D01*
X2366962Y1200150D01*
X2325688Y1200150D01*
X2320925Y1204912D01*
G54D17*
X2619375Y539750D02*
X2595562Y515938D01*
X2595562Y360362D01*
X2581275Y346075D01*
X2581275Y312738D01*
G54D17*
X2479675Y704850D02*
X2479675Y584200D01*
G54D17*
X2517719Y729933D02*
X2519045Y729933D01*
X2536825Y747712D01*
X2536825Y950912D01*
X2568575Y982662D01*
X2568575Y1109662D01*
X2568575Y1111250D01*
G54D17*
X2393950Y793750D02*
X2393950Y1017588D01*
X2424112Y1047750D01*
X2466975Y1047750D01*
G54D17*
X2574925Y692150D02*
X2576512Y692150D01*
X2581275Y696912D01*
X2581275Y796925D01*
X2586038Y801688D01*
X2586038Y1047750D01*
G54D17*
X2670175Y539750D02*
X2670175Y641350D01*
X2644775Y666750D01*
G54D17*
X2644775Y539750D02*
X2643188Y539750D01*
X2638425Y534988D01*
X2638425Y476250D01*
G54D17*
X2613025Y387350D02*
X2613025Y450850D01*
X2638425Y476250D01*
G54D17*
X2543187Y387355D02*
X2543187Y201625D01*
X2525712Y184150D01*
G54D17*
X2360612Y177800D02*
X2360612Y176212D01*
X2268538Y84138D01*
X2249488Y84138D01*
X2233612Y68262D01*
X2233612Y42862D01*
X2224088Y33338D01*
X1909762Y33338D01*
X1903412Y26988D01*
X1798638Y26988D01*
X1793875Y31750D01*
X677862Y31750D01*
X642938Y66675D01*
X642938Y214312D01*
X625475Y231775D01*
X625475Y295275D01*
X596900Y323850D01*
X582612Y323850D01*
G54D17*
X2278062Y508000D02*
X2278062Y555625D01*
X2284412Y561975D01*
X2284412Y587375D01*
X2295525Y598488D01*
X2295525Y1143000D01*
G54D17*
X760412Y330200D02*
X760412Y403225D01*
X735012Y428625D01*
X735012Y442912D01*
G54D17*
X735012Y442912D02*
X735012Y493712D01*
G54D17*
X657225Y493712D02*
X657225Y515938D01*
X649288Y523875D01*
X649288Y547688D01*
X669925Y568325D01*
X669925Y584200D01*
G54D17*
X828675Y728662D02*
X830262Y728662D01*
X849312Y709612D01*
X849312Y681038D01*
X835025Y666750D01*
X835025Y590550D01*
X828675Y584200D01*
G54D17*
X1012825Y735012D02*
X1012825Y777875D01*
X1000125Y790575D01*
X1000125Y941388D01*
X1009650Y950912D01*
X1022350Y950912D01*
X1036638Y936625D01*
X1058862Y936625D01*
X1068388Y946150D01*
X1068388Y1157288D01*
X1101725Y1190625D01*
X1131888Y1190625D01*
X1157288Y1165225D01*
X1157288Y1249362D01*
X1166812Y1258888D01*
X1219200Y1258888D01*
G36*
X973138Y938212D02*
X969962Y938212D01*
X966788Y935038D01*
X966788Y858838D01*
X974725Y850900D01*
X974725Y809625D01*
X979488Y804862D01*
X981075Y804862D01*
X985838Y809625D01*
X985838Y933450D01*
X981075Y938212D01*
X973138Y938212D01*
G37*
G54D47*
X973138Y938212D02*
X969962Y938212D01*
X966788Y935038D01*
X966788Y858838D01*
X974725Y850900D01*
X974725Y809625D01*
X979488Y804862D01*
X981075Y804862D01*
X985838Y809625D01*
X985838Y933450D01*
X981075Y938212D01*
X973138Y938212D01*
G54D17*
X2346325Y1122362D02*
X2346325Y817562D01*
X2335212Y806450D01*
X2325688Y804862D01*
X2314575Y795338D01*
X2314575Y593725D01*
X2303462Y582612D01*
X2303462Y565150D01*
X2316162Y552450D01*
X2316162Y488950D01*
G54D17*
X2574925Y457200D02*
X2574925Y373062D01*
X2563812Y361950D01*
X2563812Y246077D01*
X2581280Y228609D01*
G54D17*
X2619375Y279400D02*
X2619375Y301625D01*
X2606675Y314325D01*
X2606675Y341312D01*
X2638425Y371475D01*
X2638425Y436562D01*
G54D17*
X2328862Y381000D02*
X2365375Y417512D01*
X2365375Y446087D01*
G54D17*
X2365375Y573087D02*
X2365375Y528638D01*
X2365375Y500062D01*
X2330450Y465138D01*
X2330450Y446087D01*
G54D17*
X2462212Y528638D02*
X2461711Y654119D01*
G54D17*
X2492375Y920750D02*
X2466975Y920750D01*
X2427288Y920750D01*
X2413000Y906462D01*
X2413000Y820738D01*
X2422525Y811212D01*
X2422525Y695325D01*
X2390775Y663575D01*
X2390775Y639762D01*
X2403475Y627062D01*
X2403475Y565150D01*
G54D17*
X2461711Y450918D02*
X2505006Y450918D01*
X2513012Y442912D01*
X2513012Y381000D01*
X377412Y1006575D02*
G54D11*
D03*
G54D15*
X632000Y701000D02*
X632000Y676000D01*
G54D17*
X606000Y400000D02*
X606000Y373000D01*
G54D15*
X790000Y1095000D02*
X793000Y1095000D01*
X840000Y1142000D01*
M02*
