%FSLAX34Y34*%
%MOMM*%
%LNSMDMASK_TOP*%
G71*
G01*
%ADD10R,10.700X13.000*%
%ADD11R,1.800X6.000*%
%LPD*%
X1201312Y1031874D02*
G54D10*
D03*
X1543049Y1265238D02*
G54D11*
D03*
X1568449Y1265238D02*
G54D11*
D03*
X1593849Y1265238D02*
G54D11*
D03*
X1619249Y1265238D02*
G54D11*
D03*
X1670049Y1265238D02*
G54D11*
D03*
X1695449Y1265238D02*
G54D11*
D03*
X1720849Y1265238D02*
G54D11*
D03*
X1746249Y1265238D02*
G54D11*
D03*
X1771649Y1265238D02*
G54D11*
D03*
X1797049Y1265238D02*
G54D11*
D03*
X1822449Y1265238D02*
G54D11*
D03*
X1847849Y1265238D02*
G54D11*
D03*
X1873249Y1265238D02*
G54D11*
D03*
X1898649Y1265238D02*
G54D11*
D03*
X1924049Y1265238D02*
G54D11*
D03*
X1949449Y1265238D02*
G54D11*
D03*
X1974849Y1265238D02*
G54D11*
D03*
X2000249Y1265238D02*
G54D11*
D03*
X2025649Y1265238D02*
G54D11*
D03*
X2051049Y1265238D02*
G54D11*
D03*
X2076449Y1265238D02*
G54D11*
D03*
X2101849Y1265238D02*
G54D11*
D03*
X2127249Y1265238D02*
G54D11*
D03*
X2152649Y1265238D02*
G54D11*
D03*
X2178049Y1265238D02*
G54D11*
D03*
X2203449Y1265238D02*
G54D11*
D03*
X2228849Y1265238D02*
G54D11*
D03*
M02*
