; Drill file
; Format: 2.4 (00.0000)
M48
INCH
T01C0.0157
T02C0.0236
T03C0.0283
T04C0.0315
T05C0.0354
T06C0.0394
T07C0.0472
T08C0.0551
T09C0.0787
T10C0.0906
T11C0.1102
T12C0.122
%
G05
G90
T01
X014000Y009940
X014940Y013500
X014440Y017940
X015440Y018190
X013940Y021440
X012690Y021120
X006190Y021190
X005750Y022120
X013630Y029130
X014190Y030620
X020690Y031190
X031250Y029690
X032120Y026440
X031630Y025440
X031630Y024190
X034620Y021690
X035620Y021690
X036120Y020690
X038120Y021940
X040060Y021630
X041880Y023190
X045620Y023690
X045060Y026190
X044380Y029190
X046310Y030190
X048810Y033190
X046060Y035690
X045060Y035690
X044310Y034940
X043060Y037190
X042810Y037940
X041060Y045130
X040310Y045880
X049810Y049630
X053310Y047630
X055000Y048190
X058500Y046620
X059500Y046940
X059810Y047940
X060750Y047940
X062520Y046120
X063250Y047440
X066250Y046690
X066500Y047940
X067250Y047940
X068310Y048190
X069500Y048190
X069500Y047440
X070500Y047190
X070500Y048190
X071500Y048190
X072500Y048190
X073190Y048190
X072940Y046690
X071980Y046450
X074690Y047630
X075690Y048190
X076440Y047940
X077190Y047940
X078190Y047940
X078940Y047940
X080440Y047940
X084120Y048190
X085120Y048190
X086130Y048190
X087130Y048190
X085690Y045500
X084940Y045190
X086370Y041690
X086190Y040940
X084940Y040690
X085620Y039690
X086370Y039000
X087870Y039750
X088440Y037190
X087940Y036500
X086190Y036690
X085190Y037750
X084500Y035940
X083560Y034690
X084940Y032940
X084690Y032190
X085750Y034250
X086440Y034690
X085750Y029690
X085750Y028690
X085000Y027190
X082810Y029690
X080810Y028940
X080310Y028190
X079060Y028690
X078060Y028940
X078190Y030380
X077310Y031690
X079060Y032190
X079060Y034190
X079060Y035440
X078560Y036440
X080690Y036690
X080560Y038000
X080250Y039000
X080060Y039940
X078560Y040690
X077500Y039130
X077810Y042440
X075690Y042190
X075690Y043190
X073440Y041940
X072500Y040690
X071690Y040940
X071620Y039440
X072630Y038440
X072630Y037500
X072630Y036250
X071620Y035940
X071120Y034690
X071380Y033940
X072370Y033940
X072370Y034690
X072870Y032940
X072130Y031750
X072630Y031000
X071620Y030500
X072060Y029500
X071380Y028250
X072060Y027250
X072630Y028000
X073620Y026690
X072500Y025250
X071380Y026000
X073440Y023250
X073440Y022250
X074250Y022000
X074500Y020750
X074500Y020000
X074120Y017440
X073940Y016810
X072310Y018250
X070190Y019440
X069630Y018500
X069940Y017500
X069120Y016750
X069000Y015750
X069380Y014750
X072370Y014250
X074500Y012250
X074750Y011250
X075000Y009750
X074750Y008810
X074500Y007810
X074000Y006810
X074000Y005500
X074750Y004500
X075250Y005960
X077000Y004060
X077130Y003250
X073500Y002500
X072500Y002500
X070000Y008560
X071750Y011250
X076500Y011500
X077000Y014000
X077690Y016250
X079440Y019500
X080940Y019000
X083190Y014500
X082500Y013750
X082000Y012500
X082440Y011250
X082190Y009500
X081500Y009500
X079000Y010310
X079750Y011560
X080500Y005500
X081750Y004060
X082500Y003250
X083000Y002310
X087690Y005500
X088440Y006250
X088690Y009500
X091190Y011000
X091190Y012500
X090940Y014000
X088750Y014000
X088940Y015250
X090440Y018810
X088440Y020250
X088120Y021500
X088940Y022500
X085940Y022500
X082690Y024250
X080060Y024940
X078690Y025500
X077750Y025310
X077750Y026190
X077750Y027190
X079810Y026690
X080190Y030380
X073810Y029210
X070370Y030690
X070880Y031940
X069630Y033250
X070130Y034690
X069630Y036500
X069630Y037190
X073560Y039690
X072000Y043440
X067060Y043440
X068000Y046940
X062870Y043440
X062060Y044190
X061620Y043440
X061380Y042190
X063190Y042190
X063190Y040690
X063190Y039690
X061120Y040190
X061000Y039190
X061810Y036690
X063000Y035440
X061810Y034690
X061380Y033690
X061440Y031440
X061190Y030690
X062190Y029000
X061380Y027690
X061310Y026690
X061690Y020500
X061310Y017750
X061880Y015560
X064120Y016750
X064630Y015750
X064940Y014750
X064940Y018190
X065310Y021500
X068500Y022250
X069630Y020750
X068690Y019190
X071880Y020750
X071750Y021940
X067500Y030500
X067250Y031440
X064500Y035690
X057310Y036880
X056060Y034940
X056310Y032440
X057440Y032440
X054310Y031440
X053880Y028440
X054060Y026690
X051810Y025190
X051810Y024190
X050560Y025190
X049560Y025690
X049380Y026690
X050560Y028190
X051560Y029190
X049560Y024190
X049810Y021190
X050060Y020190
X051060Y019690
X051060Y018690
X051120Y020940
X055310Y020690
X055060Y019000
X055810Y018750
X056560Y017190
X057310Y017690
X058250Y018190
X057560Y016250
X056060Y015690
X056060Y013440
X057310Y012190
X057810Y014190
X059810Y009810
X059310Y008750
X064810Y009000
X065060Y007960
X064310Y006440
X065060Y005440
X064870Y011000
X051310Y014690
X049630Y015190
X049870Y013000
X049630Y011940
X048880Y012250
X045810Y012500
X046380Y015190
X045370Y017190
X044870Y018190
X045310Y019440
X045060Y020690
X037120Y017190
X034870Y016940
X035810Y014690
X034130Y014190
X030940Y014190
X030620Y015690
X030870Y016440
X030130Y016690
X027630Y018500
X027120Y013500
X028440Y012500
X029870Y011500
X031310Y011500
X026380Y012000
X021880Y017690
X019880Y017690
X019190Y017690
X019880Y016690
X032880Y018690
X036120Y024750
X038060Y026690
X035130Y027440
X034130Y035440
X032120Y036630
X051000Y039940
X052310Y040190
X053310Y039690
X054060Y041880
X057310Y041690
X057060Y040190
X051810Y037440
X045000Y009500
X045370Y007000
X045060Y006000
X043880Y006940
X039620Y008000
X049630Y007500
X019690Y002500
X018940Y002000
X086190Y012000
X094630Y007500
X095440Y007500
X095880Y009000
X096190Y010500
X096440Y014000
X103380Y013000
X104380Y013750
X093690Y004000
X094440Y002000
X093380Y024000
X093440Y035940
X083440Y039690
X081440Y041690
X081190Y042690
T02
X067010Y022730
X075010Y022730
T03
X008250Y004440
X008250Y005440
X008250Y006440
X008250Y007440
X008250Y008440
X008250Y009440
X008250Y010440
X008250Y011440
X011250Y011440
X011250Y010440
X011250Y009440
X011250Y008440
X011250Y007440
X011250Y006440
X011250Y005440
X011250Y004440
X013250Y004440
X013250Y005440
X013250Y006440
X013250Y007440
X013250Y008440
X013250Y009440
X013250Y010440
X013250Y011440
X016250Y011440
X016250Y010440
X016250Y009440
X016250Y008440
X016250Y007440
X016250Y006440
X016250Y005440
X016250Y004440
X018190Y004440
X018190Y005440
X018190Y006440
X018190Y007440
X018190Y008440
X018190Y009440
X018190Y010440
X021190Y010440
X021190Y009440
X021190Y008440
X021190Y007440
X021190Y006440
X021190Y005440
X021190Y004440
X021190Y003440
X023190Y003440
X023190Y004440
X023190Y005440
X023190Y006440
X023190Y007440
X023190Y008440
X023190Y009440
X023190Y010440
X026190Y010440
X026190Y009440
X026190Y008440
X026190Y007440
X026190Y006440
X026190Y005440
X026190Y004440
X026190Y003440
X028120Y003440
X028120Y004440
X028120Y005440
X028120Y006440
X028120Y007440
X028120Y008440
X028120Y009440
X028120Y010440
X031120Y010440
X031120Y009440
X031120Y008440
X031120Y007440
X031120Y006440
X031120Y005440
X031120Y004440
X031120Y003440
X033120Y003440
X033120Y004440
X033120Y005440
X033120Y006440
X033120Y007440
X033120Y008440
X033120Y009440
X033120Y010440
X036120Y010440
X036120Y009440
X036120Y008440
X036120Y007440
X036120Y006440
X036120Y005440
X036120Y004440
X036120Y003440
X038120Y003440
X038120Y004440
X038120Y005440
X038120Y006440
X038120Y007440
X038120Y008440
X038120Y009440
X038120Y010440
X041120Y010440
X041120Y009440
X041120Y008440
X041120Y007440
X041120Y006440
X041120Y005440
X041120Y004440
X041120Y003440
X043120Y003440
X043120Y004440
X043120Y005440
X043120Y006440
X043120Y007440
X043120Y008440
X043120Y009440
X043120Y010440
X046120Y010440
X046120Y009440
X046120Y008440
X046120Y007440
X046120Y006440
X046120Y005440
X046120Y004440
X046120Y003440
X048120Y003440
X048120Y004440
X048120Y005440
X048120Y006440
X048120Y007440
X048120Y008440
X048120Y009440
X048120Y010440
X047100Y012700
X047100Y013700
X047100Y014700
X047100Y015700
X047100Y016700
X047100Y017700
X047100Y018700
X047100Y019700
X047100Y020700
X047100Y021700
X047100Y022700
X047100Y023700
X047100Y024700
X047100Y025700
X047100Y026700
X047100Y027700
X047100Y028700
X047100Y029700
X047100Y030700
X047100Y031700
X047100Y032700
X047100Y033700
X047100Y034700
X047100Y035700
X041100Y035700
X041100Y034700
X041100Y033700
X041100Y032700
X041100Y031700
X041100Y030700
X041100Y029700
X041100Y028700
X041100Y027700
X041100Y026700
X041100Y025700
X041100Y024700
X041100Y023700
X041100Y022700
X041100Y021700
X041100Y020700
X041100Y019700
X041100Y018700
X041100Y017700
X041100Y016700
X041100Y015700
X041100Y014700
X041100Y013700
X041100Y012700
X051120Y010440
X051120Y009440
X051120Y008440
X051120Y007440
X051120Y006440
X051120Y005440
X051120Y004440
X051120Y003440
X053120Y003440
X053120Y004440
X053120Y005440
X053120Y006440
X053120Y007440
X053120Y008440
X053120Y009440
X053120Y010440
X056120Y010440
X056120Y009440
X056120Y008440
X056120Y007440
X056120Y006440
X056120Y005440
X056120Y004440
X056120Y003440
X058120Y003440
X058120Y004440
X058120Y005440
X058120Y006440
X058120Y007440
X058120Y008440
X058120Y009440
X058120Y010440
X061120Y010440
X061120Y009440
X061120Y008440
X061120Y007440
X061120Y006440
X061120Y005440
X061120Y004440
X061120Y003440
X063060Y003440
X063060Y004440
X063060Y005440
X063060Y006440
X063060Y007440
X063060Y008440
X063060Y009440
X063060Y010440
X066060Y010440
X066060Y009440
X066060Y008440
X066060Y007440
X066060Y006440
X066060Y005440
X066060Y004440
X066060Y003440
X068060Y003440
X068060Y004440
X068060Y005440
X068060Y006440
X068060Y007440
X068060Y008440
X068060Y009440
X068060Y010440
X071060Y010440
X071060Y009440
X071060Y008440
X071060Y007440
X071060Y006440
X071060Y005440
X071060Y004440
X071060Y003440
X073000Y003440
X073000Y004440
X073000Y005440
X073000Y006440
X073000Y007440
X073000Y008440
X073000Y009440
X073000Y010440
X076000Y010440
X076000Y009440
X076000Y008440
X076000Y007440
X076000Y006440
X076000Y005440
X076000Y004440
X076000Y003440
X078000Y003000
X078000Y004000
X078000Y005000
X078000Y006000
X078000Y007000
X078000Y008000
X078000Y009000
X078000Y010000
X078000Y011000
X078000Y012000
X078000Y013000
X078000Y014000
X078000Y015000
X076060Y014750
X076060Y013750
X076060Y015750
X076060Y016750
X076060Y017750
X076060Y018750
X076060Y019750
X076060Y020750
X073060Y020750
X073060Y019750
X073060Y018750
X073060Y017750
X073060Y016750
X073060Y015750
X073060Y014750
X073060Y013750
X071060Y013750
X071060Y014750
X071060Y015750
X071060Y016750
X071060Y017750
X071060Y018750
X071060Y019750
X071060Y020750
X068060Y020750
X068060Y019750
X068060Y018750
X068060Y017750
X068060Y016750
X068060Y015750
X068060Y014750
X068060Y013750
X066060Y013750
X066060Y014750
X066060Y015750
X066060Y016750
X066060Y017750
X066060Y018750
X066060Y019750
X066060Y020750
X063060Y020750
X063060Y019750
X063060Y018750
X063060Y017750
X063060Y016750
X063060Y015750
X063060Y014750
X063060Y013750
X066050Y024710
X066050Y025710
X066050Y026710
X066050Y027710
X066050Y028710
X066050Y029710
X066050Y030710
X066050Y031710
X066050Y032710
X066050Y033710
X066050Y034710
X066050Y035710
X066050Y036710
X066050Y037710
X066050Y038710
X066050Y039710
X066050Y040710
X066050Y041710
X066050Y042710
X066050Y043710
X068520Y043680
X068520Y042680
X068520Y041680
X068520Y040680
X068520Y039680
X068520Y038680
X068520Y037680
X068520Y036680
X068520Y035680
X068520Y034680
X068520Y033680
X068520Y032680
X068520Y031680
X068520Y030680
X068520Y029680
X068520Y028680
X068520Y027680
X068520Y026680
X068520Y025680
X068520Y024680
X074520Y024680
X074520Y025680
X074520Y026680
X074520Y027680
X074520Y028680
X074520Y029680
X074520Y030680
X074520Y031680
X074520Y032680
X074520Y033680
X074520Y034680
X074520Y035680
X074520Y036680
X074520Y037680
X074520Y038680
X074520Y039680
X074520Y040680
X074520Y041680
X074520Y042680
X074520Y043680
X076440Y043690
X076440Y042690
X076440Y041690
X076440Y040690
X076440Y039690
X076440Y038690
X076440Y037690
X076440Y036690
X076440Y035690
X076440Y034690
X076440Y033690
X076440Y032690
X076440Y031690
X076440Y030690
X082440Y030690
X082440Y031690
X082440Y032690
X082440Y033690
X082440Y034690
X082440Y035690
X082440Y036690
X082440Y037690
X082440Y038690
X082440Y039690
X082440Y040690
X082440Y041690
X082440Y042690
X082440Y043690
X083940Y033690
X083940Y032690
X083940Y031690
X083940Y030690
X083940Y029690
X083940Y028690
X083940Y027690
X083940Y026690
X083940Y025690
X083940Y024690
X086940Y024690
X086940Y025690
X086940Y026690
X086940Y027690
X086940Y028690
X086940Y029690
X086940Y030690
X086940Y031690
X086940Y032690
X086940Y033690
X088940Y031000
X088940Y030000
X088940Y029000
X088940Y028000
X088940Y027000
X088940Y026000
X088940Y025000
X088940Y024000
X091940Y024000
X091940Y025000
X091940Y026000
X091940Y027000
X091940Y028000
X091940Y029000
X091940Y030000
X091940Y031000
X092940Y015000
X092940Y014000
X092940Y013000
X092940Y012000
X092940Y011000
X092940Y010000
X092940Y009000
X094940Y009000
X094940Y010000
X094940Y011000
X094940Y012000
X094940Y013000
X094940Y014000
X094940Y015000
X097940Y015000
X097940Y014000
X097940Y013000
X097940Y012000
X097940Y011000
X097940Y010000
X097940Y009000
X089940Y009000
X089940Y010000
X089940Y011000
X089940Y012000
X089940Y013000
X089940Y014000
X089940Y015000
X084000Y015000
X084000Y014000
X084000Y013000
X084000Y012000
X084000Y011000
X084000Y010000
X084000Y009000
X084000Y008000
X084000Y007000
X084000Y006000
X084000Y005000
X084000Y004000
X084000Y003000
X084000Y002000
X078000Y002000
X060050Y024710
X060050Y025710
X060050Y026710
X060050Y027710
X060050Y028710
X060050Y029710
X060050Y030710
X060050Y031710
X060050Y032710
X060050Y033710
X060050Y034710
X060050Y035710
X060050Y036710
X060050Y037710
X060050Y038710
X060050Y039710
X060050Y040710
X060050Y041710
X060050Y042710
X060050Y043710
X058060Y030690
X058060Y029690
X058060Y028690
X058060Y027690
X058060Y026690
X058060Y025690
X058060Y024690
X055060Y024690
X055060Y025690
X055060Y026690
X055060Y027690
X055060Y028690
X055060Y029690
X055060Y030690
X032630Y030690
X032630Y029690
X032630Y028690
X032630Y027690
X029620Y027690
X029620Y028690
X029620Y029690
X029620Y030690
X029620Y031690
X029620Y032690
X029620Y033690
X029620Y034690
X029620Y035690
X032630Y035690
X032630Y034690
X032630Y033690
X032630Y032690
X032630Y031690
X015920Y025150
X015920Y024150
X015920Y023150
X015920Y022150
X012920Y022150
X012920Y023150
X012920Y024150
X012920Y025150
X018190Y003440
T04
X007250Y004440
X007250Y009440
X009500Y012190
X007000Y013690
X007000Y015190
X007000Y016190
X007000Y017120
X007000Y018190
X007000Y019940
X005690Y019940
X007000Y021630
X007000Y022630
X008560Y023750
X010500Y021630
X012000Y021630
X012000Y022630
X011940Y024440
X012880Y026630
X012880Y027690
X012880Y029620
X011940Y029440
X011180Y030100
X011180Y031100
X011180Y032100
X012460Y032810
X012460Y033810
X012460Y034810
X012880Y035870
X012880Y037630
X011190Y037630
X014860Y039630
X016190Y037630
X017880Y035870
X018560Y036880
X019880Y034620
X019880Y033620
X019880Y032630
X019880Y031620
X019880Y030620
X019880Y029620
X019880Y028620
X019880Y027620
X019880Y026620
X017880Y026630
X017880Y027690
X017120Y029190
X017880Y029620
X018870Y029620
X017880Y030620
X017880Y031630
X014460Y032810
X014460Y033810
X014460Y034810
X012880Y031630
X012880Y030620
X016130Y027690
X018870Y024620
X018690Y023620
X018940Y022310
X018060Y022310
X017190Y022310
X016560Y021440
X017190Y020500
X018940Y020500
X019560Y021440
X020810Y021440
X021440Y022310
X022310Y022310
X023190Y022310
X023810Y021440
X023190Y020500
X023870Y019190
X023940Y017440
X023880Y015690
X023880Y014690
X022120Y014250
X020940Y014940
X020940Y013190
X022940Y012750
X024940Y013000
X028880Y014690
X028880Y015690
X028940Y017440
X028940Y019440
X028440Y021190
X027440Y021190
X026380Y021190
X026380Y023000
X024690Y023620
X023690Y023620
X024690Y024620
X024690Y025690
X024880Y026620
X024880Y027620
X024880Y028620
X024880Y029620
X024880Y030620
X024880Y031620
X024870Y032630
X024870Y033620
X024870Y034620
X025130Y036120
X026560Y036880
X028370Y037690
X030130Y038130
X031120Y038120
X032120Y038120
X033120Y038120
X034130Y038120
X035130Y038120
X035620Y036630
X036630Y036630
X037560Y036190
X038310Y036940
X038120Y038120
X039130Y038120
X040130Y038120
X041060Y038620
X041060Y039620
X041060Y040620
X041060Y041620
X041060Y042630
X041060Y043620
X040130Y043120
X039130Y043120
X038120Y043120
X037120Y043120
X035130Y043120
X034130Y043120
X033120Y043120
X032120Y043120
X031120Y043120
X030130Y043120
X030130Y044120
X031120Y044120
X032060Y041120
X033620Y036630
X034620Y036630
X037120Y038120
X040060Y036690
X041060Y037630
X044060Y037630
X044060Y038620
X044060Y039620
X044060Y040620
X044060Y041620
X044060Y042630
X044060Y043620
X044560Y045880
X043560Y045880
X042060Y046880
X042060Y047940
X041000Y049560
X045560Y045880
X046380Y044380
X048280Y044380
X049060Y046120
X049060Y047130
X049060Y048190
X049060Y049120
X049060Y050130
X048000Y049560
X047060Y047940
X047060Y046880
X050310Y045130
X051060Y043690
X050310Y042940
X054000Y043690
X055060Y043690
X055440Y044870
X056310Y044870
X057190Y044870
X057810Y045750
X057190Y046690
X055440Y046690
X054810Y045750
X054060Y046120
X054060Y047130
X054060Y048190
X054060Y049120
X054060Y050130
X056310Y043690
X057500Y043690
X058060Y042940
X058750Y044940
X062000Y044940
X063750Y044940
X064500Y045620
X063870Y043440
X067250Y044440
X074750Y045310
X076440Y044940
X083440Y043690
X086940Y042500
X087620Y042940
X090370Y045000
X092380Y044190
X097130Y041250
X098120Y041250
X099120Y040250
X099880Y039310
X099120Y038310
X100860Y037250
X100860Y036320
X098120Y036250
X097130Y036250
X100620Y032250
X099120Y030740
X099120Y029740
X099120Y028740
X099380Y027250
X100370Y027250
X101370Y027250
X101130Y026250
X102130Y026250
X103120Y026250
X104120Y026250
X105120Y026250
X106920Y026250
X106130Y024250
X105120Y021250
X104120Y021250
X103120Y021250
X102130Y021250
X101130Y021250
X101370Y018000
X103870Y018750
X103870Y017190
X102870Y015250
X105120Y013060
X104670Y012320
X103120Y011000
X101620Y011000
X101620Y010060
X101630Y009000
X102380Y008250
X099440Y007250
X098940Y010000
X101620Y012310
X098940Y015000
X097940Y016690
X096920Y017750
X094870Y017760
X093120Y020810
X094630Y022250
X096190Y024250
X096920Y025750
X094870Y025760
X092870Y026750
X087940Y028690
X087940Y033690
X083440Y038690
X081440Y029440
X081440Y028440
X081440Y027440
X081440Y026440
X081440Y025440
X081440Y024440
X081440Y023250
X080440Y023250
X079440Y023250
X078500Y023250
X076440Y024440
X076440Y025440
X076440Y026440
X076440Y027440
X076440Y028440
X076440Y029440
X075000Y024000
X076940Y020750
X078500Y018250
X079440Y018250
X080440Y018250
X081440Y018250
X082440Y018250
X083440Y018250
X084440Y018250
X085440Y018250
X086440Y018250
X086440Y017250
X085440Y017250
X084440Y017250
X083440Y017250
X082440Y017250
X081440Y017250
X080440Y017250
X080690Y015750
X079190Y015750
X076940Y015750
X076940Y017310
X077000Y013000
X079190Y013000
X080440Y010000
X077000Y008000
X077000Y007000
X077000Y002000
X072060Y003440
X067060Y003440
X062130Y003440
X057130Y003440
X052130Y003440
X047130Y003440
X042130Y003440
X037120Y003440
X032190Y003440
X027190Y003440
X022190Y003440
X017190Y003440
X017190Y008440
X014940Y011690
X015940Y013190
X016630Y016500
X014690Y019190
X013940Y019940
X012000Y019940
X012000Y018190
X012000Y017120
X012000Y016190
X012000Y015190
X012940Y014940
X012000Y013690
X012930Y017440
X008870Y019440
X012250Y009440
X012250Y004440
X022190Y008440
X027190Y008440
X029870Y010440
X029940Y013000
X032120Y012690
X032120Y013690
X032120Y014690
X033620Y015760
X037120Y014690
X037120Y013690
X037120Y012690
X034620Y011250
X032190Y008440
X037120Y008440
X042130Y008440
X047130Y008440
X048060Y012690
X048060Y013690
X048060Y014690
X048060Y015690
X048060Y016690
X048060Y017690
X048060Y018690
X048060Y019690
X048060Y020690
X048060Y021690
X048060Y022690
X048060Y023690
X048060Y024690
X048060Y025690
X048060Y026690
X048060Y027690
X048060Y028690
X048060Y029690
X048060Y030690
X048060Y031690
X048060Y032690
X048060Y033690
X048060Y034690
X048060Y035690
X048060Y036690
X047060Y036690
X047060Y038060
X050060Y036310
X051060Y038690
X053060Y036690
X053060Y035690
X053060Y034690
X054000Y034690
X054000Y033690
X053060Y033690
X053060Y032690
X054000Y032690
X053060Y031690
X053060Y030690
X053060Y029690
X053060Y028690
X053060Y027690
X053060Y026690
X053060Y025690
X053060Y024690
X053060Y023690
X053060Y022690
X053060Y021690
X054060Y021690
X054060Y020690
X054060Y019690
X053060Y019690
X053060Y018690
X053060Y017690
X053060Y016690
X053060Y015690
X053060Y014690
X053060Y013690
X053060Y012690
X054060Y012690
X054060Y013690
X054060Y014690
X054060Y015690
X054060Y016690
X054060Y017690
X054060Y018690
X053060Y020690
X055060Y022940
X056060Y022940
X057060Y022940
X059060Y022940
X059560Y023690
X060060Y022940
X061060Y022940
X061060Y021690
X060060Y021690
X059060Y021690
X059060Y020690
X059060Y019690
X059060Y018690
X059060Y017690
X059060Y016690
X059060Y015690
X059060Y014690
X059060Y013690
X059060Y012690
X059560Y011750
X057130Y008440
X054620Y010440
X054560Y011750
X052130Y008440
X062130Y008440
X067060Y008440
X072060Y008440
X072120Y010440
X069620Y013750
X067060Y013750
X067060Y018750
X067000Y023750
X067000Y027690
X062870Y025500
X061500Y024690
X059060Y026690
X059060Y031690
X059000Y032690
X059000Y033690
X059000Y034690
X059000Y036190
X058250Y037940
X057500Y038690
X056310Y038690
X055060Y038690
X054000Y038690
X054000Y037440
X055000Y037440
X056000Y037440
X054750Y036440
X059000Y038690
X067000Y032690
X071120Y024250
X082440Y023250
X083440Y023250
X084440Y023250
X085440Y023250
X086440Y023250
X087440Y023250
X088440Y023250
X090440Y021500
X089690Y020000
X091190Y019250
X090440Y016500
X091690Y015000
X087940Y013000
X087940Y012000
X087940Y011000
X086940Y010000
X085940Y010000
X084940Y010000
X085000Y007000
X085940Y007000
X087000Y007000
X088190Y008250
X088940Y007000
X089940Y007000
X090940Y007000
X091940Y007000
X092940Y007000
X095190Y003560
X092940Y002000
X091940Y002000
X090940Y002000
X089940Y002000
X088940Y002000
X087000Y002000
X085940Y002000
X085000Y002000
X084940Y015000
X085940Y015000
X086940Y015000
X087440Y017250
X087440Y018250
X088440Y018250
X096940Y020810
X097620Y023000
X100860Y028320
X104670Y020320
X106920Y018250
X106620Y011000
X106620Y010060
X106630Y009000
X107440Y007250
X101810Y041250
X101130Y043750
X100860Y045250
X099120Y045250
X098120Y045250
X099120Y043750
X098120Y050250
X061060Y016690
X060060Y016690
X040060Y018750
X039060Y018750
X038120Y018750
X037120Y018750
X034310Y019440
X031870Y019190
X030440Y021190
X029440Y021190
X029690Y023620
X029690Y024620
X029690Y025690
X028370Y026690
X027370Y029690
X028370Y031690
X028370Y032690
X027370Y034690
X024940Y041120
X026630Y048120
X030130Y049120
X031120Y049120
X038560Y034380
X038560Y031690
X040060Y031690
X039060Y030190
X038060Y030190
X037310Y029690
X036630Y031630
X035620Y031630
X034620Y031630
X034620Y030690
X033620Y030690
X033620Y031630
X033620Y025690
X034620Y025690
X033620Y023760
X032630Y023000
X037120Y023750
X038120Y023750
X038060Y025190
X039060Y025190
X039870Y028940
X040130Y013690
X025870Y019440
X021440Y020500
X019690Y019190
X020930Y017440
T05
X099630Y046750
X101130Y046750
X101130Y050250
X099630Y050250
T06
X011130Y040620
X011130Y042630
X011130Y049380
X044940Y040190
X049630Y040190
X050560Y041690
X052560Y041690
X052500Y043690
X052500Y038690
X066000Y022730
X076000Y022730
X106840Y014750
X106840Y013750
X106840Y012750
T07
X002500Y003940
X002500Y005120
X002500Y006310
X004120Y005690
X004120Y004500
X004120Y003310
X033060Y044970
X034130Y045970
X033060Y046970
X036060Y046970
X036060Y044970
X038120Y045970
X039060Y046970
X039060Y044970
X037000Y049910
X035060Y049910
X089380Y047440
X091370Y047440
X091370Y041500
X089380Y041500
X089380Y038500
X091370Y038500
X091370Y032500
X089380Y032500
X091750Y022560
X093120Y022560
X093120Y017560
X091750Y017560
X098630Y021250
X100130Y020250
X100130Y015250
X098630Y026250
X102730Y004140
X103910Y004140
X105100Y004140
X104480Y002510
X103290Y002510
X102100Y002510
T08
X035620Y015750
X035620Y023750
X011560Y045750
X011560Y046940
X011560Y048120
T09
X094250Y027750
X094250Y029750
X094250Y031250
X097620Y031250
X097620Y029750
X097620Y027750
T10
X012940Y043940
X028250Y044000
T11
X001940Y011810
X003620Y011810
X003620Y015560
X003620Y017560
X001940Y017560
X003620Y021310
T12
X093060Y048120
X094880Y049250
X094880Y046880
M30
