%FSLAX34Y34*%
%MOMM*%
%LNOUTLINE*%
G71*
G01*
%ADD10C,0.400*%
%LPD*%
G54D10*
X0Y625475D02*
X257175Y625475D01*
X268288Y636588D01*
X268288Y1295400D01*
X1635725Y1295400D01*
X1635625Y1214438D01*
X1653675Y1214438D01*
X1653675Y1295400D01*
X2598738Y1295400D01*
X2598738Y703262D01*
X2608262Y693738D01*
X2747962Y693738D01*
X2747962Y150812D01*
X2736850Y150812D01*
X2724150Y138112D01*
X2724150Y68262D01*
X2735262Y57150D01*
X2747962Y57150D01*
X2747962Y1588D01*
X147638Y1588D01*
X147638Y14288D01*
X136525Y25400D01*
X66675Y25400D01*
X55562Y14288D01*
X55562Y1588D01*
X0Y1588D01*
X0Y625475D01*
G54D10*
G75*
G01X2471974Y50800D02*
G03X2471974Y50800I-17462J0D01*
G01*
G54D10*
G75*
G01X2562462Y50800D02*
G03X2562462Y50800I-17462J0D01*
G01*
G54D10*
G75*
G01X2510200Y134938D02*
G03X2478200Y134938I-16000J0D01*
G01*
G54D10*
G75*
G01X2478200Y71438D02*
G03X2510200Y71438I16000J0D01*
G01*
G54D10*
X2478325Y134938D02*
X2478325Y71634D01*
G54D10*
X2510075Y134938D02*
X2510075Y71634D01*
G54D10*
G75*
G01X79375Y50800D02*
G03X79375Y50800I-19050J0D01*
G01*
G54D10*
G75*
G01X434975Y50800D02*
G03X434975Y50800I-19050J0D01*
G01*
G54D10*
G75*
G01X68263Y274637D02*
G03X68263Y242887I0J-15875D01*
G01*
G54D10*
G75*
G01X133228Y242887D02*
G03X133228Y274637I0J15875D01*
G01*
G54D10*
X68263Y242887D02*
X133228Y242887D01*
G54D10*
X133228Y274637D02*
X68263Y274637D01*
G54D10*
G75*
G01X439738Y850900D02*
G03X439738Y850900I-25400J0D01*
G01*
G54D10*
G75*
G01X1451425Y1250949D02*
G03X1451425Y1250949I-19500J0D01*
G01*
G54D10*
G75*
G01X2479425Y855663D02*
G03X2479425Y855663I-26500J0D01*
G01*
M02*
