%FSLAX34Y34*%
%MOMM*%
%LNSILK_BOTTOM*%
G71*
G01*
%ADD10C,0.318*%
%ADD11C,0.400*%
%ADD12C,0.300*%
%ADD13C,0.413*%
%LPD*%
G54D10*
X569382Y1202443D02*
X570716Y1200221D01*
X573382Y1199110D01*
X576049Y1199110D01*
X578716Y1200221D01*
X580049Y1202443D01*
X580049Y1213554D01*
X578716Y1215777D01*
X576049Y1216888D01*
X573382Y1216888D01*
X570716Y1215777D01*
X569382Y1213554D01*
G54D10*
X552494Y1202443D02*
X553826Y1200221D01*
X556494Y1199110D01*
X559160Y1199110D01*
X561826Y1200221D01*
X563160Y1202443D01*
X563160Y1213554D01*
X561826Y1215777D01*
X559160Y1216888D01*
X556494Y1216888D01*
X553826Y1215777D01*
X552494Y1213554D01*
G54D11*
G75*
G01X588800Y1208000D02*
G03X588800Y1208000I-22500J0D01*
G01*
G54D10*
X568684Y1162173D02*
X570016Y1159951D01*
X572684Y1158840D01*
X575350Y1158840D01*
X578016Y1159951D01*
X579350Y1162173D01*
X579350Y1173284D01*
X578016Y1175507D01*
X575350Y1176618D01*
X572684Y1176618D01*
X570016Y1175507D01*
X568684Y1173284D01*
G54D10*
X551794Y1162173D02*
X553128Y1159951D01*
X555794Y1158840D01*
X558461Y1158840D01*
X561128Y1159951D01*
X562461Y1162173D01*
X562461Y1173284D01*
X561128Y1175507D01*
X558461Y1176618D01*
X555794Y1176618D01*
X553128Y1175507D01*
X551794Y1173284D01*
G54D10*
X545572Y1166618D02*
X534906Y1166618D01*
G54D10*
X528683Y1158840D02*
X528683Y1176618D01*
X522016Y1176618D01*
X519350Y1175507D01*
X518016Y1173284D01*
X518016Y1171062D01*
X519350Y1168840D01*
X522016Y1167729D01*
X519350Y1166618D01*
X518016Y1164396D01*
X518016Y1162173D01*
X519350Y1159951D01*
X522016Y1158840D01*
X528683Y1158840D01*
G54D10*
X528683Y1167729D02*
X522016Y1167729D01*
G54D10*
X511794Y1176618D02*
X505127Y1167729D01*
X505127Y1158840D01*
G54D10*
X505127Y1167729D02*
X498461Y1176618D01*
G54D10*
X492239Y1166618D02*
X481572Y1166618D01*
G54D10*
X475350Y1158840D02*
X475350Y1176618D01*
X464683Y1158840D01*
X464683Y1176618D01*
G54D10*
X447794Y1162173D02*
X449128Y1159951D01*
X451794Y1158840D01*
X454461Y1158840D01*
X457128Y1159951D01*
X458461Y1162173D01*
X458461Y1173284D01*
X457128Y1175507D01*
X454461Y1176618D01*
X451794Y1176618D01*
X449128Y1175507D01*
X447794Y1173284D01*
G54D10*
X441572Y1166618D02*
X430905Y1166618D01*
G54D10*
X424683Y1162173D02*
X423350Y1159951D01*
X420683Y1158840D01*
X418016Y1158840D01*
X415350Y1159951D01*
X414016Y1162173D01*
X414016Y1164396D01*
X415350Y1166618D01*
X418016Y1167729D01*
X420683Y1167729D01*
X423350Y1168840D01*
X424683Y1171062D01*
X424683Y1173284D01*
X423350Y1175507D01*
X420683Y1176618D01*
X418016Y1176618D01*
X415350Y1175507D01*
X414016Y1173284D01*
G54D10*
X407794Y1158840D02*
X401127Y1176618D01*
X394461Y1158840D01*
G54D10*
X405127Y1165507D02*
X397127Y1165507D01*
G54D11*
G75*
G01X516100Y1220000D02*
G03X516100Y1220000I-1500J0D01*
G01*
G54D11*
G75*
G01X536800Y1208000D02*
G03X536800Y1208000I-22500J0D01*
G01*
G36*
X519600Y1213000D02*
X509600Y1213000D01*
X509600Y1205000D01*
X512600Y1205000D01*
X512600Y1194000D01*
X516600Y1194000D01*
X516600Y1205000D01*
X519600Y1205000D01*
X519600Y1213000D01*
G37*
G54D12*
X519600Y1213000D02*
X509600Y1213000D01*
X509600Y1205000D01*
X512600Y1205000D01*
X512600Y1194000D01*
X516600Y1194000D01*
X516600Y1205000D01*
X519600Y1205000D01*
X519600Y1213000D01*
G54D13*
X454605Y1200578D02*
X456454Y1198556D01*
X459690Y1197112D01*
X464312Y1197112D01*
X468010Y1198556D01*
X469858Y1201445D01*
X471245Y1208378D01*
X469858Y1215600D01*
X468010Y1218489D01*
X464312Y1220223D01*
X459690Y1220223D01*
X456454Y1218489D01*
X454605Y1216467D01*
G54D13*
X475405Y1210978D02*
X461538Y1210978D01*
G54D13*
X475405Y1206356D02*
X461538Y1206356D01*
G54D11*
G75*
G01X484800Y1208000D02*
G03X484800Y1208000I-22500J0D01*
G01*
G54D12*
X482600Y1217000D02*
X442600Y1198000D01*
G54D11*
G75*
G01X432800Y1208000D02*
G03X432800Y1208000I-22500J0D01*
G01*
G54D11*
G75*
G01X422205Y1210340D02*
G03X421663Y1204152I-11818J-2084D01*
G01*
G54D11*
X422305Y1210340D02*
X417460Y1210340D01*
X418200Y1210300D01*
G54D11*
X422205Y1210340D02*
X422340Y1210340D01*
X425600Y1213600D01*
G54D10*
X609500Y1251500D02*
X604167Y1251500D01*
X609500Y1241500D01*
X604167Y1241500D01*
G54D10*
X590834Y1255944D02*
X590834Y1244833D01*
X591723Y1242611D01*
X593501Y1241500D01*
X595278Y1241500D01*
X597056Y1242611D01*
X597945Y1244833D01*
X597945Y1255944D01*
X597056Y1258167D01*
X595278Y1259278D01*
X593501Y1259278D01*
X591723Y1258167D01*
X590834Y1255944D01*
G54D10*
X577501Y1255944D02*
X577501Y1244833D01*
X578390Y1242611D01*
X580168Y1241500D01*
X581945Y1241500D01*
X583723Y1242611D01*
X584612Y1244833D01*
X584612Y1255944D01*
X583723Y1258167D01*
X581945Y1259278D01*
X580168Y1259278D01*
X578390Y1258167D01*
X577501Y1255944D01*
G54D10*
X571279Y1241500D02*
X571279Y1251500D01*
G54D10*
X571279Y1249722D02*
X569501Y1251500D01*
X567723Y1250833D01*
X566835Y1249278D01*
X566835Y1241500D01*
G54D10*
X566835Y1249722D02*
X565057Y1251500D01*
X563279Y1250833D01*
X562390Y1249278D01*
X562390Y1241500D01*
G54D10*
X556168Y1241500D02*
X556168Y1241500D01*
G54D10*
X549946Y1244833D02*
X549057Y1242611D01*
X547279Y1241500D01*
X545502Y1241500D01*
X543724Y1242611D01*
X542835Y1244833D01*
X542835Y1247056D01*
X543724Y1249278D01*
X545502Y1250389D01*
X547279Y1250389D01*
X549057Y1251500D01*
X549946Y1253722D01*
X549946Y1255944D01*
X549057Y1258167D01*
X547279Y1259278D01*
X545502Y1259278D01*
X543724Y1258167D01*
X542835Y1255944D01*
G54D10*
X536613Y1241500D02*
X536613Y1251500D01*
G54D10*
X536613Y1254833D02*
X536613Y1254833D01*
G54D10*
X530391Y1241500D02*
X530391Y1251500D01*
G54D10*
X530391Y1249278D02*
X529502Y1250833D01*
X527724Y1251500D01*
X525947Y1250833D01*
X525058Y1249278D01*
X525058Y1241500D01*
G54D10*
X518836Y1241500D02*
X518836Y1259278D01*
X514392Y1259278D01*
X512614Y1258167D01*
X511725Y1255944D01*
X511725Y1244833D01*
X512614Y1242611D01*
X514392Y1241500D01*
X518836Y1241500D01*
G54D10*
X505503Y1241500D02*
X505503Y1251500D01*
G54D10*
X505503Y1254833D02*
X505503Y1254833D01*
G54D10*
X499281Y1241500D02*
X499281Y1259278D01*
G54D10*
X499281Y1247056D02*
X492170Y1259278D01*
G54D10*
X496614Y1250389D02*
X492170Y1241500D01*
G54D10*
X485948Y1241500D02*
X481504Y1259278D01*
X477059Y1241500D01*
G54D10*
X484170Y1248167D02*
X478837Y1248167D01*
G54D10*
X467281Y1241500D02*
X467281Y1259278D01*
G54D10*
X470837Y1259278D02*
X463726Y1259278D01*
G54D10*
X457504Y1241500D02*
X457504Y1241500D01*
G54D10*
X444171Y1255944D02*
X444171Y1244833D01*
X445060Y1242611D01*
X446838Y1241500D01*
X448615Y1241500D01*
X450393Y1242611D01*
X451282Y1244833D01*
X451282Y1255944D01*
X450393Y1258167D01*
X448615Y1259278D01*
X446838Y1259278D01*
X445060Y1258167D01*
X444171Y1255944D01*
G54D10*
X432616Y1241500D02*
X432616Y1259278D01*
X437949Y1248167D01*
X437949Y1245944D01*
X430838Y1245944D01*
G54D10*
X424616Y1241500D02*
X417505Y1259278D01*
G54D10*
X404172Y1241500D02*
X411283Y1241500D01*
X411283Y1242611D01*
X410394Y1244833D01*
X405061Y1251500D01*
X404172Y1253722D01*
X404172Y1255944D01*
X405061Y1258167D01*
X406839Y1259278D01*
X408616Y1259278D01*
X410394Y1258167D01*
X411283Y1255944D01*
G54D10*
X390839Y1255944D02*
X390839Y1244833D01*
X391728Y1242611D01*
X393506Y1241500D01*
X395283Y1241500D01*
X397061Y1242611D01*
X397950Y1244833D01*
X397950Y1255944D01*
X397061Y1258167D01*
X395283Y1259278D01*
X393506Y1259278D01*
X391728Y1258167D01*
X390839Y1255944D01*
G54D10*
X377506Y1241500D02*
X384617Y1241500D01*
X384617Y1242611D01*
X383728Y1244833D01*
X378395Y1251500D01*
X377506Y1253722D01*
X377506Y1255944D01*
X378395Y1258167D01*
X380173Y1259278D01*
X381950Y1259278D01*
X383728Y1258167D01*
X384617Y1255944D01*
G54D10*
X364173Y1259278D02*
X371284Y1259278D01*
X371284Y1251500D01*
X370395Y1251500D01*
X368617Y1252611D01*
X366840Y1252611D01*
X365062Y1251500D01*
X364173Y1249278D01*
X364173Y1244833D01*
X365062Y1242611D01*
X366840Y1241500D01*
X368617Y1241500D01*
X370395Y1242611D01*
X371284Y1244833D01*
M02*
