G04 #@! TF.FileFunction,Copper,L1,Top,Signal*
%FSLAX46Y46*%
G04 Gerber Fmt 4.6, Leading zero omitted, Abs format (unit mm)*
G04 Created by KiCad (PCBNEW 4.0.0-stable) date Tue 15 Mar 2016 09:50:33 PM CET*
%MOMM*%
G01*
G04 APERTURE LIST*
%ADD10C,0.150000*%
%ADD11C,0.250000*%
%ADD12R,1.397000X1.397000*%
%ADD13C,1.397000*%
%ADD14C,1.422400*%
%ADD15R,8.000000X2.000000*%
%ADD16C,1.016000*%
%ADD17C,0.889000*%
%ADD18C,1.016000*%
%ADD19C,0.254000*%
%ADD20C,0.762000*%
G04 APERTURE END LIST*
D10*
D11*
X123741562Y-51404781D02*
X123741562Y-50404781D01*
X124074896Y-51119067D01*
X124408229Y-50404781D01*
X124408229Y-51404781D01*
X125265372Y-51357162D02*
X125170134Y-51404781D01*
X124979657Y-51404781D01*
X124884419Y-51357162D01*
X124836800Y-51261924D01*
X124836800Y-50880971D01*
X124884419Y-50785733D01*
X124979657Y-50738114D01*
X125170134Y-50738114D01*
X125265372Y-50785733D01*
X125312991Y-50880971D01*
X125312991Y-50976210D01*
X124836800Y-51071448D01*
X125884419Y-51404781D02*
X125789181Y-51357162D01*
X125741562Y-51261924D01*
X125741562Y-50404781D01*
X126408229Y-51404781D02*
X126312991Y-51357162D01*
X126265372Y-51309543D01*
X126217753Y-51214305D01*
X126217753Y-50928590D01*
X126265372Y-50833352D01*
X126312991Y-50785733D01*
X126408229Y-50738114D01*
X126551087Y-50738114D01*
X126646325Y-50785733D01*
X126693944Y-50833352D01*
X126741563Y-50928590D01*
X126741563Y-51214305D01*
X126693944Y-51309543D01*
X126646325Y-51357162D01*
X126551087Y-51404781D01*
X126408229Y-51404781D01*
X127598706Y-51404781D02*
X127598706Y-50404781D01*
X127598706Y-51357162D02*
X127503468Y-51404781D01*
X127312991Y-51404781D01*
X127217753Y-51357162D01*
X127170134Y-51309543D01*
X127122515Y-51214305D01*
X127122515Y-50928590D01*
X127170134Y-50833352D01*
X127217753Y-50785733D01*
X127312991Y-50738114D01*
X127503468Y-50738114D01*
X127598706Y-50785733D01*
X128074896Y-51404781D02*
X128074896Y-50738114D01*
X128074896Y-50404781D02*
X128027277Y-50452400D01*
X128074896Y-50500019D01*
X128122515Y-50452400D01*
X128074896Y-50404781D01*
X128074896Y-50500019D01*
X128551086Y-51404781D02*
X128551086Y-50404781D01*
X128646324Y-51023829D02*
X128932039Y-51404781D01*
X128932039Y-50738114D02*
X128551086Y-51119067D01*
X129312991Y-50500019D02*
X129360610Y-50452400D01*
X129455848Y-50404781D01*
X129693944Y-50404781D01*
X129789182Y-50452400D01*
X129836801Y-50500019D01*
X129884420Y-50595257D01*
X129884420Y-50690495D01*
X129836801Y-50833352D01*
X129265372Y-51404781D01*
X129884420Y-51404781D01*
X131027277Y-50357162D02*
X130170134Y-51642876D01*
X131265372Y-50738114D02*
X131789182Y-50738114D01*
X131265372Y-51404781D01*
X131789182Y-51404781D01*
X132360610Y-50404781D02*
X132455849Y-50404781D01*
X132551087Y-50452400D01*
X132598706Y-50500019D01*
X132646325Y-50595257D01*
X132693944Y-50785733D01*
X132693944Y-51023829D01*
X132646325Y-51214305D01*
X132598706Y-51309543D01*
X132551087Y-51357162D01*
X132455849Y-51404781D01*
X132360610Y-51404781D01*
X132265372Y-51357162D01*
X132217753Y-51309543D01*
X132170134Y-51214305D01*
X132122515Y-51023829D01*
X132122515Y-50785733D01*
X132170134Y-50595257D01*
X132217753Y-50500019D01*
X132265372Y-50452400D01*
X132360610Y-50404781D01*
X133312991Y-50404781D02*
X133408230Y-50404781D01*
X133503468Y-50452400D01*
X133551087Y-50500019D01*
X133598706Y-50595257D01*
X133646325Y-50785733D01*
X133646325Y-51023829D01*
X133598706Y-51214305D01*
X133551087Y-51309543D01*
X133503468Y-51357162D01*
X133408230Y-51404781D01*
X133312991Y-51404781D01*
X133217753Y-51357162D01*
X133170134Y-51309543D01*
X133122515Y-51214305D01*
X133074896Y-51023829D01*
X133074896Y-50785733D01*
X133122515Y-50595257D01*
X133170134Y-50500019D01*
X133217753Y-50452400D01*
X133312991Y-50404781D01*
X134074896Y-51404781D02*
X134074896Y-50738114D01*
X134074896Y-50833352D02*
X134122515Y-50785733D01*
X134217753Y-50738114D01*
X134360611Y-50738114D01*
X134455849Y-50785733D01*
X134503468Y-50880971D01*
X134503468Y-51404781D01*
X134503468Y-50880971D02*
X134551087Y-50785733D01*
X134646325Y-50738114D01*
X134789182Y-50738114D01*
X134884420Y-50785733D01*
X134932039Y-50880971D01*
X134932039Y-51404781D01*
D12*
X164550000Y-127000000D03*
D13*
X167090000Y-127000000D03*
X169630000Y-127000000D03*
X172170000Y-127000000D03*
X174710000Y-127000000D03*
D12*
X141000000Y-54960000D03*
D13*
X141000000Y-57500000D03*
X141000000Y-60040000D03*
D12*
X171730000Y-48500000D03*
D13*
X174270000Y-48500000D03*
D12*
X158030000Y-106800000D03*
D13*
X155490000Y-106800000D03*
X152950000Y-106800000D03*
X150410000Y-106800000D03*
X147870000Y-106800000D03*
X145330000Y-106800000D03*
X142790000Y-106800000D03*
X140250000Y-106800000D03*
X137710000Y-106800000D03*
X135170000Y-106800000D03*
X139810000Y-48500000D03*
X132190000Y-48500000D03*
X158310000Y-78500000D03*
X150690000Y-78500000D03*
X162690000Y-78500000D03*
X170310000Y-78500000D03*
X171300000Y-120310000D03*
X171300000Y-112690000D03*
X173600000Y-120310000D03*
X173600000Y-112690000D03*
X121600000Y-112590000D03*
X121600000Y-120210000D03*
X124100000Y-112590000D03*
X124100000Y-120210000D03*
X126600000Y-112590000D03*
X126600000Y-120210000D03*
X131600000Y-120210000D03*
X131600000Y-112590000D03*
X134100000Y-120210000D03*
X134100000Y-112590000D03*
X136600000Y-120210000D03*
X136600000Y-112590000D03*
X129100000Y-112590000D03*
X129100000Y-120210000D03*
D14*
X164960000Y-85000000D03*
X170040000Y-85000000D03*
D12*
X126190000Y-60810000D03*
D13*
X128730000Y-60810000D03*
X131270000Y-60810000D03*
X133810000Y-60810000D03*
X133810000Y-53190000D03*
X131270000Y-53190000D03*
X128730000Y-53190000D03*
X126190000Y-53190000D03*
D12*
X124990000Y-97620000D03*
D13*
X127530000Y-97620000D03*
X130070000Y-97620000D03*
X132610000Y-97620000D03*
X135150000Y-97620000D03*
X137690000Y-97620000D03*
X140230000Y-97620000D03*
X142770000Y-97620000D03*
X145310000Y-97620000D03*
X147850000Y-97620000D03*
X150390000Y-97620000D03*
X152930000Y-97620000D03*
X155470000Y-97620000D03*
X158010000Y-97620000D03*
X158010000Y-82380000D03*
X155470000Y-82380000D03*
X152930000Y-82380000D03*
X150390000Y-82380000D03*
X147850000Y-82380000D03*
X145310000Y-82380000D03*
X142770000Y-82380000D03*
X140230000Y-82380000D03*
X137690000Y-82380000D03*
X135150000Y-82380000D03*
X132610000Y-82380000D03*
X130070000Y-82380000D03*
X127530000Y-82380000D03*
X124990000Y-82380000D03*
D12*
X124610000Y-73810000D03*
D13*
X127150000Y-73810000D03*
X129690000Y-73810000D03*
X132230000Y-73810000D03*
X134770000Y-73810000D03*
X137310000Y-73810000D03*
X139850000Y-73810000D03*
X142390000Y-73810000D03*
X142390000Y-66190000D03*
X139850000Y-66190000D03*
X137310000Y-66190000D03*
X134770000Y-66190000D03*
X132230000Y-66190000D03*
X129690000Y-66190000D03*
X127150000Y-66190000D03*
X124610000Y-66190000D03*
D12*
X149580000Y-120210000D03*
D13*
X152120000Y-120210000D03*
X154660000Y-120210000D03*
X157200000Y-120210000D03*
X159740000Y-120210000D03*
X162280000Y-120210000D03*
X164820000Y-120210000D03*
X164820000Y-112590000D03*
X162280000Y-112590000D03*
X159740000Y-112590000D03*
X157200000Y-112590000D03*
X154660000Y-112590000D03*
X152120000Y-112590000D03*
X149580000Y-112590000D03*
D12*
X153380000Y-73810000D03*
D13*
X155920000Y-73810000D03*
X158460000Y-73810000D03*
X161000000Y-73810000D03*
X163540000Y-73810000D03*
X166080000Y-73810000D03*
X168620000Y-73810000D03*
X168620000Y-66190000D03*
X166080000Y-66190000D03*
X163540000Y-66190000D03*
X161000000Y-66190000D03*
X158460000Y-66190000D03*
X155920000Y-66190000D03*
X153380000Y-66190000D03*
D12*
X153380000Y-61310000D03*
D13*
X155920000Y-61310000D03*
X158460000Y-61310000D03*
X161000000Y-61310000D03*
X163540000Y-61310000D03*
X166080000Y-61310000D03*
X168620000Y-61310000D03*
X168620000Y-53690000D03*
X166080000Y-53690000D03*
X163540000Y-53690000D03*
X161000000Y-53690000D03*
X158460000Y-53690000D03*
X155920000Y-53690000D03*
X153380000Y-53690000D03*
X145700000Y-118940000D03*
X145700000Y-113860000D03*
X121500000Y-87460000D03*
X121500000Y-92540000D03*
X120500000Y-72540000D03*
X120500000Y-67460000D03*
X149500000Y-72540000D03*
X149500000Y-67460000D03*
X123500000Y-59540000D03*
X123500000Y-54460000D03*
X149500000Y-60040000D03*
X149500000Y-54960000D03*
X129040000Y-48500000D03*
X123960000Y-48500000D03*
X138500000Y-54960000D03*
X138500000Y-60040000D03*
X172500000Y-72540000D03*
X172500000Y-67460000D03*
D12*
X163230000Y-49000000D03*
D13*
X165770000Y-49000000D03*
D12*
X138600000Y-124730000D03*
D13*
X138600000Y-127270000D03*
D12*
X133600000Y-124730000D03*
D13*
X133600000Y-127270000D03*
D12*
X128480000Y-107000000D03*
D13*
X131020000Y-107000000D03*
D15*
X110860000Y-54500000D03*
X110860000Y-57020000D03*
X110860000Y-59540000D03*
X110860000Y-62060000D03*
X110860000Y-67100000D03*
X110860000Y-69620000D03*
X110860000Y-72140000D03*
X110860000Y-74660000D03*
X110860000Y-77180000D03*
X110860000Y-79700000D03*
X110860000Y-82220000D03*
X110860000Y-84740000D03*
X110860000Y-87260000D03*
X110860000Y-89780000D03*
X110860000Y-92300000D03*
X110860000Y-94820000D03*
X110860000Y-97340000D03*
X110860000Y-99860000D03*
X110860000Y-102380000D03*
X110860000Y-104900000D03*
X110860000Y-107420000D03*
X110860000Y-109940000D03*
X110860000Y-112460000D03*
X110860000Y-114980000D03*
X110860000Y-117500000D03*
X110860000Y-120020000D03*
X110860000Y-122540000D03*
X180450000Y-54500000D03*
X180450000Y-57020000D03*
X180450000Y-59540000D03*
X180450000Y-62060000D03*
X180450000Y-67100000D03*
X180450000Y-69620000D03*
X180450000Y-72140000D03*
X180450000Y-74660000D03*
X180450000Y-77180000D03*
X180450000Y-79700000D03*
X180450000Y-82220000D03*
X180450000Y-84740000D03*
X180450000Y-87260000D03*
X180450000Y-89780000D03*
X180450000Y-92300000D03*
X180450000Y-94820000D03*
X180450000Y-97340000D03*
X180450000Y-99860000D03*
X180450000Y-102380000D03*
X180450000Y-104900000D03*
X180450000Y-107420000D03*
X180450000Y-109940000D03*
X180450000Y-112460000D03*
X180450000Y-114980000D03*
X180450000Y-117500000D03*
X180450000Y-120020000D03*
X180450000Y-122540000D03*
D12*
X120650000Y-58520000D03*
D13*
X120650000Y-55980000D03*
X121500000Y-109060000D03*
X121500000Y-101440000D03*
D16*
X175687700Y-106003000D03*
X115622300Y-107420000D03*
X171366800Y-96397600D03*
X120276700Y-97573300D03*
D17*
X175225600Y-90631700D03*
X115730500Y-90631700D03*
X174700800Y-84943100D03*
X116612000Y-85003900D03*
X175737700Y-93990300D03*
X139015900Y-90927800D03*
X174154600Y-93628800D03*
X116059800Y-92679900D03*
X175747700Y-88548500D03*
X115564400Y-88548500D03*
X123725800Y-81481700D03*
X175748800Y-96018800D03*
X117059000Y-95600300D03*
X156494300Y-102536300D03*
X175594600Y-104012700D03*
X115642100Y-104128600D03*
X125103500Y-80400500D03*
D16*
X175507800Y-110636800D03*
X115622300Y-111357200D03*
D17*
X171478700Y-57063800D03*
X115771800Y-57658300D03*
X116214200Y-54864300D03*
X167360200Y-109415600D03*
X127053700Y-76019200D03*
X171790600Y-76000500D03*
X172974700Y-75984300D03*
X127798600Y-76937900D03*
X174327200Y-76440200D03*
X117287000Y-75508600D03*
X172715700Y-82305200D03*
X170892000Y-81947600D03*
X174748600Y-78739600D03*
X174716700Y-77594900D03*
X172360600Y-78869100D03*
X115567600Y-60832900D03*
D16*
X171628300Y-66255000D03*
X118380100Y-69700700D03*
X168560800Y-87555000D03*
X168805000Y-58288000D03*
X142062000Y-91741200D03*
D17*
X153519100Y-113502700D03*
X161283000Y-81439300D03*
D18*
X110860000Y-107420000D02*
X115622300Y-107420000D01*
X180450000Y-107420000D02*
X175687700Y-107420000D01*
X175687700Y-107420000D02*
X175687700Y-106003000D01*
X175687700Y-100718500D02*
X171366800Y-96397600D01*
X175687700Y-102380000D02*
X175687700Y-100718500D01*
X115622300Y-102227700D02*
X115622300Y-102380000D01*
X120276700Y-97573300D02*
X115622300Y-102227700D01*
X110860000Y-102380000D02*
X115622300Y-102380000D01*
X180450000Y-102380000D02*
X175687700Y-102380000D01*
D19*
X110860000Y-89780000D02*
X115241300Y-89780000D01*
X115241300Y-90142500D02*
X115241300Y-89780000D01*
X115730500Y-90631700D02*
X115241300Y-90142500D01*
X176068700Y-89788600D02*
X175225600Y-90631700D01*
X176068700Y-89780000D02*
X176068700Y-89788600D01*
X180450000Y-89780000D02*
X176068700Y-89780000D01*
X115505200Y-85003900D02*
X115241300Y-84740000D01*
X116612000Y-85003900D02*
X115505200Y-85003900D01*
X110860000Y-84740000D02*
X115241300Y-84740000D01*
X175865600Y-84943100D02*
X174700800Y-84943100D01*
X176068700Y-84740000D02*
X175865600Y-84943100D01*
X180450000Y-84740000D02*
X176068700Y-84740000D01*
X110860000Y-94820000D02*
X115241300Y-94820000D01*
X133242900Y-73810000D02*
X132230000Y-73810000D01*
X141371000Y-81938100D02*
X133242900Y-73810000D01*
X141371000Y-82841400D02*
X141371000Y-81938100D01*
X140209900Y-84002500D02*
X141371000Y-82841400D01*
X139015900Y-84002500D02*
X140209900Y-84002500D01*
X139015900Y-90927800D02*
X139015900Y-84002500D01*
X176068700Y-94321300D02*
X175737700Y-93990300D01*
X176068700Y-94820000D02*
X176068700Y-94321300D01*
X180450000Y-94820000D02*
X176068700Y-94820000D01*
X130127400Y-84002500D02*
X139015900Y-84002500D01*
X128800000Y-82675100D02*
X130127400Y-84002500D01*
X128800000Y-82102000D02*
X128800000Y-82675100D01*
X126938800Y-80240800D02*
X128800000Y-82102000D01*
X126440500Y-80240800D02*
X126938800Y-80240800D01*
X125772300Y-79572600D02*
X126440500Y-80240800D01*
X124457000Y-79572600D02*
X125772300Y-79572600D01*
X117084900Y-86944700D02*
X124457000Y-79572600D01*
X117084900Y-92976400D02*
X117084900Y-86944700D01*
X115241300Y-94820000D02*
X117084900Y-92976400D01*
X117900300Y-112460000D02*
X110860000Y-112460000D01*
X125350000Y-119909700D02*
X117900300Y-112460000D01*
X125350000Y-120516100D02*
X125350000Y-119909700D01*
X130654100Y-125820200D02*
X125350000Y-120516100D01*
X141954500Y-125820200D02*
X130654100Y-125820200D01*
X143924000Y-123850700D02*
X141954500Y-125820200D01*
X157302600Y-123850700D02*
X143924000Y-123850700D01*
X161564400Y-128112500D02*
X157302600Y-123850700D01*
X165386200Y-128112500D02*
X161564400Y-128112500D01*
X165640200Y-127858500D02*
X165386200Y-128112500D01*
X165640200Y-122888500D02*
X165640200Y-127858500D01*
X176068700Y-112460000D02*
X165640200Y-122888500D01*
X180450000Y-112460000D02*
X176068700Y-112460000D01*
X110860000Y-92300000D02*
X115241300Y-92300000D01*
X115621200Y-92679900D02*
X115241300Y-92300000D01*
X116059800Y-92679900D02*
X115621200Y-92679900D01*
X175483400Y-92300000D02*
X174154600Y-93628800D01*
X180450000Y-92300000D02*
X175483400Y-92300000D01*
X110860000Y-87260000D02*
X115241300Y-87260000D01*
X180450000Y-87260000D02*
X176068700Y-87260000D01*
X115241300Y-88225400D02*
X115564400Y-88548500D01*
X115241300Y-87260000D02*
X115241300Y-88225400D01*
X176068700Y-88227500D02*
X175747700Y-88548500D01*
X176068700Y-87260000D02*
X176068700Y-88227500D01*
X110860000Y-97340000D02*
X115241300Y-97340000D01*
X176068700Y-96338700D02*
X175748800Y-96018800D01*
X176068700Y-97340000D02*
X176068700Y-96338700D01*
X180450000Y-97340000D02*
X176068700Y-97340000D01*
X117936000Y-94723300D02*
X117059000Y-95600300D01*
X117936000Y-87271500D02*
X117936000Y-94723300D01*
X123725800Y-81481700D02*
X117936000Y-87271500D01*
X116981000Y-95600300D02*
X117059000Y-95600300D01*
X115241300Y-97340000D02*
X116981000Y-95600300D01*
X156604800Y-102425800D02*
X156494300Y-102536300D01*
X156604800Y-83514800D02*
X156604800Y-102425800D01*
X155470000Y-82380000D02*
X156604800Y-83514800D01*
X110860000Y-114980000D02*
X115241300Y-114980000D01*
X180450000Y-114980000D02*
X176068700Y-114980000D01*
X115241300Y-115386000D02*
X115241300Y-114980000D01*
X128231100Y-128375800D02*
X115241300Y-115386000D01*
X141175500Y-128375800D02*
X128231100Y-128375800D01*
X145192200Y-124359100D02*
X141175500Y-128375800D01*
X157092200Y-124359100D02*
X145192200Y-124359100D01*
X161354000Y-128620900D02*
X157092200Y-124359100D01*
X166996600Y-128620900D02*
X161354000Y-128620900D01*
X168382600Y-127234900D02*
X166996600Y-128620900D01*
X168382600Y-121662400D02*
X168382600Y-127234900D01*
X175064900Y-114980100D02*
X168382600Y-121662400D01*
X176068700Y-114980100D02*
X175064900Y-114980100D01*
X176068700Y-114980000D02*
X176068700Y-114980100D01*
X176068700Y-104486800D02*
X175594600Y-104012700D01*
X176068700Y-104900000D02*
X176068700Y-104486800D01*
X115241300Y-104529400D02*
X115241300Y-104900000D01*
X115642100Y-104128600D02*
X115241300Y-104529400D01*
X110860000Y-104900000D02*
X115241300Y-104900000D01*
X180450000Y-104900000D02*
X176068700Y-104900000D01*
X110860000Y-99860000D02*
X115241300Y-99860000D01*
X126979300Y-83760700D02*
X126080200Y-82861600D01*
X127968600Y-83760700D02*
X126979300Y-83760700D01*
X141500000Y-97292100D02*
X127968600Y-83760700D01*
X141500000Y-107046800D02*
X141500000Y-97292100D01*
X143102200Y-108649000D02*
X141500000Y-107046800D01*
X147166500Y-108649000D02*
X143102200Y-108649000D01*
X150850000Y-112332500D02*
X147166500Y-108649000D01*
X150850000Y-115138600D02*
X150850000Y-112332500D01*
X153267200Y-117555800D02*
X150850000Y-115138600D01*
X153267200Y-120368100D02*
X153267200Y-117555800D01*
X154702000Y-121802900D02*
X153267200Y-120368100D01*
X162273400Y-121802900D02*
X154702000Y-121802900D01*
X163729900Y-120346400D02*
X162273400Y-121802900D01*
X163729900Y-119769500D02*
X163729900Y-120346400D01*
X169660300Y-113839100D02*
X163729900Y-119769500D01*
X169660300Y-96846200D02*
X169660300Y-113839100D01*
X171048900Y-95457600D02*
X169660300Y-96846200D01*
X172953800Y-95457600D02*
X171048900Y-95457600D01*
X177356200Y-99860000D02*
X172953800Y-95457600D01*
X180450000Y-99860000D02*
X177356200Y-99860000D01*
X124358500Y-84583300D02*
X126080200Y-82861600D01*
X122802300Y-84583300D02*
X124358500Y-84583300D01*
X118833200Y-88552400D02*
X122802300Y-84583300D01*
X118833200Y-96268100D02*
X118833200Y-88552400D01*
X115241300Y-99860000D02*
X118833200Y-96268100D01*
X126080200Y-81377200D02*
X125103500Y-80400500D01*
X126080200Y-82861600D02*
X126080200Y-81377200D01*
D18*
X180450000Y-109940000D02*
X175687700Y-109940000D01*
X110860000Y-109940000D02*
X115622300Y-109940000D01*
X115622300Y-109940000D02*
X115622300Y-111357200D01*
X175687700Y-110456900D02*
X175507800Y-110636800D01*
X175687700Y-109940000D02*
X175687700Y-110456900D01*
D19*
X180450000Y-120020000D02*
X176068700Y-120020000D01*
X173604700Y-122484000D02*
X176068700Y-120020000D01*
X173604700Y-127129300D02*
X173604700Y-122484000D01*
X171059500Y-129674500D02*
X173604700Y-127129300D01*
X159891800Y-129674500D02*
X171059500Y-129674500D01*
X155618000Y-125400700D02*
X159891800Y-129674500D01*
X147802600Y-125400700D02*
X155618000Y-125400700D01*
X143794800Y-129408500D02*
X147802600Y-125400700D01*
X124629800Y-129408500D02*
X143794800Y-129408500D01*
X115241300Y-120020000D02*
X124629800Y-129408500D01*
X110860000Y-120020000D02*
X115241300Y-120020000D01*
X110860000Y-57020000D02*
X115241300Y-57020000D01*
X180450000Y-57020000D02*
X176068700Y-57020000D01*
X115241300Y-57127800D02*
X115771800Y-57658300D01*
X115241300Y-57020000D02*
X115241300Y-57127800D01*
X176024900Y-57063800D02*
X171478700Y-57063800D01*
X176068700Y-57020000D02*
X176024900Y-57063800D01*
X116597600Y-55247700D02*
X116214200Y-54864300D01*
X116597600Y-59704700D02*
X116597600Y-55247700D01*
X124610000Y-67717100D02*
X116597600Y-59704700D01*
X124610000Y-73810000D02*
X124610000Y-67717100D01*
X110860000Y-54500000D02*
X115241300Y-54500000D01*
X119549500Y-57003100D02*
X116712000Y-54165600D01*
X119549500Y-59383900D02*
X119549500Y-57003100D01*
X125880000Y-65714400D02*
X119549500Y-59383900D01*
X125880000Y-66492100D02*
X125880000Y-65714400D01*
X130942300Y-71554400D02*
X125880000Y-66492100D01*
X135054400Y-71554400D02*
X130942300Y-71554400D01*
X137310000Y-73810000D02*
X135054400Y-71554400D01*
X115702800Y-54038500D02*
X115241300Y-54500000D01*
X116584900Y-54038500D02*
X115702800Y-54038500D01*
X116712000Y-54165600D02*
X116584900Y-54038500D01*
X175378500Y-53809800D02*
X176068700Y-54500000D01*
X175378500Y-48057200D02*
X175378500Y-53809800D01*
X174730400Y-47409100D02*
X175378500Y-48057200D01*
X156110500Y-47409100D02*
X174730400Y-47409100D01*
X151930400Y-51589200D02*
X156110500Y-47409100D01*
X147967500Y-51589200D02*
X151930400Y-51589200D01*
X143754800Y-47376500D02*
X147967500Y-51589200D01*
X123501100Y-47376500D02*
X143754800Y-47376500D01*
X116712000Y-54165600D02*
X123501100Y-47376500D01*
X180450000Y-54500000D02*
X176068700Y-54500000D01*
X167360200Y-54818300D02*
X167360200Y-109415600D01*
X167208300Y-54818300D02*
X167360200Y-54818300D01*
X166080000Y-53690000D02*
X167208300Y-54818300D01*
X167491700Y-54818300D02*
X168620000Y-53690000D01*
X167360200Y-54818300D02*
X167491700Y-54818300D01*
X174882700Y-117500000D02*
X180450000Y-117500000D01*
X172450000Y-119932700D02*
X174882700Y-117500000D01*
X172450000Y-123372600D02*
X172450000Y-119932700D01*
X170900000Y-124922600D02*
X172450000Y-123372600D01*
X170900000Y-127294100D02*
X170900000Y-124922600D01*
X169046400Y-129147700D02*
X170900000Y-127294100D01*
X161162000Y-129147700D02*
X169046400Y-129147700D01*
X156881800Y-124867500D02*
X161162000Y-129147700D01*
X147616800Y-124867500D02*
X156881800Y-124867500D01*
X143596300Y-128888000D02*
X147616800Y-124867500D01*
X126629300Y-128888000D02*
X143596300Y-128888000D01*
X115241300Y-117500000D02*
X126629300Y-128888000D01*
X110860000Y-117500000D02*
X115241300Y-117500000D01*
X110860000Y-67100000D02*
X115241300Y-67100000D01*
X115241300Y-68808400D02*
X115241300Y-67100000D01*
X122452100Y-76019200D02*
X115241300Y-68808400D01*
X127053700Y-76019200D02*
X122452100Y-76019200D01*
X180450000Y-67100000D02*
X176068700Y-67100000D01*
X174068100Y-73723000D02*
X171790600Y-76000500D01*
X174068100Y-69100600D02*
X174068100Y-73723000D01*
X176068700Y-67100000D02*
X174068100Y-69100600D01*
X180450000Y-69620000D02*
X176068700Y-69620000D01*
X122559200Y-76937900D02*
X115241300Y-69620000D01*
X127798600Y-76937900D02*
X122559200Y-76937900D01*
X110860000Y-69620000D02*
X115241300Y-69620000D01*
X175560400Y-73398600D02*
X172974700Y-75984300D01*
X175560400Y-70128300D02*
X175560400Y-73398600D01*
X176068700Y-69620000D02*
X175560400Y-70128300D01*
X180450000Y-72140000D02*
X176068700Y-72140000D01*
X174327200Y-75572400D02*
X174327200Y-76440200D01*
X176068700Y-73830900D02*
X174327200Y-75572400D01*
X176068700Y-72140000D02*
X176068700Y-73830900D01*
X110860000Y-72140000D02*
X115241300Y-72140000D01*
X115241300Y-73462900D02*
X117287000Y-75508600D01*
X115241300Y-72140000D02*
X115241300Y-73462900D01*
X110860000Y-79700000D02*
X115241300Y-79700000D01*
X180450000Y-79700000D02*
X176068700Y-79700000D01*
X173463500Y-82305200D02*
X172715700Y-82305200D01*
X176068700Y-79700000D02*
X173463500Y-82305200D01*
X129454200Y-79224200D02*
X132610000Y-82380000D01*
X126861500Y-79224200D02*
X129454200Y-79224200D01*
X126157100Y-78519800D02*
X126861500Y-79224200D01*
X116421500Y-78519800D02*
X126157100Y-78519800D01*
X115241300Y-79700000D02*
X116421500Y-78519800D01*
X134035800Y-83494200D02*
X135150000Y-82380000D01*
X132190000Y-83494200D02*
X134035800Y-83494200D01*
X131340000Y-82644200D02*
X132190000Y-83494200D01*
X131340000Y-82109200D02*
X131340000Y-82644200D01*
X128963300Y-79732500D02*
X131340000Y-82109200D01*
X126651000Y-79732500D02*
X128963300Y-79732500D01*
X125946600Y-79028100D02*
X126651000Y-79732500D01*
X123659500Y-79028100D02*
X125946600Y-79028100D01*
X120467600Y-82220000D02*
X123659500Y-79028100D01*
X110860000Y-82220000D02*
X120467600Y-82220000D01*
X172075500Y-83131100D02*
X170892000Y-81947600D01*
X175157600Y-83131100D02*
X172075500Y-83131100D01*
X176068700Y-82220000D02*
X175157600Y-83131100D01*
X180450000Y-82220000D02*
X176068700Y-82220000D01*
X110860000Y-77180000D02*
X115241300Y-77180000D01*
X180450000Y-77180000D02*
X176068700Y-77180000D01*
X134025900Y-78715900D02*
X137690000Y-82380000D01*
X127072000Y-78715900D02*
X134025900Y-78715900D01*
X126367600Y-78011500D02*
X127072000Y-78715900D01*
X116072800Y-78011500D02*
X126367600Y-78011500D01*
X115241300Y-77180000D02*
X116072800Y-78011500D01*
X176068700Y-77419500D02*
X174748600Y-78739600D01*
X176068700Y-77180000D02*
X176068700Y-77419500D01*
X180450000Y-74660000D02*
X176068700Y-74660000D01*
X110860000Y-74660000D02*
X115241300Y-74660000D01*
X176068700Y-76242900D02*
X174716700Y-77594900D01*
X176068700Y-74660000D02*
X176068700Y-76242900D01*
X135613700Y-77763700D02*
X140230000Y-82380000D01*
X127456600Y-77763700D02*
X135613700Y-77763700D01*
X127196000Y-77503100D02*
X127456600Y-77763700D01*
X118084400Y-77503100D02*
X127196000Y-77503100D01*
X115241300Y-74660000D02*
X118084400Y-77503100D01*
X110860000Y-59540000D02*
X115241300Y-59540000D01*
X115442600Y-59540000D02*
X115241300Y-59540000D01*
X122574400Y-66671800D02*
X115442600Y-59540000D01*
X122574400Y-73741700D02*
X122574400Y-66671800D01*
X123722600Y-74889900D02*
X122574400Y-73741700D01*
X125466300Y-74889900D02*
X123722600Y-74889900D01*
X125954300Y-74401900D02*
X125466300Y-74889900D01*
X125954300Y-73407400D02*
X125954300Y-74401900D01*
X126659100Y-72702600D02*
X125954300Y-73407400D01*
X135206100Y-72702600D02*
X126659100Y-72702600D01*
X135895100Y-73391600D02*
X135206100Y-72702600D01*
X135895100Y-75505100D02*
X135895100Y-73391600D01*
X142770000Y-82380000D02*
X135895100Y-75505100D01*
X180450000Y-59540000D02*
X176068700Y-59540000D01*
X170877200Y-77385700D02*
X172360600Y-78869100D01*
X170877200Y-71572500D02*
X170877200Y-77385700D01*
X174233500Y-68216200D02*
X170877200Y-71572500D01*
X174233500Y-61375200D02*
X174233500Y-68216200D01*
X176068700Y-59540000D02*
X174233500Y-61375200D01*
X115241300Y-61159200D02*
X115241300Y-62060000D01*
X115567600Y-60832900D02*
X115241300Y-61159200D01*
X110860000Y-62060000D02*
X115241300Y-62060000D01*
D18*
X120500000Y-71820600D02*
X118380100Y-69700700D01*
X120500000Y-72540000D02*
X120500000Y-71820600D01*
X168620000Y-69263300D02*
X168620000Y-73810000D01*
X171628300Y-66255000D02*
X168620000Y-69263300D01*
X168560800Y-73869200D02*
X168560800Y-87555000D01*
X168620000Y-73810000D02*
X168560800Y-73869200D01*
X168620000Y-58473000D02*
X168805000Y-58288000D01*
X168620000Y-61310000D02*
X168620000Y-58473000D01*
X174270000Y-52191300D02*
X174270000Y-48500000D01*
X168805000Y-57656300D02*
X174270000Y-52191300D01*
X168805000Y-58288000D02*
X168805000Y-57656300D01*
X130190900Y-59349100D02*
X128730000Y-60810000D01*
X132349100Y-59349100D02*
X130190900Y-59349100D01*
X133810000Y-60810000D02*
X132349100Y-59349100D01*
X123500000Y-59540000D02*
X123500000Y-59349100D01*
X122028900Y-50431100D02*
X123960000Y-48500000D01*
X122028900Y-55293000D02*
X122028900Y-50431100D01*
X123500000Y-56764100D02*
X122028900Y-55293000D01*
X123500000Y-59349100D02*
X123500000Y-56764100D01*
X127269100Y-59349100D02*
X123500000Y-59349100D01*
X128730000Y-60810000D02*
X127269100Y-59349100D01*
X124100000Y-120210000D02*
X121600000Y-120210000D01*
X151000000Y-71040000D02*
X149500000Y-72540000D01*
X151000000Y-66727000D02*
X151000000Y-71040000D01*
X149500000Y-65227000D02*
X151000000Y-66727000D01*
X149500000Y-60040000D02*
X149500000Y-65227000D01*
X164550000Y-127000000D02*
X163089200Y-127000000D01*
X146432200Y-118940000D02*
X145700000Y-118940000D01*
X147164400Y-118207800D02*
X146432200Y-118940000D01*
X147164400Y-113172000D02*
X147164400Y-118207800D01*
X146075300Y-112082900D02*
X147164400Y-113172000D01*
X142992900Y-112082900D02*
X146075300Y-112082900D01*
X137710000Y-106800000D02*
X142992900Y-112082900D01*
X164820000Y-120516700D02*
X160713000Y-124623700D01*
X164820000Y-120210000D02*
X164820000Y-120516700D01*
X158781500Y-122692300D02*
X160713000Y-124623700D01*
X149566700Y-122692300D02*
X158781500Y-122692300D01*
X146432200Y-119557800D02*
X149566700Y-122692300D01*
X146432200Y-118940000D02*
X146432200Y-119557800D01*
X160713000Y-124623700D02*
X163089200Y-127000000D01*
X127530000Y-87460000D02*
X137690000Y-97620000D01*
X121500000Y-87460000D02*
X127530000Y-87460000D01*
X132690900Y-105329100D02*
X137690000Y-105329100D01*
X131020000Y-107000000D02*
X132690900Y-105329100D01*
X137690000Y-97620000D02*
X137690000Y-105329100D01*
X137690000Y-106780000D02*
X137710000Y-106800000D01*
X137690000Y-105329100D02*
X137690000Y-106780000D01*
X129794600Y-54665400D02*
X131270000Y-53190000D01*
X123705400Y-54665400D02*
X129794600Y-54665400D01*
X123500000Y-54460000D02*
X123705400Y-54665400D01*
X149580000Y-112590000D02*
X149580000Y-120210000D01*
X155689300Y-63880700D02*
X154574300Y-64995700D01*
X160969300Y-63880700D02*
X155689300Y-63880700D01*
X163540000Y-61310000D02*
X160969300Y-63880700D01*
X154574300Y-64995700D02*
X153380000Y-66190000D01*
X153380000Y-53690000D02*
X150805000Y-56265000D01*
X149500000Y-54960000D02*
X150805000Y-56265000D01*
X151919100Y-62340500D02*
X154574300Y-64995700D01*
X151919100Y-57379100D02*
X151919100Y-62340500D01*
X150805000Y-56265000D02*
X151919100Y-57379100D01*
X148028100Y-79623500D02*
X149317300Y-80912700D01*
X148028100Y-68931900D02*
X148028100Y-79623500D01*
X149500000Y-67460000D02*
X148028100Y-68931900D01*
X151462700Y-80912700D02*
X152930000Y-82380000D01*
X149317300Y-80912700D02*
X151462700Y-80912700D01*
X142230000Y-113860000D02*
X135170000Y-106800000D01*
X145700000Y-113860000D02*
X142230000Y-113860000D01*
X122971500Y-107588500D02*
X121500000Y-109060000D01*
X122971500Y-94011500D02*
X122971500Y-107588500D01*
X121500000Y-92540000D02*
X122971500Y-94011500D01*
X149317300Y-80912700D02*
X147850000Y-82380000D01*
X142062000Y-88168000D02*
X142062000Y-91741200D01*
X147850000Y-82380000D02*
X142062000Y-88168000D01*
D19*
X154470200Y-74719800D02*
X150690000Y-78500000D01*
X154470200Y-72719800D02*
X154470200Y-74719800D01*
X161000000Y-66190000D02*
X154470200Y-72719800D01*
X162427500Y-78237500D02*
X162690000Y-78500000D01*
X162427500Y-67302500D02*
X162427500Y-78237500D01*
X163540000Y-66190000D02*
X162427500Y-67302500D01*
X133600000Y-124730000D02*
X133600000Y-124190100D01*
X132902200Y-124012200D02*
X129100000Y-120210000D01*
X133600000Y-124012200D02*
X132902200Y-124012200D01*
X133600000Y-124190100D02*
X133600000Y-124012200D01*
X135350000Y-113840000D02*
X136600000Y-112590000D01*
X135350000Y-122262200D02*
X135350000Y-113840000D01*
X133600000Y-124012200D02*
X135350000Y-122262200D01*
X135207900Y-111482100D02*
X134100000Y-112590000D01*
X137023400Y-111482100D02*
X135207900Y-111482100D01*
X138600000Y-113058700D02*
X137023400Y-111482100D01*
X138600000Y-124730000D02*
X138600000Y-113058700D01*
X132393500Y-61933500D02*
X131270000Y-60810000D01*
X134221600Y-61933500D02*
X132393500Y-61933500D01*
X138500000Y-57655100D02*
X134221600Y-61933500D01*
X138500000Y-54960000D02*
X138500000Y-57655100D01*
X163230000Y-49000000D02*
X162150200Y-49000000D01*
X159052600Y-52097600D02*
X162150200Y-49000000D01*
X143407600Y-52097600D02*
X159052600Y-52097600D01*
X139810000Y-48500000D02*
X143407600Y-52097600D01*
X135120000Y-53190000D02*
X133810000Y-53190000D01*
X139810000Y-48500000D02*
X135120000Y-53190000D01*
X170150200Y-49000000D02*
X170650200Y-48500000D01*
X165770000Y-49000000D02*
X170150200Y-49000000D01*
X171730000Y-48500000D02*
X170650200Y-48500000D01*
D20*
X128480000Y-99210000D02*
X130070000Y-97620000D01*
X128480000Y-107000000D02*
X128480000Y-99210000D01*
D19*
X158010000Y-105700200D02*
X158030000Y-105720200D01*
X158010000Y-97620000D02*
X158010000Y-105700200D01*
X158030000Y-106800000D02*
X158030000Y-105720200D01*
X155470000Y-106780000D02*
X155470000Y-97620000D01*
X155490000Y-106800000D02*
X155470000Y-106780000D01*
X152950000Y-97640000D02*
X152950000Y-106800000D01*
X152930000Y-97620000D02*
X152950000Y-97640000D01*
X150410000Y-97640000D02*
X150410000Y-106800000D01*
X150390000Y-97620000D02*
X150410000Y-97640000D01*
X147870000Y-97640000D02*
X147870000Y-106800000D01*
X147850000Y-97620000D02*
X147870000Y-97640000D01*
X145330000Y-97640000D02*
X145330000Y-106800000D01*
X145310000Y-97620000D02*
X145330000Y-97640000D01*
X142770000Y-106780000D02*
X142790000Y-106800000D01*
X142770000Y-97620000D02*
X142770000Y-106780000D01*
X140250000Y-97640000D02*
X140250000Y-106800000D01*
X140230000Y-97620000D02*
X140250000Y-97640000D01*
X169630000Y-121980000D02*
X171300000Y-120310000D01*
X169630000Y-127000000D02*
X169630000Y-121980000D01*
X173091700Y-126078300D02*
X172170000Y-127000000D01*
X173091700Y-120818300D02*
X173091700Y-126078300D01*
X173600000Y-120310000D02*
X173091700Y-120818300D01*
X141000000Y-54960000D02*
X141000000Y-56039800D01*
X125449500Y-63052400D02*
X133657700Y-63052400D01*
X122060800Y-59663700D02*
X125449500Y-63052400D01*
X122060800Y-57390800D02*
X122060800Y-59663700D01*
X120650000Y-55980000D02*
X122060800Y-57390800D01*
X140933100Y-56039800D02*
X141000000Y-56039800D01*
X133920500Y-63052400D02*
X140933100Y-56039800D01*
X133657700Y-63052400D02*
X133920500Y-63052400D01*
X133657700Y-68629500D02*
X133657700Y-63052400D01*
X138580000Y-73551800D02*
X133657700Y-68629500D01*
X138580000Y-76023300D02*
X138580000Y-73551800D01*
X143879000Y-81322300D02*
X138580000Y-76023300D01*
X143879000Y-84573700D02*
X143879000Y-81322300D01*
X141164100Y-87288600D02*
X143879000Y-84573700D01*
X141164100Y-92172000D02*
X141164100Y-87288600D01*
X142011100Y-93019000D02*
X141164100Y-92172000D01*
X142242000Y-93019000D02*
X142011100Y-93019000D01*
X146580000Y-97357000D02*
X142242000Y-93019000D01*
X146580000Y-107050800D02*
X146580000Y-97357000D01*
X147669800Y-108140600D02*
X146580000Y-107050800D01*
X149277200Y-108140600D02*
X147669800Y-108140600D01*
X153519100Y-112382500D02*
X149277200Y-108140600D01*
X153519100Y-113502700D02*
X153519100Y-112382500D01*
X158310000Y-79704100D02*
X158310000Y-78500000D01*
X163605900Y-85000000D02*
X158310000Y-79704100D01*
X164960000Y-85000000D02*
X163605900Y-85000000D01*
X155920000Y-66190000D02*
X158460000Y-66190000D01*
X159730000Y-77080000D02*
X158310000Y-78500000D01*
X159730000Y-69134100D02*
X159730000Y-77080000D01*
X162115100Y-66749000D02*
X159730000Y-69134100D01*
X162115100Y-65683000D02*
X162115100Y-66749000D01*
X161492700Y-65060600D02*
X162115100Y-65683000D01*
X159589400Y-65060600D02*
X161492700Y-65060600D01*
X158460000Y-66190000D02*
X159589400Y-65060600D01*
X170310000Y-71236900D02*
X170310000Y-78500000D01*
X173591900Y-67955000D02*
X170310000Y-71236900D01*
X173591900Y-66931200D02*
X173591900Y-67955000D01*
X171996300Y-65335600D02*
X173591900Y-66931200D01*
X169474400Y-65335600D02*
X171996300Y-65335600D01*
X168620000Y-66190000D02*
X169474400Y-65335600D01*
X170040000Y-78770000D02*
X170040000Y-85000000D01*
X170310000Y-78500000D02*
X170040000Y-78770000D01*
X155744500Y-121294500D02*
X154660000Y-120210000D01*
X160183600Y-121294500D02*
X155744500Y-121294500D01*
X161010000Y-120468100D02*
X160183600Y-121294500D01*
X161010000Y-119828800D02*
X161010000Y-120468100D01*
X168186100Y-112652700D02*
X161010000Y-119828800D01*
X168186100Y-89909200D02*
X168186100Y-112652700D01*
X170040000Y-88055300D02*
X168186100Y-89909200D01*
X170040000Y-85000000D02*
X170040000Y-88055300D01*
X125350000Y-112272000D02*
X123634000Y-110556000D01*
X125350000Y-112908400D02*
X125350000Y-112272000D01*
X128703400Y-116261800D02*
X125350000Y-112908400D01*
X130151800Y-116261800D02*
X128703400Y-116261800D01*
X134100000Y-120210000D02*
X130151800Y-116261800D01*
X124990000Y-109200000D02*
X123634000Y-110556000D01*
X124990000Y-97620000D02*
X124990000Y-109200000D01*
X123634000Y-110556000D02*
X121600000Y-112590000D01*
X124040000Y-112650000D02*
X131600000Y-120210000D01*
X123018100Y-113671900D02*
X124040000Y-112650000D01*
X121136400Y-113671900D02*
X123018100Y-113671900D01*
X120481100Y-113016600D02*
X121136400Y-113671900D01*
X120481100Y-111628800D02*
X120481100Y-113016600D01*
X123910200Y-108199700D02*
X120481100Y-111628800D01*
X123910200Y-96659100D02*
X123910200Y-108199700D01*
X124029200Y-96540100D02*
X123910200Y-96659100D01*
X131530100Y-96540100D02*
X124029200Y-96540100D01*
X132610000Y-97620000D02*
X131530100Y-96540100D01*
X124040000Y-112650000D02*
X124100000Y-112590000D01*
X129570200Y-112119800D02*
X129100000Y-112590000D01*
X129570200Y-103199800D02*
X129570200Y-112119800D01*
X135150000Y-97620000D02*
X129570200Y-103199800D01*
X159153500Y-83523500D02*
X158010000Y-82380000D01*
X159153500Y-108800900D02*
X159153500Y-83523500D01*
X158648800Y-109305600D02*
X159153500Y-108800900D01*
X158648800Y-119118800D02*
X158648800Y-109305600D01*
X159740000Y-120210000D02*
X158648800Y-119118800D01*
X151501400Y-83491400D02*
X150390000Y-82380000D01*
X153354000Y-83491400D02*
X151501400Y-83491400D01*
X154371000Y-82474400D02*
X153354000Y-83491400D01*
X154371000Y-77899000D02*
X154371000Y-82474400D01*
X158460000Y-73810000D02*
X154371000Y-77899000D01*
X166080000Y-76642300D02*
X161283000Y-81439300D01*
X166080000Y-73810000D02*
X166080000Y-76642300D01*
X159915900Y-52605900D02*
X161000000Y-53690000D01*
X149978400Y-52605900D02*
X159915900Y-52605900D01*
X138599600Y-63984700D02*
X149978400Y-52605900D01*
X136975300Y-63984700D02*
X138599600Y-63984700D01*
X134770000Y-66190000D02*
X136975300Y-63984700D01*
X155920000Y-53690000D02*
X155920000Y-61310000D01*
M02*
