M48
INCH,TZ
T1C0.025
T2C0.030
T3C0.032
T4C0.032
%
G90
G05
T1
X4.5498Y-3.4862
X4.5499Y-2.395
X4.5528Y-4.0996
X4.5563Y-3.5682
X4.5579Y-2.27
X4.5693Y-3.6488
X4.5754Y-2.16
X4.591Y-3.3466
X4.6086Y-3.7638
X4.6176Y-2.9728
X4.8711Y-3.2079
X4.9253Y-3.1654
X5.0021Y-2.9929
X5.0314Y-3.0291
X5.4731Y-3.5798
X6.0441Y-4.4686
X6.1612Y-4.0369
X6.3497Y-3.2063
X6.589Y-4.3077
X6.728Y-3.2263
X6.7511Y-2.2466
X6.7634Y-2.9921
X6.7859Y-3.1051
X6.7998Y-3.2404
X6.81Y-2.9915
X6.8565Y-3.6862
X6.8633Y-3.0095
X6.878Y-3.3442
X6.8786Y-3.0549
X6.8799Y-3.1
X6.8986Y-3.5682
X6.9132Y-4.095
X6.9188Y-3.7004
X6.9192Y-3.4862
X6.9192Y-3.7803
T2
X4.5521Y-4.2291
X4.5521Y-4.3841
X4.6606Y-2.7441
X4.7353Y-3.8415
X5.593Y-3.6119
X6.4945Y-3.3465
X6.6363Y-3.447
X6.6459Y-2.2948
X6.6945Y-3.3465
X6.7467Y-3.7952
X6.757Y-2.6085
X6.9098Y-4.3558
X6.9168Y-4.1733
T3
X4.7441Y-2.6559
X4.7441Y-2.8559
X4.75Y-2.2039
X4.75Y-2.3039
X4.7835Y-3.4433
X4.7835Y-3.6433
X4.7874Y-4.4327
X4.7874Y-4.7327
X4.8622Y-2.1441
X4.8622Y-2.3441
X4.8803Y-1.9094
X4.8858Y-4.4327
X4.8858Y-4.7327
X4.9059Y-2.6059
X4.9059Y-2.9059
X4.9209Y-3.2433
X4.9209Y-3.8433
X4.9681Y-2.0941
X4.9681Y-2.3941
X4.9843Y-4.4327
X4.9843Y-4.7327
X5.0059Y-2.6059
X5.0059Y-2.9059
X5.0209Y-3.2433
X5.0209Y-3.8433
X5.0583Y-4.2126
X5.0681Y-2.0941
X5.0681Y-2.3941
X5.0803Y-1.9094
X5.0827Y-4.4327
X5.0827Y-4.7327
X5.1059Y-2.6059
X5.1059Y-2.9059
X5.1209Y-3.2433
X5.1209Y-3.8433
X5.1583Y-4.2126
X5.1681Y-2.0941
X5.1681Y-2.3941
X5.1811Y-4.4327
X5.1811Y-4.7327
X5.2043Y-1.9094
X5.2059Y-2.6059
X5.2059Y-2.9059
X5.2209Y-3.2433
X5.2209Y-3.8433
X5.2598Y-4.9106
X5.2598Y-5.0106
X5.2681Y-2.0941
X5.2681Y-2.3941
X5.2795Y-4.4327
X5.2795Y-4.7327
X5.3059Y-2.6059
X5.3059Y-2.9059
X5.3209Y-3.2433
X5.3209Y-3.8433
X5.3217Y-4.2047
X5.378Y-4.4327
X5.378Y-4.7327
X5.4059Y-2.6059
X5.4059Y-2.9059
X5.4209Y-3.2433
X5.4209Y-3.8433
X5.4217Y-4.2047
X5.4528Y-2.1638
X5.4528Y-2.3638
X5.4567Y-4.9106
X5.4567Y-5.0106
X5.5043Y-1.9094
X5.5059Y-2.6059
X5.5059Y-2.9059
X5.5209Y-3.2433
X5.5209Y-3.8433
X5.5217Y-4.2047
X5.5512Y-2.1638
X5.5512Y-2.2638
X5.5512Y-2.3638
X5.6059Y-2.6059
X5.6059Y-2.9059
X5.6209Y-3.2433
X5.6209Y-3.8433
X5.6217Y-4.2047
X5.7209Y-3.2433
X5.7209Y-3.8433
X5.7217Y-4.2047
X5.7362Y-4.4827
X5.7362Y-4.6827
X5.8209Y-3.2433
X5.8209Y-3.8433
X5.8217Y-4.2047
X5.8858Y-2.1638
X5.8858Y-2.3638
X5.8858Y-2.6559
X5.8858Y-2.8559
X5.889Y-4.4327
X5.889Y-4.7327
X5.9209Y-3.2433
X5.9209Y-3.8433
X5.9217Y-4.2047
X5.9327Y-3.0906
X5.989Y-4.4327
X5.989Y-4.7327
X6.0209Y-3.2433
X6.0209Y-3.8433
X6.0217Y-4.2047
X6.0386Y-2.1138
X6.0386Y-2.4138
X6.0386Y-2.6059
X6.0386Y-2.9059
X6.089Y-4.4327
X6.089Y-4.7327
X6.1209Y-3.2433
X6.1209Y-3.8433
X6.1217Y-4.2047
X6.1386Y-2.1138
X6.1386Y-2.4138
X6.1386Y-2.6059
X6.1386Y-2.9059
X6.189Y-4.4327
X6.189Y-4.7327
X6.2209Y-3.2433
X6.2209Y-3.8433
X6.2217Y-4.2047
X6.2327Y-3.0906
X6.2386Y-2.1138
X6.2386Y-2.4138
X6.2386Y-2.6059
X6.2386Y-2.9059
X6.289Y-4.4327
X6.289Y-4.7327
X6.3386Y-2.1138
X6.3386Y-2.4138
X6.3386Y-2.6059
X6.3386Y-2.9059
X6.389Y-4.4327
X6.389Y-4.7327
X6.4051Y-3.0906
X6.4264Y-1.9291
X6.4386Y-2.1138
X6.4386Y-2.4138
X6.4386Y-2.6059
X6.4386Y-2.9059
X6.4783Y-5.
X6.489Y-4.4327
X6.489Y-4.7327
X6.5264Y-1.9291
X6.5386Y-2.1138
X6.5386Y-2.4138
X6.5386Y-2.6059
X6.5386Y-2.9059
X6.5783Y-5.
X6.6386Y-2.1138
X6.6386Y-2.4138
X6.6386Y-2.6059
X6.6386Y-2.9059
X6.6783Y-5.
X6.7051Y-3.0906
X6.7441Y-4.4366
X6.7441Y-4.7366
X6.761Y-1.9094
X6.7783Y-5.
X6.7913Y-2.6559
X6.7913Y-2.8559
X6.8346Y-4.4366
X6.8346Y-4.7366
X6.861Y-1.9094
X6.8783Y-5.
T4
X4.7835Y-3.9937
X4.7835Y-4.2937
T0
M30
