G04 #@! TF.FileFunction,Soldermask,Bot*
%FSLAX46Y46*%
G04 Gerber Fmt 4.6, Leading zero omitted, Abs format (unit mm)*
G04 Created by KiCad (PCBNEW 4.0.0-stable) date Tue 15 Mar 2016 09:50:33 PM CET*
%MOMM*%
G01*
G04 APERTURE LIST*
%ADD10C,0.150000*%
G04 APERTURE END LIST*
D10*
G36*
X134798500Y-125928500D02*
X134557556Y-125928500D01*
X134487908Y-125938398D01*
X134423774Y-125967307D01*
X134370234Y-126012939D01*
X134331526Y-126071681D01*
X134310715Y-126138880D01*
X134309450Y-126209217D01*
X134327830Y-126277121D01*
X134380164Y-126354659D01*
X134533274Y-126508841D01*
X134663340Y-126704607D01*
X134752910Y-126921919D01*
X134798219Y-127150749D01*
X134798218Y-127150801D01*
X134798551Y-127152481D01*
X134794803Y-127420939D01*
X134794424Y-127422608D01*
X134794423Y-127422664D01*
X134742742Y-127650140D01*
X134647143Y-127864859D01*
X134511658Y-128056920D01*
X134341448Y-128219009D01*
X134142995Y-128344951D01*
X133923863Y-128429946D01*
X133692392Y-128470761D01*
X133457406Y-128465838D01*
X133227849Y-128415367D01*
X133012463Y-128321267D01*
X132819466Y-128187131D01*
X132656190Y-128018054D01*
X132528865Y-127820486D01*
X132442343Y-127601955D01*
X132399914Y-127370775D01*
X132403196Y-127135754D01*
X132452062Y-126905855D01*
X132544656Y-126689818D01*
X132677445Y-126495884D01*
X132819148Y-126357119D01*
X132861985Y-126301317D01*
X132887580Y-126235790D01*
X132893906Y-126165727D01*
X132880463Y-126096675D01*
X132848315Y-126034103D01*
X132800007Y-125982964D01*
X132739364Y-125947307D01*
X132644233Y-125928500D01*
X132401500Y-125928500D01*
X132401500Y-123531500D01*
X134798500Y-123531500D01*
X134798500Y-125928500D01*
X134798500Y-125928500D01*
G37*
G36*
X139798500Y-125928500D02*
X139557556Y-125928500D01*
X139487908Y-125938398D01*
X139423774Y-125967307D01*
X139370234Y-126012939D01*
X139331526Y-126071681D01*
X139310715Y-126138880D01*
X139309450Y-126209217D01*
X139327830Y-126277121D01*
X139380164Y-126354659D01*
X139533274Y-126508841D01*
X139663340Y-126704607D01*
X139752910Y-126921919D01*
X139798219Y-127150749D01*
X139798218Y-127150801D01*
X139798551Y-127152481D01*
X139794803Y-127420939D01*
X139794424Y-127422608D01*
X139794423Y-127422664D01*
X139742742Y-127650140D01*
X139647143Y-127864859D01*
X139511658Y-128056920D01*
X139341448Y-128219009D01*
X139142995Y-128344951D01*
X138923863Y-128429946D01*
X138692392Y-128470761D01*
X138457406Y-128465838D01*
X138227849Y-128415367D01*
X138012463Y-128321267D01*
X137819466Y-128187131D01*
X137656190Y-128018054D01*
X137528865Y-127820486D01*
X137442343Y-127601955D01*
X137399914Y-127370775D01*
X137403196Y-127135754D01*
X137452062Y-126905855D01*
X137544656Y-126689818D01*
X137677445Y-126495884D01*
X137819148Y-126357119D01*
X137861985Y-126301317D01*
X137887580Y-126235790D01*
X137893906Y-126165727D01*
X137880463Y-126096675D01*
X137848315Y-126034103D01*
X137800007Y-125982964D01*
X137739364Y-125947307D01*
X137644233Y-125928500D01*
X137401500Y-125928500D01*
X137401500Y-123531500D01*
X139798500Y-123531500D01*
X139798500Y-125928500D01*
X139798500Y-125928500D01*
G37*
G36*
X174835883Y-125802287D02*
X175066124Y-125849549D01*
X175282798Y-125940631D01*
X175477655Y-126072063D01*
X175643276Y-126238844D01*
X175773340Y-126434607D01*
X175862910Y-126651919D01*
X175908219Y-126880749D01*
X175908218Y-126880801D01*
X175908551Y-126882481D01*
X175904803Y-127150939D01*
X175904424Y-127152608D01*
X175904423Y-127152664D01*
X175852742Y-127380140D01*
X175757143Y-127594859D01*
X175621658Y-127786920D01*
X175451448Y-127949009D01*
X175252995Y-128074951D01*
X175033863Y-128159946D01*
X174802392Y-128200761D01*
X174567406Y-128195838D01*
X174337849Y-128145367D01*
X174122463Y-128051267D01*
X173929466Y-127917131D01*
X173766189Y-127748053D01*
X173651602Y-127570250D01*
X173605553Y-127517068D01*
X173546511Y-127478820D01*
X173479151Y-127458535D01*
X173408807Y-127457820D01*
X173341048Y-127476730D01*
X173281240Y-127513769D01*
X173234119Y-127566003D01*
X173221765Y-127588306D01*
X173081658Y-127786920D01*
X172911448Y-127949009D01*
X172712995Y-128074951D01*
X172493863Y-128159946D01*
X172262392Y-128200761D01*
X172027406Y-128195838D01*
X171797849Y-128145367D01*
X171582463Y-128051267D01*
X171389466Y-127917131D01*
X171226189Y-127748053D01*
X171111602Y-127570250D01*
X171065553Y-127517068D01*
X171006511Y-127478820D01*
X170939151Y-127458535D01*
X170868807Y-127457820D01*
X170801048Y-127476730D01*
X170741240Y-127513769D01*
X170694119Y-127566003D01*
X170681765Y-127588306D01*
X170541658Y-127786920D01*
X170371448Y-127949009D01*
X170172995Y-128074951D01*
X169953863Y-128159946D01*
X169722392Y-128200761D01*
X169487406Y-128195838D01*
X169257849Y-128145367D01*
X169042463Y-128051267D01*
X168849466Y-127917131D01*
X168686189Y-127748053D01*
X168571602Y-127570250D01*
X168525553Y-127517068D01*
X168466511Y-127478820D01*
X168399151Y-127458535D01*
X168328807Y-127457820D01*
X168261048Y-127476730D01*
X168201240Y-127513769D01*
X168154119Y-127566003D01*
X168141765Y-127588306D01*
X168001658Y-127786920D01*
X167831448Y-127949009D01*
X167632995Y-128074951D01*
X167413863Y-128159946D01*
X167182392Y-128200761D01*
X166947406Y-128195838D01*
X166717849Y-128145367D01*
X166502463Y-128051267D01*
X166309466Y-127917131D01*
X166178335Y-127781341D01*
X166122833Y-127738116D01*
X166057487Y-127712065D01*
X165987470Y-127705249D01*
X165918326Y-127718211D01*
X165855530Y-127749921D01*
X165804055Y-127797871D01*
X165767977Y-127858263D01*
X165748500Y-127955006D01*
X165748500Y-128198500D01*
X163351500Y-128198500D01*
X163351500Y-125801500D01*
X165748500Y-125801500D01*
X165748500Y-126041419D01*
X165758398Y-126111067D01*
X165787307Y-126175201D01*
X165832939Y-126228741D01*
X165891681Y-126267449D01*
X165958880Y-126288260D01*
X166029217Y-126289525D01*
X166097121Y-126271145D01*
X166173415Y-126220038D01*
X166335375Y-126061436D01*
X166532047Y-125932737D01*
X166749972Y-125844689D01*
X166980851Y-125800646D01*
X167215883Y-125802287D01*
X167446124Y-125849549D01*
X167662798Y-125940631D01*
X167857655Y-126072063D01*
X168023276Y-126238844D01*
X168150730Y-126430678D01*
X168197516Y-126483212D01*
X168257087Y-126520632D01*
X168324723Y-126539975D01*
X168395071Y-126539708D01*
X168462559Y-126519854D01*
X168521844Y-126481984D01*
X168565238Y-126433572D01*
X168707444Y-126225885D01*
X168875375Y-126061436D01*
X169072047Y-125932737D01*
X169289972Y-125844689D01*
X169520851Y-125800646D01*
X169755883Y-125802287D01*
X169986124Y-125849549D01*
X170202798Y-125940631D01*
X170397655Y-126072063D01*
X170563276Y-126238844D01*
X170690730Y-126430678D01*
X170737516Y-126483212D01*
X170797087Y-126520632D01*
X170864723Y-126539975D01*
X170935071Y-126539708D01*
X171002559Y-126519854D01*
X171061844Y-126481984D01*
X171105238Y-126433572D01*
X171247444Y-126225885D01*
X171415375Y-126061436D01*
X171612047Y-125932737D01*
X171829972Y-125844689D01*
X172060851Y-125800646D01*
X172295883Y-125802287D01*
X172526124Y-125849549D01*
X172742798Y-125940631D01*
X172937655Y-126072063D01*
X173103276Y-126238844D01*
X173230730Y-126430678D01*
X173277516Y-126483212D01*
X173337087Y-126520632D01*
X173404723Y-126539975D01*
X173475071Y-126539708D01*
X173542559Y-126519854D01*
X173601844Y-126481984D01*
X173645238Y-126433572D01*
X173787444Y-126225885D01*
X173955375Y-126061436D01*
X174152047Y-125932737D01*
X174369972Y-125844689D01*
X174600851Y-125800646D01*
X174835883Y-125802287D01*
X174835883Y-125802287D01*
G37*
G36*
X115360000Y-82990000D02*
X115369898Y-83059648D01*
X115380000Y-83082059D01*
X115380000Y-86396000D01*
X115363159Y-86450380D01*
X115360000Y-86490000D01*
X115360000Y-124040000D01*
X106360000Y-124040000D01*
X106360000Y-85604000D01*
X106376841Y-85549620D01*
X106380000Y-85510000D01*
X106380000Y-83970000D01*
X106370102Y-83900352D01*
X106360000Y-83877941D01*
X106360000Y-65600000D01*
X115360000Y-65600000D01*
X115360000Y-82990000D01*
X115360000Y-82990000D01*
G37*
G36*
X184950000Y-82990000D02*
X184959898Y-83059648D01*
X184970000Y-83082059D01*
X184970000Y-86396000D01*
X184953159Y-86450380D01*
X184950000Y-86490000D01*
X184950000Y-124040000D01*
X175950000Y-124040000D01*
X175950000Y-85604000D01*
X175966841Y-85549620D01*
X175970000Y-85510000D01*
X175970000Y-83970000D01*
X175960102Y-83900352D01*
X175950000Y-83877941D01*
X175950000Y-65600000D01*
X184950000Y-65600000D01*
X184950000Y-82990000D01*
X184950000Y-82990000D01*
G37*
G36*
X173725883Y-119112287D02*
X173956124Y-119159549D01*
X174172798Y-119250631D01*
X174367655Y-119382063D01*
X174533276Y-119548844D01*
X174663340Y-119744607D01*
X174752910Y-119961919D01*
X174798219Y-120190749D01*
X174798218Y-120190801D01*
X174798551Y-120192481D01*
X174794803Y-120460939D01*
X174794424Y-120462608D01*
X174794423Y-120462664D01*
X174742742Y-120690140D01*
X174647143Y-120904859D01*
X174511658Y-121096920D01*
X174341448Y-121259009D01*
X174142995Y-121384951D01*
X173923863Y-121469946D01*
X173692392Y-121510761D01*
X173457406Y-121505838D01*
X173227849Y-121455367D01*
X173012463Y-121361267D01*
X172819466Y-121227131D01*
X172650734Y-121052404D01*
X172611784Y-121007419D01*
X172552742Y-120969171D01*
X172485382Y-120948885D01*
X172415038Y-120948168D01*
X172347279Y-120967078D01*
X172287470Y-121004116D01*
X172243403Y-121051918D01*
X172211656Y-121096922D01*
X172041448Y-121259009D01*
X171842995Y-121384951D01*
X171623863Y-121469946D01*
X171392392Y-121510761D01*
X171157406Y-121505838D01*
X170927849Y-121455367D01*
X170712463Y-121361267D01*
X170519466Y-121227131D01*
X170356190Y-121058054D01*
X170228865Y-120860486D01*
X170142343Y-120641955D01*
X170099914Y-120410775D01*
X170103196Y-120175754D01*
X170152062Y-119945855D01*
X170244656Y-119729818D01*
X170377445Y-119535884D01*
X170545375Y-119371436D01*
X170742047Y-119242737D01*
X170959972Y-119154689D01*
X171190851Y-119110646D01*
X171425883Y-119112287D01*
X171656124Y-119159549D01*
X171872798Y-119250631D01*
X172067655Y-119382063D01*
X172233276Y-119548844D01*
X172242537Y-119562783D01*
X172289323Y-119615317D01*
X172348893Y-119652737D01*
X172416530Y-119672080D01*
X172486878Y-119671813D01*
X172554366Y-119651959D01*
X172613651Y-119614089D01*
X172657045Y-119565677D01*
X172677444Y-119535885D01*
X172845375Y-119371436D01*
X173042047Y-119242737D01*
X173259972Y-119154689D01*
X173490851Y-119110646D01*
X173725883Y-119112287D01*
X173725883Y-119112287D01*
G37*
G36*
X164945883Y-119012287D02*
X165176124Y-119059549D01*
X165392798Y-119150631D01*
X165587655Y-119282063D01*
X165753276Y-119448844D01*
X165883340Y-119644607D01*
X165972910Y-119861919D01*
X166018219Y-120090749D01*
X166018218Y-120090801D01*
X166018551Y-120092481D01*
X166014803Y-120360939D01*
X166014424Y-120362608D01*
X166014423Y-120362664D01*
X165962742Y-120590140D01*
X165867143Y-120804859D01*
X165731658Y-120996920D01*
X165561448Y-121159009D01*
X165362995Y-121284951D01*
X165143863Y-121369946D01*
X164912392Y-121410761D01*
X164677406Y-121405838D01*
X164447849Y-121355367D01*
X164232463Y-121261267D01*
X164039466Y-121127131D01*
X163876189Y-120958053D01*
X163761602Y-120780250D01*
X163715553Y-120727068D01*
X163656511Y-120688820D01*
X163589151Y-120668535D01*
X163518807Y-120667820D01*
X163451048Y-120686730D01*
X163391240Y-120723769D01*
X163344119Y-120776003D01*
X163331765Y-120798306D01*
X163191658Y-120996920D01*
X163021448Y-121159009D01*
X162822995Y-121284951D01*
X162603863Y-121369946D01*
X162372392Y-121410761D01*
X162137406Y-121405838D01*
X161907849Y-121355367D01*
X161692463Y-121261267D01*
X161499466Y-121127131D01*
X161336189Y-120958053D01*
X161221602Y-120780250D01*
X161175553Y-120727068D01*
X161116511Y-120688820D01*
X161049151Y-120668535D01*
X160978807Y-120667820D01*
X160911048Y-120686730D01*
X160851240Y-120723769D01*
X160804119Y-120776003D01*
X160791765Y-120798306D01*
X160651658Y-120996920D01*
X160481448Y-121159009D01*
X160282995Y-121284951D01*
X160063863Y-121369946D01*
X159832392Y-121410761D01*
X159597406Y-121405838D01*
X159367849Y-121355367D01*
X159152463Y-121261267D01*
X158959466Y-121127131D01*
X158796189Y-120958053D01*
X158681602Y-120780250D01*
X158635553Y-120727068D01*
X158576511Y-120688820D01*
X158509151Y-120668535D01*
X158438807Y-120667820D01*
X158371048Y-120686730D01*
X158311240Y-120723769D01*
X158264119Y-120776003D01*
X158251765Y-120798306D01*
X158111658Y-120996920D01*
X157941448Y-121159009D01*
X157742995Y-121284951D01*
X157523863Y-121369946D01*
X157292392Y-121410761D01*
X157057406Y-121405838D01*
X156827849Y-121355367D01*
X156612463Y-121261267D01*
X156419466Y-121127131D01*
X156256189Y-120958053D01*
X156141602Y-120780250D01*
X156095553Y-120727068D01*
X156036511Y-120688820D01*
X155969151Y-120668535D01*
X155898807Y-120667820D01*
X155831048Y-120686730D01*
X155771240Y-120723769D01*
X155724119Y-120776003D01*
X155711765Y-120798306D01*
X155571658Y-120996920D01*
X155401448Y-121159009D01*
X155202995Y-121284951D01*
X154983863Y-121369946D01*
X154752392Y-121410761D01*
X154517406Y-121405838D01*
X154287849Y-121355367D01*
X154072463Y-121261267D01*
X153879466Y-121127131D01*
X153716189Y-120958053D01*
X153601602Y-120780250D01*
X153555553Y-120727068D01*
X153496511Y-120688820D01*
X153429151Y-120668535D01*
X153358807Y-120667820D01*
X153291048Y-120686730D01*
X153231240Y-120723769D01*
X153184119Y-120776003D01*
X153171765Y-120798306D01*
X153031658Y-120996920D01*
X152861448Y-121159009D01*
X152662995Y-121284951D01*
X152443863Y-121369946D01*
X152212392Y-121410761D01*
X151977406Y-121405838D01*
X151747849Y-121355367D01*
X151532463Y-121261267D01*
X151339466Y-121127131D01*
X151208335Y-120991341D01*
X151152833Y-120948116D01*
X151087487Y-120922065D01*
X151017470Y-120915249D01*
X150948326Y-120928211D01*
X150885530Y-120959921D01*
X150834055Y-121007871D01*
X150797977Y-121068263D01*
X150778500Y-121165006D01*
X150778500Y-121408500D01*
X148381500Y-121408500D01*
X148381500Y-119011500D01*
X150778500Y-119011500D01*
X150778500Y-119251419D01*
X150788398Y-119321067D01*
X150817307Y-119385201D01*
X150862939Y-119438741D01*
X150921681Y-119477449D01*
X150988880Y-119498260D01*
X151059217Y-119499525D01*
X151127121Y-119481145D01*
X151203415Y-119430038D01*
X151365375Y-119271436D01*
X151562047Y-119142737D01*
X151779972Y-119054689D01*
X152010851Y-119010646D01*
X152245883Y-119012287D01*
X152476124Y-119059549D01*
X152692798Y-119150631D01*
X152887655Y-119282063D01*
X153053276Y-119448844D01*
X153180730Y-119640678D01*
X153227516Y-119693212D01*
X153287087Y-119730632D01*
X153354723Y-119749975D01*
X153425071Y-119749708D01*
X153492559Y-119729854D01*
X153551844Y-119691984D01*
X153595238Y-119643572D01*
X153737444Y-119435885D01*
X153905375Y-119271436D01*
X154102047Y-119142737D01*
X154319972Y-119054689D01*
X154550851Y-119010646D01*
X154785883Y-119012287D01*
X155016124Y-119059549D01*
X155232798Y-119150631D01*
X155427655Y-119282063D01*
X155593276Y-119448844D01*
X155720730Y-119640678D01*
X155767516Y-119693212D01*
X155827087Y-119730632D01*
X155894723Y-119749975D01*
X155965071Y-119749708D01*
X156032559Y-119729854D01*
X156091844Y-119691984D01*
X156135238Y-119643572D01*
X156277444Y-119435885D01*
X156445375Y-119271436D01*
X156642047Y-119142737D01*
X156859972Y-119054689D01*
X157090851Y-119010646D01*
X157325883Y-119012287D01*
X157556124Y-119059549D01*
X157772798Y-119150631D01*
X157967655Y-119282063D01*
X158133276Y-119448844D01*
X158260730Y-119640678D01*
X158307516Y-119693212D01*
X158367087Y-119730632D01*
X158434723Y-119749975D01*
X158505071Y-119749708D01*
X158572559Y-119729854D01*
X158631844Y-119691984D01*
X158675238Y-119643572D01*
X158817444Y-119435885D01*
X158985375Y-119271436D01*
X159182047Y-119142737D01*
X159399972Y-119054689D01*
X159630851Y-119010646D01*
X159865883Y-119012287D01*
X160096124Y-119059549D01*
X160312798Y-119150631D01*
X160507655Y-119282063D01*
X160673276Y-119448844D01*
X160800730Y-119640678D01*
X160847516Y-119693212D01*
X160907087Y-119730632D01*
X160974723Y-119749975D01*
X161045071Y-119749708D01*
X161112559Y-119729854D01*
X161171844Y-119691984D01*
X161215238Y-119643572D01*
X161357444Y-119435885D01*
X161525375Y-119271436D01*
X161722047Y-119142737D01*
X161939972Y-119054689D01*
X162170851Y-119010646D01*
X162405883Y-119012287D01*
X162636124Y-119059549D01*
X162852798Y-119150631D01*
X163047655Y-119282063D01*
X163213276Y-119448844D01*
X163340730Y-119640678D01*
X163387516Y-119693212D01*
X163447087Y-119730632D01*
X163514723Y-119749975D01*
X163585071Y-119749708D01*
X163652559Y-119729854D01*
X163711844Y-119691984D01*
X163755238Y-119643572D01*
X163897444Y-119435885D01*
X164065375Y-119271436D01*
X164262047Y-119142737D01*
X164479972Y-119054689D01*
X164710851Y-119010646D01*
X164945883Y-119012287D01*
X164945883Y-119012287D01*
G37*
G36*
X136725883Y-119012287D02*
X136956124Y-119059549D01*
X137172798Y-119150631D01*
X137367655Y-119282063D01*
X137533276Y-119448844D01*
X137663340Y-119644607D01*
X137752910Y-119861919D01*
X137798219Y-120090749D01*
X137798218Y-120090801D01*
X137798551Y-120092481D01*
X137794803Y-120360939D01*
X137794424Y-120362608D01*
X137794423Y-120362664D01*
X137742742Y-120590140D01*
X137647143Y-120804859D01*
X137511658Y-120996920D01*
X137341448Y-121159009D01*
X137142995Y-121284951D01*
X136923863Y-121369946D01*
X136692392Y-121410761D01*
X136457406Y-121405838D01*
X136227849Y-121355367D01*
X136012463Y-121261267D01*
X135819466Y-121127131D01*
X135656189Y-120958053D01*
X135562346Y-120812438D01*
X135516297Y-120759256D01*
X135457255Y-120721008D01*
X135389895Y-120700723D01*
X135319551Y-120700008D01*
X135251792Y-120718918D01*
X135191984Y-120755956D01*
X135147919Y-120803758D01*
X135011658Y-120996920D01*
X134841448Y-121159009D01*
X134642995Y-121284951D01*
X134423863Y-121369946D01*
X134192392Y-121410761D01*
X133957406Y-121405838D01*
X133727849Y-121355367D01*
X133512463Y-121261267D01*
X133319466Y-121127131D01*
X133156189Y-120958053D01*
X133062346Y-120812438D01*
X133016297Y-120759256D01*
X132957255Y-120721008D01*
X132889895Y-120700723D01*
X132819551Y-120700008D01*
X132751792Y-120718918D01*
X132691984Y-120755956D01*
X132647919Y-120803758D01*
X132511658Y-120996920D01*
X132341448Y-121159009D01*
X132142995Y-121284951D01*
X131923863Y-121369946D01*
X131692392Y-121410761D01*
X131457406Y-121405838D01*
X131227849Y-121355367D01*
X131012463Y-121261267D01*
X130819466Y-121127131D01*
X130656189Y-120958053D01*
X130562346Y-120812438D01*
X130516297Y-120759256D01*
X130457255Y-120721008D01*
X130389895Y-120700723D01*
X130319551Y-120700008D01*
X130251792Y-120718918D01*
X130191984Y-120755956D01*
X130147919Y-120803758D01*
X130011658Y-120996920D01*
X129841448Y-121159009D01*
X129642995Y-121284951D01*
X129423863Y-121369946D01*
X129192392Y-121410761D01*
X128957406Y-121405838D01*
X128727849Y-121355367D01*
X128512463Y-121261267D01*
X128319466Y-121127131D01*
X128156189Y-120958053D01*
X128062346Y-120812438D01*
X128016297Y-120759256D01*
X127957255Y-120721008D01*
X127889895Y-120700723D01*
X127819551Y-120700008D01*
X127751792Y-120718918D01*
X127691984Y-120755956D01*
X127647919Y-120803758D01*
X127511658Y-120996920D01*
X127341448Y-121159009D01*
X127142995Y-121284951D01*
X126923863Y-121369946D01*
X126692392Y-121410761D01*
X126457406Y-121405838D01*
X126227849Y-121355367D01*
X126012463Y-121261267D01*
X125819466Y-121127131D01*
X125656189Y-120958053D01*
X125562346Y-120812438D01*
X125516297Y-120759256D01*
X125457255Y-120721008D01*
X125389895Y-120700723D01*
X125319551Y-120700008D01*
X125251792Y-120718918D01*
X125191984Y-120755956D01*
X125147919Y-120803758D01*
X125011658Y-120996920D01*
X124841448Y-121159009D01*
X124642995Y-121284951D01*
X124423863Y-121369946D01*
X124192392Y-121410761D01*
X123957406Y-121405838D01*
X123727849Y-121355367D01*
X123512463Y-121261267D01*
X123319466Y-121127131D01*
X123156189Y-120958053D01*
X123062346Y-120812438D01*
X123016297Y-120759256D01*
X122957255Y-120721008D01*
X122889895Y-120700723D01*
X122819551Y-120700008D01*
X122751792Y-120718918D01*
X122691984Y-120755956D01*
X122647919Y-120803758D01*
X122511658Y-120996920D01*
X122341448Y-121159009D01*
X122142995Y-121284951D01*
X121923863Y-121369946D01*
X121692392Y-121410761D01*
X121457406Y-121405838D01*
X121227849Y-121355367D01*
X121012463Y-121261267D01*
X120819466Y-121127131D01*
X120656190Y-120958054D01*
X120528865Y-120760486D01*
X120442343Y-120541955D01*
X120399914Y-120310775D01*
X120403196Y-120075754D01*
X120452062Y-119845855D01*
X120544656Y-119629818D01*
X120677445Y-119435884D01*
X120845375Y-119271436D01*
X121042047Y-119142737D01*
X121259972Y-119054689D01*
X121490851Y-119010646D01*
X121725883Y-119012287D01*
X121956124Y-119059549D01*
X122172798Y-119150631D01*
X122367655Y-119282063D01*
X122533273Y-119448841D01*
X122641030Y-119611029D01*
X122687817Y-119663563D01*
X122747387Y-119700983D01*
X122815024Y-119720326D01*
X122885372Y-119720059D01*
X122952860Y-119700205D01*
X123012145Y-119662335D01*
X123055539Y-119613923D01*
X123177444Y-119435885D01*
X123345375Y-119271436D01*
X123542047Y-119142737D01*
X123759972Y-119054689D01*
X123990851Y-119010646D01*
X124225883Y-119012287D01*
X124456124Y-119059549D01*
X124672798Y-119150631D01*
X124867655Y-119282063D01*
X125033273Y-119448841D01*
X125141030Y-119611029D01*
X125187817Y-119663563D01*
X125247387Y-119700983D01*
X125315024Y-119720326D01*
X125385372Y-119720059D01*
X125452860Y-119700205D01*
X125512145Y-119662335D01*
X125555539Y-119613923D01*
X125677444Y-119435885D01*
X125845375Y-119271436D01*
X126042047Y-119142737D01*
X126259972Y-119054689D01*
X126490851Y-119010646D01*
X126725883Y-119012287D01*
X126956124Y-119059549D01*
X127172798Y-119150631D01*
X127367655Y-119282063D01*
X127533273Y-119448841D01*
X127641030Y-119611029D01*
X127687817Y-119663563D01*
X127747387Y-119700983D01*
X127815024Y-119720326D01*
X127885372Y-119720059D01*
X127952860Y-119700205D01*
X128012145Y-119662335D01*
X128055539Y-119613923D01*
X128177444Y-119435885D01*
X128345375Y-119271436D01*
X128542047Y-119142737D01*
X128759972Y-119054689D01*
X128990851Y-119010646D01*
X129225883Y-119012287D01*
X129456124Y-119059549D01*
X129672798Y-119150631D01*
X129867655Y-119282063D01*
X130033273Y-119448841D01*
X130141030Y-119611029D01*
X130187817Y-119663563D01*
X130247387Y-119700983D01*
X130315024Y-119720326D01*
X130385372Y-119720059D01*
X130452860Y-119700205D01*
X130512145Y-119662335D01*
X130555539Y-119613923D01*
X130677444Y-119435885D01*
X130845375Y-119271436D01*
X131042047Y-119142737D01*
X131259972Y-119054689D01*
X131490851Y-119010646D01*
X131725883Y-119012287D01*
X131956124Y-119059549D01*
X132172798Y-119150631D01*
X132367655Y-119282063D01*
X132533273Y-119448841D01*
X132641030Y-119611029D01*
X132687817Y-119663563D01*
X132747387Y-119700983D01*
X132815024Y-119720326D01*
X132885372Y-119720059D01*
X132952860Y-119700205D01*
X133012145Y-119662335D01*
X133055539Y-119613923D01*
X133177444Y-119435885D01*
X133345375Y-119271436D01*
X133542047Y-119142737D01*
X133759972Y-119054689D01*
X133990851Y-119010646D01*
X134225883Y-119012287D01*
X134456124Y-119059549D01*
X134672798Y-119150631D01*
X134867655Y-119282063D01*
X135033273Y-119448841D01*
X135141030Y-119611029D01*
X135187817Y-119663563D01*
X135247387Y-119700983D01*
X135315024Y-119720326D01*
X135385372Y-119720059D01*
X135452860Y-119700205D01*
X135512145Y-119662335D01*
X135555539Y-119613923D01*
X135677444Y-119435885D01*
X135845375Y-119271436D01*
X136042047Y-119142737D01*
X136259972Y-119054689D01*
X136490851Y-119010646D01*
X136725883Y-119012287D01*
X136725883Y-119012287D01*
G37*
G36*
X145825883Y-117742287D02*
X146056124Y-117789549D01*
X146272798Y-117880631D01*
X146467655Y-118012063D01*
X146633276Y-118178844D01*
X146763340Y-118374607D01*
X146852910Y-118591919D01*
X146898219Y-118820749D01*
X146898218Y-118820801D01*
X146898551Y-118822481D01*
X146894803Y-119090939D01*
X146894424Y-119092608D01*
X146894423Y-119092664D01*
X146842742Y-119320140D01*
X146747143Y-119534859D01*
X146611658Y-119726920D01*
X146441448Y-119889009D01*
X146242995Y-120014951D01*
X146023863Y-120099946D01*
X145792392Y-120140761D01*
X145557406Y-120135838D01*
X145327849Y-120085367D01*
X145112463Y-119991267D01*
X144919466Y-119857131D01*
X144756190Y-119688054D01*
X144628865Y-119490486D01*
X144542343Y-119271955D01*
X144499914Y-119040775D01*
X144503196Y-118805754D01*
X144552062Y-118575855D01*
X144644656Y-118359818D01*
X144777445Y-118165884D01*
X144945375Y-118001436D01*
X145142047Y-117872737D01*
X145359972Y-117784689D01*
X145590851Y-117740646D01*
X145825883Y-117742287D01*
X145825883Y-117742287D01*
G37*
G36*
X145825883Y-112662287D02*
X146056124Y-112709549D01*
X146272798Y-112800631D01*
X146467655Y-112932063D01*
X146633276Y-113098844D01*
X146763340Y-113294607D01*
X146852910Y-113511919D01*
X146898219Y-113740749D01*
X146898218Y-113740801D01*
X146898551Y-113742481D01*
X146894803Y-114010939D01*
X146894424Y-114012608D01*
X146894423Y-114012664D01*
X146842742Y-114240140D01*
X146747143Y-114454859D01*
X146611658Y-114646920D01*
X146441448Y-114809009D01*
X146242995Y-114934951D01*
X146023863Y-115019946D01*
X145792392Y-115060761D01*
X145557406Y-115055838D01*
X145327849Y-115005367D01*
X145112463Y-114911267D01*
X144919466Y-114777131D01*
X144756190Y-114608054D01*
X144628865Y-114410486D01*
X144542343Y-114191955D01*
X144499914Y-113960775D01*
X144503196Y-113725754D01*
X144552062Y-113495855D01*
X144644656Y-113279818D01*
X144777445Y-113085884D01*
X144945375Y-112921436D01*
X145142047Y-112792737D01*
X145359972Y-112704689D01*
X145590851Y-112660646D01*
X145825883Y-112662287D01*
X145825883Y-112662287D01*
G37*
G36*
X173725883Y-111492287D02*
X173956124Y-111539549D01*
X174172798Y-111630631D01*
X174367655Y-111762063D01*
X174533276Y-111928844D01*
X174663340Y-112124607D01*
X174752910Y-112341919D01*
X174798219Y-112570749D01*
X174798218Y-112570801D01*
X174798551Y-112572481D01*
X174794803Y-112840939D01*
X174794424Y-112842608D01*
X174794423Y-112842664D01*
X174742742Y-113070140D01*
X174647143Y-113284859D01*
X174511658Y-113476920D01*
X174341448Y-113639009D01*
X174142995Y-113764951D01*
X173923863Y-113849946D01*
X173692392Y-113890761D01*
X173457406Y-113885838D01*
X173227849Y-113835367D01*
X173012463Y-113741267D01*
X172819466Y-113607131D01*
X172650734Y-113432404D01*
X172611784Y-113387419D01*
X172552742Y-113349171D01*
X172485382Y-113328885D01*
X172415038Y-113328168D01*
X172347279Y-113347078D01*
X172287470Y-113384116D01*
X172243403Y-113431918D01*
X172211656Y-113476922D01*
X172041448Y-113639009D01*
X171842995Y-113764951D01*
X171623863Y-113849946D01*
X171392392Y-113890761D01*
X171157406Y-113885838D01*
X170927849Y-113835367D01*
X170712463Y-113741267D01*
X170519466Y-113607131D01*
X170356190Y-113438054D01*
X170228865Y-113240486D01*
X170142343Y-113021955D01*
X170099914Y-112790775D01*
X170103196Y-112555754D01*
X170152062Y-112325855D01*
X170244656Y-112109818D01*
X170377445Y-111915884D01*
X170545375Y-111751436D01*
X170742047Y-111622737D01*
X170959972Y-111534689D01*
X171190851Y-111490646D01*
X171425883Y-111492287D01*
X171656124Y-111539549D01*
X171872798Y-111630631D01*
X172067655Y-111762063D01*
X172233276Y-111928844D01*
X172242537Y-111942783D01*
X172289323Y-111995317D01*
X172348893Y-112032737D01*
X172416530Y-112052080D01*
X172486878Y-112051813D01*
X172554366Y-112031959D01*
X172613651Y-111994089D01*
X172657045Y-111945677D01*
X172677444Y-111915885D01*
X172845375Y-111751436D01*
X173042047Y-111622737D01*
X173259972Y-111534689D01*
X173490851Y-111490646D01*
X173725883Y-111492287D01*
X173725883Y-111492287D01*
G37*
G36*
X136725883Y-111392287D02*
X136956124Y-111439549D01*
X137172798Y-111530631D01*
X137367655Y-111662063D01*
X137533276Y-111828844D01*
X137663340Y-112024607D01*
X137752910Y-112241919D01*
X137798219Y-112470749D01*
X137798218Y-112470801D01*
X137798551Y-112472481D01*
X137794803Y-112740939D01*
X137794424Y-112742608D01*
X137794423Y-112742664D01*
X137742742Y-112970140D01*
X137647143Y-113184859D01*
X137511658Y-113376920D01*
X137341448Y-113539009D01*
X137142995Y-113664951D01*
X136923863Y-113749946D01*
X136692392Y-113790761D01*
X136457406Y-113785838D01*
X136227849Y-113735367D01*
X136012463Y-113641267D01*
X135819466Y-113507131D01*
X135656189Y-113338053D01*
X135562346Y-113192438D01*
X135516297Y-113139256D01*
X135457255Y-113101008D01*
X135389895Y-113080723D01*
X135319551Y-113080008D01*
X135251792Y-113098918D01*
X135191984Y-113135956D01*
X135147919Y-113183758D01*
X135011658Y-113376920D01*
X134841448Y-113539009D01*
X134642995Y-113664951D01*
X134423863Y-113749946D01*
X134192392Y-113790761D01*
X133957406Y-113785838D01*
X133727849Y-113735367D01*
X133512463Y-113641267D01*
X133319466Y-113507131D01*
X133156189Y-113338053D01*
X133062346Y-113192438D01*
X133016297Y-113139256D01*
X132957255Y-113101008D01*
X132889895Y-113080723D01*
X132819551Y-113080008D01*
X132751792Y-113098918D01*
X132691984Y-113135956D01*
X132647919Y-113183758D01*
X132511658Y-113376920D01*
X132341448Y-113539009D01*
X132142995Y-113664951D01*
X131923863Y-113749946D01*
X131692392Y-113790761D01*
X131457406Y-113785838D01*
X131227849Y-113735367D01*
X131012463Y-113641267D01*
X130819466Y-113507131D01*
X130656189Y-113338053D01*
X130562346Y-113192438D01*
X130516297Y-113139256D01*
X130457255Y-113101008D01*
X130389895Y-113080723D01*
X130319551Y-113080008D01*
X130251792Y-113098918D01*
X130191984Y-113135956D01*
X130147919Y-113183758D01*
X130011658Y-113376920D01*
X129841448Y-113539009D01*
X129642995Y-113664951D01*
X129423863Y-113749946D01*
X129192392Y-113790761D01*
X128957406Y-113785838D01*
X128727849Y-113735367D01*
X128512463Y-113641267D01*
X128319466Y-113507131D01*
X128156189Y-113338053D01*
X128062346Y-113192438D01*
X128016297Y-113139256D01*
X127957255Y-113101008D01*
X127889895Y-113080723D01*
X127819551Y-113080008D01*
X127751792Y-113098918D01*
X127691984Y-113135956D01*
X127647919Y-113183758D01*
X127511658Y-113376920D01*
X127341448Y-113539009D01*
X127142995Y-113664951D01*
X126923863Y-113749946D01*
X126692392Y-113790761D01*
X126457406Y-113785838D01*
X126227849Y-113735367D01*
X126012463Y-113641267D01*
X125819466Y-113507131D01*
X125656189Y-113338053D01*
X125562346Y-113192438D01*
X125516297Y-113139256D01*
X125457255Y-113101008D01*
X125389895Y-113080723D01*
X125319551Y-113080008D01*
X125251792Y-113098918D01*
X125191984Y-113135956D01*
X125147919Y-113183758D01*
X125011658Y-113376920D01*
X124841448Y-113539009D01*
X124642995Y-113664951D01*
X124423863Y-113749946D01*
X124192392Y-113790761D01*
X123957406Y-113785838D01*
X123727849Y-113735367D01*
X123512463Y-113641267D01*
X123319466Y-113507131D01*
X123156189Y-113338053D01*
X123062346Y-113192438D01*
X123016297Y-113139256D01*
X122957255Y-113101008D01*
X122889895Y-113080723D01*
X122819551Y-113080008D01*
X122751792Y-113098918D01*
X122691984Y-113135956D01*
X122647919Y-113183758D01*
X122511658Y-113376920D01*
X122341448Y-113539009D01*
X122142995Y-113664951D01*
X121923863Y-113749946D01*
X121692392Y-113790761D01*
X121457406Y-113785838D01*
X121227849Y-113735367D01*
X121012463Y-113641267D01*
X120819466Y-113507131D01*
X120656190Y-113338054D01*
X120528865Y-113140486D01*
X120442343Y-112921955D01*
X120399914Y-112690775D01*
X120403196Y-112455754D01*
X120452062Y-112225855D01*
X120544656Y-112009818D01*
X120677445Y-111815884D01*
X120845375Y-111651436D01*
X121042047Y-111522737D01*
X121259972Y-111434689D01*
X121490851Y-111390646D01*
X121725883Y-111392287D01*
X121956124Y-111439549D01*
X122172798Y-111530631D01*
X122367655Y-111662063D01*
X122533273Y-111828841D01*
X122641030Y-111991029D01*
X122687817Y-112043563D01*
X122747387Y-112080983D01*
X122815024Y-112100326D01*
X122885372Y-112100059D01*
X122952860Y-112080205D01*
X123012145Y-112042335D01*
X123055539Y-111993923D01*
X123177444Y-111815885D01*
X123345375Y-111651436D01*
X123542047Y-111522737D01*
X123759972Y-111434689D01*
X123990851Y-111390646D01*
X124225883Y-111392287D01*
X124456124Y-111439549D01*
X124672798Y-111530631D01*
X124867655Y-111662063D01*
X125033273Y-111828841D01*
X125141030Y-111991029D01*
X125187817Y-112043563D01*
X125247387Y-112080983D01*
X125315024Y-112100326D01*
X125385372Y-112100059D01*
X125452860Y-112080205D01*
X125512145Y-112042335D01*
X125555539Y-111993923D01*
X125677444Y-111815885D01*
X125845375Y-111651436D01*
X126042047Y-111522737D01*
X126259972Y-111434689D01*
X126490851Y-111390646D01*
X126725883Y-111392287D01*
X126956124Y-111439549D01*
X127172798Y-111530631D01*
X127367655Y-111662063D01*
X127533273Y-111828841D01*
X127641030Y-111991029D01*
X127687817Y-112043563D01*
X127747387Y-112080983D01*
X127815024Y-112100326D01*
X127885372Y-112100059D01*
X127952860Y-112080205D01*
X128012145Y-112042335D01*
X128055539Y-111993923D01*
X128177444Y-111815885D01*
X128345375Y-111651436D01*
X128542047Y-111522737D01*
X128759972Y-111434689D01*
X128990851Y-111390646D01*
X129225883Y-111392287D01*
X129456124Y-111439549D01*
X129672798Y-111530631D01*
X129867655Y-111662063D01*
X130033273Y-111828841D01*
X130141030Y-111991029D01*
X130187817Y-112043563D01*
X130247387Y-112080983D01*
X130315024Y-112100326D01*
X130385372Y-112100059D01*
X130452860Y-112080205D01*
X130512145Y-112042335D01*
X130555539Y-111993923D01*
X130677444Y-111815885D01*
X130845375Y-111651436D01*
X131042047Y-111522737D01*
X131259972Y-111434689D01*
X131490851Y-111390646D01*
X131725883Y-111392287D01*
X131956124Y-111439549D01*
X132172798Y-111530631D01*
X132367655Y-111662063D01*
X132533273Y-111828841D01*
X132641030Y-111991029D01*
X132687817Y-112043563D01*
X132747387Y-112080983D01*
X132815024Y-112100326D01*
X132885372Y-112100059D01*
X132952860Y-112080205D01*
X133012145Y-112042335D01*
X133055539Y-111993923D01*
X133177444Y-111815885D01*
X133345375Y-111651436D01*
X133542047Y-111522737D01*
X133759972Y-111434689D01*
X133990851Y-111390646D01*
X134225883Y-111392287D01*
X134456124Y-111439549D01*
X134672798Y-111530631D01*
X134867655Y-111662063D01*
X135033273Y-111828841D01*
X135141030Y-111991029D01*
X135187817Y-112043563D01*
X135247387Y-112080983D01*
X135315024Y-112100326D01*
X135385372Y-112100059D01*
X135452860Y-112080205D01*
X135512145Y-112042335D01*
X135555539Y-111993923D01*
X135677444Y-111815885D01*
X135845375Y-111651436D01*
X136042047Y-111522737D01*
X136259972Y-111434689D01*
X136490851Y-111390646D01*
X136725883Y-111392287D01*
X136725883Y-111392287D01*
G37*
G36*
X164945883Y-111392287D02*
X165176124Y-111439549D01*
X165392798Y-111530631D01*
X165587655Y-111662063D01*
X165753276Y-111828844D01*
X165883340Y-112024607D01*
X165972910Y-112241919D01*
X166018219Y-112470749D01*
X166018218Y-112470801D01*
X166018551Y-112472481D01*
X166014803Y-112740939D01*
X166014424Y-112742608D01*
X166014423Y-112742664D01*
X165962742Y-112970140D01*
X165867143Y-113184859D01*
X165731658Y-113376920D01*
X165561448Y-113539009D01*
X165362995Y-113664951D01*
X165143863Y-113749946D01*
X164912392Y-113790761D01*
X164677406Y-113785838D01*
X164447849Y-113735367D01*
X164232463Y-113641267D01*
X164039466Y-113507131D01*
X163876189Y-113338053D01*
X163761602Y-113160250D01*
X163715553Y-113107068D01*
X163656511Y-113068820D01*
X163589151Y-113048535D01*
X163518807Y-113047820D01*
X163451048Y-113066730D01*
X163391240Y-113103769D01*
X163344119Y-113156003D01*
X163331765Y-113178306D01*
X163191658Y-113376920D01*
X163021448Y-113539009D01*
X162822995Y-113664951D01*
X162603863Y-113749946D01*
X162372392Y-113790761D01*
X162137406Y-113785838D01*
X161907849Y-113735367D01*
X161692463Y-113641267D01*
X161499466Y-113507131D01*
X161336189Y-113338053D01*
X161221602Y-113160250D01*
X161175553Y-113107068D01*
X161116511Y-113068820D01*
X161049151Y-113048535D01*
X160978807Y-113047820D01*
X160911048Y-113066730D01*
X160851240Y-113103769D01*
X160804119Y-113156003D01*
X160791765Y-113178306D01*
X160651658Y-113376920D01*
X160481448Y-113539009D01*
X160282995Y-113664951D01*
X160063863Y-113749946D01*
X159832392Y-113790761D01*
X159597406Y-113785838D01*
X159367849Y-113735367D01*
X159152463Y-113641267D01*
X158959466Y-113507131D01*
X158796189Y-113338053D01*
X158681602Y-113160250D01*
X158635553Y-113107068D01*
X158576511Y-113068820D01*
X158509151Y-113048535D01*
X158438807Y-113047820D01*
X158371048Y-113066730D01*
X158311240Y-113103769D01*
X158264119Y-113156003D01*
X158251765Y-113178306D01*
X158111658Y-113376920D01*
X157941448Y-113539009D01*
X157742995Y-113664951D01*
X157523863Y-113749946D01*
X157292392Y-113790761D01*
X157057406Y-113785838D01*
X156827849Y-113735367D01*
X156612463Y-113641267D01*
X156419466Y-113507131D01*
X156256189Y-113338053D01*
X156141602Y-113160250D01*
X156095553Y-113107068D01*
X156036511Y-113068820D01*
X155969151Y-113048535D01*
X155898807Y-113047820D01*
X155831048Y-113066730D01*
X155771240Y-113103769D01*
X155724119Y-113156003D01*
X155711765Y-113178306D01*
X155571658Y-113376920D01*
X155401448Y-113539009D01*
X155202995Y-113664951D01*
X154983863Y-113749946D01*
X154752392Y-113790761D01*
X154517406Y-113785838D01*
X154287849Y-113735367D01*
X154072463Y-113641267D01*
X153879466Y-113507131D01*
X153716189Y-113338053D01*
X153601602Y-113160250D01*
X153555553Y-113107068D01*
X153496511Y-113068820D01*
X153429151Y-113048535D01*
X153358807Y-113047820D01*
X153291048Y-113066730D01*
X153231240Y-113103769D01*
X153184119Y-113156003D01*
X153171765Y-113178306D01*
X153031658Y-113376920D01*
X152861448Y-113539009D01*
X152662995Y-113664951D01*
X152443863Y-113749946D01*
X152212392Y-113790761D01*
X151977406Y-113785838D01*
X151747849Y-113735367D01*
X151532463Y-113641267D01*
X151339466Y-113507131D01*
X151176189Y-113338053D01*
X151061602Y-113160250D01*
X151015553Y-113107068D01*
X150956511Y-113068820D01*
X150889151Y-113048535D01*
X150818807Y-113047820D01*
X150751048Y-113066730D01*
X150691240Y-113103769D01*
X150644119Y-113156003D01*
X150631765Y-113178306D01*
X150491658Y-113376920D01*
X150321448Y-113539009D01*
X150122995Y-113664951D01*
X149903863Y-113749946D01*
X149672392Y-113790761D01*
X149437406Y-113785838D01*
X149207849Y-113735367D01*
X148992463Y-113641267D01*
X148799466Y-113507131D01*
X148636190Y-113338054D01*
X148508865Y-113140486D01*
X148422343Y-112921955D01*
X148379914Y-112690775D01*
X148383196Y-112455754D01*
X148432062Y-112225855D01*
X148524656Y-112009818D01*
X148657445Y-111815884D01*
X148825375Y-111651436D01*
X149022047Y-111522737D01*
X149239972Y-111434689D01*
X149470851Y-111390646D01*
X149705883Y-111392287D01*
X149936124Y-111439549D01*
X150152798Y-111530631D01*
X150347655Y-111662063D01*
X150513276Y-111828844D01*
X150640730Y-112020678D01*
X150687516Y-112073212D01*
X150747087Y-112110632D01*
X150814723Y-112129975D01*
X150885071Y-112129708D01*
X150952559Y-112109854D01*
X151011844Y-112071984D01*
X151055238Y-112023572D01*
X151197444Y-111815885D01*
X151365375Y-111651436D01*
X151562047Y-111522737D01*
X151779972Y-111434689D01*
X152010851Y-111390646D01*
X152245883Y-111392287D01*
X152476124Y-111439549D01*
X152692798Y-111530631D01*
X152887655Y-111662063D01*
X153053276Y-111828844D01*
X153180730Y-112020678D01*
X153227516Y-112073212D01*
X153287087Y-112110632D01*
X153354723Y-112129975D01*
X153425071Y-112129708D01*
X153492559Y-112109854D01*
X153551844Y-112071984D01*
X153595238Y-112023572D01*
X153737444Y-111815885D01*
X153905375Y-111651436D01*
X154102047Y-111522737D01*
X154319972Y-111434689D01*
X154550851Y-111390646D01*
X154785883Y-111392287D01*
X155016124Y-111439549D01*
X155232798Y-111530631D01*
X155427655Y-111662063D01*
X155593276Y-111828844D01*
X155720730Y-112020678D01*
X155767516Y-112073212D01*
X155827087Y-112110632D01*
X155894723Y-112129975D01*
X155965071Y-112129708D01*
X156032559Y-112109854D01*
X156091844Y-112071984D01*
X156135238Y-112023572D01*
X156277444Y-111815885D01*
X156445375Y-111651436D01*
X156642047Y-111522737D01*
X156859972Y-111434689D01*
X157090851Y-111390646D01*
X157325883Y-111392287D01*
X157556124Y-111439549D01*
X157772798Y-111530631D01*
X157967655Y-111662063D01*
X158133276Y-111828844D01*
X158260730Y-112020678D01*
X158307516Y-112073212D01*
X158367087Y-112110632D01*
X158434723Y-112129975D01*
X158505071Y-112129708D01*
X158572559Y-112109854D01*
X158631844Y-112071984D01*
X158675238Y-112023572D01*
X158817444Y-111815885D01*
X158985375Y-111651436D01*
X159182047Y-111522737D01*
X159399972Y-111434689D01*
X159630851Y-111390646D01*
X159865883Y-111392287D01*
X160096124Y-111439549D01*
X160312798Y-111530631D01*
X160507655Y-111662063D01*
X160673276Y-111828844D01*
X160800730Y-112020678D01*
X160847516Y-112073212D01*
X160907087Y-112110632D01*
X160974723Y-112129975D01*
X161045071Y-112129708D01*
X161112559Y-112109854D01*
X161171844Y-112071984D01*
X161215238Y-112023572D01*
X161357444Y-111815885D01*
X161525375Y-111651436D01*
X161722047Y-111522737D01*
X161939972Y-111434689D01*
X162170851Y-111390646D01*
X162405883Y-111392287D01*
X162636124Y-111439549D01*
X162852798Y-111530631D01*
X163047655Y-111662063D01*
X163213276Y-111828844D01*
X163340730Y-112020678D01*
X163387516Y-112073212D01*
X163447087Y-112110632D01*
X163514723Y-112129975D01*
X163585071Y-112129708D01*
X163652559Y-112109854D01*
X163711844Y-112071984D01*
X163755238Y-112023572D01*
X163897444Y-111815885D01*
X164065375Y-111651436D01*
X164262047Y-111522737D01*
X164479972Y-111434689D01*
X164710851Y-111390646D01*
X164945883Y-111392287D01*
X164945883Y-111392287D01*
G37*
G36*
X121625883Y-107862287D02*
X121856124Y-107909549D01*
X122072798Y-108000631D01*
X122267655Y-108132063D01*
X122433276Y-108298844D01*
X122563340Y-108494607D01*
X122652910Y-108711919D01*
X122698219Y-108940749D01*
X122698218Y-108940801D01*
X122698551Y-108942481D01*
X122694803Y-109210939D01*
X122694424Y-109212608D01*
X122694423Y-109212664D01*
X122642742Y-109440140D01*
X122547143Y-109654859D01*
X122411658Y-109846920D01*
X122241448Y-110009009D01*
X122042995Y-110134951D01*
X121823863Y-110219946D01*
X121592392Y-110260761D01*
X121357406Y-110255838D01*
X121127849Y-110205367D01*
X120912463Y-110111267D01*
X120719466Y-109977131D01*
X120556190Y-109808054D01*
X120428865Y-109610486D01*
X120342343Y-109391955D01*
X120299914Y-109160775D01*
X120303196Y-108925754D01*
X120352062Y-108695855D01*
X120444656Y-108479818D01*
X120577445Y-108285884D01*
X120745375Y-108121436D01*
X120942047Y-107992737D01*
X121159972Y-107904689D01*
X121390851Y-107860646D01*
X121625883Y-107862287D01*
X121625883Y-107862287D01*
G37*
G36*
X131145883Y-105802287D02*
X131376124Y-105849549D01*
X131592798Y-105940631D01*
X131787655Y-106072063D01*
X131953276Y-106238844D01*
X132083340Y-106434607D01*
X132172910Y-106651919D01*
X132218219Y-106880749D01*
X132218218Y-106880801D01*
X132218551Y-106882481D01*
X132214803Y-107150939D01*
X132214424Y-107152608D01*
X132214423Y-107152664D01*
X132162742Y-107380140D01*
X132067143Y-107594859D01*
X131931658Y-107786920D01*
X131761448Y-107949009D01*
X131562995Y-108074951D01*
X131343863Y-108159946D01*
X131112392Y-108200761D01*
X130877406Y-108195838D01*
X130647849Y-108145367D01*
X130432463Y-108051267D01*
X130239466Y-107917131D01*
X130108335Y-107781341D01*
X130052833Y-107738116D01*
X129987487Y-107712065D01*
X129917470Y-107705249D01*
X129848326Y-107718211D01*
X129785530Y-107749921D01*
X129734055Y-107797871D01*
X129697977Y-107858263D01*
X129678500Y-107955006D01*
X129678500Y-108198500D01*
X127281500Y-108198500D01*
X127281500Y-105801500D01*
X129678500Y-105801500D01*
X129678500Y-106041419D01*
X129688398Y-106111067D01*
X129717307Y-106175201D01*
X129762939Y-106228741D01*
X129821681Y-106267449D01*
X129888880Y-106288260D01*
X129959217Y-106289525D01*
X130027121Y-106271145D01*
X130103415Y-106220038D01*
X130265375Y-106061436D01*
X130462047Y-105932737D01*
X130679972Y-105844689D01*
X130910851Y-105800646D01*
X131145883Y-105802287D01*
X131145883Y-105802287D01*
G37*
G36*
X155615883Y-105602287D02*
X155846124Y-105649549D01*
X156062798Y-105740631D01*
X156257655Y-105872063D01*
X156404107Y-106019541D01*
X156460207Y-106061987D01*
X156525911Y-106087123D01*
X156596017Y-106092960D01*
X156664973Y-106079035D01*
X156727319Y-106046450D01*
X156778120Y-105997786D01*
X156813351Y-105936897D01*
X156831500Y-105843382D01*
X156831500Y-105601500D01*
X159228500Y-105601500D01*
X159228500Y-107998500D01*
X156831500Y-107998500D01*
X156831500Y-107760881D01*
X156821602Y-107691233D01*
X156792693Y-107627099D01*
X156747061Y-107573559D01*
X156688319Y-107534851D01*
X156621120Y-107514040D01*
X156550783Y-107512775D01*
X156482879Y-107531155D01*
X156409095Y-107579838D01*
X156231448Y-107749009D01*
X156032995Y-107874951D01*
X155813863Y-107959946D01*
X155582392Y-108000761D01*
X155347406Y-107995838D01*
X155117849Y-107945367D01*
X154902463Y-107851267D01*
X154709466Y-107717131D01*
X154546189Y-107548053D01*
X154431602Y-107370250D01*
X154385553Y-107317068D01*
X154326511Y-107278820D01*
X154259151Y-107258535D01*
X154188807Y-107257820D01*
X154121048Y-107276730D01*
X154061240Y-107313769D01*
X154014119Y-107366003D01*
X154001765Y-107388306D01*
X153861658Y-107586920D01*
X153691448Y-107749009D01*
X153492995Y-107874951D01*
X153273863Y-107959946D01*
X153042392Y-108000761D01*
X152807406Y-107995838D01*
X152577849Y-107945367D01*
X152362463Y-107851267D01*
X152169466Y-107717131D01*
X152006189Y-107548053D01*
X151891602Y-107370250D01*
X151845553Y-107317068D01*
X151786511Y-107278820D01*
X151719151Y-107258535D01*
X151648807Y-107257820D01*
X151581048Y-107276730D01*
X151521240Y-107313769D01*
X151474119Y-107366003D01*
X151461765Y-107388306D01*
X151321658Y-107586920D01*
X151151448Y-107749009D01*
X150952995Y-107874951D01*
X150733863Y-107959946D01*
X150502392Y-108000761D01*
X150267406Y-107995838D01*
X150037849Y-107945367D01*
X149822463Y-107851267D01*
X149629466Y-107717131D01*
X149466189Y-107548053D01*
X149351602Y-107370250D01*
X149305553Y-107317068D01*
X149246511Y-107278820D01*
X149179151Y-107258535D01*
X149108807Y-107257820D01*
X149041048Y-107276730D01*
X148981240Y-107313769D01*
X148934119Y-107366003D01*
X148921765Y-107388306D01*
X148781658Y-107586920D01*
X148611448Y-107749009D01*
X148412995Y-107874951D01*
X148193863Y-107959946D01*
X147962392Y-108000761D01*
X147727406Y-107995838D01*
X147497849Y-107945367D01*
X147282463Y-107851267D01*
X147089466Y-107717131D01*
X146926189Y-107548053D01*
X146811602Y-107370250D01*
X146765553Y-107317068D01*
X146706511Y-107278820D01*
X146639151Y-107258535D01*
X146568807Y-107257820D01*
X146501048Y-107276730D01*
X146441240Y-107313769D01*
X146394119Y-107366003D01*
X146381765Y-107388306D01*
X146241658Y-107586920D01*
X146071448Y-107749009D01*
X145872995Y-107874951D01*
X145653863Y-107959946D01*
X145422392Y-108000761D01*
X145187406Y-107995838D01*
X144957849Y-107945367D01*
X144742463Y-107851267D01*
X144549466Y-107717131D01*
X144386189Y-107548053D01*
X144271602Y-107370250D01*
X144225553Y-107317068D01*
X144166511Y-107278820D01*
X144099151Y-107258535D01*
X144028807Y-107257820D01*
X143961048Y-107276730D01*
X143901240Y-107313769D01*
X143854119Y-107366003D01*
X143841765Y-107388306D01*
X143701658Y-107586920D01*
X143531448Y-107749009D01*
X143332995Y-107874951D01*
X143113863Y-107959946D01*
X142882392Y-108000761D01*
X142647406Y-107995838D01*
X142417849Y-107945367D01*
X142202463Y-107851267D01*
X142009466Y-107717131D01*
X141846189Y-107548053D01*
X141731602Y-107370250D01*
X141685553Y-107317068D01*
X141626511Y-107278820D01*
X141559151Y-107258535D01*
X141488807Y-107257820D01*
X141421048Y-107276730D01*
X141361240Y-107313769D01*
X141314119Y-107366003D01*
X141301765Y-107388306D01*
X141161658Y-107586920D01*
X140991448Y-107749009D01*
X140792995Y-107874951D01*
X140573863Y-107959946D01*
X140342392Y-108000761D01*
X140107406Y-107995838D01*
X139877849Y-107945367D01*
X139662463Y-107851267D01*
X139469466Y-107717131D01*
X139306189Y-107548053D01*
X139191602Y-107370250D01*
X139145553Y-107317068D01*
X139086511Y-107278820D01*
X139019151Y-107258535D01*
X138948807Y-107257820D01*
X138881048Y-107276730D01*
X138821240Y-107313769D01*
X138774119Y-107366003D01*
X138761765Y-107388306D01*
X138621658Y-107586920D01*
X138451448Y-107749009D01*
X138252995Y-107874951D01*
X138033863Y-107959946D01*
X137802392Y-108000761D01*
X137567406Y-107995838D01*
X137337849Y-107945367D01*
X137122463Y-107851267D01*
X136929466Y-107717131D01*
X136766189Y-107548053D01*
X136651602Y-107370250D01*
X136605553Y-107317068D01*
X136546511Y-107278820D01*
X136479151Y-107258535D01*
X136408807Y-107257820D01*
X136341048Y-107276730D01*
X136281240Y-107313769D01*
X136234119Y-107366003D01*
X136221765Y-107388306D01*
X136081658Y-107586920D01*
X135911448Y-107749009D01*
X135712995Y-107874951D01*
X135493863Y-107959946D01*
X135262392Y-108000761D01*
X135027406Y-107995838D01*
X134797849Y-107945367D01*
X134582463Y-107851267D01*
X134389466Y-107717131D01*
X134226190Y-107548054D01*
X134098865Y-107350486D01*
X134012343Y-107131955D01*
X133969914Y-106900775D01*
X133973196Y-106665754D01*
X134022062Y-106435855D01*
X134114656Y-106219818D01*
X134247445Y-106025884D01*
X134415375Y-105861436D01*
X134612047Y-105732737D01*
X134829972Y-105644689D01*
X135060851Y-105600646D01*
X135295883Y-105602287D01*
X135526124Y-105649549D01*
X135742798Y-105740631D01*
X135937655Y-105872063D01*
X136103276Y-106038844D01*
X136230730Y-106230678D01*
X136277516Y-106283212D01*
X136337087Y-106320632D01*
X136404723Y-106339975D01*
X136475071Y-106339708D01*
X136542559Y-106319854D01*
X136601844Y-106281984D01*
X136645238Y-106233572D01*
X136787444Y-106025885D01*
X136955375Y-105861436D01*
X137152047Y-105732737D01*
X137369972Y-105644689D01*
X137600851Y-105600646D01*
X137835883Y-105602287D01*
X138066124Y-105649549D01*
X138282798Y-105740631D01*
X138477655Y-105872063D01*
X138643276Y-106038844D01*
X138770730Y-106230678D01*
X138817516Y-106283212D01*
X138877087Y-106320632D01*
X138944723Y-106339975D01*
X139015071Y-106339708D01*
X139082559Y-106319854D01*
X139141844Y-106281984D01*
X139185238Y-106233572D01*
X139327444Y-106025885D01*
X139495375Y-105861436D01*
X139692047Y-105732737D01*
X139909972Y-105644689D01*
X140140851Y-105600646D01*
X140375883Y-105602287D01*
X140606124Y-105649549D01*
X140822798Y-105740631D01*
X141017655Y-105872063D01*
X141183276Y-106038844D01*
X141310730Y-106230678D01*
X141357516Y-106283212D01*
X141417087Y-106320632D01*
X141484723Y-106339975D01*
X141555071Y-106339708D01*
X141622559Y-106319854D01*
X141681844Y-106281984D01*
X141725238Y-106233572D01*
X141867444Y-106025885D01*
X142035375Y-105861436D01*
X142232047Y-105732737D01*
X142449972Y-105644689D01*
X142680851Y-105600646D01*
X142915883Y-105602287D01*
X143146124Y-105649549D01*
X143362798Y-105740631D01*
X143557655Y-105872063D01*
X143723276Y-106038844D01*
X143850730Y-106230678D01*
X143897516Y-106283212D01*
X143957087Y-106320632D01*
X144024723Y-106339975D01*
X144095071Y-106339708D01*
X144162559Y-106319854D01*
X144221844Y-106281984D01*
X144265238Y-106233572D01*
X144407444Y-106025885D01*
X144575375Y-105861436D01*
X144772047Y-105732737D01*
X144989972Y-105644689D01*
X145220851Y-105600646D01*
X145455883Y-105602287D01*
X145686124Y-105649549D01*
X145902798Y-105740631D01*
X146097655Y-105872063D01*
X146263276Y-106038844D01*
X146390730Y-106230678D01*
X146437516Y-106283212D01*
X146497087Y-106320632D01*
X146564723Y-106339975D01*
X146635071Y-106339708D01*
X146702559Y-106319854D01*
X146761844Y-106281984D01*
X146805238Y-106233572D01*
X146947444Y-106025885D01*
X147115375Y-105861436D01*
X147312047Y-105732737D01*
X147529972Y-105644689D01*
X147760851Y-105600646D01*
X147995883Y-105602287D01*
X148226124Y-105649549D01*
X148442798Y-105740631D01*
X148637655Y-105872063D01*
X148803276Y-106038844D01*
X148930730Y-106230678D01*
X148977516Y-106283212D01*
X149037087Y-106320632D01*
X149104723Y-106339975D01*
X149175071Y-106339708D01*
X149242559Y-106319854D01*
X149301844Y-106281984D01*
X149345238Y-106233572D01*
X149487444Y-106025885D01*
X149655375Y-105861436D01*
X149852047Y-105732737D01*
X150069972Y-105644689D01*
X150300851Y-105600646D01*
X150535883Y-105602287D01*
X150766124Y-105649549D01*
X150982798Y-105740631D01*
X151177655Y-105872063D01*
X151343276Y-106038844D01*
X151470730Y-106230678D01*
X151517516Y-106283212D01*
X151577087Y-106320632D01*
X151644723Y-106339975D01*
X151715071Y-106339708D01*
X151782559Y-106319854D01*
X151841844Y-106281984D01*
X151885238Y-106233572D01*
X152027444Y-106025885D01*
X152195375Y-105861436D01*
X152392047Y-105732737D01*
X152609972Y-105644689D01*
X152840851Y-105600646D01*
X153075883Y-105602287D01*
X153306124Y-105649549D01*
X153522798Y-105740631D01*
X153717655Y-105872063D01*
X153883276Y-106038844D01*
X154010730Y-106230678D01*
X154057516Y-106283212D01*
X154117087Y-106320632D01*
X154184723Y-106339975D01*
X154255071Y-106339708D01*
X154322559Y-106319854D01*
X154381844Y-106281984D01*
X154425238Y-106233572D01*
X154567444Y-106025885D01*
X154735375Y-105861436D01*
X154932047Y-105732737D01*
X155149972Y-105644689D01*
X155380851Y-105600646D01*
X155615883Y-105602287D01*
X155615883Y-105602287D01*
G37*
G36*
X121625883Y-100242287D02*
X121856124Y-100289549D01*
X122072798Y-100380631D01*
X122267655Y-100512063D01*
X122433276Y-100678844D01*
X122563340Y-100874607D01*
X122652910Y-101091919D01*
X122698219Y-101320749D01*
X122698218Y-101320801D01*
X122698551Y-101322481D01*
X122694803Y-101590939D01*
X122694424Y-101592608D01*
X122694423Y-101592664D01*
X122642742Y-101820140D01*
X122547143Y-102034859D01*
X122411658Y-102226920D01*
X122241448Y-102389009D01*
X122042995Y-102514951D01*
X121823863Y-102599946D01*
X121592392Y-102640761D01*
X121357406Y-102635838D01*
X121127849Y-102585367D01*
X120912463Y-102491267D01*
X120719466Y-102357131D01*
X120556190Y-102188054D01*
X120428865Y-101990486D01*
X120342343Y-101771955D01*
X120299914Y-101540775D01*
X120303196Y-101305754D01*
X120352062Y-101075855D01*
X120444656Y-100859818D01*
X120577445Y-100665884D01*
X120745375Y-100501436D01*
X120942047Y-100372737D01*
X121159972Y-100284689D01*
X121390851Y-100240646D01*
X121625883Y-100242287D01*
X121625883Y-100242287D01*
G37*
G36*
X158135883Y-96422287D02*
X158366124Y-96469549D01*
X158582798Y-96560631D01*
X158777655Y-96692063D01*
X158943276Y-96858844D01*
X159073340Y-97054607D01*
X159162910Y-97271919D01*
X159208219Y-97500749D01*
X159208218Y-97500801D01*
X159208551Y-97502481D01*
X159204803Y-97770939D01*
X159204424Y-97772608D01*
X159204423Y-97772664D01*
X159152742Y-98000140D01*
X159057143Y-98214859D01*
X158921658Y-98406920D01*
X158751448Y-98569009D01*
X158552995Y-98694951D01*
X158333863Y-98779946D01*
X158102392Y-98820761D01*
X157867406Y-98815838D01*
X157637849Y-98765367D01*
X157422463Y-98671267D01*
X157229466Y-98537131D01*
X157066189Y-98368053D01*
X156951602Y-98190250D01*
X156905553Y-98137068D01*
X156846511Y-98098820D01*
X156779151Y-98078535D01*
X156708807Y-98077820D01*
X156641048Y-98096730D01*
X156581240Y-98133769D01*
X156534119Y-98186003D01*
X156521765Y-98208306D01*
X156381658Y-98406920D01*
X156211448Y-98569009D01*
X156012995Y-98694951D01*
X155793863Y-98779946D01*
X155562392Y-98820761D01*
X155327406Y-98815838D01*
X155097849Y-98765367D01*
X154882463Y-98671267D01*
X154689466Y-98537131D01*
X154526189Y-98368053D01*
X154411602Y-98190250D01*
X154365553Y-98137068D01*
X154306511Y-98098820D01*
X154239151Y-98078535D01*
X154168807Y-98077820D01*
X154101048Y-98096730D01*
X154041240Y-98133769D01*
X153994119Y-98186003D01*
X153981765Y-98208306D01*
X153841658Y-98406920D01*
X153671448Y-98569009D01*
X153472995Y-98694951D01*
X153253863Y-98779946D01*
X153022392Y-98820761D01*
X152787406Y-98815838D01*
X152557849Y-98765367D01*
X152342463Y-98671267D01*
X152149466Y-98537131D01*
X151986189Y-98368053D01*
X151871602Y-98190250D01*
X151825553Y-98137068D01*
X151766511Y-98098820D01*
X151699151Y-98078535D01*
X151628807Y-98077820D01*
X151561048Y-98096730D01*
X151501240Y-98133769D01*
X151454119Y-98186003D01*
X151441765Y-98208306D01*
X151301658Y-98406920D01*
X151131448Y-98569009D01*
X150932995Y-98694951D01*
X150713863Y-98779946D01*
X150482392Y-98820761D01*
X150247406Y-98815838D01*
X150017849Y-98765367D01*
X149802463Y-98671267D01*
X149609466Y-98537131D01*
X149446189Y-98368053D01*
X149331602Y-98190250D01*
X149285553Y-98137068D01*
X149226511Y-98098820D01*
X149159151Y-98078535D01*
X149088807Y-98077820D01*
X149021048Y-98096730D01*
X148961240Y-98133769D01*
X148914119Y-98186003D01*
X148901765Y-98208306D01*
X148761658Y-98406920D01*
X148591448Y-98569009D01*
X148392995Y-98694951D01*
X148173863Y-98779946D01*
X147942392Y-98820761D01*
X147707406Y-98815838D01*
X147477849Y-98765367D01*
X147262463Y-98671267D01*
X147069466Y-98537131D01*
X146906189Y-98368053D01*
X146791602Y-98190250D01*
X146745553Y-98137068D01*
X146686511Y-98098820D01*
X146619151Y-98078535D01*
X146548807Y-98077820D01*
X146481048Y-98096730D01*
X146421240Y-98133769D01*
X146374119Y-98186003D01*
X146361765Y-98208306D01*
X146221658Y-98406920D01*
X146051448Y-98569009D01*
X145852995Y-98694951D01*
X145633863Y-98779946D01*
X145402392Y-98820761D01*
X145167406Y-98815838D01*
X144937849Y-98765367D01*
X144722463Y-98671267D01*
X144529466Y-98537131D01*
X144366189Y-98368053D01*
X144251602Y-98190250D01*
X144205553Y-98137068D01*
X144146511Y-98098820D01*
X144079151Y-98078535D01*
X144008807Y-98077820D01*
X143941048Y-98096730D01*
X143881240Y-98133769D01*
X143834119Y-98186003D01*
X143821765Y-98208306D01*
X143681658Y-98406920D01*
X143511448Y-98569009D01*
X143312995Y-98694951D01*
X143093863Y-98779946D01*
X142862392Y-98820761D01*
X142627406Y-98815838D01*
X142397849Y-98765367D01*
X142182463Y-98671267D01*
X141989466Y-98537131D01*
X141826189Y-98368053D01*
X141711602Y-98190250D01*
X141665553Y-98137068D01*
X141606511Y-98098820D01*
X141539151Y-98078535D01*
X141468807Y-98077820D01*
X141401048Y-98096730D01*
X141341240Y-98133769D01*
X141294119Y-98186003D01*
X141281765Y-98208306D01*
X141141658Y-98406920D01*
X140971448Y-98569009D01*
X140772995Y-98694951D01*
X140553863Y-98779946D01*
X140322392Y-98820761D01*
X140087406Y-98815838D01*
X139857849Y-98765367D01*
X139642463Y-98671267D01*
X139449466Y-98537131D01*
X139286189Y-98368053D01*
X139171602Y-98190250D01*
X139125553Y-98137068D01*
X139066511Y-98098820D01*
X138999151Y-98078535D01*
X138928807Y-98077820D01*
X138861048Y-98096730D01*
X138801240Y-98133769D01*
X138754119Y-98186003D01*
X138741765Y-98208306D01*
X138601658Y-98406920D01*
X138431448Y-98569009D01*
X138232995Y-98694951D01*
X138013863Y-98779946D01*
X137782392Y-98820761D01*
X137547406Y-98815838D01*
X137317849Y-98765367D01*
X137102463Y-98671267D01*
X136909466Y-98537131D01*
X136746189Y-98368053D01*
X136631602Y-98190250D01*
X136585553Y-98137068D01*
X136526511Y-98098820D01*
X136459151Y-98078535D01*
X136388807Y-98077820D01*
X136321048Y-98096730D01*
X136261240Y-98133769D01*
X136214119Y-98186003D01*
X136201765Y-98208306D01*
X136061658Y-98406920D01*
X135891448Y-98569009D01*
X135692995Y-98694951D01*
X135473863Y-98779946D01*
X135242392Y-98820761D01*
X135007406Y-98815838D01*
X134777849Y-98765367D01*
X134562463Y-98671267D01*
X134369466Y-98537131D01*
X134206189Y-98368053D01*
X134091602Y-98190250D01*
X134045553Y-98137068D01*
X133986511Y-98098820D01*
X133919151Y-98078535D01*
X133848807Y-98077820D01*
X133781048Y-98096730D01*
X133721240Y-98133769D01*
X133674119Y-98186003D01*
X133661765Y-98208306D01*
X133521658Y-98406920D01*
X133351448Y-98569009D01*
X133152995Y-98694951D01*
X132933863Y-98779946D01*
X132702392Y-98820761D01*
X132467406Y-98815838D01*
X132237849Y-98765367D01*
X132022463Y-98671267D01*
X131829466Y-98537131D01*
X131666189Y-98368053D01*
X131551602Y-98190250D01*
X131505553Y-98137068D01*
X131446511Y-98098820D01*
X131379151Y-98078535D01*
X131308807Y-98077820D01*
X131241048Y-98096730D01*
X131181240Y-98133769D01*
X131134119Y-98186003D01*
X131121765Y-98208306D01*
X130981658Y-98406920D01*
X130811448Y-98569009D01*
X130612995Y-98694951D01*
X130393863Y-98779946D01*
X130162392Y-98820761D01*
X129927406Y-98815838D01*
X129697849Y-98765367D01*
X129482463Y-98671267D01*
X129289466Y-98537131D01*
X129126189Y-98368053D01*
X129011602Y-98190250D01*
X128965553Y-98137068D01*
X128906511Y-98098820D01*
X128839151Y-98078535D01*
X128768807Y-98077820D01*
X128701048Y-98096730D01*
X128641240Y-98133769D01*
X128594119Y-98186003D01*
X128581765Y-98208306D01*
X128441658Y-98406920D01*
X128271448Y-98569009D01*
X128072995Y-98694951D01*
X127853863Y-98779946D01*
X127622392Y-98820761D01*
X127387406Y-98815838D01*
X127157849Y-98765367D01*
X126942463Y-98671267D01*
X126749466Y-98537131D01*
X126618335Y-98401341D01*
X126562833Y-98358116D01*
X126497487Y-98332065D01*
X126427470Y-98325249D01*
X126358326Y-98338211D01*
X126295530Y-98369921D01*
X126244055Y-98417871D01*
X126207977Y-98478263D01*
X126188500Y-98575006D01*
X126188500Y-98818500D01*
X123791500Y-98818500D01*
X123791500Y-96421500D01*
X126188500Y-96421500D01*
X126188500Y-96661419D01*
X126198398Y-96731067D01*
X126227307Y-96795201D01*
X126272939Y-96848741D01*
X126331681Y-96887449D01*
X126398880Y-96908260D01*
X126469217Y-96909525D01*
X126537121Y-96891145D01*
X126613415Y-96840038D01*
X126775375Y-96681436D01*
X126972047Y-96552737D01*
X127189972Y-96464689D01*
X127420851Y-96420646D01*
X127655883Y-96422287D01*
X127886124Y-96469549D01*
X128102798Y-96560631D01*
X128297655Y-96692063D01*
X128463276Y-96858844D01*
X128590730Y-97050678D01*
X128637516Y-97103212D01*
X128697087Y-97140632D01*
X128764723Y-97159975D01*
X128835071Y-97159708D01*
X128902559Y-97139854D01*
X128961844Y-97101984D01*
X129005238Y-97053572D01*
X129147444Y-96845885D01*
X129315375Y-96681436D01*
X129512047Y-96552737D01*
X129729972Y-96464689D01*
X129960851Y-96420646D01*
X130195883Y-96422287D01*
X130426124Y-96469549D01*
X130642798Y-96560631D01*
X130837655Y-96692063D01*
X131003276Y-96858844D01*
X131130730Y-97050678D01*
X131177516Y-97103212D01*
X131237087Y-97140632D01*
X131304723Y-97159975D01*
X131375071Y-97159708D01*
X131442559Y-97139854D01*
X131501844Y-97101984D01*
X131545238Y-97053572D01*
X131687444Y-96845885D01*
X131855375Y-96681436D01*
X132052047Y-96552737D01*
X132269972Y-96464689D01*
X132500851Y-96420646D01*
X132735883Y-96422287D01*
X132966124Y-96469549D01*
X133182798Y-96560631D01*
X133377655Y-96692063D01*
X133543276Y-96858844D01*
X133670730Y-97050678D01*
X133717516Y-97103212D01*
X133777087Y-97140632D01*
X133844723Y-97159975D01*
X133915071Y-97159708D01*
X133982559Y-97139854D01*
X134041844Y-97101984D01*
X134085238Y-97053572D01*
X134227444Y-96845885D01*
X134395375Y-96681436D01*
X134592047Y-96552737D01*
X134809972Y-96464689D01*
X135040851Y-96420646D01*
X135275883Y-96422287D01*
X135506124Y-96469549D01*
X135722798Y-96560631D01*
X135917655Y-96692063D01*
X136083276Y-96858844D01*
X136210730Y-97050678D01*
X136257516Y-97103212D01*
X136317087Y-97140632D01*
X136384723Y-97159975D01*
X136455071Y-97159708D01*
X136522559Y-97139854D01*
X136581844Y-97101984D01*
X136625238Y-97053572D01*
X136767444Y-96845885D01*
X136935375Y-96681436D01*
X137132047Y-96552737D01*
X137349972Y-96464689D01*
X137580851Y-96420646D01*
X137815883Y-96422287D01*
X138046124Y-96469549D01*
X138262798Y-96560631D01*
X138457655Y-96692063D01*
X138623276Y-96858844D01*
X138750730Y-97050678D01*
X138797516Y-97103212D01*
X138857087Y-97140632D01*
X138924723Y-97159975D01*
X138995071Y-97159708D01*
X139062559Y-97139854D01*
X139121844Y-97101984D01*
X139165238Y-97053572D01*
X139307444Y-96845885D01*
X139475375Y-96681436D01*
X139672047Y-96552737D01*
X139889972Y-96464689D01*
X140120851Y-96420646D01*
X140355883Y-96422287D01*
X140586124Y-96469549D01*
X140802798Y-96560631D01*
X140997655Y-96692063D01*
X141163276Y-96858844D01*
X141290730Y-97050678D01*
X141337516Y-97103212D01*
X141397087Y-97140632D01*
X141464723Y-97159975D01*
X141535071Y-97159708D01*
X141602559Y-97139854D01*
X141661844Y-97101984D01*
X141705238Y-97053572D01*
X141847444Y-96845885D01*
X142015375Y-96681436D01*
X142212047Y-96552737D01*
X142429972Y-96464689D01*
X142660851Y-96420646D01*
X142895883Y-96422287D01*
X143126124Y-96469549D01*
X143342798Y-96560631D01*
X143537655Y-96692063D01*
X143703276Y-96858844D01*
X143830730Y-97050678D01*
X143877516Y-97103212D01*
X143937087Y-97140632D01*
X144004723Y-97159975D01*
X144075071Y-97159708D01*
X144142559Y-97139854D01*
X144201844Y-97101984D01*
X144245238Y-97053572D01*
X144387444Y-96845885D01*
X144555375Y-96681436D01*
X144752047Y-96552737D01*
X144969972Y-96464689D01*
X145200851Y-96420646D01*
X145435883Y-96422287D01*
X145666124Y-96469549D01*
X145882798Y-96560631D01*
X146077655Y-96692063D01*
X146243276Y-96858844D01*
X146370730Y-97050678D01*
X146417516Y-97103212D01*
X146477087Y-97140632D01*
X146544723Y-97159975D01*
X146615071Y-97159708D01*
X146682559Y-97139854D01*
X146741844Y-97101984D01*
X146785238Y-97053572D01*
X146927444Y-96845885D01*
X147095375Y-96681436D01*
X147292047Y-96552737D01*
X147509972Y-96464689D01*
X147740851Y-96420646D01*
X147975883Y-96422287D01*
X148206124Y-96469549D01*
X148422798Y-96560631D01*
X148617655Y-96692063D01*
X148783276Y-96858844D01*
X148910730Y-97050678D01*
X148957516Y-97103212D01*
X149017087Y-97140632D01*
X149084723Y-97159975D01*
X149155071Y-97159708D01*
X149222559Y-97139854D01*
X149281844Y-97101984D01*
X149325238Y-97053572D01*
X149467444Y-96845885D01*
X149635375Y-96681436D01*
X149832047Y-96552737D01*
X150049972Y-96464689D01*
X150280851Y-96420646D01*
X150515883Y-96422287D01*
X150746124Y-96469549D01*
X150962798Y-96560631D01*
X151157655Y-96692063D01*
X151323276Y-96858844D01*
X151450730Y-97050678D01*
X151497516Y-97103212D01*
X151557087Y-97140632D01*
X151624723Y-97159975D01*
X151695071Y-97159708D01*
X151762559Y-97139854D01*
X151821844Y-97101984D01*
X151865238Y-97053572D01*
X152007444Y-96845885D01*
X152175375Y-96681436D01*
X152372047Y-96552737D01*
X152589972Y-96464689D01*
X152820851Y-96420646D01*
X153055883Y-96422287D01*
X153286124Y-96469549D01*
X153502798Y-96560631D01*
X153697655Y-96692063D01*
X153863276Y-96858844D01*
X153990730Y-97050678D01*
X154037516Y-97103212D01*
X154097087Y-97140632D01*
X154164723Y-97159975D01*
X154235071Y-97159708D01*
X154302559Y-97139854D01*
X154361844Y-97101984D01*
X154405238Y-97053572D01*
X154547444Y-96845885D01*
X154715375Y-96681436D01*
X154912047Y-96552737D01*
X155129972Y-96464689D01*
X155360851Y-96420646D01*
X155595883Y-96422287D01*
X155826124Y-96469549D01*
X156042798Y-96560631D01*
X156237655Y-96692063D01*
X156403276Y-96858844D01*
X156530730Y-97050678D01*
X156577516Y-97103212D01*
X156637087Y-97140632D01*
X156704723Y-97159975D01*
X156775071Y-97159708D01*
X156842559Y-97139854D01*
X156901844Y-97101984D01*
X156945238Y-97053572D01*
X157087444Y-96845885D01*
X157255375Y-96681436D01*
X157452047Y-96552737D01*
X157669972Y-96464689D01*
X157900851Y-96420646D01*
X158135883Y-96422287D01*
X158135883Y-96422287D01*
G37*
G36*
X121625883Y-91342287D02*
X121856124Y-91389549D01*
X122072798Y-91480631D01*
X122267655Y-91612063D01*
X122433276Y-91778844D01*
X122563340Y-91974607D01*
X122652910Y-92191919D01*
X122698219Y-92420749D01*
X122698218Y-92420801D01*
X122698551Y-92422481D01*
X122694803Y-92690939D01*
X122694424Y-92692608D01*
X122694423Y-92692664D01*
X122642742Y-92920140D01*
X122547143Y-93134859D01*
X122411658Y-93326920D01*
X122241448Y-93489009D01*
X122042995Y-93614951D01*
X121823863Y-93699946D01*
X121592392Y-93740761D01*
X121357406Y-93735838D01*
X121127849Y-93685367D01*
X120912463Y-93591267D01*
X120719466Y-93457131D01*
X120556190Y-93288054D01*
X120428865Y-93090486D01*
X120342343Y-92871955D01*
X120299914Y-92640775D01*
X120303196Y-92405754D01*
X120352062Y-92175855D01*
X120444656Y-91959818D01*
X120577445Y-91765884D01*
X120745375Y-91601436D01*
X120942047Y-91472737D01*
X121159972Y-91384689D01*
X121390851Y-91340646D01*
X121625883Y-91342287D01*
X121625883Y-91342287D01*
G37*
G36*
X121625883Y-86262287D02*
X121856124Y-86309549D01*
X122072798Y-86400631D01*
X122267655Y-86532063D01*
X122433276Y-86698844D01*
X122563340Y-86894607D01*
X122652910Y-87111919D01*
X122698219Y-87340749D01*
X122698218Y-87340801D01*
X122698551Y-87342481D01*
X122694803Y-87610939D01*
X122694424Y-87612608D01*
X122694423Y-87612664D01*
X122642742Y-87840140D01*
X122547143Y-88054859D01*
X122411658Y-88246920D01*
X122241448Y-88409009D01*
X122042995Y-88534951D01*
X121823863Y-88619946D01*
X121592392Y-88660761D01*
X121357406Y-88655838D01*
X121127849Y-88605367D01*
X120912463Y-88511267D01*
X120719466Y-88377131D01*
X120556190Y-88208054D01*
X120428865Y-88010486D01*
X120342343Y-87791955D01*
X120299914Y-87560775D01*
X120303196Y-87325754D01*
X120352062Y-87095855D01*
X120444656Y-86879818D01*
X120577445Y-86685884D01*
X120745375Y-86521436D01*
X120942047Y-86392737D01*
X121159972Y-86304689D01*
X121390851Y-86260646D01*
X121625883Y-86262287D01*
X121625883Y-86262287D01*
G37*
G36*
X165087219Y-83789596D02*
X165319897Y-83837358D01*
X165538869Y-83929405D01*
X165735792Y-84062232D01*
X165903162Y-84230774D01*
X166034611Y-84428621D01*
X166125125Y-84648225D01*
X166170920Y-84879505D01*
X166170919Y-84879560D01*
X166171251Y-84881236D01*
X166167463Y-85152538D01*
X166167084Y-85154207D01*
X166167083Y-85154262D01*
X166114850Y-85384168D01*
X166018238Y-85601162D01*
X165881318Y-85795258D01*
X165709304Y-85959065D01*
X165508749Y-86086341D01*
X165287295Y-86172238D01*
X165053372Y-86213485D01*
X164815894Y-86208509D01*
X164583907Y-86157504D01*
X164366237Y-86062406D01*
X164171195Y-85926849D01*
X164006187Y-85755979D01*
X163877518Y-85556323D01*
X163790076Y-85335470D01*
X163747197Y-85101843D01*
X163750514Y-84864334D01*
X163799900Y-84631993D01*
X163893473Y-84413671D01*
X164027669Y-84217682D01*
X164197380Y-84051488D01*
X164396132Y-83921429D01*
X164616371Y-83832447D01*
X164849694Y-83787938D01*
X165087219Y-83789596D01*
X165087219Y-83789596D01*
G37*
G36*
X170167219Y-83789596D02*
X170399897Y-83837358D01*
X170618869Y-83929405D01*
X170815792Y-84062232D01*
X170983162Y-84230774D01*
X171114611Y-84428621D01*
X171205125Y-84648225D01*
X171250920Y-84879505D01*
X171250919Y-84879560D01*
X171251251Y-84881236D01*
X171247463Y-85152538D01*
X171247084Y-85154207D01*
X171247083Y-85154262D01*
X171194850Y-85384168D01*
X171098238Y-85601162D01*
X170961318Y-85795258D01*
X170789304Y-85959065D01*
X170588749Y-86086341D01*
X170367295Y-86172238D01*
X170133372Y-86213485D01*
X169895894Y-86208509D01*
X169663907Y-86157504D01*
X169446237Y-86062406D01*
X169251195Y-85926849D01*
X169086187Y-85755979D01*
X168957518Y-85556323D01*
X168870076Y-85335470D01*
X168827197Y-85101843D01*
X168830514Y-84864334D01*
X168879900Y-84631993D01*
X168973473Y-84413671D01*
X169107669Y-84217682D01*
X169277380Y-84051488D01*
X169476132Y-83921429D01*
X169696371Y-83832447D01*
X169929694Y-83787938D01*
X170167219Y-83789596D01*
X170167219Y-83789596D01*
G37*
G36*
X158135883Y-81182287D02*
X158366124Y-81229549D01*
X158582798Y-81320631D01*
X158777655Y-81452063D01*
X158943276Y-81618844D01*
X159073340Y-81814607D01*
X159162910Y-82031919D01*
X159208219Y-82260749D01*
X159208218Y-82260801D01*
X159208551Y-82262481D01*
X159204803Y-82530939D01*
X159204424Y-82532608D01*
X159204423Y-82532664D01*
X159152742Y-82760140D01*
X159057143Y-82974859D01*
X158921658Y-83166920D01*
X158751448Y-83329009D01*
X158552995Y-83454951D01*
X158333863Y-83539946D01*
X158102392Y-83580761D01*
X157867406Y-83575838D01*
X157637849Y-83525367D01*
X157422463Y-83431267D01*
X157229466Y-83297131D01*
X157066189Y-83128053D01*
X156951602Y-82950250D01*
X156905553Y-82897068D01*
X156846511Y-82858820D01*
X156779151Y-82838535D01*
X156708807Y-82837820D01*
X156641048Y-82856730D01*
X156581240Y-82893769D01*
X156534119Y-82946003D01*
X156521765Y-82968306D01*
X156381658Y-83166920D01*
X156211448Y-83329009D01*
X156012995Y-83454951D01*
X155793863Y-83539946D01*
X155562392Y-83580761D01*
X155327406Y-83575838D01*
X155097849Y-83525367D01*
X154882463Y-83431267D01*
X154689466Y-83297131D01*
X154526189Y-83128053D01*
X154411602Y-82950250D01*
X154365553Y-82897068D01*
X154306511Y-82858820D01*
X154239151Y-82838535D01*
X154168807Y-82837820D01*
X154101048Y-82856730D01*
X154041240Y-82893769D01*
X153994119Y-82946003D01*
X153981765Y-82968306D01*
X153841658Y-83166920D01*
X153671448Y-83329009D01*
X153472995Y-83454951D01*
X153253863Y-83539946D01*
X153022392Y-83580761D01*
X152787406Y-83575838D01*
X152557849Y-83525367D01*
X152342463Y-83431267D01*
X152149466Y-83297131D01*
X151986189Y-83128053D01*
X151871602Y-82950250D01*
X151825553Y-82897068D01*
X151766511Y-82858820D01*
X151699151Y-82838535D01*
X151628807Y-82837820D01*
X151561048Y-82856730D01*
X151501240Y-82893769D01*
X151454119Y-82946003D01*
X151441765Y-82968306D01*
X151301658Y-83166920D01*
X151131448Y-83329009D01*
X150932995Y-83454951D01*
X150713863Y-83539946D01*
X150482392Y-83580761D01*
X150247406Y-83575838D01*
X150017849Y-83525367D01*
X149802463Y-83431267D01*
X149609466Y-83297131D01*
X149446189Y-83128053D01*
X149331602Y-82950250D01*
X149285553Y-82897068D01*
X149226511Y-82858820D01*
X149159151Y-82838535D01*
X149088807Y-82837820D01*
X149021048Y-82856730D01*
X148961240Y-82893769D01*
X148914119Y-82946003D01*
X148901765Y-82968306D01*
X148761658Y-83166920D01*
X148591448Y-83329009D01*
X148392995Y-83454951D01*
X148173863Y-83539946D01*
X147942392Y-83580761D01*
X147707406Y-83575838D01*
X147477849Y-83525367D01*
X147262463Y-83431267D01*
X147069466Y-83297131D01*
X146906189Y-83128053D01*
X146791602Y-82950250D01*
X146745553Y-82897068D01*
X146686511Y-82858820D01*
X146619151Y-82838535D01*
X146548807Y-82837820D01*
X146481048Y-82856730D01*
X146421240Y-82893769D01*
X146374119Y-82946003D01*
X146361765Y-82968306D01*
X146221658Y-83166920D01*
X146051448Y-83329009D01*
X145852995Y-83454951D01*
X145633863Y-83539946D01*
X145402392Y-83580761D01*
X145167406Y-83575838D01*
X144937849Y-83525367D01*
X144722463Y-83431267D01*
X144529466Y-83297131D01*
X144366189Y-83128053D01*
X144251602Y-82950250D01*
X144205553Y-82897068D01*
X144146511Y-82858820D01*
X144079151Y-82838535D01*
X144008807Y-82837820D01*
X143941048Y-82856730D01*
X143881240Y-82893769D01*
X143834119Y-82946003D01*
X143821765Y-82968306D01*
X143681658Y-83166920D01*
X143511448Y-83329009D01*
X143312995Y-83454951D01*
X143093863Y-83539946D01*
X142862392Y-83580761D01*
X142627406Y-83575838D01*
X142397849Y-83525367D01*
X142182463Y-83431267D01*
X141989466Y-83297131D01*
X141826189Y-83128053D01*
X141711602Y-82950250D01*
X141665553Y-82897068D01*
X141606511Y-82858820D01*
X141539151Y-82838535D01*
X141468807Y-82837820D01*
X141401048Y-82856730D01*
X141341240Y-82893769D01*
X141294119Y-82946003D01*
X141281765Y-82968306D01*
X141141658Y-83166920D01*
X140971448Y-83329009D01*
X140772995Y-83454951D01*
X140553863Y-83539946D01*
X140322392Y-83580761D01*
X140087406Y-83575838D01*
X139857849Y-83525367D01*
X139642463Y-83431267D01*
X139449466Y-83297131D01*
X139286189Y-83128053D01*
X139171602Y-82950250D01*
X139125553Y-82897068D01*
X139066511Y-82858820D01*
X138999151Y-82838535D01*
X138928807Y-82837820D01*
X138861048Y-82856730D01*
X138801240Y-82893769D01*
X138754119Y-82946003D01*
X138741765Y-82968306D01*
X138601658Y-83166920D01*
X138431448Y-83329009D01*
X138232995Y-83454951D01*
X138013863Y-83539946D01*
X137782392Y-83580761D01*
X137547406Y-83575838D01*
X137317849Y-83525367D01*
X137102463Y-83431267D01*
X136909466Y-83297131D01*
X136746189Y-83128053D01*
X136631602Y-82950250D01*
X136585553Y-82897068D01*
X136526511Y-82858820D01*
X136459151Y-82838535D01*
X136388807Y-82837820D01*
X136321048Y-82856730D01*
X136261240Y-82893769D01*
X136214119Y-82946003D01*
X136201765Y-82968306D01*
X136061658Y-83166920D01*
X135891448Y-83329009D01*
X135692995Y-83454951D01*
X135473863Y-83539946D01*
X135242392Y-83580761D01*
X135007406Y-83575838D01*
X134777849Y-83525367D01*
X134562463Y-83431267D01*
X134369466Y-83297131D01*
X134206189Y-83128053D01*
X134091602Y-82950250D01*
X134045553Y-82897068D01*
X133986511Y-82858820D01*
X133919151Y-82838535D01*
X133848807Y-82837820D01*
X133781048Y-82856730D01*
X133721240Y-82893769D01*
X133674119Y-82946003D01*
X133661765Y-82968306D01*
X133521658Y-83166920D01*
X133351448Y-83329009D01*
X133152995Y-83454951D01*
X132933863Y-83539946D01*
X132702392Y-83580761D01*
X132467406Y-83575838D01*
X132237849Y-83525367D01*
X132022463Y-83431267D01*
X131829466Y-83297131D01*
X131666189Y-83128053D01*
X131551602Y-82950250D01*
X131505553Y-82897068D01*
X131446511Y-82858820D01*
X131379151Y-82838535D01*
X131308807Y-82837820D01*
X131241048Y-82856730D01*
X131181240Y-82893769D01*
X131134119Y-82946003D01*
X131121765Y-82968306D01*
X130981658Y-83166920D01*
X130811448Y-83329009D01*
X130612995Y-83454951D01*
X130393863Y-83539946D01*
X130162392Y-83580761D01*
X129927406Y-83575838D01*
X129697849Y-83525367D01*
X129482463Y-83431267D01*
X129289466Y-83297131D01*
X129126189Y-83128053D01*
X129011602Y-82950250D01*
X128965553Y-82897068D01*
X128906511Y-82858820D01*
X128839151Y-82838535D01*
X128768807Y-82837820D01*
X128701048Y-82856730D01*
X128641240Y-82893769D01*
X128594119Y-82946003D01*
X128581765Y-82968306D01*
X128441658Y-83166920D01*
X128271448Y-83329009D01*
X128072995Y-83454951D01*
X127853863Y-83539946D01*
X127622392Y-83580761D01*
X127387406Y-83575838D01*
X127157849Y-83525367D01*
X126942463Y-83431267D01*
X126749466Y-83297131D01*
X126586189Y-83128053D01*
X126471602Y-82950250D01*
X126425553Y-82897068D01*
X126366511Y-82858820D01*
X126299151Y-82838535D01*
X126228807Y-82837820D01*
X126161048Y-82856730D01*
X126101240Y-82893769D01*
X126054119Y-82946003D01*
X126041765Y-82968306D01*
X125901658Y-83166920D01*
X125731448Y-83329009D01*
X125532995Y-83454951D01*
X125313863Y-83539946D01*
X125082392Y-83580761D01*
X124847406Y-83575838D01*
X124617849Y-83525367D01*
X124402463Y-83431267D01*
X124209466Y-83297131D01*
X124046190Y-83128054D01*
X123918865Y-82930486D01*
X123832343Y-82711955D01*
X123789914Y-82480775D01*
X123793196Y-82245754D01*
X123842062Y-82015855D01*
X123934656Y-81799818D01*
X124067445Y-81605884D01*
X124235375Y-81441436D01*
X124432047Y-81312737D01*
X124649972Y-81224689D01*
X124880851Y-81180646D01*
X125115883Y-81182287D01*
X125346124Y-81229549D01*
X125562798Y-81320631D01*
X125757655Y-81452063D01*
X125923276Y-81618844D01*
X126050730Y-81810678D01*
X126097516Y-81863212D01*
X126157087Y-81900632D01*
X126224723Y-81919975D01*
X126295071Y-81919708D01*
X126362559Y-81899854D01*
X126421844Y-81861984D01*
X126465238Y-81813572D01*
X126607444Y-81605885D01*
X126775375Y-81441436D01*
X126972047Y-81312737D01*
X127189972Y-81224689D01*
X127420851Y-81180646D01*
X127655883Y-81182287D01*
X127886124Y-81229549D01*
X128102798Y-81320631D01*
X128297655Y-81452063D01*
X128463276Y-81618844D01*
X128590730Y-81810678D01*
X128637516Y-81863212D01*
X128697087Y-81900632D01*
X128764723Y-81919975D01*
X128835071Y-81919708D01*
X128902559Y-81899854D01*
X128961844Y-81861984D01*
X129005238Y-81813572D01*
X129147444Y-81605885D01*
X129315375Y-81441436D01*
X129512047Y-81312737D01*
X129729972Y-81224689D01*
X129960851Y-81180646D01*
X130195883Y-81182287D01*
X130426124Y-81229549D01*
X130642798Y-81320631D01*
X130837655Y-81452063D01*
X131003276Y-81618844D01*
X131130730Y-81810678D01*
X131177516Y-81863212D01*
X131237087Y-81900632D01*
X131304723Y-81919975D01*
X131375071Y-81919708D01*
X131442559Y-81899854D01*
X131501844Y-81861984D01*
X131545238Y-81813572D01*
X131687444Y-81605885D01*
X131855375Y-81441436D01*
X132052047Y-81312737D01*
X132269972Y-81224689D01*
X132500851Y-81180646D01*
X132735883Y-81182287D01*
X132966124Y-81229549D01*
X133182798Y-81320631D01*
X133377655Y-81452063D01*
X133543276Y-81618844D01*
X133670730Y-81810678D01*
X133717516Y-81863212D01*
X133777087Y-81900632D01*
X133844723Y-81919975D01*
X133915071Y-81919708D01*
X133982559Y-81899854D01*
X134041844Y-81861984D01*
X134085238Y-81813572D01*
X134227444Y-81605885D01*
X134395375Y-81441436D01*
X134592047Y-81312737D01*
X134809972Y-81224689D01*
X135040851Y-81180646D01*
X135275883Y-81182287D01*
X135506124Y-81229549D01*
X135722798Y-81320631D01*
X135917655Y-81452063D01*
X136083276Y-81618844D01*
X136210730Y-81810678D01*
X136257516Y-81863212D01*
X136317087Y-81900632D01*
X136384723Y-81919975D01*
X136455071Y-81919708D01*
X136522559Y-81899854D01*
X136581844Y-81861984D01*
X136625238Y-81813572D01*
X136767444Y-81605885D01*
X136935375Y-81441436D01*
X137132047Y-81312737D01*
X137349972Y-81224689D01*
X137580851Y-81180646D01*
X137815883Y-81182287D01*
X138046124Y-81229549D01*
X138262798Y-81320631D01*
X138457655Y-81452063D01*
X138623276Y-81618844D01*
X138750730Y-81810678D01*
X138797516Y-81863212D01*
X138857087Y-81900632D01*
X138924723Y-81919975D01*
X138995071Y-81919708D01*
X139062559Y-81899854D01*
X139121844Y-81861984D01*
X139165238Y-81813572D01*
X139307444Y-81605885D01*
X139475375Y-81441436D01*
X139672047Y-81312737D01*
X139889972Y-81224689D01*
X140120851Y-81180646D01*
X140355883Y-81182287D01*
X140586124Y-81229549D01*
X140802798Y-81320631D01*
X140997655Y-81452063D01*
X141163276Y-81618844D01*
X141290730Y-81810678D01*
X141337516Y-81863212D01*
X141397087Y-81900632D01*
X141464723Y-81919975D01*
X141535071Y-81919708D01*
X141602559Y-81899854D01*
X141661844Y-81861984D01*
X141705238Y-81813572D01*
X141847444Y-81605885D01*
X142015375Y-81441436D01*
X142212047Y-81312737D01*
X142429972Y-81224689D01*
X142660851Y-81180646D01*
X142895883Y-81182287D01*
X143126124Y-81229549D01*
X143342798Y-81320631D01*
X143537655Y-81452063D01*
X143703276Y-81618844D01*
X143830730Y-81810678D01*
X143877516Y-81863212D01*
X143937087Y-81900632D01*
X144004723Y-81919975D01*
X144075071Y-81919708D01*
X144142559Y-81899854D01*
X144201844Y-81861984D01*
X144245238Y-81813572D01*
X144387444Y-81605885D01*
X144555375Y-81441436D01*
X144752047Y-81312737D01*
X144969972Y-81224689D01*
X145200851Y-81180646D01*
X145435883Y-81182287D01*
X145666124Y-81229549D01*
X145882798Y-81320631D01*
X146077655Y-81452063D01*
X146243276Y-81618844D01*
X146370730Y-81810678D01*
X146417516Y-81863212D01*
X146477087Y-81900632D01*
X146544723Y-81919975D01*
X146615071Y-81919708D01*
X146682559Y-81899854D01*
X146741844Y-81861984D01*
X146785238Y-81813572D01*
X146927444Y-81605885D01*
X147095375Y-81441436D01*
X147292047Y-81312737D01*
X147509972Y-81224689D01*
X147740851Y-81180646D01*
X147975883Y-81182287D01*
X148206124Y-81229549D01*
X148422798Y-81320631D01*
X148617655Y-81452063D01*
X148783276Y-81618844D01*
X148910730Y-81810678D01*
X148957516Y-81863212D01*
X149017087Y-81900632D01*
X149084723Y-81919975D01*
X149155071Y-81919708D01*
X149222559Y-81899854D01*
X149281844Y-81861984D01*
X149325238Y-81813572D01*
X149467444Y-81605885D01*
X149635375Y-81441436D01*
X149832047Y-81312737D01*
X150049972Y-81224689D01*
X150280851Y-81180646D01*
X150515883Y-81182287D01*
X150746124Y-81229549D01*
X150962798Y-81320631D01*
X151157655Y-81452063D01*
X151323276Y-81618844D01*
X151450730Y-81810678D01*
X151497516Y-81863212D01*
X151557087Y-81900632D01*
X151624723Y-81919975D01*
X151695071Y-81919708D01*
X151762559Y-81899854D01*
X151821844Y-81861984D01*
X151865238Y-81813572D01*
X152007444Y-81605885D01*
X152175375Y-81441436D01*
X152372047Y-81312737D01*
X152589972Y-81224689D01*
X152820851Y-81180646D01*
X153055883Y-81182287D01*
X153286124Y-81229549D01*
X153502798Y-81320631D01*
X153697655Y-81452063D01*
X153863276Y-81618844D01*
X153990730Y-81810678D01*
X154037516Y-81863212D01*
X154097087Y-81900632D01*
X154164723Y-81919975D01*
X154235071Y-81919708D01*
X154302559Y-81899854D01*
X154361844Y-81861984D01*
X154405238Y-81813572D01*
X154547444Y-81605885D01*
X154715375Y-81441436D01*
X154912047Y-81312737D01*
X155129972Y-81224689D01*
X155360851Y-81180646D01*
X155595883Y-81182287D01*
X155826124Y-81229549D01*
X156042798Y-81320631D01*
X156237655Y-81452063D01*
X156403276Y-81618844D01*
X156530730Y-81810678D01*
X156577516Y-81863212D01*
X156637087Y-81900632D01*
X156704723Y-81919975D01*
X156775071Y-81919708D01*
X156842559Y-81899854D01*
X156901844Y-81861984D01*
X156945238Y-81813572D01*
X157087444Y-81605885D01*
X157255375Y-81441436D01*
X157452047Y-81312737D01*
X157669972Y-81224689D01*
X157900851Y-81180646D01*
X158135883Y-81182287D01*
X158135883Y-81182287D01*
G37*
G36*
X170435883Y-77302287D02*
X170666124Y-77349549D01*
X170882798Y-77440631D01*
X171077655Y-77572063D01*
X171243276Y-77738844D01*
X171373340Y-77934607D01*
X171462910Y-78151919D01*
X171508219Y-78380749D01*
X171508218Y-78380801D01*
X171508551Y-78382481D01*
X171504803Y-78650939D01*
X171504424Y-78652608D01*
X171504423Y-78652664D01*
X171452742Y-78880140D01*
X171357143Y-79094859D01*
X171221658Y-79286920D01*
X171051448Y-79449009D01*
X170852995Y-79574951D01*
X170633863Y-79659946D01*
X170402392Y-79700761D01*
X170167406Y-79695838D01*
X169937849Y-79645367D01*
X169722463Y-79551267D01*
X169529466Y-79417131D01*
X169366190Y-79248054D01*
X169238865Y-79050486D01*
X169152343Y-78831955D01*
X169109914Y-78600775D01*
X169113196Y-78365754D01*
X169162062Y-78135855D01*
X169254656Y-77919818D01*
X169387445Y-77725884D01*
X169555375Y-77561436D01*
X169752047Y-77432737D01*
X169969972Y-77344689D01*
X170200851Y-77300646D01*
X170435883Y-77302287D01*
X170435883Y-77302287D01*
G37*
G36*
X162815883Y-77302287D02*
X163046124Y-77349549D01*
X163262798Y-77440631D01*
X163457655Y-77572063D01*
X163623276Y-77738844D01*
X163753340Y-77934607D01*
X163842910Y-78151919D01*
X163888219Y-78380749D01*
X163888218Y-78380801D01*
X163888551Y-78382481D01*
X163884803Y-78650939D01*
X163884424Y-78652608D01*
X163884423Y-78652664D01*
X163832742Y-78880140D01*
X163737143Y-79094859D01*
X163601658Y-79286920D01*
X163431448Y-79449009D01*
X163232995Y-79574951D01*
X163013863Y-79659946D01*
X162782392Y-79700761D01*
X162547406Y-79695838D01*
X162317849Y-79645367D01*
X162102463Y-79551267D01*
X161909466Y-79417131D01*
X161746190Y-79248054D01*
X161618865Y-79050486D01*
X161532343Y-78831955D01*
X161489914Y-78600775D01*
X161493196Y-78365754D01*
X161542062Y-78135855D01*
X161634656Y-77919818D01*
X161767445Y-77725884D01*
X161935375Y-77561436D01*
X162132047Y-77432737D01*
X162349972Y-77344689D01*
X162580851Y-77300646D01*
X162815883Y-77302287D01*
X162815883Y-77302287D01*
G37*
G36*
X158435883Y-77302287D02*
X158666124Y-77349549D01*
X158882798Y-77440631D01*
X159077655Y-77572063D01*
X159243276Y-77738844D01*
X159373340Y-77934607D01*
X159462910Y-78151919D01*
X159508219Y-78380749D01*
X159508218Y-78380801D01*
X159508551Y-78382481D01*
X159504803Y-78650939D01*
X159504424Y-78652608D01*
X159504423Y-78652664D01*
X159452742Y-78880140D01*
X159357143Y-79094859D01*
X159221658Y-79286920D01*
X159051448Y-79449009D01*
X158852995Y-79574951D01*
X158633863Y-79659946D01*
X158402392Y-79700761D01*
X158167406Y-79695838D01*
X157937849Y-79645367D01*
X157722463Y-79551267D01*
X157529466Y-79417131D01*
X157366190Y-79248054D01*
X157238865Y-79050486D01*
X157152343Y-78831955D01*
X157109914Y-78600775D01*
X157113196Y-78365754D01*
X157162062Y-78135855D01*
X157254656Y-77919818D01*
X157387445Y-77725884D01*
X157555375Y-77561436D01*
X157752047Y-77432737D01*
X157969972Y-77344689D01*
X158200851Y-77300646D01*
X158435883Y-77302287D01*
X158435883Y-77302287D01*
G37*
G36*
X150815883Y-77302287D02*
X151046124Y-77349549D01*
X151262798Y-77440631D01*
X151457655Y-77572063D01*
X151623276Y-77738844D01*
X151753340Y-77934607D01*
X151842910Y-78151919D01*
X151888219Y-78380749D01*
X151888218Y-78380801D01*
X151888551Y-78382481D01*
X151884803Y-78650939D01*
X151884424Y-78652608D01*
X151884423Y-78652664D01*
X151832742Y-78880140D01*
X151737143Y-79094859D01*
X151601658Y-79286920D01*
X151431448Y-79449009D01*
X151232995Y-79574951D01*
X151013863Y-79659946D01*
X150782392Y-79700761D01*
X150547406Y-79695838D01*
X150317849Y-79645367D01*
X150102463Y-79551267D01*
X149909466Y-79417131D01*
X149746190Y-79248054D01*
X149618865Y-79050486D01*
X149532343Y-78831955D01*
X149489914Y-78600775D01*
X149493196Y-78365754D01*
X149542062Y-78135855D01*
X149634656Y-77919818D01*
X149767445Y-77725884D01*
X149935375Y-77561436D01*
X150132047Y-77432737D01*
X150349972Y-77344689D01*
X150580851Y-77300646D01*
X150815883Y-77302287D01*
X150815883Y-77302287D01*
G37*
G36*
X168745883Y-72612287D02*
X168976124Y-72659549D01*
X169192798Y-72750631D01*
X169387655Y-72882063D01*
X169553276Y-73048844D01*
X169683340Y-73244607D01*
X169772910Y-73461919D01*
X169818219Y-73690749D01*
X169818218Y-73690801D01*
X169818551Y-73692481D01*
X169814803Y-73960939D01*
X169814424Y-73962608D01*
X169814423Y-73962664D01*
X169762742Y-74190140D01*
X169667143Y-74404859D01*
X169531658Y-74596920D01*
X169361448Y-74759009D01*
X169162995Y-74884951D01*
X168943863Y-74969946D01*
X168712392Y-75010761D01*
X168477406Y-75005838D01*
X168247849Y-74955367D01*
X168032463Y-74861267D01*
X167839466Y-74727131D01*
X167676189Y-74558053D01*
X167561602Y-74380250D01*
X167515553Y-74327068D01*
X167456511Y-74288820D01*
X167389151Y-74268535D01*
X167318807Y-74267820D01*
X167251048Y-74286730D01*
X167191240Y-74323769D01*
X167144119Y-74376003D01*
X167131765Y-74398306D01*
X166991658Y-74596920D01*
X166821448Y-74759009D01*
X166622995Y-74884951D01*
X166403863Y-74969946D01*
X166172392Y-75010761D01*
X165937406Y-75005838D01*
X165707849Y-74955367D01*
X165492463Y-74861267D01*
X165299466Y-74727131D01*
X165136189Y-74558053D01*
X165021602Y-74380250D01*
X164975553Y-74327068D01*
X164916511Y-74288820D01*
X164849151Y-74268535D01*
X164778807Y-74267820D01*
X164711048Y-74286730D01*
X164651240Y-74323769D01*
X164604119Y-74376003D01*
X164591765Y-74398306D01*
X164451658Y-74596920D01*
X164281448Y-74759009D01*
X164082995Y-74884951D01*
X163863863Y-74969946D01*
X163632392Y-75010761D01*
X163397406Y-75005838D01*
X163167849Y-74955367D01*
X162952463Y-74861267D01*
X162759466Y-74727131D01*
X162596189Y-74558053D01*
X162481602Y-74380250D01*
X162435553Y-74327068D01*
X162376511Y-74288820D01*
X162309151Y-74268535D01*
X162238807Y-74267820D01*
X162171048Y-74286730D01*
X162111240Y-74323769D01*
X162064119Y-74376003D01*
X162051765Y-74398306D01*
X161911658Y-74596920D01*
X161741448Y-74759009D01*
X161542995Y-74884951D01*
X161323863Y-74969946D01*
X161092392Y-75010761D01*
X160857406Y-75005838D01*
X160627849Y-74955367D01*
X160412463Y-74861267D01*
X160219466Y-74727131D01*
X160056189Y-74558053D01*
X159941602Y-74380250D01*
X159895553Y-74327068D01*
X159836511Y-74288820D01*
X159769151Y-74268535D01*
X159698807Y-74267820D01*
X159631048Y-74286730D01*
X159571240Y-74323769D01*
X159524119Y-74376003D01*
X159511765Y-74398306D01*
X159371658Y-74596920D01*
X159201448Y-74759009D01*
X159002995Y-74884951D01*
X158783863Y-74969946D01*
X158552392Y-75010761D01*
X158317406Y-75005838D01*
X158087849Y-74955367D01*
X157872463Y-74861267D01*
X157679466Y-74727131D01*
X157516189Y-74558053D01*
X157401602Y-74380250D01*
X157355553Y-74327068D01*
X157296511Y-74288820D01*
X157229151Y-74268535D01*
X157158807Y-74267820D01*
X157091048Y-74286730D01*
X157031240Y-74323769D01*
X156984119Y-74376003D01*
X156971765Y-74398306D01*
X156831658Y-74596920D01*
X156661448Y-74759009D01*
X156462995Y-74884951D01*
X156243863Y-74969946D01*
X156012392Y-75010761D01*
X155777406Y-75005838D01*
X155547849Y-74955367D01*
X155332463Y-74861267D01*
X155139466Y-74727131D01*
X155008335Y-74591341D01*
X154952833Y-74548116D01*
X154887487Y-74522065D01*
X154817470Y-74515249D01*
X154748326Y-74528211D01*
X154685530Y-74559921D01*
X154634055Y-74607871D01*
X154597977Y-74668263D01*
X154578500Y-74765006D01*
X154578500Y-75008500D01*
X152181500Y-75008500D01*
X152181500Y-72611500D01*
X154578500Y-72611500D01*
X154578500Y-72851419D01*
X154588398Y-72921067D01*
X154617307Y-72985201D01*
X154662939Y-73038741D01*
X154721681Y-73077449D01*
X154788880Y-73098260D01*
X154859217Y-73099525D01*
X154927121Y-73081145D01*
X155003415Y-73030038D01*
X155165375Y-72871436D01*
X155362047Y-72742737D01*
X155579972Y-72654689D01*
X155810851Y-72610646D01*
X156045883Y-72612287D01*
X156276124Y-72659549D01*
X156492798Y-72750631D01*
X156687655Y-72882063D01*
X156853276Y-73048844D01*
X156980730Y-73240678D01*
X157027516Y-73293212D01*
X157087087Y-73330632D01*
X157154723Y-73349975D01*
X157225071Y-73349708D01*
X157292559Y-73329854D01*
X157351844Y-73291984D01*
X157395238Y-73243572D01*
X157537444Y-73035885D01*
X157705375Y-72871436D01*
X157902047Y-72742737D01*
X158119972Y-72654689D01*
X158350851Y-72610646D01*
X158585883Y-72612287D01*
X158816124Y-72659549D01*
X159032798Y-72750631D01*
X159227655Y-72882063D01*
X159393276Y-73048844D01*
X159520730Y-73240678D01*
X159567516Y-73293212D01*
X159627087Y-73330632D01*
X159694723Y-73349975D01*
X159765071Y-73349708D01*
X159832559Y-73329854D01*
X159891844Y-73291984D01*
X159935238Y-73243572D01*
X160077444Y-73035885D01*
X160245375Y-72871436D01*
X160442047Y-72742737D01*
X160659972Y-72654689D01*
X160890851Y-72610646D01*
X161125883Y-72612287D01*
X161356124Y-72659549D01*
X161572798Y-72750631D01*
X161767655Y-72882063D01*
X161933276Y-73048844D01*
X162060730Y-73240678D01*
X162107516Y-73293212D01*
X162167087Y-73330632D01*
X162234723Y-73349975D01*
X162305071Y-73349708D01*
X162372559Y-73329854D01*
X162431844Y-73291984D01*
X162475238Y-73243572D01*
X162617444Y-73035885D01*
X162785375Y-72871436D01*
X162982047Y-72742737D01*
X163199972Y-72654689D01*
X163430851Y-72610646D01*
X163665883Y-72612287D01*
X163896124Y-72659549D01*
X164112798Y-72750631D01*
X164307655Y-72882063D01*
X164473276Y-73048844D01*
X164600730Y-73240678D01*
X164647516Y-73293212D01*
X164707087Y-73330632D01*
X164774723Y-73349975D01*
X164845071Y-73349708D01*
X164912559Y-73329854D01*
X164971844Y-73291984D01*
X165015238Y-73243572D01*
X165157444Y-73035885D01*
X165325375Y-72871436D01*
X165522047Y-72742737D01*
X165739972Y-72654689D01*
X165970851Y-72610646D01*
X166205883Y-72612287D01*
X166436124Y-72659549D01*
X166652798Y-72750631D01*
X166847655Y-72882063D01*
X167013276Y-73048844D01*
X167140730Y-73240678D01*
X167187516Y-73293212D01*
X167247087Y-73330632D01*
X167314723Y-73349975D01*
X167385071Y-73349708D01*
X167452559Y-73329854D01*
X167511844Y-73291984D01*
X167555238Y-73243572D01*
X167697444Y-73035885D01*
X167865375Y-72871436D01*
X168062047Y-72742737D01*
X168279972Y-72654689D01*
X168510851Y-72610646D01*
X168745883Y-72612287D01*
X168745883Y-72612287D01*
G37*
G36*
X142515883Y-72612287D02*
X142746124Y-72659549D01*
X142962798Y-72750631D01*
X143157655Y-72882063D01*
X143323276Y-73048844D01*
X143453340Y-73244607D01*
X143542910Y-73461919D01*
X143588219Y-73690749D01*
X143588218Y-73690801D01*
X143588551Y-73692481D01*
X143584803Y-73960939D01*
X143584424Y-73962608D01*
X143584423Y-73962664D01*
X143532742Y-74190140D01*
X143437143Y-74404859D01*
X143301658Y-74596920D01*
X143131448Y-74759009D01*
X142932995Y-74884951D01*
X142713863Y-74969946D01*
X142482392Y-75010761D01*
X142247406Y-75005838D01*
X142017849Y-74955367D01*
X141802463Y-74861267D01*
X141609466Y-74727131D01*
X141446189Y-74558053D01*
X141331602Y-74380250D01*
X141285553Y-74327068D01*
X141226511Y-74288820D01*
X141159151Y-74268535D01*
X141088807Y-74267820D01*
X141021048Y-74286730D01*
X140961240Y-74323769D01*
X140914119Y-74376003D01*
X140901765Y-74398306D01*
X140761658Y-74596920D01*
X140591448Y-74759009D01*
X140392995Y-74884951D01*
X140173863Y-74969946D01*
X139942392Y-75010761D01*
X139707406Y-75005838D01*
X139477849Y-74955367D01*
X139262463Y-74861267D01*
X139069466Y-74727131D01*
X138906189Y-74558053D01*
X138791602Y-74380250D01*
X138745553Y-74327068D01*
X138686511Y-74288820D01*
X138619151Y-74268535D01*
X138548807Y-74267820D01*
X138481048Y-74286730D01*
X138421240Y-74323769D01*
X138374119Y-74376003D01*
X138361765Y-74398306D01*
X138221658Y-74596920D01*
X138051448Y-74759009D01*
X137852995Y-74884951D01*
X137633863Y-74969946D01*
X137402392Y-75010761D01*
X137167406Y-75005838D01*
X136937849Y-74955367D01*
X136722463Y-74861267D01*
X136529466Y-74727131D01*
X136366189Y-74558053D01*
X136251602Y-74380250D01*
X136205553Y-74327068D01*
X136146511Y-74288820D01*
X136079151Y-74268535D01*
X136008807Y-74267820D01*
X135941048Y-74286730D01*
X135881240Y-74323769D01*
X135834119Y-74376003D01*
X135821765Y-74398306D01*
X135681658Y-74596920D01*
X135511448Y-74759009D01*
X135312995Y-74884951D01*
X135093863Y-74969946D01*
X134862392Y-75010761D01*
X134627406Y-75005838D01*
X134397849Y-74955367D01*
X134182463Y-74861267D01*
X133989466Y-74727131D01*
X133826189Y-74558053D01*
X133711602Y-74380250D01*
X133665553Y-74327068D01*
X133606511Y-74288820D01*
X133539151Y-74268535D01*
X133468807Y-74267820D01*
X133401048Y-74286730D01*
X133341240Y-74323769D01*
X133294119Y-74376003D01*
X133281765Y-74398306D01*
X133141658Y-74596920D01*
X132971448Y-74759009D01*
X132772995Y-74884951D01*
X132553863Y-74969946D01*
X132322392Y-75010761D01*
X132087406Y-75005838D01*
X131857849Y-74955367D01*
X131642463Y-74861267D01*
X131449466Y-74727131D01*
X131286189Y-74558053D01*
X131171602Y-74380250D01*
X131125553Y-74327068D01*
X131066511Y-74288820D01*
X130999151Y-74268535D01*
X130928807Y-74267820D01*
X130861048Y-74286730D01*
X130801240Y-74323769D01*
X130754119Y-74376003D01*
X130741765Y-74398306D01*
X130601658Y-74596920D01*
X130431448Y-74759009D01*
X130232995Y-74884951D01*
X130013863Y-74969946D01*
X129782392Y-75010761D01*
X129547406Y-75005838D01*
X129317849Y-74955367D01*
X129102463Y-74861267D01*
X128909466Y-74727131D01*
X128746189Y-74558053D01*
X128631602Y-74380250D01*
X128585553Y-74327068D01*
X128526511Y-74288820D01*
X128459151Y-74268535D01*
X128388807Y-74267820D01*
X128321048Y-74286730D01*
X128261240Y-74323769D01*
X128214119Y-74376003D01*
X128201765Y-74398306D01*
X128061658Y-74596920D01*
X127891448Y-74759009D01*
X127692995Y-74884951D01*
X127473863Y-74969946D01*
X127242392Y-75010761D01*
X127007406Y-75005838D01*
X126777849Y-74955367D01*
X126562463Y-74861267D01*
X126369466Y-74727131D01*
X126238335Y-74591341D01*
X126182833Y-74548116D01*
X126117487Y-74522065D01*
X126047470Y-74515249D01*
X125978326Y-74528211D01*
X125915530Y-74559921D01*
X125864055Y-74607871D01*
X125827977Y-74668263D01*
X125808500Y-74765006D01*
X125808500Y-75008500D01*
X123411500Y-75008500D01*
X123411500Y-72611500D01*
X125808500Y-72611500D01*
X125808500Y-72851419D01*
X125818398Y-72921067D01*
X125847307Y-72985201D01*
X125892939Y-73038741D01*
X125951681Y-73077449D01*
X126018880Y-73098260D01*
X126089217Y-73099525D01*
X126157121Y-73081145D01*
X126233415Y-73030038D01*
X126395375Y-72871436D01*
X126592047Y-72742737D01*
X126809972Y-72654689D01*
X127040851Y-72610646D01*
X127275883Y-72612287D01*
X127506124Y-72659549D01*
X127722798Y-72750631D01*
X127917655Y-72882063D01*
X128083276Y-73048844D01*
X128210730Y-73240678D01*
X128257516Y-73293212D01*
X128317087Y-73330632D01*
X128384723Y-73349975D01*
X128455071Y-73349708D01*
X128522559Y-73329854D01*
X128581844Y-73291984D01*
X128625238Y-73243572D01*
X128767444Y-73035885D01*
X128935375Y-72871436D01*
X129132047Y-72742737D01*
X129349972Y-72654689D01*
X129580851Y-72610646D01*
X129815883Y-72612287D01*
X130046124Y-72659549D01*
X130262798Y-72750631D01*
X130457655Y-72882063D01*
X130623276Y-73048844D01*
X130750730Y-73240678D01*
X130797516Y-73293212D01*
X130857087Y-73330632D01*
X130924723Y-73349975D01*
X130995071Y-73349708D01*
X131062559Y-73329854D01*
X131121844Y-73291984D01*
X131165238Y-73243572D01*
X131307444Y-73035885D01*
X131475375Y-72871436D01*
X131672047Y-72742737D01*
X131889972Y-72654689D01*
X132120851Y-72610646D01*
X132355883Y-72612287D01*
X132586124Y-72659549D01*
X132802798Y-72750631D01*
X132997655Y-72882063D01*
X133163276Y-73048844D01*
X133290730Y-73240678D01*
X133337516Y-73293212D01*
X133397087Y-73330632D01*
X133464723Y-73349975D01*
X133535071Y-73349708D01*
X133602559Y-73329854D01*
X133661844Y-73291984D01*
X133705238Y-73243572D01*
X133847444Y-73035885D01*
X134015375Y-72871436D01*
X134212047Y-72742737D01*
X134429972Y-72654689D01*
X134660851Y-72610646D01*
X134895883Y-72612287D01*
X135126124Y-72659549D01*
X135342798Y-72750631D01*
X135537655Y-72882063D01*
X135703276Y-73048844D01*
X135830730Y-73240678D01*
X135877516Y-73293212D01*
X135937087Y-73330632D01*
X136004723Y-73349975D01*
X136075071Y-73349708D01*
X136142559Y-73329854D01*
X136201844Y-73291984D01*
X136245238Y-73243572D01*
X136387444Y-73035885D01*
X136555375Y-72871436D01*
X136752047Y-72742737D01*
X136969972Y-72654689D01*
X137200851Y-72610646D01*
X137435883Y-72612287D01*
X137666124Y-72659549D01*
X137882798Y-72750631D01*
X138077655Y-72882063D01*
X138243276Y-73048844D01*
X138370730Y-73240678D01*
X138417516Y-73293212D01*
X138477087Y-73330632D01*
X138544723Y-73349975D01*
X138615071Y-73349708D01*
X138682559Y-73329854D01*
X138741844Y-73291984D01*
X138785238Y-73243572D01*
X138927444Y-73035885D01*
X139095375Y-72871436D01*
X139292047Y-72742737D01*
X139509972Y-72654689D01*
X139740851Y-72610646D01*
X139975883Y-72612287D01*
X140206124Y-72659549D01*
X140422798Y-72750631D01*
X140617655Y-72882063D01*
X140783276Y-73048844D01*
X140910730Y-73240678D01*
X140957516Y-73293212D01*
X141017087Y-73330632D01*
X141084723Y-73349975D01*
X141155071Y-73349708D01*
X141222559Y-73329854D01*
X141281844Y-73291984D01*
X141325238Y-73243572D01*
X141467444Y-73035885D01*
X141635375Y-72871436D01*
X141832047Y-72742737D01*
X142049972Y-72654689D01*
X142280851Y-72610646D01*
X142515883Y-72612287D01*
X142515883Y-72612287D01*
G37*
G36*
X172625883Y-71342287D02*
X172856124Y-71389549D01*
X173072798Y-71480631D01*
X173267655Y-71612063D01*
X173433276Y-71778844D01*
X173563340Y-71974607D01*
X173652910Y-72191919D01*
X173698219Y-72420749D01*
X173698218Y-72420801D01*
X173698551Y-72422481D01*
X173694803Y-72690939D01*
X173694424Y-72692608D01*
X173694423Y-72692664D01*
X173642742Y-72920140D01*
X173547143Y-73134859D01*
X173411658Y-73326920D01*
X173241448Y-73489009D01*
X173042995Y-73614951D01*
X172823863Y-73699946D01*
X172592392Y-73740761D01*
X172357406Y-73735838D01*
X172127849Y-73685367D01*
X171912463Y-73591267D01*
X171719466Y-73457131D01*
X171556190Y-73288054D01*
X171428865Y-73090486D01*
X171342343Y-72871955D01*
X171299914Y-72640775D01*
X171303196Y-72405754D01*
X171352062Y-72175855D01*
X171444656Y-71959818D01*
X171577445Y-71765884D01*
X171745375Y-71601436D01*
X171942047Y-71472737D01*
X172159972Y-71384689D01*
X172390851Y-71340646D01*
X172625883Y-71342287D01*
X172625883Y-71342287D01*
G37*
G36*
X149625883Y-71342287D02*
X149856124Y-71389549D01*
X150072798Y-71480631D01*
X150267655Y-71612063D01*
X150433276Y-71778844D01*
X150563340Y-71974607D01*
X150652910Y-72191919D01*
X150698219Y-72420749D01*
X150698218Y-72420801D01*
X150698551Y-72422481D01*
X150694803Y-72690939D01*
X150694424Y-72692608D01*
X150694423Y-72692664D01*
X150642742Y-72920140D01*
X150547143Y-73134859D01*
X150411658Y-73326920D01*
X150241448Y-73489009D01*
X150042995Y-73614951D01*
X149823863Y-73699946D01*
X149592392Y-73740761D01*
X149357406Y-73735838D01*
X149127849Y-73685367D01*
X148912463Y-73591267D01*
X148719466Y-73457131D01*
X148556190Y-73288054D01*
X148428865Y-73090486D01*
X148342343Y-72871955D01*
X148299914Y-72640775D01*
X148303196Y-72405754D01*
X148352062Y-72175855D01*
X148444656Y-71959818D01*
X148577445Y-71765884D01*
X148745375Y-71601436D01*
X148942047Y-71472737D01*
X149159972Y-71384689D01*
X149390851Y-71340646D01*
X149625883Y-71342287D01*
X149625883Y-71342287D01*
G37*
G36*
X120625883Y-71342287D02*
X120856124Y-71389549D01*
X121072798Y-71480631D01*
X121267655Y-71612063D01*
X121433276Y-71778844D01*
X121563340Y-71974607D01*
X121652910Y-72191919D01*
X121698219Y-72420749D01*
X121698218Y-72420801D01*
X121698551Y-72422481D01*
X121694803Y-72690939D01*
X121694424Y-72692608D01*
X121694423Y-72692664D01*
X121642742Y-72920140D01*
X121547143Y-73134859D01*
X121411658Y-73326920D01*
X121241448Y-73489009D01*
X121042995Y-73614951D01*
X120823863Y-73699946D01*
X120592392Y-73740761D01*
X120357406Y-73735838D01*
X120127849Y-73685367D01*
X119912463Y-73591267D01*
X119719466Y-73457131D01*
X119556190Y-73288054D01*
X119428865Y-73090486D01*
X119342343Y-72871955D01*
X119299914Y-72640775D01*
X119303196Y-72405754D01*
X119352062Y-72175855D01*
X119444656Y-71959818D01*
X119577445Y-71765884D01*
X119745375Y-71601436D01*
X119942047Y-71472737D01*
X120159972Y-71384689D01*
X120390851Y-71340646D01*
X120625883Y-71342287D01*
X120625883Y-71342287D01*
G37*
G36*
X120625883Y-66262287D02*
X120856124Y-66309549D01*
X121072798Y-66400631D01*
X121267655Y-66532063D01*
X121433276Y-66698844D01*
X121563340Y-66894607D01*
X121652910Y-67111919D01*
X121698219Y-67340749D01*
X121698218Y-67340801D01*
X121698551Y-67342481D01*
X121694803Y-67610939D01*
X121694424Y-67612608D01*
X121694423Y-67612664D01*
X121642742Y-67840140D01*
X121547143Y-68054859D01*
X121411658Y-68246920D01*
X121241448Y-68409009D01*
X121042995Y-68534951D01*
X120823863Y-68619946D01*
X120592392Y-68660761D01*
X120357406Y-68655838D01*
X120127849Y-68605367D01*
X119912463Y-68511267D01*
X119719466Y-68377131D01*
X119556190Y-68208054D01*
X119428865Y-68010486D01*
X119342343Y-67791955D01*
X119299914Y-67560775D01*
X119303196Y-67325754D01*
X119352062Y-67095855D01*
X119444656Y-66879818D01*
X119577445Y-66685884D01*
X119745375Y-66521436D01*
X119942047Y-66392737D01*
X120159972Y-66304689D01*
X120390851Y-66260646D01*
X120625883Y-66262287D01*
X120625883Y-66262287D01*
G37*
G36*
X149625883Y-66262287D02*
X149856124Y-66309549D01*
X150072798Y-66400631D01*
X150267655Y-66532063D01*
X150433276Y-66698844D01*
X150563340Y-66894607D01*
X150652910Y-67111919D01*
X150698219Y-67340749D01*
X150698218Y-67340801D01*
X150698551Y-67342481D01*
X150694803Y-67610939D01*
X150694424Y-67612608D01*
X150694423Y-67612664D01*
X150642742Y-67840140D01*
X150547143Y-68054859D01*
X150411658Y-68246920D01*
X150241448Y-68409009D01*
X150042995Y-68534951D01*
X149823863Y-68619946D01*
X149592392Y-68660761D01*
X149357406Y-68655838D01*
X149127849Y-68605367D01*
X148912463Y-68511267D01*
X148719466Y-68377131D01*
X148556190Y-68208054D01*
X148428865Y-68010486D01*
X148342343Y-67791955D01*
X148299914Y-67560775D01*
X148303196Y-67325754D01*
X148352062Y-67095855D01*
X148444656Y-66879818D01*
X148577445Y-66685884D01*
X148745375Y-66521436D01*
X148942047Y-66392737D01*
X149159972Y-66304689D01*
X149390851Y-66260646D01*
X149625883Y-66262287D01*
X149625883Y-66262287D01*
G37*
G36*
X172625883Y-66262287D02*
X172856124Y-66309549D01*
X173072798Y-66400631D01*
X173267655Y-66532063D01*
X173433276Y-66698844D01*
X173563340Y-66894607D01*
X173652910Y-67111919D01*
X173698219Y-67340749D01*
X173698218Y-67340801D01*
X173698551Y-67342481D01*
X173694803Y-67610939D01*
X173694424Y-67612608D01*
X173694423Y-67612664D01*
X173642742Y-67840140D01*
X173547143Y-68054859D01*
X173411658Y-68246920D01*
X173241448Y-68409009D01*
X173042995Y-68534951D01*
X172823863Y-68619946D01*
X172592392Y-68660761D01*
X172357406Y-68655838D01*
X172127849Y-68605367D01*
X171912463Y-68511267D01*
X171719466Y-68377131D01*
X171556190Y-68208054D01*
X171428865Y-68010486D01*
X171342343Y-67791955D01*
X171299914Y-67560775D01*
X171303196Y-67325754D01*
X171352062Y-67095855D01*
X171444656Y-66879818D01*
X171577445Y-66685884D01*
X171745375Y-66521436D01*
X171942047Y-66392737D01*
X172159972Y-66304689D01*
X172390851Y-66260646D01*
X172625883Y-66262287D01*
X172625883Y-66262287D01*
G37*
G36*
X168745883Y-64992287D02*
X168976124Y-65039549D01*
X169192798Y-65130631D01*
X169387655Y-65262063D01*
X169553276Y-65428844D01*
X169683340Y-65624607D01*
X169772910Y-65841919D01*
X169818219Y-66070749D01*
X169818218Y-66070801D01*
X169818551Y-66072481D01*
X169814803Y-66340939D01*
X169814424Y-66342608D01*
X169814423Y-66342664D01*
X169762742Y-66570140D01*
X169667143Y-66784859D01*
X169531658Y-66976920D01*
X169361448Y-67139009D01*
X169162995Y-67264951D01*
X168943863Y-67349946D01*
X168712392Y-67390761D01*
X168477406Y-67385838D01*
X168247849Y-67335367D01*
X168032463Y-67241267D01*
X167839466Y-67107131D01*
X167676189Y-66938053D01*
X167561602Y-66760250D01*
X167515553Y-66707068D01*
X167456511Y-66668820D01*
X167389151Y-66648535D01*
X167318807Y-66647820D01*
X167251048Y-66666730D01*
X167191240Y-66703769D01*
X167144119Y-66756003D01*
X167131765Y-66778306D01*
X166991658Y-66976920D01*
X166821448Y-67139009D01*
X166622995Y-67264951D01*
X166403863Y-67349946D01*
X166172392Y-67390761D01*
X165937406Y-67385838D01*
X165707849Y-67335367D01*
X165492463Y-67241267D01*
X165299466Y-67107131D01*
X165136189Y-66938053D01*
X165021602Y-66760250D01*
X164975553Y-66707068D01*
X164916511Y-66668820D01*
X164849151Y-66648535D01*
X164778807Y-66647820D01*
X164711048Y-66666730D01*
X164651240Y-66703769D01*
X164604119Y-66756003D01*
X164591765Y-66778306D01*
X164451658Y-66976920D01*
X164281448Y-67139009D01*
X164082995Y-67264951D01*
X163863863Y-67349946D01*
X163632392Y-67390761D01*
X163397406Y-67385838D01*
X163167849Y-67335367D01*
X162952463Y-67241267D01*
X162759466Y-67107131D01*
X162596189Y-66938053D01*
X162481602Y-66760250D01*
X162435553Y-66707068D01*
X162376511Y-66668820D01*
X162309151Y-66648535D01*
X162238807Y-66647820D01*
X162171048Y-66666730D01*
X162111240Y-66703769D01*
X162064119Y-66756003D01*
X162051765Y-66778306D01*
X161911658Y-66976920D01*
X161741448Y-67139009D01*
X161542995Y-67264951D01*
X161323863Y-67349946D01*
X161092392Y-67390761D01*
X160857406Y-67385838D01*
X160627849Y-67335367D01*
X160412463Y-67241267D01*
X160219466Y-67107131D01*
X160056189Y-66938053D01*
X159941602Y-66760250D01*
X159895553Y-66707068D01*
X159836511Y-66668820D01*
X159769151Y-66648535D01*
X159698807Y-66647820D01*
X159631048Y-66666730D01*
X159571240Y-66703769D01*
X159524119Y-66756003D01*
X159511765Y-66778306D01*
X159371658Y-66976920D01*
X159201448Y-67139009D01*
X159002995Y-67264951D01*
X158783863Y-67349946D01*
X158552392Y-67390761D01*
X158317406Y-67385838D01*
X158087849Y-67335367D01*
X157872463Y-67241267D01*
X157679466Y-67107131D01*
X157516189Y-66938053D01*
X157401602Y-66760250D01*
X157355553Y-66707068D01*
X157296511Y-66668820D01*
X157229151Y-66648535D01*
X157158807Y-66647820D01*
X157091048Y-66666730D01*
X157031240Y-66703769D01*
X156984119Y-66756003D01*
X156971765Y-66778306D01*
X156831658Y-66976920D01*
X156661448Y-67139009D01*
X156462995Y-67264951D01*
X156243863Y-67349946D01*
X156012392Y-67390761D01*
X155777406Y-67385838D01*
X155547849Y-67335367D01*
X155332463Y-67241267D01*
X155139466Y-67107131D01*
X154976189Y-66938053D01*
X154861602Y-66760250D01*
X154815553Y-66707068D01*
X154756511Y-66668820D01*
X154689151Y-66648535D01*
X154618807Y-66647820D01*
X154551048Y-66666730D01*
X154491240Y-66703769D01*
X154444119Y-66756003D01*
X154431765Y-66778306D01*
X154291658Y-66976920D01*
X154121448Y-67139009D01*
X153922995Y-67264951D01*
X153703863Y-67349946D01*
X153472392Y-67390761D01*
X153237406Y-67385838D01*
X153007849Y-67335367D01*
X152792463Y-67241267D01*
X152599466Y-67107131D01*
X152436190Y-66938054D01*
X152308865Y-66740486D01*
X152222343Y-66521955D01*
X152179914Y-66290775D01*
X152183196Y-66055754D01*
X152232062Y-65825855D01*
X152324656Y-65609818D01*
X152457445Y-65415884D01*
X152625375Y-65251436D01*
X152822047Y-65122737D01*
X153039972Y-65034689D01*
X153270851Y-64990646D01*
X153505883Y-64992287D01*
X153736124Y-65039549D01*
X153952798Y-65130631D01*
X154147655Y-65262063D01*
X154313276Y-65428844D01*
X154440730Y-65620678D01*
X154487516Y-65673212D01*
X154547087Y-65710632D01*
X154614723Y-65729975D01*
X154685071Y-65729708D01*
X154752559Y-65709854D01*
X154811844Y-65671984D01*
X154855238Y-65623572D01*
X154997444Y-65415885D01*
X155165375Y-65251436D01*
X155362047Y-65122737D01*
X155579972Y-65034689D01*
X155810851Y-64990646D01*
X156045883Y-64992287D01*
X156276124Y-65039549D01*
X156492798Y-65130631D01*
X156687655Y-65262063D01*
X156853276Y-65428844D01*
X156980730Y-65620678D01*
X157027516Y-65673212D01*
X157087087Y-65710632D01*
X157154723Y-65729975D01*
X157225071Y-65729708D01*
X157292559Y-65709854D01*
X157351844Y-65671984D01*
X157395238Y-65623572D01*
X157537444Y-65415885D01*
X157705375Y-65251436D01*
X157902047Y-65122737D01*
X158119972Y-65034689D01*
X158350851Y-64990646D01*
X158585883Y-64992287D01*
X158816124Y-65039549D01*
X159032798Y-65130631D01*
X159227655Y-65262063D01*
X159393276Y-65428844D01*
X159520730Y-65620678D01*
X159567516Y-65673212D01*
X159627087Y-65710632D01*
X159694723Y-65729975D01*
X159765071Y-65729708D01*
X159832559Y-65709854D01*
X159891844Y-65671984D01*
X159935238Y-65623572D01*
X160077444Y-65415885D01*
X160245375Y-65251436D01*
X160442047Y-65122737D01*
X160659972Y-65034689D01*
X160890851Y-64990646D01*
X161125883Y-64992287D01*
X161356124Y-65039549D01*
X161572798Y-65130631D01*
X161767655Y-65262063D01*
X161933276Y-65428844D01*
X162060730Y-65620678D01*
X162107516Y-65673212D01*
X162167087Y-65710632D01*
X162234723Y-65729975D01*
X162305071Y-65729708D01*
X162372559Y-65709854D01*
X162431844Y-65671984D01*
X162475238Y-65623572D01*
X162617444Y-65415885D01*
X162785375Y-65251436D01*
X162982047Y-65122737D01*
X163199972Y-65034689D01*
X163430851Y-64990646D01*
X163665883Y-64992287D01*
X163896124Y-65039549D01*
X164112798Y-65130631D01*
X164307655Y-65262063D01*
X164473276Y-65428844D01*
X164600730Y-65620678D01*
X164647516Y-65673212D01*
X164707087Y-65710632D01*
X164774723Y-65729975D01*
X164845071Y-65729708D01*
X164912559Y-65709854D01*
X164971844Y-65671984D01*
X165015238Y-65623572D01*
X165157444Y-65415885D01*
X165325375Y-65251436D01*
X165522047Y-65122737D01*
X165739972Y-65034689D01*
X165970851Y-64990646D01*
X166205883Y-64992287D01*
X166436124Y-65039549D01*
X166652798Y-65130631D01*
X166847655Y-65262063D01*
X167013276Y-65428844D01*
X167140730Y-65620678D01*
X167187516Y-65673212D01*
X167247087Y-65710632D01*
X167314723Y-65729975D01*
X167385071Y-65729708D01*
X167452559Y-65709854D01*
X167511844Y-65671984D01*
X167555238Y-65623572D01*
X167697444Y-65415885D01*
X167865375Y-65251436D01*
X168062047Y-65122737D01*
X168279972Y-65034689D01*
X168510851Y-64990646D01*
X168745883Y-64992287D01*
X168745883Y-64992287D01*
G37*
G36*
X142515883Y-64992287D02*
X142746124Y-65039549D01*
X142962798Y-65130631D01*
X143157655Y-65262063D01*
X143323276Y-65428844D01*
X143453340Y-65624607D01*
X143542910Y-65841919D01*
X143588219Y-66070749D01*
X143588218Y-66070801D01*
X143588551Y-66072481D01*
X143584803Y-66340939D01*
X143584424Y-66342608D01*
X143584423Y-66342664D01*
X143532742Y-66570140D01*
X143437143Y-66784859D01*
X143301658Y-66976920D01*
X143131448Y-67139009D01*
X142932995Y-67264951D01*
X142713863Y-67349946D01*
X142482392Y-67390761D01*
X142247406Y-67385838D01*
X142017849Y-67335367D01*
X141802463Y-67241267D01*
X141609466Y-67107131D01*
X141446189Y-66938053D01*
X141331602Y-66760250D01*
X141285553Y-66707068D01*
X141226511Y-66668820D01*
X141159151Y-66648535D01*
X141088807Y-66647820D01*
X141021048Y-66666730D01*
X140961240Y-66703769D01*
X140914119Y-66756003D01*
X140901765Y-66778306D01*
X140761658Y-66976920D01*
X140591448Y-67139009D01*
X140392995Y-67264951D01*
X140173863Y-67349946D01*
X139942392Y-67390761D01*
X139707406Y-67385838D01*
X139477849Y-67335367D01*
X139262463Y-67241267D01*
X139069466Y-67107131D01*
X138906189Y-66938053D01*
X138791602Y-66760250D01*
X138745553Y-66707068D01*
X138686511Y-66668820D01*
X138619151Y-66648535D01*
X138548807Y-66647820D01*
X138481048Y-66666730D01*
X138421240Y-66703769D01*
X138374119Y-66756003D01*
X138361765Y-66778306D01*
X138221658Y-66976920D01*
X138051448Y-67139009D01*
X137852995Y-67264951D01*
X137633863Y-67349946D01*
X137402392Y-67390761D01*
X137167406Y-67385838D01*
X136937849Y-67335367D01*
X136722463Y-67241267D01*
X136529466Y-67107131D01*
X136366189Y-66938053D01*
X136251602Y-66760250D01*
X136205553Y-66707068D01*
X136146511Y-66668820D01*
X136079151Y-66648535D01*
X136008807Y-66647820D01*
X135941048Y-66666730D01*
X135881240Y-66703769D01*
X135834119Y-66756003D01*
X135821765Y-66778306D01*
X135681658Y-66976920D01*
X135511448Y-67139009D01*
X135312995Y-67264951D01*
X135093863Y-67349946D01*
X134862392Y-67390761D01*
X134627406Y-67385838D01*
X134397849Y-67335367D01*
X134182463Y-67241267D01*
X133989466Y-67107131D01*
X133826189Y-66938053D01*
X133711602Y-66760250D01*
X133665553Y-66707068D01*
X133606511Y-66668820D01*
X133539151Y-66648535D01*
X133468807Y-66647820D01*
X133401048Y-66666730D01*
X133341240Y-66703769D01*
X133294119Y-66756003D01*
X133281765Y-66778306D01*
X133141658Y-66976920D01*
X132971448Y-67139009D01*
X132772995Y-67264951D01*
X132553863Y-67349946D01*
X132322392Y-67390761D01*
X132087406Y-67385838D01*
X131857849Y-67335367D01*
X131642463Y-67241267D01*
X131449466Y-67107131D01*
X131286189Y-66938053D01*
X131171602Y-66760250D01*
X131125553Y-66707068D01*
X131066511Y-66668820D01*
X130999151Y-66648535D01*
X130928807Y-66647820D01*
X130861048Y-66666730D01*
X130801240Y-66703769D01*
X130754119Y-66756003D01*
X130741765Y-66778306D01*
X130601658Y-66976920D01*
X130431448Y-67139009D01*
X130232995Y-67264951D01*
X130013863Y-67349946D01*
X129782392Y-67390761D01*
X129547406Y-67385838D01*
X129317849Y-67335367D01*
X129102463Y-67241267D01*
X128909466Y-67107131D01*
X128746189Y-66938053D01*
X128631602Y-66760250D01*
X128585553Y-66707068D01*
X128526511Y-66668820D01*
X128459151Y-66648535D01*
X128388807Y-66647820D01*
X128321048Y-66666730D01*
X128261240Y-66703769D01*
X128214119Y-66756003D01*
X128201765Y-66778306D01*
X128061658Y-66976920D01*
X127891448Y-67139009D01*
X127692995Y-67264951D01*
X127473863Y-67349946D01*
X127242392Y-67390761D01*
X127007406Y-67385838D01*
X126777849Y-67335367D01*
X126562463Y-67241267D01*
X126369466Y-67107131D01*
X126206189Y-66938053D01*
X126091602Y-66760250D01*
X126045553Y-66707068D01*
X125986511Y-66668820D01*
X125919151Y-66648535D01*
X125848807Y-66647820D01*
X125781048Y-66666730D01*
X125721240Y-66703769D01*
X125674119Y-66756003D01*
X125661765Y-66778306D01*
X125521658Y-66976920D01*
X125351448Y-67139009D01*
X125152995Y-67264951D01*
X124933863Y-67349946D01*
X124702392Y-67390761D01*
X124467406Y-67385838D01*
X124237849Y-67335367D01*
X124022463Y-67241267D01*
X123829466Y-67107131D01*
X123666190Y-66938054D01*
X123538865Y-66740486D01*
X123452343Y-66521955D01*
X123409914Y-66290775D01*
X123413196Y-66055754D01*
X123462062Y-65825855D01*
X123554656Y-65609818D01*
X123687445Y-65415884D01*
X123855375Y-65251436D01*
X124052047Y-65122737D01*
X124269972Y-65034689D01*
X124500851Y-64990646D01*
X124735883Y-64992287D01*
X124966124Y-65039549D01*
X125182798Y-65130631D01*
X125377655Y-65262063D01*
X125543276Y-65428844D01*
X125670730Y-65620678D01*
X125717516Y-65673212D01*
X125777087Y-65710632D01*
X125844723Y-65729975D01*
X125915071Y-65729708D01*
X125982559Y-65709854D01*
X126041844Y-65671984D01*
X126085238Y-65623572D01*
X126227444Y-65415885D01*
X126395375Y-65251436D01*
X126592047Y-65122737D01*
X126809972Y-65034689D01*
X127040851Y-64990646D01*
X127275883Y-64992287D01*
X127506124Y-65039549D01*
X127722798Y-65130631D01*
X127917655Y-65262063D01*
X128083276Y-65428844D01*
X128210730Y-65620678D01*
X128257516Y-65673212D01*
X128317087Y-65710632D01*
X128384723Y-65729975D01*
X128455071Y-65729708D01*
X128522559Y-65709854D01*
X128581844Y-65671984D01*
X128625238Y-65623572D01*
X128767444Y-65415885D01*
X128935375Y-65251436D01*
X129132047Y-65122737D01*
X129349972Y-65034689D01*
X129580851Y-64990646D01*
X129815883Y-64992287D01*
X130046124Y-65039549D01*
X130262798Y-65130631D01*
X130457655Y-65262063D01*
X130623276Y-65428844D01*
X130750730Y-65620678D01*
X130797516Y-65673212D01*
X130857087Y-65710632D01*
X130924723Y-65729975D01*
X130995071Y-65729708D01*
X131062559Y-65709854D01*
X131121844Y-65671984D01*
X131165238Y-65623572D01*
X131307444Y-65415885D01*
X131475375Y-65251436D01*
X131672047Y-65122737D01*
X131889972Y-65034689D01*
X132120851Y-64990646D01*
X132355883Y-64992287D01*
X132586124Y-65039549D01*
X132802798Y-65130631D01*
X132997655Y-65262063D01*
X133163276Y-65428844D01*
X133290730Y-65620678D01*
X133337516Y-65673212D01*
X133397087Y-65710632D01*
X133464723Y-65729975D01*
X133535071Y-65729708D01*
X133602559Y-65709854D01*
X133661844Y-65671984D01*
X133705238Y-65623572D01*
X133847444Y-65415885D01*
X134015375Y-65251436D01*
X134212047Y-65122737D01*
X134429972Y-65034689D01*
X134660851Y-64990646D01*
X134895883Y-64992287D01*
X135126124Y-65039549D01*
X135342798Y-65130631D01*
X135537655Y-65262063D01*
X135703276Y-65428844D01*
X135830730Y-65620678D01*
X135877516Y-65673212D01*
X135937087Y-65710632D01*
X136004723Y-65729975D01*
X136075071Y-65729708D01*
X136142559Y-65709854D01*
X136201844Y-65671984D01*
X136245238Y-65623572D01*
X136387444Y-65415885D01*
X136555375Y-65251436D01*
X136752047Y-65122737D01*
X136969972Y-65034689D01*
X137200851Y-64990646D01*
X137435883Y-64992287D01*
X137666124Y-65039549D01*
X137882798Y-65130631D01*
X138077655Y-65262063D01*
X138243276Y-65428844D01*
X138370730Y-65620678D01*
X138417516Y-65673212D01*
X138477087Y-65710632D01*
X138544723Y-65729975D01*
X138615071Y-65729708D01*
X138682559Y-65709854D01*
X138741844Y-65671984D01*
X138785238Y-65623572D01*
X138927444Y-65415885D01*
X139095375Y-65251436D01*
X139292047Y-65122737D01*
X139509972Y-65034689D01*
X139740851Y-64990646D01*
X139975883Y-64992287D01*
X140206124Y-65039549D01*
X140422798Y-65130631D01*
X140617655Y-65262063D01*
X140783276Y-65428844D01*
X140910730Y-65620678D01*
X140957516Y-65673212D01*
X141017087Y-65710632D01*
X141084723Y-65729975D01*
X141155071Y-65729708D01*
X141222559Y-65709854D01*
X141281844Y-65671984D01*
X141325238Y-65623572D01*
X141467444Y-65415885D01*
X141635375Y-65251436D01*
X141832047Y-65122737D01*
X142049972Y-65034689D01*
X142280851Y-64990646D01*
X142515883Y-64992287D01*
X142515883Y-64992287D01*
G37*
G36*
X115360000Y-63560000D02*
X106360000Y-63560000D01*
X106360000Y-53000000D01*
X115360000Y-53000000D01*
X115360000Y-63560000D01*
X115360000Y-63560000D01*
G37*
G36*
X184950000Y-63560000D02*
X175950000Y-63560000D01*
X175950000Y-53000000D01*
X184950000Y-53000000D01*
X184950000Y-63560000D01*
X184950000Y-63560000D01*
G37*
G36*
X168745883Y-60112287D02*
X168976124Y-60159549D01*
X169192798Y-60250631D01*
X169387655Y-60382063D01*
X169553276Y-60548844D01*
X169683340Y-60744607D01*
X169772910Y-60961919D01*
X169818219Y-61190749D01*
X169818218Y-61190801D01*
X169818551Y-61192481D01*
X169814803Y-61460939D01*
X169814424Y-61462608D01*
X169814423Y-61462664D01*
X169762742Y-61690140D01*
X169667143Y-61904859D01*
X169531658Y-62096920D01*
X169361448Y-62259009D01*
X169162995Y-62384951D01*
X168943863Y-62469946D01*
X168712392Y-62510761D01*
X168477406Y-62505838D01*
X168247849Y-62455367D01*
X168032463Y-62361267D01*
X167839466Y-62227131D01*
X167676189Y-62058053D01*
X167561602Y-61880250D01*
X167515553Y-61827068D01*
X167456511Y-61788820D01*
X167389151Y-61768535D01*
X167318807Y-61767820D01*
X167251048Y-61786730D01*
X167191240Y-61823769D01*
X167144119Y-61876003D01*
X167131765Y-61898306D01*
X166991658Y-62096920D01*
X166821448Y-62259009D01*
X166622995Y-62384951D01*
X166403863Y-62469946D01*
X166172392Y-62510761D01*
X165937406Y-62505838D01*
X165707849Y-62455367D01*
X165492463Y-62361267D01*
X165299466Y-62227131D01*
X165136189Y-62058053D01*
X165021602Y-61880250D01*
X164975553Y-61827068D01*
X164916511Y-61788820D01*
X164849151Y-61768535D01*
X164778807Y-61767820D01*
X164711048Y-61786730D01*
X164651240Y-61823769D01*
X164604119Y-61876003D01*
X164591765Y-61898306D01*
X164451658Y-62096920D01*
X164281448Y-62259009D01*
X164082995Y-62384951D01*
X163863863Y-62469946D01*
X163632392Y-62510761D01*
X163397406Y-62505838D01*
X163167849Y-62455367D01*
X162952463Y-62361267D01*
X162759466Y-62227131D01*
X162596189Y-62058053D01*
X162481602Y-61880250D01*
X162435553Y-61827068D01*
X162376511Y-61788820D01*
X162309151Y-61768535D01*
X162238807Y-61767820D01*
X162171048Y-61786730D01*
X162111240Y-61823769D01*
X162064119Y-61876003D01*
X162051765Y-61898306D01*
X161911658Y-62096920D01*
X161741448Y-62259009D01*
X161542995Y-62384951D01*
X161323863Y-62469946D01*
X161092392Y-62510761D01*
X160857406Y-62505838D01*
X160627849Y-62455367D01*
X160412463Y-62361267D01*
X160219466Y-62227131D01*
X160056189Y-62058053D01*
X159941602Y-61880250D01*
X159895553Y-61827068D01*
X159836511Y-61788820D01*
X159769151Y-61768535D01*
X159698807Y-61767820D01*
X159631048Y-61786730D01*
X159571240Y-61823769D01*
X159524119Y-61876003D01*
X159511765Y-61898306D01*
X159371658Y-62096920D01*
X159201448Y-62259009D01*
X159002995Y-62384951D01*
X158783863Y-62469946D01*
X158552392Y-62510761D01*
X158317406Y-62505838D01*
X158087849Y-62455367D01*
X157872463Y-62361267D01*
X157679466Y-62227131D01*
X157516189Y-62058053D01*
X157401602Y-61880250D01*
X157355553Y-61827068D01*
X157296511Y-61788820D01*
X157229151Y-61768535D01*
X157158807Y-61767820D01*
X157091048Y-61786730D01*
X157031240Y-61823769D01*
X156984119Y-61876003D01*
X156971765Y-61898306D01*
X156831658Y-62096920D01*
X156661448Y-62259009D01*
X156462995Y-62384951D01*
X156243863Y-62469946D01*
X156012392Y-62510761D01*
X155777406Y-62505838D01*
X155547849Y-62455367D01*
X155332463Y-62361267D01*
X155139466Y-62227131D01*
X155008335Y-62091341D01*
X154952833Y-62048116D01*
X154887487Y-62022065D01*
X154817470Y-62015249D01*
X154748326Y-62028211D01*
X154685530Y-62059921D01*
X154634055Y-62107871D01*
X154597977Y-62168263D01*
X154578500Y-62265006D01*
X154578500Y-62508500D01*
X152181500Y-62508500D01*
X152181500Y-60111500D01*
X154578500Y-60111500D01*
X154578500Y-60351419D01*
X154588398Y-60421067D01*
X154617307Y-60485201D01*
X154662939Y-60538741D01*
X154721681Y-60577449D01*
X154788880Y-60598260D01*
X154859217Y-60599525D01*
X154927121Y-60581145D01*
X155003415Y-60530038D01*
X155165375Y-60371436D01*
X155362047Y-60242737D01*
X155579972Y-60154689D01*
X155810851Y-60110646D01*
X156045883Y-60112287D01*
X156276124Y-60159549D01*
X156492798Y-60250631D01*
X156687655Y-60382063D01*
X156853276Y-60548844D01*
X156980730Y-60740678D01*
X157027516Y-60793212D01*
X157087087Y-60830632D01*
X157154723Y-60849975D01*
X157225071Y-60849708D01*
X157292559Y-60829854D01*
X157351844Y-60791984D01*
X157395238Y-60743572D01*
X157537444Y-60535885D01*
X157705375Y-60371436D01*
X157902047Y-60242737D01*
X158119972Y-60154689D01*
X158350851Y-60110646D01*
X158585883Y-60112287D01*
X158816124Y-60159549D01*
X159032798Y-60250631D01*
X159227655Y-60382063D01*
X159393276Y-60548844D01*
X159520730Y-60740678D01*
X159567516Y-60793212D01*
X159627087Y-60830632D01*
X159694723Y-60849975D01*
X159765071Y-60849708D01*
X159832559Y-60829854D01*
X159891844Y-60791984D01*
X159935238Y-60743572D01*
X160077444Y-60535885D01*
X160245375Y-60371436D01*
X160442047Y-60242737D01*
X160659972Y-60154689D01*
X160890851Y-60110646D01*
X161125883Y-60112287D01*
X161356124Y-60159549D01*
X161572798Y-60250631D01*
X161767655Y-60382063D01*
X161933276Y-60548844D01*
X162060730Y-60740678D01*
X162107516Y-60793212D01*
X162167087Y-60830632D01*
X162234723Y-60849975D01*
X162305071Y-60849708D01*
X162372559Y-60829854D01*
X162431844Y-60791984D01*
X162475238Y-60743572D01*
X162617444Y-60535885D01*
X162785375Y-60371436D01*
X162982047Y-60242737D01*
X163199972Y-60154689D01*
X163430851Y-60110646D01*
X163665883Y-60112287D01*
X163896124Y-60159549D01*
X164112798Y-60250631D01*
X164307655Y-60382063D01*
X164473276Y-60548844D01*
X164600730Y-60740678D01*
X164647516Y-60793212D01*
X164707087Y-60830632D01*
X164774723Y-60849975D01*
X164845071Y-60849708D01*
X164912559Y-60829854D01*
X164971844Y-60791984D01*
X165015238Y-60743572D01*
X165157444Y-60535885D01*
X165325375Y-60371436D01*
X165522047Y-60242737D01*
X165739972Y-60154689D01*
X165970851Y-60110646D01*
X166205883Y-60112287D01*
X166436124Y-60159549D01*
X166652798Y-60250631D01*
X166847655Y-60382063D01*
X167013276Y-60548844D01*
X167140730Y-60740678D01*
X167187516Y-60793212D01*
X167247087Y-60830632D01*
X167314723Y-60849975D01*
X167385071Y-60849708D01*
X167452559Y-60829854D01*
X167511844Y-60791984D01*
X167555238Y-60743572D01*
X167697444Y-60535885D01*
X167865375Y-60371436D01*
X168062047Y-60242737D01*
X168279972Y-60154689D01*
X168510851Y-60110646D01*
X168745883Y-60112287D01*
X168745883Y-60112287D01*
G37*
G36*
X120775883Y-54782287D02*
X121006124Y-54829549D01*
X121222798Y-54920631D01*
X121417655Y-55052063D01*
X121583276Y-55218844D01*
X121713340Y-55414607D01*
X121802910Y-55631919D01*
X121848219Y-55860749D01*
X121848218Y-55860801D01*
X121848551Y-55862481D01*
X121844803Y-56130939D01*
X121844424Y-56132608D01*
X121844423Y-56132664D01*
X121792742Y-56360140D01*
X121697143Y-56574859D01*
X121561658Y-56766920D01*
X121431932Y-56890457D01*
X121388320Y-56945656D01*
X121361813Y-57010819D01*
X121354510Y-57080787D01*
X121366988Y-57150020D01*
X121398260Y-57213035D01*
X121445849Y-57264843D01*
X121505988Y-57301342D01*
X121604337Y-57321500D01*
X121848500Y-57321500D01*
X121848500Y-59166337D01*
X121858398Y-59235985D01*
X121887307Y-59300119D01*
X121932939Y-59353659D01*
X121991681Y-59392367D01*
X122058880Y-59413178D01*
X122129217Y-59414443D01*
X122197121Y-59396063D01*
X122257217Y-59359492D01*
X122304745Y-59307628D01*
X122343037Y-59218315D01*
X122352062Y-59175854D01*
X122444656Y-58959818D01*
X122577445Y-58765884D01*
X122745375Y-58601436D01*
X122942047Y-58472737D01*
X123159972Y-58384689D01*
X123390851Y-58340646D01*
X123625883Y-58342287D01*
X123856124Y-58389549D01*
X124072798Y-58480631D01*
X124267655Y-58612063D01*
X124433276Y-58778844D01*
X124563340Y-58974607D01*
X124652910Y-59191919D01*
X124696102Y-59410058D01*
X124719339Y-59476458D01*
X124760155Y-59533754D01*
X124815317Y-59577412D01*
X124880458Y-59603973D01*
X124941341Y-59611500D01*
X127388500Y-59611500D01*
X127388500Y-59851419D01*
X127398398Y-59921067D01*
X127427307Y-59985201D01*
X127472939Y-60038741D01*
X127531681Y-60077449D01*
X127598880Y-60098260D01*
X127669217Y-60099525D01*
X127737121Y-60081145D01*
X127813415Y-60030038D01*
X127975375Y-59871436D01*
X128172047Y-59742737D01*
X128389972Y-59654689D01*
X128620851Y-59610646D01*
X128855883Y-59612287D01*
X129086124Y-59659549D01*
X129302798Y-59750631D01*
X129497655Y-59882063D01*
X129663276Y-60048844D01*
X129790730Y-60240678D01*
X129837516Y-60293212D01*
X129897087Y-60330632D01*
X129964723Y-60349975D01*
X130035071Y-60349708D01*
X130102559Y-60329854D01*
X130161844Y-60291984D01*
X130205238Y-60243572D01*
X130347444Y-60035885D01*
X130515375Y-59871436D01*
X130712047Y-59742737D01*
X130929972Y-59654689D01*
X131160851Y-59610646D01*
X131395883Y-59612287D01*
X131626124Y-59659549D01*
X131842798Y-59750631D01*
X132037655Y-59882063D01*
X132203276Y-60048844D01*
X132330730Y-60240678D01*
X132377516Y-60293212D01*
X132437087Y-60330632D01*
X132504723Y-60349975D01*
X132575071Y-60349708D01*
X132642559Y-60329854D01*
X132701844Y-60291984D01*
X132745238Y-60243572D01*
X132887444Y-60035885D01*
X133055375Y-59871436D01*
X133252047Y-59742737D01*
X133469972Y-59654689D01*
X133700851Y-59610646D01*
X133935883Y-59612287D01*
X134166124Y-59659549D01*
X134382798Y-59750631D01*
X134577655Y-59882063D01*
X134743276Y-60048844D01*
X134873340Y-60244607D01*
X134962910Y-60461919D01*
X135008219Y-60690749D01*
X135008218Y-60690801D01*
X135008551Y-60692481D01*
X135004803Y-60960939D01*
X135004424Y-60962608D01*
X135004423Y-60962664D01*
X134952742Y-61190140D01*
X134857143Y-61404859D01*
X134721658Y-61596920D01*
X134551448Y-61759009D01*
X134352995Y-61884951D01*
X134133863Y-61969946D01*
X133902392Y-62010761D01*
X133667406Y-62005838D01*
X133437849Y-61955367D01*
X133222463Y-61861267D01*
X133029466Y-61727131D01*
X132866189Y-61558053D01*
X132751602Y-61380250D01*
X132705553Y-61327068D01*
X132646511Y-61288820D01*
X132579151Y-61268535D01*
X132508807Y-61267820D01*
X132441048Y-61286730D01*
X132381240Y-61323769D01*
X132334119Y-61376003D01*
X132321765Y-61398306D01*
X132181658Y-61596920D01*
X132011448Y-61759009D01*
X131812995Y-61884951D01*
X131593863Y-61969946D01*
X131362392Y-62010761D01*
X131127406Y-62005838D01*
X130897849Y-61955367D01*
X130682463Y-61861267D01*
X130489466Y-61727131D01*
X130326189Y-61558053D01*
X130211602Y-61380250D01*
X130165553Y-61327068D01*
X130106511Y-61288820D01*
X130039151Y-61268535D01*
X129968807Y-61267820D01*
X129901048Y-61286730D01*
X129841240Y-61323769D01*
X129794119Y-61376003D01*
X129781765Y-61398306D01*
X129641658Y-61596920D01*
X129471448Y-61759009D01*
X129272995Y-61884951D01*
X129053863Y-61969946D01*
X128822392Y-62010761D01*
X128587406Y-62005838D01*
X128357849Y-61955367D01*
X128142463Y-61861267D01*
X127949466Y-61727131D01*
X127818335Y-61591341D01*
X127762833Y-61548116D01*
X127697487Y-61522065D01*
X127627470Y-61515249D01*
X127558326Y-61528211D01*
X127495530Y-61559921D01*
X127444055Y-61607871D01*
X127407977Y-61668263D01*
X127388500Y-61765006D01*
X127388500Y-62008500D01*
X124991500Y-62008500D01*
X124991500Y-60293041D01*
X124981602Y-60223393D01*
X124952693Y-60159259D01*
X124907061Y-60105719D01*
X124848319Y-60067011D01*
X124781120Y-60046200D01*
X124710783Y-60044935D01*
X124642879Y-60063315D01*
X124582783Y-60099886D01*
X124537214Y-60148933D01*
X124411658Y-60326920D01*
X124241448Y-60489009D01*
X124042995Y-60614951D01*
X123823863Y-60699946D01*
X123592392Y-60740761D01*
X123357406Y-60735838D01*
X123127849Y-60685367D01*
X122912463Y-60591267D01*
X122719466Y-60457131D01*
X122556190Y-60288054D01*
X122428865Y-60090486D01*
X122333319Y-59849162D01*
X122333070Y-59849260D01*
X122322084Y-59816405D01*
X122282072Y-59758544D01*
X122227525Y-59714121D01*
X122162761Y-59686653D01*
X122092908Y-59678316D01*
X122023499Y-59689769D01*
X121963386Y-59718500D01*
X119451500Y-59718500D01*
X119451500Y-57321500D01*
X119690311Y-57321500D01*
X119759959Y-57311602D01*
X119824093Y-57282693D01*
X119877633Y-57237061D01*
X119916341Y-57178319D01*
X119937152Y-57111120D01*
X119938417Y-57040783D01*
X119920037Y-56972879D01*
X119870146Y-56897835D01*
X119706190Y-56728054D01*
X119578865Y-56530486D01*
X119492343Y-56311955D01*
X119449914Y-56080775D01*
X119453196Y-55845754D01*
X119502062Y-55615855D01*
X119594656Y-55399818D01*
X119727445Y-55205884D01*
X119895375Y-55041436D01*
X120092047Y-54912737D01*
X120309972Y-54824689D01*
X120540851Y-54780646D01*
X120775883Y-54782287D01*
X120775883Y-54782287D01*
G37*
G36*
X138625883Y-53762287D02*
X138856124Y-53809549D01*
X139072798Y-53900631D01*
X139267658Y-54032065D01*
X139374107Y-54139260D01*
X139430207Y-54181707D01*
X139495911Y-54206843D01*
X139566016Y-54212680D01*
X139634972Y-54198755D01*
X139697319Y-54166170D01*
X139748119Y-54117507D01*
X139783351Y-54056617D01*
X139801500Y-53963102D01*
X139801500Y-53761500D01*
X142198500Y-53761500D01*
X142198500Y-56158500D01*
X141957556Y-56158500D01*
X141887908Y-56168398D01*
X141823774Y-56197307D01*
X141770234Y-56242939D01*
X141731526Y-56301681D01*
X141710715Y-56368880D01*
X141709450Y-56439217D01*
X141727830Y-56507121D01*
X141780164Y-56584659D01*
X141933274Y-56738841D01*
X142063340Y-56934607D01*
X142152910Y-57151919D01*
X142198219Y-57380749D01*
X142198218Y-57380801D01*
X142198551Y-57382481D01*
X142194803Y-57650939D01*
X142194424Y-57652608D01*
X142194423Y-57652664D01*
X142142742Y-57880140D01*
X142047143Y-58094859D01*
X141911658Y-58286920D01*
X141741446Y-58449011D01*
X141571033Y-58557158D01*
X141517530Y-58602834D01*
X141478871Y-58661608D01*
X141458116Y-58728824D01*
X141456909Y-58799162D01*
X141475345Y-58867051D01*
X141511965Y-58927117D01*
X141565191Y-58975500D01*
X141767655Y-59112063D01*
X141933276Y-59278844D01*
X142063340Y-59474607D01*
X142152910Y-59691919D01*
X142198219Y-59920749D01*
X142198218Y-59920801D01*
X142198551Y-59922481D01*
X142194803Y-60190939D01*
X142194424Y-60192608D01*
X142194423Y-60192664D01*
X142142742Y-60420140D01*
X142047143Y-60634859D01*
X141911658Y-60826920D01*
X141741448Y-60989009D01*
X141542995Y-61114951D01*
X141323863Y-61199946D01*
X141092392Y-61240761D01*
X140857406Y-61235838D01*
X140627849Y-61185367D01*
X140412463Y-61091267D01*
X140219466Y-60957131D01*
X140056189Y-60788053D01*
X139962346Y-60642438D01*
X139916297Y-60589256D01*
X139857255Y-60551008D01*
X139789895Y-60530723D01*
X139719551Y-60530008D01*
X139651792Y-60548918D01*
X139591984Y-60585956D01*
X139547919Y-60633758D01*
X139411658Y-60826920D01*
X139241448Y-60989009D01*
X139042995Y-61114951D01*
X138823863Y-61199946D01*
X138592392Y-61240761D01*
X138357406Y-61235838D01*
X138127849Y-61185367D01*
X137912463Y-61091267D01*
X137719466Y-60957131D01*
X137556190Y-60788054D01*
X137428865Y-60590486D01*
X137342343Y-60371955D01*
X137299914Y-60140775D01*
X137303196Y-59905754D01*
X137352062Y-59675855D01*
X137444656Y-59459818D01*
X137577445Y-59265884D01*
X137745375Y-59101436D01*
X137942047Y-58972737D01*
X138159972Y-58884689D01*
X138390851Y-58840646D01*
X138625883Y-58842287D01*
X138856124Y-58889549D01*
X139072798Y-58980631D01*
X139267655Y-59112063D01*
X139433273Y-59278841D01*
X139541030Y-59441029D01*
X139587817Y-59493563D01*
X139647387Y-59530983D01*
X139715024Y-59550326D01*
X139785372Y-59550059D01*
X139852860Y-59530205D01*
X139912145Y-59492335D01*
X139955539Y-59443923D01*
X140077444Y-59265885D01*
X140245375Y-59101436D01*
X140429531Y-58980927D01*
X140482391Y-58934508D01*
X140520226Y-58875200D01*
X140540040Y-58807700D01*
X140540264Y-58737352D01*
X140520882Y-58669727D01*
X140483426Y-58610179D01*
X140430864Y-58563424D01*
X140426652Y-58561129D01*
X140219466Y-58417131D01*
X140056190Y-58248054D01*
X139928865Y-58050486D01*
X139842343Y-57831955D01*
X139799914Y-57600775D01*
X139803196Y-57365754D01*
X139852062Y-57135855D01*
X139944656Y-56919818D01*
X140077445Y-56725884D01*
X140219148Y-56587119D01*
X140261985Y-56531317D01*
X140287580Y-56465790D01*
X140293906Y-56395727D01*
X140280463Y-56326675D01*
X140248315Y-56264103D01*
X140200007Y-56212964D01*
X140139364Y-56177307D01*
X140044233Y-56158500D01*
X139801500Y-56158500D01*
X139801500Y-55958972D01*
X139791602Y-55889324D01*
X139762693Y-55825190D01*
X139717061Y-55771650D01*
X139658319Y-55732942D01*
X139591120Y-55712131D01*
X139520783Y-55710866D01*
X139452879Y-55729246D01*
X139379095Y-55777929D01*
X139241448Y-55909009D01*
X139042995Y-56034951D01*
X138823863Y-56119946D01*
X138592392Y-56160761D01*
X138357406Y-56155838D01*
X138127849Y-56105367D01*
X137912463Y-56011267D01*
X137719466Y-55877131D01*
X137556190Y-55708054D01*
X137428865Y-55510486D01*
X137342343Y-55291955D01*
X137299914Y-55060775D01*
X137303196Y-54825754D01*
X137352062Y-54595855D01*
X137444656Y-54379818D01*
X137577445Y-54185884D01*
X137745375Y-54021436D01*
X137942047Y-53892737D01*
X138159972Y-53804689D01*
X138390851Y-53760646D01*
X138625883Y-53762287D01*
X138625883Y-53762287D01*
G37*
G36*
X149625883Y-58842287D02*
X149856124Y-58889549D01*
X150072798Y-58980631D01*
X150267655Y-59112063D01*
X150433276Y-59278844D01*
X150563340Y-59474607D01*
X150652910Y-59691919D01*
X150698219Y-59920749D01*
X150698218Y-59920801D01*
X150698551Y-59922481D01*
X150694803Y-60190939D01*
X150694424Y-60192608D01*
X150694423Y-60192664D01*
X150642742Y-60420140D01*
X150547143Y-60634859D01*
X150411658Y-60826920D01*
X150241448Y-60989009D01*
X150042995Y-61114951D01*
X149823863Y-61199946D01*
X149592392Y-61240761D01*
X149357406Y-61235838D01*
X149127849Y-61185367D01*
X148912463Y-61091267D01*
X148719466Y-60957131D01*
X148556190Y-60788054D01*
X148428865Y-60590486D01*
X148342343Y-60371955D01*
X148299914Y-60140775D01*
X148303196Y-59905754D01*
X148352062Y-59675855D01*
X148444656Y-59459818D01*
X148577445Y-59265884D01*
X148745375Y-59101436D01*
X148942047Y-58972737D01*
X149159972Y-58884689D01*
X149390851Y-58840646D01*
X149625883Y-58842287D01*
X149625883Y-58842287D01*
G37*
G36*
X149625883Y-53762287D02*
X149856124Y-53809549D01*
X150072798Y-53900631D01*
X150267655Y-54032063D01*
X150433276Y-54198844D01*
X150563340Y-54394607D01*
X150652910Y-54611919D01*
X150698219Y-54840749D01*
X150698218Y-54840801D01*
X150698551Y-54842481D01*
X150694803Y-55110939D01*
X150694424Y-55112608D01*
X150694423Y-55112664D01*
X150642742Y-55340140D01*
X150547143Y-55554859D01*
X150411658Y-55746920D01*
X150241448Y-55909009D01*
X150042995Y-56034951D01*
X149823863Y-56119946D01*
X149592392Y-56160761D01*
X149357406Y-56155838D01*
X149127849Y-56105367D01*
X148912463Y-56011267D01*
X148719466Y-55877131D01*
X148556190Y-55708054D01*
X148428865Y-55510486D01*
X148342343Y-55291955D01*
X148299914Y-55060775D01*
X148303196Y-54825754D01*
X148352062Y-54595855D01*
X148444656Y-54379818D01*
X148577445Y-54185884D01*
X148745375Y-54021436D01*
X148942047Y-53892737D01*
X149159972Y-53804689D01*
X149390851Y-53760646D01*
X149625883Y-53762287D01*
X149625883Y-53762287D01*
G37*
G36*
X123625883Y-53262287D02*
X123856124Y-53309549D01*
X124072798Y-53400631D01*
X124267655Y-53532063D01*
X124433276Y-53698844D01*
X124563340Y-53894607D01*
X124652910Y-54111919D01*
X124698219Y-54340749D01*
X124698218Y-54340801D01*
X124698551Y-54342481D01*
X124694803Y-54610939D01*
X124694424Y-54612608D01*
X124694423Y-54612664D01*
X124642742Y-54840140D01*
X124547143Y-55054858D01*
X124411658Y-55246920D01*
X124241448Y-55409009D01*
X124042995Y-55534951D01*
X123823863Y-55619946D01*
X123592392Y-55660761D01*
X123357406Y-55655838D01*
X123127849Y-55605367D01*
X122912463Y-55511267D01*
X122719466Y-55377131D01*
X122556190Y-55208054D01*
X122428865Y-55010486D01*
X122342343Y-54791955D01*
X122299914Y-54560775D01*
X122303196Y-54325754D01*
X122352062Y-54095855D01*
X122444656Y-53879818D01*
X122577445Y-53685884D01*
X122745375Y-53521436D01*
X122942047Y-53392737D01*
X123159972Y-53304689D01*
X123390851Y-53260646D01*
X123625883Y-53262287D01*
X123625883Y-53262287D01*
G37*
G36*
X168745883Y-52492287D02*
X168976124Y-52539549D01*
X169192798Y-52630631D01*
X169387655Y-52762063D01*
X169553276Y-52928844D01*
X169683340Y-53124607D01*
X169772910Y-53341919D01*
X169818219Y-53570749D01*
X169818218Y-53570801D01*
X169818551Y-53572481D01*
X169814803Y-53840939D01*
X169814424Y-53842608D01*
X169814423Y-53842664D01*
X169762742Y-54070140D01*
X169667143Y-54284859D01*
X169531658Y-54476920D01*
X169361448Y-54639009D01*
X169162995Y-54764951D01*
X168943863Y-54849946D01*
X168712392Y-54890761D01*
X168477406Y-54885838D01*
X168247849Y-54835367D01*
X168032463Y-54741267D01*
X167839466Y-54607131D01*
X167676189Y-54438053D01*
X167561602Y-54260250D01*
X167515553Y-54207068D01*
X167456511Y-54168820D01*
X167389151Y-54148535D01*
X167318807Y-54147820D01*
X167251048Y-54166730D01*
X167191240Y-54203769D01*
X167144119Y-54256003D01*
X167131765Y-54278306D01*
X166991658Y-54476920D01*
X166821448Y-54639009D01*
X166622995Y-54764951D01*
X166403863Y-54849946D01*
X166172392Y-54890761D01*
X165937406Y-54885838D01*
X165707849Y-54835367D01*
X165492463Y-54741267D01*
X165299466Y-54607131D01*
X165136189Y-54438053D01*
X165021602Y-54260250D01*
X164975553Y-54207068D01*
X164916511Y-54168820D01*
X164849151Y-54148535D01*
X164778807Y-54147820D01*
X164711048Y-54166730D01*
X164651240Y-54203769D01*
X164604119Y-54256003D01*
X164591765Y-54278306D01*
X164451658Y-54476920D01*
X164281448Y-54639009D01*
X164082995Y-54764951D01*
X163863863Y-54849946D01*
X163632392Y-54890761D01*
X163397406Y-54885838D01*
X163167849Y-54835367D01*
X162952463Y-54741267D01*
X162759466Y-54607131D01*
X162596189Y-54438053D01*
X162481602Y-54260250D01*
X162435553Y-54207068D01*
X162376511Y-54168820D01*
X162309151Y-54148535D01*
X162238807Y-54147820D01*
X162171048Y-54166730D01*
X162111240Y-54203769D01*
X162064119Y-54256003D01*
X162051765Y-54278306D01*
X161911658Y-54476920D01*
X161741448Y-54639009D01*
X161542995Y-54764951D01*
X161323863Y-54849946D01*
X161092392Y-54890761D01*
X160857406Y-54885838D01*
X160627849Y-54835367D01*
X160412463Y-54741267D01*
X160219466Y-54607131D01*
X160056189Y-54438053D01*
X159941602Y-54260250D01*
X159895553Y-54207068D01*
X159836511Y-54168820D01*
X159769151Y-54148535D01*
X159698807Y-54147820D01*
X159631048Y-54166730D01*
X159571240Y-54203769D01*
X159524119Y-54256003D01*
X159511765Y-54278306D01*
X159371658Y-54476920D01*
X159201448Y-54639009D01*
X159002995Y-54764951D01*
X158783863Y-54849946D01*
X158552392Y-54890761D01*
X158317406Y-54885838D01*
X158087849Y-54835367D01*
X157872463Y-54741267D01*
X157679466Y-54607131D01*
X157516189Y-54438053D01*
X157401602Y-54260250D01*
X157355553Y-54207068D01*
X157296511Y-54168820D01*
X157229151Y-54148535D01*
X157158807Y-54147820D01*
X157091048Y-54166730D01*
X157031240Y-54203769D01*
X156984119Y-54256003D01*
X156971765Y-54278306D01*
X156831658Y-54476920D01*
X156661448Y-54639009D01*
X156462995Y-54764951D01*
X156243863Y-54849946D01*
X156012392Y-54890761D01*
X155777406Y-54885838D01*
X155547849Y-54835367D01*
X155332463Y-54741267D01*
X155139466Y-54607131D01*
X154976189Y-54438053D01*
X154861602Y-54260250D01*
X154815553Y-54207068D01*
X154756511Y-54168820D01*
X154689151Y-54148535D01*
X154618807Y-54147820D01*
X154551048Y-54166730D01*
X154491240Y-54203769D01*
X154444119Y-54256003D01*
X154431765Y-54278306D01*
X154291658Y-54476920D01*
X154121448Y-54639009D01*
X153922995Y-54764951D01*
X153703863Y-54849946D01*
X153472392Y-54890761D01*
X153237406Y-54885838D01*
X153007849Y-54835367D01*
X152792463Y-54741267D01*
X152599466Y-54607131D01*
X152436190Y-54438054D01*
X152308865Y-54240486D01*
X152222343Y-54021955D01*
X152179914Y-53790775D01*
X152183196Y-53555754D01*
X152232062Y-53325855D01*
X152324656Y-53109818D01*
X152457445Y-52915884D01*
X152625375Y-52751436D01*
X152822047Y-52622737D01*
X153039972Y-52534689D01*
X153270851Y-52490646D01*
X153505883Y-52492287D01*
X153736124Y-52539549D01*
X153952798Y-52630631D01*
X154147655Y-52762063D01*
X154313276Y-52928844D01*
X154440730Y-53120678D01*
X154487516Y-53173212D01*
X154547087Y-53210632D01*
X154614723Y-53229975D01*
X154685071Y-53229708D01*
X154752559Y-53209854D01*
X154811844Y-53171984D01*
X154855238Y-53123572D01*
X154997444Y-52915885D01*
X155165375Y-52751436D01*
X155362047Y-52622737D01*
X155579972Y-52534689D01*
X155810851Y-52490646D01*
X156045883Y-52492287D01*
X156276124Y-52539549D01*
X156492798Y-52630631D01*
X156687655Y-52762063D01*
X156853276Y-52928844D01*
X156980730Y-53120678D01*
X157027516Y-53173212D01*
X157087087Y-53210632D01*
X157154723Y-53229975D01*
X157225071Y-53229708D01*
X157292559Y-53209854D01*
X157351844Y-53171984D01*
X157395238Y-53123572D01*
X157537444Y-52915885D01*
X157705375Y-52751436D01*
X157902047Y-52622737D01*
X158119972Y-52534689D01*
X158350851Y-52490646D01*
X158585883Y-52492287D01*
X158816124Y-52539549D01*
X159032798Y-52630631D01*
X159227655Y-52762063D01*
X159393276Y-52928844D01*
X159520730Y-53120678D01*
X159567516Y-53173212D01*
X159627087Y-53210632D01*
X159694723Y-53229975D01*
X159765071Y-53229708D01*
X159832559Y-53209854D01*
X159891844Y-53171984D01*
X159935238Y-53123572D01*
X160077444Y-52915885D01*
X160245375Y-52751436D01*
X160442047Y-52622737D01*
X160659972Y-52534689D01*
X160890851Y-52490646D01*
X161125883Y-52492287D01*
X161356124Y-52539549D01*
X161572798Y-52630631D01*
X161767655Y-52762063D01*
X161933276Y-52928844D01*
X162060730Y-53120678D01*
X162107516Y-53173212D01*
X162167087Y-53210632D01*
X162234723Y-53229975D01*
X162305071Y-53229708D01*
X162372559Y-53209854D01*
X162431844Y-53171984D01*
X162475238Y-53123572D01*
X162617444Y-52915885D01*
X162785375Y-52751436D01*
X162982047Y-52622737D01*
X163199972Y-52534689D01*
X163430851Y-52490646D01*
X163665883Y-52492287D01*
X163896124Y-52539549D01*
X164112798Y-52630631D01*
X164307655Y-52762063D01*
X164473276Y-52928844D01*
X164600730Y-53120678D01*
X164647516Y-53173212D01*
X164707087Y-53210632D01*
X164774723Y-53229975D01*
X164845071Y-53229708D01*
X164912559Y-53209854D01*
X164971844Y-53171984D01*
X165015238Y-53123572D01*
X165157444Y-52915885D01*
X165325375Y-52751436D01*
X165522047Y-52622737D01*
X165739972Y-52534689D01*
X165970851Y-52490646D01*
X166205883Y-52492287D01*
X166436124Y-52539549D01*
X166652798Y-52630631D01*
X166847655Y-52762063D01*
X167013276Y-52928844D01*
X167140730Y-53120678D01*
X167187516Y-53173212D01*
X167247087Y-53210632D01*
X167314723Y-53229975D01*
X167385071Y-53229708D01*
X167452559Y-53209854D01*
X167511844Y-53171984D01*
X167555238Y-53123572D01*
X167697444Y-52915885D01*
X167865375Y-52751436D01*
X168062047Y-52622737D01*
X168279972Y-52534689D01*
X168510851Y-52490646D01*
X168745883Y-52492287D01*
X168745883Y-52492287D01*
G37*
G36*
X133935883Y-51992287D02*
X134166124Y-52039549D01*
X134382798Y-52130631D01*
X134577655Y-52262063D01*
X134743276Y-52428844D01*
X134873340Y-52624607D01*
X134962910Y-52841919D01*
X135008219Y-53070749D01*
X135008218Y-53070801D01*
X135008551Y-53072481D01*
X135004803Y-53340939D01*
X135004424Y-53342608D01*
X135004423Y-53342664D01*
X134952742Y-53570140D01*
X134857143Y-53784859D01*
X134721658Y-53976920D01*
X134551448Y-54139009D01*
X134352995Y-54264951D01*
X134133863Y-54349946D01*
X133902392Y-54390761D01*
X133667406Y-54385838D01*
X133437849Y-54335367D01*
X133222463Y-54241267D01*
X133029466Y-54107131D01*
X132866189Y-53938053D01*
X132751602Y-53760250D01*
X132705553Y-53707068D01*
X132646511Y-53668820D01*
X132579151Y-53648535D01*
X132508807Y-53647820D01*
X132441048Y-53666730D01*
X132381240Y-53703769D01*
X132334119Y-53756003D01*
X132321765Y-53778306D01*
X132181658Y-53976920D01*
X132011448Y-54139009D01*
X131812995Y-54264951D01*
X131593863Y-54349946D01*
X131362392Y-54390761D01*
X131127406Y-54385838D01*
X130897849Y-54335367D01*
X130682463Y-54241267D01*
X130489466Y-54107131D01*
X130326189Y-53938053D01*
X130211602Y-53760250D01*
X130165553Y-53707068D01*
X130106511Y-53668820D01*
X130039151Y-53648535D01*
X129968807Y-53647820D01*
X129901048Y-53666730D01*
X129841240Y-53703769D01*
X129794119Y-53756003D01*
X129781765Y-53778306D01*
X129641658Y-53976920D01*
X129471448Y-54139009D01*
X129272995Y-54264951D01*
X129053863Y-54349946D01*
X128822392Y-54390761D01*
X128587406Y-54385838D01*
X128357849Y-54335367D01*
X128142463Y-54241267D01*
X127949466Y-54107131D01*
X127786189Y-53938053D01*
X127671602Y-53760250D01*
X127625553Y-53707068D01*
X127566511Y-53668820D01*
X127499151Y-53648535D01*
X127428807Y-53647820D01*
X127361048Y-53666730D01*
X127301240Y-53703769D01*
X127254119Y-53756003D01*
X127241765Y-53778306D01*
X127101658Y-53976920D01*
X126931448Y-54139009D01*
X126732995Y-54264951D01*
X126513863Y-54349946D01*
X126282392Y-54390761D01*
X126047406Y-54385838D01*
X125817849Y-54335367D01*
X125602463Y-54241267D01*
X125409466Y-54107131D01*
X125246190Y-53938054D01*
X125118865Y-53740486D01*
X125032343Y-53521955D01*
X124989914Y-53290775D01*
X124993196Y-53055754D01*
X125042062Y-52825855D01*
X125134656Y-52609818D01*
X125267445Y-52415884D01*
X125435375Y-52251436D01*
X125632047Y-52122737D01*
X125849972Y-52034689D01*
X126080851Y-51990646D01*
X126315883Y-51992287D01*
X126546124Y-52039549D01*
X126762798Y-52130631D01*
X126957655Y-52262063D01*
X127123276Y-52428844D01*
X127250730Y-52620678D01*
X127297516Y-52673212D01*
X127357087Y-52710632D01*
X127424723Y-52729975D01*
X127495071Y-52729708D01*
X127562559Y-52709854D01*
X127621844Y-52671984D01*
X127665238Y-52623572D01*
X127807444Y-52415885D01*
X127975375Y-52251436D01*
X128172047Y-52122737D01*
X128389972Y-52034689D01*
X128620851Y-51990646D01*
X128855883Y-51992287D01*
X129086124Y-52039549D01*
X129302798Y-52130631D01*
X129497655Y-52262063D01*
X129663276Y-52428844D01*
X129790730Y-52620678D01*
X129837516Y-52673212D01*
X129897087Y-52710632D01*
X129964723Y-52729975D01*
X130035071Y-52729708D01*
X130102559Y-52709854D01*
X130161844Y-52671984D01*
X130205238Y-52623572D01*
X130347444Y-52415885D01*
X130515375Y-52251436D01*
X130712047Y-52122737D01*
X130929972Y-52034689D01*
X131160851Y-51990646D01*
X131395883Y-51992287D01*
X131626124Y-52039549D01*
X131842798Y-52130631D01*
X132037655Y-52262063D01*
X132203276Y-52428844D01*
X132330730Y-52620678D01*
X132377516Y-52673212D01*
X132437087Y-52710632D01*
X132504723Y-52729975D01*
X132575071Y-52729708D01*
X132642559Y-52709854D01*
X132701844Y-52671984D01*
X132745238Y-52623572D01*
X132887444Y-52415885D01*
X133055375Y-52251436D01*
X133252047Y-52122737D01*
X133469972Y-52034689D01*
X133700851Y-51990646D01*
X133935883Y-51992287D01*
X133935883Y-51992287D01*
G37*
G36*
X165895883Y-47802287D02*
X166126124Y-47849549D01*
X166342798Y-47940631D01*
X166537655Y-48072063D01*
X166703276Y-48238844D01*
X166833340Y-48434607D01*
X166922910Y-48651919D01*
X166968219Y-48880749D01*
X166968218Y-48880801D01*
X166968551Y-48882481D01*
X166964803Y-49150939D01*
X166964424Y-49152608D01*
X166964423Y-49152664D01*
X166912742Y-49380140D01*
X166817143Y-49594859D01*
X166681658Y-49786920D01*
X166511448Y-49949009D01*
X166312995Y-50074951D01*
X166093863Y-50159946D01*
X165862392Y-50200761D01*
X165627406Y-50195838D01*
X165397849Y-50145367D01*
X165182463Y-50051267D01*
X164989466Y-49917131D01*
X164858335Y-49781341D01*
X164802833Y-49738116D01*
X164737487Y-49712065D01*
X164667470Y-49705249D01*
X164598326Y-49718211D01*
X164535530Y-49749921D01*
X164484055Y-49797871D01*
X164447977Y-49858263D01*
X164428500Y-49955006D01*
X164428500Y-50198500D01*
X162031500Y-50198500D01*
X162031500Y-47801500D01*
X164428500Y-47801500D01*
X164428500Y-48041419D01*
X164438398Y-48111067D01*
X164467307Y-48175201D01*
X164512939Y-48228741D01*
X164571681Y-48267449D01*
X164638880Y-48288260D01*
X164709217Y-48289525D01*
X164777121Y-48271145D01*
X164853415Y-48220038D01*
X165015375Y-48061436D01*
X165212047Y-47932737D01*
X165429972Y-47844689D01*
X165660851Y-47800646D01*
X165895883Y-47802287D01*
X165895883Y-47802287D01*
G37*
G36*
X174395883Y-47302287D02*
X174626124Y-47349549D01*
X174842798Y-47440631D01*
X175037655Y-47572063D01*
X175203276Y-47738844D01*
X175333340Y-47934607D01*
X175422910Y-48151919D01*
X175468219Y-48380749D01*
X175468218Y-48380801D01*
X175468551Y-48382481D01*
X175464803Y-48650939D01*
X175464424Y-48652608D01*
X175464423Y-48652664D01*
X175412742Y-48880140D01*
X175317143Y-49094859D01*
X175181658Y-49286920D01*
X175011448Y-49449009D01*
X174812995Y-49574951D01*
X174593863Y-49659946D01*
X174362392Y-49700761D01*
X174127406Y-49695838D01*
X173897849Y-49645367D01*
X173682463Y-49551267D01*
X173489466Y-49417131D01*
X173358335Y-49281341D01*
X173302833Y-49238116D01*
X173237487Y-49212065D01*
X173167470Y-49205249D01*
X173098326Y-49218211D01*
X173035530Y-49249921D01*
X172984055Y-49297871D01*
X172947977Y-49358263D01*
X172928500Y-49455006D01*
X172928500Y-49698500D01*
X170531500Y-49698500D01*
X170531500Y-47301500D01*
X172928500Y-47301500D01*
X172928500Y-47541419D01*
X172938398Y-47611067D01*
X172967307Y-47675201D01*
X173012939Y-47728741D01*
X173071681Y-47767449D01*
X173138880Y-47788260D01*
X173209217Y-47789525D01*
X173277121Y-47771145D01*
X173353415Y-47720038D01*
X173515375Y-47561436D01*
X173712047Y-47432737D01*
X173929972Y-47344689D01*
X174160851Y-47300646D01*
X174395883Y-47302287D01*
X174395883Y-47302287D01*
G37*
G36*
X124085883Y-47302287D02*
X124316124Y-47349549D01*
X124532798Y-47440631D01*
X124727655Y-47572063D01*
X124893276Y-47738844D01*
X125023340Y-47934607D01*
X125112910Y-48151919D01*
X125158219Y-48380749D01*
X125158218Y-48380801D01*
X125158551Y-48382481D01*
X125154803Y-48650939D01*
X125154424Y-48652608D01*
X125154423Y-48652664D01*
X125102742Y-48880140D01*
X125007143Y-49094859D01*
X124871658Y-49286920D01*
X124701448Y-49449009D01*
X124502995Y-49574951D01*
X124283863Y-49659946D01*
X124052392Y-49700761D01*
X123817406Y-49695838D01*
X123587849Y-49645367D01*
X123372463Y-49551267D01*
X123179466Y-49417131D01*
X123016190Y-49248054D01*
X122888865Y-49050486D01*
X122802343Y-48831955D01*
X122759914Y-48600775D01*
X122763196Y-48365754D01*
X122812062Y-48135855D01*
X122904656Y-47919818D01*
X123037445Y-47725884D01*
X123205375Y-47561436D01*
X123402047Y-47432737D01*
X123619972Y-47344689D01*
X123850851Y-47300646D01*
X124085883Y-47302287D01*
X124085883Y-47302287D01*
G37*
G36*
X132315883Y-47302287D02*
X132546124Y-47349549D01*
X132762798Y-47440631D01*
X132957655Y-47572063D01*
X133123276Y-47738844D01*
X133253340Y-47934607D01*
X133342910Y-48151919D01*
X133388219Y-48380749D01*
X133388218Y-48380801D01*
X133388551Y-48382481D01*
X133384803Y-48650939D01*
X133384424Y-48652608D01*
X133384423Y-48652664D01*
X133332742Y-48880140D01*
X133237143Y-49094859D01*
X133101658Y-49286920D01*
X132931448Y-49449009D01*
X132732995Y-49574951D01*
X132513863Y-49659946D01*
X132282392Y-49700761D01*
X132047406Y-49695838D01*
X131817849Y-49645367D01*
X131602463Y-49551267D01*
X131409466Y-49417131D01*
X131246190Y-49248054D01*
X131118865Y-49050486D01*
X131032343Y-48831955D01*
X130989914Y-48600775D01*
X130993196Y-48365754D01*
X131042062Y-48135855D01*
X131134656Y-47919818D01*
X131267445Y-47725884D01*
X131435375Y-47561436D01*
X131632047Y-47432737D01*
X131849972Y-47344689D01*
X132080851Y-47300646D01*
X132315883Y-47302287D01*
X132315883Y-47302287D01*
G37*
G36*
X139935883Y-47302287D02*
X140166124Y-47349549D01*
X140382798Y-47440631D01*
X140577655Y-47572063D01*
X140743276Y-47738844D01*
X140873340Y-47934607D01*
X140962910Y-48151919D01*
X141008219Y-48380749D01*
X141008218Y-48380801D01*
X141008551Y-48382481D01*
X141004803Y-48650939D01*
X141004424Y-48652608D01*
X141004423Y-48652664D01*
X140952742Y-48880140D01*
X140857143Y-49094859D01*
X140721658Y-49286920D01*
X140551448Y-49449009D01*
X140352995Y-49574951D01*
X140133863Y-49659946D01*
X139902392Y-49700761D01*
X139667406Y-49695838D01*
X139437849Y-49645367D01*
X139222463Y-49551267D01*
X139029466Y-49417131D01*
X138866190Y-49248054D01*
X138738865Y-49050486D01*
X138652343Y-48831955D01*
X138609914Y-48600775D01*
X138613196Y-48365754D01*
X138662062Y-48135855D01*
X138754656Y-47919818D01*
X138887445Y-47725884D01*
X139055375Y-47561436D01*
X139252047Y-47432737D01*
X139469972Y-47344689D01*
X139700851Y-47300646D01*
X139935883Y-47302287D01*
X139935883Y-47302287D01*
G37*
G36*
X129165883Y-47302287D02*
X129396124Y-47349549D01*
X129612798Y-47440631D01*
X129807655Y-47572063D01*
X129973276Y-47738844D01*
X130103340Y-47934607D01*
X130192910Y-48151919D01*
X130238219Y-48380749D01*
X130238218Y-48380801D01*
X130238551Y-48382481D01*
X130234803Y-48650939D01*
X130234424Y-48652608D01*
X130234423Y-48652664D01*
X130182742Y-48880140D01*
X130087143Y-49094859D01*
X129951658Y-49286920D01*
X129781448Y-49449009D01*
X129582995Y-49574951D01*
X129363863Y-49659946D01*
X129132392Y-49700761D01*
X128897406Y-49695838D01*
X128667849Y-49645367D01*
X128452463Y-49551267D01*
X128259466Y-49417131D01*
X128096190Y-49248054D01*
X127968865Y-49050486D01*
X127882343Y-48831955D01*
X127839914Y-48600775D01*
X127843196Y-48365754D01*
X127892062Y-48135855D01*
X127984656Y-47919818D01*
X128117445Y-47725884D01*
X128285375Y-47561436D01*
X128482047Y-47432737D01*
X128699972Y-47344689D01*
X128930851Y-47300646D01*
X129165883Y-47302287D01*
X129165883Y-47302287D01*
G37*
M02*
